<?xml version="1.0" encoding="UTF-8" standalone="no"?>
<svg
   xmlns:dc="http://purl.org/dc/elements/1.1/"
   xmlns:cc="http://creativecommons.org/ns#"
   xmlns:rdf="http://www.w3.org/1999/02/22-rdf-syntax-ns#"
   xmlns:svg="http://www.w3.org/2000/svg"
   xmlns="http://www.w3.org/2000/svg"
   xmlns:sodipodi="http://sodipodi.sourceforge.net/DTD/sodipodi-0.dtd"
   xmlns:inkscape="http://www.inkscape.org/namespaces/inkscape"
   color-interpolation="auto"
   color-rendering="auto"
   font-size="12"
   font-style="normal"
   font-weight="normal"
   height="460.62994"
   image-rendering="auto"
   shape-rendering="auto"
   stroke-miterlimit="10"
   text-rendering="auto"
   width="663.6861"
   id="svg2"
   sodipodi:version="0.32"
   inkscape:version="0.48.1 "
   sodipodi:docname="ZZ1.svg"
   inkscape:output_extension="org.inkscape.output.svg.inkscape"
   version="1.0"
   style="font-size:12px;font-style:normal;font-weight:normal;fill:#000000;fill-opacity:1;stroke:#000000;stroke-width:1;stroke-linecap:square;stroke-linejoin:miter;stroke-miterlimit:10;stroke-opacity:1;stroke-dasharray:none;stroke-dashoffset:0;font-family:Dialog">
  <metadata
     id="metadata1432">
    <rdf:RDF>
      <cc:Work
         rdf:about="">
        <dc:format>image/svg+xml</dc:format>
        <dc:type
           rdf:resource="http://purl.org/dc/dcmitype/StillImage" />
      </cc:Work>
    </rdf:RDF>
  </metadata>
  <sodipodi:namedview
     inkscape:window-height="1004"
     inkscape:window-width="1280"
     inkscape:pageshadow="2"
     inkscape:pageopacity="0.0"
     guidetolerance="10.0"
     gridtolerance="10.0"
     objecttolerance="10.0"
     borderopacity="1.0"
     bordercolor="#666666"
     pagecolor="#ffffff"
     id="base"
     showgrid="false"
     inkscape:zoom="1"
     inkscape:cx="497.50094"
     inkscape:cy="152.47181"
     inkscape:current-layer="g12512"
     inkscape:window-x="-8"
     inkscape:window-y="-8"
     inkscape:window-maximized="1"
     fit-margin-top="0"
     fit-margin-left="0"
     fit-margin-right="0"
     fit-margin-bottom="0" />
  <!--Generated by the Batik Graphics2D SVG Generator-->
  <defs
     id="genericDefs">
    <inkscape:perspective
       sodipodi:type="inkscape:persp3d"
       inkscape:vp_x="0 : 268 : 1"
       inkscape:vp_y="0 : 1000 : 0"
       inkscape:vp_z="800 : 268 : 1"
       inkscape:persp3d-origin="400 : 178.66667 : 1"
       id="perspective1434" />
    <defs
       id="defs1">
      <clipPath
         id="clipPath1"
         clipPathUnits="userSpaceOnUse">
        <path
           id="path9"
           d="M 0,0 800,0 800,536 0,536 0,0 z"
           inkscape:connector-curvature="0" />
      </clipPath>
    </defs>
    <clipPath
       clipPathUnits="userSpaceOnUse"
       id="clipPath3313">
      <path
         style="fill:none;stroke:#646464;stroke-width:0.58683354;stroke-linecap:round;stroke-linejoin:round;stroke-miterlimit:10;stroke-opacity:1;stroke-dasharray:none"
         d="m 32.411466,256.45614 -0.0052,23.06127 0.148447,2.16355 -0.167887,27.69427 -0.01398,78.13025 114.715524,0.0464 47.43109,-0.25781 64.25378,0.002 12.71674,0.12357 3.38894,-0.12485 48.45497,0.0943 40.47725,0.33525 56.76007,0.0101 31.30527,-0.19931 11.54476,-0.015 5.5084,-0.0113 83.91768,-0.11897 1.61219,0.0106 1.50598,-3.62939 1.47474,-2.49674 2.1255,-2.69614 2.41981,-2.33231 1.98199,-1.48784 2.65301,-1.54806 2.31745,-0.98699 2.12153,-0.65497 3.17953,-0.66025 2.68309,-0.27027 1.4064,0.12349 1.92058,-0.045 2.29865,0.29814 2.58661,0.58539 3.48897,1.25263 2.37206,1.17196 2.94951,1.97958 1.83125,-1.22107 4.84263,-4.20693 1.39009,-0.88071 2.03927,-0.53294 5.61415,0.10533 2.86633,-0.70086 1.83432,-0.61566 0.89179,-0.46436 2.93321,-2.3139 1.46589,-0.62597 3.3813,-0.19726 1.46948,-0.9231 0.79672,-1.77474 0.19825,-1.5391 -0.80031,-2.28499 -0.0815,-2.01729 0.28274,-1.61968 0.87986,-1.02885 2.57598,-1.50764 1.81051,-0.38932 1.12509,-0.41984 1.25748,-1.14075 0.66957,-1.62523 1.21009,-1.79086 1.41646,-0.75399 2.30808,-0.72627 4.319,-4.04138 3.85983,-2.5005 1.63096,-0.7337 1.84335,0.0622 3.27703,-1.30807 1.73573,-0.5007 0.78633,-1.40104 2.06188,-1.45654 1.13702,-3.05509 1.10651,-0.40578 1.76642,0.71288 1.67812,0.31803 3.29885,-2.06999 1.43021,-0.0281 1.84994,-1.60664 0.30728,-1.08966 -0.0824,-0.95526 -1.6371,-2.41154 -1.88125,-1.08565 -0.69326,-1.95708 -1.11122,-2.28541 -2.70651,-2.07126 -3.14662,-1.72851 -2.02455,-1.28565 -2.00057,-4.86769 -0.84889,-1.51736 -1.36436,-1.4858 -1.73829,-1.35702 -1.30942,-0.25713 -3.4547,-3.01398 -0.52883,-1.00813 -0.1442,-1.42967 -0.33808,-1.4261 -0.75741,-2.13891 -1.18458,-2.58927 -1.82398,-0.92063 -1.40038,-0.82639 -1.27441,0.39809 -1.71466,0.55767 -1.25413,-0.33899 -1.22106,-1.08745 -1.02309,-0.34003 -0.77122,-1.14918 -0.45234,-3.02302 -0.52064,-1.64673 0.40296,-1.21622 -0.0769,-1.19439 0.5557,-0.96703 0.01,-1.94777 -0.24927,-1.34696 -0.0286,-3.27264 -0.41069,-2.28627 -1.0135,-0.77965 -2.39621,-2.78876 -1.72835,-0.78017 -2.71042,-0.35861 -0.90747,0.47843 -1.16844,1.02493 -1.38431,0.0891 -1.55913,-0.65984 -1.06736,-1.39787 0.63854,-1.29195 -0.19262,-1.1172 -0.0934,-1.02622 -0.61615,-2.3793 1.02457,-0.75656 -0.40671,-2.31056 -0.89957,-1.20223 1.05622,-1.81688 0.89116,-0.57659 0.57877,-0.94579 -0.33808,-0.96676 -1.10196,-0.002 -1.13776,-0.87448 -0.33001,-0.85668 1.89028,-3.99866 0.0757,-0.88447 0.0299,-1.65482 -1.1989,-1.55173 0.537,-1.10006 1.57533,-1.19925 0.64804,-1.93132 0.87349,-0.0916 1.56999,0.51435 1.97074,-0.1663 0.92167,-1.54226 1.60437,-0.62103 0.8477,-1.24325 0.0645,-1.12377 1.06673,-1.17836 0.55025,-2.02445 -1.32777,-1.85089 0.72866,-0.87782 1.57095,-0.0983 1.45067,0.0596 0.46854,-0.94912 0.90332,-1.36563 -0.28989,-1.14245 -2.3853,-2.9293 -0.082,-1.83887 -0.35206,-0.9781 -1.78647,-1.46594 -1.16839,-2.21727 -1.27839,-1.90607 -0.0637,-1.52315 -0.46837,-0.92515 -1.33055,-0.26983 0.23933,-1.31337 0.58592,-1.81686 1.98944,-1.44963 1.49163,-0.68167 0.76571,-0.8785 1.98744,-0.51367 3.96467,-2.59064 0.95923,-0.43579 0.005,-0.95594 0.93407,-1.28461 1.19509,-1.72212 1.2685,-1.28701 1.34845,-0.37371 1.48169,-1.09008 -0.57388,-1.09435 -1.36271,-0.81624 0.9989,-1.56069 0.86957,-0.3929 1.1373,-0.58904 1.07026,-0.71766 0.73281,-1.04019 0.93764,-0.4578 1.13651,-0.78307 1.00219,-0.9765 0.73525,-0.97537 0.73201,-1.42883 0.46587,-0.97436 1.0031,-0.91159 0.8007,-1.16947 0.39785,-1.29801 0.6665,-1.29903 0.46581,-0.90896 0.66826,-1.04027 0.13012,-1.03704 -0.60866,-0.90563 0.26529,-1.03806 0.33161,-1.03815 0.53382,-0.90946 1.0056,-0.78145 0.26517,-1.03806 0.39871,-1.10347 0.26529,-0.97324 0.60178,-1.03918 0.73622,-1.0402 1.00639,-0.78093 0.93923,-0.71603 1.27425,-0.91109 0.33404,-0.97376 0.0638,-0.97213 0.87389,-0.26217 0.87457,-0.0675 1.07526,-0.45669 0.53467,-1.10348 0.87213,-1.16939 0.87378,-0.32639 1.07691,-0.13184 1.27839,-0.003 0.94184,-0.39068 1.07606,-0.45669 0.85281,-0.42991 0.24819,-0.15547 0.58126,-1.42909 -1.90812,-1.65116 -1.36794,-2.25531 -1.67352,-0.52969 -0.53467,-0.9602 0.25069,-1.19183 0.34819,-2.00031 -0.91344,-0.45277 -2.18705,1.00319 -1.04946,-0.39129 -1.22118,0.565 -1.21645,-0.22608 -0.45661,-1.04429 -0.88411,-1.6509 -1.14561,0.33456 -0.88411,1.25263 -1.19748,0.0159 -1.28584,-1.22193 -1.76977,-0.5448 -1.70374,0.62069 -1.78511,-0.3616 0.80582,-1.29502 -0.65945,-0.99209 -1.30021,-0.4201 -0.67161,-2.1099 -1.22135,-0.17671 -0.93434,-0.74068 -1.70477,0.24254 -1.11998,0.60414 -1.27924,-0.1489 -1.72818,-1.20343 0.37706,-1.80321 -0.60257,-1.46448 -1.76705,-0.34002 -0.0159,-1.84758 -1.21782,-1.04948 -0.89105,-0.24971 -0.19586,-0.95057 0.95219,-0.63494 -0.26188,-1.07933 -1.24191,-1.46382 -0.36894,-0.43484 -1.14594,-1.25417 -0.34978,-1.34064 -1.45794,-1.07926 -0.76389,-1.23063 -0.51842,-1.4389 1.31384,-0.18574 -0.041,-0.95432 1.40823,0.24152 0.41103,-1.12122 -0.5607,-1.44861 -0.0685,-1.15438 0.0182,-0.94818 0.0476,-1.1167 -0.13609,-0.89121 -1.03554,-1.3948 0.88543,-1.09153 -0.15972,-1.20446 -1.59983,-2.43432 0.67127,-1.07148 1.2447,-0.0535 -0.54519,-3.122461 0.22115,-1.365211 -0.0461,-0.990984 -1.2843,-2.146144 -1.33084,-0.708959 -1.73971,0.469651 -1.30157,-0.834491 0.3495,-1.962445 1.44516,-1.370325 1.2585,-0.139357 0.51848,-1.401195 -0.64758,-0.970518 -1.25657,0.505129 -1.30021,-1.055378 -1.52322,-1.188587 -0.21524,-2.596782 -1.52709,0.04545 -1.09526,-1.00395 -1.52828,0.554426 -0.88281,-0.327147 -0.61087,-1.080532 -0.14154,-1.827867 -1.08901,0.252434 -1.02293,1.130085 -0.60445,-0.860418 -1.05838,-0.368511 -1.20669,0.345396 -0.96417,1.427469 -0.86679,-0.286128 -1.29084,-1.059639 -0.86383,0.690964 -1.02651,-0.251417 -0.36177,-0.993802 0.68775,-0.907238 -0.33655,-0.953461 -1.17395,-0.510759 -0.16336,-1.393355 0.57383,-1.420133 -0.98907,-2.164742 -0.27967,-2.386901 -1.13202,-0.567641 -0.22518,-1.369388 -1.07849,0.51093 -1.0039,-0.01595 -0.85934,-0.746222 -0.46382,-1.065271 -0.72576,-0.960965 -1.45482,-0.635957 0.50632,-1.975242 -0.46933,-0.937426 -1.94858,-0.88319 -13.62459,0.03411 -30.55455,0.20229 -23.64745,-0.149487 -43.8523,0.06088 -50.67586,-0.531907 -32.07965,0.388546 -41.63832,-0.09372 -35.54612,0.25866 -18.60568,-0.07129 -13.99699,-0.24178 -16.11499,0.211841 -35.80549,-0.129884 -30.59748,0.331152 -27.50602,-0.278275 -38.25431,0.178841 -31.77823,-0.07897 0.13317,-38.607619 -2.41062,1.050555 -5.62555,3.580686 -2.13036,0.929073 -1.71144,0.198881 -2.59625,1.919291 -3.530405,1.638543 -3.386141,2.10666 -5.002696,3.534975 -1.269174,0.817354 -4.199406,2.253259 -1.107169,0.366204 -1.756042,-0.749805 -0.287003,0.869201 -1.443799,1.495777 -1.41515,0.415751 -2.126178,1.590105 -1.839089,0.722005 0.639577,-1.702847 0.111696,-1.370495 1.10376,-1.513774 0.569062,-1.050598 1.532728,0.507267 1.401764,-0.186858 0.706766,-1.076272 1.564621,0.542232 -0.556443,-1.536716 0.274468,-1.230464 -0.852821,0.05237 -2.630692,0.875089 -1.964946,1.730137 -1.523517,2.311079 -0.693294,2.060351 -1.066844,2.073398 -3.284592,2.317052 -3.67144,2.003121 -1.141529,0.399466 -7.442822,4.07115 -8.281397,3.412853 -8.573436,3.306593 -0.952754,0.738892 -5.754818,1.945387 -0.869621,0.553653"
         id="path3315"
         inkscape:connector-curvature="0" />
    </clipPath>
    <inkscape:perspective
       id="perspective3748"
       inkscape:persp3d-origin="0.5 : 0.33333333 : 1"
       inkscape:vp_z="1 : 0.5 : 1"
       inkscape:vp_y="0 : 1000 : 0"
       inkscape:vp_x="0 : 0.5 : 1"
       sodipodi:type="inkscape:persp3d" />
    <inkscape:perspective
       id="perspective3775"
       inkscape:persp3d-origin="0.5 : 0.33333333 : 1"
       inkscape:vp_z="1 : 0.5 : 1"
       inkscape:vp_y="0 : 1000 : 0"
       inkscape:vp_x="0 : 0.5 : 1"
       sodipodi:type="inkscape:persp3d" />
  </defs>
  <path
     style="font-size:12px;font-style:normal;font-weight:normal;fill:#000000;fill-opacity:1;stroke:none;font-family:Dialog"
     d="m -4726.7032,4121.1337 0,0 0,0 0,0"
     id="path8"
     inkscape:connector-curvature="0" />
  <g
     style="font-size:12px;font-style:normal;font-weight:normal;fill:#000000;fill-opacity:1;stroke:#000000;stroke-width:1.00002992;stroke-linecap:square;stroke-linejoin:miter;stroke-miterlimit:10;stroke-opacity:1;stroke-dasharray:none;stroke-dashoffset:0;font-family:Dialog"
     id="g12512"
     transform="matrix(1.7599473,0,0,1.7599473,-204.1733,-223.29722)">
    <path
       style="fill:#003271;fill-opacity:1;fill-rule:evenodd;stroke:none"
       d="m 116.01103,126.87722 377.10568,0 0,261.7294 -377.10568,0 z"
       id="rect607"
       inkscape:connector-curvature="0" />
    <path
       inkscape:connector-curvature="0"
       d="m 302.23157,216.52532 c 0,0 -0.60593,69.61107 -0.60593,74.67374 0,5.06264 0,12.02372 -5.45369,10.75809 -5.4537,-1.26566 -12.11938,-1.26566 -21.81483,-8.22681 -9.69546,-6.96108 -9.69546,-8.22673 -9.69546,-8.22673 l 9.08947,-3.16415 c 0,0 -9.08947,-1.89851 -15.14916,-6.3283 -6.05967,-4.42979 -10.90745,-8.22674 -10.90745,-8.22674 0,0 -0.60599,9.49238 2.42393,16.45354 3.02984,6.9611 9.08945,13.28939 9.08945,13.28939 l 0,-8.2268 c 0,0 8.48355,8.2268 11.51337,10.12531 3.02986,1.89843 15.14922,6.96108 19.99698,10.12522 4.84771,3.16416 14.54317,12.02376 14.54317,12.02376 0,0 8.4836,-10.12525 14.54321,-12.65654 6.05968,-2.53136 13.9373,-6.32837 17.57307,-8.85966 3.63583,-2.53129 13.3313,-12.02374 13.3313,-12.02374 l 0,10.75809 c 0,0 6.66569,-8.22681 8.48353,-13.92223 1.81791,-5.69545 2.42384,-15.82068 2.42384,-15.82068 0,0 -4.84769,3.79693 -9.08945,5.69543 -4.24177,1.8985 -16.36116,6.96109 -16.36116,6.96109 l 9.69547,2.53136 c 0,0 -15.75515,12.65652 -21.20884,15.1879 -5.45368,2.53129 -16.96707,3.79692 -16.96707,-2.53138 0,-6.3283 0.60593,-80.36916 0.60593,-80.36916 l -6.05968,0 z"
       id="path630"
       sodipodi:nodetypes="ccccccccccccccccccccccccccc"
       style="fill:#fec500;fill-opacity:1;fill-rule:evenodd;stroke:#fec500;stroke-width:0.7103488pt;stroke-linecap:butt;stroke-linejoin:miter;stroke-opacity:1" />
    <rect
       height="18.984844"
       id="rect631"
       style="font-size:12px;fill:#fec500;fill-opacity:1;fill-rule:evenodd;stroke:#fec500;stroke-width:0.71034896;stroke-opacity:1"
       width="4.2417741"
       x="302.83749"
       y="193.11064" />
    <path
       inkscape:connector-curvature="0"
       d="m 272.5392,212.09553 c 0,0 16.96708,-3.79701 32.72222,-3.79701 15.75513,0 32.11628,3.79701 32.11628,3.79701 l 0,6.96108 c 0,0 -21.81484,3.16416 -34.54013,3.16416 -12.72531,0 -30.9043,-3.79702 -30.9043,-3.79702 l 0.60593,-6.32822 z"
       id="path629"
       style="fill:#fec500;fill-opacity:1;fill-rule:evenodd;stroke:#003271;stroke-width:0.7103488pt;stroke-linecap:butt;stroke-linejoin:miter;stroke-opacity:1" />
    <path
       inkscape:connector-curvature="0"
       d="m 311.3211,208.93131 c 0,4.19402 -2.84872,7.59393 -6.36268,7.59393 -3.514,0 -6.3627,-3.39991 -6.3627,-7.59393 0,-4.19402 2.8487,-7.59395 6.3627,-7.59395 3.51396,0 6.36268,3.39993 6.36268,7.59395 z m 3.02983,-0.31636 c 0,5.7668 -4.34082,10.44166 -9.69543,10.44166 -5.35472,0 -9.69554,-4.67486 -9.69554,-10.44166 0,-5.76681 4.34082,-10.44166 9.69554,-10.44166 5.35461,0 9.69543,4.67485 9.69543,10.44166 z"
       id="path640"
       style="font-size:12px;fill:#fec500;fill-opacity:1;fill-rule:evenodd;stroke:#003271;stroke-width:0.887936;stroke-opacity:1;stroke-dasharray:none" />
    <path
       style="fill:#fec500;fill-rule:evenodd;stroke:none"
       d="m 304.56547,150.47784 4.30762,10.54013 11.53406,1.05617 -8.89616,7.27255 2.5394,11.07816 -9.80575,-6.04545 -9.96461,5.79051 2.83586,-11.00885 -8.69787,-7.49942 11.55841,-0.75839 z"
       id="polygon616"
       inkscape:connector-curvature="0" />
    <path
       style="fill:#fec500;fill-rule:evenodd;stroke:none"
       d="m 355.5967,162.94803 -1.51841,11.2847 9.47321,6.66395 -11.33708,1.87139 -3.31952,10.86991 -5.4883,-10.12812 -11.52478,0.054 7.94512,-8.13091 -3.80318,-10.83652 10.39865,5.10293 z"
       id="polygon617"
       inkscape:connector-curvature="0" />
    <path
       style="fill:#fec500;fill-rule:evenodd;stroke:none"
       d="m 393.16883,197.10236 -6.25818,9.51236 5.65018,10.11065 -11.0284,-3.22583 -7.7017,8.35811 -0.55774,-11.50604 -10.41008,-4.94506 10.68368,-3.88529 1.26792,-11.41432 7.16062,9.10479 z"
       id="polygon618"
       inkscape:connector-curvature="0" />
    <path
       style="fill:#fec500;fill-rule:evenodd;stroke:none"
       d="m 411.03576,246.98353 -9.89907,5.62656 0.435,11.57413 -8.3556,-7.88767 -10.6599,3.94215 4.73503,-10.50141 -7.02317,-9.13774 11.282,1.39744 6.31934,-9.58959 2.23763,11.36507 z"
       id="polygon619"
       inkscape:connector-curvature="0" />
    <path
       style="fill:#fec500;fill-rule:evenodd;stroke:none"
       d="m 405.78887,298.85192 -11.3783,0.42903 -4.95012,10.47121 -3.77808,-10.85162 -11.27687,-1.41644 9.04334,-7.1357 -2.01937,-11.34661 9.36716,6.44151 10.02883,-5.59615 -3.25411,11.11677 z"
       id="polygon620"
       inkscape:connector-curvature="0" />
    <path
       style="fill:#fec500;fill-rule:evenodd;stroke:none"
       d="m 253.38791,162.83229 8.50237,7.57362 10.82419,-4.12151 -4.79366,10.44282 7.15066,8.83416 -11.46502,-1.11961 -6.40484,9.58132 -2.29211,-11.13477 -11.10906,-2.91257 10.04841,-5.76207 z"
       id="polygon621"
       inkscape:connector-curvature="0" />
    <path
       style="fill:#fec500;fill-rule:evenodd;stroke:none"
       d="m 331.31999,334.34442 0.1629,11.38523 10.35262,5.19359 -10.93698,3.52333 -1.6797,11.24068 -6.92233,-9.2077 -11.39073,1.75354 6.65874,-9.214 -5.36015,-10.15693 11.03766,3.51313 z"
       id="polygon622"
       inkscape:connector-curvature="0" />
    <path
       style="fill:#fec500;fill-rule:evenodd;stroke:none"
       d="m 232.78044,191.33899 0.9383,11.34767 10.68244,4.47609 -10.67149,4.26038 -0.90988,11.32901 -7.53364,-8.71462 -11.24477,2.52562 6.01544,-9.64631 -6.03977,-9.76809 11.25139,2.75287 z"
       id="polygon623"
       inkscape:connector-curvature="0" />
    <path
       style="fill:#fec500;fill-rule:evenodd;stroke:none"
       d="m 209.55459,232.43564 6.23831,9.52541 11.52382,-1.16246 -7.34625,8.8354 4.60511,10.39072 -10.77854,-4.06484 -8.6777,7.58427 0.68474,-11.3476 -9.96822,-5.70338 11.20173,-2.94837 z"
       id="polygon624"
       inkscape:connector-curvature="0" />
    <path
       style="fill:#fec500;fill-rule:evenodd;stroke:none"
       d="m 207.7292,279.19949 10.07365,5.3077 9.51605,-6.60262 -2.14281,11.28892 9.06458,6.85621 -11.39798,1.66923 -3.91383,10.83999 -4.90153,-10.25727 -11.48346,-0.15673 8.36867,-8.00858 z"
       id="polygon625"
       inkscape:connector-curvature="0" />
    <path
       style="fill:#fec500;fill-rule:evenodd;stroke:none"
       d="m 244.83591,312.06929 3.08857,10.95951 11.34074,2.35319 -9.66121,6.22033 1.27087,11.2942 -9.05953,-7.11513 -10.5553,4.62701 4.06211,-10.61772 -7.7944,-8.43456 11.57006,0.55302 z"
       id="polygon626"
       inkscape:connector-curvature="0" />
    <path
       style="fill:#fec500;fill-rule:evenodd;stroke:none"
       d="m 294.12954,339.14743 -5.24502,10.10644 6.66162,9.47484 -11.30202,-2.07262 -6.79976,9.10701 -1.74002,-11.38739 -10.8641,-3.84639 10.22663,-4.96518 0.0854,-11.48421 8.06043,8.31874 z"
       id="polygon627"
       inkscape:connector-curvature="0" />
    <path
       style="fill:#fec500;fill-rule:evenodd;stroke:none"
       d="m 363.37411,312.57995 5.75361,9.82578 11.56758,-0.58406 -7.77938,8.45652 4.07914,10.60824 -10.56153,-4.59936 -9.04652,7.1403 1.25199,-11.29908 -9.6702,-6.19528 11.3353,-2.38386 z"
       id="polygon628"
       inkscape:connector-curvature="0" />
  </g>
</svg>
