<?xml version="1.0" encoding="UTF-8" standalone="no"?>
<!-- Created with Inkscape (http://www.inkscape.org/) -->

<svg
   xmlns:dc="http://purl.org/dc/elements/1.1/"
   xmlns:cc="http://creativecommons.org/ns#"
   xmlns:rdf="http://www.w3.org/1999/02/22-rdf-syntax-ns#"
   xmlns:svg="http://www.w3.org/2000/svg"
   xmlns="http://www.w3.org/2000/svg"
   xmlns:sodipodi="http://sodipodi.sourceforge.net/DTD/sodipodi-0.dtd"
   xmlns:inkscape="http://www.inkscape.org/namespaces/inkscape"
   id="svg2"
   sodipodi:version="0.32"
   inkscape:version="0.91 r13725"
   width="38cm"
   height="25cm"
   version="1.0"
   sodipodi:docname="Flag_of_South_Carolina_(January_1861).svg">
  <metadata
     id="metadata7">
    <rdf:RDF>
      <cc:Work
         rdf:about="">
        <dc:format>image/svg+xml</dc:format>
        <dc:type
           rdf:resource="http://purl.org/dc/dcmitype/StillImage" />
      </cc:Work>
    </rdf:RDF>
  </metadata>
  <defs
     id="defs5" />
  <sodipodi:namedview
     inkscape:window-height="705"
     inkscape:window-width="1366"
     inkscape:pageshadow="2"
     inkscape:pageopacity="1"
     borderopacity="1.0"
     bordercolor="#666666"
     pagecolor="#ffffff"
     id="base"
     showgrid="false"
     inkscape:grid-points="true"
     gridtolerance="0.5cm"
     inkscape:zoom="0.3"
     inkscape:cx="385.91234"
     inkscape:cy="352.31809"
     inkscape:window-x="-8"
     inkscape:window-y="-8"
     inkscape:current-layer="svg2"
     inkscape:document-units="cm"
     showguides="true"
     inkscape:guide-bbox="true"
     guidetolerance="0.5cm"
     inkscape:window-maximized="1">
    <inkscape:grid
       id="GridFromPre046Settings"
       type="xygrid"
       originx="0cm"
       originy="0cm"
       spacingx="0.5cm"
       spacingy="0.5cm"
       color="#3f3fff"
       empcolor="#3f3fff"
       opacity="0.15"
       empopacity="0.38"
       empspacing="5" />
  </sodipodi:namedview>
  <rect
     style="opacity: 1; fill: rgb(0, 40, 104); fill-opacity: 1; stroke: none; stroke-width: 0.814961; stroke-linejoin: miter; stroke-miterlimit: 4; stroke-dasharray: none; stroke-dashoffset: 0pt; stroke-opacity: 1;"
     id="rect7053"
     width="1346.4567"
     height="885.82678"
     x="0"
     y="1.057302e-005" />
  <path
     sodipodi:type="arc"
     style="opacity: 1; fill: rgb(255, 255, 255); fill-opacity: 1; stroke: none; stroke-width: 0.814961; stroke-linejoin: miter; stroke-miterlimit: 4; stroke-dasharray: none; stroke-dashoffset: 0pt; stroke-opacity: 1;"
     id="path5279"
     sodipodi:cx="620.07874"
     sodipodi:cy="434.05511"
     sodipodi:rx="265.74802"
     sodipodi:ry="380.90552"
     d="M 885.82675 434.05511 A 265.74802 380.90552 0 1 1  354.33072,434.05511 A 265.74802 380.90552 0 1 1  885.82675 434.05511 z"
     transform="matrix(0.979206, 0, 0, 1.02188, 66.0435, 0.96152)" />
  <path
     style="opacity: 1; fill: rgb(255, 255, 255); fill-opacity: 1; stroke: none; stroke-width: 0.814961; stroke-linejoin: miter; stroke-miterlimit: 4; stroke-dasharray: none; stroke-dashoffset: 0pt; stroke-opacity: 1;"
     d="M 161.72797,45.413708 C 142.49943,45.657544 124.39334,50.635741 108.54047,59.226208 C 114.24295,57.908787 120.15827,57.194958 126.25922,57.194958 C 169.64375,57.194958 204.85297,92.404178 204.85297,135.7887 C 204.85297,179.17324 169.64375,214.38245 126.25922,214.38245 C 87.397315,214.38246 55.103095,186.14214 48.790465,149.06995 C 48.426762,152.79008 48.259215,156.5673 48.259215,160.38245 C 48.259215,223.84297 99.767446,275.3512 163.22797,275.3512 C 226.68849,275.3512 278.16546,223.84297 278.16547,160.38245 C 278.16547,96.921938 226.68849,45.413709 163.22797,45.413708 C 162.73218,45.413708 162.22228,45.40744 161.72797,45.413708 z "
     id="path6164" />
  <path
     inkscape:connector-curvature="0"
     d="m 719.5346,149.66929 c -4.43292,2.06049 -7.70667,8.05645 -9.57696,12.78845 -4.43851,13.21051 -9.00293,26.39346 -13.46375,39.58055 -2.32798,5.93047 -4.57457,11.96452 -6.91943,17.84844 -4.3035,-0.58049 1.69818,-7.93275 1.36697,-11.07863 1.42236,-6.45763 4.5833,-12.77001 4.85438,-19.36025 -1.08186,-4.93486 0.10987,-11.33924 -2.3405,-15.35509 -3.6564,8.43735 -8.28883,16.5196 -11.43556,25.14786 -2.36639,10.35332 -5.5432,20.52239 -6.87046,31.08674 -0.793,5.46874 -1.7542,10.86118 -3.53021,16.10436 -4.37886,-0.40857 -3.22236,-8.12552 -5.7979,-11.30691 -2.33729,-7.43234 -7.04356,-13.86315 -10.44498,-20.83983 -1.73812,-1.72792 -5.73239,-13.87633 -5.66028,-7.10631 -0.39087,4.89152 -0.72737,9.78754 -1.17494,14.67436 -9.73155,-18.18692 -19.49259,-36.35807 -29.23569,-54.53883 0.79279,5.906 -0.0247,12.27217 2.12153,17.8519 4.72566,10.18711 9.04343,20.55825 13.55707,30.83979 -2.37512,2.24773 -2.85354,-1.4672 -4.04039,-2.97712 -9.00212,-15.89361 -18.00423,-31.78723 -27.00636,-47.68086 -3.63579,2.55432 -1.10408,7.26297 -1.5726,10.94584 1.48479,5.16368 4.90679,9.78754 7.23701,14.67834 4.26041,7.97115 8.63946,15.90389 13.01539,23.79192 -3.13643,3.45731 -4.84346,-6.33241 -7.089,-8.53785 -8.14067,-14.12167 -16.19672,-28.29488 -24.57871,-42.27535 -3.6727,1.26917 -4.80882,3.95948 -4.1913,7.5189 -0.6074,3.56568 0.86964,6.59883 2.93281,9.46466 6.29854,10.90135 12.65629,21.76843 19.0069,32.63952 -2.15206,2.49843 -2.80979,-1.15073 -4.06365,-2.61152 -10.21899,-16.17072 -20.438,-32.34144 -30.65699,-48.51215 -2.48683,-1.11869 -6.00298,-4.10307 -5.20756,0.85231 -1.18191,6.20317 5.5595,10.53991 7.76398,15.90524 9.08959,14.0625 18.45573,28.20184 27.50721,42.12781 -1.89499,2.55385 -2.76382,-0.70754 -3.98596,-2.10982 -5.74311,-8.14504 -11.48622,-16.2901 -17.22933,-24.43516 -2.14416,-0.55793 -4.89935,-1.95092 -4.08955,1.52815 -0.14228,2.20892 -0.73108,4.53858 1.14397,6.20212 9.18701,13.7882 18.54621,27.50646 27.62661,41.3379 2.94601,6.02583 5.63059,12.23323 8.73776,18.14715 5.2462,5.39899 10.49238,10.79799 15.73858,16.19698 -3.76584,3.03215 -7.58139,-6.5926 -11.33206,-8.33087 -3.97251,-4.47118 -9.31528,-8.04457 -11.55851,-13.7694 -2.72481,-4.25976 -4.28852,-9.34613 -8.49242,-12.46166 -4.65609,-3.49375 -8.23408,-9.8576 -13.63482,-11.43903 -1.74529,3.84956 -0.32161,12.50939 4.90726,15.48414 0.52115,1.43534 7.85306,6.37323 3.82814,5.36045 -7.89441,-0.867 -15.30905,-3.62915 -22.70644,-6.35609 -4.46999,4.288 10.67194,7.72046 2.17328,9.46926 -6.14715,0.0839 -10.88842,-5.48987 -16.50654,-7.55471 -14.00413,-7.65771 -28.35196,-14.71096 -42.67123,-21.73307 -2.97271,-0.89679 -5.94543,-1.79359 -8.91814,-2.69038 -0.82708,5.18589 7.27575,6.64896 9.96814,10.31625 10.86276,5.86566 21.99186,11.42383 32.8764,17.31536 -0.34857,3.27178 -3.30136,0.7979 -5.27594,0.4822 -20.37081,-6.55982 -40.7416,-13.11964 -61.11241,-19.67945 -3.42163,-0.81803 -2.8252,0.97768 -1.44067,3.28606 0.3411,2.66931 2.99326,2.80229 5.0634,3.57399 15.9907,5.36581 31.96695,10.77705 47.96665,16.11456 0.62997,2.52065 1.15821,5.06685 1.70757,7.60645 -3.63469,-2.99424 -7.21748,-6.41811 -12.19636,-6.74185 -10.4148,-2.57954 -21.14665,-0.39266 -31.70544,-0.27217 -5.63445,-1.3504 -6.36482,3.19751 -0.75379,4.16808 4.50919,3.50399 10.32202,1.53651 15.56382,1.81486 8.52508,-0.25493 17.04965,-0.52791 25.57314,-0.83172 1.50932,4.85698 -8.32314,1.60641 -8.69608,5.55073 -0.98301,4.68354 7.85525,4.68448 11.04518,3.72673 4.87555,0.0817 8.2546,-7.14489 12.39812,-5.91407 -1.08284,4.63525 -9.22147,5.67079 -10.14487,10.46653 -0.61274,4.80428 9.19155,3.39001 12.01164,1.33774 3.27214,-2.71854 8.9055,-6.82335 9.20658,0.45921 0.95223,6.5807 9.65374,4.03278 14.38499,6.2611 8.43294,1.28602 17.06746,1.81991 25.42361,3.20114 7.99405,3.62798 16.01526,7.22845 23.9925,10.8734 -1.64064,4.52692 -8.67195,-2.33647 -12.31522,-2.06978 -6.03717,-1.68499 -11.59836,-5.11184 -18.01034,-5.17498 -5.54429,-1.01778 -11.1119,-0.89957 -16.67654,-0.25192 -16.85636,1.40843 -33.74651,2.55069 -50.5818,4.12521 -15.66888,2.64601 -31.3766,5.18031 -47.04229,7.76975 -3.97955,1.2358 -12.63232,3.56785 -4.34655,5.17448 17.78854,-0.83508 35.54058,-2.33202 53.29695,-3.67389 1.28357,3.1055 -2.53156,2.04555 -4.4421,2.54158 -14.76711,1.49857 -29.53421,2.99713 -44.30132,4.4957 -4.54576,3.36164 -10.61328,5.21173 -13.09138,10.71113 0.71214,7.82865 10.51255,0.66935 15.36815,1.19013 12.77752,-2.14827 25.50543,-4.18208 37.8253,-8.1239 3.67042,0.29325 12.8463,-6.26129 13.40186,-1.55234 -13.93028,4.29728 -27.89537,8.6535 -41.94353,12.54719 -2.99106,0.69884 -5.98211,1.39769 -8.97318,2.09653 -0.87323,7.19046 10.00222,2.99669 14.43675,4.13957 9.74889,-2.27974 19.03936,-6.2134 28.67502,-8.94612 5.1379,-0.42251 12.92115,-6.4453 16.64402,-3.97202 -3.30764,3.3775 -10.99051,5.15926 -15.79389,7.95397 -9.91327,4.33664 -19.96671,8.31949 -29.62864,13.24331 -6.36383,6.44754 6.76181,5.85568 9.98473,2.51725 10.3224,-4.73482 20.51685,-9.73372 30.68654,-14.83247 2.49293,2.06183 -1.1723,3.0477 -2.47078,4.46276 -5.76123,4.50956 -11.38107,9.17483 -17.80543,12.72155 -2.4881,1.99858 -6.55766,2.69656 -7.04494,6.35949 5.64346,3.20903 11.03511,-0.68267 16.09258,-3.20817 13.22073,-8.55947 26.59386,-16.9318 40.05032,-25.09612 5.81824,-2.60565 11.78697,-4.86187 17.69666,-7.24426 2.28363,2.2793 -1.44825,2.97152 -2.86339,4.30911 -6.4937,4.34552 -13.01181,8.66126 -19.49029,13.02533 -7.08248,7.32551 -13.49485,15.38167 -21.85853,21.32761 -3.90041,3.26251 -7.88137,6.2001 -10.96397,9.79757 -6.11562,6.15149 -12.44847,12.08421 -18.50815,18.29094 -1.89042,6.2698 -5.91904,12.1636 -5.47371,18.88995 0.0775,7.2422 -0.74565,14.56378 -0.0633,21.75689 0.74321,2.98874 2.46787,9.80369 3.05186,2.99104 0.32843,-3.11493 2.47841,-13.85586 4.78561,-6.31906 1.26823,2.81946 2.51545,11.31906 4.0181,9.8447 2.20124,-4.36231 2.60885,-10.48178 6.15184,-13.78826 3.15609,1.84187 5.65023,6.38665 8.65751,1.15796 3.81622,-4.44326 3.25071,-11.12162 5.14949,-16.53142 1.63623,-7.0195 3.27768,-14.03775 4.92456,-21.05475 2.99042,-0.86562 2.28237,2.75588 3.02746,4.61438 0.95716,4.32627 1.91429,8.65252 2.87143,12.97879 6.52825,-2.82916 3.86295,-11.65349 5.96772,-17.23641 0.41809,-4.18357 1.74854,-15.20022 6.24169,-6.79124 2.63971,6.33006 9.95277,-0.96731 9.73029,-5.57027 1.49293,-7.294 2.9224,-14.60115 4.45004,-21.88796 1.95883,3.49093 4.00164,6.93374 6.00238,10.40066 6.8163,-0.31605 9.16129,-7.15242 13.58322,-11.20491 3.97327,-4.12503 7.51707,-8.90479 11.92688,-12.49411 5.02497,-2.58984 9.7334,-6.04996 14.90244,-8.27915 5.04302,4.66181 -2.56816,10.95538 -5.43318,14.95419 -6.39415,7.9001 -14.28645,14.40776 -20.98079,22.05675 -2.64239,3.05003 -6.77632,5.61026 -5.66768,10.14986 3.35892,1.49755 6.86207,2.85848 10.24542,4.37683 -5.10978,2.56156 -10.60185,4.76423 -15.31641,7.86518 -4.56527,3.94908 -9.49368,7.45419 -14.2815,11.12509 -1.29265,3.47429 -2.1278,7.39747 3.01169,5.95284 3.66954,-0.63188 13.55046,0.93687 5.78489,4.55133 -7.29865,4.77044 -15.7494,7.74802 -22.97461,12.47044 -2.0008,2.6713 -7.37155,6.86377 -0.82792,6.67506 4.37045,-0.62862 10.91281,-7.28854 14.15981,-3.91687 -4.59382,5.0761 -10.54764,9.97403 -15.57515,15.04538 -2.56016,1.98123 -8.23891,7.49042 -4.87749,9.0388 7.96538,-3.80816 13.56175,-10.96559 20.34744,-16.4191 2.38466,-3.78793 8.77453,-7.1531 6.75128,0.23159 -7.87826,9.8084 -15.49383,19.89562 -23.60009,29.44722 0.81636,9.59225 6.98428,-2.75285 10.0226,-5.32674 4.73815,-5.59311 9.14301,-11.58612 15.33634,-15.67579 2.15,-0.46704 7.8201,-8.54549 8.11981,-5.24301 -0.14457,2.74643 0.7036,5.81227 -1.63039,7.94972 -4.89863,6.60319 -8.17278,14.15658 -12.1854,21.297 -0.66265,3.08237 -1.34909,11.93934 3.10467,7.7617 5.30245,-9.88879 11.77211,-19.13702 15.94682,-29.60816 4.27911,-8.98104 7.16639,-18.62096 10.75339,-27.82836 3.01865,-4.50496 4.49411,-2.978 4.0736,1.73114 0.48716,4.37999 0.302,13.75093 3.32588,14.41317 5.49665,-12.55806 12.39612,-24.43442 18.25622,-36.80565 2.02827,-6.03601 4.43818,-11.96444 6.94341,-17.83665 3.1571,-0.3309 1.70686,3.0964 2.01804,5.08692 -0.21233,3.99322 0.42274,8.12513 -0.3107,12.03308 -3.40544,9.7782 -5.95873,19.86317 -10.70741,29.11972 -2.87919,5.9524 -6.94769,11.31695 -9.73148,17.30266 -2.78999,3.63374 -1.75454,3.66081 1.38903,1.52479 5.55963,-2.54554 9.29277,-7.31852 13.14771,-11.85991 6.06344,-4.86259 1.56162,6.19447 0.16415,8.53984 -3.29783,9.34906 -5.43186,19.1584 -9.16417,28.39201 -0.0465,2.79805 -1.01679,9.23054 2.54818,4.30611 6.69169,-5.23162 9.12757,-13.61242 13.13044,-20.76089 2.42717,3.54646 6.99366,5.59561 9.20569,1.22287 -0.37151,-5.52264 -2.91848,-11.24646 -0.43196,-16.59534 2.45539,-8.84721 4.47213,-17.86147 5.85706,-26.92973 0.66641,-5.5138 1.03796,-11.08902 1.7205,-16.58317 3.06824,-1.58009 1.77137,3.28984 2.01804,5.13866 0,4.20324 0,8.4065 0,12.60974 3.00511,0.33022 8.52058,-4.99555 10.0902,-1.50059 -3.03345,2.59872 -7.66575,4.2077 -10.41258,7.0343 -0.11678,3.51964 -0.23352,7.03925 -0.35029,10.55887 3.74287,-2.27677 7.48572,-4.55353 11.22858,-6.8303 2.65411,1.86687 -0.86368,3.15875 -2.06722,4.70203 -3.07103,2.86545 -6.14207,5.73088 -9.2131,8.59634 -0.0518,2.48374 -0.10346,4.96747 -0.15527,7.45122 2.60196,-0.81781 5.2241,-1.57849 7.81344,-2.43199 2.13423,2.42968 -1.54757,2.97728 -3.07393,4.24387 -1.7266,1.60342 -5.60707,1.87912 -5.04664,4.89438 -0.1957,7.58119 -0.47354,15.15783 -0.77952,22.73643 1.36792,-2.70932 6.19549,-9.23235 5.48958,-9.60269 -1.58204,3.09704 -7.34084,3.30458 -3.41979,0.0817 1.63005,-1.98007 10.51554,-8.30485 7.37772,-1.98465 -3.05824,4.41068 -5.71566,10.28245 -8.92631,13.90546 -0.9132,-0.0887 -2.00894,6.39467 0.75875,5.11406 2.29755,1.56335 9.38769,2.27617 4.49104,4.99742 -2.09584,2.10389 -4.71934,3.97584 -6.4954,6.22027 0.1454,6.3447 -1.45381,16.91211 -0.21223,20.59714 1.87171,-2.63069 8.0316,-7.3811 6.73872,-8.62371 -2.59793,1.24119 -10.51451,0.64961 -4.97416,-1.36578 3.37498,-1.27887 12.80342,-1.64027 6.77854,3.67386 -3.21043,5.72208 -10.85343,7.52259 -9.41081,13.78177 0.0294,4.61849 -1.86221,7.4392 3.79001,6.59429 6.46953,-0.56638 6.91994,5.73781 1.08857,7.46193 -4.01013,2.3402 -7.51484,2.18734 -5.09227,7.50359 1.24906,3.49323 9.87541,5.85115 7.70995,9.46926 -0.32295,-4.0809 -1.23991,1.57431 -3.47269,-2.51986 -2.74721,-2.19098 -6.2838,-7.3996 -5.12192,-0.49064 -0.50482,13.18115 -1.02635,26.36167 -1.54732,39.5422 2.71956,-0.83232 7.54218,2.97716 7.58989,4.74187 -2.80362,2.60013 -9.4975,-8.75618 -7.75651,0.23669 0.0937,4.05032 -0.97189,11.53574 -0.14721,13.42154 1.34939,-1.13551 3.49153,2.11082 5.14776,2.6713 1.89008,1.30708 3.78017,2.61416 5.67026,3.92124 -1.04134,3.21231 -3.25822,-0.099 -5.03218,-0.95233 -2.08271,-1.44187 -4.16542,-2.88376 -6.24814,-4.32563 0.48855,5.35941 -1.8655,15.21846 0.29184,17.99057 2.45922,1.81241 8.88334,7.02454 8.72537,9.93788 -3.17949,0.84905 -7.7708,-8.63748 -9.7723,-8.09595 -0.30943,7.99805 -0.59605,15.99697 -0.90073,23.9952 3.33918,1.12011 10.1018,5.46723 11.8647,8.20463 -3.01618,2.55638 -9.3853,-6.93596 -11.99591,-5.73038 -0.47368,6.46142 -0.0852,13.06596 -1.01077,19.45168 -1.22471,4.64328 11.5661,3.49743 8.80018,8.24117 -4.718,-1.55538 -11.26462,-8.30485 -11.30222,0.41755 -1.00753,6.9523 -7.33723,14.0528 -2.41011,20.6425 1.89608,5.3498 7.97281,7.6289 12.52221,10.3489 5.37303,-0.8476 10.53104,-3.5038 16.12646,-3.7129 8.24723,-1.2781 16.63554,-1.738 24.85526,-3.0656 3.47351,-2.5331 7.77815,-4.9217 2.5422,-8.1703 -4.16835,-5.1165 -3.17768,-12.4092 -5.59513,-18.21947 -0.005,-4.72878 -0.97768,-6.78424 -5.13768,-3.3699 -3.26127,0.64572 -8.33018,7.60027 -10.17872,3.26641 4.87293,-2.35852 9.29516,-5.42558 14.22976,-7.70994 -0.58356,-6.18845 -1.7793,-12.34243 -1.65583,-18.57631 -3.89854,2.51472 -9.65636,7.74271 -13.39887,7.02093 1.52615,-3.48205 8.98159,-5.01413 12.15701,-8.67677 2.308,-0.0311 0.79981,-3.30476 1.19276,-5.23915 -0.0526,-5.39436 -0.10526,-10.78874 -0.15789,-16.18311 -3.61145,4.07671 -7.93507,6.98399 -13.40186,7.86518 -4.06618,-3.55484 6.20651,-2.27393 7.5335,-5.30057 2.45817,-2.77784 7.00306,-4.5076 5.78544,-8.84979 -0.0413,-4.76972 -0.0827,-9.53946 -0.12402,-14.30918 -3.17783,2.10957 -9.00058,9.67811 -12.06955,6.54303 3.31857,-2.95682 10.50171,-5.78533 12.00646,-10.20856 -0.0653,-6.19488 -0.13043,-12.38977 -0.19563,-18.58465 -3.42555,4.57644 -8.10088,7.71093 -13.63346,9.15343 -2.71521,3.01197 -8.25511,0.337 -2.73396,-1.17004 5.38688,-1.78591 10.82662,-3.73696 14.17674,-8.63336 3.04488,-1.6317 2.02141,-4.53146 2.13078,-7.53578 -0.049,-4.41218 -0.098,-8.82434 -0.14705,-13.23652 -6.43412,5.70485 -12.24604,12.02931 -18.62807,17.80015 -3.3602,-3.54612 6.24365,-6.62256 7.60647,-10.14195 3.17624,-3.80642 8.56302,-7.48592 11.01423,-10.75733 -0.0493,-4.8141 -0.0985,-9.6282 -0.14786,-14.44229 -2.45204,2.26824 -6.42338,5.14358 -1.3971,2.432 2.25005,2.53309 -1.69979,2.79079 -3.35491,3.89068 -2.27854,1.06827 -4.56482,2.12056 -6.83879,3.19832 -2.37874,-4.46673 7.69743,-6.65624 9.70651,-10.58586 2.71946,0.66746 1.71144,-1.89417 1.83511,-4.53924 -0.0354,-3.35818 -0.0707,-6.71634 -0.10609,-10.07452 -3.36137,6.12045 -10.05992,2.57141 -15.40513,1.46016 -3.94788,-0.32271 -0.2328,-1.52678 1.40719,-2.50266 4.23479,-2.27422 8.46956,-4.54845 12.70433,-6.82269 2.38784,2.40992 -1.55132,2.86722 -3.14765,4.04755 -2.50393,1.32428 -5.00784,2.64859 -7.51175,3.97287 4.69428,2.63005 10.45135,0.94686 11.89123,-3.61381 0.0132,-8.06557 -0.21986,-15.9923 -0.61091,-24.06954 -3.71053,3.72842 -5.84051,7.80644 -10.4524,9.46926 2.15729,-0.99737 11.05293,0.29756 5.07097,1.8628 -3.43102,0.68555 -14.88582,1.12244 -6.86989,-3.24849 4.09342,-1.60788 6.75189,-4.59745 9.35513,-8.03239 3.09516,-1.78287 3.06582,-2.9912 2.64683,-6.63452 -0.21009,-4.96356 -0.4202,-9.92712 -0.63029,-14.89068 -1.87838,2.31006 -9.88049,8.63335 -7.83944,8.62734 2.39559,-1.50952 11.78473,-1.94754 6.20229,0.76292 -3.58008,-0.22668 -11.31937,4.75959 -12.59262,0.38947 4.98876,-2.86456 8.65624,-7.33687 12.82243,-11.28024 2.43974,0.31305 0.83154,-3.27387 1.13854,-5.49108 -0.60032,-14.90042 -1.20065,-29.80085 -1.80098,-44.70127 -2.34341,2.08097 -12.15739,10.011 -8.56958,2.13941 2.40557,-2.7568 4.85691,-7.57935 7.52856,-8.51687 1.74833,-0.89728 0.15231,-4.15105 0.56003,-5.9929 0.40342,-4.56108 -2.37807,-8.44581 -3.73852,-12.63231 -0.0946,-1.71058 -3.30119,-4.70038 -0.57474,-5.20695 2.96832,2.52093 4.37284,9.36659 6.77873,13.41766 3.65762,8.46673 7.83497,16.74756 11.05516,25.38155 1.77974,7.18442 3.67486,14.34539 3.93259,21.78449 1.82676,-0.66583 5.23554,0.4363 5.10929,-2.41215 0.42644,-2.80251 2.45076,-5.69179 0.67265,-8.37459 -8.01372,-21.80852 -17.12664,-43.1819 -25.60013,-64.81214 2.01026,-2.08711 2.67528,0.75897 3.46386,2.45365 4.92907,9.82609 8.14854,20.3947 12.2553,30.58553 4.16784,11.04989 8.55117,22.03716 13.56829,32.72822 7.72044,-4.4916 1.33598,-12.53511 0.24576,-19.06989 -3.60801,-11.95183 -8.48599,-23.48247 -12.66704,-35.24424 -1.24103,-2.09025 -3.95356,-3.071 -5.75882,-4.73584 -2.65814,-1.96029 -5.38319,-3.94672 -8.00267,-5.88951 2.17808,-4.11227 7.01193,3.11714 10.35316,3.47435 5.74651,6.05514 7.16197,-3.25155 12.26063,-4.32109 1.42936,5.24696 -8.26291,9.49311 -3.10207,15.55245 3.71925,12.68792 7.05619,25.50411 11.98215,37.79419 0.81582,2.21511 1.63958,4.42731 2.45059,6.64418 -1.66635,2.39528 0.70662,12.64588 4.10373,10.00285 1.16458,-5.5333 4.70337,-11.01011 1.69752,-16.60309 -4.4115,-16.86104 -10.46804,-33.2396 -15.56588,-49.90136 0.0671,-6.07283 3.86063,2.58834 4.28388,5.19877 5.86078,15.91652 12.20137,31.68677 17.38201,47.83595 -1.10113,4.74367 -1.0663,14.77612 5.12272,9.10705 0.27747,-6.33333 0.77186,-12.81913 -1.86281,-18.78329 -5.35834,-14.26011 -9.61756,-28.93777 -14.38499,-43.41374 -2.72312,2.96217 -7.84464,0.12517 -8.64003,-3.14604 0.91426,-7.1929 -5.02443,-6.99165 -10.38822,-6.5302 -2.34628,-0.22848 4.09483,-3.59005 4.85022,-4.81224 2.89741,-1.59293 9.073,-6.46708 3.11793,-7.77457 -1.90242,-0.87386 -3.79494,-1.76939 -5.70517,-2.62611 2.84167,-4.89078 5.78591,-9.69149 9.55085,-13.94808 2.31946,-4.22844 0.55725,-11.81474 -3.94222,-14.39304 -3.2639,-1.79336 -2.89642,-5.92802 -4.1873,-8.99186 -1.70328,-1.80434 0.005,-5.28065 1.36373,-2.66507 0.84821,2.91476 1.69643,5.82954 2.54465,8.74431 4.91461,2.63704 7.19575,6.96479 7.08197,12.42068 2.24176,5.0925 -3.66586,8.18144 -5.84491,12.03619 -1.29844,1.8881 -2.39424,3.92265 -3.61732,5.86548 2.73606,1.28932 5.53001,2.46172 8.2274,3.8291 0.56614,5.14191 -8.30829,8.5417 -7.6582,10.29717 8.61356,-2.31164 3.38483,9.69305 9.88636,10.67695 2.20946,-0.0215 4.13063,-2.21901 6.22191,-3.1325 3.73091,0.7052 -1.56551,2.44336 -0.68751,4.11057 6.952,18.90357 14.09132,37.8228 20.69697,56.8031 -0.6299,6.86733 5.91239,7.76372 9.98672,10.60764 0.56457,3.66102 2.31594,10.61371 6.17858,9.12063 0.16583,-9.79391 0.77976,-19.64474 0.80693,-29.40451 0.55915,-3.34354 -5.12152,-11.44602 -0.4657,-11.84952 2.61427,7.6583 6.07464,15.12458 7.86955,23.00708 1.26455,5.12021 -1.2555,13.43807 6.08816,14.19971 3.24064,1.3177 0.7325,-10.45051 4.20465,-7.24666 1.91455,1.51784 3.8291,3.03568 5.74365,4.55353 7.77155,0.18648 1.99326,-8.33497 2.12153,-12.67742 -2.44468,-6.07666 -4.76413,-12.22743 -7.19251,-18.31761 3.61817,-1.49705 -1.94378,0.52977 -0.89595,-3.35082 -0.83539,-6.0087 -4.7288,-10.52777 -8.21457,-15.22534 -1.4782,-3.18355 -1.3791,-6.95459 -4.14026,-2.433 -3.2852,2.72056 -1.83803,7.20809 0.46722,10.07652 3.74735,5.80145 3.37682,13.46774 8.05746,18.71274 2.05868,3.37906 4.82099,6.78699 4.10518,10.97841 0.18331,1.92988 0.33619,5.7658 -2.06979,3.90839 -0.32142,-3.27413 0.87942,-6.81552 -1.14694,-9.41718 -2.48123,-4.87891 -6.04228,-7.92356 -7.02871,-13.40495 -1.07576,-5.51124 -4.14939,-10.22221 -6.46808,-15.21291 0.51944,-1.21139 -7.73184,0.6647 -7.09177,-1.91455 2.28227,-0.32028 1.87772,-1.32582 5.74641,-0.46571 2.92856,-2.47641 2.90017,-7.14126 0.93141,-10.24542 -3.88619,-8.70847 -9.87182,-16.34238 -14.22977,-24.78567 -1.09905,-5.5105 1.0902,-12.29476 -4.19416,-16.1345 -5.46049,-5.31723 -8.22347,-12.48926 -11.27748,-19.31056 -3.50838,-4.88952 -9.22036,-7.77013 -13.29836,-12.21174 -2.22035,0.70305 -10.59109,0.96401 -6.4345,-1.54304 5.72794,-2.29104 9.66901,0.97773 13.31652,4.85471 4.15655,3.2315 8.57077,6.57363 9.96354,11.88092 2.59227,6.19661 5.96665,11.92881 10.76886,16.68339 4.2311,3.97277 2.04592,10.32335 3.17362,15.41861 5.20788,9.44676 12.17421,18.07068 15.67862,28.35604 -0.75723,4.49841 1.2428,-1.43954 3.37927,-0.91518 -0.20266,-5.09407 1.57136,-11.98161 -1.72345,-16.72974 -3.44006,-6.39546 -7.44561,-12.56126 -10.55591,-19.09376 -2.16457,-4.66263 -4.81375,-10.49393 -7.22665,-15.58253 -2.53296,-5.88059 -6.21331,-11.15907 -9.69383,-16.49912 3.46935,-3.62899 5.27657,6.82458 7.96867,8.64134 6.05977,10.7187 9.87319,22.55984 16.49746,32.97662 1.93275,4.57291 6.02978,8.58395 6.8959,13.45342 0.66602,2.91147 -1.15534,12.34131 1.20758,11.55932 1.17992,-2.27273 2.38039,-4.53497 3.54812,-6.81393 1.88814,-0.89522 5.6248,-0.32448 6.0787,-2.39129 0.65415,-6.35505 -5.74561,-10.98145 -6.38915,-17.21992 -1.80856,-8.50949 -5.21908,-16.55702 -9.45063,-24.12795 -4.54109,-9.96895 -11.2067,-18.82348 -14.80046,-29.2299 -0.95127,-6.07037 3.97157,1.6795 4.07465,4.5131 3.49476,7.9522 8.598,15.09615 12.20777,23.02418 3.43919,6.44929 6.72761,12.95318 8.61787,20.05519 1.2942,6.67831 4.0497,12.85205 7.52644,18.70153 0.59732,2.66892 -0.0786,4.7487 2.1966,4.99119 1.05139,2.4525 -4.05623,1.21137 -2.03708,4.96837 0.5815,2.35232 -0.61046,11.23756 -2.37306,6.18105 0.15477,-4.16997 2.12003,-10.95099 -3.83674,-7.75776 -1.58674,1.37443 -2.19326,3.99636 -3.41214,5.83895 -1.00369,2.50529 -4.75428,2.32854 -2.20055,5.88372 3.34022,4.97507 7.78589,9.40265 8.6596,15.59662 0.70844,5.52357 5.29622,9.26472 8.0721,14.03744 3.00994,3.09238 6.53905,12.56136 9.55806,10.86152 1.34919,-5.87984 -3.81494,-9.80336 -5.70344,-14.91183 -4.03938,-8.64098 -7.70476,-17.45647 -11.56232,-26.18155 3.13527,2.26149 7.13031,3.57896 8.91782,7.28967 7.17703,9.55976 14.23344,19.21687 21.6115,28.62108 7.72893,3.71178 2.98251,-5.92226 0.62094,-8.95181 -5.89445,-11.89567 -13.96437,-22.53698 -20.9285,-33.8195 -1.51273,-1.5429 -6.35017,-9.04914 -1.83292,-6.73834 7.94934,9.81092 15.8987,19.62184 23.84805,29.43275 2.68627,1.83496 7.53647,3.3635 5.92264,-1.20645 -6.81736,-12.44893 -15.49676,-23.75185 -23.08724,-35.74012 -7.93583,-11.28886 -14.67733,-23.35617 -21.7991,-35.18542 3.74759,-3.03268 8.66539,4.58146 12.84214,5.57725 6.68077,3.64898 12.63538,8.31013 18.10501,13.57821 9.21807,8.01545 18.0791,16.49782 27.65778,24.06602 4.77398,2.61467 8.4963,7.18226 13.63056,8.88534 0.0852,-1.72446 -5.24992,-8.20096 -3.00847,-8.15914 5.38055,1.51578 10.4674,3.75014 15.43756,6.23509 3.33025,1.63923 13.74922,5.55853 8.52747,-1.23236 -1.66071,-3.39733 -9.5753,-5.23689 -8.28337,-8.923 1.46941,-0.79024 3.85437,1.69159 5.6762,2.16019 4.18104,2.51353 8.88135,3.65375 13.68052,4.33081 7.01515,-0.31406 2.60723,-7.61975 -2.13093,-7.66756 -10.8744,-5.79262 -21.66372,-11.75608 -32.48622,-17.63556 2.24397,-4.54447 9.58448,2.67068 13.81582,2.432 2.47266,-0.77782 11.55541,1.08951 8.37648,-3.19793 -1.34481,-1.64752 -4.1261,-1.70255 -6.05222,-2.70564 -14.82847,-5.37096 -29.68547,-10.67537 -44.49612,-16.08789 -6.31926,-4.25637 -12.74318,-8.38272 -19.09376,-12.57394 0.9709,-3.89125 7.33785,1.12236 10.50415,0.72443 5.54762,1.44947 11.12384,2.64652 16.88714,2.57689 3.70153,0.10198 11.46331,1.04313 12.81018,0.4272 -2.45143,-1.32319 -13.26646,-4.45326 -7.09251,-6.14009 3.0973,-0.19086 12.83058,-0.38628 4.53287,-0.69517 -5.88617,-0.61137 -12.03638,-0.40118 -17.72016,-1.96422 0.72681,-2.1029 3.66828,-1.31069 7.50823,-0.90243 4.19233,1.43716 12.68502,-1.0255 14.32395,2.49146 4.1611,1.3321 11.47003,-0.37893 16.82578,-0.0549 7.41086,-0.65155 15.56363,0.37107 22.50612,-1.45906 2.42099,-3.77066 9.66029,-4.99356 9.52757,-9.88679 -0.4829,-4.54097 -0.53556,-9.22161 -1.28185,-13.67704 -1.54173,-1.68371 -1.86825,-5.10645 -4.47985,-5.25903 -6.99813,-1.14833 -13.69048,-3.07199 -20.3261,-5.45542 -13.81037,-0.33679 -27.67638,-0.21253 -41.44742,-1.03489 -4.46312,-0.29048 -9.77548,3.75088 -14.90246,3.46689 -7.92065,0.79606 -16.01122,0.14194 -23.6935,2.59082 -2.9619,2.29644 -7.08045,-1.01661 -2.33403,-1.60767 5.93372,-1.57052 11.93725,-2.64488 18.09576,-2.55144 6.26135,-0.20012 12.55703,-0.66747 18.36172,-3.23112 3.55942,-2.41452 4.34693,1.68727 5.04417,-2.79016 3.25662,-1.23472 13.6817,-0.36078 11.22611,-3.79424 -12.86294,0.43654 -25.73371,0.59207 -38.60148,0.82792 -4.62799,-0.4578 -10.52997,2.40214 -15.10942,4.60526 -5.367,2.17028 -0.93906,-3.27075 2.38024,-3.41514 5.69703,-3.37835 12.78477,-2.54072 18.3176,-6.20936 8.64754,-4.0296 16.77304,-9.12914 25.19962,-13.55709 2.18918,-1.93748 8.28151,-4.95759 1.83569,-5.58442 -5.05714,-1.16614 -10.46364,1.74695 -15.70325,1.80707 -6.90908,1.22051 0.008,-4.80068 2.60532,-5.96106 8.06898,-4.14829 15.96432,-8.68454 23.68094,-13.49492 2.44832,-1.86845 9.67338,-3.14288 7.34773,-6.2611 -6.54168,2.18482 -13.01779,5.3117 -19.71468,7.14077 -2.2644,0.53982 -12.53844,1.80963 -7.46392,-2.19581 9.86348,-6.51421 19.57193,-13.26799 29.35188,-19.89915 3.25827,-4.37667 0.89781,-4.48891 -3.0124,-2.70203 -4.52871,1.37852 -7.904,5.08104 -12.12221,7.23395 -1.44802,2.53835 -9.56316,4.68775 -5.25436,0.28988 4.36886,-3.79664 8.63718,-7.72058 13.19647,-11.28987 2.30448,-3.20855 4.6678,-10.84961 -1.59207,-7.2494 -4.03409,2.12442 -9.2221,2.44103 -12.03351,6.36485 -4.96726,5.16349 -10.02883,10.29011 -14.93744,15.47653 -3.58849,-3.36498 5.69306,-7.07605 6.8365,-10.6394 4.03165,-4.61696 8.27677,-9.10603 11.89504,-14.04278 0.76503,-4.0483 0.94222,-6.89869 -3.16661,-4.07787 -1.99738,0.85909 -3.99478,1.71819 -5.99218,2.57728 0.60086,4.17589 -8.26143,8.5369 -11.07334,12.67742 -4.75985,4.06291 -11.23228,5.76964 -15.41989,10.60766 -3.34621,-3.5722 5.86038,-6.2844 8.22738,-8.38264 6.69345,-3.25687 11.22132,-9.39102 16.61003,-14.33326 -5.89705,1.19625 -12.69126,0.95288 -16.14433,6.8303 -8.92785,8.48622 -17.61577,17.27104 -26.75196,25.51009 -11.13922,7.72395 -22.45977,15.29327 -33.89271,22.5089 -5.22892,2.10599 -12.66045,0.37516 -15.13716,6.68128 -4.36783,6.14345 -9.54112,11.63935 -14.40902,17.37996 5.23317,-1.15236 10.20261,0.0434 14.92843,2.36348 4.54226,1.58928 8.40286,4.7297 12.75494,6.69184 -0.97077,4.3243 -6.93619,7.60229 -11.63219,6.80896 -2.95039,-0.0804 -5.61034,-2.07491 -8.44472,-2.92812 0.28066,-3.40219 3.16628,-0.65697 5.09251,-0.17582 3.78232,2.04801 8.91345,1.24981 11.70027,-2.10616 -1.45416,-2.98603 -9.17059,-6.0017 -13.64938,-7.66992 -4.06468,-2.44263 -8.72218,-0.76171 -13.13012,-0.70749 -5.21411,1.18349 1.45594,-3.43523 2.22616,-5.23956 5.77061,-6.48539 11.29205,-13.17283 16.29842,-20.27054 -0.36364,-5.23905 5.44605,-8.94048 7.3793,-13.77437 5.69269,-8.38835 8.63078,-18.27498 12.99638,-27.38969 1.85792,-3.80236 0.8996,-8.24426 1.3829,-12.35875 -0.13882,-2.23257 0.65238,-4.66583 -0.12928,-6.75965 -4.05128,7.45347 -8.2182,14.90012 -12.10822,22.40541 -4.79358,0.27685 -0.49416,-7.31998 0.88772,-9.2926 3.68413,-7.44617 7.83969,-14.76569 11.28365,-22.26867 0.0997,-3.14017 0.19938,-6.28032 0.29907,-9.42047 -3.10313,-2.69807 -4.66664,6.50669 -7.13083,8.6635 -5.39318,8.97976 -10.37402,18.25811 -15.99664,27.06936 -0.55171,2.97929 -6.50789,5.14389 -4.11987,0.92401 8.03501,-14.7803 16.28476,-29.5068 24.52674,-44.13202 3.3119,-5.87288 2.24866,-12.73006 2.7206,-19.17332 -3.17538,-5.01752 -5.39173,2.70073 -7.93543,4.69418 -3.25435,4.04212 -4.45167,9.35038 -6.95173,13.89032 -4.05615,8.80845 -8.2617,17.56057 -12.38225,26.32983 -4.6102,-1.89947 2.65997,-8.78454 2.7212,-12.65665 3.95249,-10.21292 7.88543,-20.43339 11.81904,-30.6536 -1.97103,-4.09914 -6.39638,6.71735 -8.48612,9.21056 -3.75338,8.38651 -8.1108,16.48905 -12.26346,24.68217 -4.44004,-1.93506 2.70865,-8.75361 2.51506,-12.46585 2.14962,-6.20748 4.97859,-12.35565 7.05769,-18.47743 -0.31253,-2.31087 2.9617,-8.31784 0.0518,-8.43437 z m 28.45953,111.3544 c 1.02184,4.08317 -5.1292,5.94413 -7.6582,9.10706 -3.17944,1.18662 -14.54774,3.97682 -9.65423,6.53338 3.23441,-1.71382 6.47622,-3.41374 9.70598,-5.13628 4.13278,3.92271 10.38577,8.12138 9.89722,14.11207 -3.92778,0.9851 -2.25131,-7.69672 -6.92698,-8.50421 -2.15543,-3.72819 -4.88188,-2.77647 -7.78382,-0.72489 -2.30661,1.24315 -4.66087,2.40014 -6.93245,3.70663 -3.86053,-5.27239 0.41804,-9.53316 5.97234,-10.16226 5.50858,-0.85985 8.71649,-5.60638 12.86269,-8.77627 l 0.11399,-0.0939 0.40346,-0.0613 z m 29.28746,11.38381 c 0.3821,4.6083 -7.72214,2.5985 -9.90665,6.48609 -3.53516,1.70933 -7.11121,6.96042 -10.26825,6.91578 -3.48564,-0.67921 4.18883,-4.04606 5.4114,-5.9416 4.41755,-3.541 8.92713,-6.80347 14.7635,-7.46027 z m 37.56658,18.00713 c -0.89622,0.85741 -0.26735,0.68665 0,0 z m -106.1282,4.50179 c 4.80206,1.80629 9.91964,2.95414 13.98572,6.27327 5.25329,1.85866 5.50192,7.86673 7.02659,12.40307 0.14737,2.92218 -2.37816,12.22139 -5.02816,10.23186 1.07042,-4.28644 4.87269,-9.56843 1.66076,-14.47146 -0.42351,-5.38966 -6.01913,-6.88743 -9.80804,-9.48593 -2.85377,-1.01209 -5.70753,-2.02417 -8.56129,-3.03626 0.24148,-0.63818 0.48295,-1.27637 0.72442,-1.91455 z m 135.26041,0.51745 c 9.75465,0.39953 19.59085,0.82583 29.28746,1.75931 1.08059,1.14205 -1.9484,1.21077 -1.50061,1.81106 -12.56201,-0.57204 -25.12262,-2.09919 -37.69816,-1.05797 -5.88785,-0.75702 -11.03024,3.74061 -16.99284,2.471 -3.1777,0.62194 -10.49329,-1.0751 -5.48797,-2.39618 5.71108,0.6399 11.52558,0.70951 16.8542,-1.73923 5.04876,-0.91918 10.39641,-0.30498 15.53792,-0.84799 z m -15.00593,8.17563 c 10.07729,1.43484 20.19888,2.32875 30.38545,2.20631 6.41902,0.35912 13.92766,-0.28307 19.69435,0.74028 -0.95838,4.2742 -9.9223,0.151 -13.75244,1.42773 -11.31337,-0.13454 -22.64931,-0.1329 -33.84363,-1.99406 -2.16652,0.0612 -2.838,-0.27998 -2.48373,-2.38026 z m 10.91811,11.28033 c 4.14653,4.31967 10.08219,5.09713 16.05026,4.12778 7.02147,-0.45453 14.21566,1.44726 21.02656,-1.16734 5.92218,-0.55089 -0.43159,3.33301 -3.53218,2.94682 -6.88227,1.44473 -13.916,-0.46555 -20.86722,0.40558 -5.55304,1.96479 -10.10321,-2.71643 -14.08962,-3.75829 -2.98176,1.76144 -6.25719,2.14372 -9.62536,1.89549 -4.84143,0 -9.68285,0 -14.52429,0 -0.98032,-3.2279 2.73873,-1.75645 4.67296,-2.06979 4.83927,-0.0349 9.69566,0.0694 14.52429,-0.0518 2.09765,-0.82057 4.13747,-1.90527 6.3646,-2.32851 z m -197.81964,6.57157 c 5.04303,2.07595 -4.09882,7.06942 -2.60986,10.35322 0.22463,3.4449 0.63091,5.89249 2.24764,1.13408 0.73996,-2.22561 1.42432,-4.47006 2.22502,-6.67504 2.03806,3.36234 4.71768,5.24398 8.5896,5.27794 1.65498,2.83884 2.44713,9.27192 4.18988,3.32876 1.59499,-3.06761 2.82758,-6.61148 5.12416,-9.12415 3.733,2.13217 -0.51684,9.72242 0.56918,13.60883 -0.30705,6.12547 0.99474,12.25567 0.12764,18.39617 0.53585,3.65584 -3.07066,12.96038 3.42803,8.52409 2.2434,-1.06711 2.53766,-4.22895 3.91259,-6.22938 2.48845,-4.81531 1.56887,-10.68103 3.19112,-15.77515 4.82219,-1.23621 0.44395,13.39733 5.09632,8.75478 1.35658,-4.9519 -2.31241,-9.12343 -2.71608,-14.60192 0,-3.24267 0,-6.48532 0,-9.72799 3.2279,-0.98033 1.75646,2.73872 2.06979,4.67296 -0.23766,3.89917 0.17186,7.77599 1.8628,11.36788 5.31596,2.86923 4.4621,-7.01664 8.69311,-9.00356 4.60591,-1.84095 2.01879,-11.44632 6.67504,-10.40067 -0.4331,5.91964 -3.72965,10.81616 -7.81343,14.85069 -1.67318,2.82108 -2.45187,9.62799 -7.24425,6.88205 3.4765,3.56519 -0.46947,11.04432 -4.76049,9.77973 -0.94881,-3.1687 -1.02462,-6.8788 -1.53018,-1.46122 -0.15001,4.51979 -3.31043,8.09658 -4.9379,12.17235 -3.90733,2.14554 -10.93384,4.49622 -8.36441,-2.77266 0.47654,-7.78786 1.04181,-15.58296 0.0852,-23.35837 -0.091,-2.55429 1.30034,-10.58775 0.0321,-9.00806 -1.79547,3.63293 -3.51249,7.33133 -5.30995,10.97436 -2.22405,-3.32846 -1.33888,-11.18637 -6.60699,-10.38983 -2.92137,-0.58043 -3.95328,-4.06758 -4.67333,0.66184 -1.29365,1.39835 -2.90087,9.21593 -5.22621,5.69191 -0.56682,-4.30109 -0.21107,-10.9799 -5.12272,-5.74365 -0.90251,-3.49557 -1.75634,-7.00353 -2.63897,-10.50417 2.89516,-1.75693 2.38203,2.2056 3.1514,4.01599 -0.16629,5.94282 6.18997,0.15115 6.93879,-2.92934 0.44501,-0.91585 0.89369,-1.82989 1.34537,-2.74247 z m 81.13555,26.23451 c 5.51517,11.17688 11.36124,22.22437 17.2827,33.22004 3.19786,7.80247 7.06098,15.42205 8.40834,23.81974 -1.26434,3.98714 8.13552,9.39695 3.54465,10.43519 -5.06886,-3.96103 -5.5913,-10.25312 -6.98552,-16.04082 -3.31106,-10.32624 -8.08445,-20.17047 -13.383,-29.636 -3.82034,-6.79505 -7.06494,-13.85823 -10.62649,-20.76325 0.58644,-0.34496 1.17288,-0.68994 1.75932,-1.0349 z m -11.28033,12.21173 c 5.27295,0.60415 -4.7913,6.08987 1.76654,6.70773 3.39637,0.55685 2.52036,5.35864 5.59784,6.16612 7.74607,0.44259 -0.83866,11.46218 7.12411,9.84203 3.82171,3.00845 -0.19603,10.79559 5.79539,12.78093 4.97949,2.39385 3.56798,8.29568 5.89544,12.38557 0.5534,3.1352 2.3481,2.66252 4.51216,1.11631 1.61022,-1.0665 4.83103,-2.72871 4.22466,0.21512 -2.80728,1.39624 -5.61765,2.78632 -8.4229,4.18663 -2.2356,-4.33164 -4.22673,-8.79648 -4.70877,-13.71233 -4.38495,-3.29837 -8.35802,-6.9673 -7.67093,-12.9933 1.04196,-4.62113 -7.76149,0.0857 -5.43746,-5.73109 3.05003,-5.91091 -3.77599,-5.15044 -5.18506,-9.11767 -0.38965,-3.97937 -6.35788,-3.32959 -6.69919,-6.82683 0.98136,-1.72827 2.21846,-3.29502 3.20817,-5.01922 z m -31.61596,57.0743 c -0.86562,2.57337 -9.14672,10.30179 -3.02355,5.41769 3.16726,-1.91615 3.61943,-0.67002 3.04682,-4.91742 l -0.0168,-0.35906 -0.007,-0.14112 z m -1.24186,18.36935 c 5.985,1.01914 -7.44203,6.77904 -4.55875,6.92388 1.75685,-1.27555 5.51052,-1.11255 3.56115,1.10098 -2.91013,0.89542 -5.82027,1.79084 -8.73039,2.68627 -2.16874,-4.64681 7.36699,-6.96522 9.6245,-10.60764 l 0.10345,-0.10346 z m 0.62092,19.81819 c 4.91354,0.15247 -2.69112,5.11702 -4.08783,7.24424 -5.36064,4.3579 6.3743,-4.32083 5.4332,-0.0115 -2.24525,1.57562 -10.3962,6.70312 -13.21265,3.86512 3.52481,-4.01185 8.57764,-6.6309 11.86728,-11.09834 z m -29.49442,17.74839 c -0.27239,3.78158 -0.99445,8.53612 2.64316,3.83403 4.04687,-2.48389 -0.42411,-2.37298 -2.64316,-3.83403 z m -1.75933,45.79399 c -0.0883,3.55274 -1.43008,9.20552 3.25992,4.7605 3.47276,-1.50994 6.07163,-4.23665 0.48584,-4.18925 -1.24634,-0.2026 -2.50009,-0.37763 -3.74576,-0.57125 z m -0.87965,38.80844 c 3.12212,1.90422 11.09747,2.38051 10.89536,5.93777 -2.23508,-0.34757 -10.50123,-2.25301 -10.89536,-4.94635 0,-0.33047 0,-0.66095 0,-0.99142 z m -14.22977,130.75862 c -12.22192,0.3366 -24.48502,-0.058 -36.68693,0.3622 -5.27277,3.3609 -11.36653,5.5688 -15.49143,10.4317 -3.1211,4.3871 5.24204,8.1447 9.5408,7.1615 2.16712,1.4394 9.90488,-1.3768 8.58961,2.6907 -2.02505,5.8728 -8.62978,6.9048 -12.98789,10.4524 -2.68839,5.5834 3.69148,12.5189 8.4861,7.1925 2.84169,-2.6991 5.29371,-3.0095 7.30681,0.3213 3.32674,2.6084 -2.33073,9.6306 4.95667,9.2515 4.76074,-2.3981 9.00884,-6.5867 13.48021,-9.7619 2.96689,-3.7929 7.76874,-8.0101 9.64963,-0.8458 4.3567,3.7261 9.82161,2.8005 15.0277,2.4563 6.39449,-0.2187 13.43475,-1.077 17.1098,-7.1012 5.97726,-2.8556 11.67568,2.9754 14.68974,7.6547 4.03552,2.6506 10.76519,3.0007 8.7079,-3.7136 -1.58521,-4.3938 -0.21408,-9.0392 5.0673,-6.2081 5.7854,1.1046 10.27481,5.4865 15.82435,7.0154 -0.33592,-4.2185 -0.39383,-12.1642 5.4618,-6.7653 4.9368,3.5768 10.09336,7.0458 16.06396,8.6281 0.21303,-2.4922 -0.44398,-5.2182 0.36221,-7.5547 3.83711,-3.9443 11.51464,7.6268 9.83148,-1.1901 0.79957,-3.0265 -3.34533,-9.718 0.87965,-9.2623 5.83214,2.4601 11.98641,4.1606 18.21411,5.278 -4.12286,-6.856 -11.48391,-10.6218 -17.7484,-15.213 -6.04885,-2.5178 -12.44189,-4.5144 -19.05954,-4.3892 -7.14162,-0.6511 -14.45803,-0.3534 -21.50511,-1.399 -3.01791,-2.1929 -2.5203,-0.2351 -1.96942,0.4068 -4.2131,6.0386 -11.74018,4.8692 -18.11344,6.0093 -8.90449,0.8511 -17.90035,1.7416 -26.33519,4.9088 -5.82949,0.7584 -10.98689,-4.3843 -15.20682,-7.9707 -1.85444,-2.5694 -2.73289,-5.9451 -4.14566,-8.8463 z"
     id="path554"
     style="fill:#d59f0f;fill-opacity:1;fill-rule:evenodd;stroke:none" />
</svg>
