<?xml version="1.0" encoding="utf-8"?>
<!-- Generator: Adobe Illustrator 16.0.0, SVG Export Plug-In . SVG Version: 6.00 Build 0)  -->
<!DOCTYPE svg PUBLIC "-//W3C//DTD SVG 1.1//EN" "http://www.w3.org/Graphics/SVG/1.1/DTD/svg11.dtd">
<svg version="1.1" id="Layer_1" xmlns="http://www.w3.org/2000/svg" xmlns:xlink="http://www.w3.org/1999/xlink" x="0px" y="0px"
	 width="500px" height="291.94px" viewBox="0 0 500 291.94" enable-background="new 0 0 500 291.94" xml:space="preserve">
<g>
	<rect y="-0.75" fill="#FFFFFF" width="502.5" height="293.111"/>
	<rect y="194.146" fill="#DC000A" width="502.5" height="98.215"/>
	<rect y="-0.75" fill="#DC000A" width="502.5" height="98.212"/>
	<g>
		<rect y="-0.61" fill="#003366" width="165.406" height="293.109"/>
		<g>
			<g>
				<g>
					<path fill="#DB0001" stroke="#FFFF00" stroke-width="1.5" stroke-miterlimit="10" d="M42.191,234.046
						c0,0-19.263,0.59-24.707-4.838c0,0,7.678-0.824,10.748-3.3c0,0-6.979-2.714-8.934-6.135c0,0,15.633-0.354,23.59-3.775
						s18.844,3.775,13.4,12.386C50.845,236.995,48.053,235.461,42.191,234.046z"/>
					<g>
						<path fill="#FFFF00" d="M42,217.282c7.373,5.013-6.048,13.825-9.889,16.577c-0.651,0.467-0.025,1.554,0.634,1.081
							c4.67-3.346,18.66-12.774,9.889-18.739C41.962,215.744,41.335,216.83,42,217.282L42,217.282z"/>
					</g>
				</g>
				<g>
					<path fill="#DB0001" stroke="#FFFF00" stroke-width="1.5" stroke-miterlimit="10" d="M123.216,234.046
						c0,0,19.262,0.59,24.706-4.838c0,0-7.677-0.824-10.748-3.3c0,0,6.98-2.714,8.934-6.135c0,0-15.634-0.354-23.59-3.775
						c-7.957-3.422-18.843,3.775-13.4,12.386C114.561,236.995,117.353,235.461,123.216,234.046z"/>
					<g>
						<path fill="#FFFF00" d="M122.773,216.201c-8.772,5.965,5.219,15.394,9.889,18.739c0.659,0.473,1.284-0.614,0.633-1.081
							c-3.84-2.752-17.261-11.564-9.888-16.577C124.071,216.83,123.444,215.744,122.773,216.201L122.773,216.201z"/>
					</g>
				</g>
				<g>
					<path fill="#DB0001" d="M127.57,252.793c-29.306-8.991-60.645-8.991-89.95,0c-1.917-6.212-3.834-12.428-5.751-18.64
						c33.053-10.14,68.399-10.14,101.452,0C131.404,240.365,129.487,246.581,127.57,252.793z"/>
					<path fill="none" stroke="#FFFF00" stroke-width="1.5" stroke-miterlimit="10" d="M127.57,252.793
						c-29.306-8.991-60.645-8.991-89.95,0c-1.917-6.212-3.834-12.428-5.751-18.64c33.053-10.14,68.399-10.14,101.452,0
						C131.404,240.365,129.487,246.581,127.57,252.793z"/>
				</g>
				<g>
					<path fill="#FFFF00" stroke="#FFFF00" stroke-width="0.7" stroke-miterlimit="10" d="M54.036,244.831
						c-0.684,0.155-1.326,0.18-1.929,0.073c-0.603-0.103-1.146-0.322-1.632-0.658c-0.486-0.334-0.902-0.779-1.25-1.336
						c-0.347-0.555-0.605-1.207-0.772-1.954c-0.164-0.73-0.208-1.419-0.131-2.066c0.077-0.649,0.264-1.23,0.561-1.743
						c0.298-0.512,0.699-0.948,1.205-1.308c0.506-0.36,1.105-0.616,1.798-0.772c0.596-0.134,1.152-0.187,1.669-0.158
						c0.516,0.029,0.982,0.136,1.398,0.321c0.416,0.184,0.772,0.444,1.07,0.784c0.298,0.337,0.529,0.748,0.691,1.233l-1.583,0.355
						c-0.206-0.544-0.561-0.924-1.066-1.142c-0.505-0.214-1.127-0.24-1.867-0.074c-0.442,0.099-0.825,0.27-1.15,0.51
						c-0.324,0.24-0.582,0.542-0.772,0.9c-0.19,0.36-0.307,0.776-0.35,1.249c-0.043,0.472,0,0.989,0.125,1.552
						c0.128,0.566,0.313,1.053,0.556,1.462c0.244,0.409,0.529,0.735,0.858,0.978c0.328,0.245,0.694,0.404,1.097,0.48
						c0.403,0.074,0.828,0.062,1.274-0.037c0.609-0.137,1.119-0.348,1.528-0.635c0.41-0.287,0.717-0.659,0.922-1.113l-0.291-1.296
						l-2.303,0.517l-0.285-1.269l3.831-0.858l1.096,4.875l-1.047,0.235l-0.488-0.835c-0.256,0.424-0.613,0.781-1.071,1.069
						C55.27,244.463,54.706,244.682,54.036,244.831z"/>
					<path fill="#FFFF00" stroke="#FFFF00" stroke-width="0.7" stroke-miterlimit="10" d="M68.178,242.257l-7.265,1.021l-1.35-9.584
						l7.038-0.988l0.194,1.38l-5.439,0.763l0.365,2.587l5.091-0.716l0.196,1.393l-5.091,0.714l0.401,2.849l5.665-0.794
						L68.178,242.257z"/>
					<path fill="#FFFF00" stroke="#FFFF00" stroke-width="0.7" stroke-miterlimit="10" d="M74.192,231.928
						c0.685-0.042,1.319,0.039,1.903,0.245c0.583,0.205,1.092,0.511,1.525,0.92c0.434,0.411,0.782,0.917,1.046,1.519
						c0.264,0.6,0.418,1.273,0.464,2.021c0.045,0.745-0.022,1.431-0.203,2.057s-0.46,1.17-0.838,1.635
						c-0.378,0.464-0.844,0.834-1.4,1.107c-0.557,0.275-1.185,0.434-1.883,0.476c-0.7,0.045-1.341-0.036-1.924-0.237
						c-0.583-0.204-1.091-0.51-1.521-0.924c-0.432-0.412-0.776-0.919-1.036-1.521c-0.259-0.6-0.411-1.276-0.458-2.028
						c-0.045-0.745,0.025-1.432,0.214-2.06c0.188-0.63,0.474-1.174,0.856-1.633c0.382-0.46,0.849-0.828,1.401-1.102
						S73.507,231.97,74.192,231.928z M74.707,240.549c0.453-0.028,0.858-0.139,1.216-0.333c0.358-0.193,0.658-0.456,0.9-0.792
						c0.242-0.334,0.421-0.728,0.536-1.184c0.116-0.455,0.156-0.959,0.123-1.51c-0.033-0.541-0.134-1.029-0.301-1.464
						c-0.167-0.436-0.39-0.807-0.667-1.11c-0.277-0.305-0.604-0.534-0.981-0.688c-0.377-0.152-0.792-0.216-1.244-0.188
						s-0.858,0.14-1.219,0.336c-0.36,0.197-0.663,0.463-0.908,0.796c-0.244,0.336-0.424,0.73-0.54,1.185
						c-0.115,0.455-0.156,0.955-0.123,1.502c0.034,0.551,0.137,1.045,0.309,1.483c0.173,0.437,0.4,0.807,0.681,1.108
						c0.281,0.301,0.61,0.526,0.987,0.676C73.854,240.515,74.264,240.574,74.707,240.549z"/>
					<path fill="#FFFF00" stroke="#FFFF00" stroke-width="0.7" stroke-miterlimit="10" d="M90,241.615l-1.751-0.038l-0.828-2.487
						c-0.167-0.492-0.397-0.866-0.695-1.12c-0.298-0.252-0.701-0.385-1.211-0.396l-2.044-0.042l-0.083,3.944l-1.616-0.034
						l0.202-9.673l4.304,0.089c0.515,0.01,0.988,0.065,1.42,0.165c0.432,0.1,0.802,0.259,1.11,0.477
						c0.308,0.218,0.544,0.503,0.711,0.856c0.167,0.354,0.245,0.789,0.234,1.309c-0.015,0.679-0.21,1.23-0.589,1.651
						c-0.378,0.418-0.907,0.688-1.586,0.802c0.35,0.145,0.645,0.373,0.883,0.685c0.239,0.313,0.444,0.716,0.615,1.21L90,241.615z
						 M83.499,236.159l2.517,0.054c0.356,0.008,0.666-0.015,0.924-0.066s0.472-0.138,0.639-0.257
						c0.167-0.121,0.292-0.279,0.374-0.476c0.083-0.194,0.127-0.433,0.133-0.713c0.01-0.506-0.133-0.886-0.43-1.141
						c-0.298-0.257-0.766-0.392-1.405-0.404l-2.688-0.057L83.499,236.159z"/>
					<path fill="#FFFF00" stroke="#FFFF00" stroke-width="0.7" stroke-miterlimit="10" d="M96.373,242.361
						c-0.697-0.074-1.314-0.256-1.851-0.548c-0.537-0.29-0.982-0.672-1.335-1.146c-0.351-0.473-0.603-1.026-0.754-1.665
						c-0.15-0.638-0.185-1.338-0.104-2.099c0.079-0.744,0.259-1.41,0.54-1.999c0.28-0.59,0.645-1.081,1.091-1.471
						c0.446-0.391,0.967-0.676,1.561-0.854c0.594-0.179,1.244-0.23,1.951-0.156c0.606,0.065,1.15,0.191,1.63,0.385
						c0.48,0.191,0.888,0.441,1.222,0.75c0.334,0.308,0.587,0.669,0.762,1.085c0.173,0.416,0.26,0.879,0.259,1.391l-1.615-0.169
						c-0.02-0.582-0.234-1.057-0.644-1.422c-0.409-0.367-0.991-0.591-1.745-0.67c-0.45-0.048-0.868-0.01-1.252,0.115
						c-0.385,0.124-0.725,0.326-1.021,0.605c-0.295,0.28-0.54,0.638-0.732,1.071c-0.192,0.435-0.318,0.937-0.379,1.511
						c-0.062,0.577-0.043,1.098,0.057,1.563c0.099,0.465,0.265,0.863,0.497,1.199c0.233,0.336,0.528,0.605,0.886,0.806
						c0.357,0.199,0.764,0.324,1.218,0.373c0.622,0.065,1.172,0.028,1.652-0.112c0.48-0.142,0.891-0.395,1.231-0.76l0.14-1.32
						l-2.346-0.249l0.137-1.292l3.904,0.414l-0.528,4.968l-1.067-0.112l-0.194-0.947c-0.378,0.32-0.832,0.543-1.358,0.671
						C97.66,242.405,97.055,242.435,96.373,242.361z"/>
					<path fill="#FFFF00" stroke="#FFFF00" stroke-width="0.7" stroke-miterlimit="10" d="M105.128,243.432l-1.586-0.27l1.64-9.539
						l1.586,0.273L105.128,243.432z"/>
					<path fill="#FFFF00" stroke="#FFFF00" stroke-width="0.7" stroke-miterlimit="10" d="M115.869,245.768l-1.644-0.384
						l-0.356-2.832l-3.725-0.87l-1.523,2.393l-1.594-0.371l5.69-8.61l1.726,0.404L115.869,245.768z M110.869,240.532l2.882,0.674
						l-0.5-4.229l-0.132-0.032L110.869,240.532z"/>
				</g>
			</g>
			<g>
				<g>
					<path fill="#FFFFFF" d="M25.899,62.606l-9.492,10.866c0,0,7.972,17.205,6.882,20.13c-1.09,2.926-1.927,17.135-3.393,19.434
						c-1.466,2.298,1.75,7.061,1.75,7.061l-1.332,10.701l1.053,11.806l-4.961,21.28l4.746,28.559l15.075,9.193l5.583-4.316
						l12.702,0.834l12.841,9.613l33.64-0.836l12.284-8.22l15.284-2.507l3.35,3.969l12.712-10.656l4.387-20.479l-2.23-29.381
						l-0.552-8.081l-1.884-11.48l2.436-5.771l-4.357-13.271l6.587-28.419L138.059,57.87l-3.424,2.09c0,0-12.981,1.044-14.447,0.208
						c-1.466-0.835-8.375-5.851-8.375-5.851l-8.584-5.433l-12.353-2.716l-7.119,2.716l-16.331-2.716l-13.819,7.731l-14.447,7.104
						l-10.05-1.88C29.109,59.124,28.342,57.313,25.899,62.606z"/>
					<g>
						<g>
							<path fill="#FFFF00" stroke="#FFCC00" stroke-width="1.3" stroke-miterlimit="10" d="M151.231,111.836
								c0,0-6.335-2.875-5.616-9.055c0,0,4.607-3.305,4.176-5.101c-0.432-1.797-4.536-0.719-4.752-3.306
								c-0.215-2.587,0.864-13.164,8.784-21.853c0,0,3.889-4.809-5.472-4.521c0,0-7.273-4.239-6.696-15.234
								c0,0-0.216-2.443-3.601,2.3c0,0-1.729-9.988-9.576-6.898c0,0-2.448,4.239,0.144,6.396c2.592,2.156,4.248,0.647,5.041-0.144
								c0,0-2.161,12.288-16.849-2.946c0,0-2.017-1.797-4.032-1.725c0,0-0.432,0.719,0.503,1.869c0,0-9.72-10.06-25.92-7.042
								c0,0,0.349-5.813-4.663-5.462c-5.012-0.35-4.662,5.462-4.662,5.462C61.84,41.556,52.12,51.616,52.12,51.616
								c0.937-1.15,0.504-1.869,0.504-1.869c-2.016-0.072-4.032,1.725-4.032,1.725c-14.688,15.234-16.849,2.946-16.849,2.946
								c0.792,0.791,2.448,2.3,5.041,0.144c2.592-2.156,0.144-6.396,0.144-6.396c-7.848-3.09-9.576,6.898-9.576,6.898
								c-3.385-4.743-3.601-2.3-3.601-2.3C24.327,63.761,17.054,68,17.054,68c-9.36-0.288-5.472,4.521-5.472,4.521
								c7.92,8.688,9,19.266,8.784,21.853c-0.216,2.587-4.32,1.509-4.752,3.306c-0.432,1.796,4.176,5.101,4.176,5.101
								c0.72,6.181-5.617,9.055-5.617,9.055c-8.208-3.594-8.64,6.181-2.735,7.904c4.727,1.382,7.739-1.609,8.756-2.858
								c0.01-0.02,0.022-0.037,0.032-0.057l0,0c0.011-0.021,0.022-0.042,0.036-0.062c0.123-0.278,0.547-1.292,0.791-2.665
								c0.001-0.01,0-0.017,0.001-0.027c9.235-20.82-1.336-39.1-1.336-39.1c9.073-5.498,8.748-14.66,8.748-14.66
								c3.456,3.341,10.909,5.174,18.004,1.94c7.095-3.234,9.394-3.449,9.394-3.449c-2.232-6.468,5.328-6.684,5.328-6.684
								c17.712-6.683,14.617-2.802,15.769,0.216c1.062,2.783,5.116,1.901,5.742,1.747c0.626,0.154,4.681,1.036,5.742-1.747
								c1.153-3.018-1.944-6.899,15.769-0.216c0,0,7.561,0.216,5.329,6.684c0,0,2.299,0.215,9.394,3.449
								c7.095,3.233,14.547,1.401,18.002-1.94c0,0-0.324,9.163,8.75,14.66c0,0-10.572,18.28-1.336,39.101
								c0.001,0.01,0,0.016,0.001,0.026c0.242,1.373,0.667,2.387,0.791,2.665c0.013,0.02,0.024,0.041,0.035,0.062l0,0
								c0.01,0.02,0.022,0.037,0.032,0.057c1.016,1.249,4.03,4.24,8.757,2.858C159.873,118.017,159.44,108.242,151.231,111.836z"/>
							<path fill="#FFFF00" stroke="#FFCC00" stroke-width="1.3" stroke-miterlimit="10" d="M147.173,134.726
								c0,0-3.843,2.334-3.933,6.646c-0.216,4.456,8.711,55.835-12.025,55.405c0,0-0.144-4.961-4.392-4.888
								c-4.249,0.074-4.104,1.797-5.4,1.941c0,0-2.25-2.498-4.896,0.468c-0.216,0.269,0,0.86-2.268,0.214s-3.402-2.639-6.372,0.539
								c-2.971,3.18,3.313,6.684-9,7.691c0,0-6.188,0.931-9.85,2.785c-0.227-2.184-1.212-3.852-3.543-4.224
								c-1.088-0.172-2.007-0.193-2.79-0.103c-0.782-0.091-1.701-0.069-2.79,0.103c-2.331,0.372-3.315,2.04-3.542,4.224
								c-3.662-1.854-9.85-2.785-9.85-2.785c-12.313-1.008-6.03-4.512-9-7.691c-2.969-3.178-4.104-1.186-6.372-0.539
								c-2.268,0.646-2.052,0.055-2.268-0.214c-2.646-2.966-4.896-0.468-4.896-0.468c-1.296-0.145-1.152-1.867-5.4-1.941
								c-4.248-0.073-4.393,4.888-4.393,4.888c-20.736,0.431-11.809-50.949-12.024-55.405c-0.089-4.312-3.933-6.646-3.933-6.646
								c-3.213-0.436-8.458-0.967-8.56,3.734c-0.108,4.959,6.588,4.852,6.588,4.852c3.888,9.054-2.376,17.668-2.376,17.668
								c-5.184,3.441,0,6.333,0,6.333c1.151,4.454,1.296,10.923,1.296,10.923c8.352,42.687,27.919,20.832,27.919,20.832
								c1.728,3.424,4.77,1.732,4.77,1.732c2.017-3.307,2.449-0.862,2.449-0.862c5.329,9.054,22.752,10.311,22.752,10.311
								c-2.204,6.776,3.147,6.513,5.188,6.188c-0.233,0.351-0.363,0.737-0.363,1.143c0,1.646,2.127,2.982,4.752,2.982
								c2.624,0,4.753-1.336,4.753-2.982c0-0.414-0.135-0.807-0.376-1.163c1.938,0.332,7.557,0.748,5.308-6.168
								c0,0,17.424-1.257,22.753-10.311c0,0,0.432-2.444,2.448,0.862c0,0,3.042,1.691,4.77-1.732c0,0,19.568,21.854,27.919-20.832
								c0,0,0.146-6.469,1.297-10.923c0,0,5.185-2.892,0-6.333c0,0-6.264-8.614-2.376-17.668c0,0,6.696,0.107,6.587-4.852
								C155.629,133.759,150.385,134.29,147.173,134.726z"/>
						</g>
						<g>
							<g>
								<path fill="#FFFF00" d="M23.524,114.939c0,0,4.619-1.364,4.089,3.448c0,0-0.303,1.124-4.089,2.566
									c0,0-2.287,1.919-1.807,4.713c-0.055,0.378-0.066,0.76-0.058,1.138c-0.019,0.044-0.034,0.09-0.045,0.14
									c-0.063,0.099-0.109,0.215-0.108,0.369c0.004,0.376,0.063,0.779,0.151,1.177c0.012,0.144,0.027,0.287,0.052,0.43
									c-0.363,2.7,1.814,4.545,1.814,4.545c3.786,1.443,4.089,2.566,4.089,2.566c0.53,4.813-4.089,3.449-4.089,3.449
									c-5.756-3.128-4.469-12.271-4.469-12.271S17.768,118.067,23.524,114.939z"/>
								<path fill="#FFCC00" d="M23.332,114.554l0.079-0.032c0.028-0.008,0.669-0.195,1.464-0.195c1.066,0,1.919,0.339,2.467,0.98
									c0.605,0.708,0.835,1.761,0.684,3.13l-0.013,0.068c-0.06,0.222-0.547,1.397-4.279,2.831
									c-0.244,0.22-1.243,1.211-1.562,2.668c-0.086,0.212-0.165,0.428-0.231,0.648c-0.037,0.066-0.054,0.151-0.065,0.243
									c-0.164,0.629-0.24,1.283-0.227,1.93c-0.007,0.018-0.006,0.044-0.011,0.064c-1.48-3.613,1.593-6.246,1.626-6.274
									l0.116-0.068c3.154-1.202,3.758-2.147,3.825-2.265c0.111-1.083-0.052-1.89-0.485-2.397
									c-0.391-0.457-1.012-0.689-1.846-0.689c-0.573,0-1.062,0.116-1.2,0.151c-5.376,2.968-4.22,11.712-4.208,11.8l0.008,0.063
									l-0.008,0.062c-0.012,0.088-1.168,8.833,4.208,11.801c0.138,0.035,0.626,0.151,1.199,0.151
									c0.834-0.001,1.456-0.233,1.847-0.691c0.431-0.505,0.595-1.307,0.486-2.385c-0.096-0.169-0.741-1.099-3.826-2.276
									l-0.116-0.068c-0.033-0.026-2.929-2.526-1.718-5.991c0.024,0.24,0.065,0.481,0.122,0.722
									c0.056,0.613,0.224,1.225,0.457,1.718c0.276,1.55,1.356,2.602,1.609,2.831c3.732,1.435,4.219,2.608,4.279,2.83l0.013,0.068
									c0.151,1.368-0.08,2.421-0.684,3.13c-0.548,0.64-1.401,0.981-2.468,0.981c-0.794,0-1.436-0.188-1.464-0.195l-0.079-0.033
									c-5.76-3.13-4.812-11.758-4.696-12.655C18.52,126.312,17.572,117.683,23.332,114.554z"/>
							</g>
							<path fill="#FFCC00" d="M21.414,123.584c0,0-0.649,2.946-0.115,6.735l0.348-1.881v-1.935"/>
						</g>
						<g>
							<g>
								<path fill="#FFFF00" d="M142.19,114.939c0,0-4.62-1.364-4.09,3.448c0,0,0.303,1.124,4.09,2.566c0,0,2.286,1.919,1.806,4.713
									c0.056,0.378,0.066,0.76,0.058,1.138c0.019,0.044,0.035,0.09,0.045,0.14c0.063,0.099,0.109,0.215,0.107,0.369
									c-0.004,0.376-0.062,0.779-0.151,1.177c-0.013,0.144-0.027,0.287-0.052,0.43c0.363,2.7-1.813,4.545-1.813,4.545
									c-3.787,1.443-4.09,2.566-4.09,2.566c-0.53,4.813,4.09,3.449,4.09,3.449c5.755-3.128,4.468-12.271,4.468-12.271
									S147.945,118.067,142.19,114.939z"/>
								<path fill="#FFCC00" d="M142.382,114.554l-0.079-0.032c-0.027-0.008-0.669-0.195-1.464-0.195
									c-1.065,0-1.919,0.339-2.467,0.98c-0.605,0.708-0.835,1.761-0.684,3.13l0.013,0.068c0.06,0.222,0.547,1.397,4.279,2.831
									c0.243,0.22,1.243,1.211,1.562,2.668c0.087,0.212,0.165,0.428,0.231,0.648c0.037,0.066,0.054,0.151,0.065,0.243
									c0.164,0.629,0.24,1.283,0.228,1.93c0.007,0.018,0.005,0.044,0.011,0.064c1.48-3.613-1.594-6.246-1.627-6.274l-0.116-0.068
									c-3.153-1.202-3.758-2.147-3.825-2.265c-0.111-1.083,0.052-1.89,0.485-2.397c0.391-0.457,1.012-0.689,1.846-0.689
									c0.574,0,1.063,0.116,1.2,0.151c5.376,2.968,4.22,11.712,4.208,11.8l-0.008,0.063l0.008,0.062
									c0.012,0.088,1.168,8.833-4.208,11.801c-0.137,0.035-0.626,0.151-1.2,0.151c-0.833-0.001-1.456-0.233-1.846-0.691
									c-0.432-0.505-0.595-1.307-0.485-2.385c0.095-0.169,0.74-1.099,3.826-2.276l0.116-0.068
									c0.032-0.026,2.929-2.526,1.718-5.991c-0.024,0.24-0.065,0.481-0.122,0.722c-0.056,0.613-0.223,1.225-0.457,1.718
									c-0.276,1.55-1.356,2.602-1.609,2.831c-3.732,1.435-4.219,2.608-4.279,2.83l-0.013,0.068
									c-0.151,1.368,0.08,2.421,0.684,3.13c0.548,0.64,1.402,0.981,2.467,0.981c0.795,0,1.437-0.188,1.464-0.195l0.079-0.033
									c5.759-3.13,4.812-11.758,4.697-12.655C147.194,126.312,148.142,117.683,142.382,114.554z"/>
							</g>
							<path fill="#FFCC00" d="M144.299,123.584c0,0,0.649,2.946,0.115,6.735l-0.348-1.881v-1.935"/>
						</g>
					</g>
				</g>
				<g>
					<g>
						<g>
							<g>
								
									<rect x="41.941" y="97.098" fill="#FFFF00" stroke="#FFCC00" stroke-width="0.7" stroke-miterlimit="10" width="8.945" height="67.188"/>
								<g>
									<g>
										<g>
											<g id="rect210_8_">
												<rect x="38.996" y="174.826" fill="#FFFF00" width="14.837" height="2.319"/>
												<path fill="#FFCC00" d="M53.995,177.302H38.833v-2.633h15.163V177.302z M39.155,176.99h14.516v-2.008H39.155V176.99z"/>
											</g>
										</g>
										<g>
											<g id="rect210_7_">
												<rect x="37.103" y="177.146" fill="#FFFF00" width="18.622" height="2.32"/>
												<path fill="#FFCC00" d="M55.885,179.623H36.941v-2.633h18.944V179.623z M37.265,179.311h18.297v-2.009H37.265V179.311z"
													/>
											</g>
										</g>
										<g>
											<g id="rect210_6_">
												<rect x="34.498" y="179.466" fill="#FFFF00" width="23.831" height="2.321"/>
												<path fill="#FFCC00" d="M58.491,181.943H34.336v-2.633h24.154V181.943z M34.66,181.629h23.506v-2.006H34.66V181.629z"/>
											</g>
										</g>
									</g>
									<g>
										<rect x="38.996" y="163.232" fill="#FFFF00" width="14.76" height="11.355"/>
										<path fill="#FFCC00" d="M53.966,174.787h-15.18v-11.754h15.18V174.787z M39.206,174.388h14.34v-10.954h-14.34V174.388z"/>
									</g>
									<g>
										
											<rect x="41.941" y="165.591" fill="#FFFF00" stroke="#FFCC00" stroke-width="0.2" stroke-miterlimit="10" width="8.945" height="6.881"/>
										<path fill="#FFCC00" stroke="#FFCC00" stroke-width="0.2" stroke-miterlimit="10" d="M51.014,172.593h-9.2v-7.123h9.2
											V172.593z M42.068,172.351h8.691v-6.638h-8.691V172.351z"/>
									</g>
								</g>
							</g>
							<path fill="#FFFF00" stroke="#FFCC00" stroke-width="0.7" stroke-miterlimit="10" d="M39.557,104.68
								c0,1.183,0.93,2.142,2.077,2.142h9.562c1.146,0,2.076-0.959,2.076-2.142l0,0c0-1.183-0.929-2.142-2.076-2.142h-9.562
								C40.486,102.538,39.557,103.497,39.557,104.68L39.557,104.68z"/>
						</g>
						<g>
							<g>
								
									<rect x="78.163" y="97.098" fill="#FFFF00" stroke="#FFCC00" stroke-width="0.7" stroke-miterlimit="10" width="8.945" height="67.188"/>
								<g>
									<g>
										<g>
											<g id="rect210_3_">
												<rect x="75.217" y="174.826" fill="#FFFF00" width="14.837" height="2.319"/>
												<path fill="#FFCC00" d="M90.217,177.302H75.055v-2.633h15.162V177.302z M75.377,176.99h14.516v-2.008H75.377V176.99z"/>
											</g>
										</g>
										<g>
											<g id="rect210_2_">
												<rect x="73.325" y="177.146" fill="#FFFF00" width="18.622" height="2.32"/>
												<path fill="#FFCC00" d="M92.107,179.623H73.163v-2.633h18.944V179.623z M73.487,179.311h18.297v-2.009H73.487V179.311z"
													/>
											</g>
										</g>
										<g>
											<g id="rect210_1_">
												<rect x="70.72" y="179.466" fill="#FFFF00" width="23.831" height="2.321"/>
												<path fill="#FFCC00" d="M94.713,181.943H70.559v-2.633h24.154V181.943z M70.881,181.629h23.507v-2.006H70.881V181.629z"
													/>
											</g>
										</g>
									</g>
									<g>
										<rect x="75.218" y="163.232" fill="#FFFF00" width="14.76" height="11.355"/>
										<path fill="#FFCC00" d="M90.188,174.787h-15.18v-11.754h15.18V174.787z M75.428,174.388h14.34v-10.954h-14.34V174.388z"/>
									</g>
									<g>
										
											<rect x="78.163" y="165.591" fill="#FFFF00" stroke="#FFCC00" stroke-width="0.2" stroke-miterlimit="10" width="8.945" height="6.881"/>
										<path fill="#FFCC00" stroke="#FFCC00" stroke-width="0.2" stroke-miterlimit="10" d="M87.236,172.593h-9.2v-7.123h9.2
											V172.593z M78.29,172.351h8.69v-6.638h-8.69V172.351z"/>
									</g>
								</g>
							</g>
							<path fill="#FFFF00" stroke="#FFCC00" stroke-width="0.7" stroke-miterlimit="10" d="M75.778,104.68
								c0,1.183,0.93,2.142,2.077,2.142h9.562c1.146,0,2.075-0.959,2.075-2.142l0,0c0-1.183-0.929-2.142-2.075-2.142h-9.562
								C76.708,102.538,75.778,103.497,75.778,104.68L75.778,104.68z"/>
						</g>
						<g>
							<g>
								
									<rect x="114.521" y="97.098" fill="#FFFF00" stroke="#FFCC00" stroke-width="0.7" stroke-miterlimit="10" width="8.945" height="67.188"/>
								<g>
									<g>
										<g>
											<g id="rect210_9_">
												<rect x="111.575" y="174.826" fill="#FFFF00" width="14.837" height="2.319"/>
												<path fill="#FFCC00" d="M126.575,177.302h-15.163v-2.633h15.163V177.302z M111.735,176.99h14.515v-2.008h-14.515V176.99
													z"/>
											</g>
										</g>
										<g>
											<g id="rect210_5_">
												<rect x="109.683" y="177.146" fill="#FFFF00" width="18.621" height="2.32"/>
												<path fill="#FFCC00" d="M128.464,179.623h-18.943v-2.633h18.943V179.623z M109.845,179.311h18.297v-2.009h-18.297
													V179.311z"/>
											</g>
										</g>
										<g>
											<g id="rect210_4_">
												<rect x="107.077" y="179.466" fill="#FFFF00" width="23.832" height="2.321"/>
												<path fill="#FFCC00" d="M131.071,181.943h-24.155v-2.633h24.155V181.943z M107.24,181.629h23.506v-2.006H107.24V181.629
													z"/>
											</g>
										</g>
									</g>
									<g>
										<rect x="111.576" y="163.232" fill="#FFFF00" width="14.76" height="11.355"/>
										<path fill="#FFCC00" d="M126.546,174.787h-15.181v-11.754h15.181V174.787z M111.786,174.388h14.339v-10.954h-14.339
											V174.388z"/>
									</g>
									<g>
										
											<rect x="114.521" y="165.591" fill="#FFFF00" stroke="#FFCC00" stroke-width="0.2" stroke-miterlimit="10" width="8.945" height="6.881"/>
										<path fill="#FFCC00" stroke="#FFCC00" stroke-width="0.2" stroke-miterlimit="10" d="M123.594,172.593h-9.2v-7.123h9.2
											V172.593z M114.648,172.351h8.69v-6.638h-8.69V172.351z"/>
									</g>
								</g>
							</g>
							<path fill="#FFFF00" stroke="#FFCC00" stroke-width="0.7" stroke-miterlimit="10" d="M112.137,104.68
								c0,1.183,0.929,2.142,2.076,2.142h9.562c1.146,0,2.076-0.959,2.076-2.142l0,0c0-1.183-0.93-2.142-2.076-2.142h-9.562
								C113.066,102.538,112.137,103.497,112.137,104.68L112.137,104.68z"/>
						</g>
					</g>
					<g id="rect132">
						<rect x="31.4" y="182.121" fill="#FFFF00" width="102.608" height="4.796"/>
						<path fill="#FFCC00" d="M134.243,187.253H31.164v-5.466h103.079V187.253z M31.635,186.583h102.138v-4.129H31.635V186.583z"/>
					</g>
					<g id="rect132_1_">
						<rect x="34.597" y="91.476" fill="#FFFF00" width="96.213" height="3.944"/>
						<path fill="#FFCC00" d="M131.03,95.694H34.376v-4.492h96.654V95.694z M34.818,95.144h95.772V91.75H34.818V95.144z"/>
					</g>
					<g id="rect132_2_">
						<rect x="37.616" y="95.624" fill="#FFFF00" width="90.176" height="2.946"/>
						<path fill="#FFCC00" d="M127.999,98.776h-90.59v-3.357h90.59V98.776z M37.822,98.365h89.763v-2.536H37.822V98.365z"/>
					</g>
					<g id="path138">
						<path fill="#FFFF00" d="M111.169,91.46c-4.727-9.545-15.696-16.216-28.475-16.216c-12.769,0-23.734,6.679-28.465,16.216H42.89
							c5.245-14.672,21.101-25.428,39.806-25.428c18.718,0,34.582,10.736,39.821,25.423L111.169,91.46z"/>
						<path fill="#FFCC00" d="M111.169,91.627c-0.08,0-0.152-0.041-0.183-0.103c-4.846-9.788-15.952-16.112-28.292-16.112
							c-12.324,0-23.425,6.324-28.282,16.112c-0.031,0.063-0.103,0.103-0.183,0.103H42.89c-0.063,0-0.122-0.025-0.159-0.068
							c-0.037-0.042-0.048-0.097-0.031-0.147c1.303-3.643,3.264-7.079,5.829-10.21c2.533-3.092,5.593-5.814,9.095-8.091
							c3.546-2.305,7.46-4.097,11.633-5.328c4.321-1.274,8.842-1.919,13.439-1.919c4.601,0,9.124,0.645,13.446,1.917
							c4.177,1.228,8.093,3.02,11.64,5.322c3.505,2.275,6.565,4.997,9.099,8.088c2.565,3.131,4.526,6.568,5.826,10.216
							c0.018,0.05,0.007,0.104-0.03,0.147c-0.038,0.042-0.097,0.067-0.16,0.067L111.169,91.627z M43.158,91.293h10.94
							c2.376-4.736,6.26-8.764,11.238-11.654c5.138-2.985,11.141-4.562,17.359-4.562c12.457,0,23.671,6.362,28.607,16.216
							l10.947-0.005c-5.394-14.784-21.621-25.089-39.553-25.089C64.784,66.199,48.564,76.507,43.158,91.293z"/>
					</g>
				</g>
				<g>
					<path fill="#081B55" stroke="#000000" stroke-width="0.5" stroke-miterlimit="10" d="M106.432,145.671
						c0,0,0.444-2.126,0.069-3.938c0,0-4.229-3.063-6.207,0.628c-1.979,3.692,0.886,3.133,1.228,4.457
						c0.341,1.325-1.023,1.88-1.33,4.912c0,0-0.102,1.879-2.456,1.41c-2.353-0.47-3.223-1.098-3.785,0.68
						c-0.563,1.774-0.103,2.036,0.562,2.455c0.665,0.417,4.962,0.052,5.32,0c0.358-0.052-0.307,2.56,0,3.918
						c0.123,0.541,0.179,1.662,0.326,3.118c0.47-0.005,0.971,0.387,0.826,0.996c-0.51,2.167,0.655,3.965,2.048,5.486
						c0.693,0.758-0.418,1.897-1.114,1.138c-0.063-0.069-0.12-0.141-0.181-0.211c0.084,0.229,0.167,0.458,0.26,0.687
						c0,0,0.956,6.897,0,8.081c-0.955,1.184-2.183,0.696-3.069,0.904c-0.703,0.167-0.543,0.986,0.911,1.287
						c0.034,0,0.063-0.012,0.1-0.007c0.398,0.056,0.802,0.09,1.205,0.114c0.035-0.002,0.067,0,0.103,0
						c0.626-0.017,1.185-0.015,1.711-0.01c0.182-0.014,0.365-0.023,0.546-0.044c0.736-0.085,2.043-0.083,2.692-0.564
						c0.083-0.134,0.146-0.278,0.163-0.445c0.001-0.017,0.01-0.026,0.012-0.041c-0.216-1.917-0.638-5.932-0.663-8.285
						c-0.047-0.03-0.096-0.047-0.141-0.091c-1.647-1.584-0.394-4.701,0.542-6.354c0.183-0.326,0.479-0.423,0.757-0.377
						c0.363-1.466,0.694-2.787,0.793-3.606C107.897,159.984,109.399,148.596,106.432,145.671z"/>
					<path fill="#FFFFFF" stroke="#000000" stroke-width="0.5" stroke-miterlimit="10" d="M100.334,145.713
						c0.62,0.312,0.923,0.69,1.07,1.045c0.008,0,0.015,0,0.023,0c0.91-0.111,1.761-0.3,2.661-0.481
						c0.683-0.139,1.374-0.258,2.053-0.416c2.134-6.05-2.327-5.232-3.915-5.193C100.514,140.711,98.656,144.869,100.334,145.713z"/>
					<path fill="#FFFF00" stroke="#000000" stroke-width="0.5" stroke-miterlimit="10" d="M99.757,159.567
						c0,0,6.725,7.517,6.521,8.484c0,0-0.59,3.424-0.57,4.262c0.02,0.836-3.597,0-3.597,0S99.682,163.695,99.757,159.567z"/>
					<path fill="#081B55" stroke="#000000" stroke-width="0.5" stroke-miterlimit="10" d="M104.277,137.704c0,0-1.228-1.149-2.967,0
						c-1.739,1.149-2.558,3.553-3.888,3.865c-1.33,0.313,5.73,0.836,9.925,0.522C111.541,141.778,107.55,140.837,104.277,137.704z"
						/>
					<path fill="#FFFF00" stroke="#000000" stroke-width="0.5" stroke-miterlimit="10" d="M99.757,159.567
						c0,0,6.419,6.379,7.093,6.079c0,0-0.384,1.422-0.572,2.405"/>
					<path fill="#FFFFFF" stroke="#000000" stroke-width="0.5" stroke-miterlimit="10" d="M96.857,152.987c0,0-2.022-1.106-2.657,0
						c-0.635,1.105-1.349,2.982,0.952,3.276C97.453,156.556,97.104,153.435,96.857,152.987z"/>
					<g>
						<path d="M96.496,152.042c-1.577-0.309-3.189,0.439-3.502,2.119c-0.308,1.649,0.986,2.799,2.576,2.745
							c0.807-0.027,0.81-1.279,0-1.252c-0.81,0.028-1.514-0.363-1.345-1.269c0.174-0.931,1.073-1.306,1.938-1.137
							C96.953,153.403,97.29,152.197,96.496,152.042L96.496,152.042z"/>
					</g>
					<path fill="#081B55" stroke="#000000" stroke-width="0.5" stroke-miterlimit="10" d="M94.72,152.984
						c0,0-0.857-14.048,1.609-18.285c0,0-1.727,9.27-0.467,17.846L94.72,152.984z"/>
					<path fill="#081B55" d="M107.481,161.7"/>
				</g>
				<path fill="#FFFFFF" stroke="#000000" stroke-width="0.7" stroke-miterlimit="10" d="M51.402,127.916
					c0,0-1.465,4.336-4.606,5.963s-20.379,16.268-23.869,20.198c0,0,4.886,0.409,6.7,0c0,0,0.139,6.238-0.838,7.185
					c-0.976,0.949,21.217-15.451,26.381-21.823C60.335,133.067,53.774,127.781,51.402,127.916z"/>
				<path fill="#FFFFFF" stroke="#000000" stroke-miterlimit="10" d="M50.98,105.724"/>
				<path fill="#FFFFFF" stroke="#000000" stroke-width="0.7" stroke-miterlimit="10" d="M51.289,107.812
					c0,0,0.558,4.736-1.535,5.851c-2.094,1.115-22.752,10.449-10.609,22.43c0,0,4.606-8.638,13.68-12.121
					C61.897,120.488,54.639,109.344,51.289,107.812z"/>
				<g>
					<path fill="#FFFFFF" stroke="#000000" stroke-width="0.7" stroke-miterlimit="10" d="M66.188,118.15l-7.677-6.268v-7.244
						c0,0,33.64,1.671,46.621,0v6.756l-7.258,7.383v-4.946c0,0-24.567,2.787-32.384,0.14L66.188,118.15z"/>
					<path fill="#FFFFFF" stroke="#000000" stroke-width="0.7" stroke-miterlimit="10" d="M59.327,104.677l6.233,6.16
						c0,0,0.104,6.583,0.628,7.313"/>
					<path fill="#FFFFFF" stroke="#000000" stroke-width="0.7" stroke-miterlimit="10" d="M105.132,104.638
						c0,0-5.444,5.711-7.677,7.07l0.419,5.398"/>
					<g>
						<path fill="#DB0001" stroke="#CC0000" stroke-width="0.6" stroke-miterlimit="10" d="M69.445,110.912
							c0.007,0.294-0.018,0.545-0.074,0.75c-0.055,0.206-0.141,0.375-0.256,0.506c-0.116,0.131-0.261,0.228-0.436,0.29
							c-0.175,0.061-0.378,0.095-0.61,0.1c-0.211,0.005-0.401-0.023-0.569-0.083c-0.169-0.06-0.312-0.147-0.429-0.263
							c-0.117-0.116-0.209-0.257-0.274-0.422s-0.1-0.351-0.104-0.557l-0.003-0.135l0.755-0.017c0.006,0.267,0.06,0.466,0.16,0.6
							c0.101,0.133,0.25,0.198,0.45,0.194c0.135-0.003,0.244-0.028,0.327-0.074c0.082-0.046,0.144-0.109,0.187-0.19
							c0.042-0.081,0.069-0.177,0.082-0.291c0.013-0.113,0.018-0.236,0.015-0.37l-0.071-3.196l0.783-0.017L69.445,110.912z"/>
						<path fill="#DB0001" stroke="#CC0000" stroke-width="0.6" stroke-miterlimit="10" d="M72.822,112.453
							c-0.274,0.007-0.512-0.013-0.713-0.059c-0.202-0.046-0.374-0.111-0.517-0.197c-0.142-0.085-0.259-0.191-0.35-0.315
							c-0.091-0.125-0.163-0.262-0.214-0.414c-0.053-0.151-0.089-0.314-0.11-0.489c-0.022-0.174-0.035-0.356-0.039-0.546
							l-0.061-2.727l0.787-0.018l0.061,2.727c0.006,0.257,0.033,0.473,0.08,0.647c0.048,0.175,0.119,0.314,0.212,0.421
							c0.093,0.106,0.209,0.181,0.349,0.225s0.307,0.064,0.5,0.061c0.183-0.005,0.343-0.029,0.481-0.073
							c0.137-0.044,0.25-0.121,0.341-0.227c0.09-0.106,0.157-0.25,0.199-0.427c0.042-0.18,0.061-0.405,0.055-0.676l-0.061-2.726
							l0.783-0.017l0.061,2.726c0.004,0.165,0.001,0.33-0.008,0.496c-0.009,0.166-0.034,0.325-0.073,0.479
							c-0.04,0.154-0.1,0.298-0.18,0.433c-0.081,0.136-0.189,0.253-0.326,0.353c-0.138,0.102-0.309,0.182-0.514,0.243
							C73.359,112.412,73.112,112.446,72.822,112.453z"/>
						<path fill="#DB0001" stroke="#CC0000" stroke-width="0.6" stroke-miterlimit="10" d="M77.951,112.338
							c-0.325,0.007-0.612-0.023-0.861-0.092c-0.249-0.069-0.459-0.171-0.633-0.306c-0.173-0.134-0.309-0.3-0.405-0.498
							c-0.096-0.197-0.152-0.422-0.167-0.674l0.749-0.017c0.018,0.157,0.063,0.294,0.136,0.412c0.074,0.118,0.167,0.215,0.281,0.293
							c0.115,0.076,0.246,0.135,0.394,0.173c0.148,0.039,0.308,0.056,0.478,0.052c0.16-0.003,0.307-0.024,0.44-0.062
							c0.134-0.038,0.248-0.09,0.343-0.156c0.094-0.065,0.167-0.144,0.219-0.234c0.051-0.091,0.076-0.19,0.073-0.3
							c-0.002-0.12-0.033-0.219-0.09-0.299s-0.146-0.148-0.268-0.205c-0.121-0.056-0.275-0.107-0.463-0.153s-0.414-0.094-0.68-0.146
							c-0.25-0.05-0.466-0.112-0.652-0.184c-0.185-0.073-0.338-0.161-0.461-0.265c-0.124-0.104-0.216-0.224-0.278-0.36
							c-0.063-0.136-0.095-0.294-0.099-0.476c-0.005-0.197,0.034-0.378,0.115-0.545c0.081-0.167,0.197-0.309,0.349-0.428
							c0.151-0.119,0.333-0.213,0.549-0.284c0.214-0.068,0.453-0.107,0.718-0.112c0.273-0.006,0.522,0.02,0.747,0.078
							c0.224,0.059,0.417,0.148,0.578,0.268c0.163,0.119,0.29,0.266,0.383,0.443c0.093,0.177,0.147,0.377,0.161,0.604l-0.762,0.017
							c-0.067-0.515-0.429-0.765-1.085-0.75c-0.156,0.003-0.295,0.023-0.419,0.058c-0.123,0.035-0.228,0.083-0.313,0.142
							c-0.086,0.061-0.151,0.131-0.196,0.211c-0.045,0.081-0.066,0.168-0.064,0.261c0.001,0.076,0.021,0.146,0.059,0.207
							c0.037,0.062,0.097,0.119,0.18,0.17c0.082,0.051,0.19,0.099,0.323,0.142c0.133,0.044,0.297,0.085,0.494,0.125
							c0.17,0.036,0.336,0.071,0.499,0.107c0.162,0.036,0.314,0.077,0.457,0.125c0.143,0.047,0.273,0.104,0.392,0.168
							c0.119,0.065,0.222,0.144,0.309,0.236c0.087,0.093,0.155,0.204,0.206,0.331c0.051,0.127,0.078,0.277,0.082,0.448
							c0.004,0.216-0.037,0.413-0.125,0.59c-0.087,0.179-0.212,0.332-0.373,0.46c-0.161,0.128-0.353,0.229-0.578,0.303
							C78.467,112.292,78.22,112.332,77.951,112.338z"/>
						<path fill="#DB0001" stroke="#CC0000" stroke-width="0.6" stroke-miterlimit="10" d="M84.345,108.089l-1.489,0.033l0.09,4.026
							l-0.783,0.017l-0.09-4.025l-1.482,0.033l-0.015-0.685l3.754-0.083L84.345,108.089z"/>
						<path fill="#DB0001" stroke="#CC0000" stroke-width="0.6" stroke-miterlimit="10" d="M86.359,112.07l-0.783,0.018l-0.105-4.71
							l0.783-0.018L86.359,112.07z"/>
						<path fill="#DB0001" stroke="#CC0000" stroke-width="0.6" stroke-miterlimit="10" d="M89.869,112.072
							c-0.334,0.008-0.637-0.039-0.909-0.141c-0.272-0.102-0.509-0.259-0.711-0.473c-0.208-0.217-0.365-0.474-0.469-0.768
							c-0.104-0.295-0.161-0.629-0.168-1.004c-0.017-0.745,0.169-1.343,0.558-1.792c0.197-0.227,0.428-0.396,0.692-0.509
							c0.264-0.112,0.563-0.172,0.898-0.18c0.259-0.006,0.5,0.022,0.72,0.081c0.221,0.06,0.423,0.155,0.607,0.285
							c0.208,0.148,0.363,0.318,0.468,0.508c0.105,0.19,0.173,0.407,0.205,0.652l-0.797,0.019c-0.017-0.139-0.058-0.264-0.121-0.375
							c-0.064-0.111-0.147-0.205-0.25-0.281s-0.223-0.135-0.361-0.175c-0.138-0.04-0.288-0.058-0.449-0.054
							c-0.213,0.005-0.407,0.049-0.579,0.131c-0.172,0.083-0.317,0.201-0.436,0.353c-0.119,0.154-0.208,0.341-0.27,0.563
							c-0.062,0.221-0.089,0.473-0.082,0.755c0.006,0.283,0.044,0.533,0.114,0.752c0.07,0.218,0.167,0.401,0.293,0.55
							c0.125,0.147,0.274,0.259,0.446,0.334c0.172,0.074,0.366,0.11,0.58,0.105c0.168-0.004,0.32-0.028,0.457-0.075
							c0.136-0.045,0.253-0.111,0.353-0.195c0.099-0.083,0.178-0.187,0.236-0.308c0.059-0.12,0.095-0.258,0.108-0.413l0.79-0.018
							c-0.037,0.521-0.23,0.929-0.578,1.222C90.868,111.911,90.42,112.061,89.869,112.072z"/>
						<path fill="#DB0001" stroke="#CC0000" stroke-width="0.6" stroke-miterlimit="10" d="M96.662,111.841l-3.571,0.08
							l-0.105-4.709l3.459-0.077l0.015,0.678l-2.672,0.06l0.028,1.271l2.503-0.056l0.016,0.685l-2.503,0.056l0.031,1.399
							l2.784-0.063L96.662,111.841z"/>
					</g>
				</g>
				<g>
					<g>
						<path fill="#DB0001" stroke="#CC0000" stroke-width="0.6" stroke-miterlimit="10" d="M35.284,147.441l1.181-0.979
							c0.623-0.517,1.213-0.758,1.772-0.721c0.56,0.036,1.089,0.354,1.592,0.955c1.017,1.223,0.9,2.353-0.349,3.39l-1.181,0.979
							L35.284,147.441z M38.47,150.043l0.565-0.469c0.489-0.406,0.727-0.793,0.714-1.166c-0.007-0.192-0.056-0.387-0.146-0.584
							c-0.091-0.195-0.224-0.399-0.398-0.609c-0.167-0.199-0.337-0.362-0.509-0.481c-0.173-0.119-0.35-0.196-0.534-0.233
							c-0.358-0.078-0.783,0.085-1.274,0.493l-0.564,0.468L38.47,150.043z"/>
						<path fill="#DB0001" stroke="#CC0000" stroke-width="0.6" stroke-miterlimit="10" d="M40.843,142.733
							c0.257-0.214,0.529-0.364,0.818-0.45c0.288-0.088,0.576-0.112,0.865-0.075c0.289,0.036,0.571,0.133,0.847,0.293
							c0.277,0.162,0.532,0.381,0.764,0.661c0.233,0.28,0.404,0.569,0.513,0.867c0.11,0.297,0.158,0.592,0.143,0.882
							c-0.015,0.29-0.092,0.569-0.231,0.836c-0.14,0.268-0.34,0.512-0.603,0.729c-0.262,0.216-0.538,0.37-0.824,0.458
							c-0.287,0.088-0.575,0.112-0.863,0.074c-0.288-0.039-0.569-0.138-0.845-0.3c-0.275-0.163-0.528-0.383-0.764-0.667
							c-0.233-0.279-0.402-0.569-0.51-0.869c-0.107-0.301-0.152-0.598-0.134-0.886c0.017-0.292,0.095-0.569,0.232-0.835
							C40.389,143.185,40.586,142.945,40.843,142.733z M43.529,145.969c0.169-0.14,0.296-0.298,0.383-0.478
							c0.084-0.179,0.126-0.368,0.125-0.569c-0.002-0.202-0.044-0.407-0.131-0.619c-0.086-0.212-0.215-0.42-0.388-0.628
							c-0.168-0.204-0.349-0.365-0.54-0.489c-0.192-0.124-0.386-0.204-0.582-0.245c-0.196-0.041-0.391-0.036-0.583,0.011
							c-0.192,0.049-0.374,0.142-0.543,0.282c-0.17,0.142-0.297,0.302-0.382,0.481c-0.084,0.183-0.127,0.374-0.127,0.574
							c0,0.202,0.043,0.409,0.13,0.62c0.085,0.212,0.213,0.42,0.384,0.624c0.172,0.208,0.355,0.374,0.549,0.496
							c0.193,0.121,0.389,0.202,0.587,0.24c0.196,0.038,0.391,0.033,0.583-0.016C43.185,146.202,43.363,146.107,43.529,145.969z"/>
						<path fill="#DB0001" stroke="#CC0000" stroke-width="0.6" stroke-miterlimit="10" d="M46.365,138.465l1.42,3.464l-3.145-1.987
							l-0.916,0.784l2.875,3.456l0.571-0.474l-1.466-1.761c-0.171-0.206-0.343-0.411-0.515-0.613
							c-0.172-0.202-0.344-0.404-0.516-0.605l3.463,2.178l0.543-0.45l-1.527-3.782c0.169,0.204,0.337,0.406,0.506,0.613
							c0.168,0.206,0.338,0.41,0.51,0.618l1.466,1.761l0.564-0.468l-2.924-3.515L46.365,138.465z"/>
					</g>
					<polygon fill="#FFFFFF" points="43.205,140.893 47.495,137.217 46.199,135.71 41.91,139.386 					"/>
				</g>
				<g>
					<path fill="#DB0001" stroke="#CC0000" stroke-width="0.6" stroke-miterlimit="10" d="M42.235,121.815l2.251,1.658l0.895,0.675
						c-0.124-0.252-0.245-0.494-0.362-0.724c-0.117-0.229-0.235-0.462-0.351-0.699l-1.003-2.063l0.617-0.498l1.999,4.444
						l-0.631,0.51l-3.25-2.409l1.685,3.67l-0.625,0.504l-3.938-2.881l0.623-0.502l1.804,1.418c0.21,0.163,0.417,0.328,0.622,0.494
						c0.203,0.165,0.412,0.331,0.623,0.497l-1.62-3.562L42.235,121.815z"/>
					<path fill="#DB0001" stroke="#CC0000" stroke-width="0.6" stroke-miterlimit="10" d="M48.693,122.665l-0.608,0.491
						l-2.966-3.665l0.609-0.492L48.693,122.665z"/>
					<path fill="#DB0001" stroke="#CC0000" stroke-width="0.6" stroke-miterlimit="10" d="M51.306,120.663
						c-0.253,0.204-0.499,0.354-0.738,0.451c-0.239,0.098-0.468,0.146-0.689,0.145c-0.22-0.001-0.428-0.05-0.625-0.148
						c-0.196-0.097-0.378-0.242-0.544-0.432l0.583-0.469c0.109,0.114,0.229,0.194,0.36,0.243c0.131,0.048,0.265,0.068,0.402,0.06
						c0.137-0.008,0.277-0.042,0.418-0.103c0.141-0.061,0.277-0.144,0.409-0.25c0.125-0.1,0.228-0.206,0.312-0.317
						c0.083-0.111,0.141-0.222,0.177-0.332c0.034-0.11,0.044-0.216,0.029-0.319c-0.015-0.102-0.056-0.197-0.124-0.281
						c-0.076-0.095-0.161-0.155-0.256-0.184c-0.095-0.027-0.206-0.027-0.337,0.002c-0.13,0.028-0.283,0.082-0.459,0.161
						c-0.177,0.078-0.386,0.178-0.628,0.299c-0.229,0.112-0.438,0.196-0.629,0.251s-0.366,0.08-0.527,0.072
						c-0.161-0.007-0.308-0.046-0.441-0.116c-0.132-0.069-0.256-0.175-0.369-0.315c-0.125-0.154-0.206-0.321-0.243-0.502
						c-0.038-0.181-0.033-0.364,0.014-0.551c0.048-0.188,0.135-0.375,0.262-0.56c0.127-0.186,0.293-0.362,0.499-0.528
						c0.214-0.17,0.427-0.302,0.64-0.392c0.215-0.089,0.421-0.137,0.622-0.142c0.202-0.003,0.393,0.036,0.575,0.12
						c0.182,0.083,0.348,0.208,0.499,0.379l-0.593,0.478c-0.369-0.367-0.808-0.344-1.32,0.068c-0.12,0.096-0.219,0.198-0.295,0.301
						c-0.077,0.103-0.131,0.205-0.162,0.304c-0.032,0.1-0.04,0.194-0.025,0.287c0.014,0.09,0.049,0.172,0.107,0.243
						c0.048,0.061,0.107,0.103,0.174,0.129c0.067,0.026,0.15,0.034,0.246,0.024c0.097-0.008,0.211-0.038,0.342-0.085
						c0.133-0.045,0.288-0.114,0.468-0.201c0.157-0.076,0.31-0.147,0.46-0.218c0.15-0.071,0.296-0.129,0.439-0.18
						c0.142-0.049,0.28-0.083,0.413-0.104c0.133-0.021,0.263-0.021,0.389-0.002c0.126,0.021,0.248,0.067,0.365,0.137
						c0.118,0.07,0.23,0.171,0.338,0.305c0.136,0.168,0.224,0.347,0.263,0.543c0.04,0.195,0.035,0.391-0.013,0.591
						c-0.048,0.199-0.14,0.397-0.273,0.592C51.686,120.312,51.515,120.494,51.306,120.663z"/>
				</g>
				<g>
					<path fill="#FFFFFF" stroke="#000000" stroke-width="0.8" stroke-miterlimit="10" d="M129,122.252
						c-0.284-0.285-0.565-0.573-0.869-0.848c-3.22-2.062-14.058-9.27-14.177-12.946c0,0-8.794,2.646-3.35,10.586
						c5.444,7.94,14.517,6.27,14.656,14.489c0,0,9.106,0.101,4.845-9.424C129.729,123.497,129.37,122.872,129,122.252z"/>
					<g>
						<path fill="#DB0001" stroke="#CC0000" stroke-width="0.6" stroke-miterlimit="10" d="M114.905,119.305l-0.539-0.498l1.56-1.68
							c0.183-0.196,0.365-0.392,0.548-0.584c0.182-0.193,0.363-0.385,0.543-0.58l-3.56,2.004l-0.518-0.481l1.714-3.71
							c-0.177,0.198-0.354,0.394-0.533,0.589s-0.36,0.394-0.543,0.589l-1.56,1.68l-0.543-0.505l3.21-3.455l0.837,0.776l-1.656,3.561
							l3.406-1.942l0.842,0.781L114.905,119.305z"/>
						<path fill="#DB0001" stroke="#CC0000" stroke-width="0.6" stroke-miterlimit="10" d="M120.736,118.172
							c0.245,0.227,0.429,0.477,0.552,0.75c0.125,0.274,0.187,0.557,0.188,0.847c0.001,0.29-0.06,0.582-0.184,0.877
							c-0.124,0.293-0.309,0.575-0.557,0.841c-0.248,0.268-0.512,0.474-0.794,0.62c-0.282,0.146-0.568,0.231-0.859,0.254
							c-0.291,0.024-0.577-0.016-0.862-0.119c-0.284-0.103-0.55-0.271-0.801-0.5c-0.25-0.232-0.437-0.485-0.562-0.758
							c-0.125-0.272-0.187-0.554-0.186-0.846c0-0.289,0.063-0.581,0.188-0.874s0.312-0.574,0.562-0.842
							c0.249-0.267,0.514-0.472,0.799-0.618c0.286-0.146,0.573-0.228,0.864-0.247c0.291-0.021,0.577,0.02,0.859,0.121
							C120.227,117.781,120.491,117.945,120.736,118.172z M117.868,121.249c0.161,0.151,0.336,0.257,0.525,0.317
							c0.189,0.06,0.383,0.077,0.582,0.05c0.199-0.027,0.398-0.098,0.597-0.208c0.2-0.113,0.391-0.269,0.574-0.466
							c0.18-0.192,0.318-0.392,0.416-0.597c0.096-0.207,0.153-0.408,0.167-0.608c0.015-0.199-0.014-0.392-0.086-0.576
							c-0.073-0.185-0.19-0.352-0.352-0.5c-0.161-0.15-0.337-0.254-0.527-0.316c-0.191-0.061-0.387-0.077-0.586-0.051
							c-0.2,0.026-0.4,0.096-0.599,0.207c-0.2,0.112-0.39,0.267-0.571,0.462c-0.183,0.198-0.322,0.4-0.418,0.607
							c-0.097,0.207-0.152,0.412-0.164,0.612c-0.012,0.2,0.019,0.392,0.093,0.573C117.593,120.938,117.709,121.104,117.868,121.249z
							"/>
						<path fill="#DB0001" stroke="#CC0000" stroke-width="0.6" stroke-miterlimit="10" d="M123.257,120.609l1.126,1.042
							c0.594,0.548,0.908,1.103,0.945,1.662c0.037,0.559-0.211,1.123-0.744,1.699c-1.083,1.166-2.22,1.196-3.411,0.094l-1.125-1.042
							L123.257,120.609z M121.086,124.1l0.539,0.499c0.466,0.432,0.883,0.616,1.25,0.556c0.19-0.033,0.377-0.106,0.561-0.22
							c0.183-0.117,0.367-0.273,0.553-0.474c0.179-0.192,0.316-0.38,0.412-0.566c0.096-0.186,0.15-0.373,0.163-0.559
							c0.033-0.365-0.186-0.765-0.653-1.198l-0.539-0.498L121.086,124.1z"/>
						<path fill="#DB0001" stroke="#CC0000" stroke-width="0.6" stroke-miterlimit="10" d="M126.502,130.035l-2.619-2.423
							l3.209-3.454l2.538,2.348l-0.462,0.496l-1.96-1.813l-0.866,0.934l1.835,1.696l-0.466,0.502l-1.835-1.699l-0.954,1.027
							l2.042,1.889L126.502,130.035z"/>
					</g>
				</g>
				<polygon fill="#FFFFFF" points="114.521,112.207 118.434,115.824 118.316,114.818 116.477,113.748 115.476,112.023 				"/>
				<g>
					<path fill="#FFFFFF" stroke="#000000" stroke-width="0.8" stroke-miterlimit="10" d="M126.124,140.787
						c-7.076-4.055-13.771-7.987-12.37-10.988c-0.446,0.082-0.894,0.157-1.343,0.217c-2.017,1.218-4.87,4.043-2.95,9.793
						c0.206,0.349,0.458,0.673,0.741,0.976c3.42,2.605,21.839,16.724,26.392,22.154c0,0,0.418-5.712-0.559-9.057
						c0,0,3.908,0.698,5.025,0.279C142.176,153.744,133.662,145.105,126.124,140.787z"/>
					<g>
						<path fill="#DB0001" stroke="#CC0000" stroke-width="0.6" stroke-miterlimit="10" d="M114.489,140.946l-0.685-0.507
							l0.374-1.22c0.073-0.243,0.086-0.456,0.041-0.64c-0.047-0.185-0.169-0.351-0.369-0.499l-0.8-0.592l-1.146,1.543l-0.632-0.467
							l2.812-3.784l1.683,1.247c0.202,0.148,0.374,0.303,0.517,0.465c0.144,0.16,0.246,0.326,0.306,0.5
							c0.061,0.173,0.074,0.354,0.041,0.54c-0.034,0.188-0.125,0.383-0.276,0.585c-0.198,0.268-0.432,0.429-0.701,0.489
							c-0.269,0.062-0.554,0.018-0.856-0.127c0.098,0.157,0.151,0.33,0.157,0.521c0.007,0.19-0.026,0.409-0.097,0.653
							L114.489,140.946z M113.448,136.954l0.984,0.729c0.14,0.103,0.269,0.181,0.386,0.233c0.117,0.053,0.226,0.077,0.326,0.077
							c0.101,0,0.195-0.028,0.283-0.083c0.088-0.054,0.173-0.135,0.255-0.246c0.146-0.197,0.197-0.388,0.15-0.572
							c-0.045-0.186-0.193-0.372-0.443-0.556l-1.051-0.779L113.448,136.954z"/>
						<path fill="#DB0001" stroke="#CC0000" stroke-width="0.6" stroke-miterlimit="10" d="M118.584,143.979l-0.66-0.489
							l0.389-1.333l-1.496-1.107l-1.144,0.774l-0.64-0.475l4.209-2.749l0.693,0.514L118.584,143.979z M117.364,140.676l1.158,0.856
							l0.596-1.986l-0.053-0.039L117.364,140.676z"/>
						<path fill="#DB0001" stroke="#CC0000" stroke-width="0.6" stroke-miterlimit="10" d="M124.462,143.317l-1.197-0.885
							l-2.403,3.233l-0.629-0.465l2.403-3.234l-1.19-0.881l0.409-0.55l3.017,2.234L124.462,143.317z"/>
						<path fill="#DB0001" stroke="#CC0000" stroke-width="0.6" stroke-miterlimit="10" d="M123.605,147.694l-0.629-0.465
							l2.812-3.784l0.629,0.467L123.605,147.694z"/>
						<path fill="#DB0001" stroke="#CC0000" stroke-width="0.6" stroke-miterlimit="10" d="M129.325,145.969
							c0.268,0.2,0.479,0.428,0.631,0.687c0.153,0.259,0.246,0.531,0.279,0.82c0.032,0.287,0.003,0.585-0.087,0.892
							c-0.091,0.308-0.245,0.608-0.461,0.898c-0.217,0.292-0.458,0.527-0.721,0.704c-0.264,0.176-0.54,0.291-0.826,0.348
							c-0.286,0.054-0.577,0.046-0.87-0.026s-0.577-0.209-0.851-0.411c-0.274-0.203-0.488-0.434-0.641-0.69
							c-0.154-0.258-0.247-0.532-0.277-0.822c-0.032-0.288-0.001-0.585,0.091-0.889c0.093-0.307,0.248-0.606,0.466-0.899
							c0.217-0.292,0.459-0.527,0.726-0.701c0.268-0.175,0.546-0.289,0.832-0.341c0.288-0.051,0.576-0.041,0.867,0.027
							C128.777,145.637,129.056,145.77,129.325,145.969z M126.81,149.342c0.177,0.13,0.363,0.218,0.557,0.257
							c0.194,0.039,0.389,0.035,0.585-0.014c0.195-0.049,0.385-0.141,0.571-0.272c0.186-0.133,0.359-0.308,0.52-0.524
							c0.157-0.214,0.274-0.427,0.348-0.641c0.074-0.216,0.108-0.424,0.1-0.622c-0.007-0.2-0.057-0.39-0.149-0.563
							c-0.093-0.174-0.227-0.328-0.404-0.458c-0.177-0.13-0.364-0.217-0.559-0.256c-0.196-0.039-0.392-0.036-0.588,0.011
							c-0.196,0.049-0.387,0.14-0.573,0.272c-0.186,0.134-0.358,0.307-0.517,0.521c-0.161,0.216-0.277,0.433-0.35,0.647
							c-0.074,0.217-0.105,0.428-0.095,0.628c0.01,0.2,0.062,0.388,0.156,0.563C126.504,149.063,126.637,149.214,126.81,149.342z"/>
						<path fill="#DB0001" stroke="#CC0000" stroke-width="0.6" stroke-miterlimit="10" d="M132.322,154.148l-0.635-0.471
							l0.288-4.189c-0.202,0.28-0.404,0.558-0.605,0.834c-0.201,0.273-0.405,0.549-0.611,0.828l-0.883,1.188l-0.596-0.442
							l2.812-3.785l0.644,0.476l-0.292,4.181c0.205-0.278,0.408-0.551,0.609-0.827c0.2-0.272,0.402-0.546,0.608-0.823l0.884-1.188
							l0.589,0.435L132.322,154.148z"/>
					</g>
				</g>
			</g>
			<g>
				<g>
					<path fill="#003366" d="M70.859,198.45h-1.31v-5.331c-0.12,0.064-0.246,0.122-0.377,0.172c-0.131,0.049-0.275,0.09-0.43,0.123
						c-0.155,0.032-0.326,0.057-0.512,0.075c-0.185,0.016-0.392,0.024-0.619,0.024v-0.873c0.663,0,1.176-0.103,1.541-0.311
						c0.365-0.209,0.599-0.524,0.703-0.944h1.005V198.45z"/>
					<path fill="#003366" d="M71.278,198.869H69.13v-5.123c-0.096,0.029-0.196,0.055-0.302,0.077
						c-0.169,0.036-0.355,0.062-0.558,0.081c-0.2,0.019-0.418,0.026-0.659,0.026h-0.419v-1.707h0.419
						c0.587,0,1.035-0.087,1.333-0.256c0.267-0.155,0.428-0.37,0.504-0.682l0.078-0.317h1.753V198.869z M69.967,198.032h0.473
						v-6.229h-0.285c-0.16,0.38-0.426,0.679-0.795,0.89c-0.346,0.198-0.785,0.313-1.331,0.354v0.039
						c0.056-0.004,0.111-0.007,0.164-0.012c0.165-0.017,0.321-0.04,0.462-0.069c0.133-0.027,0.257-0.063,0.37-0.105
						c0.11-0.041,0.218-0.091,0.322-0.146l0.62-0.339V198.032z"/>
				</g>
				<g>
					<path fill="#003366" d="M79.634,192.279l-2.943,6.171h-1.405l3.02-5.973h-4.151v-0.979h5.479V192.279z"/>
					<path fill="#003366" d="M76.956,198.869h-2.35l3.02-5.974h-3.889v-1.815h6.317l-0.04,1.378L76.956,198.869z M75.966,198.032
						h0.46l2.79-5.848v-0.267h-4.643v0.143h4.413L75.966,198.032z"/>
				</g>
				<g>
					<path fill="#003366" d="M85.611,195.345c-0.527,0.461-1.123,0.69-1.789,0.69c-0.363,0-0.696-0.054-1-0.161
						c-0.303-0.107-0.563-0.26-0.781-0.455c-0.216-0.199-0.387-0.435-0.508-0.711c-0.122-0.277-0.183-0.584-0.183-0.918
						c0-0.33,0.06-0.642,0.179-0.934c0.12-0.291,0.295-0.543,0.523-0.762c0.229-0.219,0.512-0.393,0.847-0.52
						c0.335-0.126,0.716-0.189,1.143-0.189c0.471,0,0.887,0.074,1.248,0.224c0.361,0.147,0.664,0.367,0.909,0.651
						s0.43,0.636,0.554,1.059c0.124,0.418,0.186,0.903,0.186,1.444c0,1.258-0.248,2.206-0.742,2.844
						c-0.495,0.64-1.245,0.959-2.25,0.959c-0.339,0-0.652-0.037-0.938-0.111c-0.288-0.076-0.54-0.187-0.757-0.333
						c-0.218-0.147-0.395-0.331-0.533-0.554c-0.138-0.219-0.229-0.476-0.272-0.769h1.322c0.1,0.597,0.5,0.896,1.202,0.896
						c0.236,0,0.449-0.052,0.641-0.158c0.191-0.103,0.355-0.256,0.494-0.455c0.137-0.198,0.249-0.444,0.334-0.738
						C85.525,196.053,85.582,195.72,85.611,195.345z M85.628,194.512c-0.008-0.361-0.049-0.682-0.123-0.963
						c-0.074-0.278-0.177-0.516-0.311-0.707s-0.297-0.336-0.488-0.436c-0.191-0.099-0.409-0.148-0.652-0.148
						c-0.227,0-0.426,0.041-0.596,0.121c-0.169,0.079-0.312,0.187-0.427,0.322c-0.115,0.134-0.202,0.29-0.26,0.467
						c-0.059,0.176-0.087,0.361-0.087,0.556c0,0.215,0.033,0.41,0.102,0.587c0.068,0.176,0.163,0.326,0.285,0.451
						c0.121,0.124,0.268,0.221,0.439,0.289c0.172,0.068,0.362,0.103,0.568,0.103C84.614,195.153,85.13,194.939,85.628,194.512z"/>
					<path fill="#003366" d="M83.947,198.985c-0.373,0-0.725-0.042-1.045-0.126c-0.332-0.087-0.63-0.22-0.885-0.392
						c-0.265-0.179-0.484-0.406-0.653-0.677c-0.168-0.27-0.28-0.583-0.331-0.931l-0.071-0.479h2.13
						c-0.141-0.029-0.279-0.067-0.41-0.114c-0.354-0.124-0.664-0.307-0.921-0.537c-0.263-0.24-0.468-0.527-0.611-0.854
						c-0.145-0.33-0.217-0.694-0.217-1.086c0-0.385,0.07-0.751,0.21-1.092s0.349-0.646,0.621-0.907
						c0.268-0.253,0.6-0.459,0.987-0.605c0.808-0.305,1.915-0.285,2.699,0.037c0.421,0.173,0.78,0.431,1.067,0.767
						c0.284,0.328,0.499,0.736,0.638,1.213c0.134,0.456,0.203,0.981,0.203,1.562c0,1.346-0.279,2.388-0.83,3.101
						C85.953,198.607,85.083,198.985,83.947,198.985z M82.001,197.217c0.022,0.046,0.046,0.09,0.073,0.131
						c0.107,0.171,0.246,0.316,0.413,0.429c0.176,0.118,0.387,0.211,0.628,0.274c0.25,0.064,0.531,0.099,0.833,0.099
						c0.875,0,1.503-0.261,1.919-0.795c0.434-0.563,0.654-1.436,0.654-2.591c0-0.5-0.057-0.947-0.168-1.327
						c-0.106-0.361-0.264-0.665-0.469-0.903c-0.205-0.237-0.45-0.414-0.751-0.537c-0.589-0.242-1.476-0.257-2.083-0.029
						c-0.28,0.106-0.518,0.25-0.705,0.43c-0.189,0.181-0.329,0.383-0.425,0.617c-0.098,0.24-0.148,0.501-0.148,0.776
						c0,0.278,0.048,0.525,0.147,0.75c0.096,0.22,0.233,0.411,0.407,0.569c0.174,0.156,0.389,0.282,0.639,0.371
						c0.408,0.144,0.93,0.186,1.39,0.075c-0.348,0.041-0.699,0.002-0.998-0.117c-0.227-0.089-0.422-0.221-0.584-0.385
						c-0.162-0.167-0.288-0.366-0.375-0.594c-0.085-0.22-0.129-0.469-0.129-0.736c0-0.239,0.037-0.47,0.108-0.687
						c0.076-0.229,0.19-0.434,0.34-0.608c0.151-0.178,0.343-0.322,0.566-0.428c0.471-0.225,1.139-0.216,1.62,0.035
						c0.251,0.13,0.466,0.321,0.637,0.567c0.16,0.227,0.285,0.509,0.373,0.838c0.075,0.286,0.12,0.609,0.134,0.965l0.062-0.054
						l-0.078,1.022c-0.031,0.406-0.093,0.772-0.186,1.087c-0.099,0.336-0.231,0.625-0.393,0.858
						c-0.178,0.257-0.393,0.454-0.64,0.586c-0.25,0.138-0.534,0.208-0.839,0.208c-0.949,0-1.351-0.468-1.52-0.897H82.001z
						 M83.125,196.387l0.057,0.345c0.047,0.283,0.176,0.546,0.789,0.546c0.166,0,0.31-0.034,0.44-0.104
						c0.131-0.071,0.249-0.181,0.351-0.328c0.11-0.159,0.203-0.367,0.276-0.617c0.003-0.008,0.006-0.018,0.008-0.027
						C84.449,196.462,83.744,196.51,83.125,196.387z M84.055,192.676c-0.163,0-0.303,0.027-0.417,0.081
						c-0.117,0.054-0.211,0.125-0.288,0.215c-0.08,0.094-0.14,0.202-0.181,0.326c-0.043,0.133-0.065,0.275-0.065,0.426
						c0,0.165,0.024,0.31,0.073,0.435c0.048,0.126,0.112,0.228,0.195,0.313c0.078,0.079,0.177,0.144,0.295,0.191
						c0.423,0.169,1.014,0.049,1.535-0.343c-0.016-0.248-0.049-0.47-0.101-0.665c-0.062-0.233-0.146-0.426-0.249-0.572
						c-0.095-0.139-0.206-0.238-0.338-0.307C84.383,192.71,84.232,192.676,84.055,192.676z"/>
				</g>
				<g>
					<path fill="#003366" d="M92.891,195.345c-0.527,0.461-1.123,0.69-1.789,0.69c-0.364,0-0.696-0.054-0.999-0.161
						c-0.304-0.107-0.563-0.26-0.781-0.455c-0.217-0.199-0.387-0.435-0.509-0.711c-0.122-0.277-0.183-0.584-0.183-0.918
						c0-0.33,0.06-0.642,0.18-0.934c0.12-0.291,0.294-0.543,0.523-0.762s0.511-0.393,0.846-0.52
						c0.335-0.126,0.716-0.189,1.143-0.189c0.47,0,0.886,0.074,1.248,0.224c0.36,0.147,0.664,0.367,0.909,0.651
						s0.429,0.636,0.553,1.059c0.123,0.418,0.186,0.903,0.186,1.444c0,1.258-0.247,2.206-0.742,2.844
						c-0.495,0.64-1.244,0.959-2.249,0.959c-0.34,0-0.653-0.037-0.939-0.111c-0.288-0.076-0.539-0.187-0.757-0.333
						c-0.218-0.147-0.395-0.331-0.533-0.554c-0.137-0.219-0.228-0.476-0.272-0.769h1.323c0.1,0.597,0.5,0.896,1.202,0.896
						c0.236,0,0.449-0.052,0.641-0.158c0.191-0.103,0.355-0.256,0.493-0.455c0.137-0.198,0.25-0.444,0.335-0.738
						C92.806,196.053,92.863,195.72,92.891,195.345z M92.908,194.512c-0.008-0.361-0.048-0.682-0.122-0.963
						c-0.074-0.278-0.178-0.516-0.311-0.707c-0.135-0.191-0.297-0.336-0.488-0.436c-0.191-0.099-0.409-0.148-0.653-0.148
						c-0.227,0-0.426,0.041-0.595,0.121c-0.17,0.079-0.312,0.187-0.427,0.322c-0.116,0.134-0.203,0.29-0.261,0.467
						c-0.058,0.176-0.087,0.361-0.087,0.556c0,0.215,0.034,0.41,0.103,0.587c0.068,0.176,0.162,0.326,0.284,0.451
						c0.122,0.124,0.268,0.221,0.44,0.289c0.171,0.068,0.361,0.103,0.568,0.103C91.894,195.153,92.41,194.939,92.908,194.512z"/>
					<path fill="#003366" d="M91.228,198.985c-0.374,0-0.726-0.042-1.046-0.126c-0.331-0.087-0.629-0.22-0.885-0.392
						c-0.265-0.179-0.484-0.406-0.653-0.677c-0.167-0.27-0.279-0.581-0.331-0.929l-0.072-0.481h2.131
						c-0.141-0.029-0.278-0.067-0.41-0.114c-0.353-0.124-0.663-0.307-0.92-0.537c-0.261-0.237-0.466-0.524-0.612-0.853
						c-0.145-0.331-0.218-0.695-0.218-1.087c0-0.387,0.071-0.753,0.212-1.092c0.14-0.343,0.349-0.647,0.621-0.907
						c0.268-0.255,0.6-0.459,0.987-0.607c0.804-0.302,1.911-0.285,2.698,0.039c0.421,0.174,0.781,0.432,1.068,0.767
						c0.283,0.326,0.497,0.735,0.637,1.213c0.134,0.456,0.202,0.981,0.202,1.562c0,1.347-0.279,2.39-0.829,3.101
						C93.232,198.607,92.364,198.985,91.228,198.985z M89.282,197.217c0.022,0.046,0.046,0.09,0.072,0.133
						c0.106,0.169,0.245,0.314,0.412,0.427c0.177,0.118,0.388,0.211,0.628,0.274c0.251,0.064,0.531,0.099,0.833,0.099
						c0.875,0,1.502-0.261,1.917-0.795c0.434-0.563,0.654-1.434,0.654-2.591c0-0.5-0.057-0.947-0.168-1.327
						c-0.106-0.361-0.264-0.667-0.469-0.903c-0.204-0.237-0.45-0.412-0.752-0.537c-0.591-0.244-1.479-0.257-2.082-0.029
						c-0.28,0.105-0.518,0.25-0.705,0.43c-0.189,0.181-0.328,0.383-0.425,0.617c-0.099,0.24-0.149,0.501-0.149,0.776
						c0,0.278,0.048,0.525,0.147,0.75c0.099,0.224,0.231,0.411,0.407,0.569c0.175,0.156,0.39,0.282,0.639,0.371
						c0.408,0.144,0.931,0.186,1.388,0.075c-0.349,0.039-0.7,0.002-0.997-0.117c-0.224-0.089-0.42-0.219-0.583-0.385
						c-0.162-0.167-0.288-0.366-0.375-0.594c-0.086-0.221-0.13-0.471-0.13-0.736c0-0.236,0.036-0.467,0.107-0.685
						c0.077-0.233,0.192-0.438,0.342-0.611c0.151-0.179,0.343-0.323,0.566-0.427c0.469-0.225,1.139-0.216,1.618,0.035
						c0.25,0.129,0.464,0.319,0.637,0.565c0.162,0.231,0.287,0.516,0.373,0.842c0.075,0.284,0.121,0.607,0.134,0.963l0.06-0.052
						l-0.076,1.021c-0.03,0.404-0.093,0.771-0.186,1.087c-0.098,0.334-0.23,0.623-0.393,0.858c-0.176,0.255-0.392,0.454-0.64,0.586
						c-0.25,0.138-0.534,0.208-0.839,0.208c-0.949,0-1.351-0.468-1.52-0.897H89.282z M90.405,196.387l0.057,0.345
						c0.047,0.283,0.176,0.546,0.789,0.546c0.166,0,0.31-0.034,0.439-0.104c0.132-0.071,0.249-0.181,0.35-0.326
						c0.111-0.163,0.205-0.371,0.278-0.619c0.003-0.01,0.006-0.018,0.008-0.027C91.729,196.464,91.024,196.51,90.405,196.387z
						 M91.335,192.676c-0.162,0-0.302,0.027-0.416,0.081c-0.116,0.054-0.21,0.124-0.288,0.215c-0.081,0.094-0.141,0.202-0.182,0.326
						c-0.042,0.134-0.065,0.277-0.065,0.426c0,0.163,0.025,0.308,0.073,0.435c0.049,0.126,0.112,0.229,0.195,0.313
						c0.079,0.079,0.176,0.144,0.294,0.191c0.423,0.169,1.015,0.049,1.535-0.343c-0.016-0.248-0.049-0.47-0.101-0.665
						c-0.061-0.231-0.145-0.424-0.249-0.574c-0.096-0.137-0.206-0.236-0.337-0.305C91.664,192.71,91.513,192.676,91.335,192.676z"/>
				</g>
				<g>
					<path fill="#003366" d="M97.796,198.45h-1.395v-1.164h1.395V198.45z"/>
					<path fill="#003366" d="M98.215,198.869h-2.232v-2.001h2.232V198.869z M96.82,198.032h0.557v-0.327H96.82V198.032z"/>
				</g>
			</g>
			<g>
				<ellipse fill="#003366" cx="79.07" cy="212.188" rx="0.837" ry="1.026"/>
				<ellipse fill="#003366" cx="85.875" cy="212.188" rx="0.838" ry="1.026"/>
			</g>
		</g>
	</g>
</g>
</svg>
