<?xml version="1.0" encoding="UTF-8" standalone="no"?>
<!-- Created with Inkscape (http://www.inkscape.org/) -->

<svg
   xmlns:dc="http://purl.org/dc/elements/1.1/"
   xmlns:cc="http://creativecommons.org/ns#"
   xmlns:rdf="http://www.w3.org/1999/02/22-rdf-syntax-ns#"
   xmlns:svg="http://www.w3.org/2000/svg"
   xmlns="http://www.w3.org/2000/svg"
   xmlns:sodipodi="http://sodipodi.sourceforge.net/DTD/sodipodi-0.dtd"
   xmlns:inkscape="http://www.inkscape.org/namespaces/inkscape"
   height="496.06299"
   id="svg559"
   version="1.0"
   width="992.12598"
   x="0.0000000"
   y="0.0000000"
   sodipodi:version="0.32"
   inkscape:version="0.48.1 "
   sodipodi:docname="ZZ1.svg"
   inkscape:output_extension="org.inkscape.output.svg.inkscape">
  <sodipodi:namedview
     inkscape:window-height="1004"
     inkscape:window-width="1280"
     inkscape:pageshadow="2"
     inkscape:pageopacity="0.0"
     borderopacity="1.0"
     bordercolor="#666666"
     pagecolor="#ffffff"
     id="base"
     inkscape:zoom="0.67027778"
     inkscape:cx="359.49753"
     inkscape:cy="168.35078"
     inkscape:window-x="-8"
     inkscape:window-y="-8"
     inkscape:current-layer="g2812"
     showgrid="false"
     inkscape:window-maximized="1" />
  <metadata
     id="metadata3">
    <rdf:RDF>
      <cc:Work
         rdf:about="">
        <dc:title />
        <dc:description />
        <dc:subject>
          <rdf:Bag>
            <rdf:li>micronesia</rdf:li>
            <rdf:li />
            <rdf:li>oceania</rdf:li>
            <rdf:li>flag</rdf:li>
            <rdf:li>sign</rdf:li>
          </rdf:Bag>
        </dc:subject>
        <dc:publisher>
          <cc:Agent
             rdf:about="http://www.openclipart.org">
            <dc:title />
          </cc:Agent>
        </dc:publisher>
        <dc:creator>
          <cc:Agent>
            <dc:title />
          </cc:Agent>
        </dc:creator>
        <dc:rights>
          <cc:Agent>
            <dc:title />
          </cc:Agent>
        </dc:rights>
        <dc:date />
        <dc:format>image/svg+xml</dc:format>
        <dc:type
           rdf:resource="http://purl.org/dc/dcmitype/StillImage" />
        <cc:license
           rdf:resource="" />
        <dc:language>en</dc:language>
      </cc:Work>
    </rdf:RDF>
  </metadata>
  <defs
     id="defs561" />
  <rect
     height="496.06320"
     id="rect828"
     style="font-size:12;fill:#0039ad;fill-opacity:1;fill-rule:evenodd;stroke-width:1"
     width="992.12598"
     x="0.0000000"
     y="3.3050790e-05" />
  <g
     id="g2812"
     transform="translate(0,-42.203038)">
    <path
       d="M 522.2306,103.73821 C 522.2306,103.73821 543.5187,105.07799 544.56088,117.28523 C 545.60286,129.49245 539.49935,136.93584 539.49935,136.93584 C 539.49935,136.93584 542.17898,163.28544 521.33739,171.02672 C 499.0071,173.70645 464.0229,171.62223 464.0229,171.62223 C 464.0229,171.62223 453.75087,174.15315 449.58256,152.86483 C 445.41424,131.57653 444.22329,116.54092 444.22329,116.54092 C 444.22329,116.54092 446.30745,104.63131 461.34327,103.887 C 476.37889,103.14272 522.08163,104.03595 522.2306,103.73821 z "
       id="path564"
       style="font-size:12px;fill:#bdbdad;fill-rule:evenodd;stroke:#000000;stroke-width:1.91964602000000010;fill-opacity:1" />
    <path
       d="M 539.35039,136.78699 C 539.35039,136.78699 527.8876,151.07829 529.07855,156.88417"
       id="path565"
       style="font-size:12px;fill:none;fill-rule:evenodd;stroke:#000000;stroke-width:1.91964602;stroke-linecap:round" />
    <path
       d="M 524.01702,170.28243 C 526.84562,172.66427 529.52506,175.34385 530.12054,184.12719 C 530.71601,192.91053 531.31148,201.69375 531.31148,201.69375 L 546.19834,335.67544 L 559.29877,432.58896 L 560.19198,447.62478 C 560.19198,447.62478 557.06584,458.64106 548.2825,459.53427 C 541.88125,472.93244 507.19497,476.80321 503.7709,476.65425 C 500.64475,476.50547 489.62829,471.89045 482.9293,472.48593 C 476.23012,473.08121 464.61837,477.54727 459.40788,476.80302 C 454.19758,476.05877 442.43686,472.03923 440.35276,463.55381 C 425.76363,458.93879 423.38173,447.77356 423.38173,447.77356 L 439.16183,335.67544 L 454.49531,193.95257 C 454.49531,193.95257 456.28174,175.04624 463.87394,172.21772 C 471.76406,171.47342 512.55405,172.96201 524.01702,170.28243 z "
       id="path566"
       style="font-size:12px;fill:#bdbdad;fill-rule:evenodd;stroke:#000000;stroke-width:1.91964602000000010;fill-opacity:1" />
    <path
       d="M 443.62781,364.25821 L 440.50163,463.40485"
       id="path567"
       style="font-size:12px;fill:none;fill-rule:evenodd;stroke:#000000;stroke-width:1.91964602" />
    <path
       d="M 539.94586,377.35864 L 548.7292,459.08757"
       id="path568"
       style="font-size:12px;fill:none;fill-rule:evenodd;stroke:#000000;stroke-width:1.91964602" />
  </g>
  <path
     sodipodi:type="star"
     style="fill:#ffffff;fill-opacity:1;fill-rule:nonzero;stroke:none;stroke-width:1.49364590999999990;stroke-linecap:square;stroke-linejoin:round;stroke-miterlimit:4;stroke-dasharray:none;stroke-dashoffset:0.99999998000000001;stroke-opacity:1"
     id="path2860"
     sodipodi:sides="5"
     sodipodi:cx="99.958557"
     sodipodi:cy="224.53377"
     sodipodi:r1="98.748795"
     sodipodi:r2="37.722038"
     sodipodi:arg1="-1.5707963"
     sodipodi:arg2="-0.9424778"
     inkscape:flatsided="false"
     inkscape:rounded="0"
     inkscape:randomized="0"
     d="M 99.95856,125.78497 L 122.13101,194.016 L 193.87424,194.01871 L 135.83435,236.19052 L 158.00164,304.42322 L 99.958557,262.25581 L 41.91547,304.42322 L 64.082767,236.19052 L 6.0428734,194.01871 L 77.786099,194.016 L 99.95856,125.78497 z "
     transform="matrix(1.338914,0,0,1.339097,360.43011,-54.894235)" />
</svg>
