<?xml version="1.0" encoding="UTF-8"?>
<svg width="900" height="600" version="1.1" viewBox="0 0 238.12 158.75" xmlns="http://www.w3.org/2000/svg" xmlns:osb="http://www.openswatchbook.org/uri/2009/osb"><g transform="translate(0 -138.25)"><rect y="138.25" width="238.12" height="158.75" fill="#371" fill-rule="evenodd"/><rect x="-8.8818e-16" y="138.25" width="95.25" height="79.375" fill="#27c" fill-rule="evenodd" opacity=".98"/><path transform="matrix(.26458 0 0 .26458 0 138.25)" d="m186.43 8.9316-6.2188 16.971-18.062-0.66992 14.221 11.158-6.2188 16.971 15.006-10.074 14.219 11.16-4.9453-17.387 15.006-10.076-18.061-0.66992zm135.53 13.545-2.9258 3.5703-10.484 12.799-19.709-7.6953 11.422 17.809-13.408 16.369 20.469-5.3613 11.424 17.811 1.2266-21.121 20.467-5.3613-19.709-7.6934zm-254.85 4.625-9.043 16.654-18.633-3.4512 13.047 13.746-9.043 16.656 17.105-8.1602 13.047 13.746-2.4766-18.789 17.107-8.1621-18.635-3.4512zm112.45 34.951-7.9922 13.75-15.547-3.3516 10.609 11.85-7.9922 13.75 14.547-6.4277 10.609 11.852-1.6172-15.822 14.547-6.4277-15.547-3.3516zm-61.33 20.594-2.2012 4.0586-6.1934 11.416-17.311-3.1992 12.125 12.764-8.3945 15.477 15.887-7.5859 12.125 12.766-2.3066-17.453 15.889-7.5859-17.314-3.2031zm151.57 1.8789-2.0938 4.1152-6.8945 13.555-19.58-3.0859 14.027 14.008-8.9863 17.672 17.656-9.0137 14.029 14.008-3.1172-19.58 17.656-9.0137-19.58-3.0859zm-82.062 31.838-2.8633 3.623-8.4883 10.74-17.17-6.3594 10.15 15.234-11.35 14.361 17.625-4.9453 10.15 15.236 0.74414-18.293 17.625-4.9453-17.166-6.3594zm-106.46 27.527-2.748 3.709-8.9512 12.084-18.635-6.2441 11.406 16.004-11.699 15.795 18.748-5.9023 11.406 16.008 0.18164-19.654 18.746-5.9023-18.637-6.2441zm174.05 26.537-2.8476 3.6328-9.709 12.379-19.107-6.9922 11.346 16.889-12.557 16.012 19.572-5.5742 11.348 16.891 0.7461-20.334 23.57-1.5742-23.107-10.992zm-105.64 13.947-3.2402 3.2891-9.7031 9.8516-16.494-8.25 8.4941 16.371-12.941 13.139 18.193-3.0234 8.4961 16.371 2.748-18.238 18.193-3.0234-16.494-8.248zm154.57 28.223-1.9883 4.166-6.1992 12.982-18.838-2.4883 13.779 13.086-8.1894 17.146 16.705-9.0605 13.777 13.086-3.4551-18.686 16.703-9.0606-18.838-2.4863zm-97.182 9.1719-2.7168 3.7324-9.5 13.051-19.734-6.4336 12.186 16.805-12.217 16.781 19.746-6.3945 12.186 16.801 0.0176-20.756 19.748-6.3965-19.732-6.4316zm-128.08 9.627-3.6055 2.8828-12.422 9.9277-17.135-11.287 7.2305 19.201-16.027 12.809 20.494-0.94141 7.2285 19.201 5.4395-19.783 20.494-0.94141-17.137-11.285z" fill="#fff"/></g></svg>
