<?xml version="1.0" encoding="UTF-8" standalone="no"?>
<!-- Created with Inkscape (http://www.inkscape.org/) -->
<svg
   xmlns:dc="http://purl.org/dc/elements/1.1/"
   xmlns:cc="http://web.resource.org/cc/"
   xmlns:rdf="http://www.w3.org/1999/02/22-rdf-syntax-ns#"
   xmlns:svg="http://www.w3.org/2000/svg"
   xmlns="http://www.w3.org/2000/svg"
   xmlns:xlink="http://www.w3.org/1999/xlink"
   xmlns:sodipodi="http://sodipodi.sourceforge.net/DTD/sodipodi-0.dtd"
   xmlns:inkscape="http://www.inkscape.org/namespaces/inkscape"
   width="900"
   height="600"
   id="svg2"
   sodipodi:version="0.32"
   inkscape:version="0.45.1"
   version="1.0">
  <defs
     id="defs4">
    <polygon
       id="point"
       points="-0.16245985,0 0,0.5 0.16245985,0 -0.16245985,0 "
       transform="scale(6.16e-2,6.16e-2)"
       style="fill:#ffffff" />
    <g
       id="g2523">
      <use
         xlink:href="#point"
         transform="matrix(-0.309017,-0.9510565,0.9510565,-0.309017,0,0)"
         id="use2278"
         x="0"
         y="0"
         width="1235"
         height="650" />
      <use
         xlink:href="#point"
         transform="matrix(0.809017,-0.5877853,0.5877853,0.809017,0,0)"
         id="use2280"
         x="0"
         y="0"
         width="1235"
         height="650" />
      <use
         xlink:href="#point"
         transform="matrix(0.809017,0.5877853,-0.5877853,0.809017,0,0)"
         id="use2282"
         x="0"
         y="0"
         width="1235"
         height="650" />
      <use
         xlink:href="#point"
         transform="matrix(-0.309017,0.9510565,-0.9510565,-0.309017,0,0)"
         id="use2284"
         x="0"
         y="0"
         width="1235"
         height="650" />
      <use
         xlink:href="#point"
         transform="scale(-1,-1)"
         id="use2286"
         x="0"
         y="0"
         width="1235"
         height="650" />
    </g>
    <g
       id="row5">
      <use
         xlink:href="#star"
         x="-0.252"
         id="use2289"
         y="0"
         width="1235"
         height="650" />
      <use
         xlink:href="#star"
         x="-0.126"
         id="use2291"
         y="0"
         width="1235"
         height="650" />
      <use
         xlink:href="#star"
         id="use2293"
         x="0"
         y="0"
         width="1235"
         height="650" />
      <use
         xlink:href="#star"
         x="0.126"
         id="use2295"
         y="0"
         width="1235"
         height="650" />
      <use
         xlink:href="#star"
         x="0.252"
         id="use2297"
         y="0"
         width="1235"
         height="650" />
    </g>
    <g
       id="row6">
      <use
         xlink:href="#row5"
         x="-0.063000001"
         id="use2300"
         y="0"
         width="1235"
         height="650" />
      <use
         xlink:href="#star"
         x="0.315"
         id="use2302"
         y="0"
         width="1235"
         height="650" />
    </g>
    <g
       id="rowx4">
      <use
         xlink:href="#row6"
         id="use2305"
         x="0"
         y="0"
         width="1235"
         height="650" />
      <use
         xlink:href="#row5"
         y="0.054000001"
         id="use2307"
         x="0"
         width="1235"
         height="650" />
      <use
         xlink:href="#row6"
         y="0.108"
         id="use2309"
         x="0"
         width="1235"
         height="650" />
      <use
         xlink:href="#row5"
         y="0.162"
         id="use2311"
         x="0"
         width="1235"
         height="650" />
    </g>
    <g
       id="g2544">
      <use
         xlink:href="#rowx4"
         y="-0.21600001"
         id="use2314"
         x="0"
         width="1235"
         height="650" />
      <use
         xlink:href="#rowx4"
         id="use2316"
         x="0"
         y="0"
         width="1235"
         height="650" />
      <use
         xlink:href="#row6"
         y="0.21600001"
         id="use2318"
         x="0"
         width="1235"
         height="650" />
    </g>
    <rect
       id="rect2549"
       width="1235"
       height="50"
       x="0"
       y="0"
       style="fill:#bf0a30" />
    <rect
       fill="#bf0a30"
       height="50"
       width="1235"
       id="stripe" />
    <g
       id="union">
      <use
         id="use44"
         y="-0.216"
         xlink:href="#x4" />
      <use
         id="use46"
         xlink:href="#x4" />
      <use
         id="use48"
         y="0.216"
         xlink:href="#s6" />
    </g>
    <g
       id="x4">
      <use
         id="use35"
         xlink:href="#s6" />
      <use
         id="use37"
         y="0.054"
         xlink:href="#s5" />
      <use
         id="use39"
         y="0.108"
         xlink:href="#s6" />
      <use
         id="use41"
         y="0.162"
         xlink:href="#s5" />
    </g>
    <g
       id="s6">
      <use
         id="use30"
         x="-0.063"
         xlink:href="#s5" />
      <use
         id="use32"
         x="0.315"
         xlink:href="#star" />
    </g>
    <g
       id="s5">
      <use
         id="use19"
         x="-0.252"
         xlink:href="#star" />
      <use
         id="use21"
         x="-0.126"
         xlink:href="#star" />
      <use
         id="use23"
         xlink:href="#star" />
      <use
         id="use25"
         x="0.126"
         xlink:href="#star" />
      <use
         id="use27"
         x="0.252"
         xlink:href="#star" />
    </g>
    <g
       id="star">
      <use
         id="use8"
         transform="rotate(-144)"
         xlink:href="#pt" />
      <use
         id="use10"
         transform="rotate(-72)"
         xlink:href="#pt" />
      <use
         id="use12"
         xlink:href="#pt" />
      <use
         id="use14"
         transform="rotate(72)"
         xlink:href="#pt" />
      <use
         id="use16"
         transform="rotate(144)"
         xlink:href="#pt" />
    </g>
    <polygon
       fill="white"
       transform="scale(0.0616)"
       points="-0.1624598481164531,0 0,-0.5 0.1624598481164531,0"
       id="pt" />
    <polygon
       id="polygon2328"
       points="-0.1624598481164531,0 0,-0.5 0.1624598481164531,0"
       transform="scale(0.0616)"
       fill="white" />
    <g
       id="g2330">
      <use
         xlink:href="#pt"
         transform="rotate(-144)"
         id="use2262" />
      <use
         xlink:href="#pt"
         transform="rotate(-72)"
         id="use2264" />
      <use
         xlink:href="#pt"
         id="use2266" />
      <use
         xlink:href="#pt"
         transform="rotate(72)"
         id="use2268" />
      <use
         xlink:href="#pt"
         transform="rotate(144)"
         id="use2270" />
    </g>
    <g
       id="g2580">
      <use
         xlink:href="#star"
         x="-0.252"
         id="use2273" />
      <use
         xlink:href="#star"
         x="-0.126"
         id="use2275" />
      <use
         xlink:href="#star"
         id="use2277" />
      <use
         xlink:href="#star"
         x="0.126"
         id="use2279" />
      <use
         xlink:href="#star"
         x="0.252"
         id="use2281" />
    </g>
    <g
       id="g2344">
      <use
         xlink:href="#s5"
         x="-0.063"
         id="use2346" />
      <use
         xlink:href="#star"
         x="0.315"
         id="use2348" />
    </g>
    <g
       id="g2350">
      <use
         xlink:href="#s6"
         id="use2352" />
      <use
         xlink:href="#s5"
         y="0.054"
         id="use2354" />
      <use
         xlink:href="#s6"
         y="0.108"
         id="use2356" />
      <use
         xlink:href="#s5"
         y="0.162"
         id="use2358" />
    </g>
    <g
       id="g2360">
      <use
         xlink:href="#x4"
         y="-0.216"
         id="use2298" />
      <use
         xlink:href="#x4"
         id="use2363" />
      <use
         xlink:href="#s6"
         y="0.216"
         id="use2365" />
    </g>
    <rect
       id="rect2367"
       width="1235"
       height="50"
       fill="#bf0a30" />
    <polygon
       id="polygon2563"
       points="-0.1624598481164531,0 0,-0.5 0.1624598481164531,0"
       transform="scale(0.0616)"
       fill="white" />
    <g
       id="g2551">
      <use
         xlink:href="#pt"
         transform="rotate(-144)"
         id="use2553" />
      <use
         xlink:href="#pt"
         transform="rotate(-72)"
         id="use2555" />
      <use
         xlink:href="#pt"
         id="use2557" />
      <use
         xlink:href="#pt"
         transform="rotate(72)"
         id="use2559" />
      <use
         xlink:href="#pt"
         transform="rotate(144)"
         id="use2561" />
    </g>
    <g
       id="g2539">
      <use
         xlink:href="#star"
         x="-0.252"
         id="use2541" />
      <use
         xlink:href="#star"
         x="-0.126"
         id="use2543" />
      <use
         xlink:href="#star"
         id="use2545" />
      <use
         xlink:href="#star"
         x="0.126"
         id="use2547" />
      <use
         xlink:href="#star"
         x="0.252"
         id="use2549" />
    </g>
    <g
       id="g2532">
      <use
         xlink:href="#s5"
         x="-0.063"
         id="use2534" />
      <use
         xlink:href="#star"
         x="0.315"
         id="use2536" />
    </g>
    <g
       id="g2522">
      <use
         xlink:href="#s6"
         id="use2524" />
      <use
         xlink:href="#s5"
         y="0.054"
         id="use2526" />
      <use
         xlink:href="#s6"
         y="0.108"
         id="use2528" />
      <use
         xlink:href="#s5"
         y="0.162"
         id="use2530" />
    </g>
    <g
       id="g2514">
      <use
         xlink:href="#x4"
         y="-0.216"
         id="use2516" />
      <use
         xlink:href="#x4"
         id="use2518" />
      <use
         xlink:href="#s6"
         y="0.216"
         id="use2520" />
    </g>
    <rect
       id="rect2512"
       width="1235"
       height="50"
       fill="#bf0a30" />
    <rect
       style="fill:#bf0a30"
       y="0"
       x="0"
       height="50"
       width="1235"
       id="rect2510" />
    <g
       id="g2502">
      <use
         height="650"
         width="1235"
         x="0"
         id="use2504"
         y="-0.21600001"
         xlink:href="#rowx4" />
      <use
         height="650"
         width="1235"
         y="0"
         x="0"
         id="use2506"
         xlink:href="#rowx4" />
      <use
         height="650"
         width="1235"
         x="0"
         id="use2508"
         y="0.21600001"
         xlink:href="#row6" />
    </g>
    <g
       id="g2492">
      <use
         height="650"
         width="1235"
         y="0"
         x="0"
         id="use2494"
         xlink:href="#row6" />
      <use
         height="650"
         width="1235"
         x="0"
         id="use2496"
         y="0.054000001"
         xlink:href="#row5" />
      <use
         height="650"
         width="1235"
         x="0"
         id="use2498"
         y="0.108"
         xlink:href="#row6" />
      <use
         height="650"
         width="1235"
         x="0"
         id="use2500"
         y="0.162"
         xlink:href="#row5" />
    </g>
    <g
       id="g2486">
      <use
         height="650"
         width="1235"
         y="0"
         id="use2488"
         x="-0.063000001"
         xlink:href="#row5" />
      <use
         height="650"
         width="1235"
         y="0"
         id="use2490"
         x="0.315"
         xlink:href="#star" />
    </g>
    <g
       id="g2474">
      <use
         height="650"
         width="1235"
         y="0"
         id="use2476"
         x="-0.252"
         xlink:href="#star" />
      <use
         height="650"
         width="1235"
         y="0"
         id="use2478"
         x="-0.126"
         xlink:href="#star" />
      <use
         height="650"
         width="1235"
         y="0"
         x="0"
         id="use2480"
         xlink:href="#star" />
      <use
         height="650"
         width="1235"
         y="0"
         id="use2482"
         x="0.126"
         xlink:href="#star" />
      <use
         height="650"
         width="1235"
         y="0"
         id="use2484"
         x="0.252"
         xlink:href="#star" />
    </g>
    <g
       id="g2462">
      <use
         height="650"
         width="1235"
         y="0"
         x="0"
         id="use2464"
         transform="matrix(-0.309017,-0.9510565,0.9510565,-0.309017,0,0)"
         xlink:href="#point" />
      <use
         height="650"
         width="1235"
         y="0"
         x="0"
         id="use2466"
         transform="matrix(0.809017,-0.5877853,0.5877853,0.809017,0,0)"
         xlink:href="#point" />
      <use
         height="650"
         width="1235"
         y="0"
         x="0"
         id="use2468"
         transform="matrix(0.809017,0.5877853,-0.5877853,0.809017,0,0)"
         xlink:href="#point" />
      <use
         height="650"
         width="1235"
         y="0"
         x="0"
         id="use2470"
         transform="matrix(-0.309017,0.9510565,-0.9510565,-0.309017,0,0)"
         xlink:href="#point" />
      <use
         height="650"
         width="1235"
         y="0"
         x="0"
         id="use2472"
         transform="scale(-1,-1)"
         xlink:href="#point" />
    </g>
    <polygon
       style="fill:#ffffff"
       transform="scale(6.16e-2,6.16e-2)"
       points="-0.16245985,0 0,0.5 0.16245985,0 -0.16245985,0 "
       id="polygon2460" />
  </defs>
  <sodipodi:namedview
     id="base"
     pagecolor="#ffffff"
     bordercolor="#666666"
     borderopacity="1.0"
     gridtolerance="10000"
     guidetolerance="10"
     objecttolerance="10"
     inkscape:pageopacity="0.0"
     inkscape:pageshadow="2"
     inkscape:zoom="0.40204442"
     inkscape:cx="535.52281"
     inkscape:cy="425.15924"
     inkscape:document-units="px"
     inkscape:current-layer="layer1"
     width="900px"
     height="600px"
     showgrid="true"
     showguides="true"
     inkscape:guide-bbox="true"
     inkscape:window-width="1131"
     inkscape:window-height="698"
     inkscape:window-x="99"
     inkscape:window-y="6" />
  <metadata
     id="metadata7">
    <rdf:RDF>
      <cc:Work
         rdf:about="">
        <dc:format>image/svg+xml</dc:format>
        <dc:type
           rdf:resource="http://purl.org/dc/dcmitype/StillImage" />
        <dc:creator>
          <cc:Agent>
            <dc:title>Gov. John Sparks and Col. Harry Day</dc:title>
          </cc:Agent>
        </dc:creator>
        <dc:date>1905</dc:date>
        <dc:title>Flag of Nevada (1905)</dc:title>
        <dc:contributor>
          <cc:Agent>
            <dc:title>Devin Cook
devincook.com</dc:title>
          </cc:Agent>
        </dc:contributor>
        <dc:publisher>
          <cc:Agent>
            <dc:title>Devin Cook</dc:title>
          </cc:Agent>
        </dc:publisher>
        <cc:license
           rdf:resource="h" />
        <dc:description>I set the stars at 2/30th of the hoist. The bounding box for the 9-star gold row is 8/15th the fly.</dc:description>
      </cc:Work>
      <cc:License
         rdf:about="http://web.resource.org/cc/PublicDomain">
        <cc:permits
           rdf:resource="http://web.resource.org/cc/Reproduction" />
        <cc:permits
           rdf:resource="http://web.resource.org/cc/Distribution" />
        <cc:permits
           rdf:resource="http://web.resource.org/cc/DerivativeWorks" />
      </cc:License>
    </rdf:RDF>
  </metadata>
  <g
     inkscape:label="Layer 1"
     inkscape:groupmode="layer"
     id="layer1">
    <path
       style="fill:#000000"
       d="M 746.1987,540.41718 L 747.29,540.69284 C 747.0612,541.58919 746.6496,542.2727 746.0553,542.74338 C 745.4609,543.21406 744.7343,543.4494 743.8756,543.4494 C 742.9868,543.4494 742.264,543.26844 741.7071,542.90653 C 741.1503,542.5446 740.7265,542.02049 740.4359,541.33416 C 740.1453,540.64784 740,539.91088 740,539.12329 C 740,538.26445 740.164,537.5153 740.4921,536.87585 C 740.8203,536.23641 741.2871,535.75073 741.8928,535.41881 C 742.4984,535.0869 743.165,534.92095 743.8924,534.92094 C 744.7174,534.92095 745.4112,535.13097 745.9737,535.55101 C 746.5362,535.97107 746.9281,536.56175 747.1493,537.32309 L 746.0749,537.57624 C 745.8837,536.97618 745.6062,536.53926 745.2424,536.26546 C 744.8787,535.9917 744.4212,535.85481 743.8699,535.8548 C 743.2362,535.85481 742.7065,536.0067 742.2809,536.31047 C 741.8553,536.61426 741.5562,537.02213 741.3837,537.53404 C 741.2112,538.04598 741.125,538.57386 741.125,539.11766 C 741.125,539.81899 741.2271,540.43125 741.4315,540.95443 C 741.6359,541.47762 741.9537,541.86859 742.3849,542.12737 C 742.8162,542.38616 743.2831,542.51554 743.7856,542.51554 C 744.3968,542.51554 744.9143,542.33928 745.3381,541.98673 C 745.7618,541.63419 746.0487,541.11101 746.1987,540.41718 L 746.1987,540.41718 z M 748.4993,543.30875 L 748.4993,537.33434 L 749.4106,537.33434 L 749.4106,538.24006 C 749.6431,537.81627 749.8578,537.53687 750.0546,537.40185 C 750.2515,537.26684 750.4681,537.19933 750.7043,537.19932 C 751.0456,537.19933 751.3924,537.30809 751.7449,537.52561 L 751.3962,538.46509 C 751.1487,538.31883 750.9012,538.2457 750.6537,538.24569 C 750.4324,538.2457 750.2337,538.31227 750.0574,538.4454 C 749.8812,538.57855 749.7556,538.76325 749.6806,538.99952 C 749.5681,539.35956 749.5118,539.75336 749.5118,540.18091 L 749.5118,543.30875 L 748.4993,543.30875 z M 756.4474,541.38479 L 757.4937,541.51418 C 757.3287,542.1255 757.0231,542.59993 756.5768,542.93746 C 756.1306,543.27501 755.5606,543.44377 754.8668,543.44377 C 753.9931,543.44377 753.3003,543.17467 752.7884,542.6365 C 752.2765,542.09831 752.0206,541.34354 752.0206,540.37218 C 752.0206,539.36707 752.2793,538.58698 752.7968,538.03192 C 753.3143,537.47686 753.9856,537.19933 754.8106,537.19932 C 755.6093,537.19933 756.2618,537.47123 756.7681,538.01504 C 757.2743,538.55885 757.5274,539.32394 757.5275,540.31029 C 757.5274,540.37031 757.5256,540.46032 757.5218,540.58032 L 753.0668,540.58032 C 753.1043,541.23665 753.2899,541.73921 753.6237,542.088 C 753.9574,542.43678 754.3737,542.61118 754.8724,542.61118 C 755.2437,542.61118 755.5606,542.51367 755.8231,542.31864 C 756.0856,542.12363 756.2937,541.81234 756.4474,541.38479 L 756.4474,541.38479 z M 753.1231,539.74774 L 756.4587,539.74774 C 756.4137,539.24518 756.2862,538.86827 756.0762,538.61698 C 755.7537,538.22694 755.3356,538.03192 754.8218,538.03192 C 754.3568,538.03192 753.9659,538.18756 753.649,538.49885 C 753.3321,538.81013 753.1568,539.22643 753.1231,539.74774 L 753.1231,539.74774 z M 762.6687,542.57179 C 762.2937,542.89059 761.9327,543.11561 761.5859,543.24687 C 761.239,543.37814 760.8668,543.44377 760.4693,543.44377 C 759.8131,543.44377 759.3087,543.28344 758.9562,542.96278 C 758.6037,542.64212 758.4274,542.23239 758.4274,541.73358 C 758.4274,541.44105 758.494,541.17383 758.6271,540.93193 C 758.7603,540.69003 758.9346,540.49595 759.1503,540.34967 C 759.3659,540.20341 759.6087,540.09278 759.8787,540.01777 C 760.0774,539.96526 760.3774,539.91463 760.7787,539.86587 C 761.5962,539.76837 762.1981,539.6521 762.5843,539.51708 C 762.5881,539.37832 762.5899,539.29019 762.59,539.25268 C 762.5899,538.84014 762.4943,538.54948 762.3031,538.38071 C 762.0443,538.15193 761.6599,538.03754 761.1499,538.03754 C 760.6737,538.03754 760.3221,538.121 760.0953,538.28788 C 759.8684,538.45478 759.7006,538.75013 759.5918,539.17392 L 758.6018,539.03891 C 758.6918,538.61511 758.84,538.27289 759.0462,538.01223 C 759.2524,537.75158 759.5506,537.55093 759.9406,537.41029 C 760.3306,537.26965 760.7824,537.19933 761.2962,537.19932 C 761.8062,537.19933 762.2206,537.25934 762.5393,537.37934 C 762.8581,537.49937 763.0924,537.65031 763.2424,537.83221 C 763.3924,538.01411 763.4974,538.24382 763.5574,538.52134 C 763.5912,538.69387 763.6081,539.00515 763.6081,539.4552 L 763.6081,540.80535 C 763.6081,541.74671 763.6296,542.34209 763.6728,542.59149 C 763.7159,542.84089 763.8012,543.07998 763.9287,543.30875 L 762.8712,543.30875 C 762.7662,543.09873 762.6987,542.85308 762.6687,542.57179 L 762.6687,542.57179 z M 762.5843,540.31029 C 762.2168,540.46032 761.6656,540.58783 760.9306,540.69284 C 760.5143,540.75285 760.2199,540.82036 760.0475,540.89536 C 759.8749,540.97037 759.7418,541.08007 759.6481,541.22446 C 759.5543,541.36886 759.5075,541.52919 759.5075,541.70545 C 759.5075,541.97548 759.6096,542.20051 759.814,542.38052 C 760.0184,542.56055 760.3174,542.65056 760.7112,542.65055 C 761.1012,542.65056 761.4481,542.56524 761.7518,542.39459 C 762.0556,542.22395 762.2787,541.99049 762.4212,541.6942 C 762.5299,541.46542 762.5843,541.12789 762.5843,540.68158 L 762.5843,540.31029 z M 767.3937,542.40303 L 767.54,543.2975 C 767.2549,543.35751 766.9999,543.38751 766.7749,543.38751 C 766.4074,543.38751 766.1224,543.32939 765.9199,543.21312 C 765.7175,543.09686 765.5749,542.94403 765.4924,542.75463 C 765.4099,542.56524 765.3687,542.16675 765.3687,541.55919 L 765.3687,538.12193 L 764.6262,538.12193 L 764.6262,537.33434 L 765.3687,537.33434 L 765.3687,535.8548 L 766.3756,535.24723 L 766.3756,537.33434 L 767.3937,537.33434 L 767.3937,538.12193 L 766.3756,538.12193 L 766.3756,541.61544 C 766.3756,541.90422 766.3934,542.08987 766.429,542.17238 C 766.4646,542.25489 766.5228,542.32052 766.6034,542.36928 C 766.684,542.41803 766.7993,542.44241 766.9493,542.44241 C 767.0618,542.44241 767.2099,542.42929 767.3937,542.40303 L 767.3937,542.40303 z M 772.4674,541.38479 L 773.5137,541.51418 C 773.3487,542.1255 773.0431,542.59993 772.5968,542.93746 C 772.1506,543.27501 771.5806,543.44377 770.8868,543.44377 C 770.0131,543.44377 769.3203,543.17467 768.8084,542.6365 C 768.2965,542.09831 768.0406,541.34354 768.0406,540.37218 C 768.0406,539.36707 768.2993,538.58698 768.8168,538.03192 C 769.3343,537.47686 770.0056,537.19933 770.8306,537.19932 C 771.6293,537.19933 772.2818,537.47123 772.7881,538.01504 C 773.2943,538.55885 773.5474,539.32394 773.5475,540.31029 C 773.5474,540.37031 773.5456,540.46032 773.5418,540.58032 L 769.0868,540.58032 C 769.1243,541.23665 769.3099,541.73921 769.6437,542.088 C 769.9774,542.43678 770.3937,542.61118 770.8924,542.61118 C 771.2637,542.61118 771.5806,542.51367 771.8431,542.31864 C 772.1056,542.12363 772.3137,541.81234 772.4674,541.38479 L 772.4674,541.38479 z M 769.1431,539.74774 L 772.4787,539.74774 C 772.4337,539.24518 772.3062,538.86827 772.0962,538.61698 C 771.7737,538.22694 771.3556,538.03192 770.8418,538.03192 C 770.3768,538.03192 769.9859,538.18756 769.669,538.49885 C 769.3521,538.81013 769.1768,539.22643 769.1431,539.74774 L 769.1431,539.74774 z M 778.6662,543.30875 L 778.6662,542.55493 C 778.2874,543.14748 777.7306,543.44377 776.9956,543.44377 C 776.5193,543.44377 776.0815,543.31251 775.6821,543.04998 C 775.2828,542.78744 774.9734,542.42085 774.754,541.95016 C 774.5346,541.47949 774.4249,540.93849 774.4249,540.32717 C 774.4249,539.73086 774.5243,539.18986 774.7231,538.70418 C 774.9218,538.21851 775.22,537.84627 775.6174,537.58749 C 776.0149,537.32872 776.4593,537.19933 776.9506,537.19932 C 777.3106,537.19933 777.6312,537.27528 777.9124,537.42717 C 778.1937,537.57905 778.4224,537.77689 778.5987,538.02067 L 778.5987,535.06159 L 779.6056,535.06159 L 779.6056,543.30875 L 778.6662,543.30875 z M 775.4656,540.32717 C 775.4656,541.09226 775.6268,541.6642 775.9493,542.04299 C 776.2718,542.42178 776.6524,542.61118 777.0912,542.61118 C 777.5337,542.61118 777.9096,542.43022 778.219,542.0683 C 778.5284,541.70639 778.6831,541.15414 778.6831,540.41155 C 778.6831,539.59396 778.5256,538.99391 778.2106,538.61135 C 777.8956,538.22882 777.5074,538.03754 777.0462,538.03754 C 776.5962,538.03754 776.2203,538.22132 775.9184,538.58886 C 775.6165,538.9564 775.4656,539.53584 775.4656,540.32717 L 775.4656,540.32717 z M 785.3318,543.30875 L 784.3924,543.30875 L 784.3924,535.06159 L 785.4049,535.06159 L 785.4049,538.00379 C 785.8324,537.46748 786.3781,537.19933 787.0418,537.19932 C 787.4093,537.19933 787.7571,537.2734 788.0853,537.42154 C 788.4134,537.56968 788.6834,537.77784 788.8953,538.04598 C 789.1071,538.31414 789.2731,538.63761 789.3931,539.0164 C 789.5131,539.39519 789.5731,539.80024 789.5731,540.23153 C 789.5731,541.2554 789.3199,542.04674 788.8137,542.60555 C 788.3074,543.16436 787.6999,543.44377 786.9912,543.44377 C 786.2862,543.44377 785.7331,543.14937 785.3318,542.56054 L 785.3318,543.30875 z M 785.3206,540.27654 C 785.3206,540.99287 785.4181,541.51043 785.6131,541.82922 C 785.9318,542.35053 786.3631,542.61118 786.9068,542.61118 C 787.3493,542.61118 787.7318,542.41896 788.0543,542.03455 C 788.3768,541.65013 788.5381,541.07726 788.5381,540.31592 C 788.5381,539.53584 788.3834,538.96015 788.074,538.58886 C 787.7646,538.21756 787.3906,538.03192 786.9518,538.03192 C 786.5093,538.03192 786.1268,538.22413 785.8043,538.60854 C 785.4818,538.99297 785.3206,539.54896 785.3206,540.27654 L 785.3206,540.27654 z M 790.7656,545.60964 L 790.6531,544.6589 C 790.8743,544.71891 791.0674,544.74891 791.2324,544.74891 C 791.4574,544.74891 791.6374,544.71141 791.7724,544.6364 C 791.9074,544.5614 792.0181,544.45638 792.1043,544.32137 C 792.1681,544.22011 792.2712,543.96883 792.4137,543.56753 C 792.4324,543.51128 792.4624,543.42877 792.5037,543.32001 L 790.2368,537.33434 L 791.3281,537.33434 L 792.5712,540.7941 C 792.7324,541.2329 792.8768,541.6942 793.0043,542.17801 C 793.1206,541.71295 793.2593,541.25916 793.4206,540.8166 L 794.6974,537.33434 L 795.71,537.33434 L 793.4374,543.41002 C 793.1937,544.06634 793.0043,544.51827 792.8693,544.76579 C 792.6893,545.09957 792.4831,545.3443 792.2506,545.49994 C 792.0181,545.65558 791.7406,545.7334 791.4181,545.7334 C 791.2231,545.7334 791.0056,545.69214 790.7656,545.60964 L 790.7656,545.60964 z M 799.8949,543.30875 L 799.8949,535.06159 L 802.7356,535.06159 C 803.3768,535.0616 803.8662,535.10097 804.2037,535.17972 C 804.6762,535.28849 805.0793,535.48539 805.4131,535.77041 C 805.8481,536.13796 806.1734,536.6077 806.389,537.17963 C 806.6046,537.75158 806.7124,538.40508 806.7124,539.14016 C 806.7124,539.76649 806.6393,540.32155 806.4931,540.80535 C 806.3468,541.28916 806.1593,541.68951 805.9306,542.00643 C 805.7018,542.32334 805.4515,542.57274 805.1796,542.75463 C 804.9077,542.93653 804.5796,543.07435 804.1953,543.16812 C 803.8109,543.26187 803.3693,543.30875 802.8706,543.30875 L 799.8949,543.30875 z M 800.9862,542.33552 L 802.7468,542.33552 C 803.2906,542.33552 803.7171,542.2849 804.0265,542.18363 C 804.3359,542.08237 804.5824,541.93985 804.7662,541.75608 C 805.0249,541.4973 805.2265,541.14945 805.3709,540.71253 C 805.5153,540.27561 805.5874,539.74586 805.5874,539.12329 C 805.5874,538.26069 805.4459,537.59782 805.1628,537.13463 C 804.8796,536.67146 804.5356,536.36111 804.1306,536.20359 C 803.8381,536.09108 803.3674,536.03483 802.7187,536.03482 L 800.9862,536.03482 L 800.9862,542.33552 z M 812.1799,541.38479 L 813.2262,541.51418 C 813.0612,542.1255 812.7556,542.59993 812.3093,542.93746 C 811.8631,543.27501 811.2931,543.44377 810.5993,543.44377 C 809.7256,543.44377 809.0328,543.17467 808.5209,542.6365 C 808.009,542.09831 807.7531,541.34354 807.7531,540.37218 C 807.7531,539.36707 808.0118,538.58698 808.5293,538.03192 C 809.0468,537.47686 809.7181,537.19933 810.5431,537.19932 C 811.3418,537.19933 811.9943,537.47123 812.5006,538.01504 C 813.0068,538.55885 813.2599,539.32394 813.2599,540.31029 C 813.2599,540.37031 813.2581,540.46032 813.2543,540.58032 L 808.7993,540.58032 C 808.8368,541.23665 809.0224,541.73921 809.3562,542.088 C 809.6899,542.43678 810.1062,542.61118 810.6049,542.61118 C 810.9762,542.61118 811.2931,542.51367 811.5556,542.31864 C 811.8181,542.12363 812.0262,541.81234 812.1799,541.38479 L 812.1799,541.38479 z M 808.8556,539.74774 L 812.1912,539.74774 C 812.1462,539.24518 812.0187,538.86827 811.8087,538.61698 C 811.4862,538.22694 811.0681,538.03192 810.5543,538.03192 C 810.0893,538.03192 809.6984,538.18756 809.3815,538.49885 C 809.0646,538.81013 808.8893,539.22643 808.8556,539.74774 L 808.8556,539.74774 z M 816.1624,543.30875 L 813.8899,537.33434 L 814.9587,537.33434 L 816.2412,540.91224 C 816.3799,541.29853 816.5074,541.69983 816.6237,542.11612 C 816.7137,541.80109 816.8393,541.4223 817.0006,540.97974 L 818.3281,537.33434 L 819.3687,537.33434 L 817.1074,543.30875 L 816.1624,543.30875 z M 820.2687,536.22609 L 820.2687,535.06159 L 821.2812,535.06159 L 821.2812,536.22609 L 820.2687,536.22609 z M 820.2687,543.30875 L 820.2687,537.33434 L 821.2812,537.33434 L 821.2812,543.30875 L 820.2687,543.30875 z M 822.8281,543.30875 L 822.8281,537.33434 L 823.7394,537.33434 L 823.7394,538.18381 C 824.178,537.52749 824.8119,537.19933 825.6406,537.19932 C 826.0005,537.19933 826.3314,537.26402 826.6334,537.39341 C 826.9352,537.5228 827.1611,537.69251 827.3111,537.90252 C 827.4611,538.11256 827.5661,538.36195 827.6262,538.65074 C 827.6637,538.83826 827.6824,539.16642 827.6824,539.63522 L 827.6824,543.30875 L 826.6699,543.30875 L 826.6699,539.6746 C 826.6699,539.26206 826.6306,538.95358 826.5519,538.74919 C 826.4731,538.54479 826.3334,538.38165 826.1327,538.25975 C 825.9321,538.13787 825.6969,538.07693 825.4269,538.07692 C 824.9956,538.07693 824.6234,538.21382 824.3103,538.48759 C 823.9971,538.76138 823.8405,539.28081 823.8405,540.04589 L 823.8405,543.30875 L 822.8281,543.30875 z M 838.4487,540.41718 L 839.54,540.69284 C 839.3111,541.58919 838.8997,542.2727 838.3053,542.74338 C 837.7109,543.21406 836.9843,543.4494 836.1255,543.4494 C 835.2368,543.4494 834.514,543.26844 833.9571,542.90653 C 833.4003,542.5446 832.9765,542.02049 832.6859,541.33416 C 832.3953,540.64784 832.25,539.91088 832.25,539.12329 C 832.25,538.26445 832.4141,537.5153 832.7422,536.87585 C 833.0702,536.23641 833.5371,535.75073 834.1427,535.41881 C 834.7484,535.0869 835.415,534.92095 836.1425,534.92094 C 836.9674,534.92095 837.6611,535.13097 838.2237,535.55101 C 838.7861,535.97107 839.178,536.56175 839.3994,537.32309 L 838.3249,537.57624 C 838.1337,536.97618 837.8561,536.53926 837.4924,536.26546 C 837.1287,535.9917 836.6711,535.85481 836.1199,535.8548 C 835.4861,535.85481 834.9565,536.0067 834.5309,536.31047 C 834.1053,536.61426 833.8062,537.02213 833.6337,537.53404 C 833.4611,538.04598 833.3749,538.57386 833.3749,539.11766 C 833.3749,539.81899 833.4771,540.43125 833.6815,540.95443 C 833.8858,541.47762 834.2037,541.86859 834.635,542.12737 C 835.0661,542.38616 835.533,542.51554 836.0356,542.51554 C 836.6469,542.51554 837.1643,542.33928 837.5881,541.98673 C 838.0119,541.63419 838.2987,541.11101 838.4487,540.41718 L 838.4487,540.41718 z M 840.3836,540.32154 C 840.3836,539.21517 840.6911,538.39571 841.3062,537.86315 C 841.82,537.42061 842.4461,537.19933 843.185,537.19932 C 844.0061,537.19933 844.6774,537.46842 845.1987,538.0066 C 845.72,538.54479 845.9805,539.28831 845.9805,540.23716 C 845.9805,541.006 845.8653,541.61076 845.6347,542.05143 C 845.404,542.49211 845.0683,542.83433 844.6278,543.07811 C 844.1871,543.32188 843.7061,543.44377 843.185,543.44377 C 842.3487,543.44377 841.6727,543.17562 841.1571,542.63931 C 840.6416,542.10299 840.3836,541.33041 840.3836,540.32154 L 840.3836,540.32154 z M 841.4243,540.32154 C 841.4243,541.08663 841.5911,541.65951 841.925,542.04017 C 842.2587,542.42085 842.6787,542.61118 843.185,542.61118 C 843.6874,542.61118 844.1055,542.41991 844.4394,542.03736 C 844.773,541.65482 844.9399,541.07164 844.9399,540.2878 C 844.9399,539.54896 844.7721,538.98921 844.4364,538.60854 C 844.1009,538.22788 843.6837,538.03754 843.185,538.03754 C 842.6787,538.03754 842.2587,538.22694 841.925,538.60573 C 841.5911,538.98453 841.4243,539.55646 841.4243,540.32154 L 841.4243,540.32154 z M 846.7962,540.32154 C 846.7962,539.21517 847.1037,538.39571 847.7187,537.86315 C 848.2324,537.42061 848.8587,537.19933 849.5974,537.19932 C 850.4187,537.19933 851.09,537.46842 851.6111,538.0066 C 852.1325,538.54479 852.393,539.28831 852.393,540.23716 C 852.393,541.006 852.2777,541.61076 852.0471,542.05143 C 851.8165,542.49211 851.4808,542.83433 851.0402,543.07811 C 850.5997,543.32188 850.1187,543.44377 849.5974,543.44377 C 848.7612,543.44377 848.0853,543.17562 847.5697,542.63931 C 847.0539,542.10299 846.7962,541.33041 846.7962,540.32154 L 846.7962,540.32154 z M 847.8368,540.32154 C 847.8368,541.08663 848.0037,541.65951 848.3374,542.04017 C 848.6711,542.42085 849.0911,542.61118 849.5974,542.61118 C 850.1,542.61118 850.5181,542.41991 850.8518,542.03736 C 851.1855,541.65482 851.3524,541.07164 851.3524,540.2878 C 851.3524,539.54896 851.1847,538.98921 850.849,538.60854 C 850.5134,538.22788 850.0962,538.03754 849.5974,538.03754 C 849.0911,538.03754 848.6711,538.22694 848.3374,538.60573 C 848.0037,538.98453 847.8368,539.55646 847.8368,540.32154 L 847.8368,540.32154 z M 853.5911,543.30875 L 853.5911,535.06159 L 854.6037,535.06159 L 854.6037,539.76461 L 857,537.33434 L 858.3106,537.33434 L 856.0268,539.55084 L 858.5411,543.30875 L 857.2924,543.30875 L 855.3181,540.25404 L 854.6037,540.94036 L 854.6037,543.30875 L 853.5911,543.30875 z M 740.1856,557.71036 L 740.1856,549.46319 L 741.1981,549.46319 L 741.1981,552.42227 C 741.6706,551.87471 742.2668,551.60094 742.9868,551.60093 C 743.4293,551.60094 743.8137,551.68814 744.1399,551.86252 C 744.4662,552.03692 744.6996,552.27788 744.8403,552.58541 C 744.9809,552.89296 745.0512,553.33925 745.0512,553.92431 L 745.0512,557.71036 L 744.0387,557.71036 L 744.0387,553.92431 C 744.0387,553.41801 743.929,553.04953 743.7096,552.81888 C 743.4903,552.58824 743.1799,552.47291 742.7787,552.4729 C 742.4787,552.47291 742.1965,552.55073 741.9321,552.70637 C 741.6678,552.86201 741.4793,553.07298 741.3668,553.33925 C 741.2543,553.60554 741.1981,553.97308 741.1981,554.44187 L 741.1981,557.71036 L 740.1856,557.71036 z M 748.8087,556.80463 L 748.955,557.69911 C 748.6699,557.75912 748.415,557.78912 748.1899,557.78912 C 747.8224,557.78912 747.5375,557.73099 747.3349,557.61473 C 747.1324,557.49847 746.9899,557.34564 746.9074,557.15624 C 746.8249,556.96684 746.7837,556.56836 746.7837,555.9608 L 746.7837,552.52354 L 746.0412,552.52354 L 746.0412,551.73595 L 746.7837,551.73595 L 746.7837,550.25641 L 747.7906,549.64884 L 747.7906,551.73595 L 748.8087,551.73595 L 748.8087,552.52354 L 747.7906,552.52354 L 747.7906,556.01705 C 747.7906,556.30583 747.8084,556.49148 747.844,556.57399 C 747.8796,556.6565 747.9378,556.72213 748.0184,556.77089 C 748.099,556.81964 748.2143,556.84402 748.3643,556.84402 C 748.4768,556.84402 748.625,556.83089 748.8087,556.80463 L 748.8087,556.80463 z M 752.0037,556.80463 L 752.1499,557.69911 C 751.8649,557.75912 751.6099,557.78912 751.3849,557.78912 C 751.0175,557.78912 750.7324,557.73099 750.53,557.61473 C 750.3274,557.49847 750.185,557.34564 750.1024,557.15624 C 750.02,556.96684 749.9787,556.56836 749.9787,555.9608 L 749.9787,552.52354 L 749.2362,552.52354 L 749.2362,551.73595 L 749.9787,551.73595 L 749.9787,550.25641 L 750.9856,549.64884 L 750.9856,551.73595 L 752.0037,551.73595 L 752.0037,552.52354 L 750.9856,552.52354 L 750.9856,556.01705 C 750.9856,556.30583 751.0034,556.49148 751.039,556.57399 C 751.0746,556.6565 751.1327,556.72213 751.2134,556.77089 C 751.294,556.81964 751.4093,556.84402 751.5593,556.84402 C 751.6718,556.84402 751.8199,556.83089 752.0037,556.80463 L 752.0037,556.80463 z M 752.9881,560 L 752.9881,551.73595 L 753.9106,551.73595 L 753.9106,552.51228 C 754.1281,552.20851 754.3737,551.98066 754.6474,551.82877 C 754.9212,551.67688 755.2531,551.60094 755.6431,551.60093 C 756.1531,551.60094 756.6031,551.73221 756.9931,551.99473 C 757.3831,552.25726 757.6774,552.62761 757.8762,553.10578 C 758.0749,553.58396 758.1743,554.10809 758.1743,554.67815 C 758.1743,555.28947 758.0646,555.83984 757.8453,556.32928 C 757.6259,556.8187 757.3071,557.19375 756.889,557.4544 C 756.4709,557.71505 756.0312,557.84538 755.57,557.84538 C 755.2324,557.84538 754.9296,557.77412 754.6615,557.6316 C 754.3934,557.48909 754.1731,557.30907 754.0006,557.09154 L 754.0006,560 L 752.9881,560 z M 753.9049,554.75691 C 753.9049,555.52574 754.0606,556.09393 754.3718,556.46147 C 754.6831,556.82901 755.0599,557.01279 755.5024,557.01279 C 755.9524,557.01279 756.3378,556.82245 756.6584,556.44178 C 756.979,556.06112 757.1393,555.47136 757.1393,554.67252 C 757.1393,553.91119 756.9827,553.34113 756.6696,552.96233 C 756.3565,552.58354 755.9824,552.39415 755.5475,552.39414 C 755.1162,552.39415 754.7346,552.59574 754.4028,552.9989 C 754.0709,553.40207 753.9049,553.98807 753.9049,554.75691 L 753.9049,554.75691 z M 759.6818,552.8892 L 759.6818,551.73595 L 760.8349,551.73595 L 760.8349,552.8892 L 759.6818,552.8892 z M 759.6818,557.71036 L 759.6818,556.55711 L 760.8349,556.55711 L 760.8349,557.71036 L 759.6818,557.71036 z M 761.8362,557.85101 L 764.2268,549.32255 L 765.0368,549.32255 L 762.6518,557.85101 L 761.8362,557.85101 z M 765.0312,557.85101 L 767.4218,549.32255 L 768.2318,549.32255 L 765.8468,557.85101 L 765.0312,557.85101 z M 770.0881,557.71036 L 768.26,551.73595 L 769.3062,551.73595 L 770.2568,555.18445 L 770.6112,556.4671 C 770.6262,556.40334 770.7293,555.99267 770.9206,555.23509 L 771.8712,551.73595 L 772.9118,551.73595 L 773.8062,555.20133 L 774.1043,556.34333 L 774.4474,555.19008 L 775.4712,551.73595 L 776.4556,551.73595 L 774.5881,557.71036 L 773.5362,557.71036 L 772.5856,554.13246 L 772.3549,553.11422 L 771.1456,557.71036 L 770.0881,557.71036 z M 778.4131,557.71036 L 776.5849,551.73595 L 777.6312,551.73595 L 778.5818,555.18445 L 778.9362,556.4671 C 778.9512,556.40334 779.0543,555.99267 779.2456,555.23509 L 780.1962,551.73595 L 781.2368,551.73595 L 782.1312,555.20133 L 782.4293,556.34333 L 782.7724,555.19008 L 783.7962,551.73595 L 784.7806,551.73595 L 782.9131,557.71036 L 781.8612,557.71036 L 780.9106,554.13246 L 780.6799,553.11422 L 779.4706,557.71036 L 778.4131,557.71036 z M 786.7381,557.71036 L 784.9099,551.73595 L 785.9562,551.73595 L 786.9068,555.18445 L 787.2612,556.4671 C 787.2762,556.40334 787.3793,555.99267 787.5706,555.23509 L 788.5212,551.73595 L 789.5618,551.73595 L 790.4562,555.20133 L 790.7543,556.34333 L 791.0974,555.19008 L 792.1212,551.73595 L 793.1056,551.73595 L 791.2381,557.71036 L 790.1862,557.71036 L 789.2356,554.13246 L 789.0049,553.11422 L 787.7956,557.71036 L 786.7381,557.71036 z M 794.2474,557.71036 L 794.2474,556.55711 L 795.4006,556.55711 L 795.4006,557.71036 L 794.2474,557.71036 z M 801.0312,557.71036 L 801.0312,556.95653 C 800.6524,557.54909 800.0956,557.84538 799.3606,557.84538 C 798.8843,557.84538 798.4465,557.71412 798.0471,557.45158 C 797.6478,557.18905 797.3384,556.82245 797.119,556.35177 C 796.8996,555.8811 796.79,555.3401 796.79,554.72878 C 796.79,554.13246 796.8893,553.59147 797.0881,553.10578 C 797.2868,552.62011 797.5849,552.24788 797.9824,551.9891 C 798.3799,551.73032 798.8243,551.60094 799.3156,551.60093 C 799.6756,551.60094 799.9962,551.67688 800.2774,551.82877 C 800.5587,551.98066 800.7874,552.1785 800.9637,552.42227 L 800.9637,549.46319 L 801.9706,549.46319 L 801.9706,557.71036 L 801.0312,557.71036 z M 797.8306,554.72878 C 797.8306,555.49387 797.9918,556.0658 798.3143,556.44459 C 798.6368,556.82339 799.0174,557.01279 799.4562,557.01279 C 799.8987,557.01279 800.2746,556.83183 800.584,556.46991 C 800.8934,556.108 801.0481,555.55575 801.0481,554.81316 C 801.0481,553.99557 800.8906,553.39551 800.5756,553.01296 C 800.2606,552.63042 799.8724,552.43915 799.4112,552.43915 C 798.9612,552.43915 798.5853,552.62293 798.2834,552.99046 C 797.9815,553.358 797.8306,553.93745 797.8306,554.72878 L 797.8306,554.72878 z M 807.6574,555.7864 L 808.7037,555.91579 C 808.5387,556.52711 808.2331,557.00153 807.7868,557.33907 C 807.3406,557.67661 806.7706,557.84538 806.0768,557.84538 C 805.2031,557.84538 804.5103,557.57628 803.9984,557.0381 C 803.4865,556.49992 803.2306,555.74515 803.2306,554.77379 C 803.2306,553.76868 803.4893,552.98859 804.0068,552.43353 C 804.5243,551.87847 805.1956,551.60094 806.0206,551.60093 C 806.8193,551.60094 807.4718,551.87284 807.9781,552.41665 C 808.4843,552.96046 808.7374,553.72555 808.7374,554.7119 C 808.7374,554.77192 808.7356,554.86193 808.7318,554.98193 L 804.2768,554.98193 C 804.3143,555.63826 804.4999,556.14082 804.8337,556.4896 C 805.1674,556.83839 805.5837,557.01279 806.0824,557.01279 C 806.4537,557.01279 806.7706,556.91528 807.0331,556.72025 C 807.2956,556.52523 807.5037,556.21395 807.6574,555.7864 L 807.6574,555.7864 z M 804.3331,554.14934 L 807.6687,554.14934 C 807.6237,553.64678 807.4962,553.26988 807.2862,553.01859 C 806.9637,552.62855 806.5456,552.43353 806.0318,552.43353 C 805.5668,552.43353 805.1759,552.58917 804.859,552.90045 C 804.5421,553.21174 804.3668,553.62803 804.3331,554.14934 L 804.3331,554.14934 z M 811.6399,557.71036 L 809.3674,551.73595 L 810.4362,551.73595 L 811.7187,555.31385 C 811.8574,555.70014 811.9849,556.10143 812.1012,556.51773 C 812.1912,556.2027 812.3168,555.8239 812.4781,555.38135 L 813.8056,551.73595 L 814.8462,551.73595 L 812.5849,557.71036 L 811.6399,557.71036 z M 815.7462,550.6277 L 815.7462,549.46319 L 816.7587,549.46319 L 816.7587,550.6277 L 815.7462,550.6277 z M 815.7462,557.71036 L 815.7462,551.73595 L 816.7587,551.73595 L 816.7587,557.71036 L 815.7462,557.71036 z M 818.3056,557.71036 L 818.3056,551.73595 L 819.2168,551.73595 L 819.2168,552.58541 C 819.6556,551.9291 820.2893,551.60094 821.1181,551.60093 C 821.478,551.60094 821.8091,551.66563 822.1109,551.79502 C 822.4127,551.92441 822.6387,552.09412 822.7887,552.30413 C 822.9387,552.51417 823.0437,552.76356 823.1037,553.05234 C 823.1411,553.23987 823.1599,553.56803 823.1599,554.03683 L 823.1599,557.71036 L 822.1474,557.71036 L 822.1474,554.07621 C 822.1474,553.66366 822.1081,553.35519 822.0294,553.15079 C 821.9506,552.9464 821.8109,552.78325 821.6103,552.66136 C 821.4097,552.53947 821.1743,552.47854 820.9044,552.47853 C 820.4731,552.47854 820.1009,552.61543 819.7877,552.8892 C 819.4746,553.16299 819.3181,553.68241 819.3181,554.44749 L 819.3181,557.71036 L 818.3056,557.71036 z M 828.6162,555.52199 L 829.6118,555.65138 C 829.5031,556.33772 829.2247,556.87496 828.7765,557.26312 C 828.3283,557.6513 827.7781,557.84538 827.1255,557.84538 C 826.3081,557.84538 825.6508,557.57816 825.1541,557.04373 C 824.6571,556.5093 824.4087,555.74327 824.4087,554.74566 C 824.4087,554.10059 824.5156,553.53615 824.7294,553.05234 C 824.9431,552.56855 825.2684,552.20569 825.7053,551.96378 C 826.1421,551.72188 826.6174,551.60094 827.1311,551.60093 C 827.78,551.60094 828.3106,551.76502 828.7231,552.09318 C 829.1355,552.42134 829.3999,552.88733 829.5161,553.49114 L 828.5319,553.64303 C 828.438,553.24174 828.2721,552.93984 828.034,552.7373 C 827.7959,552.53479 827.5081,552.43353 827.1706,552.43353 C 826.6606,552.43353 826.2461,552.61636 825.9274,552.98203 C 825.6087,553.34769 825.4494,553.9262 825.4494,554.71752 C 825.4494,555.52012 825.6031,556.10331 825.9106,556.4671 C 826.2181,556.83089 826.6194,557.01279 827.1144,557.01279 C 827.5119,557.01279 827.8437,556.8909 828.11,556.64712 C 828.3761,556.40334 828.5449,556.0283 828.6162,555.52199 L 828.6162,555.52199 z M 830.1011,554.72315 C 830.1011,553.61678 830.4087,552.79732 831.0237,552.26476 C 831.5375,551.82222 832.1637,551.60094 832.9025,551.60093 C 833.7237,551.60094 834.395,551.87003 834.9161,552.40821 C 835.4374,552.9464 835.6981,553.68992 835.6981,554.63877 C 835.6981,555.40761 835.5828,556.01236 835.3521,556.45303 C 835.1215,556.89371 834.7858,557.23593 834.3453,557.47971 C 833.9047,557.72349 833.4237,557.84538 832.9025,557.84538 C 832.0661,557.84538 831.3902,557.57722 830.8746,557.04092 C 830.3591,556.5046 830.1011,555.73202 830.1011,554.72315 L 830.1011,554.72315 z M 831.1418,554.72315 C 831.1418,555.48824 831.3087,556.06112 831.6425,556.44178 C 831.9761,556.82245 832.3962,557.01279 832.9025,557.01279 C 833.405,557.01279 833.8231,556.82151 834.1569,556.43897 C 834.4905,556.05643 834.6574,555.47324 834.6574,554.6894 C 834.6574,553.95057 834.4896,553.39082 834.1541,553.01015 C 833.8184,552.62948 833.4011,552.43915 832.9025,552.43915 C 832.3962,552.43915 831.9761,552.62855 831.6425,553.00733 C 831.3087,553.38613 831.1418,553.95807 831.1418,554.72315 L 831.1418,554.72315 z M 836.5137,554.72315 C 836.5137,553.61678 836.8211,552.79732 837.4361,552.26476 C 837.9499,551.82222 838.5761,551.60094 839.315,551.60093 C 840.1362,551.60094 840.8074,551.87003 841.3287,552.40821 C 841.85,552.9464 842.1106,553.68992 842.1106,554.63877 C 842.1106,555.40761 841.9953,556.01236 841.7647,556.45303 C 841.5339,556.89371 841.1984,557.23593 840.7577,557.47971 C 840.3172,557.72349 839.8361,557.84538 839.315,557.84538 C 838.4786,557.84538 837.8028,557.57722 837.2871,557.04092 C 836.7714,556.5046 836.5137,555.73202 836.5137,554.72315 L 836.5137,554.72315 z M 837.5544,554.72315 C 837.5544,555.48824 837.7212,556.06112 838.0549,556.44178 C 838.3887,556.82245 838.8087,557.01279 839.315,557.01279 C 839.8174,557.01279 840.2356,556.82151 840.5693,556.43897 C 840.9031,556.05643 841.07,555.47324 841.07,554.6894 C 841.07,553.95057 840.9021,553.39082 840.5665,553.01015 C 840.2309,552.62948 839.8137,552.43915 839.315,552.43915 C 838.8087,552.43915 838.3887,552.62855 838.0549,553.00733 C 837.7212,553.38613 837.5544,553.95807 837.5544,554.72315 L 837.5544,554.72315 z M 843.3087,557.71036 L 843.3087,549.46319 L 844.3211,549.46319 L 844.3211,554.16622 L 846.7175,551.73595 L 848.0281,551.73595 L 845.7444,553.95244 L 848.2587,557.71036 L 847.01,557.71036 L 845.0356,554.65565 L 844.3211,555.34197 L 844.3211,557.71036 L 843.3087,557.71036 z M 849.35,557.71036 L 849.35,556.55711 L 850.5031,556.55711 L 850.5031,557.71036 L 849.35,557.71036 z M 856.1562,555.52199 L 857.1518,555.65138 C 857.043,556.33772 856.7647,556.87496 856.3165,557.26312 C 855.8683,557.6513 855.3181,557.84538 854.6655,557.84538 C 853.8481,557.84538 853.1908,557.57816 852.694,557.04373 C 852.1971,556.5093 851.9487,555.74327 851.9487,554.74566 C 851.9487,554.10059 852.0556,553.53615 852.2694,553.05234 C 852.4831,552.56855 852.8084,552.20569 853.2453,551.96378 C 853.6821,551.72188 854.1574,551.60094 854.6711,551.60093 C 855.32,551.60094 855.8505,551.76502 856.2631,552.09318 C 856.6755,552.42134 856.9399,552.88733 857.0561,553.49114 L 856.0719,553.64303 C 855.978,553.24174 855.8121,552.93984 855.5739,552.7373 C 855.3358,552.53479 855.0481,552.43353 854.7105,552.43353 C 854.2006,552.43353 853.7861,552.61636 853.4674,552.98203 C 853.1487,553.34769 852.9894,553.9262 852.9894,554.71752 C 852.9894,555.52012 853.1431,556.10331 853.4506,556.4671 C 853.7581,556.83089 854.1594,557.01279 854.6544,557.01279 C 855.0519,557.01279 855.3836,556.8909 855.6499,556.64712 C 855.9161,556.40334 856.0849,556.0283 856.1562,555.52199 L 856.1562,555.52199 z M 857.6411,554.72315 C 857.6411,553.61678 857.9487,552.79732 858.5637,552.26476 C 859.0774,551.82222 859.7037,551.60094 860.4424,551.60093 C 861.2637,551.60094 861.935,551.87003 862.4561,552.40821 C 862.9774,552.9464 863.2381,553.68992 863.2381,554.63877 C 863.2381,555.40761 863.1227,556.01236 862.8921,556.45303 C 862.6615,556.89371 862.3258,557.23593 861.8853,557.47971 C 861.4447,557.72349 860.9637,557.84538 860.4424,557.84538 C 859.6062,557.84538 858.9303,557.57722 858.4147,557.04092 C 857.8989,556.5046 857.6411,555.73202 857.6411,554.72315 L 857.6411,554.72315 z M 858.6818,554.72315 C 858.6818,555.48824 858.8487,556.06112 859.1824,556.44178 C 859.5161,556.82245 859.9361,557.01279 860.4424,557.01279 C 860.945,557.01279 861.363,556.82151 861.6969,556.43897 C 862.0305,556.05643 862.1975,555.47324 862.1975,554.6894 C 862.1975,553.95057 862.0297,553.39082 861.694,553.01015 C 861.3583,552.62948 860.9411,552.43915 860.4424,552.43915 C 859.9361,552.43915 859.5161,552.62855 859.1824,553.00733 C 858.8487,553.38613 858.6818,553.95807 858.6818,554.72315 L 858.6818,554.72315 z M 864.4306,557.71036 L 864.4306,551.73595 L 865.3361,551.73595 L 865.3361,552.57416 C 865.5237,552.28164 865.773,552.0463 866.0844,551.86815 C 866.3955,551.69001 866.75,551.60094 867.1474,551.60093 C 867.59,551.60094 867.9527,551.69282 868.2359,551.87659 C 868.519,552.06036 868.7187,552.31727 868.8349,552.64729 C 869.3074,551.94973 869.9225,551.60094 870.6799,551.60093 C 871.2724,551.60094 871.7281,551.76502 872.0468,552.09318 C 872.3655,552.42134 872.5249,552.9267 872.5249,553.60928 L 872.5249,557.71036 L 871.5181,557.71036 L 871.5181,553.94682 C 871.5181,553.54178 871.4852,553.25018 871.4197,553.07204 C 871.3539,552.8939 871.235,552.75044 871.0624,552.64167 C 870.8899,552.53292 870.6874,552.47854 870.455,552.47853 C 870.0349,552.47854 869.6861,552.61824 869.4087,552.89764 C 869.1311,553.17705 868.9924,553.62429 868.9924,554.23935 L 868.9924,557.71036 L 867.9799,557.71036 L 867.9799,553.82868 C 867.9799,553.37864 867.8974,553.0411 867.7324,552.81607 C 867.5674,552.59105 867.2975,552.47854 866.9225,552.47853 C 866.6374,552.47854 866.3739,552.55354 866.1321,552.70356 C 865.8902,552.85357 865.715,553.07298 865.6062,553.36175 C 865.4975,553.65054 865.4431,554.06683 865.4431,554.61065 L 865.4431,557.71036 L 864.4306,557.71036 z "
       id="path2596" />
    <rect
       style="opacity:1;fill:#002868;fill-opacity:1;fill-rule:nonzero;stroke:none;stroke-width:4;stroke-linecap:butt;stroke-linejoin:miter;stroke-miterlimit:4;stroke-dasharray:none;stroke-dashoffset:0;stroke-opacity:1"
       id="rect2172"
       width="900"
       height="600"
       x="0"
       y="0" />
    <path
       style="font-size:64px;font-style:normal;font-variant:normal;font-weight:normal;font-stretch:normal;text-align:start;line-height:125%;writing-mode:lr-tb;text-anchor:start;fill:#c0c0c0;fill-opacity:1;font-family:College"
       d="M 150.00005,375 L 150.00005,353.57142 L 159.64337,353.57142 L 159.64337,246.42858 L 150.00005,246.42858 L 150.00005,225 L 178.93001,225 L 227.14658,327.85715 L 227.14658,246.42858 L 217.50327,246.42858 L 217.50327,225 L 256.07653,225 L 256.07653,246.42858 L 246.43322,246.42858 L 246.43322,375 L 227.14658,375 L 178.93001,272.14285 L 178.93001,353.57142 L 188.57332,353.57142 L 188.57332,375 L 150.00005,375 z M 265.72461,375 L 265.72461,353.57142 L 275.36793,353.57142 L 275.36793,246.42858 L 265.72461,246.42858 L 265.72461,225 L 352.51445,225 L 352.51445,257.14285 L 333.22782,257.14285 L 333.22782,246.42858 L 294.65456,246.42858 L 294.65456,289.28573 L 313.94119,289.28573 L 313.94119,278.57142 L 333.22782,278.57142 L 333.22782,321.42858 L 313.94119,321.42858 L 313.94119,310.71427 L 294.65456,310.71427 L 294.65456,353.57142 L 333.22782,353.57142 L 333.22782,342.85715 L 352.51445,342.85715 L 352.51445,375 L 265.72461,375 z M 362.16253,225 L 400.73579,225 L 400.73579,246.42858 L 391.09248,246.42858 L 410.37911,332.14285 L 429.66575,246.42858 L 420.02244,246.42858 L 420.02244,225 L 458.59571,225 L 458.59571,246.42858 L 448.95238,246.42858 L 420.02244,375 L 400.73579,375 L 371.80585,246.42858 L 362.16253,246.42858 L 362.16253,225 z M 451.04772,375 L 451.04772,353.57142 L 460.69104,353.57142 L 489.62099,225 L 508.90762,225 L 537.83757,353.57142 L 547.48088,353.57142 L 547.48088,375 L 508.90762,375 L 508.90762,353.57142 L 518.55093,353.57142 L 513.72928,332.14285 L 484.79932,332.14285 L 479.97766,353.57142 L 489.62099,353.57142 L 489.62099,375 L 451.04772,375 z M 499.26431,267.85715 L 489.62099,310.71427 L 508.90762,310.71427 L 499.26431,267.85715 z M 557.12895,375 L 557.12895,353.57142 L 566.77228,353.57142 L 566.77228,246.42858 L 557.12895,246.42858 L 557.12895,225 L 628.48951,225 L 643.91881,242.14285 L 643.91881,357.85715 L 628.48951,375 L 557.12895,375 z M 586.05891,353.57142 L 615.34554,353.57142 L 624.63217,344.78571 L 624.63217,255.21429 L 615.34554,246.42858 L 586.05891,246.42858 L 586.05891,353.57142 z M 653.56688,375 L 653.56688,353.57142 L 663.21021,353.57142 L 692.14016,225 L 711.4268,225 L 740.3567,353.57142 L 750,353.57142 L 750,375 L 711.4268,375 L 711.4268,353.57142 L 721.0701,353.57142 L 716.2485,332.14285 L 687.31848,332.14285 L 682.49683,353.57142 L 692.14016,353.57142 L 692.14016,375 L 653.56688,375 z M 701.7835,267.85715 L 692.14016,310.71427 L 711.4268,310.71427 L 701.7835,267.85715 z "
       id="path2600"
       sodipodi:nodetypes="cccccccccccccccccccccccccccccccccccccccccccccccccccccccccccccccccccccccccccccccccccccccccccccccccccccccccccccccccccccccccc" />
    <path
       style="font-size:56px;font-style:normal;font-variant:normal;font-weight:bold;font-stretch:normal;text-align:start;line-height:100%;writing-mode:lr-tb;text-anchor:start;fill:#c0c0c0;fill-opacity:1;font-family:Times New Roman"
       inkscape:transform-center-x="263.65455"
       inkscape:transform-center-y="145.79968"
       d="M 258.37587,40 L 259.12603,59.112053 L 256.33,59.112053 C 255.01145,54.31999 251.77217,50.465162 246.61204,47.547565 C 241.45182,44.63008 235.87109,43.171308 229.86989,43.171248 C 225.23251,43.171308 221.56132,43.939443 218.8562,45.47569 C 216.15108,47.012035 214.79853,48.78088 214.79855,50.782248 C 214.79853,52.050783 215.27591,53.178348 216.23066,54.164905 C 217.54912,55.489828 219.66317,56.8006 222.57292,58.097254 C 224.7097,59.027529 229.64254,60.676568 237.37146,63.0444 C 248.19185,66.342524 255.48884,69.457388 259.26242,72.389009 C 262.9904,75.32066 264.85441,78.675132 264.8545,82.452426 C 264.85441,87.24454 261.84243,91.367163 255.81852,94.820297 C 249.79448,98.273425 242.14515,99.999978 232.87052,100 C 229.96078,99.999978 227.21022,99.816752 224.6188,99.45031 C 222.02733,99.083852 218.77663,98.393223 214.86676,97.37842 C 212.68447,96.814652 210.88863,96.532758 209.47926,96.532758 C 208.29716,96.532758 207.0469,96.814652 205.72847,97.37842 C 204.41,97.94221 203.34158,98.801965 202.52325,99.957708 L 200,99.957708 L 200,78.308661 L 202.52325,78.308661 C 204.52364,84.39747 208.37674,89.041577 214.08248,92.24101 C 219.78821,95.440443 225.93721,97.040155 232.52956,97.040155 C 237.62146,97.040155 241.67915,96.180393 244.70256,94.460868 C 247.72584,92.741365 249.23753,90.73996 249.23759,88.456645 C 249.23753,87.1036 248.65786,85.79281 247.4986,84.524302 C 246.3392,83.255822 244.57747,82.050744 242.2134,80.909081 C 239.84921,79.76745 235.66651,78.280501 229.6653,76.448204 C 221.25442,73.883039 215.2077,71.698404 211.52513,69.894281 C 207.84252,68.090235 205.0124,66.074724 203.03471,63.847781 C 201.05703,61.620898 200.06818,59.168464 200.06818,56.490493 C 200.06818,51.923935 202.77329,48.03388 208.18355,44.820295 C 213.59373,41.606823 220.41333,40.00006 228.64235,40 C 231.64294,40.00006 234.55265,40.22557 237.37146,40.67653 C 239.50823,41.014863 242.11104,41.642065 245.17992,42.558145 C 248.24869,43.47433 250.39688,43.932408 251.62447,43.932348 C 252.80646,43.932408 253.73848,43.70689 254.42049,43.255817 C 255.10239,42.80485 255.73889,41.719585 256.33,40 L 258.37587,40 z M 321.66188,97.082448 L 321.66188,98.646932 L 273.31083,98.646932 L 273.31083,97.082448 L 276.37965,97.082448 C 279.06201,97.082448 281.22155,96.78646 282.85826,96.1945 C 284.04033,95.79985 284.94961,95.12332 285.5861,94.164895 C 286.08621,93.488372 286.33627,91.712478 286.3363,88.837195 L 286.3363,51.120513 C 286.33627,48.18892 286.08621,46.35664 285.5861,45.62368 C 285.08601,44.890825 284.07443,44.249538 282.55139,43.699787 C 281.02835,43.150165 278.9711,42.87532 276.37965,42.875275 L 273.31083,42.875275 L 273.31083,41.31079 L 321.66188,41.31079 L 321.66188,42.875275 L 318.59305,42.875275 C 315.91061,42.87532 313.75109,43.171308 312.1144,43.763222 C 310.9323,44.157917 310.00029,44.834448 309.31835,45.79282 C 308.81822,46.469395 308.56816,48.245298 308.56822,51.120513 L 308.56822,88.837195 C 308.56816,91.768847 308.82961,93.601128 309.35247,94.33402 C 309.87526,95.066935 310.89822,95.708245 312.4213,96.25792 C 313.9443,96.807595 316.00154,97.082448 318.59305,97.082448 L 321.66188,97.082448 z M 412.97647,78.520079 L 409.49847,98.646932 L 327.39034,98.646932 L 327.39034,97.082448 L 330.45917,97.082448 C 333.14153,97.082448 335.30108,96.78646 336.93781,96.1945 C 338.11986,95.79985 339.02912,95.12332 339.66564,94.164895 C 340.16572,93.488372 340.41577,91.712478 340.41579,88.837195 L 340.41579,51.120513 C 340.41577,48.18892 340.16572,46.35664 339.66564,45.62368 C 339.1655,44.890825 338.15393,44.249538 336.63092,43.699787 C 335.10786,43.150165 333.05061,42.87532 330.45917,42.875275 L 327.39034,42.875275 L 327.39034,41.31079 L 376.69612,41.31079 L 376.69612,42.875275 L 372.67256,42.875275 C 369.99012,42.87532 367.83061,43.171308 366.19393,43.763222 C 365.01183,44.157917 364.07981,44.834448 363.39789,45.79282 C 362.89776,46.469395 362.64772,48.245298 362.64774,51.120513 L 362.64774,87.653268 C 362.64772,90.58492 362.92046,92.452435 363.4661,93.255813 C 364.0116,94.059197 365.08004,94.658208 366.6713,95.05285 C 367.80785,95.306545 370.55845,95.433393 374.92305,95.433393 L 382.62919,95.433393 C 387.53925,95.433393 391.63102,94.89781 394.90451,93.82663 C 398.17784,92.755458 401.00797,91.064117 403.3949,88.75264 C 405.78169,86.441155 408.04352,83.030316 410.18044,78.520079 L 412.97647,78.520079 z M 503.11788,41.31079 L 503.11788,42.875275 C 499.75334,43.213585 496.75282,44.327058 494.11587,46.21564 C 492.20629,47.625145 489.36485,50.937325 485.59144,56.152227 L 453.74383,99.957708 L 451.49336,99.957708 L 419.78217,54.376323 C 415.96317,48.879542 413.40581,45.651933 412.11009,44.693448 C 410.81438,43.735075 408.37068,43.12903 404.77901,42.875275 L 404.77901,41.31079 L 449.1065,41.31079 L 449.1065,42.875275 L 447.6062,42.875275 C 443.60529,42.87532 440.87745,43.185408 439.42265,43.8055 C 438.37693,44.22838 437.85412,44.848548 437.85415,45.665972 C 437.85412,46.173423 438.03595,46.772425 438.39971,47.46301 C 438.76338,48.153678 439.99092,50.0071 442.0823,53.023263 L 461.79099,81.564476 L 480.06752,56.152227 C 482.24972,53.079685 483.5909,51.021895 484.09106,49.978863 C 484.59111,48.93592 484.84113,48.047973 484.84124,47.315013 C 484.84113,46.469395 484.47745,45.722395 483.75009,45.073998 C 483.02261,44.425713 481.95428,43.932408 480.54496,43.594083 C 478.58985,43.114922 475.99844,42.87532 472.7706,42.875275 L 472.7706,41.31079 L 503.11788,41.31079 z M 542.67154,44.608878 L 542.67154,67.949254 L 544.51289,67.949254 C 550.37767,67.949285 554.62854,66.807638 557.26561,64.524314 C 559.90244,62.24105 561.5846,58.872491 562.31207,54.4186 L 564.90349,54.4186 L 564.90349,84.439735 L 562.31207,84.439735 C 561.76638,81.169844 560.6185,78.491904 558.86811,76.405911 C 557.11771,74.319964 555.08317,72.91757 552.7646,72.198729 C 550.44592,71.479934 547.08148,71.120529 542.67154,71.120498 L 542.67154,87.272725 C 542.67154,90.42988 542.88745,92.360808 543.31937,93.06553 C 543.7513,93.770252 544.55831,94.348128 545.74041,94.79914 C 546.92241,95.250168 548.83188,95.475685 551.46883,95.47567 L 556.99275,95.47567 C 565.63084,95.475685 572.55279,94.235365 577.75844,91.75474 C 582.96398,89.274137 586.70351,85.496837 588.97677,80.422829 L 591.49995,80.422829 L 587.34003,98.646932 L 507.41417,98.646932 L 507.41417,97.082448 L 510.48303,97.082448 C 513.1654,97.082448 515.3249,96.78646 516.96163,96.1945 C 518.14362,95.79985 519.05289,95.12332 519.68954,94.164895 C 520.18958,93.488372 520.43961,91.712478 520.43961,88.837195 L 520.43961,51.120513 C 520.43961,48.527185 520.32595,46.934515 520.09864,46.342502 C 519.644,45.355945 518.80287,44.594838 517.57534,44.059195 C 515.84777,43.269962 513.48355,42.87532 510.48303,42.875275 L 507.41417,42.875275 L 507.41417,41.31079 L 584.81675,41.31079 L 584.81675,58.266379 L 582.22533,58.266379 C 580.90674,54.122658 579.05409,51.14875 576.66728,49.34461 C 574.28036,47.540575 570.90464,46.2157 566.54023,45.369985 C 563.9941,44.86264 559.22049,44.608945 552.21902,44.608878 L 542.67154,44.608878 z M 635.00916,72.515856 L 635.00916,88.5835 C 635.00903,91.684292 635.31601,93.636355 635.92971,94.439732 C 636.54354,95.243133 637.62328,95.88442 639.16907,96.363618 C 640.71486,96.842838 643.60173,97.082448 647.82999,97.082448 L 647.82999,98.646932 L 600.50185,98.646932 L 600.50185,97.082448 C 604.77553,97.082448 607.6738,96.835788 609.19688,96.342482 C 610.71985,95.849177 611.7883,95.20789 612.40212,94.418597 C 613.01583,93.629312 613.32269,91.684292 613.3228,88.5835 L 613.3228,51.374208 C 613.32269,48.27349 613.01583,46.321413 612.40212,45.517967 C 611.7883,44.71465 610.70856,44.073348 609.16276,43.594083 C 607.61697,43.114922 604.73,42.87532 600.50185,42.875275 L 600.50185,41.31079 L 643.46546,41.31079 C 654.64957,41.31085 662.83302,41.790048 668.0161,42.748428 C 673.19882,43.70689 677.42697,45.475735 680.70045,48.054978 C 683.97382,50.634303 685.61055,53.657545 685.61067,57.124733 C 685.61055,61.3531 683.1555,64.848523 678.24539,67.610987 C 675.1084,69.358731 670.72105,70.669517 665.08359,71.543335 L 687.31552,90.951363 C 690.2251,93.460172 692.29376,95.024665 693.5214,95.64481 C 695.38534,96.518665 697.54484,96.997878 700,97.082448 L 700,98.646932 L 670.88025,98.646932 L 641.07854,72.515856 L 635.00916,72.515856 z M 635.00916,44.39746 L 635.00916,69.513737 L 638.89634,69.513737 C 645.21574,69.513768 649.94395,69.154363 653.08107,68.435522 C 656.21806,67.716728 658.68441,66.420042 660.48034,64.545452 C 662.27615,62.670924 663.17401,60.225556 663.17412,57.209303 C 663.17401,52.840075 661.52597,49.61245 658.22989,47.52643 C 654.93371,45.440515 649.6258,44.39752 642.30607,44.39746 L 635.00916,44.39746 z "
       id="path2180"
       sodipodi:nodetypes="cccssssscccsssssssccccsssssssssssssssscccccccccccsscccccccsccsscccccccccccsscccccccsccscccsscccccccccscccccssscccssssccccccsccccssccssccsccccccccccccccccccscccccssccccssccsscccsssccccccccccccsssscc" />
    <path
       style="font-size:56px;font-style:normal;font-variant:normal;font-weight:bold;font-stretch:normal;text-align:start;line-height:100%;writing-mode:lr-tb;text-anchor:start;font-family:Times New Roman;fill:#ffdd55;fill-opacity:1"
       inkscape:transform-center-x="197.85684"
       inkscape:transform-center-y="145.69702"
       d="M 368.06552,500.04226 L 368.06552,520.23944 L 366.17196,520.23944 C 363.88598,514.71836 360.45713,510.52118 355.88538,507.64789 C 351.31349,504.7747 346.31521,503.33808 340.89049,503.33803 C 335.70449,503.33808 331.38858,504.54231 327.94268,506.95073 C 324.49673,509.3592 322.05728,512.71837 320.62435,517.02818 C 319.19138,521.33808 318.4749,525.7606 318.47494,530.29577 C 318.4749,535.78875 319.25961,540.60565 320.82907,544.74649 C 322.39847,548.88732 324.93174,551.92957 328.42885,553.87325 C 331.92592,555.81692 336.07979,556.78873 340.89049,556.78873 C 342.56222,556.78873 344.27666,556.64086 346.03377,556.34506 C 347.79081,556.0493 349.59054,555.61973 351.43297,555.05635 L 351.43297,543.14084 C 351.43291,540.88734 351.24526,539.42959 350.87002,538.76761 C 350.49466,538.10566 349.71848,537.50707 348.54146,536.97182 C 347.36433,536.43665 345.93991,536.16902 344.26818,536.16901 L 342.47697,536.16901 L 342.47697,534.60564 L 376.20268,534.60564 L 376.20268,536.16901 C 373.64374,536.30989 371.86106,536.59862 370.85466,537.03521 C 369.8481,537.47184 369.07192,538.19721 368.5261,539.21126 C 368.21897,539.74651 368.06543,541.05636 368.06552,543.14084 L 368.06552,555.05635 C 363.6301,556.69015 359.01563,557.92255 354.2221,558.75351 C 349.42848,559.58451 344.45577,560 339.30398,560 C 332.71917,560 327.25176,559.26055 322.90174,557.7817 C 318.55167,556.30283 314.71339,554.35916 311.38691,551.95071 C 308.06038,549.54226 305.45888,546.83099 303.58239,543.81689 C 301.19413,539.9296 300,535.57749 300,530.76056 C 300,522.1409 303.66768,514.85921 311.00307,508.91551 C 318.33844,502.9719 327.56735,500.00006 338.68988,500 C 342.13575,500.00006 345.24049,500.22541 348.0041,500.67606 C 349.50523,500.90148 351.93614,501.54231 355.29683,502.59861 C 358.65739,503.65498 360.64477,504.18316 361.25896,504.18311 C 362.2142,504.18316 363.10127,503.89443 363.92018,503.31689 C 364.73894,502.73949 365.48953,501.64795 366.17196,500.04226 L 368.06552,500.04226 z M 417.70728,500.5493 C 428.76147,500.21133 437.74303,502.87329 444.652,508.53523 C 451.56083,514.19724 455.01529,521.28172 455.01535,529.78874 C 455.01529,537.05635 452.43937,543.45073 447.28762,548.97184 C 440.46395,556.29577 430.82561,559.95774 418.37258,559.95774 C 405.88533,559.95774 396.22995,556.46479 389.40635,549.47888 C 384.01569,543.95775 381.32037,537.40849 381.32037,529.83099 C 381.32037,521.32397 384.82599,514.23246 391.83727,508.55635 C 398.84849,502.88034 407.47182,500.21133 417.70728,500.5493 L 417.70728,500.5493 z M 418.3214,503.25352 C 411.97541,503.25358 407.1477,505.92962 403.83829,511.28169 C 401.14293,515.67611 399.79527,521.98596 399.79529,530.21127 C 399.79527,539.98592 401.87647,547.21129 406.03889,551.88732 C 408.9389,555.15494 412.99894,556.78873 418.21903,556.78873 C 421.73316,556.78873 424.66731,556.08452 427.0215,554.67606 C 430.02384,552.87325 432.36091,549.99298 434.03275,546.03523 C 435.70448,542.07748 436.54036,536.91553 436.54044,530.54931 C 436.54036,522.97187 435.68743,517.30287 433.98158,513.54225 C 432.27563,509.78174 430.1006,507.12683 427.45651,505.57747 C 424.8123,504.02823 421.76726,503.25358 418.3214,503.25352 L 418.3214,503.25352 z M 524.87207,538.5352 L 522.26204,558.64789 L 460.64483,558.64789 L 460.64483,557.0845 L 462.9478,557.0845 C 464.96077,557.0845 466.58137,556.78873 467.80963,556.19718 C 468.69668,555.80282 469.37904,555.12677 469.85671,554.16902 C 470.232,553.49297 470.41965,551.71832 470.41966,548.84507 L 470.41966,511.15494 C 470.41965,508.22542 470.232,506.39443 469.85671,505.66199 C 469.4814,504.92965 468.72227,504.28879 467.57932,503.73943 C 466.43637,503.19021 464.89253,502.91556 462.9478,502.9155 L 460.64483,502.9155 L 460.64483,501.35211 L 497.64585,501.35211 L 497.64585,502.9155 L 494.62641,502.9155 C 492.61341,502.91556 490.99282,503.21133 489.7646,503.80282 C 488.87749,504.19725 488.17807,504.87331 487.66633,505.83101 C 487.29101,506.50711 487.10336,508.28174 487.10338,511.15494 L 487.10338,547.66196 C 487.10336,550.59155 487.30807,552.45774 487.71751,553.26056 C 488.1269,554.06339 488.92868,554.66197 490.12283,555.05635 C 490.97574,555.30986 493.0399,555.43661 496.31527,555.43661 L 502.09827,555.43661 C 505.78296,555.43661 508.8536,554.90142 511.31016,553.83098 C 513.76659,552.76057 515.89043,551.07043 517.68168,548.76058 C 519.47282,546.45071 521.17019,543.04228 522.77381,538.5352 L 524.87207,538.5352 z M 530.09213,558.64789 L 530.09213,557.0845 L 532.39509,557.0845 C 534.40806,557.0845 535.9519,556.82394 537.02662,556.30283 C 538.10133,555.7817 538.89458,555.07043 539.40635,554.16902 C 539.71341,553.57746 539.86693,551.80283 539.86695,548.84507 L 539.86695,511.15494 C 539.86693,508.22542 539.67928,506.39443 539.304,505.66199 C 538.92869,504.92965 538.16956,504.28879 537.02662,503.73943 C 535.88366,503.19021 534.33982,502.91556 532.39509,502.9155 L 530.09213,502.9155 L 530.09213,501.35211 L 561.15662,501.35211 C 569.44725,501.35219 576.11733,502.28175 581.16684,504.14085 C 587.34216,506.4226 592.02485,509.87329 595.21495,514.49297 C 598.40492,519.11272 599.99994,524.33807 600,530.16903 C 599.99994,534.19721 599.21524,537.90847 597.64586,541.30284 C 596.07636,544.69719 594.04635,547.50002 591.5558,549.71126 C 589.0651,551.92256 586.19068,553.69719 582.93245,555.03521 C 579.67413,556.37325 575.69086,557.40845 570.98261,558.14085 C 568.90137,558.47887 565.62604,558.64789 561.15662,558.64789 L 530.09213,558.64789 z M 556.55067,504.60563 L 556.55067,549.30986 C 556.55065,551.67606 556.68712,553.12677 556.96009,553.66197 C 557.23301,554.19719 557.6936,554.60564 558.34187,554.88733 C 559.26303,555.30986 560.59363,555.52112 562.33368,555.52112 C 568.03135,555.52112 572.38141,553.91549 575.38384,550.70424 C 579.47795,546.36621 581.52503,539.63383 581.52509,530.50704 C 581.52503,523.15498 580.1262,517.28174 577.32857,512.88732 C 575.11085,509.45077 572.262,507.11275 568.782,505.87324 C 566.32546,505.00005 562.24835,504.57751 556.55067,504.60563 L 556.55067,504.60563 z "
       id="path2182"
       sodipodi:nodetypes="cccsssssssssccsscccccssccsssscssscssscccsscssssccccscsssssscccccccccccsscccccccsccscccsscccccssccsscccccssssscccccssscscscc" />
    <path
       style="fill:#c0c0c0;fill-opacity:1;fill-rule:nonzero;stroke:none;stroke-width:2;stroke-linecap:butt;stroke-linejoin:miter;stroke-miterlimit:4;stroke-dashoffset:0;stroke-opacity:1"
       d="M 101.60959,336.96884 L 75.021035,317.54142 L 48.45868,337 L 58.67303,305.65121 L 32,286.34047 L 64.901371,286.39326 L 74.978902,255 L 85.09873,286.38142 L 118,286.29006 L 91.353023,305.63203 L 101.60959,336.96884 z "
       id="path2576" />
    <path
       style="fill:#c0c0c0;fill-opacity:1;fill-rule:nonzero;stroke:none;stroke-width:2;stroke-linecap:butt;stroke-linejoin:miter;stroke-miterlimit:4;stroke-dashoffset:0;stroke-opacity:1"
       d="M 851.60959,336.96884 L 825.02103,317.54142 L 798.45868,337 L 808.67303,305.65121 L 782,286.34047 L 814.90137,286.39326 L 824.9789,255 L 835.09873,286.38142 L 868,286.29006 L 841.35302,305.63203 L 851.60959,336.96884 z "
       id="path2238" />
    <g
       id="g2942">
      <path
         id="path2480"
         d="M 461.82648,201.33531 L 450.00935,192.72349 L 438.20385,201.34913 L 442.74357,187.45277 L 430.88888,178.89266 L 445.51172,178.91606 L 449.99062,164.99999 L 454.48832,178.91082 L 469.11111,178.87032 L 457.26801,187.44427 L 461.82648,201.33531 z "
         style="fill:#ffdd55;fill-opacity:1;fill-rule:nonzero;stroke:none;stroke-width:2;stroke-linecap:butt;stroke-linejoin:miter;stroke-miterlimit:4;stroke-dashoffset:0;stroke-opacity:1" />
      <path
         id="path2693"
         d="M 406.82648,201.3353 L 395.00935,192.72348 L 383.20386,201.34911 L 387.74357,187.45276 L 375.88889,178.89266 L 390.51172,178.91606 L 394.99062,164.99999 L 399.48832,178.91081 L 414.11111,178.87031 L 402.26801,187.44426 L 406.82648,201.3353 z "
         style="fill:#ffdd55;fill-opacity:1;fill-rule:nonzero;stroke:none;stroke-width:2;stroke-linecap:butt;stroke-linejoin:miter;stroke-miterlimit:4;stroke-dashoffset:0;stroke-opacity:1" />
      <path
         id="path2699"
         d="M 351.82648,201.33531 L 340.00935,192.72349 L 328.20386,201.34912 L 332.74357,187.45277 L 320.88889,178.89267 L 335.51172,178.91607 L 339.99062,165 L 344.48832,178.91082 L 359.11111,178.87032 L 347.26801,187.44427 L 351.82648,201.33531 z "
         style="fill:#ffdd55;fill-opacity:1;fill-rule:nonzero;stroke:none;stroke-width:2;stroke-linecap:butt;stroke-linejoin:miter;stroke-miterlimit:4;stroke-dashoffset:0;stroke-opacity:1" />
      <path
         id="path2705"
         d="M 296.82648,201.33531 L 285.00935,192.72349 L 273.20386,201.34913 L 277.74357,187.45277 L 265.88889,178.89266 L 280.51172,178.91606 L 284.99062,164.99999 L 289.48832,178.91082 L 304.11111,178.87032 L 292.26801,187.44427 L 296.82648,201.33531 z "
         style="fill:#ffdd55;fill-opacity:1;fill-rule:nonzero;stroke:none;stroke-width:2;stroke-linecap:butt;stroke-linejoin:miter;stroke-miterlimit:4;stroke-dashoffset:0;stroke-opacity:1" />
      <path
         id="path2711"
         d="M 241.82648,201.33532 L 230.00935,192.72349 L 218.20385,201.34913 L 222.74357,187.45277 L 210.88888,178.89267 L 225.51172,178.91607 L 229.99062,165 L 234.48832,178.91082 L 249.11111,178.87032 L 237.26801,187.44427 L 241.82648,201.33532 z "
         style="fill:#ffdd55;fill-opacity:1;fill-rule:nonzero;stroke:none;stroke-width:2;stroke-linecap:butt;stroke-linejoin:miter;stroke-miterlimit:4;stroke-dashoffset:0;stroke-opacity:1" />
      <path
         id="path2831"
         d="M 681.82648,201.33532 L 670.00935,192.7235 L 658.20386,201.34914 L 662.74357,187.45278 L 650.88889,178.89267 L 665.51172,178.91607 L 669.99062,165 L 674.48832,178.91083 L 689.11111,178.87033 L 677.26801,187.44428 L 681.82648,201.33532 z "
         style="fill:#ffdd55;fill-opacity:1;fill-rule:nonzero;stroke:none;stroke-width:2;stroke-linecap:butt;stroke-linejoin:miter;stroke-miterlimit:4;stroke-dashoffset:0;stroke-opacity:1" />
      <path
         id="path2837"
         d="M 626.82648,201.33532 L 615.00935,192.7235 L 603.20386,201.34914 L 607.74357,187.45278 L 595.88889,178.89267 L 610.51172,178.91607 L 614.99062,165 L 619.48832,178.91083 L 634.11111,178.87033 L 622.26801,187.44428 L 626.82648,201.33532 z "
         style="fill:#ffdd55;fill-opacity:1;fill-rule:nonzero;stroke:none;stroke-width:2;stroke-linecap:butt;stroke-linejoin:miter;stroke-miterlimit:4;stroke-dashoffset:0;stroke-opacity:1" />
      <path
         id="path2843"
         d="M 571.82648,201.33532 L 560.00935,192.7235 L 548.20386,201.34914 L 552.74357,187.45278 L 540.88889,178.89267 L 555.51172,178.91607 L 559.99062,165 L 564.48832,178.91083 L 579.11111,178.87033 L 567.26801,187.44428 L 571.82648,201.33532 z "
         style="fill:#ffdd55;fill-opacity:1;fill-rule:nonzero;stroke:none;stroke-width:2;stroke-linecap:butt;stroke-linejoin:miter;stroke-miterlimit:4;stroke-dashoffset:0;stroke-opacity:1" />
      <path
         id="path2849"
         d="M 516.82649,201.33531 L 505.00936,192.72349 L 493.20386,201.34913 L 497.74358,187.45277 L 485.88889,178.89266 L 500.51173,178.91606 L 504.99063,164.99999 L 509.48833,178.91082 L 524.11112,178.87032 L 512.26802,187.44427 L 516.82649,201.33531 z "
         style="fill:#ffdd55;fill-opacity:1;fill-rule:nonzero;stroke:none;stroke-width:2;stroke-linecap:butt;stroke-linejoin:miter;stroke-miterlimit:4;stroke-dashoffset:0;stroke-opacity:1" />
    </g>
    <g
       id="g2932">
      <path
         id="path2341"
         d="M 489.32649,156.33532 L 477.50936,147.72349 L 465.70386,156.34913 L 470.24358,142.45277 L 458.38889,133.89267 L 473.01173,133.91607 L 477.49063,120 L 481.98833,133.91082 L 496.61112,133.87032 L 484.76802,142.44427 L 489.32649,156.33532 z "
         style="fill:#c0c0c0;fill-opacity:1;fill-rule:nonzero;stroke:none;stroke-width:2;stroke-linecap:butt;stroke-linejoin:miter;stroke-miterlimit:4;stroke-dashoffset:0;stroke-opacity:1" />
      <path
         id="path2347"
         d="M 434.32648,156.33531 L 422.50935,147.72349 L 410.70386,156.34912 L 415.24357,142.45277 L 403.38889,133.89267 L 418.01172,133.91607 L 422.49062,120 L 426.98832,133.91082 L 441.61111,133.87032 L 429.76801,142.44427 L 434.32648,156.33531 z "
         style="fill:#c0c0c0;fill-opacity:1;fill-rule:nonzero;stroke:none;stroke-width:2;stroke-linecap:butt;stroke-linejoin:miter;stroke-miterlimit:4;stroke-dashoffset:0;stroke-opacity:1" />
      <path
         id="path2353"
         d="M 379.32648,156.33532 L 367.50935,147.72349 L 355.70386,156.34913 L 360.24357,142.45277 L 348.38889,133.89267 L 363.01172,133.91607 L 367.49062,120 L 371.98832,133.91082 L 386.61111,133.87032 L 374.76801,142.44427 L 379.32648,156.33532 z "
         style="fill:#c0c0c0;fill-opacity:1;fill-rule:nonzero;stroke:none;stroke-width:2;stroke-linecap:butt;stroke-linejoin:miter;stroke-miterlimit:4;stroke-dashoffset:0;stroke-opacity:1" />
      <path
         id="path2359"
         d="M 324.32648,156.33531 L 312.50935,147.72349 L 300.70386,156.34913 L 305.24357,142.45277 L 293.38889,133.89266 L 308.01172,133.91606 L 312.49062,119.99999 L 316.98832,133.91082 L 331.61111,133.87032 L 319.76801,142.44427 L 324.32648,156.33531 z "
         style="fill:#c0c0c0;fill-opacity:1;fill-rule:nonzero;stroke:none;stroke-width:2;stroke-linecap:butt;stroke-linejoin:miter;stroke-miterlimit:4;stroke-dashoffset:0;stroke-opacity:1" />
      <path
         id="path2365"
         d="M 269.32649,156.33532 L 257.50936,147.72349 L 245.70386,156.34913 L 250.24358,142.45277 L 238.38889,133.89267 L 253.01173,133.91607 L 257.49063,120 L 261.98833,133.91082 L 276.61112,133.87032 L 264.76802,142.44427 L 269.32649,156.33532 z "
         style="fill:#c0c0c0;fill-opacity:1;fill-rule:nonzero;stroke:none;stroke-width:2;stroke-linecap:butt;stroke-linejoin:miter;stroke-miterlimit:4;stroke-dashoffset:0;stroke-opacity:1" />
      <path
         id="path2371"
         d="M 654.32648,156.33531 L 642.50935,147.72349 L 630.70386,156.34913 L 635.24357,142.45277 L 623.38889,133.89266 L 638.01172,133.91606 L 642.49062,119.99999 L 646.98832,133.91082 L 661.61111,133.87032 L 649.76801,142.44427 L 654.32648,156.33531 z "
         style="fill:#c0c0c0;fill-opacity:1;fill-rule:nonzero;stroke:none;stroke-width:2;stroke-linecap:butt;stroke-linejoin:miter;stroke-miterlimit:4;stroke-dashoffset:0;stroke-opacity:1" />
      <path
         id="path2377"
         d="M 599.32648,156.33531 L 587.50935,147.72349 L 575.70386,156.34913 L 580.24357,142.45277 L 568.38889,133.89266 L 583.01172,133.91606 L 587.49062,119.99999 L 591.98832,133.91082 L 606.61111,133.87032 L 594.76801,142.44427 L 599.32648,156.33531 z "
         style="fill:#c0c0c0;fill-opacity:1;fill-rule:nonzero;stroke:none;stroke-width:2;stroke-linecap:butt;stroke-linejoin:miter;stroke-miterlimit:4;stroke-dashoffset:0;stroke-opacity:1" />
      <path
         id="path2383"
         d="M 544.32649,156.33531 L 532.50936,147.72349 L 520.70386,156.34913 L 525.24358,142.45277 L 513.38889,133.89266 L 528.01173,133.91606 L 532.49063,119.99999 L 536.98833,133.91082 L 551.61112,133.87032 L 539.76802,142.44427 L 544.32649,156.33531 z "
         style="fill:#c0c0c0;fill-opacity:1;fill-rule:nonzero;stroke:none;stroke-width:2;stroke-linecap:butt;stroke-linejoin:miter;stroke-miterlimit:4;stroke-dashoffset:0;stroke-opacity:1" />
    </g>
    <path
       style="fill:#ffdd55;fill-opacity:1;fill-rule:nonzero;stroke:none;stroke-width:2;stroke-linecap:butt;stroke-linejoin:miter;stroke-miterlimit:4;stroke-dashoffset:0;stroke-opacity:1"
       d="M 461.82648,431.33533 L 450.00935,422.7235 L 438.20385,431.34914 L 442.74357,417.45278 L 430.88888,408.89267 L 445.51172,408.91608 L 449.99062,395.00001 L 454.48832,408.91083 L 469.11111,408.87033 L 457.26801,417.44428 L 461.82648,431.33533 z "
       id="path2570" />
    <path
       style="fill:#ffdd55;fill-opacity:1;fill-rule:nonzero;stroke:none;stroke-width:2;stroke-linecap:butt;stroke-linejoin:miter;stroke-miterlimit:4;stroke-dashoffset:0;stroke-opacity:1"
       d="M 406.82648,431.33531 L 395.00935,422.72349 L 383.20386,431.34912 L 387.74357,417.45277 L 375.88889,408.89267 L 390.51172,408.91607 L 394.99062,395 L 399.48832,408.91082 L 414.11111,408.87032 L 402.26801,417.44427 L 406.82648,431.33531 z "
       id="path2577" />
    <path
       style="fill:#ffdd55;fill-opacity:1;fill-rule:nonzero;stroke:none;stroke-width:2;stroke-linecap:butt;stroke-linejoin:miter;stroke-miterlimit:4;stroke-dashoffset:0;stroke-opacity:1"
       d="M 351.82648,431.33532 L 340.00935,422.7235 L 328.20386,431.34913 L 332.74357,417.45278 L 320.88889,408.89268 L 335.51172,408.91608 L 339.99062,395.00001 L 344.48832,408.91083 L 359.11111,408.87033 L 347.26801,417.44428 L 351.82648,431.33532 z "
       id="path2583" />
    <path
       style="fill:#ffdd55;fill-opacity:1;fill-rule:nonzero;stroke:none;stroke-width:2;stroke-linecap:butt;stroke-linejoin:miter;stroke-miterlimit:4;stroke-dashoffset:0;stroke-opacity:1"
       d="M 296.82648,431.33533 L 285.00935,422.7235 L 273.20386,431.34914 L 277.74357,417.45278 L 265.88889,408.89267 L 280.51172,408.91608 L 284.99062,395.00001 L 289.48832,408.91083 L 304.11111,408.87033 L 292.26801,417.44428 L 296.82648,431.33533 z "
       id="path2589" />
    <path
       style="fill:#ffdd55;fill-opacity:1;fill-rule:nonzero;stroke:none;stroke-width:2;stroke-linecap:butt;stroke-linejoin:miter;stroke-miterlimit:4;stroke-dashoffset:0;stroke-opacity:1"
       d="M 241.82648,431.33533 L 230.00935,422.7235 L 218.20385,431.34914 L 222.74357,417.45278 L 210.88888,408.89267 L 225.51172,408.91608 L 229.99062,395.00001 L 234.48832,408.91083 L 249.11111,408.87033 L 237.26801,417.44428 L 241.82648,431.33533 z "
       id="path2595" />
    <path
       style="fill:#ffdd55;fill-opacity:1;fill-rule:nonzero;stroke:none;stroke-width:2;stroke-linecap:butt;stroke-linejoin:miter;stroke-miterlimit:4;stroke-dashoffset:0;stroke-opacity:1"
       d="M 681.82648,431.33534 L 670.00935,422.72351 L 658.20386,431.34915 L 662.74357,417.45279 L 650.88889,408.89268 L 665.51172,408.91609 L 669.99062,395.00002 L 674.48832,408.91084 L 689.11111,408.87034 L 677.26801,417.44429 L 681.82648,431.33534 z "
       id="path2601" />
    <path
       style="fill:#ffdd55;fill-opacity:1;fill-rule:nonzero;stroke:none;stroke-width:2;stroke-linecap:butt;stroke-linejoin:miter;stroke-miterlimit:4;stroke-dashoffset:0;stroke-opacity:1"
       d="M 626.82648,431.33534 L 615.00935,422.72351 L 603.20386,431.34915 L 607.74357,417.45279 L 595.88889,408.89268 L 610.51172,408.91609 L 614.99062,395.00002 L 619.48832,408.91084 L 634.11111,408.87034 L 622.26801,417.44429 L 626.82648,431.33534 z "
       id="path2607" />
    <path
       style="fill:#ffdd55;fill-opacity:1;fill-rule:nonzero;stroke:none;stroke-width:2;stroke-linecap:butt;stroke-linejoin:miter;stroke-miterlimit:4;stroke-dashoffset:0;stroke-opacity:1"
       d="M 571.82648,431.33534 L 560.00935,422.72351 L 548.20386,431.34915 L 552.74357,417.45279 L 540.88889,408.89268 L 555.51172,408.91609 L 559.99062,395.00002 L 564.48832,408.91084 L 579.11111,408.87034 L 567.26801,417.44429 L 571.82648,431.33534 z "
       id="path2613" />
    <path
       style="fill:#ffdd55;fill-opacity:1;fill-rule:nonzero;stroke:none;stroke-width:2;stroke-linecap:butt;stroke-linejoin:miter;stroke-miterlimit:4;stroke-dashoffset:0;stroke-opacity:1"
       d="M 516.82649,431.33533 L 505.00936,422.7235 L 493.20386,431.34914 L 497.74358,417.45278 L 485.88889,408.89267 L 500.51173,408.91608 L 504.99063,395.00001 L 509.48833,408.91083 L 524.11112,408.87033 L 512.26802,417.44428 L 516.82649,431.33533 z "
       id="path2619" />
    <g
       id="g2922">
      <path
         id="path2629"
         d="M 489.32649,476.33531 L 477.50936,467.72348 L 465.70386,476.34912 L 470.24358,462.45276 L 458.38889,453.89265 L 473.01173,453.91606 L 477.49063,439.99999 L 481.98833,453.91081 L 496.61112,453.87031 L 484.76802,462.44426 L 489.32649,476.33531 z "
         style="fill:#c0c0c0;fill-opacity:1;fill-rule:nonzero;stroke:none;stroke-width:2;stroke-linecap:butt;stroke-linejoin:miter;stroke-miterlimit:4;stroke-dashoffset:0;stroke-opacity:1" />
      <path
         id="path2635"
         d="M 434.32648,476.3353 L 422.50935,467.72348 L 410.70386,476.34911 L 415.24357,462.45276 L 403.38889,453.89266 L 418.01172,453.91606 L 422.49062,439.99999 L 426.98832,453.91081 L 441.61111,453.87031 L 429.76801,462.44426 L 434.32648,476.3353 z "
         style="fill:#c0c0c0;fill-opacity:1;fill-rule:nonzero;stroke:none;stroke-width:2;stroke-linecap:butt;stroke-linejoin:miter;stroke-miterlimit:4;stroke-dashoffset:0;stroke-opacity:1" />
      <path
         id="path2641"
         d="M 379.32648,476.3353 L 367.50935,467.72348 L 355.70386,476.34911 L 360.24357,462.45276 L 348.38889,453.89266 L 363.01172,453.91606 L 367.49062,439.99999 L 371.98832,453.91081 L 386.61111,453.87031 L 374.76801,462.44426 L 379.32648,476.3353 z "
         style="fill:#c0c0c0;fill-opacity:1;fill-rule:nonzero;stroke:none;stroke-width:2;stroke-linecap:butt;stroke-linejoin:miter;stroke-miterlimit:4;stroke-dashoffset:0;stroke-opacity:1" />
      <path
         id="path2647"
         d="M 324.32648,476.33531 L 312.50935,467.72348 L 300.70386,476.34912 L 305.24357,462.45276 L 293.38889,453.89265 L 308.01172,453.91606 L 312.49062,439.99999 L 316.98832,453.91081 L 331.61111,453.87031 L 319.76801,462.44426 L 324.32648,476.33531 z "
         style="fill:#c0c0c0;fill-opacity:1;fill-rule:nonzero;stroke:none;stroke-width:2;stroke-linecap:butt;stroke-linejoin:miter;stroke-miterlimit:4;stroke-dashoffset:0;stroke-opacity:1" />
      <path
         id="path2653"
         d="M 269.32649,476.33531 L 257.50936,467.72348 L 245.70386,476.34912 L 250.24358,462.45276 L 238.38889,453.89265 L 253.01173,453.91606 L 257.49063,439.99999 L 261.98833,453.91081 L 276.61112,453.87031 L 264.76802,462.44426 L 269.32649,476.33531 z "
         style="fill:#c0c0c0;fill-opacity:1;fill-rule:nonzero;stroke:none;stroke-width:2;stroke-linecap:butt;stroke-linejoin:miter;stroke-miterlimit:4;stroke-dashoffset:0;stroke-opacity:1" />
      <path
         id="path2659"
         d="M 654.32648,476.33531 L 642.50935,467.72348 L 630.70386,476.34912 L 635.24357,462.45276 L 623.38889,453.89265 L 638.01172,453.91606 L 642.49062,439.99999 L 646.98832,453.91081 L 661.61111,453.87031 L 649.76801,462.44426 L 654.32648,476.33531 z "
         style="fill:#c0c0c0;fill-opacity:1;fill-rule:nonzero;stroke:none;stroke-width:2;stroke-linecap:butt;stroke-linejoin:miter;stroke-miterlimit:4;stroke-dashoffset:0;stroke-opacity:1" />
      <path
         id="path2665"
         d="M 599.32648,476.33531 L 587.50935,467.72348 L 575.70386,476.34912 L 580.24357,462.45276 L 568.38889,453.89265 L 583.01172,453.91606 L 587.49062,439.99999 L 591.98832,453.91081 L 606.61111,453.87031 L 594.76801,462.44426 L 599.32648,476.33531 z "
         style="fill:#c0c0c0;fill-opacity:1;fill-rule:nonzero;stroke:none;stroke-width:2;stroke-linecap:butt;stroke-linejoin:miter;stroke-miterlimit:4;stroke-dashoffset:0;stroke-opacity:1" />
      <path
         id="path2671"
         d="M 544.32649,476.33531 L 532.50936,467.72348 L 520.70386,476.34912 L 525.24358,462.45276 L 513.38889,453.89265 L 528.01173,453.91606 L 532.49063,439.99999 L 536.98833,453.91081 L 551.61112,453.87031 L 539.76802,462.44426 L 544.32649,476.33531 z "
         style="fill:#c0c0c0;fill-opacity:1;fill-rule:nonzero;stroke:none;stroke-width:2;stroke-linecap:butt;stroke-linejoin:miter;stroke-miterlimit:4;stroke-dashoffset:0;stroke-opacity:1" />
    </g>
    <g
       id="g2911">
      <path
         style="fill:#ffdd55;fill-opacity:1;fill-rule:nonzero;stroke:none;stroke-width:2;stroke-linecap:butt;stroke-linejoin:miter;stroke-miterlimit:4;stroke-dashoffset:0;stroke-opacity:1"
         d="M 461.82648,431.33533 L 450.00935,422.7235 L 438.20385,431.34914 L 442.74357,417.45278 L 430.88888,408.89267 L 445.51172,408.91608 L 449.99062,395.00001 L 454.48832,408.91083 L 469.11111,408.87033 L 457.26801,417.44428 L 461.82648,431.33533 z "
         id="path2893" />
      <path
         style="fill:#ffdd55;fill-opacity:1;fill-rule:nonzero;stroke:none;stroke-width:2;stroke-linecap:butt;stroke-linejoin:miter;stroke-miterlimit:4;stroke-dashoffset:0;stroke-opacity:1"
         d="M 406.82648,431.33531 L 395.00935,422.72349 L 383.20386,431.34912 L 387.74357,417.45277 L 375.88889,408.89267 L 390.51172,408.91607 L 394.99062,395 L 399.48832,408.91082 L 414.11111,408.87032 L 402.26801,417.44427 L 406.82648,431.33531 z "
         id="path2895" />
      <path
         style="fill:#ffdd55;fill-opacity:1;fill-rule:nonzero;stroke:none;stroke-width:2;stroke-linecap:butt;stroke-linejoin:miter;stroke-miterlimit:4;stroke-dashoffset:0;stroke-opacity:1"
         d="M 351.82648,431.33532 L 340.00935,422.7235 L 328.20386,431.34913 L 332.74357,417.45278 L 320.88889,408.89268 L 335.51172,408.91608 L 339.99062,395.00001 L 344.48832,408.91083 L 359.11111,408.87033 L 347.26801,417.44428 L 351.82648,431.33532 z "
         id="path2897" />
      <path
         style="fill:#ffdd55;fill-opacity:1;fill-rule:nonzero;stroke:none;stroke-width:2;stroke-linecap:butt;stroke-linejoin:miter;stroke-miterlimit:4;stroke-dashoffset:0;stroke-opacity:1"
         d="M 296.82648,431.33533 L 285.00935,422.7235 L 273.20386,431.34914 L 277.74357,417.45278 L 265.88889,408.89267 L 280.51172,408.91608 L 284.99062,395.00001 L 289.48832,408.91083 L 304.11111,408.87033 L 292.26801,417.44428 L 296.82648,431.33533 z "
         id="path2899" />
      <path
         style="fill:#ffdd55;fill-opacity:1;fill-rule:nonzero;stroke:none;stroke-width:2;stroke-linecap:butt;stroke-linejoin:miter;stroke-miterlimit:4;stroke-dashoffset:0;stroke-opacity:1"
         d="M 241.82648,431.33533 L 230.00935,422.7235 L 218.20385,431.34914 L 222.74357,417.45278 L 210.88888,408.89267 L 225.51172,408.91608 L 229.99062,395.00001 L 234.48832,408.91083 L 249.11111,408.87033 L 237.26801,417.44428 L 241.82648,431.33533 z "
         id="path2901" />
      <path
         style="fill:#ffdd55;fill-opacity:1;fill-rule:nonzero;stroke:none;stroke-width:2;stroke-linecap:butt;stroke-linejoin:miter;stroke-miterlimit:4;stroke-dashoffset:0;stroke-opacity:1"
         d="M 681.82648,431.33534 L 670.00935,422.72351 L 658.20386,431.34915 L 662.74357,417.45279 L 650.88889,408.89268 L 665.51172,408.91609 L 669.99062,395.00002 L 674.48832,408.91084 L 689.11111,408.87034 L 677.26801,417.44429 L 681.82648,431.33534 z "
         id="path2903" />
      <path
         style="fill:#ffdd55;fill-opacity:1;fill-rule:nonzero;stroke:none;stroke-width:2;stroke-linecap:butt;stroke-linejoin:miter;stroke-miterlimit:4;stroke-dashoffset:0;stroke-opacity:1"
         d="M 626.82648,431.33534 L 615.00935,422.72351 L 603.20386,431.34915 L 607.74357,417.45279 L 595.88889,408.89268 L 610.51172,408.91609 L 614.99062,395.00002 L 619.48832,408.91084 L 634.11111,408.87034 L 622.26801,417.44429 L 626.82648,431.33534 z "
         id="path2905" />
      <path
         style="fill:#ffdd55;fill-opacity:1;fill-rule:nonzero;stroke:none;stroke-width:2;stroke-linecap:butt;stroke-linejoin:miter;stroke-miterlimit:4;stroke-dashoffset:0;stroke-opacity:1"
         d="M 571.82648,431.33534 L 560.00935,422.72351 L 548.20386,431.34915 L 552.74357,417.45279 L 540.88889,408.89268 L 555.51172,408.91609 L 559.99062,395.00002 L 564.48832,408.91084 L 579.11111,408.87034 L 567.26801,417.44429 L 571.82648,431.33534 z "
         id="path2907" />
      <path
         style="fill:#ffdd55;fill-opacity:1;fill-rule:nonzero;stroke:none;stroke-width:2;stroke-linecap:butt;stroke-linejoin:miter;stroke-miterlimit:4;stroke-dashoffset:0;stroke-opacity:1"
         d="M 516.82649,431.33533 L 505.00936,422.7235 L 493.20386,431.34914 L 497.74358,417.45278 L 485.88889,408.89267 L 500.51173,408.91608 L 504.99063,395.00001 L 509.48833,408.91083 L 524.11112,408.87033 L 512.26802,417.44428 L 516.82649,431.33533 z "
         id="path2909" />
    </g>
  </g>
</svg>
