<?xml version="1.0" encoding="UTF-8" standalone="no"?>
<svg xmlns:dc="http://purl.org/dc/elements/1.1/" xmlns:cc="http://web.resource.org/cc/" xmlns:rdf="http://www.w3.org/1999/02/22-rdf-syntax-ns#" xmlns="http://www.w3.org/2000/svg" width="1000" height="600">
  <metadata>
    <rdf:RDF>
      <cc:Work rdf:about="">
        <dc:format>image/svg+xml</dc:format>
        <dc:type rdf:resource="http://purl.org/dc/dcmitype/StillImage"/>
        <dc:description>"The Flag of South Dakota shall consist of a field of blue, one and two-thirds as long as it is wide, in the center of which shall be a blazing sun in gold, two-fifths as wide in diameter as the width of the flag.  Above this sun shall be arranged in the arc of the circle, in gold letters, the words 'South Dakota' and below this sun in the arc of the circle shall be arranged the words in gold letters, 'The Sunshine State', and on the reverse of the blazing sun shall be printed in dark blue the Great Seal of the State Of South Dakota.  The edges of the flag shall be trimmed with a fringe of gold, to be in proportion to the width of the flag.  The staff shall be surmounted by a spearhead to which shall be attached cord and tassels of suitable length and size."</dc:description>
        <dc:title>Flag of South Dakota (1909 - 1963)</dc:title>
        <dc:creator>
          <cc:Agent>
            <dc:title>Devin Cook</dc:title>
          </cc:Agent>
        </dc:creator>
        <dc:contributor>
          <cc:Agent>
            <dc:title>Devin Cook (flags@devincook.com)</dc:title>
          </cc:Agent>
        </dc:contributor>
        <dc:publisher>
          <cc:Agent>
            <dc:title>Devin Cook</dc:title>
          </cc:Agent>
        </dc:publisher>
      </cc:Work>
    </rdf:RDF>
  </metadata>
  <rect style="fill:rgb(0,116,168)" width="1000" height="600"/>
  <g style="fill:rgb(255,240,80)">
    <path d="M 480.53935,517.43539 L 480.53935,494.87077 L 485.01468,494.87077 L 489.4901,494.87077 L 489.4901,503.95931 L 489.4901,513.04783 L 498.76054,513.04783 L 508.03097,513.04783 L 508.03097,504.2727 L 508.03097,495.49758 L 512.5063,495.49758 L 516.98172,495.49758 L 516.98172,517.74878 L 516.98172,540 L 512.5063,540 L 508.03097,540 L 508.03097,530.28468 L 508.03097,520.56936 L 498.76054,520.56936 L 489.4901,520.56936 L 489.4901,530.28468 L 489.4901,540 L 485.01468,540 L 480.53935,540 L 480.53935,517.43539 z M 528.8934,536.46206 C 528.17666,532.96554 522.66233,494.10717 522.85721,493.92555 C 522.96626,493.82395 524.9839,493.54054 527.34089,493.29575 C 531.48857,492.86498 531.63727,492.89827 531.96511,494.33082 C 532.63884,497.27472 538.22402,536.93345 537.99506,537.14852 C 537.86594,537.26988 535.84774,537.56778 533.51033,537.81053 L 529.26041,538.25188 L 528.8934,536.46206 z M 452.40838,536.47108 C 441.6557,534.4542 436.07868,529.43681 435.30626,521.08483 C 434.92466,516.95934 434.86658,516.99223 441.06146,517.82466 C 443.87494,518.20274 443.97046,518.28847 444.3797,520.80194 C 444.61135,522.22534 445.2222,524.02094 445.73705,524.79217 C 448.27087,528.58795 457.1357,530.11479 460.34047,527.30741 C 464.5349,523.6331 462.76284,520.7216 453.48972,516.05183 C 442.78524,510.66113 439.27097,505.91711 440.93734,499.10685 C 442.5149,492.66011 448.40748,489.28143 456.63247,490.10758 C 467.48354,491.19749 474.09266,496.5187 474.13193,504.19696 L 474.14594,506.9418 L 470.15638,506.49929 C 465.77311,506.01311 464.55583,505.3673 464.55583,503.52795 C 464.55583,501.40181 463.25398,499.81416 460.50838,498.59203 C 456.63583,496.86823 452.73756,496.99823 450.78108,498.91645 C 449.91794,499.76263 449.21177,500.85239 449.21177,501.33816 C 449.21177,502.95734 452.41577,505.39168 458.41366,508.32955 C 469.0278,513.52844 471.92652,517.03265 471.46697,524.10889 C 470.99446,531.38357 465.96252,536.04133 458.05471,536.52388 C 455.82828,536.65973 453.28754,536.63598 452.40838,536.47108 z M 543.3773,514.15129 L 536.93734,492.677 L 541.18476,491.32081 L 545.43228,489.96463 L 547.03068,491.39719 C 558.14047,501.35469 571.5774,513.0098 571.75116,512.83951 C 571.8726,512.72041 570.11426,506.44327 567.84358,498.89032 C 565.57298,491.33737 563.91708,484.98912 564.1638,484.7831 C 564.7255,484.31418 571.96486,482.34439 571.96486,482.66048 C 571.96486,482.96497 584.17644,523.76455 584.5637,524.75398 C 584.75436,525.24108 583.23343,525.99972 580.3374,526.8621 L 575.8134,528.20928 L 563.49986,517.30555 C 551.86313,507.00115 548.93244,504.5731 549.73231,505.89954 C 550.28806,506.82109 558.03276,533.18915 557.79612,533.35458 C 557.67708,533.43785 556.28508,533.85689 554.70271,534.28577 C 553.12034,534.71466 551.37372,535.19157 550.82143,535.34557 C 550.00438,535.57339 548.61708,531.62364 543.3773,514.15129 z M 416.92514,526.37071 C 414.81526,525.46999 413.03474,524.70662 412.96831,524.67434 C 412.90188,524.64205 411.80748,517.57047 410.53634,508.95972 C 409.26521,500.34896 408.0247,492.80321 407.7797,492.19139 C 407.46626,491.40883 405.6343,494.96685 401.60191,504.19004 C 395.23174,518.75989 396.36684,517.63131 390.58562,515.14314 L 387.90166,513.98802 L 396.94178,493.46049 C 401.91391,482.17035 406.28642,472.94938 406.65852,472.96944 C 407.03052,472.98951 408.91423,473.76517 410.84441,474.69313 L 414.35378,476.38033 L 416.87676,493.46966 C 418.26444,502.8688 419.58982,510.34332 419.82214,510.07973 C 420.05436,509.81613 422.78287,503.74776 425.8855,496.59446 C 428.98802,489.44117 431.69359,483.60236 431.89788,483.61933 C 432.10207,483.63631 433.88374,484.41197 435.85692,485.34302 L 439.44463,487.03584 L 430.42255,507.56316 C 425.46041,518.85318 421.25666,528.072 421.08079,528.04943 C 420.90502,528.02686 419.03494,527.27144 416.92514,526.37071 z M 586.66898,500.7057 C 580.86732,490.12543 576.0485,481.31057 575.96028,481.11711 C 575.77702,480.71484 604.70777,465.41143 605.65154,465.41143 C 606.30482,465.41143 609.45545,471.51968 608.99513,471.89367 C 608.84758,472.01354 604.0517,474.57169 598.33759,477.57845 C 592.62348,480.58521 587.94828,483.17554 587.94828,483.33474 C 587.94828,483.99871 591.80402,491.04789 592.3471,491.377 C 592.67234,491.57407 597.32047,489.43722 602.67622,486.62847 L 612.41398,481.52164 L 613.58518,483.02515 C 614.8855,484.69449 616.3878,487.91061 616.00553,488.20654 C 615.87026,488.31121 612.30722,490.17085 608.08754,492.33908 C 603.86796,494.50731 599.487,496.82915 598.35218,497.49873 L 596.28886,498.71615 L 598.81452,503.64081 C 600.20364,506.34937 601.59497,508.71989 601.90649,508.90861 C 602.21791,509.09735 607.2845,506.72119 613.16537,503.62826 C 619.04633,500.53533 624.11686,498.00475 624.43318,498.00475 C 624.74959,498.00475 625.72658,499.39405 626.60431,501.09209 L 628.20012,504.17943 L 624.21756,506.34234 C 614.67401,511.52541 598.31993,519.94257 597.79298,519.94257 C 597.47638,519.94257 592.47065,511.28598 586.66898,500.7057 z M 369.29436,501.82229 C 366.24242,501.19011 362.49132,499.21603 358.5751,496.18117 C 351.46146,490.66853 349.72733,483.59421 353.77159,476.58555 C 356.36863,472.08484 371.67612,450.7523 372.5094,450.47245 C 373.21836,450.23434 379.52374,454.61003 379.52374,455.34019 C 379.52374,455.60282 376.17026,460.44429 372.07154,466.09902 C 367.97292,471.75374 363.80124,477.6343 362.80111,479.16692 C 359.53423,484.17372 360.84406,488.88129 366.39065,492.06804 C 368.74697,493.42181 369.7759,493.66812 371.64166,493.32498 C 374.76127,492.75122 376.06044,491.34279 385.24774,478.57411 C 395.86927,463.81217 394.37964,465.06962 398.12287,467.70609 C 399.8477,468.92093 401.42402,470.17682 401.62582,470.49695 C 402.04754,471.16595 386.94962,492.34427 382.89122,496.77656 C 378.88198,501.15508 374.29356,502.85785 369.29436,501.82229 z M 645.47196,479.9844 C 643.57836,479.03638 641.93369,477.94706 641.81714,477.56371 C 641.7005,477.18036 642.83858,475.53996 644.34617,473.91835 L 647.08726,470.97 L 649.32492,472.08549 C 654.015,474.42353 659.02678,472.72478 662.37526,467.66204 C 664.37474,464.63892 664.4742,462.37376 662.70463,460.1682 C 660.70217,457.67244 658.53458,458.0489 649.88335,462.39497 C 642.82658,465.94004 641.81628,466.27327 638.12479,466.27327 C 633.05446,466.27327 629.6838,464.32922 627.66482,460.24053 C 624.75074,454.33895 626.535,448.28997 632.94233,442.34915 C 637.29353,438.31469 640.91964,436.6109 645.19356,436.59263 C 648.39314,436.57896 653.82482,438.64528 654.25212,440.03868 C 654.35993,440.39027 653.20447,442.06349 651.6845,443.75696 L 648.92086,446.83598 L 646.22902,445.78007 C 643.89458,444.86432 643.26367,444.83644 641.47615,445.57005 C 638.27686,446.88312 634.62012,451.21514 634.62012,453.69217 C 634.62012,458.44895 637.53554,458.3845 647.44025,453.40873 C 658.57663,447.8142 663.31337,447.74852 668.77692,453.11292 C 675.0198,459.24242 674.14169,467.37973 666.4205,474.9494 C 659.47356,481.76009 652.40988,483.45785 645.47196,479.9844 z M 331.08904,471.95115 C 327.12663,470.01534 321.47282,464.21107 319.45333,460.00585 C 317.37655,455.68128 317.51174,451.19541 319.85374,446.71911 C 320.84912,444.81658 321.95124,443.17321 322.30287,443.06716 C 322.65453,442.96112 324.32733,444.0669 326.0202,445.52446 L 329.09819,448.17457 L 327.75175,451.14458 C 326.60847,453.66641 326.50833,454.48971 327.08809,456.60054 C 328.85785,463.04399 336.82762,467.15494 340.52407,463.53105 C 342.52179,461.57251 342.08501,459.47699 338.03979,451.61248 C 333.86744,443.50071 333.06535,440.45755 334.10344,436.67796 C 335.45414,431.76028 340.56015,427.84097 345.63876,427.82363 C 351.07092,427.80508 359.25353,433.90151 362.67122,440.51363 C 364.93922,444.90154 364.65938,450.37856 361.99202,453.80705 L 360.17494,456.14264 L 356.99484,453.02494 C 354.22035,450.3049 353.90492,449.74205 354.52181,448.61202 C 356.37497,445.21731 354.7678,440.75542 350.63461,437.8201 C 347.70834,435.74192 345.59573,435.45703 344.0861,436.93704 C 342.35542,438.63372 342.96043,441.18094 346.87051,448.66021 C 352.34728,459.13628 352.62422,463.81866 348.06797,468.90612 C 343.69543,473.78847 337.22508,474.94886 331.08904,471.95115 z M 676.63126,435.32834 C 668.3527,429.46613 661.31378,424.66977 660.9893,424.66977 C 660.66473,424.66977 658.74204,426.92623 656.71663,429.68412 C 654.69113,432.44202 652.89382,434.69848 652.72246,434.69848 C 652.29574,434.69848 646.76758,430.78488 646.76758,430.4828 C 646.76758,430.34948 651.52889,423.77388 657.34831,415.87037 L 667.92905,401.50035 L 671.02332,403.76511 L 674.11759,406.02988 L 670.35228,411.19051 C 668.28146,414.02886 666.58706,416.51114 666.58706,416.7067 C 666.58706,416.90225 673.27615,421.78158 681.4517,427.54965 C 689.62726,433.31772 696.51478,438.20256 696.75737,438.40485 C 696.99996,438.60714 695.9575,440.39586 694.44089,442.37978 L 691.68338,445.9869 L 676.63126,435.32834 z M 291.39121,422.62421 C 281.07813,403.59195 279.14834,399.96572 279.1586,399.63855 C 279.17191,399.21554 318.39666,378.91258 319.19321,378.91642 C 319.6629,378.91868 334.38347,405.6322 334.90731,407.43291 C 335.0076,407.77765 333.60296,408.84082 331.78589,409.7955 L 328.48213,411.53128 L 322.90072,401.02037 C 319.83094,395.23936 317.24737,390.42084 317.15943,390.31253 C 317.07148,390.20422 314.94498,391.12996 312.43387,392.36972 L 307.86819,394.62386 L 312.14013,402.59537 C 314.4897,406.9797 316.96189,411.47107 317.63393,412.5762 L 318.85581,414.58551 L 315.6005,416.20274 C 313.81008,417.09221 312.09082,417.66585 311.77993,417.47748 C 311.46907,417.28911 308.99617,412.97763 306.28461,407.8964 C 303.57304,402.81516 301.26482,398.5559 301.15519,398.43138 C 301.04559,398.30686 298.48539,399.52524 295.46587,401.13889 L 289.97581,404.07279 L 292.46645,408.57344 C 298.95,420.28949 301.52435,425.19501 301.52435,425.83368 C 301.52435,426.21612 300.10308,427.23512 298.36597,428.0981 L 295.20759,429.66718 L 291.39121,422.62421 z M 690.20105,411.97499 C 682.01945,403.27158 674.59894,395.37375 673.71103,394.42428 L 672.0967,392.69794 L 674.2181,388.39897 L 676.33932,384.10002 L 678.97548,384.3457 C 680.42527,384.48082 691.37407,385.29282 703.3061,386.15017 C 715.23804,387.00751 725.10588,387.81223 725.23462,387.93844 C 725.36335,388.06464 724.53334,390.02741 723.39026,392.30012 L 721.31177,396.43235 L 715.7381,396.04448 L 710.16434,395.65661 L 706.27721,403.2588 C 704.13929,407.44001 702.39007,411.20974 702.39007,411.63597 C 702.39007,412.06218 704.0286,414.03423 706.03126,416.01828 L 709.67244,419.62567 L 707.80802,423.44989 C 706.78265,425.55322 705.74854,427.3923 705.51026,427.53674 C 705.2718,427.68118 698.38274,420.67839 690.20105,411.97499 z M 701.71865,395.13188 C 701.76185,394.60401 685.18399,393.0661 684.68834,393.55201 C 684.47359,393.76262 686.9934,396.62981 690.28812,399.92352 L 696.27842,405.91209 L 698.98246,400.71795 C 700.46969,397.86117 701.70098,395.34745 701.71865,395.13188 z M 272.45073,382.96048 C 271.8279,380.7046 271.42555,378.75982 271.55669,378.63874 C 271.68779,378.51765 273.809,377.84585 276.27045,377.14585 C 278.7319,376.44585 282.83166,375.27606 285.38104,374.54631 C 288.59003,373.62776 290.01624,372.91698 290.01624,372.23628 C 290.01624,371.6955 288.97446,367.80551 287.7011,363.59186 L 285.38599,355.93068 L 276.03318,358.57078 C 270.88912,360.02282 266.50471,361.11183 266.28997,360.99079 C 265.71777,360.66822 263.64806,353.15846 264.02855,352.78544 C 264.20652,352.61096 274.08247,349.70749 285.9751,346.33329 L 307.59807,340.19837 L 308.75958,343.95201 C 309.39839,346.01651 309.79101,348.03789 309.63205,348.44397 C 309.47309,348.85005 305.82199,350.16021 301.51841,351.35543 C 297.21485,352.55065 293.565,353.85508 293.40763,354.25416 C 293.16453,354.87056 297.437,370.04537 298.02864,370.66686 C 298.14111,370.78501 301.83757,369.86833 306.24301,368.62978 C 310.64844,367.39122 314.52174,366.37786 314.85035,366.37786 C 315.45382,366.37786 317.92205,374.35551 317.44537,374.76532 C 317.15128,375.01815 274.55458,387.06814 273.96781,387.06447 C 273.75627,387.06316 273.07359,385.21636 272.45073,382.96048 z M 684.80825,375.92334 C 683.0501,375.42186 681.5262,374.93624 681.42194,374.84418 C 681.23042,374.67507 690.9437,341.22186 691.32886,340.7239 C 691.64345,340.31727 698.55602,342.55818 698.54066,343.06178 C 698.53327,343.30272 697.81404,345.88285 696.94226,348.79541 C 696.07058,351.70797 695.3574,354.41636 695.3574,354.81406 C 695.3574,355.21881 701.47942,357.25141 709.263,359.43089 C 716.91103,361.57244 725.07276,363.88676 727.3999,364.57381 L 731.63129,365.82301 L 730.32857,370.20095 C 729.41599,373.26796 728.7702,374.4827 728.17212,374.25767 C 724.8271,372.99929 692.775,364.31308 692.49372,364.58878 C 692.29903,364.77968 691.4021,367.44625 690.50057,370.51452 C 689.59894,373.58278 688.6686,376.26011 688.43311,376.46414 C 688.19762,376.66818 686.56639,376.42481 684.80825,375.92334 z M 713.71385,341.61822 C 701.8326,340.5008 691.96543,339.44323 691.78678,339.26809 C 691.48678,338.97395 693.72828,312.72392 694.42706,308.34849 L 694.73542,306.41724 L 698.4029,306.70256 C 700.42006,306.85949 702.10956,307.0234 702.15756,307.06682 C 702.20546,307.11023 701.73468,312.50485 701.11145,319.05486 C 700.48812,325.60486 700.04086,331.03405 700.11756,331.11973 C 700.19436,331.20542 702.43164,331.45573 705.0895,331.676 L 709.92194,332.07647 L 710.28242,330.26663 C 710.48076,329.27121 710.98975,324.29643 711.41369,319.21155 L 712.18428,309.96633 L 715.61868,309.96633 C 718.10527,309.96633 719.15618,310.22988 719.42681,310.92129 C 719.63234,311.4465 719.36575,316.45303 718.8342,322.04689 C 718.30265,327.64075 718.05343,332.40661 718.28047,332.63769 C 718.50742,332.86877 721.31129,333.25441 724.51116,333.49467 L 730.32914,333.9315 L 730.7262,329.94055 C 730.9446,327.74553 731.46252,322.21234 731.87724,317.64457 L 732.63113,309.33953 L 736.3711,309.33953 C 740.84882,309.33953 740.5686,307.35388 738.80268,326.57639 C 737.28386,343.1081 737.16838,343.84212 736.10306,343.73157 C 735.6702,343.68664 725.595,342.73564 713.71385,341.61822 z M 299.2744,333.50839 L 298.81425,326.88979 L 297.13246,326.90178 C 296.20745,326.90839 287.69693,327.60403 278.22022,328.44767 C 268.74349,329.29131 260.918,329.91115 260.83022,329.8251 C 260.74245,329.73904 260.4742,327.78891 260.2341,325.49147 C 259.81129,321.44547 259.84541,321.30412 261.32095,320.99065 C 262.1588,320.81265 270.46846,320.05242 279.78681,319.30125 C 289.10518,318.55008 296.96691,317.72877 297.25729,317.47612 C 297.54767,317.22348 297.54094,314.19079 297.24232,310.7368 L 296.69939,304.45686 L 300.23072,304.1494 C 302.17296,303.98029 303.93252,304.02118 304.14088,304.24026 C 304.58054,304.70253 307.57683,338.72828 307.20638,339.05219 C 307.07017,339.17128 305.33331,339.46184 303.34664,339.69785 L 299.73457,340.12697 L 299.2744,333.50839 z M 684.81247,220.61386 L 682.46892,216.50546 L 685.17007,213.07298 C 686.65567,211.18511 688.11708,209.49153 688.41756,209.30944 C 688.71804,209.12737 688.96399,208.55627 688.96399,208.04035 C 688.96399,207.27169 684.66588,199.55751 680.93254,193.62576 C 680.12671,192.34536 679.94614,192.3289 675.42108,193.12268 C 672.84799,193.57405 670.39692,193.9582 669.97423,193.97633 C 669.19231,194.00987 664.39241,186.55008 664.88508,186.06705 C 665.4127,185.54976 712.00121,178.84002 712.84946,179.15915 C 713.84239,179.5327 717.90386,186.32545 717.60991,187.12107 C 717.36242,187.79118 687.66319,224.72224 687.37183,224.72224 C 687.25308,224.72224 686.10146,222.87347 684.81247,220.61386 z M 700.41449,194.81058 C 703.57222,191.11445 706.0997,188.03928 706.03116,187.97691 C 705.86642,187.82702 688.80742,190.81356 688.62002,191.0251 C 688.47382,191.19018 694.28047,201.48722 694.53574,201.51558 C 694.61138,201.52397 697.25676,198.50673 700.41449,194.81058 z M 303.16064,217.15869 C 301.77497,216.82053 300.51521,216.4203 300.36118,216.2693 C 300.20715,216.1183 300.8613,214.19515 301.81483,211.99563 L 303.54848,207.99651 L 306.29452,208.61256 C 311.21772,209.71704 315.87179,206.23381 317.52754,200.2055 C 318.75437,195.73875 315.3627,191.31936 311.60516,192.48856 C 310.91302,192.70392 307.26488,195.76227 303.49818,199.28488 C 298.02439,204.40392 296.0531,205.85335 293.67813,206.50526 C 288.36443,207.9638 283.06296,206.02314 280.01142,201.5024 C 274.53265,193.38587 283.49577,176.3227 293.74526,175.35718 C 296.94943,175.05535 301.52435,176.09241 301.52435,177.12057 C 301.52435,177.43093 300.75992,179.21292 299.82563,181.08055 L 298.1269,184.47622 L 294.98284,184.38511 C 292.12694,184.30234 291.64198,184.50441 289.69115,186.59 C 285.91636,190.62559 285.14642,196.57688 288.25334,197.70367 C 290.62802,198.56486 291.97275,197.75911 298.63904,191.48066 C 306.30568,184.26007 307.89328,183.3538 312.87555,183.3538 C 315.92062,183.3538 317.17179,183.69802 319.58867,185.20067 C 323.27503,187.49264 325.68099,190.96497 326.21141,194.75883 C 327.10131,201.124 321.58335,211.81072 315.5044,215.49532 C 312.19409,217.50177 307.27988,218.16398 303.16064,217.15869 z M 326.4586,180.64451 C 319.30279,179.05004 309.91167,170.99263 307.33261,164.23472 C 304.44502,156.66838 306.16793,148.97431 312.17396,142.61435 C 317.2475,137.24184 321.37739,135.404 328.37662,135.404 C 333.13831,135.404 334.28459,135.63675 337.63719,137.28438 C 342.40745,139.62873 349.35713,146.26584 351.41976,150.44707 C 352.69904,153.04039 352.96796,154.55424 352.97847,159.22219 C 352.98993,164.31877 352.80601,165.19615 351.07314,168.31072 C 345.73931,177.89753 336.00987,182.77272 326.4586,180.64451 z M 337.96668,171.11314 C 339.8153,170.17618 342.60384,167.35691 343.64263,165.37464 C 344.65582,163.44126 344.53322,158.0212 343.41708,155.40233 C 342.17363,152.4847 336.27615,146.89612 332.59924,145.15108 C 326.47534,142.24471 319.87348,144.20197 316.44288,149.94098 C 312.52146,156.50105 315.60015,163.83244 324.8836,170.04113 C 328.80816,172.66584 334.05502,173.09577 337.96668,171.11314 z M 657.57372,179.11146 C 656.71673,178.16974 655.35487,176.65675 654.54742,175.74927 L 653.07938,174.09929 L 667.82988,162.09892 L 682.58047,150.09854 L 678.57967,145.39841 C 676.37916,142.81333 674.57878,140.38976 674.57878,140.01268 C 674.57878,139.6356 675.75727,138.37316 677.19766,137.20726 L 679.81654,135.08744 L 691.42908,148.72181 L 703.04153,162.35617 L 700.3183,164.70495 C 698.8205,165.99679 697.41794,167.05451 697.20156,167.05544 C 696.98508,167.05637 695.02322,164.9417 692.84172,162.35617 C 690.66022,159.77064 688.63394,157.65521 688.33884,157.65521 C 688.04364,157.65521 681.66223,162.63168 674.15782,168.71403 C 666.6534,174.79639 660.20249,180.0093 659.82262,180.29827 C 659.4005,180.61933 658.52575,180.15773 657.57372,179.11146 z M 635.25948,154.59871 C 629.39974,152.70994 622.63423,147.14961 619.85484,141.9381 C 618.65638,139.69098 618.3702,138.15175 618.3463,133.82585 C 618.3197,128.98787 618.52217,128.07632 620.50399,124.11054 C 623.51369,118.08784 629.78182,111.95451 634.80396,110.11819 C 640.53497,108.02264 646.14079,108.24506 651.3006,110.77269 C 656.47682,113.30829 661.06668,117.78042 663.24127,122.40691 C 664.61273,125.32472 664.91935,126.86893 664.86876,130.60305 C 664.81538,134.54145 664.47977,135.85026 662.53826,139.69158 C 659.76732,145.1742 654.54463,150.67442 649.90466,152.99653 C 647.23039,154.33488 645.36242,154.77033 641.65289,154.92019 C 639.01558,155.02673 636.13855,154.88207 635.25948,154.59871 z M 644.45052,145.42763 C 649.58652,143.03822 656.37679,133.76904 656.34358,129.19263 C 656.2998,123.15868 649.63212,116.91006 643.25119,116.92317 C 638.64492,116.93264 631.3807,123.00858 628.37657,129.36452 C 624.9894,136.53064 628.47276,143.93996 636.38729,146.40376 C 638.62889,147.10158 641.63446,146.73772 644.45052,145.42763 z M 364.21874,148.74293 C 360.2863,147.89736 355.65179,143.13127 345.45828,129.44982 L 337.28605,118.48128 L 339.38456,116.80087 C 340.53873,115.87664 342.21858,114.69401 343.11754,114.17282 L 344.75202,113.22518 L 353.9863,125.47557 C 359.06518,132.21328 363.93986,138.2201 364.81894,138.82405 C 367.49762,140.66435 369.72406,140.88131 372.69756,139.59179 C 376.6445,137.88013 378.88438,135.00884 378.88438,131.66101 C 378.88438,128.71774 378.55769,128.21062 365.71759,111.22453 C 362.4102,106.84928 359.70425,102.98909 359.70425,102.64633 C 359.70425,102.30357 361.2942,100.94953 363.23762,99.637354 C 366.65244,97.331587 366.80066,97.292246 367.65583,98.464147 C 368.14246,99.13105 372.1495,104.47168 376.56031,110.33221 C 385.9757,122.84208 387.76198,125.83764 388.25878,129.95034 C 388.9805,135.92422 384.08556,142.59982 375.89887,146.80629 C 371.55958,149.03597 368.18431,149.5956 364.21874,148.74293 z M 604.86828,133.57195 L 599.77615,130.86002 L 599.30921,123.73008 C 599.05241,119.80862 598.6686,114.29302 598.45644,111.47318 L 598.07052,106.3462 L 593.20802,108.02581 C 589.7286,109.22767 588.09314,110.15111 587.4582,111.2724 C 586.97023,112.13424 585.43298,114.8837 584.04204,117.38231 L 581.51311,121.92522 L 577.69798,120.03716 C 575.5997,118.99872 573.88284,117.85672 573.88284,117.49937 C 573.88284,116.95595 593.42882,78.935818 594.14594,78.084374 C 594.27622,77.929661 596.25487,78.708125 598.54294,79.814294 L 602.7031,81.825504 L 598.13215,90.316272 C 595.6182,94.986192 593.68889,98.932166 593.84489,99.085104 C 594.00089,99.238042 599.547,97.388803 606.16966,94.97568 C 612.79231,92.562557 618.6007,90.588173 619.07724,90.588173 C 619.55378,90.588173 622.3109,91.757107 625.20406,93.185798 L 630.46438,95.783434 L 618.95628,99.610445 C 608.31804,103.1482 607.43388,103.55784 607.25878,105.03 C 607.15462,105.9059 607.79062,113.22696 608.67218,121.29905 C 609.55375,129.37114 610.20425,136.04494 610.11775,136.12973 C 610.03126,136.21451 607.66908,135.06351 604.86828,133.57195 z M 400.66764,109.23532 C 396.34466,100.18597 392.727,92.694998 392.62841,92.588726 C 392.52982,92.482445 389.67295,93.667344 386.27993,95.221834 L 380.11068,98.04816 L 378.62239,94.788269 C 377.8039,92.995325 377.31218,91.335715 377.52982,91.100246 C 378.10159,90.481459 409.63702,76.021296 409.86434,76.27368 C 410.4077,76.877174 412.7694,81.85103 412.7694,82.391971 C 412.7694,82.73784 410.18009,84.200275 407.01535,85.641821 C 403.85062,87.083366 401.2613,88.471373 401.2613,88.726272 C 401.2613,88.981181 404.84422,96.626342 409.22335,105.71552 L 417.1854,122.2413 L 413.85852,123.93542 C 412.02876,124.86718 410.08082,125.64284 409.52969,125.6591 C 408.83503,125.6796 406.11583,120.64012 400.66764,109.23532 z M 566.53049,115.71964 L 562.69442,114.62777 L 562.12562,109.26825 L 561.55673,103.90873 L 552.59791,101.59686 C 547.67052,100.32533 543.46716,99.524976 543.25702,99.818314 C 543.04687,100.11164 541.64143,102.10366 540.13394,104.24503 C 538.62636,106.3864 537.1878,108.13198 536.93724,108.12411 C 536.68658,108.11624 534.53878,107.62227 532.16422,107.0264 L 527.847,105.943 L 541.63394,87.139987 C 549.2167,76.79832 555.63938,67.968566 555.90646,67.518307 C 556.30092,66.8532 557.2229,66.898771 560.82194,67.761341 C 563.25833,68.34527 565.4453,68.995718 565.68175,69.206794 C 565.9182,69.417859 567.43596,79.744627 569.05452,92.155162 C 570.67308,104.56569 572.10694,115.21337 572.24095,115.81666 C 572.54287,117.17629 571.59132,117.16012 566.53049,115.71964 z M 560.23807,93.56545 C 560.03954,92.445053 559.67993,89.130874 559.43897,86.200608 C 558.73385,77.626291 558.79106,77.631859 553.20396,85.593754 C 550.48706,89.465462 548.34626,92.697053 548.44658,92.775053 C 548.75273,93.013037 558.79884,95.476522 559.7287,95.541619 C 560.3647,95.586125 560.50188,95.053997 560.23807,93.56545 z M 431.70588,114.58926 C 430.58124,110.9482 421.08079,73.733933 421.08079,72.97008 C 421.08079,72.360931 422.52041,71.670422 425.30911,70.941917 C 427.63462,70.3344 429.60674,69.922838 429.69151,70.027344 C 429.77628,70.13184 430.78399,73.954608 431.9309,78.522374 C 433.07782,83.090141 434.27801,86.827411 434.59798,86.827411 C 435.1182,86.827411 451.26895,82.99368 451.57404,82.797744 C 451.64268,82.753709 450.72329,78.925094 449.53097,74.289715 C 448.13014,68.843789 447.59532,65.721034 448.01935,65.46407 C 449.37794,64.640899 455.75887,63.538301 456.22351,64.046448 C 457.00063,64.896432 467.28338,106.10787 466.87855,106.75003 C 466.49791,107.35377 458.91871,109.13166 458.57657,108.69746 C 458.4701,108.56236 457.29766,104.33203 455.97113,99.296736 L 453.55922,90.141658 L 444.759,92.302003 L 435.95878,94.462349 L 438.39343,103.94745 C 439.73244,109.16426 440.77241,113.46902 440.70434,113.51359 C 440.63628,113.55816 439.14214,113.93106 437.38399,114.34224 C 435.62575,114.75343 433.707,115.22991 433.11996,115.4011 C 432.46226,115.59291 431.91958,115.28136 431.70588,114.58926 z M 497.50601,105.07411 L 489.85807,104.69105 L 490.04239,99.049901 C 490.5293,84.151555 491.85833,60.478531 492.22822,60.115843 C 492.4565,59.892096 497.80198,60.002419 504.10716,60.361008 C 516.8238,61.084224 519.39401,61.784467 523.31532,65.594208 C 524.5133,66.757987 526.23948,69.261485 527.15138,71.157533 C 528.66953,74.314003 528.80604,75.266074 528.76898,82.439846 C 528.73548,88.93368 528.49145,90.864864 527.34348,93.72215 C 525.44815,98.439446 522.71618,101.48099 518.60162,103.45457 C 514.62492,105.36204 510.13567,105.70668 497.50601,105.07411 z M 514.69778,96.630086 C 517.80847,94.631818 519.09622,90.985642 519.3773,83.380032 C 519.60886,77.1132 519.49682,76.229731 518.14706,73.679059 C 516.06732,69.749069 513.63554,68.564678 506.65202,68.080531 C 503.48527,67.860989 500.80822,67.828877 500.703,68.009165 C 500.59788,68.189453 500.3238,73.837085 500.09407,80.559456 C 499.86434,87.281827 499.51999,93.821347 499.32905,95.091725 C 498.98585,97.374826 499.01004,97.404778 501.42857,97.686192 C 506.25113,98.24735 513.01855,97.708733 514.69778,96.630086 z"/>
    <path d="M150,0L118.973,15.6631L144.889,38.8229L110.866,45.922L129.904,75L95.2024,73.0514L106.066,106.066L73.0514,95.2024L75,129.904L45.922,110.866L38.8229,144.889L15.6631,118.973L0,150-15.6631,118.973-38.8229,144.889-45.922,110.866-75,129.904-73.0514,95.2024-106.066,106.066-95.2024,73.0514-129.904,75-110.866,45.922-144.889,38.8229-118.973,15.6631-150,0-118.973-15.6631-144.889-38.8229-110.866-45.922-129.904-75-95.2024-73.0514-106.066-106.066-73.0514-95.2024-75-129.904-45.922-110.866-38.8229-144.889-15.6631-118.973L0-150L15.6631-118.973L38.8229-144.889L45.922-110.866L75-129.904L73.0514-95.2024L106.066-106.066L95.2024-73.0514L129.904-75L110.866-45.922L144.889-38.8229L118.973-15.6631Z" transform="translate(500,300)"/>
  </g>
</svg>