<?xml version="1.0" encoding="UTF-8" standalone="no"?>
<!-- Created with Inkscape (http://www.inkscape.org/) -->

<svg
   xmlns:dc="http://purl.org/dc/elements/1.1/"
   xmlns:cc="http://creativecommons.org/ns#"
   xmlns:rdf="http://www.w3.org/1999/02/22-rdf-syntax-ns#"
   xmlns:svg="http://www.w3.org/2000/svg"
   xmlns="http://www.w3.org/2000/svg"
   xmlns:sodipodi="http://sodipodi.sourceforge.net/DTD/sodipodi-0.dtd"
   xmlns:inkscape="http://www.inkscape.org/namespaces/inkscape"
   id="svg2"
   version="1.1"
   inkscape:version="0.91 r13725"
   xml:space="preserve"
   width="937.5"
   height="625"
   viewBox="0 0 937.5 625"
   sodipodi:docname="Flag_of_Nevada_(1929-1991).svg"><metadata
     id="metadata8"><rdf:RDF><cc:Work
         rdf:about=""><dc:format>image/svg+xml</dc:format><dc:type
           rdf:resource="http://purl.org/dc/dcmitype/StillImage" /><dc:title></dc:title></cc:Work></rdf:RDF></metadata><defs
     id="defs6"><clipPath
       clipPathUnits="userSpaceOnUse"
       id="clipPath18"><path
         d="M 0,500 750,500 750,0 0,0 0,500 Z"
         id="path20"
         inkscape:connector-curvature="0" /></clipPath></defs><sodipodi:namedview
     pagecolor="#ffffff"
     bordercolor="#666666"
     borderopacity="1"
     objecttolerance="10"
     gridtolerance="10"
     guidetolerance="10"
     inkscape:pageopacity="0"
     inkscape:pageshadow="2"
     inkscape:window-width="640"
     inkscape:window-height="480"
     id="namedview4"
     showgrid="false"
     inkscape:zoom="0.3776"
     inkscape:cx="468.75"
     inkscape:cy="312.5"
     inkscape:window-x="0"
     inkscape:window-y="0"
     inkscape:window-maximized="0"
     inkscape:current-layer="g10" /><g
     id="g10"
     inkscape:groupmode="layer"
     inkscape:label="Flag_of_Nevada_(1929-1991)"
     transform="matrix(1.25,0,0,-1.25,0,625)"><path
       d="M 0,0 750,0 750,500 0,500 0,0 Z"
       style="fill:#003399;fill-opacity:1;fill-rule:nonzero;stroke:none"
       id="path12"
       inkscape:connector-curvature="0" /><g
       id="g14"><g
         id="g16"
         clip-path="url(#clipPath18)"><g
           id="g22"
           transform="translate(182.6816,225.9727)"><path
             d="m 0,0 c -4.488,-2.344 -14.531,16.029 -37.793,24.41 -23.26,8.378 -19.334,-13.234 -31.168,-4.017 -11.836,9.214 14.729,7.174 14.729,7.174 0,0 -6.903,1.086 -11.274,2.452 -4.371,1.365 -11.354,-1.683 -16.522,-0.974 -5.168,0.708 -8.051,4.656 -9.199,8.226 -1.148,3.571 -1.828,6.625 -1.828,6.625 0,0 6.961,-6.91 10.464,-8.087 3.504,-1.177 10.405,-2.263 10.405,-2.263 0,0 -5.847,3.763 -10.394,7.242 -4.546,3.48 -9.632,8.321 -9.632,8.321 0,0 -7.887,-2.437 -15.796,0.528 -7.91,2.965 -14.134,16.357 -14.134,16.357 0,0 8.544,-10.576 14.25,-12.646 5.707,-2.07 8.965,-0.289 8.965,-0.289 0,0 -6.164,7.567 -9.551,12.455 -3.388,4.887 -3.68,3.291 -3.388,4.887 0.293,1.597 0.153,3.288 0.153,3.288 l -6.246,3.434 -4.254,5.076 c 0,0 -5.661,6.627 -6.305,9.257 -0.645,2.631 4.604,6.057 6.843,4.739 2.238,-1.316 -0.949,-3.944 -0.269,-6.998 0.68,-3.054 7.934,-8.367 7.934,-8.367 0,0 -3.961,6.673 -4.172,9.21 -0.212,2.536 -0.751,3.899 -0.751,3.899 0,0 0.973,-1.457 -2.309,2.162 -3.281,3.619 -8.882,4.422 -9.164,7.804 -0.281,3.382 -0.855,5.168 -0.855,5.168 0,0 2.414,-3.431 5.156,-5.687 2.742,-2.257 4.91,-2.729 4.91,-2.729 0,0 -2.847,3.525 -6.234,8.412 -3.387,4.888 -14.649,12.318 -14.391,14.337 0.258,2.019 1.383,3.852 1.383,3.852 0,0 1.652,-4.511 5.988,-5.454 4.335,-0.943 3.632,7.513 3.632,7.513 0,0 3.199,-7.753 5.801,-8.318 2.601,-0.565 5.319,2.579 5.319,2.579 0,0 -0.198,-7.844 -1.757,-9.581 -1.558,-1.737 -3.983,-3.285 -2.038,-6.198 1.946,-2.914 5.942,-10.009 5.942,-10.009 0,0 1.371,-1.129 2.824,1.876 1.452,3.005 3.597,7.936 0.714,11.883 -2.883,3.948 -6.129,7.144 -6.129,7.144 0,0 4.078,-2.962 4.875,-2.304 0.797,0.657 -1.466,7.374 -3.728,14.093 -2.261,6.718 -6.621,13.063 -6.621,13.063 0,0 4.184,-4.23 10.722,-6.067 6.539,-1.837 13.805,-2.171 13.805,-2.171 0,0 -4.594,-1.077 -7.125,-1.356 -2.532,-0.281 -4.594,-1.078 -4.594,-1.078 0,0 5.133,-0.285 4.84,-1.882 -0.293,-1.597 -6.656,-1.874 -5.976,-4.927 0.68,-3.055 6.727,1.027 10.886,2.199 4.16,1.171 9.797,-0.054 9.797,-0.054 0,0 -5.039,-5.961 -7.535,-6.665 -2.496,-0.702 -9.152,-2.576 -9.152,-2.576 0,0 2.309,-2.163 4.805,-1.46 2.496,0.703 4.488,2.346 4.488,2.346 0,0 -1.172,-6.388 -3.996,-8.265 -2.823,-1.876 -5.929,-0.371 -5.929,-0.371 0,0 -0.328,-1.174 -0.046,-4.556 0.281,-3.382 -0.375,-5.73 -0.375,-5.73 0,0 5.613,4.176 6.703,6.43 1.089,2.254 6.585,2.719 6.585,2.719 l -0.879,-4.79 6.375,5.255 2.156,-5.45 c 0,0 0.574,-1.785 3.176,-2.35 2.601,-0.566 3.937,-1.271 3.937,-1.271 0,0 -5.928,-0.371 -11.53,0.431 -5.602,0.802 -8.777,3.153 -9.469,1.229 -0.691,-1.926 0.281,-3.384 -2.074,-5.777 -2.355,-2.394 -4.288,-9.86 -4.007,-13.242 0.282,-3.383 1.653,-4.511 1.653,-4.511 0,0 0.036,-0.423 1.851,3.334 1.816,3.756 6.198,7.369 6.198,7.369 0,0 -2.694,-8.546 -3.784,-10.801 -1.089,-2.253 -3.011,-4.741 -0.995,-8.5 2.016,-3.759 11.93,-15.462 16.582,-20.21 4.652,-4.748 9.27,-9.072 9.27,-9.072 0,0 -2.954,4.794 -1.43,6.952 1.523,2.16 7.148,-4.044 9.129,-7.38 1.98,-3.337 3.996,-7.096 6.235,-8.413 2.238,-1.318 1.769,-0.8 1.769,-0.8 l -0.926,6.013 c 0,0 2.883,-3.948 5.989,-5.453 3.105,-1.505 7.043,-2.776 7.043,-2.776 0,0 -5.52,4.936 -9.305,9.494 -3.785,4.56 -7.032,7.756 -8.262,7.193 -1.231,-0.562 -2.321,-2.817 -4.735,0.615 -2.414,3.43 -4.429,7.189 -7.5,8.272 -3.07,1.082 -4.851,-3.097 -4.851,-3.097 0,0 -1.254,4.84 -1.5,7.799 -0.246,2.959 4.09,2.016 3.047,4.318 -1.043,2.302 -3.176,2.352 -5.333,7.802 -2.157,5.45 -6.844,10.62 -6.844,10.62 0,0 7.934,-8.366 10.066,-8.415 2.133,-0.049 5.941,5.35 5.941,5.35 0,0 -0.446,-4.884 0.012,-10.38 0.457,-5.497 0.915,-10.992 3.552,-11.981 2.637,-0.987 1.382,3.852 4.628,0.655 3.246,-3.197 6.482,-11.372 9.189,-13.205 2.707,-1.834 3.795,0.419 2.213,4.085 -1.582,3.664 -5.015,3.995 -5.765,7.894 -0.751,3.9 0.011,4.979 0.011,4.979 0,0 2.262,-6.718 3.996,-7.095 1.735,-0.377 2.485,11.083 2.485,11.083 0,0 6.773,-9.775 6.691,-13.908 -0.082,-4.134 -4.02,-2.863 -3.738,-6.245 0.281,-3.382 0.306,-8.783 2.439,-8.832 2.133,-0.048 4.568,6.479 4.568,6.479 0,0 1.219,-4.416 3.2,-7.753 1.98,-3.337 3.961,-6.673 3.961,-6.673 0,0 1.195,0.986 -0.563,6.765 -1.758,5.778 -3.738,9.115 -4.418,12.168 -0.68,3.054 1.207,5.964 3.445,4.647 2.239,-1.316 2.52,-4.697 2.579,-10.523 0.058,-5.824 0.187,-12.494 1.921,-12.871 1.735,-0.377 14.086,-5.552 23.18,-12.512 C -8.039,9.639 1.418,3.43 0,0"
             style="fill:#017b21;fill-opacity:1;fill-rule:nonzero;stroke:none"
             id="path24"
             inkscape:connector-curvature="0" /></g><g
           id="g26"
           transform="translate(182.6816,225.9727)"><path
             d="m 0,0 c -4.488,-2.344 -14.531,16.029 -37.793,24.41 -23.26,8.378 -19.334,-13.234 -31.168,-4.017 -11.836,9.214 14.729,7.174 14.729,7.174 0,0 -6.903,1.086 -11.274,2.452 -4.371,1.365 -11.354,-1.683 -16.522,-0.974 -5.168,0.708 -8.051,4.656 -9.199,8.226 -1.148,3.571 -1.828,6.625 -1.828,6.625 0,0 6.961,-6.91 10.464,-8.087 3.504,-1.177 10.405,-2.263 10.405,-2.263 0,0 -5.847,3.763 -10.394,7.242 -4.546,3.48 -9.632,8.321 -9.632,8.321 0,0 -7.887,-2.437 -15.796,0.528 -7.91,2.965 -14.134,16.357 -14.134,16.357 0,0 8.544,-10.576 14.25,-12.646 5.707,-2.07 8.965,-0.289 8.965,-0.289 0,0 -6.164,7.567 -9.551,12.455 -3.388,4.887 -3.68,3.291 -3.388,4.887 0.293,1.597 0.153,3.288 0.153,3.288 l -6.246,3.434 -4.254,5.076 c 0,0 -5.661,6.627 -6.305,9.257 -0.645,2.631 4.604,6.057 6.843,4.739 2.238,-1.316 -0.949,-3.944 -0.269,-6.998 0.68,-3.054 7.934,-8.367 7.934,-8.367 0,0 -3.961,6.673 -4.172,9.21 -0.212,2.536 -0.751,3.899 -0.751,3.899 0,0 0.973,-1.457 -2.309,2.162 -3.281,3.619 -8.882,4.422 -9.164,7.804 -0.281,3.382 -0.855,5.168 -0.855,5.168 0,0 2.414,-3.431 5.156,-5.687 2.742,-2.257 4.91,-2.729 4.91,-2.729 0,0 -2.847,3.525 -6.234,8.412 -3.387,4.888 -14.649,12.318 -14.391,14.337 0.258,2.019 1.383,3.852 1.383,3.852 0,0 1.652,-4.511 5.988,-5.454 4.335,-0.943 3.632,7.513 3.632,7.513 0,0 3.199,-7.753 5.801,-8.318 2.601,-0.565 5.319,2.579 5.319,2.579 0,0 -0.198,-7.844 -1.757,-9.581 -1.558,-1.737 -3.983,-3.285 -2.038,-6.198 1.946,-2.914 5.942,-10.009 5.942,-10.009 0,0 1.371,-1.129 2.824,1.876 1.452,3.005 3.597,7.936 0.714,11.883 -2.883,3.948 -6.129,7.144 -6.129,7.144 0,0 4.078,-2.962 4.875,-2.304 0.797,0.657 -1.466,7.374 -3.728,14.093 -2.261,6.718 -6.621,13.063 -6.621,13.063 0,0 4.184,-4.23 10.722,-6.067 6.539,-1.837 13.805,-2.171 13.805,-2.171 0,0 -4.594,-1.077 -7.125,-1.356 -2.532,-0.281 -4.594,-1.078 -4.594,-1.078 0,0 5.133,-0.285 4.84,-1.882 -0.293,-1.597 -6.656,-1.874 -5.976,-4.927 0.68,-3.055 6.727,1.027 10.886,2.199 4.16,1.171 9.797,-0.054 9.797,-0.054 0,0 -5.039,-5.961 -7.535,-6.665 -2.496,-0.702 -9.152,-2.576 -9.152,-2.576 0,0 2.309,-2.163 4.805,-1.46 2.496,0.703 4.488,2.346 4.488,2.346 0,0 -1.172,-6.388 -3.996,-8.265 -2.823,-1.876 -5.929,-0.371 -5.929,-0.371 0,0 -0.328,-1.174 -0.046,-4.556 0.281,-3.382 -0.375,-5.73 -0.375,-5.73 0,0 5.613,4.176 6.703,6.43 1.089,2.254 6.585,2.719 6.585,2.719 l -0.879,-4.79 6.375,5.255 2.156,-5.45 c 0,0 0.574,-1.785 3.176,-2.35 2.601,-0.566 3.937,-1.271 3.937,-1.271 0,0 -5.928,-0.371 -11.53,0.431 -5.602,0.802 -8.777,3.153 -9.469,1.229 -0.691,-1.926 0.281,-3.384 -2.074,-5.777 -2.355,-2.394 -4.288,-9.86 -4.007,-13.242 0.282,-3.383 1.653,-4.511 1.653,-4.511 0,0 0.036,-0.423 1.851,3.334 1.816,3.756 6.198,7.369 6.198,7.369 0,0 -2.694,-8.546 -3.784,-10.801 -1.089,-2.253 -3.011,-4.741 -0.995,-8.5 2.016,-3.759 11.93,-15.462 16.582,-20.21 4.652,-4.748 9.27,-9.072 9.27,-9.072 0,0 -2.954,4.794 -1.43,6.952 1.523,2.16 7.148,-4.044 9.129,-7.38 1.98,-3.337 3.996,-7.096 6.235,-8.413 2.238,-1.318 1.769,-0.8 1.769,-0.8 l -0.926,6.013 c 0,0 2.883,-3.948 5.989,-5.453 3.105,-1.505 7.043,-2.776 7.043,-2.776 0,0 -5.52,4.936 -9.305,9.494 -3.785,4.56 -7.032,7.756 -8.262,7.193 -1.231,-0.562 -2.321,-2.817 -4.735,0.615 -2.414,3.43 -4.429,7.189 -7.5,8.272 -3.07,1.082 -4.851,-3.097 -4.851,-3.097 0,0 -1.254,4.84 -1.5,7.799 -0.246,2.959 4.09,2.016 3.047,4.318 -1.043,2.302 -3.176,2.352 -5.333,7.802 -2.157,5.45 -6.844,10.62 -6.844,10.62 0,0 7.934,-8.366 10.066,-8.415 2.133,-0.049 5.941,5.35 5.941,5.35 0,0 -0.446,-4.884 0.012,-10.38 0.457,-5.497 0.915,-10.992 3.552,-11.981 2.637,-0.987 1.382,3.852 4.628,0.655 3.246,-3.197 6.482,-11.372 9.189,-13.205 2.707,-1.834 3.795,0.419 2.213,4.085 -1.582,3.664 -5.015,3.995 -5.765,7.894 -0.751,3.9 0.011,4.979 0.011,4.979 0,0 2.262,-6.718 3.996,-7.095 1.735,-0.377 2.485,11.083 2.485,11.083 0,0 6.773,-9.775 6.691,-13.908 -0.082,-4.134 -4.02,-2.863 -3.738,-6.245 0.281,-3.382 0.306,-8.783 2.439,-8.832 2.133,-0.048 4.568,6.479 4.568,6.479 0,0 1.219,-4.416 3.2,-7.753 1.98,-3.337 3.961,-6.673 3.961,-6.673 0,0 1.195,0.986 -0.563,6.765 -1.758,5.778 -3.738,9.115 -4.418,12.168 -0.68,3.054 1.207,5.964 3.445,4.647 2.239,-1.316 2.52,-4.697 2.579,-10.523 0.058,-5.824 0.187,-12.494 1.921,-12.871 1.735,-0.377 14.086,-5.552 23.18,-12.512 C -8.039,9.639 1.418,3.43 0,0 Z"
             style="fill:none;stroke:#014004;stroke-width:1.25;stroke-linecap:butt;stroke-linejoin:miter;stroke-miterlimit:4;stroke-dasharray:none;stroke-opacity:1"
             id="path28"
             inkscape:connector-curvature="0" /></g><g
           id="g30"
           transform="translate(72.4868,289.5923)"><path
             d="m 0,0 c -2.9,2.856 -6.322,2.858 -4.282,5.751 2.041,2.894 5.171,1.843 7.62,-0.172 2.449,-2.017 -1.8,3.357 1.717,2.222 3.516,-1.136 9.379,-7.601 7.599,-9.069 -1.779,-1.467 2.868,-2.477 3.863,-5.289 0.995,-2.812 -0.47,-8.055 -4.438,-6.08 C 8.112,-10.663 3.527,-10.408 2.92,-7.68 2.313,-4.952 0.104,3.315 0,0"
             style="fill:#ffcc00;fill-opacity:1;fill-rule:nonzero;stroke:none"
             id="path32"
             inkscape:connector-curvature="0" /></g><g
           id="g34"
           transform="translate(72.4868,289.5923)"><path
             d="m 0,0 c -2.9,2.856 -6.322,2.858 -4.282,5.751 2.041,2.894 5.171,1.843 7.62,-0.172 2.449,-2.017 -1.8,3.357 1.717,2.222 3.516,-1.136 9.379,-7.601 7.599,-9.069 -1.779,-1.467 2.868,-2.477 3.863,-5.289 0.995,-2.812 -0.47,-8.055 -4.438,-6.08 C 8.112,-10.663 3.527,-10.408 2.92,-7.68 2.313,-4.952 0.104,3.315 0,0 Z"
             style="fill:none;stroke:#000000;stroke-width:1;stroke-linecap:butt;stroke-linejoin:miter;stroke-miterlimit:10;stroke-dasharray:none;stroke-opacity:1"
             id="path36"
             inkscape:connector-curvature="0" /></g><g
           id="g38"
           transform="translate(76.3413,309.5864)"><path
             d="m 0,0 c 3.548,-8.121 6.562,-9.827 10.553,-10.344 3.992,-0.518 9.465,7.042 6.244,11.242 -3.222,4.201 -7.41,-1.539 -7.41,-1.539 0,0 -0.149,1.783 -1.029,3.724 -0.879,1.941 -2.707,2.339 -2.707,2.339 0,0 2.313,-1.903 5.119,-1.113 2.805,0.79 3.023,2.492 1.076,4.316 C 9.899,10.448 3.319,11.878 -0.188,10.892 -3.695,9.904 -3.31,5.27 -3.132,3.131 -2.954,0.992 -3.014,1.706 0,0"
             style="fill:#ffcc00;fill-opacity:1;fill-rule:nonzero;stroke:none"
             id="path40"
             inkscape:connector-curvature="0" /></g><g
           id="g42"
           transform="translate(76.3413,309.5864)"><path
             d="m 0,0 c 3.548,-8.121 6.562,-9.827 10.553,-10.344 3.992,-0.518 9.465,7.042 6.244,11.242 -3.222,4.201 -7.41,-1.539 -7.41,-1.539 0,0 -0.149,1.783 -1.029,3.724 -0.879,1.941 -2.707,2.339 -2.707,2.339 0,0 2.313,-1.903 5.119,-1.113 2.805,0.79 3.023,2.492 1.076,4.316 C 9.899,10.448 3.319,11.878 -0.188,10.892 -3.695,9.904 -3.31,5.27 -3.132,3.131 -2.954,0.992 -3.014,1.706 0,0 Z"
             style="fill:none;stroke:#000000;stroke-width:1;stroke-linecap:butt;stroke-linejoin:miter;stroke-miterlimit:10;stroke-dasharray:none;stroke-opacity:1"
             id="path44"
             inkscape:connector-curvature="0" /></g><g
           id="g46"
           transform="translate(58.7231,303.5698)"><path
             d="m 0,0 c -5.461,-0.888 -5.367,8.223 -3.013,10.617 2.356,2.394 3.012,4.742 5.321,2.579 C 4.616,11.034 1.358,9.252 3.89,9.532 6.421,9.812 4.37,13.994 6.607,12.676 8.846,11.36 7.897,7.415 7.312,4.221 6.726,1.028 6.211,-3.011 4.113,-3.386 2.016,-3.76 -0.516,-4.04 0,0"
             style="fill:#ffcc00;fill-opacity:1;fill-rule:nonzero;stroke:none"
             id="path48"
             inkscape:connector-curvature="0" /></g><g
           id="g50"
           transform="translate(58.7231,303.5698)"><path
             d="m 0,0 c -5.461,-0.888 -5.367,8.223 -3.013,10.617 2.356,2.394 3.012,4.742 5.321,2.579 C 4.616,11.034 1.358,9.252 3.89,9.532 6.421,9.812 4.37,13.994 6.607,12.676 8.846,11.36 7.897,7.415 7.312,4.221 6.726,1.028 6.211,-3.011 4.113,-3.386 2.016,-3.76 -0.516,-4.04 0,0 Z"
             style="fill:none;stroke:#000000;stroke-width:1;stroke-linecap:butt;stroke-linejoin:miter;stroke-miterlimit:10;stroke-dasharray:none;stroke-opacity:1"
             id="path52"
             inkscape:connector-curvature="0" /></g><g
           id="g54"
           transform="translate(58.9204,326.7729)"><path
             d="m 0,0 c -6.937,1.508 -6.105,1.743 -6.715,3.95 -0.609,2.208 2.93,0.609 0.117,3.712 -2.812,3.102 -2.965,-0.186 -3.644,2.867 -0.68,3.053 4.055,2.44 7.488,2.108 C 0.679,12.306 -1.242,9.818 1.793,9.158 4.827,8.498 6.491,8.966 6.491,8.966 L 5.508,5.444 c 0,0 3.796,0.42 3.175,-2.351 C 8.063,0.323 7.582,-4.14 0,0"
             style="fill:#ffcc00;fill-opacity:1;fill-rule:nonzero;stroke:none"
             id="path56"
             inkscape:connector-curvature="0" /></g><g
           id="g58"
           transform="translate(58.9204,326.7729)"><path
             d="m 0,0 c -6.937,1.508 -6.105,1.743 -6.715,3.95 -0.609,2.208 2.93,0.609 0.117,3.712 -2.812,3.102 -2.965,-0.186 -3.644,2.867 -0.68,3.053 4.055,2.44 7.488,2.108 C 0.679,12.306 -1.242,9.818 1.793,9.158 4.827,8.498 6.491,8.966 6.491,8.966 L 5.508,5.444 c 0,0 3.796,0.42 3.175,-2.351 C 8.063,0.323 7.582,-4.14 0,0 Z"
             style="fill:none;stroke:#000000;stroke-width:1;stroke-linecap:butt;stroke-linejoin:miter;stroke-miterlimit:10;stroke-dasharray:none;stroke-opacity:1"
             id="path60"
             inkscape:connector-curvature="0" /></g><g
           id="g62"
           transform="translate(51.8999,354.8667)"><path
             d="m 0,0 c -0.914,-4.368 1.863,-7.047 -2.074,-5.776 -3.938,1.271 -3.387,4.888 -3.703,8.693 -0.317,3.804 1.569,6.715 5.506,5.445 C 3.667,7.09 7.019,2.625 5.098,0.137 3.176,-2.351 9.362,0.04 6.574,-2.259 3.785,-4.56 2.016,-3.759 0,0"
             style="fill:#ffcc00;fill-opacity:1;fill-rule:nonzero;stroke:none"
             id="path64"
             inkscape:connector-curvature="0" /></g><g
           id="g66"
           transform="translate(51.8999,354.8667)"><path
             d="m 0,0 c -0.914,-4.368 1.863,-7.047 -2.074,-5.776 -3.938,1.271 -3.387,4.888 -3.703,8.693 -0.317,3.804 1.569,6.715 5.506,5.445 C 3.667,7.09 7.019,2.625 5.098,0.137 3.176,-2.351 9.362,0.04 6.574,-2.259 3.785,-4.56 2.016,-3.759 0,0 Z"
             style="fill:none;stroke:#000000;stroke-width:1;stroke-linecap:butt;stroke-linejoin:miter;stroke-miterlimit:10;stroke-dasharray:none;stroke-opacity:1"
             id="path68"
             inkscape:connector-curvature="0" /></g><g
           id="g70"
           transform="translate(62.644,374.1167)"><path
             d="m 0,0 c 1.617,-4.087 -3.632,-7.512 2.543,-10.1 6.176,-2.588 14.461,0.176 12.081,3.184 -2.379,3.009 -4.769,1.037 -8.237,1.791 C 2.918,-4.369 3.293,1.36 0,0"
             style="fill:#ffcc00;fill-opacity:1;fill-rule:nonzero;stroke:none"
             id="path72"
             inkscape:connector-curvature="0" /></g><g
           id="g74"
           transform="translate(62.644,374.1167)"><path
             d="m 0,0 c 1.617,-4.087 -3.632,-7.512 2.543,-10.1 6.176,-2.588 14.461,0.176 12.081,3.184 -2.379,3.009 -4.769,1.037 -8.237,1.791 C 2.918,-4.369 3.293,1.36 0,0 Z"
             style="fill:none;stroke:#000000;stroke-width:1;stroke-linecap:butt;stroke-linejoin:miter;stroke-miterlimit:10;stroke-dasharray:none;stroke-opacity:1"
             id="path76"
             inkscape:connector-curvature="0" /></g><g
           id="g78"
           transform="translate(99.4888,330.4072)"><path
             d="m 0,0 c -2.285,-3.241 -5.637,1.225 -9.141,2.401 -3.504,1.178 -7.371,1.603 -8.484,4.751 -1.113,3.148 2.566,-0.142 4.594,1.077 2.027,1.22 -0.246,2.959 1.921,2.488 2.168,-0.471 1.769,-0.8 3.644,-2.867 1.875,-2.069 -1.254,4.838 -0.129,6.669 1.125,1.831 4.852,3.096 5.637,-1.226 C -1.173,8.972 -2.591,5.544 -3.353,4.465 -4.113,3.385 2.108,5.353 0,0"
             style="fill:#ffcc00;fill-opacity:1;fill-rule:nonzero;stroke:none"
             id="path80"
             inkscape:connector-curvature="0" /></g><g
           id="g82"
           transform="translate(99.4888,330.4072)"><path
             d="m 0,0 c -2.285,-3.241 -5.637,1.225 -9.141,2.401 -3.504,1.178 -7.371,1.603 -8.484,4.751 -1.113,3.148 2.566,-0.142 4.594,1.077 2.027,1.22 -0.246,2.959 1.921,2.488 2.168,-0.471 1.769,-0.8 3.644,-2.867 1.875,-2.069 -1.254,4.838 -0.129,6.669 1.125,1.831 4.852,3.096 5.637,-1.226 C -1.173,8.972 -2.591,5.544 -3.353,4.465 -4.113,3.385 2.108,5.353 0,0 Z"
             style="fill:none;stroke:#000000;stroke-width:1;stroke-linecap:butt;stroke-linejoin:miter;stroke-miterlimit:10;stroke-dasharray:none;stroke-opacity:1"
             id="path84"
             inkscape:connector-curvature="0" /></g><g
           id="g86"
           transform="translate(122.7754,224.9961)"><path
             d="m 0,0 c 4.486,-2.348 14.531,16.027 37.791,24.406 23.262,8.378 19.334,-13.232 31.17,-4.015 11.836,9.213 -14.729,7.173 -14.729,7.173 0,0 6.903,1.086 11.274,2.452 4.371,1.366 11.353,-1.683 16.521,-0.974 5.168,0.708 8.051,4.656 9.2,8.226 1.148,3.571 1.828,6.625 1.828,6.625 0,0 -6.961,-6.91 -10.465,-8.086 -3.504,-1.178 -10.404,-2.263 -10.404,-2.263 0,0 5.845,3.762 10.392,7.241 4.547,3.479 9.633,8.32 9.633,8.32 0,0 7.887,-2.435 15.797,0.53 7.91,2.965 14.133,16.356 14.133,16.356 0,0 -8.543,-10.575 -14.25,-12.646 -5.707,-2.071 -8.965,-0.288 -8.965,-0.288 0,0 6.164,7.567 9.551,12.454 3.388,4.887 3.679,3.29 3.388,4.887 -0.293,1.598 -0.152,3.289 -0.152,3.289 l 6.246,3.433 4.254,5.076 c 0,0 5.66,6.627 6.305,9.258 0.644,2.63 -4.606,6.055 -6.844,4.739 -2.238,-1.317 0.949,-3.945 0.269,-6.999 -0.679,-3.054 -7.933,-8.366 -7.933,-8.366 0,0 3.961,6.672 4.172,9.209 0.211,2.536 0.75,3.899 0.75,3.899 0,0 -0.973,-1.457 2.308,2.162 3.281,3.62 8.883,4.422 9.164,7.804 0.282,3.382 0.856,5.168 0.856,5.168 0,0 -2.414,-3.431 -5.156,-5.688 -2.743,-2.257 -4.911,-2.728 -4.911,-2.728 0,0 2.848,3.525 6.235,8.413 3.386,4.888 14.648,12.317 14.39,14.336 -0.257,2.02 -1.382,3.851 -1.382,3.851 0,0 -1.653,-4.51 -5.989,-5.453 -4.334,-0.942 -3.631,7.512 -3.631,7.512 0,0 -3.199,-7.752 -5.8,-8.318 -2.602,-0.565 -5.321,2.58 -5.321,2.58 0,0 0.2,-7.844 1.758,-9.58 1.559,-1.738 3.983,-3.286 2.037,-6.2 -1.945,-2.913 -5.941,-10.009 -5.941,-10.009 0,0 -1.371,-1.127 -2.824,1.877 -1.452,3.005 -3.596,7.936 -0.713,11.883 2.883,3.948 6.129,7.145 6.129,7.145 0,0 -4.078,-2.963 -4.875,-2.306 -0.797,0.657 1.464,7.376 3.726,14.094 2.262,6.719 6.621,13.063 6.621,13.063 0,0 -4.183,-4.23 -10.72,-6.066 -6.539,-1.838 -13.805,-2.172 -13.805,-2.172 0,0 4.594,-1.076 7.125,-1.357 2.531,-0.279 4.592,-1.077 4.592,-1.077 0,0 -5.131,-0.286 -4.838,-1.883 0.293,-1.596 6.654,-1.873 5.974,-4.927 -0.679,-3.053 -6.726,1.029 -10.884,2.2 -4.161,1.172 -9.797,-0.054 -9.797,-0.054 0,0 5.039,-5.961 7.533,-6.664 2.496,-0.703 9.152,-2.578 9.152,-2.578 0,0 -2.308,-2.162 -4.804,-1.46 -2.496,0.704 -4.489,2.347 -4.489,2.347 0,0 1.172,-6.388 3.996,-8.265 2.825,-1.876 5.93,-0.371 5.93,-0.371 0,0 0.328,-1.173 0.047,-4.556 -0.281,-3.382 0.375,-5.73 0.375,-5.73 0,0 -5.613,4.176 -6.703,6.43 -1.09,2.254 -6.586,2.72 -6.586,2.72 l 0.879,-4.791 -6.375,5.256 -2.156,-5.45 c 0,0 -0.575,-1.785 -3.176,-2.351 -2.602,-0.566 -3.938,-1.271 -3.938,-1.271 0,0 5.93,-0.371 11.532,0.431 5.601,0.803 8.777,3.154 9.468,1.229 0.692,-1.926 -0.281,-3.382 2.075,-5.777 2.353,-2.394 4.287,-9.861 4.005,-13.242 -0.281,-3.382 -1.652,-4.511 -1.652,-4.511 0,0 -0.035,-0.422 -1.852,3.334 -1.816,3.756 -6.199,7.37 -6.199,7.37 0,0 2.696,-8.548 3.785,-10.801 1.09,-2.253 3.012,-4.742 0.997,-8.501 -2.016,-3.76 -11.93,-15.462 -16.583,-20.21 -4.652,-4.747 -9.269,-9.072 -9.269,-9.072 0,0 2.953,4.793 1.43,6.953 -1.524,2.159 -7.149,-4.045 -9.129,-7.382 -1.981,-3.335 -3.996,-7.095 -6.235,-8.412 -2.238,-1.316 -1.769,-0.8 -1.769,-0.8 l 0.926,6.013 c 0,0 -2.883,-3.948 -5.989,-5.453 -3.105,-1.505 -7.043,-2.777 -7.043,-2.777 0,0 5.52,4.938 9.305,9.496 3.785,4.558 7.031,7.755 8.262,7.192 1.23,-0.563 2.32,-2.816 4.734,0.615 2.414,3.431 4.43,7.189 7.5,8.272 3.07,1.082 4.852,-3.097 4.852,-3.097 0,0 1.254,4.839 1.5,7.799 0.246,2.959 -4.09,2.017 -3.047,4.318 1.043,2.304 3.176,2.352 5.332,7.802 2.156,5.45 6.844,10.621 6.844,10.621 0,0 -7.934,-8.367 -10.067,-8.416 -2.133,-0.048 -5.939,5.351 -5.939,5.351 0,0 0.445,-4.884 -0.014,-10.381 -0.457,-5.496 -0.914,-10.992 -3.551,-11.98 -2.636,-0.989 -1.383,3.851 -4.629,0.654 -3.246,-3.196 -6.48,-11.371 -9.187,-13.206 -2.707,-1.834 -3.797,0.421 -2.215,4.085 1.582,3.665 5.016,3.997 5.766,7.895 0.752,3.9 -0.01,4.979 -0.01,4.979 0,0 -2.264,-6.718 -3.998,-7.094 -1.733,-0.379 -2.483,11.083 -2.483,11.083 0,0 -6.773,-9.776 -6.691,-13.91 0.082,-4.132 4.018,-2.861 3.736,-6.243 -0.281,-3.383 -0.304,-8.784 -2.437,-8.832 -2.133,-0.05 -4.57,6.478 -4.57,6.478 0,0 -1.219,-4.417 -3.2,-7.753 -1.98,-3.336 -3.961,-6.673 -3.961,-6.673 0,0 -1.195,0.986 0.563,6.765 1.76,5.779 3.74,9.115 4.42,12.168 0.68,3.053 -1.207,5.965 -3.445,4.648 C 42.574,51.183 42.293,47.8 42.234,41.976 42.176,36.152 42.045,29.482 40.311,29.105 38.576,28.728 26.227,23.553 17.133,16.592 8.039,9.635 -1.418,3.426 0,0"
             style="fill:#017b21;fill-opacity:1;fill-rule:nonzero;stroke:none"
             id="path88"
             inkscape:connector-curvature="0" /></g><g
           id="g90"
           transform="translate(122.7754,224.9961)"><path
             d="m 0,0 c 4.486,-2.348 14.531,16.027 37.791,24.406 23.262,8.378 19.334,-13.232 31.17,-4.015 11.836,9.213 -14.729,7.173 -14.729,7.173 0,0 6.903,1.086 11.274,2.452 4.371,1.366 11.353,-1.683 16.521,-0.974 5.168,0.708 8.051,4.656 9.2,8.226 1.148,3.571 1.828,6.625 1.828,6.625 0,0 -6.961,-6.91 -10.465,-8.086 -3.504,-1.178 -10.404,-2.263 -10.404,-2.263 0,0 5.845,3.762 10.392,7.241 4.547,3.479 9.633,8.32 9.633,8.32 0,0 7.887,-2.435 15.797,0.53 7.91,2.965 14.133,16.356 14.133,16.356 0,0 -8.543,-10.575 -14.25,-12.646 -5.707,-2.071 -8.965,-0.288 -8.965,-0.288 0,0 6.164,7.567 9.551,12.454 3.388,4.887 3.679,3.29 3.388,4.887 -0.293,1.598 -0.152,3.289 -0.152,3.289 l 6.246,3.433 4.254,5.076 c 0,0 5.66,6.627 6.305,9.258 0.644,2.63 -4.606,6.055 -6.844,4.739 -2.238,-1.317 0.949,-3.945 0.269,-6.999 -0.679,-3.054 -7.933,-8.366 -7.933,-8.366 0,0 3.961,6.672 4.172,9.209 0.211,2.536 0.75,3.899 0.75,3.899 0,0 -0.973,-1.457 2.308,2.162 3.281,3.62 8.883,4.422 9.164,7.804 0.282,3.382 0.856,5.168 0.856,5.168 0,0 -2.414,-3.431 -5.156,-5.688 -2.743,-2.257 -4.911,-2.728 -4.911,-2.728 0,0 2.848,3.525 6.235,8.413 3.386,4.888 14.648,12.317 14.39,14.336 -0.257,2.02 -1.382,3.851 -1.382,3.851 0,0 -1.653,-4.51 -5.989,-5.453 -4.334,-0.942 -3.631,7.512 -3.631,7.512 0,0 -3.199,-7.752 -5.8,-8.318 -2.602,-0.565 -5.321,2.58 -5.321,2.58 0,0 0.2,-7.844 1.758,-9.58 1.559,-1.738 3.983,-3.286 2.037,-6.2 -1.945,-2.913 -5.941,-10.009 -5.941,-10.009 0,0 -1.371,-1.127 -2.824,1.877 -1.452,3.005 -3.596,7.936 -0.713,11.883 2.883,3.948 6.129,7.145 6.129,7.145 0,0 -4.078,-2.963 -4.875,-2.306 -0.797,0.657 1.464,7.376 3.726,14.094 2.262,6.719 6.621,13.063 6.621,13.063 0,0 -4.183,-4.23 -10.72,-6.066 -6.539,-1.838 -13.805,-2.172 -13.805,-2.172 0,0 4.594,-1.076 7.125,-1.357 2.531,-0.279 4.592,-1.077 4.592,-1.077 0,0 -5.131,-0.286 -4.838,-1.883 0.293,-1.596 6.654,-1.873 5.974,-4.927 -0.679,-3.053 -6.726,1.029 -10.884,2.2 -4.161,1.172 -9.797,-0.054 -9.797,-0.054 0,0 5.039,-5.961 7.533,-6.664 2.496,-0.703 9.152,-2.578 9.152,-2.578 0,0 -2.308,-2.162 -4.804,-1.46 -2.496,0.704 -4.489,2.347 -4.489,2.347 0,0 1.172,-6.388 3.996,-8.265 2.825,-1.876 5.93,-0.371 5.93,-0.371 0,0 0.328,-1.173 0.047,-4.556 -0.281,-3.382 0.375,-5.73 0.375,-5.73 0,0 -5.613,4.176 -6.703,6.43 -1.09,2.254 -6.586,2.72 -6.586,2.72 l 0.879,-4.791 -6.375,5.256 -2.156,-5.45 c 0,0 -0.575,-1.785 -3.176,-2.351 -2.602,-0.566 -3.938,-1.271 -3.938,-1.271 0,0 5.93,-0.371 11.532,0.431 5.601,0.803 8.777,3.154 9.468,1.229 0.692,-1.926 -0.281,-3.382 2.075,-5.777 2.353,-2.394 4.287,-9.861 4.005,-13.242 -0.281,-3.382 -1.652,-4.511 -1.652,-4.511 0,0 -0.035,-0.422 -1.852,3.334 -1.816,3.756 -6.199,7.37 -6.199,7.37 0,0 2.696,-8.548 3.785,-10.801 1.09,-2.253 3.012,-4.742 0.997,-8.501 -2.016,-3.76 -11.93,-15.462 -16.583,-20.21 -4.652,-4.747 -9.269,-9.072 -9.269,-9.072 0,0 2.953,4.793 1.43,6.953 -1.524,2.159 -7.149,-4.045 -9.129,-7.382 -1.981,-3.335 -3.996,-7.095 -6.235,-8.412 -2.238,-1.316 -1.769,-0.8 -1.769,-0.8 l 0.926,6.013 c 0,0 -2.883,-3.948 -5.989,-5.453 -3.105,-1.505 -7.043,-2.777 -7.043,-2.777 0,0 5.52,4.938 9.305,9.496 3.785,4.558 7.031,7.755 8.262,7.192 1.23,-0.563 2.32,-2.816 4.734,0.615 2.414,3.431 4.43,7.189 7.5,8.272 3.07,1.082 4.852,-3.097 4.852,-3.097 0,0 1.254,4.839 1.5,7.799 0.246,2.959 -4.09,2.017 -3.047,4.318 1.043,2.304 3.176,2.352 5.332,7.802 2.156,5.45 6.844,10.621 6.844,10.621 0,0 -7.934,-8.367 -10.067,-8.416 -2.133,-0.048 -5.939,5.351 -5.939,5.351 0,0 0.445,-4.884 -0.014,-10.381 -0.457,-5.496 -0.914,-10.992 -3.551,-11.98 -2.636,-0.989 -1.383,3.851 -4.629,0.654 -3.246,-3.196 -6.48,-11.371 -9.187,-13.206 -2.707,-1.834 -3.797,0.421 -2.215,4.085 1.582,3.665 5.016,3.997 5.766,7.895 0.752,3.9 -0.01,4.979 -0.01,4.979 0,0 -2.264,-6.718 -3.998,-7.094 -1.733,-0.379 -2.483,11.083 -2.483,11.083 0,0 -6.773,-9.776 -6.691,-13.91 0.082,-4.132 4.018,-2.861 3.736,-6.243 -0.281,-3.383 -0.304,-8.784 -2.437,-8.832 -2.133,-0.05 -4.57,6.478 -4.57,6.478 0,0 -1.219,-4.417 -3.2,-7.753 -1.98,-3.336 -3.961,-6.673 -3.961,-6.673 0,0 -1.195,0.986 0.563,6.765 1.76,5.779 3.74,9.115 4.42,12.168 0.68,3.053 -1.207,5.965 -3.445,4.648 C 42.574,51.183 42.293,47.8 42.234,41.976 42.176,36.152 42.045,29.482 40.311,29.105 38.576,28.728 26.227,23.553 17.133,16.592 8.039,9.635 -1.418,3.426 0,0 Z"
             style="fill:none;stroke:#014004;stroke-width:1.25;stroke-linecap:butt;stroke-linejoin:miter;stroke-miterlimit:4;stroke-dasharray:none;stroke-opacity:1"
             id="path92"
             inkscape:connector-curvature="0" /></g><g
           id="g94"
           transform="translate(232.9687,288.6128)"><path
             d="M 0,0 C 2.9,2.855 6.322,2.858 4.283,5.752 2.242,8.645 -0.889,7.594 -3.338,5.578 -5.787,3.563 -1.537,8.936 -5.055,7.8 -8.57,6.666 -14.434,0.2 -12.654,-1.267 c 1.779,-1.467 -2.867,-2.478 -3.862,-5.291 -0.996,-2.811 0.469,-8.054 4.438,-6.079 3.967,1.974 8.551,2.23 9.158,4.957 C -2.313,-4.953 -0.104,3.314 0,0"
             style="fill:#ffcc00;fill-opacity:1;fill-rule:nonzero;stroke:none"
             id="path96"
             inkscape:connector-curvature="0" /></g><g
           id="g98"
           transform="translate(232.9687,288.6128)"><path
             d="M 0,0 C 2.9,2.855 6.322,2.858 4.283,5.752 2.242,8.645 -0.889,7.594 -3.338,5.578 -5.787,3.563 -1.537,8.936 -5.055,7.8 -8.57,6.666 -14.434,0.2 -12.654,-1.267 c 1.779,-1.467 -2.867,-2.478 -3.862,-5.291 -0.996,-2.811 0.469,-8.054 4.438,-6.079 3.967,1.974 8.551,2.23 9.158,4.957 C -2.313,-4.953 -0.104,3.314 0,0 Z"
             style="fill:none;stroke:#000000;stroke-width:1;stroke-linecap:butt;stroke-linejoin:miter;stroke-miterlimit:10;stroke-dasharray:none;stroke-opacity:1"
             id="path100"
             inkscape:connector-curvature="0" /></g><g
           id="g102"
           transform="translate(229.1152,308.6069)"><path
             d="m 0,0 c -3.549,-8.121 -6.562,-9.827 -10.553,-10.345 -3.992,-0.517 -9.465,7.043 -6.244,11.244 3.221,4.199 7.41,-1.54 7.41,-1.54 0,0 0.149,1.783 1.028,3.724 0.879,1.94 2.707,2.338 2.707,2.338 0,0 -2.313,-1.902 -5.118,-1.111 -2.806,0.788 -3.023,2.491 -1.076,4.315 1.946,1.823 8.526,3.253 12.033,2.266 C 3.695,9.903 3.309,5.271 3.131,3.131 2.953,0.993 3.012,1.705 0,0"
             style="fill:#ffcc00;fill-opacity:1;fill-rule:nonzero;stroke:none"
             id="path104"
             inkscape:connector-curvature="0" /></g><g
           id="g106"
           transform="translate(229.1152,308.6069)"><path
             d="m 0,0 c -3.549,-8.121 -6.562,-9.827 -10.553,-10.345 -3.992,-0.517 -9.465,7.043 -6.244,11.244 3.221,4.199 7.41,-1.54 7.41,-1.54 0,0 0.149,1.783 1.028,3.724 0.879,1.94 2.707,2.338 2.707,2.338 0,0 -2.313,-1.902 -5.118,-1.111 -2.806,0.788 -3.023,2.491 -1.076,4.315 1.946,1.823 8.526,3.253 12.033,2.266 C 3.695,9.903 3.309,5.271 3.131,3.131 2.953,0.993 3.012,1.705 0,0 Z"
             style="fill:none;stroke:#000000;stroke-width:1;stroke-linecap:butt;stroke-linejoin:miter;stroke-miterlimit:10;stroke-dasharray:none;stroke-opacity:1"
             id="path108"
             inkscape:connector-curvature="0" /></g><g
           id="g110"
           transform="translate(246.7324,302.5898)"><path
             d="m 0,0 c 5.461,-0.888 5.367,8.224 3.014,10.618 -2.356,2.394 -3.012,4.742 -5.321,2.579 -2.308,-2.162 0.95,-3.945 -1.582,-3.666 -2.531,0.282 -0.48,4.464 -2.718,3.146 -2.239,-1.317 -1.289,-5.261 -0.704,-8.455 0.586,-3.194 1.1,-7.233 3.198,-7.608 C -2.016,-3.759 0.516,-4.039 0,0"
             style="fill:#ffcc00;fill-opacity:1;fill-rule:nonzero;stroke:none"
             id="path112"
             inkscape:connector-curvature="0" /></g><g
           id="g114"
           transform="translate(246.7324,302.5898)"><path
             d="m 0,0 c 5.461,-0.888 5.367,8.224 3.014,10.618 -2.356,2.394 -3.012,4.742 -5.321,2.579 -2.308,-2.162 0.95,-3.945 -1.582,-3.666 -2.531,0.282 -0.48,4.464 -2.718,3.146 -2.239,-1.317 -1.289,-5.261 -0.704,-8.455 0.586,-3.194 1.1,-7.233 3.198,-7.608 C -2.016,-3.759 0.516,-4.039 0,0 Z"
             style="fill:none;stroke:#000000;stroke-width:1;stroke-linecap:butt;stroke-linejoin:miter;stroke-miterlimit:10;stroke-dasharray:none;stroke-opacity:1"
             id="path116"
             inkscape:connector-curvature="0" /></g><g
           id="g118"
           transform="translate(246.5352,325.793)"><path
             d="m 0,0 c 6.937,1.508 6.105,1.743 6.715,3.952 0.609,2.207 -2.93,0.607 -0.117,3.709 2.812,3.103 2.965,-0.184 3.644,2.868 0.68,3.054 -4.055,2.44 -7.488,2.109 C -0.678,12.306 1.242,9.818 -1.793,9.159 -4.826,8.498 -6.49,8.966 -6.49,8.966 l 0.982,-3.521 c 0,0 -3.795,0.421 -3.176,-2.352 C -8.063,0.323 -7.582,-4.138 0,0"
             style="fill:#ffcc00;fill-opacity:1;fill-rule:nonzero;stroke:none"
             id="path120"
             inkscape:connector-curvature="0" /></g><g
           id="g122"
           transform="translate(246.5352,325.793)"><path
             d="m 0,0 c 6.937,1.508 6.105,1.743 6.715,3.952 0.609,2.207 -2.93,0.607 -0.117,3.709 2.812,3.103 2.965,-0.184 3.644,2.868 0.68,3.054 -4.055,2.44 -7.488,2.109 C -0.678,12.306 1.242,9.818 -1.793,9.159 -4.826,8.498 -6.49,8.966 -6.49,8.966 l 0.982,-3.521 c 0,0 -3.795,0.421 -3.176,-2.352 C -8.063,0.323 -7.582,-4.138 0,0 Z"
             style="fill:none;stroke:#000000;stroke-width:1;stroke-linecap:butt;stroke-linejoin:miter;stroke-miterlimit:10;stroke-dasharray:none;stroke-opacity:1"
             id="path124"
             inkscape:connector-curvature="0" /></g><g
           id="g126"
           transform="translate(253.5566,353.8877)"><path
             d="M 0,0 C 0.914,-4.368 -1.863,-7.048 2.074,-5.777 6.01,-4.505 5.461,-0.888 5.777,2.916 6.094,6.721 4.207,9.631 0.27,8.361 -3.668,7.09 -7.02,2.625 -5.098,0.137 -3.176,-2.352 -9.363,0.04 -6.574,-2.26 -3.785,-4.56 -2.016,-3.76 0,0"
             style="fill:#ffcc00;fill-opacity:1;fill-rule:nonzero;stroke:none"
             id="path128"
             inkscape:connector-curvature="0" /></g><g
           id="g130"
           transform="translate(253.5566,353.8877)"><path
             d="M 0,0 C 0.914,-4.368 -1.863,-7.048 2.074,-5.777 6.01,-4.505 5.461,-0.888 5.777,2.916 6.094,6.721 4.207,9.631 0.27,8.361 -3.668,7.09 -7.02,2.625 -5.098,0.137 -3.176,-2.352 -9.363,0.04 -6.574,-2.26 -3.785,-4.56 -2.016,-3.76 0,0 Z"
             style="fill:none;stroke:#000000;stroke-width:1;stroke-linecap:butt;stroke-linejoin:miter;stroke-miterlimit:10;stroke-dasharray:none;stroke-opacity:1"
             id="path132"
             inkscape:connector-curvature="0" /></g><g
           id="g134"
           transform="translate(242.8125,373.1372)"><path
             d="m 0,0 c -1.617,-4.087 3.631,-7.513 -2.543,-10.1 -6.176,-2.589 -14.461,0.177 -12.082,3.185 2.379,3.007 4.77,1.036 8.238,1.79 C -2.918,-4.371 -3.293,1.359 0,0"
             style="fill:#ffcc00;fill-opacity:1;fill-rule:nonzero;stroke:none"
             id="path136"
             inkscape:connector-curvature="0" /></g><g
           id="g138"
           transform="translate(242.8125,373.1372)"><path
             d="m 0,0 c -1.617,-4.087 3.631,-7.513 -2.543,-10.1 -6.176,-2.589 -14.461,0.177 -12.082,3.185 2.379,3.007 4.77,1.036 8.238,1.79 C -2.918,-4.371 -3.293,1.359 0,0 Z"
             style="fill:none;stroke:#000000;stroke-width:1;stroke-linecap:butt;stroke-linejoin:miter;stroke-miterlimit:10;stroke-dasharray:none;stroke-opacity:1"
             id="path140"
             inkscape:connector-curvature="0" /></g><g
           id="g142"
           transform="translate(205.9668,329.4268)"><path
             d="m 0,0 c 2.285,-3.239 5.637,1.226 9.141,2.403 3.504,1.177 7.371,1.602 8.484,4.751 1.113,3.147 -2.566,-0.144 -4.594,1.076 -2.027,1.22 0.246,2.959 -1.922,2.489 C 8.943,10.247 9.342,9.918 7.465,7.851 5.59,5.782 8.721,12.689 7.596,14.521 6.471,16.351 2.744,17.617 1.959,13.295 1.174,8.972 2.592,5.545 3.354,4.465 4.113,3.386 -2.107,5.354 0,0"
             style="fill:#ffcc00;fill-opacity:1;fill-rule:nonzero;stroke:none"
             id="path144"
             inkscape:connector-curvature="0" /></g><g
           id="g146"
           transform="translate(205.9668,329.4268)"><path
             d="m 0,0 c 2.285,-3.239 5.637,1.226 9.141,2.403 3.504,1.177 7.371,1.602 8.484,4.751 1.113,3.147 -2.566,-0.144 -4.594,1.076 -2.027,1.22 0.246,2.959 -1.922,2.489 C 8.943,10.247 9.342,9.918 7.465,7.851 5.59,5.782 8.721,12.689 7.596,14.521 6.471,16.351 2.744,17.617 1.959,13.295 1.174,8.972 2.592,5.545 3.354,4.465 4.113,3.386 -2.107,5.354 0,0 Z"
             style="fill:none;stroke:#000000;stroke-width:1;stroke-linecap:butt;stroke-linejoin:miter;stroke-miterlimit:10;stroke-dasharray:none;stroke-opacity:1"
             id="path148"
             inkscape:connector-curvature="0" /></g><g
           id="g150"
           transform="translate(154.4961,429.3882)"><path
             d="m 0,0 -4,0 1.031,25.455 1.959,0"
             style="fill:#ffcc00;fill-opacity:1;fill-rule:nonzero;stroke:none"
             id="path152"
             inkscape:connector-curvature="0" /></g><g
           id="g154"
           transform="translate(49.5698,378.2236)"><path
             d="m 0,0 c 0.521,-6.591 -1.947,-11.638 -3.84,-14.464 4.983,3.949 8.159,9.976 8.196,10.047 l 0.107,0.204 0.224,0.052 c 11.584,2.673 20.007,7.653 25.038,14.801 0.367,0.522 0.674,1.051 0.938,1.583 -0.702,0.772 -1.492,1.634 -2.467,2.609 -1.634,1.635 -3.812,2.961 -6.475,3.98 C 21.444,18.384 21.172,17.931 20.905,17.445 14.256,5.354 2.312,0.788 0,0"
             style="fill:#ffcc00;fill-opacity:1;fill-rule:nonzero;stroke:none"
             id="path156"
             inkscape:connector-curvature="0" /></g><g
           id="g158"
           transform="translate(80.2329,390.4463)"><path
             d="m 0,0 c -0.264,-0.531 -0.571,-1.061 -0.938,-1.583 -5.031,-7.147 -13.455,-12.127 -25.038,-14.8 l -0.224,-0.053 -0.107,-0.204 c -0.037,-0.07 -3.214,-6.098 -8.196,-10.047 1.893,2.827 4.361,7.874 3.84,14.464 2.311,0.788 14.256,5.354 20.905,17.445 0.267,0.486 0.539,0.94 0.816,1.367 -0.315,0.12 -0.625,0.243 -0.954,0.353 -0.25,-0.394 -0.498,-0.8 -0.738,-1.238 -7.143,-12.987 -20.568,-17.055 -20.703,-17.095 l -0.396,-0.116 0.04,-0.412 c 0.964,-9.964 -5.459,-16.533 -5.524,-16.598 l -2.469,-2.476 3.064,1.684 c 6.218,3.42 10.363,10.661 11.093,12.003 11.717,2.743 20.264,7.838 25.408,15.148 0.321,0.456 0.596,0.913 0.842,1.369 C 0.54,-0.593 0.355,-0.391 0.16,-0.175 0.108,-0.119 0.053,-0.058 0,0"
             style="fill:#000000;fill-opacity:1;fill-rule:nonzero;stroke:none"
             id="path160"
             inkscape:connector-curvature="0" /></g><g
           id="g162"
           transform="translate(58.2134,434.7202)"><path
             d="m 0,0 -0.468,-0.024 -0.053,0.466 c -0.031,0.236 -0.832,5.631 -10.927,6.916 2.714,-2.823 9.581,-10.341 8.912,-13.463 -0.07,-0.327 0.017,-0.435 0.047,-0.471 0.1,-0.125 0.435,-0.335 1.541,-0.335 0.837,0 1.87,0.114 2.964,0.234 1.219,0.134 2.48,0.273 3.627,0.273 1.231,0 2.96,-0.137 3.748,-1.319 1.758,-2.638 4.633,-9.642 -6.625,-17.684 -1.921,-1.372 -4.065,-3.465 -3.367,-5.641 0.907,-2.828 5.974,-4.647 9.191,-4.712 0.06,0.24 0.125,0.48 0.19,0.718 0.144,0.523 0.279,1.017 0.364,1.528 l 0.043,0.136 c 3.083,6.372 6.553,11.992 10.285,16.954 C 19.406,-14.972 18.265,0.943 0,0"
             style="fill:#ffcc00;fill-opacity:1;fill-rule:nonzero;stroke:none"
             id="path164"
             inkscape:connector-curvature="0" /></g><g
           id="g166"
           transform="translate(66.6626,398.3955)"><path
             d="m 0,0 0.122,0.494 c 0.006,0.024 0.013,0.047 0.019,0.07 -3.217,0.065 -8.285,1.884 -9.191,4.712 -0.698,2.177 1.446,4.269 3.366,5.641 11.259,8.042 8.384,15.046 6.625,17.685 -0.788,1.182 -2.516,1.318 -3.748,1.318 -1.146,0 -2.407,-0.138 -3.627,-0.273 -1.093,-0.12 -2.127,-0.233 -2.963,-0.233 -1.106,0 -1.441,0.21 -1.541,0.335 -0.03,0.036 -0.118,0.144 -0.047,0.47 0.669,3.122 -6.199,10.64 -8.912,13.464 10.095,-1.285 10.896,-6.68 10.926,-6.916 l 0.054,-0.466 0.468,0.024 C 9.815,37.268 10.957,21.353 11.022,19.9 c 0.292,0.39 0.589,0.769 0.885,1.15 -0.545,4.059 -3.562,16.914 -19.979,16.293 -0.416,1.573 -2.565,6.601 -13.111,7.479 l -1.36,0.114 0.965,-0.965 c 4.143,-4.144 10.123,-11.17 9.615,-13.542 -0.113,-0.526 -0.03,-0.967 0.246,-1.309 0.396,-0.489 1.111,-0.706 2.32,-0.706 0.891,0 1.951,0.116 3.073,0.24 1.192,0.131 2.426,0.266 3.517,0.266 1.571,0 2.525,-0.285 2.916,-0.873 1.985,-2.976 3.794,-9.053 -6.374,-16.316 -3.97,-2.836 -4.224,-5.241 -3.738,-6.76 1.075,-3.354 6.737,-5.413 10.324,-5.413 0.417,0 0.794,0.03 1.136,0.085 -0.318,0.082 -0.631,0.169 -0.961,0.244 L 0,0 Z"
             style="fill:#000000;fill-opacity:1;fill-rule:nonzero;stroke:none"
             id="path168"
             inkscape:connector-curvature="0" /></g><g
           id="g170"
           transform="translate(152.5469,429.8726)"><path
             d="m 0,0 0,0.01 -0.615,0 c 0,0 0.078,24.544 0.162,24.547 -10.014,-0.025 -59.217,-2.819 -83.763,-53.459 -0.093,-0.536 -0.236,-1.055 -0.372,-1.556 -0.026,-0.092 -0.051,-0.184 -0.076,-0.275 4.57,-1.109 8.13,-2.916 10.59,-5.377 1.065,-1.064 1.912,-1.996 2.66,-2.819 1.579,-1.736 2.532,-2.784 3.48,-2.784 1.231,0 2.965,1.722 6.383,5.581 1.347,1.521 2.834,3.372 4.407,5.332 7.779,9.685 18.433,22.948 36.318,28.564 0.144,0.033 10.398,2.256 18.494,2.256 0.279,0 0.543,-0.008 0.811,-0.014 0.009,0 0.007,0.004 0.019,0.004 C -1.279,0.006 -0.623,0.002 0,0"
             style="fill:#ffcc00;fill-opacity:1;fill-rule:nonzero;stroke:none"
             id="path172"
             inkscape:connector-curvature="0" /></g><g
           id="g174"
           transform="translate(152.1094,454.4297)"><path
             d="m 0,0 c 0.066,0 0.277,-0.001 0.437,-0.002 l 0,0.001 C 0.342,0 0.244,0 0.131,0 0.09,0 0.043,0 0,0"
             style="fill:#ffcc00;fill-opacity:1;fill-rule:nonzero;stroke:none"
             id="path176"
             inkscape:connector-curvature="0" /></g><g
           id="g178"
           transform="translate(152.5469,429.522)"><path
             d="m 0,0 -0.51,-0.134 c 0,0 -1.367,0.472 -1.011,0.49 -0.268,0.006 -0.532,0.014 -0.811,0.014 -8.096,0 -18.35,-2.222 -18.494,-2.256 -17.885,-5.615 -28.539,-18.879 -36.318,-28.564 -1.573,-1.959 -3.06,-3.81 -4.407,-5.331 -3.418,-3.86 -5.152,-5.581 -6.383,-5.581 -0.948,0 -1.901,1.048 -3.48,2.784 -0.748,0.823 -1.595,1.755 -2.66,2.819 -2.46,2.46 -6.02,4.268 -10.59,5.377 0.025,0.091 0.05,0.183 0.076,0.274 0.136,0.502 0.279,1.021 0.372,1.557 24.546,50.639 73.749,53.433 83.763,53.459 l 0.016,0 c 0.042,0 0.089,0 0.13,0 0.114,0 0.211,0 0.307,-0.001 l 0,0.496 0,0.5 c 0.057,0.001 0.119,0.001 0.18,0.002 -0.145,0.002 -0.299,0.003 -0.487,0.003 -8.488,0 -47.262,-1.966 -73.67,-35.984 -0.296,-0.381 -0.593,-0.761 -0.885,-1.15 -3.731,-4.962 -7.202,-10.582 -10.285,-16.954 l -0.043,-0.136 c -0.085,-0.511 -0.22,-1.005 -0.363,-1.527 -0.066,-0.239 -0.13,-0.478 -0.191,-0.719 -0.006,-0.023 -0.012,-0.047 -0.018,-0.07 l -0.122,-0.494 0.496,-0.113 c 0.33,-0.075 0.642,-0.162 0.961,-0.245 0.767,-0.198 1.513,-0.41 2.218,-0.649 0.328,-0.111 0.638,-0.233 0.953,-0.353 2.663,-1.019 4.84,-2.346 6.475,-3.98 0.975,-0.975 1.765,-1.838 2.467,-2.61 0.053,-0.057 0.108,-0.118 0.16,-0.175 0.196,-0.215 0.38,-0.418 0.561,-0.614 1.441,-1.568 2.423,-2.497 3.659,-2.497 1.711,0 3.487,1.803 7.132,5.918 1.363,1.539 2.856,3.399 4.438,5.368 7.698,9.585 18.241,22.712 35.794,28.225 0.101,0.022 10.252,2.221 18.238,2.221 0.836,0 1.602,-0.035 2.332,-0.085 L 0,-0.228 0,0 Z"
             style="fill:#000000;fill-opacity:1;fill-rule:nonzero;stroke:none"
             id="path180"
             inkscape:connector-curvature="0" /></g><g
           id="g182"
           transform="translate(152.9082,428.7852)"><path
             d="M 0,0 0,0.021 C -0.061,0.018 -0.123,0.015 -0.182,0.011 -0.123,0.006 -0.059,0.004 0,0"
             style="fill:#000000;fill-opacity:1;fill-rule:nonzero;stroke:none"
             id="path184"
             inkscape:connector-curvature="0" /></g><g
           id="g186"
           transform="translate(225.2207,390.4463)"><path
             d="m 0,0 c 0.264,-0.531 0.572,-1.061 0.939,-1.583 5.03,-7.147 13.454,-12.127 25.038,-14.8 l 0.224,-0.053 0.106,-0.204 c 0.037,-0.07 3.214,-6.098 8.197,-10.047 -1.893,2.827 -4.361,7.874 -3.84,14.464 C 28.354,-11.435 16.408,-6.869 9.76,5.222 9.492,5.708 9.219,6.162 8.943,6.589 6.279,5.571 4.104,4.244 2.467,2.609 1.492,1.635 0.703,0.772 0,0"
             style="fill:#ffcc00;fill-opacity:1;fill-rule:nonzero;stroke:none"
             id="path188"
             inkscape:connector-curvature="0" /></g><g
           id="g190"
           transform="translate(262.4395,361.9292)"><path
             d="m 0,0 c -0.066,0.065 -6.488,6.634 -5.523,16.598 l 0.039,0.412 -0.397,0.116 c -0.135,0.04 -13.56,4.108 -20.703,17.095 -0.24,0.438 -0.488,0.844 -0.738,1.238 -0.328,-0.11 -0.639,-0.232 -0.953,-0.353 0.275,-0.427 0.548,-0.881 0.816,-1.367 6.648,-12.091 18.594,-16.656 20.904,-17.445 -0.521,-6.59 1.948,-11.637 3.84,-14.464 -4.982,3.949 -8.16,9.977 -8.197,10.047 l -0.106,0.205 -0.224,0.052 c -11.584,2.673 -20.008,7.653 -25.037,14.8 -0.367,0.522 -0.676,1.052 -0.94,1.583 -0.051,-0.058 -0.107,-0.119 -0.158,-0.175 -0.197,-0.216 -0.381,-0.418 -0.561,-0.614 0.247,-0.456 0.52,-0.913 0.84,-1.369 5.145,-7.31 13.692,-12.405 25.409,-15.148 0.73,-1.342 4.877,-8.583 11.093,-12.003 L 2.467,-2.476 0,0 Z"
             style="fill:#000000;fill-opacity:1;fill-rule:nonzero;stroke:none"
             id="path192"
             inkscape:connector-curvature="0" /></g><g
           id="g194"
           transform="translate(247.8418,403.6719)"><path
             d="m 0,0 c 0.697,2.177 -1.445,4.269 -3.365,5.641 -11.26,8.042 -8.385,15.046 -6.627,17.684 0.789,1.182 2.517,1.319 3.748,1.319 1.148,0 2.408,-0.139 3.627,-0.273 1.096,-0.12 2.129,-0.234 2.965,-0.234 1.105,0 1.439,0.21 1.541,0.335 0.029,0.036 0.117,0.145 0.047,0.471 -0.668,3.122 6.199,10.64 8.912,13.463 C 0.752,37.122 -0.049,31.727 -0.078,31.491 l -0.055,-0.467 -0.469,0.024 C -18.865,31.992 -20.006,16.076 -20.072,14.624 -16.34,9.662 -12.869,4.042 -9.787,-2.33 l 0.043,-0.136 c 0.084,-0.511 0.221,-1.005 0.363,-1.527 0.067,-0.239 0.129,-0.478 0.19,-0.719 C -5.975,-4.647 -0.906,-2.828 0,0"
             style="fill:#ffcc00;fill-opacity:1;fill-rule:nonzero;stroke:none"
             id="path196"
             inkscape:connector-curvature="0" /></g><g
           id="g198"
           transform="translate(247.2402,434.7202)"><path
             d="M 0,0 0.469,-0.024 0.523,0.442 C 0.553,0.678 1.354,6.073 11.449,7.358 8.736,4.535 1.869,-2.983 2.537,-6.105 2.607,-6.432 2.52,-6.54 2.49,-6.576 2.389,-6.701 2.055,-6.911 0.949,-6.911 c -0.836,0 -1.869,0.114 -2.965,0.234 -1.218,0.134 -2.478,0.273 -3.627,0.273 -1.23,0 -2.959,-0.137 -3.748,-1.319 -1.757,-2.638 -4.632,-9.642 6.627,-17.684 1.92,-1.372 4.063,-3.465 3.366,-5.641 -0.907,-2.828 -5.975,-4.647 -9.192,-4.712 0.006,-0.024 0.014,-0.047 0.02,-0.071 l 0.121,-0.494 -0.496,-0.113 c -0.33,-0.075 -0.641,-0.162 -0.961,-0.244 0.343,-0.054 0.72,-0.085 1.136,-0.085 3.586,0 9.249,2.059 10.325,5.413 0.486,1.519 0.232,3.924 -3.739,6.76 -10.168,7.263 -8.357,13.34 -6.375,16.316 0.393,0.588 1.346,0.874 2.916,0.874 1.094,0 2.327,-0.136 3.518,-0.267 1.123,-0.123 2.182,-0.24 3.074,-0.24 1.209,0 1.924,0.218 2.319,0.706 0.277,0.343 0.359,0.783 0.248,1.309 -0.51,2.372 5.47,9.398 9.613,13.542 l 0.965,0.965 -1.36,-0.113 C 2.189,7.619 0.039,2.591 -0.377,1.018 c -16.416,0.621 -19.434,-12.234 -19.978,-16.292 0.296,-0.381 0.591,-0.761 0.884,-1.15 C -19.404,-14.972 -18.264,0.943 0,0"
             style="fill:#000000;fill-opacity:1;fill-rule:nonzero;stroke:none"
             id="path200"
             inkscape:connector-curvature="0" /></g><g
           id="g202"
           transform="translate(153.3633,429.8823)"><path
             d="m 0,0 -0.816,0 0,-0.01 c 0.679,-0.002 1.32,-0.004 1.32,-0.004 L 0.502,-0.015 c 0.443,0.016 0.902,0.025 1.375,0.025 8.096,0 18.35,-2.222 18.494,-2.256 17.885,-5.615 28.539,-18.879 36.317,-28.564 1.574,-1.96 3.06,-3.811 4.408,-5.332 3.418,-3.859 5.15,-5.581 6.383,-5.581 0.949,0 1.902,1.048 3.48,2.785 0.748,0.822 1.596,1.754 2.658,2.818 2.461,2.461 6.022,4.268 10.592,5.377 -0.025,0.092 -0.051,0.183 -0.076,0.275 -0.137,0.502 -0.279,1.02 -0.373,1.556 -24.662,50.88 -74.221,53.46 -83.908,53.46 -0.19,0 -0.346,-0.002 -0.491,-0.003 l 0.002,0 L 0,0 Z"
             style="fill:#ffcc00;fill-opacity:1;fill-rule:nonzero;stroke:none"
             id="path204"
             inkscape:connector-curvature="0" /></g><g
           id="g206"
           transform="translate(225.2207,390.4463)"><path
             d="m 0,0 c 0.703,0.772 1.492,1.635 2.467,2.609 1.637,1.635 3.812,2.962 6.476,3.98 0.315,0.12 0.625,0.243 0.953,0.353 0.706,0.24 1.45,0.452 2.217,0.65 0.321,0.082 0.631,0.169 0.961,0.244 l 0.496,0.113 -0.121,0.494 c -0.006,0.024 -0.013,0.047 -0.019,0.071 -0.061,0.24 -0.123,0.48 -0.19,0.718 -0.142,0.523 -0.279,1.017 -0.363,1.528 l -0.043,0.136 C 9.752,17.268 6.281,22.888 2.549,27.85 2.256,28.239 1.961,28.619 1.664,29 c -26.408,34.018 -65.182,35.984 -73.67,35.984 -0.187,0 -0.344,-0.002 -0.488,-0.003 -0.061,-10e-4 -0.123,-0.002 -0.18,-0.002 l 0,-0.5 0,-0.497 0,-10e-4 c 0.096,0 0.174,0 0.178,0 0.144,10e-4 0.301,0.003 0.49,0.003 9.688,0 59.246,-2.58 83.908,-53.46 C 11.996,9.988 12.139,9.47 12.275,8.968 12.301,8.876 12.326,8.785 12.352,8.693 7.781,7.584 4.221,5.777 1.76,3.316 0.697,2.252 -0.15,1.32 -0.898,0.498 -2.477,-1.239 -3.43,-2.287 -4.379,-2.287 c -1.232,0 -2.965,1.722 -6.383,5.581 -1.347,1.521 -2.834,3.373 -4.408,5.332 -7.777,9.685 -18.432,22.949 -36.316,28.564 -0.145,0.034 -10.399,2.256 -18.494,2.256 -0.473,0 -0.932,-0.008 -1.375,-0.025 l -1.319,-0.345 0,-0.228 0,-0.488 0,-0.021 c 0.059,0.004 0.121,0.006 0.18,0.011 0.058,0.004 0.121,0.006 0.181,0.01 0.729,0.051 1.495,0.086 2.333,0.086 7.986,0 18.136,-2.199 18.238,-2.221 17.551,-5.513 28.096,-18.64 35.793,-28.225 1.582,-1.969 3.076,-3.83 4.439,-5.369 3.645,-4.114 5.42,-5.918 7.131,-5.918 1.236,0 2.219,0.93 3.66,2.498 0.18,0.196 0.364,0.398 0.561,0.614 C -0.107,-0.119 -0.051,-0.058 0,0"
             style="fill:#000000;fill-opacity:1;fill-rule:nonzero;stroke:none"
             id="path208"
             inkscape:connector-curvature="0" /></g><g
           id="g210"
           transform="translate(152.5469,429.8726)"><path
             d="m 0,0 c -0.623,0.002 -1.279,0.006 -1.502,0.01 -0.012,0 -0.01,-0.004 -0.019,-0.004 -0.356,-0.019 1.011,-0.49 1.011,-0.49 L 0,-0.351 1.318,-0.005 1.32,-0.004 c 0,0 -0.64,0.002 -1.32,0.004"
             style="fill:#000000;fill-opacity:1;fill-rule:nonzero;stroke:none"
             id="path212"
             inkscape:connector-curvature="0" /></g><g
           id="g214"
           transform="translate(97.0249,413.7651)"><path
             d="M 0,0 2.132,1.76 C 3.55,2.929 3.826,4.037 2.963,5.083 2.733,5.361 2.498,5.568 2.257,5.704 2.015,5.841 1.752,5.899 1.47,5.883 1.187,5.867 0.876,5.77 0.537,5.592 0.199,5.415 -0.182,5.151 -0.604,4.804 l -2,-1.65 L 0,0 Z m -3.798,4.603 2.014,1.661 c 0.64,0.529 1.026,1.027 1.154,1.494 C -0.501,8.226 -0.65,8.719 -1.081,9.24 -1.269,9.467 -1.468,9.638 -1.68,9.752 -1.891,9.867 -2.122,9.917 -2.372,9.901 -2.622,9.885 -2.899,9.8 -3.201,9.644 -3.502,9.489 -3.838,9.259 -4.206,8.956 L -6.1,7.393 -3.798,4.603 Z M 4.686,6.504 C 5.49,5.529 5.789,4.522 5.58,3.483 5.371,2.445 4.646,1.413 3.403,0.387 l -3.885,-3.206 -8.483,10.281 3.73,3.077 c 0.541,0.447 1.077,0.787 1.607,1.021 0.53,0.234 1.038,0.362 1.524,0.385 0.487,0.023 0.944,-0.061 1.37,-0.254 C -0.309,11.5 0.073,11.199 0.411,10.789 0.828,10.284 1.068,9.747 1.131,9.179 1.195,8.611 1.071,8.008 0.763,7.371 1.155,7.542 1.538,7.649 1.908,7.691 2.278,7.733 2.629,7.714 2.958,7.634 3.287,7.554 3.599,7.417 3.891,7.225 4.183,7.033 4.448,6.793 4.686,6.504"
             style="fill:#000000;fill-opacity:1;fill-rule:nonzero;stroke:none"
             id="path216"
             inkscape:connector-curvature="0" /></g><g
           id="g218"
           transform="translate(97.0249,413.7651)"><path
             d="M 0,0 2.132,1.76 C 3.55,2.929 3.826,4.037 2.963,5.083 2.733,5.361 2.498,5.568 2.257,5.704 2.015,5.841 1.752,5.899 1.47,5.883 1.187,5.867 0.876,5.77 0.537,5.592 0.199,5.415 -0.182,5.151 -0.604,4.804 l -2,-1.65 L 0,0 Z m -3.798,4.603 2.014,1.661 c 0.64,0.529 1.026,1.027 1.154,1.494 C -0.501,8.226 -0.65,8.719 -1.081,9.24 -1.269,9.467 -1.468,9.638 -1.68,9.752 -1.891,9.867 -2.122,9.917 -2.372,9.901 -2.622,9.885 -2.899,9.8 -3.201,9.644 -3.502,9.489 -3.838,9.259 -4.206,8.956 L -6.1,7.393 -3.798,4.603 Z M 4.686,6.504 C 5.49,5.529 5.789,4.522 5.58,3.483 5.371,2.445 4.646,1.413 3.403,0.387 l -3.885,-3.206 -8.483,10.281 3.73,3.077 c 0.541,0.447 1.077,0.787 1.607,1.021 0.53,0.234 1.038,0.362 1.524,0.385 0.487,0.023 0.944,-0.061 1.37,-0.254 C -0.309,11.5 0.073,11.199 0.411,10.789 0.828,10.284 1.068,9.747 1.131,9.179 1.195,8.611 1.071,8.008 0.763,7.371 1.155,7.542 1.538,7.649 1.908,7.691 2.278,7.733 2.629,7.714 2.958,7.634 3.287,7.554 3.599,7.417 3.891,7.225 4.183,7.033 4.448,6.793 4.686,6.504 Z"
             style="fill:none;stroke:#000000;stroke-width:0.5;stroke-linecap:butt;stroke-linejoin:miter;stroke-miterlimit:10;stroke-dasharray:none;stroke-opacity:1"
             id="path220"
             inkscape:connector-curvature="0" /></g><g
           id="g222"
           transform="translate(104.9907,424.4424)"><path
             d="M 0,0 3.338,2.208 -1.34,5.725 -1.493,5.624 0,0 Z M 9.848,-0.029 7.943,-1.287 4.789,1.047 0.476,-1.807 1.451,-5.58 -0.395,-6.801 -3.714,6.983 -1.715,8.306 9.848,-0.029 Z"
             style="fill:#000000;fill-opacity:1;fill-rule:nonzero;stroke:none"
             id="path224"
             inkscape:connector-curvature="0" /></g><g
           id="g226"
           transform="translate(104.9907,424.4424)"><path
             d="M 0,0 3.338,2.208 -1.34,5.725 -1.493,5.624 0,0 Z M 9.848,-0.029 7.943,-1.287 4.789,1.047 0.476,-1.807 1.451,-5.58 -0.395,-6.801 -3.714,6.983 -1.715,8.306 9.848,-0.029 Z"
             style="fill:none;stroke:#000000;stroke-width:0.5;stroke-linecap:butt;stroke-linejoin:miter;stroke-miterlimit:10;stroke-dasharray:none;stroke-opacity:1"
             id="path228"
             inkscape:connector-curvature="0" /></g><g
           id="g230"
           transform="translate(119.0781,439.2305)"><path
             d="m 0,0 -3.701,-1.851 5.094,-10.19 -1.944,-0.972 -5.096,10.189 -3.685,-1.842 -0.865,1.732 9.332,4.666 L 0,0 Z"
             style="fill:#000000;fill-opacity:1;fill-rule:nonzero;stroke:none"
             id="path232"
             inkscape:connector-curvature="0" /></g><g
           id="g234"
           transform="translate(119.0781,439.2305)"><path
             d="m 0,0 -3.701,-1.851 5.094,-10.19 -1.944,-0.972 -5.096,10.189 -3.685,-1.842 -0.865,1.732 9.332,4.666 L 0,0 Z"
             style="fill:none;stroke:#000000;stroke-width:0.5;stroke-linecap:butt;stroke-linejoin:miter;stroke-miterlimit:10;stroke-dasharray:none;stroke-opacity:1"
             id="path236"
             inkscape:connector-curvature="0" /></g><g
           id="g238"
           transform="translate(130.623,443.3389)"><path
             d="m 0,0 -3.912,-1.343 3.699,-10.776 -2.058,-0.706 -3.7,10.775 -3.896,-1.338 -0.627,1.832 9.867,3.388 L 0,0 Z"
             style="fill:#000000;fill-opacity:1;fill-rule:nonzero;stroke:none"
             id="path240"
             inkscape:connector-curvature="0" /></g><g
           id="g242"
           transform="translate(130.623,443.3389)"><path
             d="m 0,0 -3.912,-1.343 3.699,-10.776 -2.058,-0.706 -3.7,10.775 -3.896,-1.338 -0.627,1.832 9.867,3.388 L 0,0 Z"
             style="fill:none;stroke:#000000;stroke-width:0.5;stroke-linecap:butt;stroke-linejoin:miter;stroke-miterlimit:10;stroke-dasharray:none;stroke-opacity:1"
             id="path244"
             inkscape:connector-curvature="0" /></g><g
           id="g246"
           transform="translate(143.7988,434.3735)"><path
             d="m 0,0 -8.195,-1.565 -2.5,13.093 2.146,0.41 L -6.412,0.747 -0.363,1.902 0,0 Z"
             style="fill:#000000;fill-opacity:1;fill-rule:nonzero;stroke:none"
             id="path248"
             inkscape:connector-curvature="0" /></g><g
           id="g250"
           transform="translate(143.7988,434.3735)"><path
             d="m 0,0 -8.195,-1.565 -2.5,13.093 2.146,0.41 L -6.412,0.747 -0.363,1.902 0,0 Z"
             style="fill:none;stroke:#000000;stroke-width:0.5;stroke-linecap:butt;stroke-linejoin:miter;stroke-miterlimit:10;stroke-dasharray:none;stroke-opacity:1"
             id="path252"
             inkscape:connector-curvature="0" /></g><g
           id="g254"
           transform="translate(155.1836,434.853)"><path
             d="m 0,0 -9.914,-0.304 -0.408,13.323 9.607,0.294 0.057,-1.916 L -8.08,11.17 -7.969,7.574 -1.02,7.787 -0.963,5.852 -7.91,5.639 -7.789,1.679 -0.059,1.916 0,0 Z"
             style="fill:#000000;fill-opacity:1;fill-rule:nonzero;stroke:none"
             id="path256"
             inkscape:connector-curvature="0" /></g><g
           id="g258"
           transform="translate(155.1836,434.853)"><path
             d="m 0,0 -9.914,-0.304 -0.408,13.323 9.607,0.294 0.057,-1.916 L -8.08,11.17 -7.969,7.574 -1.02,7.787 -0.963,5.852 -7.91,5.639 -7.789,1.679 -0.059,1.916 0,0 Z"
             style="fill:none;stroke:#000000;stroke-width:0.5;stroke-linecap:butt;stroke-linejoin:miter;stroke-miterlimit:10;stroke-dasharray:none;stroke-opacity:1"
             id="path260"
             inkscape:connector-curvature="0" /></g><g
           id="g262"
           transform="translate(168.207,440.8662)"><path
             d="M 0,0 2.533,-0.627 C 3.34,-0.828 3.969,-0.84 4.422,-0.666 4.873,-0.49 5.18,-0.075 5.342,0.58 5.414,0.866 5.432,1.128 5.398,1.366 5.363,1.604 5.266,1.819 5.104,2.011 4.941,2.203 4.711,2.374 4.404,2.523 4.1,2.673 3.715,2.806 3.254,2.92 L 0.869,3.511 0,0 Z m -1.436,-5.791 2.684,-0.665 c 1.783,-0.442 2.838,-0.005 3.164,1.311 0.088,0.351 0.111,0.663 0.078,0.938 -0.035,0.275 -0.142,0.522 -0.324,0.739 -0.184,0.218 -0.445,0.409 -0.789,0.575 -0.344,0.166 -0.783,0.316 -1.314,0.447 l -2.516,0.624 -0.983,-3.969 z m 8.016,0.11 C 6.275,-6.909 5.645,-7.749 4.686,-8.2 3.727,-8.651 2.467,-8.683 0.902,-8.294 L -3.988,-7.083 -0.781,5.854 3.91,4.692 C 4.594,4.522 5.186,4.295 5.687,4.008 6.191,3.721 6.598,3.39 6.906,3.013 7.215,2.635 7.418,2.219 7.518,1.762 7.617,1.306 7.604,0.82 7.475,0.304 7.318,-0.332 7.029,-0.844 6.611,-1.234 6.191,-1.623 5.635,-1.883 4.939,-2.014 5.311,-2.228 5.623,-2.471 5.879,-2.743 6.133,-3.016 6.326,-3.309 6.459,-3.621 6.59,-3.934 6.664,-4.264 6.686,-4.614 6.705,-4.963 6.67,-5.319 6.58,-5.681"
             style="fill:#000000;fill-opacity:1;fill-rule:nonzero;stroke:none"
             id="path264"
             inkscape:connector-curvature="0" /></g><g
           id="g266"
           transform="translate(168.207,440.8662)"><path
             d="M 0,0 2.533,-0.627 C 3.34,-0.828 3.969,-0.84 4.422,-0.666 4.873,-0.49 5.18,-0.075 5.342,0.58 5.414,0.866 5.432,1.128 5.398,1.366 5.363,1.604 5.266,1.819 5.104,2.011 4.941,2.203 4.711,2.374 4.404,2.523 4.1,2.673 3.715,2.806 3.254,2.92 L 0.869,3.511 0,0 Z m -1.436,-5.791 2.684,-0.665 c 1.783,-0.442 2.838,-0.005 3.164,1.311 0.088,0.351 0.111,0.663 0.078,0.938 -0.035,0.275 -0.142,0.522 -0.324,0.739 -0.184,0.218 -0.445,0.409 -0.789,0.575 -0.344,0.166 -0.783,0.316 -1.314,0.447 l -2.516,0.624 -0.983,-3.969 z m 8.016,0.11 C 6.275,-6.909 5.645,-7.749 4.686,-8.2 3.727,-8.651 2.467,-8.683 0.902,-8.294 L -3.988,-7.083 -0.781,5.854 3.91,4.692 C 4.594,4.522 5.186,4.295 5.687,4.008 6.191,3.721 6.598,3.39 6.906,3.013 7.215,2.635 7.418,2.219 7.518,1.762 7.617,1.306 7.604,0.82 7.475,0.304 7.318,-0.332 7.029,-0.844 6.611,-1.234 6.191,-1.623 5.635,-1.883 4.939,-2.014 5.311,-2.228 5.623,-2.471 5.879,-2.743 6.133,-3.016 6.326,-3.309 6.459,-3.621 6.59,-3.934 6.664,-4.264 6.686,-4.614 6.705,-4.963 6.67,-5.319 6.58,-5.681 Z"
             style="fill:none;stroke:#000000;stroke-width:0.5;stroke-linecap:butt;stroke-linejoin:miter;stroke-miterlimit:10;stroke-dasharray:none;stroke-opacity:1"
             id="path268"
             inkscape:connector-curvature="0" /></g><g
           id="g270"
           transform="translate(181.4199,430.1235)"><path
             d="m 0,0 c 0.562,-0.241 1.119,-0.352 1.672,-0.332 0.553,0.02 1.078,0.162 1.576,0.426 0.5,0.263 0.959,0.64 1.379,1.13 0.42,0.49 0.781,1.085 1.08,1.783 C 6.002,3.693 6.184,4.356 6.25,4.994 6.316,5.632 6.277,6.223 6.131,6.767 5.984,7.311 5.732,7.792 5.371,8.21 5.01,8.628 4.549,8.958 3.986,9.199 3.424,9.441 2.863,9.551 2.309,9.529 1.75,9.507 1.223,9.365 0.721,9.103 0.219,8.84 -0.242,8.463 -0.662,7.974 -1.084,7.484 -1.443,6.893 -1.74,6.2 -2.039,5.501 -2.219,4.831 -2.281,4.187 -2.344,3.543 -2.299,2.949 -2.146,2.406 -1.992,1.863 -1.734,1.385 -1.371,0.973 -1.008,0.56 -0.551,0.236 0,0 M 4.705,10.924 C 5.557,10.558 6.273,10.071 6.852,9.463 7.428,8.855 7.852,8.168 8.123,7.399 8.393,6.631 8.5,5.797 8.447,4.896 8.395,3.996 8.166,3.073 7.76,2.127 7.354,1.182 6.85,0.378 6.244,-0.282 5.637,-0.942 4.963,-1.442 4.223,-1.784 3.479,-2.125 2.688,-2.295 1.846,-2.294 c -0.842,10e-4 -1.698,0.188 -2.569,0.561 -0.871,0.373 -1.595,0.863 -2.173,1.467 -0.581,0.605 -1.002,1.292 -1.268,2.062 -0.266,0.77 -0.369,1.604 -0.311,2.502 0.059,0.898 0.293,1.823 0.702,2.774 0.404,0.947 0.916,1.749 1.531,2.407 0.615,0.66 1.297,1.156 2.043,1.489 0.744,0.333 1.535,0.5 2.371,0.501 0.836,0.002 1.68,-0.179 2.533,-0.545"
             style="fill:#000000;fill-opacity:1;fill-rule:nonzero;stroke:none"
             id="path272"
             inkscape:connector-curvature="0" /></g><g
           id="g274"
           transform="translate(181.4199,430.1235)"><path
             d="m 0,0 c 0.562,-0.241 1.119,-0.352 1.672,-0.332 0.553,0.02 1.078,0.162 1.576,0.426 0.5,0.263 0.959,0.64 1.379,1.13 0.42,0.49 0.781,1.085 1.08,1.783 C 6.002,3.693 6.184,4.356 6.25,4.994 6.316,5.632 6.277,6.223 6.131,6.767 5.984,7.311 5.732,7.792 5.371,8.21 5.01,8.628 4.549,8.958 3.986,9.199 3.424,9.441 2.863,9.551 2.309,9.529 1.75,9.507 1.223,9.365 0.721,9.103 0.219,8.84 -0.242,8.463 -0.662,7.974 -1.084,7.484 -1.443,6.893 -1.74,6.2 -2.039,5.501 -2.219,4.831 -2.281,4.187 -2.344,3.543 -2.299,2.949 -2.146,2.406 -1.992,1.863 -1.734,1.385 -1.371,0.973 -1.008,0.56 -0.551,0.236 0,0 Z M 4.705,10.924 C 5.557,10.558 6.273,10.071 6.852,9.463 7.428,8.855 7.852,8.168 8.123,7.399 8.393,6.631 8.5,5.797 8.447,4.896 8.395,3.996 8.166,3.073 7.76,2.127 7.354,1.182 6.85,0.378 6.244,-0.282 5.637,-0.942 4.963,-1.442 4.223,-1.784 3.479,-2.125 2.688,-2.295 1.846,-2.294 c -0.842,10e-4 -1.698,0.188 -2.569,0.561 -0.871,0.373 -1.595,0.863 -2.173,1.467 -0.581,0.605 -1.002,1.292 -1.268,2.062 -0.266,0.77 -0.369,1.604 -0.311,2.502 0.059,0.898 0.293,1.823 0.702,2.774 0.404,0.947 0.916,1.749 1.531,2.407 0.615,0.66 1.297,1.156 2.043,1.489 0.744,0.333 1.535,0.5 2.371,0.501 0.836,0.002 1.68,-0.179 2.533,-0.545 z"
             style="fill:none;stroke:#000000;stroke-width:0.5;stroke-linecap:butt;stroke-linejoin:miter;stroke-miterlimit:10;stroke-dasharray:none;stroke-opacity:1"
             id="path276"
             inkscape:connector-curvature="0" /></g><g
           id="g278"
           transform="translate(193.7891,430.3008)"><path
             d="m 0,0 2.898,-1.787 c 0.413,-0.254 0.788,-0.439 1.123,-0.555 0.336,-0.116 0.647,-0.159 0.924,-0.131 0.28,0.029 0.535,0.13 0.768,0.306 0.234,0.175 0.453,0.427 0.656,0.756 0.363,0.592 0.463,1.141 0.295,1.649 C 6.496,0.745 6.045,1.226 5.311,1.68 L 2.217,3.589 0,0 Z m 3.768,-10.928 -2.016,1.244 0.773,3.518 c 0.153,0.7 0.143,1.303 -0.027,1.807 -0.17,0.505 -0.547,0.939 -1.133,1.301 l -2.355,1.452 -2.854,-4.626 -1.859,1.148 7,11.343 L 6.25,3.202 C 6.842,2.837 7.355,2.447 7.789,2.033 8.223,1.619 8.541,1.177 8.748,0.707 8.955,0.237 9.031,-0.264 8.979,-0.798 8.926,-1.331 8.713,-1.902 8.336,-2.51 7.846,-3.307 7.23,-3.826 6.496,-4.065 5.762,-4.305 4.959,-4.26 4.088,-3.93 4.393,-4.342 4.576,-4.815 4.637,-5.349 4.697,-5.883 4.654,-6.502 4.51,-7.205 l -0.742,-3.723 z"
             style="fill:#000000;fill-opacity:1;fill-rule:nonzero;stroke:none"
             id="path280"
             inkscape:connector-curvature="0" /></g><g
           id="g282"
           transform="translate(193.7891,430.3008)"><path
             d="m 0,0 2.898,-1.787 c 0.413,-0.254 0.788,-0.439 1.123,-0.555 0.336,-0.116 0.647,-0.159 0.924,-0.131 0.28,0.029 0.535,0.13 0.768,0.306 0.234,0.175 0.453,0.427 0.656,0.756 0.363,0.592 0.463,1.141 0.295,1.649 C 6.496,0.745 6.045,1.226 5.311,1.68 L 2.217,3.589 0,0 Z m 3.768,-10.928 -2.016,1.244 0.773,3.518 c 0.153,0.7 0.143,1.303 -0.027,1.807 -0.17,0.505 -0.547,0.939 -1.133,1.301 l -2.355,1.452 -2.854,-4.626 -1.859,1.148 7,11.343 L 6.25,3.202 C 6.842,2.837 7.355,2.447 7.789,2.033 8.223,1.619 8.541,1.177 8.748,0.707 8.955,0.237 9.031,-0.264 8.979,-0.798 8.926,-1.331 8.713,-1.902 8.336,-2.51 7.846,-3.307 7.23,-3.826 6.496,-4.065 5.762,-4.305 4.959,-4.26 4.088,-3.93 4.393,-4.342 4.576,-4.815 4.637,-5.349 4.697,-5.883 4.654,-6.502 4.51,-7.205 l -0.742,-3.723 z"
             style="fill:none;stroke:#000000;stroke-width:0.5;stroke-linecap:butt;stroke-linejoin:miter;stroke-miterlimit:10;stroke-dasharray:none;stroke-opacity:1"
             id="path284"
             inkscape:connector-curvature="0" /></g><g
           id="g286"
           transform="translate(207.0156,411.772)"><path
             d="m 0,0 -1.705,1.382 1.408,11.743 C -0.902,12.358 -1.506,11.599 -2.107,10.847 -2.709,10.095 -3.316,9.339 -3.932,8.582 L -6.57,5.329 -8.17,6.626 0.227,16.979 1.953,15.578 0.537,3.869 c 0.613,0.758 1.221,1.51 1.818,2.258 0.598,0.747 1.206,1.5 1.821,2.258 L 6.811,11.637 8.396,10.352 0,0 Z"
             style="fill:#000000;fill-opacity:1;fill-rule:nonzero;stroke:none"
             id="path288"
             inkscape:connector-curvature="0" /></g><g
           id="g290"
           transform="translate(207.0156,411.772)"><path
             d="m 0,0 -1.705,1.382 1.408,11.743 C -0.902,12.358 -1.506,11.599 -2.107,10.847 -2.709,10.095 -3.316,9.339 -3.932,8.582 L -6.57,5.329 -8.17,6.626 0.227,16.979 1.953,15.578 0.537,3.869 c 0.613,0.758 1.221,1.51 1.818,2.258 0.598,0.747 1.206,1.5 1.821,2.258 L 6.811,11.637 8.396,10.352 0,0 Z"
             style="fill:none;stroke:#000000;stroke-width:0.5;stroke-linecap:butt;stroke-linejoin:miter;stroke-miterlimit:10;stroke-dasharray:none;stroke-opacity:1"
             id="path292"
             inkscape:connector-curvature="0" /></g><g
           id="g294"
           transform="translate(152.5703,389.644)"><path
             d="m 0,0 9.411,-26.129 26.976,0 -22.584,-16.684 9.095,-26.13 -21.642,16.685 -23.214,-16.371 8.47,25.816 -22.585,16.684 28.231,0.63 L 0,0 Z"
             style="fill:#ffffff;fill-opacity:1;fill-rule:nonzero;stroke:none"
             id="path296"
             inkscape:connector-curvature="0" /></g><g
           id="g298"
           transform="translate(146.3574,397.8027)"><path
             d="m 0,0 0,16.969 2.393,0 L 7.83,8.384 C 9.09,6.395 10.07,4.607 10.877,2.87 l 0.051,0.026 c -0.203,2.265 -0.252,4.33 -0.252,6.974 l 0,7.099 2.064,0 L 12.74,0 10.523,0 5.137,8.61 C 3.953,10.499 2.82,12.438 1.965,14.275 L 1.889,14.25 C 2.014,12.11 2.064,10.071 2.064,7.251 L 2.064,0 0,0 Z"
             style="fill:#ffcc00;fill-opacity:1;fill-rule:nonzero;stroke:none"
             id="path300"
             inkscape:connector-curvature="0" /></g><g
           id="g302"
           transform="translate(146.3574,397.8027)"><path
             d="m 0,0 0,16.969 2.393,0 L 7.83,8.384 C 9.09,6.395 10.07,4.607 10.877,2.87 l 0.051,0.026 c -0.203,2.265 -0.252,4.33 -0.252,6.974 l 0,7.099 2.064,0 L 12.74,0 10.523,0 5.137,8.61 C 3.953,10.499 2.82,12.438 1.965,14.275 L 1.889,14.25 C 2.014,12.11 2.064,10.071 2.064,7.251 L 2.064,0 0,0 Z"
             style="fill:none;stroke:#ffcc00;stroke-width:1.20000005;stroke-linecap:butt;stroke-linejoin:miter;stroke-miterlimit:10;stroke-dasharray:none;stroke-opacity:1"
             id="path304"
             inkscape:connector-curvature="0" /></g><g
           id="g306"
           transform="translate(176.3418,379.1802)"><path
             d="m 0,0 -4.937,3.36 -3.087,-4.624 5.503,-3.745 -0.928,-1.39 -7.142,4.862 8.562,12.825 L 4.829,6.619 3.901,5.229 -1.318,8.784 -4.023,4.729 0.913,1.37 0,0 Z"
             style="fill:#ffcc00;fill-opacity:1;fill-rule:nonzero;stroke:none"
             id="path308"
             inkscape:connector-curvature="0" /></g><g
           id="g310"
           transform="translate(176.3418,379.1802)"><path
             d="m 0,0 -4.937,3.36 -3.087,-4.624 5.503,-3.745 -0.928,-1.39 -7.142,4.862 8.562,12.825 L 4.829,6.619 3.901,5.229 -1.318,8.784 -4.023,4.729 0.913,1.37 0,0 Z"
             style="fill:none;stroke:#ffcc00;stroke-width:1.20000005;stroke-linecap:butt;stroke-linejoin:miter;stroke-miterlimit:10;stroke-dasharray:none;stroke-opacity:1"
             id="path312"
             inkscape:connector-curvature="0" /></g><g
           id="g314"
           transform="translate(179.0205,345.0469)"><path
             d="M 0,0 17.056,0.131 16.37,-2.024 7.993,-2.012 C 5.696,-2.013 3.634,-1.989 1.692,-1.826 L 1.677,-1.871 c 1.65,-1.004 3.394,-2.265 5.193,-3.595 l 6.803,-5.041 -0.678,-2.132 L -0.7,-2.201 0,0 Z"
             style="fill:#ffcc00;fill-opacity:1;fill-rule:nonzero;stroke:none"
             id="path316"
             inkscape:connector-curvature="0" /></g><g
           id="g318"
           transform="translate(179.0205,345.0469)"><path
             d="M 0,0 17.056,0.131 16.37,-2.024 7.993,-2.012 C 5.696,-2.013 3.634,-1.989 1.692,-1.826 L 1.677,-1.871 c 1.65,-1.004 3.394,-2.265 5.193,-3.595 l 6.803,-5.041 -0.678,-2.132 L -0.7,-2.201 0,0 Z"
             style="fill:none;stroke:#ffcc00;stroke-width:1.20000005;stroke-linecap:butt;stroke-linejoin:miter;stroke-miterlimit:10;stroke-dasharray:none;stroke-opacity:1"
             id="path320"
             inkscape:connector-curvature="0" /></g><g
           id="g322"
           transform="translate(150.2344,317.1675)"><path
             d="M 0,0 1.662,-4.885 C 2.039,-5.992 2.291,-7 2.543,-7.981 l 0.051,0 c 0.252,1.007 0.528,2.039 0.855,3.071 L 5.111,0 0,0 Z m 5.564,1.712 1.762,5.337 2.267,0 -5.766,-16.969 -2.643,0 -5.791,16.969 2.341,0 1.813,-5.337 6.017,0 z"
             style="fill:#ffcc00;fill-opacity:1;fill-rule:nonzero;stroke:none"
             id="path324"
             inkscape:connector-curvature="0" /></g><g
           id="g326"
           transform="translate(150.2344,317.1675)"><path
             d="M 0,0 1.662,-4.885 C 2.039,-5.992 2.291,-7 2.543,-7.981 l 0.051,0 c 0.252,1.007 0.528,2.039 0.855,3.071 L 5.111,0 0,0 Z m 5.564,1.712 1.762,5.337 2.267,0 -5.766,-16.969 -2.643,0 -5.791,16.969 2.341,0 1.813,-5.337 6.017,0 z"
             style="fill:none;stroke:#ffcc00;stroke-width:1.20000005;stroke-linecap:butt;stroke-linejoin:miter;stroke-miterlimit:10;stroke-dasharray:none;stroke-opacity:1"
             id="path328"
             inkscape:connector-curvature="0" /></g><g
           id="g330"
           transform="translate(125.041,339.1821)"><path
             d="m 0,0 c -0.07,0.53 -0.282,1.267 -0.531,2.042 -1.367,4.239 -4.481,5.776 -8.628,4.439 -3.631,-1.146 -5.272,-3.939 -3.919,-8.132 0.331,-1.025 0.671,-1.771 0.954,-2.259 L 0,0 Z m -12.942,-6.363 c -0.573,1.15 -1.172,2.541 -1.68,4.113 -0.918,2.849 -0.911,5.091 -0.09,6.839 0.811,1.772 2.332,3.143 4.816,3.944 2.507,0.809 4.808,0.696 6.684,-0.285 1.899,-0.974 3.439,-3.094 4.399,-6.079 0.458,-1.413 0.771,-2.62 0.98,-3.66 l -15.109,-4.872 z"
             style="fill:#ffcc00;fill-opacity:1;fill-rule:nonzero;stroke:none"
             id="path332"
             inkscape:connector-curvature="0" /></g><g
           id="g334"
           transform="translate(125.041,339.1821)"><path
             d="m 0,0 c -0.07,0.53 -0.282,1.267 -0.531,2.042 -1.367,4.239 -4.481,5.776 -8.628,4.439 -3.631,-1.146 -5.272,-3.939 -3.919,-8.132 0.331,-1.025 0.671,-1.771 0.954,-2.259 L 0,0 Z m -12.942,-6.363 c -0.573,1.15 -1.172,2.541 -1.68,4.113 -0.918,2.849 -0.911,5.091 -0.09,6.839 0.811,1.772 2.332,3.143 4.816,3.944 2.507,0.809 4.808,0.696 6.684,-0.285 1.899,-0.974 3.439,-3.094 4.399,-6.079 0.458,-1.413 0.771,-2.62 0.98,-3.66 l -15.109,-4.872 z"
             style="fill:none;stroke:#ffcc00;stroke-width:1.20000005;stroke-linecap:butt;stroke-linejoin:miter;stroke-miterlimit:10;stroke-dasharray:none;stroke-opacity:1"
             id="path336"
             inkscape:connector-curvature="0" /></g><g
           id="g338"
           transform="translate(133.4717,381.8042)"><path
             d="m 0,0 -3.853,3.431 c -0.875,0.777 -1.59,1.529 -2.293,2.26 L -6.19,5.667 C -5.913,4.666 -5.645,3.631 -5.421,2.572 L -4.446,-2.519 0,0 Z m -3.997,-4.232 1.098,-5.513 -1.972,-1.117 -3.348,17.607 2.3,1.303 L 7.483,-3.863 5.446,-5.017 1.239,-1.266 -3.997,-4.232 Z"
             style="fill:#ffcc00;fill-opacity:1;fill-rule:nonzero;stroke:none"
             id="path340"
             inkscape:connector-curvature="0" /></g><g
           id="g342"
           transform="translate(133.4717,381.8042)"><path
             d="m 0,0 -3.853,3.431 c -0.875,0.777 -1.59,1.529 -2.293,2.26 L -6.19,5.667 C -5.913,4.666 -5.645,3.631 -5.421,2.572 L -4.446,-2.519 0,0 Z m -3.997,-4.232 1.098,-5.513 -1.972,-1.117 -3.348,17.607 2.3,1.303 L 7.483,-3.863 5.446,-5.017 1.239,-1.266 -3.997,-4.232 Z"
             style="fill:none;stroke:#ffcc00;stroke-width:1.20000005;stroke-linecap:butt;stroke-linejoin:miter;stroke-miterlimit:10;stroke-dasharray:none;stroke-opacity:1"
             id="path344"
             inkscape:connector-curvature="0" /></g></g></g></g></svg>