<svg xmlns="http://www.w3.org/2000/svg" width="1200px" height="900px" viewBox="0 0 1200 900">
<rect fill="#fff" width="1200" height="900"/>
<rect fill="#002868" width="1200" height="450"/>
<rect fill="#BF0A30" width="450" height="900"/>
<path fill="#fff" d="M337.982 595.058l-108.739 -80.7461 -108.918 80.5016 42.939 -128.713 -109.967 -79.0535 135.276 1.19764 40.9559 -129.36 40.6654 129.454 135.279 -0.896457 -110.143 78.8091 42.6508 128.807zm-300.822 -284.054l8.49213 -12.9224 22.552 7.76693 -16.0122 -17.7177 8.4626 -12.8776 31.6795 20.9551 -5.27244 8.02441 -24.1583 -15.9839 20.0705 22.2047 -4.77402 7.26142 -28.2331 -9.78071 24.1571 15.9839 -5.28543 8.04449 -31.6783 -20.9587zm71.6917 -72.5669l11.4154 -6.27756 12.8799 7.57323 0.556299 -14.9669 11.348 -6.24331 -2.33386 26.5169 7.64291 13.9819 -10.3039 5.66929 -7.64055 -13.9819 -23.5642 -12.2717zm6.76535 35.2122l-10.8425 7.82362 2.16496 6.17835 -9.72874 7.02165 -10.578 -39.2634 10.3783 -7.49173 33.7358 22.5531 -9.96024 7.18819 -5.1685 -4.00984m-6.78898 -5.24528l-11.3681 -8.65276 4.58031 13.5508 6.7878 -4.89803zm112.826 -44.811c0.394488,-7.22717 1.96417,-12.2126 4.70551,-14.9575 2.76024,-2.74252 6.79252,-3.97087 12.098,-3.67795 7.19528,0.395669 12.2457,4.06535 13.5921,11.2795 0.550394,2.87362 0.741732,5.84882 0.572835,8.92677 -0.376772,6.89646 -1.81535,11.8807 -4.31457,14.9516 -2.50276,3.06969 -6.59528,4.44921 -12.2787,4.1374 -7.95827,-0.437008 -12.828,-4.67835 -14.0669,-12.5551 -0.366142,-2.46496 -0.468898,-5.16732 -0.308268,-8.10472m10.4409 0.597638c-0.183071,3.3189 -1.05945,12.5563 4.30039,12.8516 5.42598,0.297638 5.54764,-8.55354 5.73661,-12.013 0.188976,-3.4689 1.1374,-12.7583 -4.41969,-13.0654 -5.42244,-0.297638 -5.43307,8.82756 -5.61732,12.2268zm-14.1177 19.1126l-31.4504 3.36969c0.0283465,-3.15591 0.806693,-6.19843 2.33268,-9.12992 1.5437,-2.95039 4.6311,-6.56339 9.25984,-10.8366 2.82756,-2.62087 4.60866,-4.5685 5.33976,-5.84764 1.20709,-2.11417 1.46339,-4.70315 -0.674409,-6.32835 -1.89567,-1.50236 -4.95118,-1.14331 -6.48307,0.720472 -0.75,0.934252 -1.15866,2.48386 -1.22244,4.64882l-10.5909 0.274016c0.0968504,-3.00591 0.605906,-5.39409 1.52835,-7.16457 0.918898,-1.78701 2.32795,-3.22441 4.2248,-4.31693 4.32047,-2.50866 12.1335,-3.28583 16.9016,-1.88858 4.16693,1.20709 7.19055,4.70433 7.65354,9.05197 0.244488,2.30787 -0.197244,4.58268 -1.32992,6.82795 -2.79685,5.62913 -8.82402,8.98583 -12.7701,13.7988l16.3689 -1.75394 0.911811 8.5748 0 0zm177.093 50.8913l12.9071 21.515 -7.20591 4.35236 -8.7437 -14.5736 -5.34685 2.16732c1.98425,1.32992 3.73465,3.00118 4.97126,5.0622 3.64961,6.08504 2.46969,13.4823 -3.78425,17.2594 -4.23543,2.55827 -9.80787,2.89843 -14.1059,0.304724 -4.11969,-2.4626 -7.32756,-7.78465 -8.67402,-12.3425 -1.42441,-5.03858 -0.00354331,-9.47362 3.47008,-13.2508l6.49843 8.56535c-3.29646,2.74016 -3.60118,8.56772 1.48937,9.43583 2.99409,0.511417 7.6689,-2.19331 8.53937,-5.15669 1.14213,-3.89528 -2.32795,-6.63071 -5.68819,-7.26614l-3.52205 -8.38937 19.1965 -7.68189 -0.0011811 -0.0011811zm-29.5689 -30.4476l24.4843 18.7063 -4.3122 5.68346c-11.8984,1.00039 -21.9035,7.38425 -29.7142,16.1717l-8.35984 -6.38622c8.05039,-8.10472 16.3299,-12.9307 27.4169,-15.678l-14.9114 -11.3894 5.39646 -7.10787 0 0zm-29.1567 -22.5142l26.0528 16.4386 -3.79016 6.04488c-11.7732,2.06575 -21.2008,9.37559 -28.1551,18.7724l-8.89606 -5.61378c7.29803,-8.79331 15.1169,-14.3409 25.911,-18.0709l-15.8622 -10.0087 4.73976 -7.5626 0 0zm-9.81969 -6.15118l-16.9476 34.7858 -9.58228 -4.69843 11.1059 -22.7941c-4.19409,0.831496 -8.16142,0.764173 -12.3732,0.0874016l3.79606 -7.79173c5.85827,0.848031 11.4047,0.398031 16.1657,-3.4311l7.83543 3.84213 0 0zm-71.7236 -28.487l14.9823 2.21811 -0.624803 4.24961 -5.02559 -0.744094 -1.90866 12.9579 -4.92992 -0.731102 1.90748 -12.9579 -5.02677 -0.744094 0.625984 -4.24843zm15.9886 2.36929l4.92756 0.729921 -0.885827 6.02008 5.38583 0.799606 0.885827 -6.02244 4.95118 0.734646 -2.53465 17.2075 -4.94882 -0.733465 1.02283 -6.96024 -5.38583 -0.798425 -1.0252 6.96024 -4.92874 -0.731102 2.53583 -17.2063zm-194.307 351.53l9.38386 12.2835 -14.7059 18.8327 21.9319 -9.36969 9.35197 12.2421 -30.1205 23.1591 -5.82402 -7.62874 22.9689 -17.6587 -27.4878 11.7437 -5.2748 -6.90472 18.4665 -23.5559 -22.9689 17.661 -5.83937 -7.64882 30.1181 -23.1555zm64.7079 65.2819l10.2461 8.05748 -1.87559 14.8606 13.9346 -5.37402 10.1846 8.00906 -25.2154 8.28189 -9.80551 12.5492 -9.24685 -7.27441 9.80433 -12.5492 1.97362 -26.5606zm-34.1551 14.5382l-10.5756 -8.18386 -5.27953 3.85039 -9.49134 -7.34291 34.4681 -21.4063 10.1244 7.83425 -11.8819 38.8854 -9.71339 -7.51654 2.34921 -6.11929m3.06378 -8.02677l5.01024 -13.4055 -11.6291 8.28425 6.6189 5.12126zm115.348 42.9472c0,-11.1697 3.38976,-19.5295 15.7618,-19.5295 11.8051,0 15.2457,8.88071 15.2457,19.3996 0,11.0823 -2.99173,19.9689 -15.5291,19.9689 -12.1772,0 -15.4783,-9.19252 -15.4783,-19.839m10.4575 0.0271654c0,3.32126 -0.372047,12.5941 4.99606,12.5941 5.43189,0 5.07165,-8.84409 5.07165,-12.3106 0,-3.47244 0.440551,-12.802 -5.1248,-12.802 -5.43071,0 -4.94291,9.11102 -4.94291,12.5185l0 0zm-15.6602 18.5244l-31.585 -1.70197c0.529134,-3.10866 1.7811,-5.98937 3.75591,-8.64094 4.57559,-6.12756 12.4866,-8.47323 17.061,-14.1378 2.44843,-3.03189 1.62283,-7.53307 -2.79921,-7.77165 -3.43937,-0.184252 -4.74921,2.50748 -5.32205,5.4874l-10.5 -1.42559c1.72441,-8.88661 7.23898,-11.7791 15.9248,-11.3114 7.18465,0.387402 15.1453,3.21024 14.6823,11.8961 -0.505512,9.43465 -11.0858,12.7028 -17.1957,18.1098l16.4374 0.885827 -0.459449 8.61024 0 0zm162.45 -139.704l29.7106 24.7134 -6.80669 8.23583 -19.4657 -16.1929c-0.180709,4.28622 -1.1811,8.13898 -2.82638,12.0886l-6.65551 -5.53701c2.19803,-5.51102 3.06732,-11.0268 0.478346,-16.5685l5.56535 -6.73937 0 0zm-7.67717 31.9276l-6.36614 8.45787c-1.24606,-0.826772 -2.31496,-1.21417 -3.20315,-1.1622 -2.87244,0.122835 -3.97087,3.32244 -3.22323,5.76142 0.411024,1.36417 1.96417,3.58701 4.66063,6.66614 -0.0744094,-3.37087 0.850394,-6.28937 3.21378,-8.73661 4.96772,-5.1437 12.6543,-4.58386 17.6126,0.237402 3.42165,3.32717 5.07638,8.25354 3.64252,12.9094 -2.63386,8.45787 -11.811,14.4591 -20.3728,11.6516 -7.49646,-2.51929 -16.7988,-11.9161 -17.3185,-20.0232 -0.437008,-6.57874 4.69606,-13.7539 10.6358,-16.3831 3.58465,-1.63701 7.29094,-1.1752 10.7185,0.62126m3.18425 28.05c2.90197,0.114567 5.4,-2.14843 5.17323,-5.13307 -0.231496,-3.03425 -3.94134,-6.49252 -6.93189,-6.66732 -2.95984,-0.175984 -5.28425,2.28189 -5.11772,5.22165 0.206693,3.15709 3.7748,6.43228 6.87638,6.57874l0 0zm-39.6343 18.9992c-3.60236,0.457087 -6.72283,-0.552756 -8.88543,-3.62717 -4.21772,-5.99646 0.370866,-12.6874 5.3752,-16.2319 5.30669,-3.75472 13.4244,-6.81378 18.0413,-0.24685 2.03858,2.89961 1.85197,6.20433 0.634252,9.37323 4.05709,-0.689764 7.93701,0.655512 10.3476,4.08425 5.06457,7.20354 0.409843,14.139 -5.7248,18.4819 -6.41811,4.54134 -14.3315,6.9626 -19.6429,-0.590551 -2.54409,-3.6189 -2.5689,-7.55197 -0.144094,-11.2429m-0.427559 -8.85118c3.28819,4.67717 10.4409,-0.198425 7.12441,-4.91575 -3.33661,-4.74331 -10.448,0.190157 -7.12441,4.91575m16.3346 15.4831c5.29843,-3.75118 -1.31102,-13.1185 -6.70039,-9.30472 -5.37756,3.80551 1.33583,13.1031 6.70039,9.30472zm-36.9484 -12.4512l17.0067 34.7575 -9.57283 4.71496 -11.1437 -22.774c-1.91693,3.83268 -4.40079,6.93661 -7.51535,9.86339l-3.81024 -7.78701c4.25669,-4.12441 7.30394,-8.79567 7.20472,-14.9185l7.82953 -3.8563 0.0011811 0zm-61.2142 29.7201l14.785 -3.28465 0.927165 4.19173 -4.96181 1.10315 2.82402 12.7902 -4.86496 1.08071 -2.82165 -12.7902 -4.96299 1.10197 -0.924803 -4.19291zm15.7866 -3.50787l4.83189 -1.22835 1.48937 5.89961 5.27835 -1.34055 -1.49173 -5.90197 4.85079 -1.23189 4.25906 16.8614 -4.85079 1.23189 -1.72441 -6.8185 -5.27598 1.34055 1.72205 6.82205 -4.82953 1.22717 -4.25906 -16.8614z"/>
</svg>