<?xml version="1.0" encoding="UTF-8" standalone="no"?>
<!-- Created with Inkscape (http://www.inkscape.org/) -->
<svg
   xmlns:svg="http://www.w3.org/2000/svg"
   xmlns="http://www.w3.org/2000/svg"
   version="1.0"
   width="500"
   height="306"
   id="svg2">
  <defs
     id="defs4" />
  <g
     transform="translate(0,-746.3622)"
     id="layer1">
    <rect
       width="500"
       height="306"
       x="0"
       y="746.36218"
       style="fill:#ffffff;fill-opacity:1"
       id="rect8017" />
    <rect
       width="500"
       height="18"
       x="0"
       y="746.36218"
       style="fill:#bb133e;fill-opacity:1"
       id="rect8015" />
    <rect
       width="500"
       height="18"
       x="0"
       y="782.36218"
       style="fill:#bb133e;fill-opacity:1"
       id="rect8013" />
    <rect
       width="500"
       height="18"
       x="0"
       y="818.36218"
       style="fill:#bb133e;fill-opacity:1"
       id="rect8011" />
    <rect
       width="500"
       height="18"
       x="0"
       y="854.36218"
       style="fill:#bb133e;fill-opacity:1"
       id="rect8009" />
    <rect
       width="500"
       height="18"
       x="0"
       y="890.36218"
       style="fill:#bb133e;fill-opacity:1"
       id="rect8007" />
    <rect
       width="200"
       height="162"
       x="0"
       y="746.36218"
       style="fill:#002664;fill-opacity:1"
       id="Canton" />
    <rect
       width="500"
       height="18"
       x="0"
       y="998.36218"
       style="fill:#bb133e;fill-opacity:1"
       id="rect2011" />
    <rect
       width="500"
       height="18"
       x="0"
       y="1034.3622"
       style="fill:#bb133e;fill-opacity:1"
       id="rect2013" />
    <rect
       width="500"
       height="18"
       x="0"
       y="962.36218"
       style="fill:#bb133e;fill-opacity:1"
       id="rect2015" />
    <rect
       width="500"
       height="18"
       x="0"
       y="926.36218"
       style="fill:#bb133e;fill-opacity:1"
       id="rect2017" />
    <g
       id="Stars">
      <path
         d="M 46.015037,793.14414 L 39.093398,788.07011 L 32.128425,793.08449 L 34.815211,784.93366 L 27.893956,779.85911 L 36.47612,779.89565 L 39.163523,771.74502 L 41.780806,779.91843 L 50.362967,779.95562 L 43.398373,784.97053 L 46.015037,793.14414 z "
         transform="matrix(0.931194,0,0,0.929898,10.02532,39.81906)"
         style="fill:#ffffff;fill-opacity:1"
         id="path7920" />
      <path
         d="M 46.015037,793.14414 L 39.093398,788.07011 L 32.128425,793.08449 L 34.815211,784.93366 L 27.893956,779.85911 L 36.47612,779.89565 L 39.163523,771.74502 L 41.780806,779.91843 L 50.362967,779.95562 L 43.398373,784.97053 L 46.015037,793.14414 z "
         transform="matrix(0.931194,0,0,0.929898,64.02532,39.81906)"
         style="fill:#ffffff;fill-opacity:1"
         id="path7922" />
      <path
         d="M 46.015037,793.14414 L 39.093398,788.07011 L 32.128425,793.08449 L 34.815211,784.93366 L 27.893956,779.85911 L 36.47612,779.89565 L 39.163523,771.74502 L 41.780806,779.91843 L 50.362967,779.95562 L 43.398373,784.97053 L 46.015037,793.14414 z "
         transform="matrix(0.931194,0,0,0.929898,118.0253,39.81906)"
         style="fill:#ffffff;fill-opacity:1"
         id="path7924" />
      <path
         d="M 46.015037,793.14414 L 39.093398,788.07011 L 32.128425,793.08449 L 34.815211,784.93366 L 27.893956,779.85911 L 36.47612,779.89565 L 39.163523,771.74502 L 41.780806,779.91843 L 50.362967,779.95562 L 43.398373,784.97053 L 46.015037,793.14414 z "
         transform="matrix(0.931194,0,0,0.929898,145.0253,69.81906)"
         style="fill:#ffffff;fill-opacity:1"
         id="path7926" />
      <path
         d="M 46.015037,793.14414 L 39.093398,788.07011 L 32.128425,793.08449 L 34.815211,784.93366 L 27.893956,779.85911 L 36.47612,779.89565 L 39.163523,771.74502 L 41.780806,779.91843 L 50.362967,779.95562 L 43.398373,784.97053 L 46.015037,793.14414 z "
         transform="matrix(0.931194,0,0,0.929898,91.02532,69.81906)"
         style="fill:#ffffff;fill-opacity:1"
         id="path7928" />
      <path
         d="M 46.015037,793.14414 L 39.093398,788.07011 L 32.128425,793.08449 L 34.815211,784.93366 L 27.893956,779.85911 L 36.47612,779.89565 L 39.163523,771.74502 L 41.780806,779.91843 L 50.362967,779.95562 L 43.398373,784.97053 L 46.015037,793.14414 z "
         transform="matrix(0.931194,0,0,0.929898,37.02532,69.81906)"
         style="fill:#ffffff;fill-opacity:1"
         id="path7930" />
      <path
         d="M 46.015037,793.14414 L 39.093398,788.07011 L 32.128425,793.08449 L 34.815211,784.93366 L 27.893956,779.85911 L 36.47612,779.89565 L 39.163523,771.74502 L 41.780806,779.91843 L 50.362967,779.95562 L 43.398373,784.97053 L 46.015037,793.14414 z "
         transform="matrix(0.931194,0,0,0.929898,-16.97468,69.81906)"
         style="fill:#ffffff;fill-opacity:1"
         id="path7932" />
      <path
         d="M 46.015037,793.14414 L 39.093398,788.07011 L 32.128425,793.08449 L 34.815211,784.93366 L 27.893956,779.85911 L 36.47612,779.89565 L 39.163523,771.74502 L 41.780806,779.91843 L 50.362967,779.95562 L 43.398373,784.97053 L 46.015037,793.14414 z "
         transform="matrix(0.931194,0,0,0.929898,10.02532,99.81903)"
         style="fill:#ffffff;fill-opacity:1"
         id="path7934" />
      <path
         d="M 46.015037,793.14414 L 39.093398,788.07011 L 32.128425,793.08449 L 34.815211,784.93366 L 27.893956,779.85911 L 36.47612,779.89565 L 39.163523,771.74502 L 41.780806,779.91843 L 50.362967,779.95562 L 43.398373,784.97053 L 46.015037,793.14414 z "
         transform="matrix(0.931194,0,0,0.929898,64.02532,99.81903)"
         style="fill:#ffffff;fill-opacity:1"
         id="path7936" />
      <path
         d="M 46.015037,793.14414 L 39.093398,788.07011 L 32.128425,793.08449 L 34.815211,784.93366 L 27.893956,779.85911 L 36.47612,779.89565 L 39.163523,771.74502 L 41.780806,779.91843 L 50.362967,779.95562 L 43.398373,784.97053 L 46.015037,793.14414 z "
         transform="matrix(0.931194,0,0,0.929898,118.0253,99.81903)"
         style="fill:#ffffff;fill-opacity:1"
         id="path7938" />
      <path
         d="M 46.015037,793.14414 L 39.093398,788.07011 L 32.128425,793.08449 L 34.815211,784.93366 L 27.893956,779.85911 L 36.47612,779.89565 L 39.163523,771.74502 L 41.780806,779.91843 L 50.362967,779.95562 L 43.398373,784.97053 L 46.015037,793.14414 z "
         transform="matrix(0.931194,0,0,0.929898,145.0253,129.819)"
         style="fill:#ffffff;fill-opacity:1"
         id="path7940" />
      <path
         d="M 46.015037,793.14414 L 39.093398,788.07011 L 32.128425,793.08449 L 34.815211,784.93366 L 27.893956,779.85911 L 36.47612,779.89565 L 39.163523,771.74502 L 41.780806,779.91843 L 50.362967,779.95562 L 43.398373,784.97053 L 46.015037,793.14414 z "
         transform="matrix(0.931194,0,0,0.929898,91.02532,129.819)"
         style="fill:#ffffff;fill-opacity:1"
         id="path7942" />
      <path
         d="M 46.015037,793.14414 L 39.093398,788.07011 L 32.128425,793.08449 L 34.815211,784.93366 L 27.893956,779.85911 L 36.47612,779.89565 L 39.163523,771.74502 L 41.780806,779.91843 L 50.362967,779.95562 L 43.398373,784.97053 L 46.015037,793.14414 z "
         transform="matrix(0.931194,0,0,0.929898,37.02532,129.819)"
         style="fill:#ffffff;fill-opacity:1"
         id="path7944" />
      <path
         d="M 46.015037,793.14414 L 39.093398,788.07011 L 32.128425,793.08449 L 34.815211,784.93366 L 27.893956,779.85911 L 36.47612,779.89565 L 39.163523,771.74502 L 41.780806,779.91843 L 50.362967,779.95562 L 43.398373,784.97053 L 46.015037,793.14414 z "
         transform="matrix(0.931194,0,0,0.929898,-16.97468,129.819)"
         style="fill:#ffffff;fill-opacity:1"
         id="path7946" />
      <path
         d="M 46.015037,793.14414 L 39.093398,788.07011 L 32.128425,793.08449 L 34.815211,784.93366 L 27.893956,779.85911 L 36.47612,779.89565 L 39.163523,771.74502 L 41.780806,779.91843 L 50.362967,779.95562 L 43.398373,784.97053 L 46.015037,793.14414 z "
         transform="matrix(0.931194,0,0,0.929898,10.02532,159.819)"
         style="fill:#ffffff;fill-opacity:1"
         id="path7948" />
      <path
         d="M 46.015037,793.14414 L 39.093398,788.07011 L 32.128425,793.08449 L 34.815211,784.93366 L 27.893956,779.85911 L 36.47612,779.89565 L 39.163523,771.74502 L 41.780806,779.91843 L 50.362967,779.95562 L 43.398373,784.97053 L 46.015037,793.14414 z "
         transform="matrix(0.931194,0,0,0.929898,64.02532,159.819)"
         style="fill:#ffffff;fill-opacity:1"
         id="path7950" />
      <path
         d="M 46.015037,793.14414 L 39.093398,788.07011 L 32.128425,793.08449 L 34.815211,784.93366 L 27.893956,779.85911 L 36.47612,779.89565 L 39.163523,771.74502 L 41.780806,779.91843 L 50.362967,779.95562 L 43.398373,784.97053 L 46.015037,793.14414 z "
         transform="matrix(0.931194,0,0,0.929898,118.0253,159.819)"
         style="fill:#ffffff;fill-opacity:1"
         id="path7952" />
    </g>
    <path
       d="M 243.45496,750.3161 C 243.27729,750.33215 243.10768,750.36422 242.94617,750.41229 C 242.78462,750.4604 242.61773,750.53522 242.44544,750.63675 C 242.21391,750.77035 242.03489,750.9133 241.90838,751.0656 C 241.78183,751.21791 241.65665,751.42767 241.53283,751.69485 C 241.3659,752.06362 241.13171,752.60203 240.8302,753.3101 C 240.52867,754.01818 240.18409,754.8238 239.79644,755.72693 C 239.45184,756.53922 239.079,757.42901 238.67789,758.39626 C 238.27676,759.36354 237.89314,760.29073 237.52703,761.17783 L 235.9037,761.17783 C 235.14992,759.34483 234.38269,757.48244 233.60198,755.59066 C 232.82129,753.69889 232.2721,752.38425 231.95444,751.64677 C 231.8306,751.37958 231.7108,751.17784 231.59505,751.04156 C 231.47929,750.9053 231.29488,750.76501 231.04183,750.62071 C 230.85877,750.51919 230.69725,750.44838 230.55725,750.4083 C 230.41727,750.36822 230.23151,750.33215 230,750.30008 L 230,749.67482 L 236.2106,749.67482 L 236.2106,750.28404 C 235.62911,750.35352 235.23472,750.42701 235.02744,750.50448 C 234.82013,750.58198 234.7165,750.6795 234.71651,750.79706 C 234.7165,750.85587 234.72592,750.91865 234.74476,750.98545 C 234.76362,751.05225 234.79188,751.14176 234.82957,751.25399 C 235.00186,751.72426 235.31414,752.49247 235.7664,753.55859 C 236.21867,754.62473 236.889,756.25065 237.77738,758.43635 C 238.32118,757.10569 238.77345,755.98077 239.13418,755.06159 C 239.49491,754.14243 239.81258,753.33014 240.08719,752.62472 C 240.22178,752.28271 240.3335,751.9634 240.42235,751.66681 C 240.51118,751.37022 240.55559,751.14711 240.55559,750.99747 C 240.55559,750.82647 240.43176,750.68352 240.1841,750.56861 C 239.93642,750.45372 239.47877,750.36955 238.81114,750.3161 L 238.81114,749.67482 L 243.45496,749.67482 L 243.45496,750.3161 z M 279.03069,752.57663 L 278.41689,752.57663 C 278.26075,752.14377 277.99152,751.70556 277.60928,751.26199 C 277.227,750.81846 276.8474,750.55659 276.47053,750.47642 C 276.30899,750.43903 276.0842,750.41631 275.79616,750.4083 C 275.5081,750.40029 275.26985,750.39628 275.08143,750.39626 L 273.41772,750.39626 L 273.41772,754.78905 L 274.59685,754.78905 C 274.89296,754.78906 275.16217,754.75432 275.40446,754.68484 C 275.64674,754.61538 275.86749,754.48178 276.06672,754.28404 C 276.19055,754.16113 276.31572,753.9447 276.44225,753.63474 C 276.56877,753.3248 276.65088,753.05492 276.68858,752.82513 L 277.30238,752.82513 L 277.30238,757.57062 L 276.68858,757.57062 C 276.65627,757.34617 276.57417,757.06427 276.44225,756.72493 C 276.31034,756.38558 276.18516,756.15178 276.06672,756.02352 C 275.88903,755.83114 275.67905,755.69887 275.43678,755.62673 C 275.19447,755.55459 274.9145,755.51851 274.59685,755.51851 L 273.41772,755.51851 L 273.41772,758.79707 C 273.41772,759.13908 273.44329,759.4103 273.49444,759.6107 C 273.54558,759.8111 273.64115,759.96474 273.78114,760.07162 C 273.91575,760.17316 274.10015,760.23995 274.33436,760.27202 C 274.56857,760.30408 274.88758,760.32012 275.2914,760.32011 C 275.47983,760.32012 275.70597,760.31744 275.9698,760.3121 C 276.23361,760.30675 276.46513,760.29073 276.66436,760.26401 C 276.89048,760.23728 277.1018,760.1972 277.29834,760.14377 C 277.49484,760.09032 277.64157,760.01284 277.7385,759.9113 C 277.99692,759.64945 278.28767,759.24998 278.61072,758.7129 C 278.93376,758.17583 279.14644,757.77369 279.24874,757.50649 L 279.8383,757.50649 L 279.62024,761.04957 L 268.8708,761.04957 L 268.8708,760.42432 C 269.02157,760.41364 269.22616,760.39226 269.48459,760.36019 C 269.74303,760.32814 269.9261,760.29073 270.03378,760.24797 C 270.23838,760.16247 270.37568,760.05425 270.44566,759.92332 C 270.51566,759.79239 270.55066,759.62539 270.55066,759.42232 L 270.55066,751.39827 C 270.55066,751.20589 270.52104,751.04691 270.46183,750.92132 C 270.4026,750.79574 270.25992,750.68217 270.03378,750.58063 C 269.89379,750.51652 269.69727,750.45772 269.44421,750.40428 C 269.19116,750.35085 269.00002,750.31611 268.8708,750.30008 L 268.8708,749.67482 L 279.03069,749.67482 L 279.03069,752.57663 z M 319.14524,761.04957 L 314.75178,761.04957 C 313.9926,759.89527 313.36131,758.97609 312.8579,758.29205 C 312.35448,757.60803 311.72857,756.81711 310.98018,755.91931 L 310.53599,755.91931 L 310.53599,759.37422 C 310.53599,759.56661 310.57233,759.72961 310.64502,759.8632 C 310.7177,759.9968 310.85635,760.10904 311.06096,760.19988 C 311.16324,760.24262 311.32342,760.28671 311.54147,760.33214 C 311.75953,760.37757 311.94663,760.40829 312.10278,760.42432 L 312.10278,761.04957 L 305.98909,761.04957 L 305.98909,760.42432 C 306.14522,760.40829 306.35117,760.38558 306.60691,760.35619 C 306.86267,760.3268 307.04437,760.29073 307.15205,760.24797 C 307.35665,760.16247 307.49394,760.05425 307.56394,759.92332 C 307.63394,759.79239 307.66894,759.62539 307.66895,759.42232 L 307.66895,751.39827 C 307.66894,751.20589 307.63932,751.04557 307.5801,750.91731 C 307.52087,750.78906 307.37818,750.67684 307.15205,750.58063 C 306.97977,750.51118 306.77652,750.45239 306.5423,750.40428 C 306.30809,750.3562 306.12368,750.32146 305.98909,750.30008 L 305.98909,749.67482 L 312.41775,749.67482 C 313.85529,749.67483 314.94694,749.89794 315.69266,750.34417 C 316.43834,750.79039 316.81119,751.46508 316.8112,752.36821 C 316.81119,753.16448 316.58103,753.80443 316.12069,754.28805 C 315.66034,754.77169 314.95905,755.14978 314.01684,755.42233 C 314.38295,755.8926 314.80964,756.43769 315.29692,757.0576 C 315.78417,757.67751 316.29163,758.31076 316.81929,758.95739 C 316.98618,759.16581 317.21366,759.42098 317.50172,759.72292 C 317.78977,760.02487 318.04416,760.21056 318.26493,760.28003 C 318.38875,760.31744 318.54623,760.34951 318.73739,760.37623 C 318.92851,760.40294 319.06446,760.41899 319.14524,760.42432 L 319.14524,761.04957 z M 313.64533,752.59265 C 313.64532,751.83382 313.43131,751.27937 313.00327,750.92933 C 312.57522,750.5793 311.96548,750.40429 311.17401,750.40428 L 310.53599,750.40428 L 310.53599,755.16581 L 311.14978,755.16581 C 311.94123,755.16581 312.55503,754.96007 312.99115,754.54857 C 313.42727,754.13709 313.64532,753.48511 313.64533,752.59265 L 313.64533,752.59265 z M 360.11586,761.04957 L 353.90526,761.04957 L 353.90526,760.42432 C 354.08831,760.40829 354.3131,760.38157 354.57963,760.34416 C 354.84613,760.30675 355.02784,760.26668 355.12478,760.22392 C 355.32396,760.14377 355.46664,760.03421 355.5528,759.89527 C 355.63893,759.75633 355.68202,759.57997 355.68203,759.36621 L 355.68203,750.86921 L 351.74083,760.8652 L 350.72323,760.8652 C 350.67476,760.68886 350.55498,760.33881 350.36385,759.81511 C 350.1727,759.29139 350.01789,758.87189 349.89947,758.55658 L 347.0001,750.74095 L 347.0001,757.65879 C 347.0001,758.32146 347.04452,758.82513 347.13335,759.16982 C 347.22219,759.5145 347.36622,759.76701 347.56542,759.92732 C 347.70003,760.03956 347.94097,760.14643 348.28825,760.24797 C 348.63553,760.34951 348.87916,760.40829 349.01915,760.42432 L 349.01915,761.04957 L 344.09266,761.04957 L 344.09266,760.42432 C 344.22727,760.40829 344.44666,760.37223 344.75088,760.31611 C 345.05508,760.25999 345.30408,760.16247 345.49791,760.02352 C 345.71329,759.87389 345.85866,759.62139 345.93404,759.266 C 346.00941,758.91063 346.04709,758.40429 346.04709,757.74697 L 346.04709,752.11169 C 346.04709,751.76969 346.00404,751.48513 345.91788,751.25799 C 345.83174,751.03087 345.70252,750.85052 345.53022,750.71691 C 345.31486,750.55126 345.09411,750.44437 344.86797,750.39626 C 344.64185,750.34817 344.413,750.31611 344.18149,750.30008 L 344.18149,749.67482 L 349.45527,749.67482 L 352.28194,757.18585 L 354.66441,751.08564 C 354.74517,750.8612 354.82325,750.59401 354.89864,750.28404 C 354.974,749.97409 355.01438,749.77102 355.01978,749.67482 L 360.09972,749.67482 L 360.09972,750.30008 C 359.92741,750.31077 359.74703,750.33215 359.55861,750.36421 C 359.37014,750.39628 359.18978,750.43903 359.0175,750.49245 C 358.8075,750.56194 358.66886,750.6715 358.60157,750.82112 C 358.53426,750.97075 358.50061,751.13641 358.50062,751.31812 L 358.50062,759.37422 C 358.50061,759.56661 358.53426,759.72826 358.60157,759.8592 C 358.66886,759.99012 358.8075,760.10369 359.0175,760.19988 C 359.12517,760.24797 359.30151,760.2934 359.5465,760.33615 C 359.79145,760.37891 359.98125,760.40829 360.11586,760.42432 L 360.11586,761.04957 z M 397.08068,750.94136 C 397.64601,751.45439 398.09424,752.07429 398.42537,752.80108 C 398.75648,753.52787 398.92205,754.35619 398.92206,755.28604 C 398.92205,756.11437 398.78206,756.90262 398.5021,757.65077 C 398.22212,758.39894 397.8183,759.0429 397.29066,759.58264 C 396.7361,760.14377 396.0846,760.58064 395.33622,760.89327 C 394.58782,761.2059 393.69675,761.3622 392.66299,761.3622 C 391.82845,761.3622 391.03967,761.22593 390.29666,760.95338 C 389.55365,760.68084 388.89948,760.28538 388.33414,759.76701 C 387.77419,759.25933 387.33001,758.64209 387.00157,757.9153 C 386.67313,757.18851 386.50892,756.3789 386.50892,755.48646 C 386.50892,754.55659 386.66911,753.71357 386.98946,752.95739 C 387.30982,752.20121 387.74997,751.55325 388.30993,751.01349 C 388.86447,750.48446 389.5227,750.07696 390.28455,749.79105 C 391.04641,749.50516 391.85807,749.36221 392.71952,749.3622 C 393.57561,749.36221 394.37918,749.50114 395.13028,749.77903 C 395.88136,750.05692 396.5315,750.44437 397.08068,750.94136 L 397.08068,750.94136 z M 395.0051,759.07763 C 395.24738,758.59133 395.42237,758.04089 395.53006,757.42633 C 395.63772,756.81178 395.69157,756.11705 395.69158,755.34216 C 395.69157,754.68484 395.64446,754.04491 395.55024,753.42232 C 395.45602,752.79974 395.29583,752.24531 395.0697,751.75898 C 394.83818,751.2727 394.53129,750.88259 394.14902,750.58865 C 393.76675,750.29474 393.29025,750.14778 392.71952,750.14776 C 391.745,750.14778 391.00467,750.60603 390.49857,751.52253 C 389.99247,752.43903 389.73941,753.73361 389.73941,755.40628 C 389.73941,756.11705 389.7946,756.78772 389.90498,757.41831 C 390.01534,758.04891 390.18898,758.59934 390.42589,759.06961 C 390.66817,759.54524 390.97507,759.9153 391.34658,760.17984 C 391.71807,760.44436 392.17572,760.57664 392.71952,760.57662 C 393.25255,760.57664 393.71021,760.44303 394.09249,760.17582 C 394.47476,759.90862 394.77895,759.54256 395.0051,759.07763 L 395.0051,759.07763 z M 438.42284,750.30008 C 438.27206,750.31611 438.05671,750.34551 437.77675,750.38826 C 437.49675,750.431 437.2437,750.53522 437.01757,750.70087 C 436.81834,750.84517 436.67701,751.09233 436.59357,751.44236 C 436.5101,751.79241 436.46838,752.30677 436.46839,752.98545 L 436.46839,761.1137 L 435.03083,761.1137 L 427.89145,752.32011 L 427.89145,757.65879 C 427.89145,758.32146 427.93586,758.82513 428.02471,759.16982 C 428.11355,759.5145 428.25757,759.76701 428.45678,759.92732 C 428.60215,760.04491 428.83367,760.14911 429.15134,760.23995 C 429.469,760.3308 429.72204,760.39226 429.91051,760.42432 L 429.91051,761.04957 L 424.98401,761.04957 L 424.98401,760.42432 C 425.194,760.40829 425.43494,760.36955 425.70684,760.3081 C 425.97873,760.24664 426.2062,760.15177 426.38927,760.02352 C 426.59926,759.86854 426.74328,759.63474 426.82135,759.32213 C 426.89943,759.0095 426.93846,758.48444 426.93846,757.74697 L 426.93846,752.36019 C 426.93846,752.09299 426.89672,751.84049 426.81328,751.60268 C 426.72981,751.36488 426.59926,751.16047 426.42158,750.98945 C 426.23314,750.80776 426.01642,750.66481 425.77144,750.5606 C 425.52646,750.45639 425.24784,750.3749 424.93556,750.3161 L 424.93556,749.67482 L 429.24826,749.67482 L 435.51541,757.37021 L 435.51541,753.0656 C 435.5154,752.38157 435.46962,751.87256 435.3781,751.53855 C 435.28656,751.20456 435.1412,750.95739 434.94199,750.79706 C 434.78584,750.67417 434.55432,750.56862 434.24743,750.48043 C 433.94053,750.39226 433.69286,750.33215 433.50442,750.30008 L 433.50442,749.67482 L 438.42284,749.67482 L 438.42284,750.30008 z M 475,752.92933 L 474.37813,752.92933 C 474.21122,752.44303 473.94335,751.92199 473.57454,751.3662 C 473.20572,750.81043 472.86517,750.51118 472.5529,750.46841 C 472.38061,750.44705 472.16794,750.42835 471.91488,750.41229 C 471.66181,750.39628 471.44377,750.38826 471.26071,750.38826 L 470.88113,750.38826 L 470.88113,759.3101 C 470.88113,759.50248 470.91613,759.67216 470.98612,759.81912 C 471.05611,759.96607 471.19341,760.0823 471.39801,760.16782 C 471.52184,760.2159 471.71431,760.26534 471.97546,760.31611 C 472.23657,760.36688 472.45868,760.40294 472.64174,760.42432 L 472.64174,761.04957 L 466.25346,761.04957 L 466.25346,760.42432 C 466.4096,760.40829 466.629,760.38558 466.91167,760.35619 C 467.19433,760.3268 467.38682,760.29073 467.48912,760.24797 C 467.6991,760.16247 467.83908,760.04758 467.90908,759.90327 C 467.97908,759.75899 468.01407,759.58799 468.01407,759.39025 L 468.01407,750.38826 L 467.63449,750.38826 C 467.45142,750.38826 467.23337,750.39628 466.98031,750.41229 C 466.72726,750.42835 466.51459,750.44705 466.3423,750.46841 C 466.03001,750.51118 465.68946,750.81043 465.32066,751.3662 C 464.95184,751.92199 464.68398,752.44303 464.51707,752.92933 L 463.8952,752.92933 L 463.8952,749.67482 L 475,749.67482 L 475,752.92933 z "
       style="font-size:16.00000191px;font-style:normal;font-variant:normal;font-weight:bold;font-stretch:normal;text-align:start;line-height:125%;writing-mode:lr-tb;text-anchor:start;fill:#ffffff;fill-opacity:1;stroke:none;stroke-width:1px;stroke-linecap:butt;stroke-linejoin:miter;stroke-opacity:1;font-family:Georgia"
       id="Vermont" />
  </g>
</svg>
