<?xml version="1.0" encoding="utf-8"?>
<!-- Generator: Adobe Illustrator 16.0.0, SVG Export Plug-In . SVG Version: 6.00 Build 0)  -->
<!DOCTYPE svg PUBLIC "-//W3C//DTD SVG 1.1//EN" "http://www.w3.org/Graphics/SVG/1.1/DTD/svg11.dtd">
<svg version="1.1" id="Layer_1" xmlns="http://www.w3.org/2000/svg" xmlns:xlink="http://www.w3.org/1999/xlink" x="0px" y="0px"
	 width="600px" height="400px" viewBox="0 0 600 400" enable-background="new 0 0 600 400" xml:space="preserve">
<g>
	<rect fill="#FFFFFF" width="600" height="400"/>
	<g>
		<g>
			<g>
				<g>
					<g>
						<path fill="#DC3632" d="M289.961,317.798c0,0-53,21-80.667-36.666c0,0-16.334-66-43-73.334c0,0,6.001-7.834,22.834-4.166
							c0,0-0.999-20,7.167-25.167c0,0,8.667,2.499,10.5,17.333c0,0,1.332,2,3.832-0.5s18.333-33.499,10.5-48.999l-1.083-16.667
							l19.125-16.75c0,0,3.135-35.75,61.13-36v22c0,0-25.005,1.75-35.005,12.75l-23.5,11.5l-13.25,11.5
							c0,0,15.087,19.166,4.752,46.166s-17.335,40.666-15.002,74.334c2.333,33.666,36.334,57,59.667,52.334l22.338-1.084v25.5
							L289.961,317.798z"/>
						<circle fill="#DC3632" cx="252.961" cy="114.465" r="12.667"/>
						<circle fill="#DC3632" cx="347.995" cy="113.576" r="13.075"/>
						<circle fill="#DC3632" cx="228.024" cy="120.527" r="14.938"/>
						<circle fill="#DC3632" cx="373.024" cy="120.527" r="14.938"/>
						<circle fill="#DC3632" cx="212.461" cy="140.652" r="12.062"/>
						<circle fill="#DC3632" cx="387.398" cy="140.13" r="13.998"/>
						<circle fill="#DC3632" cx="383.078" cy="234.036" r="12.957"/>
						<circle fill="#DC3632" cx="405.856" cy="217.255" r="15.123"/>
						<circle fill="#DC3632" cx="286.195" cy="298.53" r="14.02"/>
						<circle fill="#DC3632" cx="314.193" cy="298.53" r="14.02"/>
						<circle fill="#DC3632" cx="300.799" cy="319.405" r="13.395"/>
						<path fill="#DC3632" d="M388.067,221.882l-3.5,20.5v4.332c0,0,0.832,71.666-64.167,62l-15.666,1.668l11.333,7.75
							c0,0,26.5,12.584,50.5-5.584c24-18.166,41.5-37.666,31-84.166l0.5-16c0,0-32.5-24-14.5-64l-10.166-12.917
							C373.401,135.465,345.4,184.714,388.067,221.882z"/>
						<path fill="#DC3632" d="M359.74,124.141c2.151-2.308,4.215-4.682,6.093-7.203l-4.631-4.056c0,0-3.135-35.75-61.13-36v22
							c0,0,25.005,1.75,35.005,12.75l23.5,11.5L359.74,124.141z"/>
						<path fill="#DC3632" d="M382.468,246.655c-0.006,0.268-0.007,0.525-0.015,0.795c0.878-1.078,1.775-2.141,2.666-3.209
							C384.227,245.038,383.344,245.843,382.468,246.655z"/>
					</g>
					<path fill="#DC3632" d="M294.466,99.434c0,0,3.493-1.033,9.44,0V76.988c0,0-6.422,0.022-7.644,0"/>
				</g>
				<path fill="#DC3632" d="M399.466,247.45c0,0,6.644,66.348-61.587,74.17l30.882-19.568"/>
			</g>
			<g>
				<g>
					<g>
						<path fill="#35498F" stroke="#000000" stroke-width="0.2" d="M283.063,207.513c1.909,0.107,3.353,1.656,3.23,3.457l0,0
							c-0.122,1.803-1.764,3.178-3.672,3.072l-2.906-0.158c-1.906-0.105-3.35-1.654-3.23-3.457l0,0
							c0.121-1.803,1.767-3.181,3.672-3.076L283.063,207.513z"/>
						<path fill="#FFFFFF" stroke="#000000" stroke-width="0.2" d="M282.34,209.034c1.094,0.061,1.93,0.876,1.863,1.824l0,0
							c-0.064,0.939-1.002,1.656-2.095,1.598l-1.67-0.095c-1.092-0.058-1.929-0.876-1.86-1.819l0,0c0.061-0.946,1-1.662,2.095-1.601
							L282.34,209.034z"/>
					</g>
					<path fill="#35498F" stroke="#000000" stroke-width="0.2" d="M277.469,209.175c0.723,0.012,1.297,0.482,1.287,1.059l0,0
						c-0.011,0.573-0.603,1.025-1.327,1.016l-4.988-0.074c-0.725-0.008-1.298-0.485-1.285-1.059l0,0
						c0.009-0.572,0.601-1.023,1.324-1.014L277.469,209.175z"/>
				</g>
				<g>
					<g>
						<path fill="#35498F" stroke="#000000" stroke-width="0.2" d="M296.245,209.037c1.899,0.193,3.256,1.804,3.034,3.599l0,0
							c-0.221,1.794-1.937,3.095-3.837,2.902l-2.894-0.289c-1.898-0.193-3.254-1.803-3.035-3.598l0,0
							c0.22-1.797,1.939-3.096,3.838-2.908L296.245,209.037z"/>
						<path fill="#FFFFFF" stroke="#000000" stroke-width="0.2" d="M295.438,210.522c1.09,0.111,1.88,0.963,1.761,1.906l0,0
							c-0.116,0.936-1.092,1.609-2.181,1.503l-1.662-0.171c-1.088-0.107-1.878-0.962-1.759-1.898l0,0
							c0.114-0.945,1.091-1.617,2.182-1.507L295.438,210.522z"/>
					</g>
					<path fill="#35498F" stroke="#000000" stroke-width="0.2" d="M290.565,210.443c0.722,0.048,1.269,0.54,1.227,1.117l0,0
						c-0.041,0.571-0.657,0.996-1.381,0.954l-4.978-0.301c-0.724-0.041-1.27-0.542-1.225-1.115l0,0
						c0.04-0.57,0.656-0.995,1.377-0.953L290.565,210.443z"/>
				</g>
				<g>
					<g>
						<path fill="#35498F" stroke="#000000" stroke-width="0.2" d="M309.229,211.181c1.885,0.287,3.141,1.964,2.808,3.746l0,0
							c-0.332,1.779-2.124,2.991-4.011,2.704l-2.871-0.437c-1.883-0.288-3.137-1.963-2.808-3.744l0,0
							c0.33-1.782,2.128-2.995,4.012-2.709L309.229,211.181z"/>
						<path fill="#FFFFFF" stroke="#000000" stroke-width="0.2" d="M308.332,212.623c1.08,0.165,1.816,1.056,1.639,1.991l0,0
							c-0.173,0.93-1.188,1.553-2.27,1.391l-1.649-0.255c-1.079-0.162-1.815-1.054-1.638-1.986l0,0
							c0.172-0.937,1.188-1.558,2.271-1.394L308.332,212.623z"/>
					</g>
					<path fill="#35498F" stroke="#000000" stroke-width="0.2" d="M303.471,212.298c0.719,0.082,1.234,0.604,1.156,1.176l0,0
						c-0.076,0.568-0.717,0.962-1.438,0.884l-4.952-0.551c-0.72-0.079-1.233-0.606-1.153-1.175l0,0
						c0.075-0.568,0.717-0.962,1.434-0.883L303.471,212.298z"/>
				</g>
				<g>
					<g>
						<path fill="#35498F" stroke="#000000" stroke-width="0.2" d="M320.951,219.792c1.363,1.213,1.33,3.236-0.069,4.525l0,0
							c-1.401,1.285-3.638,1.354-5.003,0.142l-2.078-1.843c-1.361-1.211-1.328-3.234,0.07-4.524l0,0
							c1.398-1.29,3.642-1.354,5.005-0.146L320.951,219.792z"/>
						<path fill="#FFFFFF" stroke="#000000" stroke-width="0.2" d="M319.303,220.511c0.78,0.695,0.82,1.807,0.082,2.48l0,0
							c-0.73,0.674-1.958,0.658-2.741-0.033l-1.191-1.063c-0.781-0.691-0.82-1.804-0.085-2.477l0,0
							c0.733-0.68,1.962-0.66,2.744,0.035L319.303,220.511z"/>
					</g>
					<path fill="#35498F" stroke="#000000" stroke-width="0.2" d="M315.522,217.729c0.537,0.44,0.63,1.134,0.203,1.564l0,0
						c-0.422,0.425-1.197,0.415-1.738-0.022l-3.71-3.013c-0.542-0.437-0.628-1.136-0.203-1.56l0,0
						c0.422-0.428,1.197-0.418,1.735,0.018L315.522,217.729z"/>
				</g>
				<g>
					<g>
						<path fill="#35498F" stroke="#000000" stroke-width="0.2" d="M330.613,138.77c1.225,1.325,0.973,3.338-0.561,4.495l0,0
							c-1.533,1.159-3.768,1.024-4.994-0.299l-1.867-2.02c-1.226-1.325-0.973-3.337,0.561-4.494l0,0
							c1.534-1.162,3.77-1.028,4.995,0.298L330.613,138.77z"/>
						<path fill="#FFFFFF" stroke="#000000" stroke-width="0.2" d="M328.895,139.34c0.703,0.759,0.619,1.866-0.185,2.476l0,0
							c-0.803,0.604-2.023,0.479-2.726-0.278l-1.071-1.16c-0.704-0.76-0.62-1.868,0.183-2.475l0,0
							c0.804-0.606,2.024-0.483,2.728,0.277L328.895,139.34z"/>
					</g>
					<path fill="#35498F" stroke="#000000" stroke-width="0.2" d="M325.434,136.236c0.487,0.481,0.502,1.185,0.035,1.572l0,0
						c-0.469,0.386-1.24,0.309-1.729-0.173l-3.366-3.329c-0.49-0.483-0.503-1.185-0.034-1.57l0,0
						c0.467-0.389,1.238-0.311,1.728,0.171L325.434,136.236z"/>
				</g>
				<g>
					<g>
						<path fill="#35498F" stroke="#000000" stroke-width="0.2" d="M331.254,153.775c-0.444,1.678-2.382,2.698-4.323,2.279l0,0
							c-1.944-0.421-3.159-2.121-2.717-3.8l0.677-2.562c0.442-1.678,2.38-2.696,4.323-2.276l0,0
							c1.945,0.418,3.162,2.119,2.718,3.799L331.254,153.775z"/>
						<path fill="#FFFFFF" stroke="#000000" stroke-width="0.2" d="M329.723,152.869c-0.255,0.963-1.288,1.563-2.307,1.345l0,0
							c-1.018-0.22-1.636-1.181-1.382-2.142l0.39-1.471c0.252-0.962,1.287-1.564,2.303-1.344l0,0c1.021,0.22,1.64,1.178,1.385,2.143
							L329.723,152.869z"/>
					</g>
					<path fill="#35498F" stroke="#000000" stroke-width="0.2" d="M330.408,148.508c-0.136,0.64-0.751,1.071-1.374,0.964l0,0
						c-0.622-0.109-1.015-0.714-0.878-1.356l0.943-4.428c0.136-0.645,0.751-1.074,1.374-0.965l0,0
						c0.622,0.108,1.014,0.713,0.878,1.356L330.408,148.508z"/>
				</g>
				<path fill="#35498F" d="M353.693,220.269c-4.838,2.464-18.662,9.039-18.662,9.039l11.059,3.286c0,0-17.973,16.438-24.193,19.723
					c-4.373,2.311-12.153,3.806-16.395,1.641v-97.121c9.122-1.632,35.679-6.56,38.435-9.096c0,0,0.288-0.84,0.381-1.972h0.029
					v-6.426h-38.845v-4.979h-0.421c4.783-2.24,8.101-7.047,8.101-12.634c0-7.722-6.324-13.981-14.125-13.981
					s-14.125,6.26-14.125,13.981c0,5.587,3.317,10.394,8.101,12.634h-0.421v4.979h-38.845v6.426h0.029
					c0.093,1.132,0.381,1.972,0.381,1.972c2.756,2.536,29.313,7.464,38.435,9.096v98.48c-0.822,0.501-1.87,0.64-3.205,0.288
					c-6.219-1.642-13.824-1.642-24.883-10.682c-11.061-9.043-11.061-10.683-11.061-10.683l10.367-4.112
					c0,0-10.367-2.464-17.279-8.215c-6.912-5.756-12.443-10.687-12.443-10.687s-0.689,12.328,2.766,21.367
					c3.455,9.04,10.369,17.259,10.369,17.259V239.17c0,0,9.678,10.683,13.135,13.146c3.453,2.469,17.281,9.041,22.811,13.151
					c3.196,2.375,8.235,7.216,11.923,10.884c1.712,1.309,3.185,2.933,4.371,4.749c0.155-0.079,0.304-0.168,0.465-0.241
					c-0.001-0.002-0.001-0.002-0.002-0.002c1.289-1.721,10.032-13.175,16.421-16.212c6.914-3.288,15.898-8.219,20.047-11.507
					c4.148-3.286,15.209-15.612,15.209-15.612v13.971c0,0,7.602-10.685,9.678-18.081c2.072-7.397,2.764-20.545,2.764-20.545
					S358.533,217.802,353.693,220.269z M299.057,130.373c-4.787,0-8.666-3.868-8.666-8.643c0-4.771,3.879-8.642,8.666-8.642
					c4.788,0,8.667,3.87,8.667,8.642C307.724,126.505,303.845,130.373,299.057,130.373z"/>
				<g>
					<g>
						<path fill="#35498F" stroke="#000000" stroke-width="0.2" d="M322.122,129.297c1.396,1.177,1.423,3.202,0.062,4.524l0,0
							c-1.363,1.32-3.599,1.438-4.996,0.263l-2.131-1.795c-1.397-1.177-1.423-3.201-0.062-4.523l0,0
							c1.363-1.322,3.6-1.441,4.997-0.263L322.122,129.297z"/>
						<path fill="#FFFFFF" stroke="#000000" stroke-width="0.2" d="M320.494,130.056c0.802,0.675,0.872,1.783,0.157,2.475l0,0
							c-0.713,0.691-1.941,0.705-2.742,0.031l-1.222-1.031c-0.804-0.673-0.872-1.783-0.159-2.473l0,0
							c0.714-0.695,1.942-0.708,2.743-0.032L320.494,130.056z"/>
					</g>
					<g>
						<path fill="#35498F" stroke="#000000" stroke-width="0.2" d="M313.453,122.456c0.678,1.664-0.266,3.474-2.105,4.043l0,0
							c-1.841,0.567-3.882-0.321-4.561-1.985l-1.034-2.539c-0.679-1.667,0.266-3.475,2.104-4.043l0,0
							c1.842-0.569,3.884,0.318,4.562,1.984L313.453,122.456z"/>
						<path fill="none" stroke="#000000" stroke-width="0.2" d="M311.646,122.405c0.39,0.957-0.077,1.972-1.042,2.269l0,0
							c-0.963,0.297-2.06-0.237-2.449-1.19l-0.592-1.458c-0.392-0.955,0.077-1.97,1.04-2.267l0,0c0.965-0.3,2.062,0.234,2.45,1.189
							L311.646,122.405z"/>
					</g>
					<path fill="#35498F" stroke="#000000" stroke-width="0.2" d="M316.635,127.365c0.55,0.423,0.66,1.118,0.25,1.555l0,0
						c-0.411,0.437-1.188,0.447-1.738,0.022l-3.797-2.925c-0.554-0.425-0.662-1.12-0.251-1.557l0,0
						c0.41-0.437,1.187-0.446,1.738-0.021L316.635,127.365z"/>
					<path fill="#35498F" stroke="#000000" stroke-width="0.2" d="M308.619,118.302c0.355,0.584,0.202,1.271-0.344,1.537l0,0
						c-0.544,0.267-1.274,0.008-1.631-0.578l-2.461-4.042c-0.36-0.586-0.204-1.272,0.342-1.538l0,0
						c0.545-0.266,1.273-0.008,1.632,0.577L308.619,118.302z"/>
				</g>
				<g>
					<g>
						<path fill="#35498F" stroke="#000000" stroke-width="0.2" d="M322.569,164.248c-1.241,1.313-3.479,1.423-4.997,0.251l0,0
							c-1.52-1.174-1.746-3.188-0.506-4.502l1.892-2c1.239-1.313,3.477-1.423,4.997-0.249l0,0c1.521,1.172,1.747,3.187,0.506,4.5
							L322.569,164.248z"/>
						<path fill="#FFFFFF" stroke="#000000" stroke-width="0.2" d="M321.661,162.813c-0.712,0.752-1.934,0.862-2.729,0.247l0,0
							c-0.796-0.613-0.863-1.723-0.153-2.476l1.088-1.148c0.71-0.754,1.934-0.865,2.728-0.248l0,0
							c0.799,0.613,0.866,1.723,0.153,2.474L321.661,162.813z"/>
					</g>
					<path fill="#35498F" stroke="#000000" stroke-width="0.2" d="M324.469,159.209c-0.444,0.515-1.208,0.646-1.709,0.292l0,0
						c-0.499-0.352-0.545-1.051-0.1-1.566l3.07-3.557c0.444-0.517,1.208-0.646,1.708-0.291l0,0c0.5,0.35,0.544,1.051,0.1,1.566
						L324.469,159.209z"/>
				</g>
				<g>
					<g>
						<path fill="#35498F" stroke="#000000" stroke-width="0.2" d="M311.363,171.802c-1.542,1.021-3.749,0.664-4.928-0.794l0,0
							c-1.181-1.456-0.891-3.464,0.651-4.484l2.35-1.554c1.539-1.021,3.744-0.664,4.927,0.793l0,0
							c1.183,1.456,0.891,3.466-0.65,4.483L311.363,171.802z"/>
						<path fill="#FFFFFF" stroke="#000000" stroke-width="0.2" d="M310.844,170.217c-0.885,0.584-2.101,0.438-2.72-0.326l0,0
							c-0.617-0.763-0.402-1.856,0.481-2.442l1.349-0.89c0.883-0.588,2.103-0.441,2.719,0.322l0,0
							c0.621,0.766,0.405,1.858-0.48,2.441L310.844,170.217z"/>
					</g>
					<path fill="#35498F" stroke="#000000" stroke-width="0.2" d="M314.492,167.292c-0.563,0.408-1.34,0.377-1.738-0.069l0,0
						c-0.396-0.446-0.262-1.138,0.303-1.547l3.891-2.823c0.564-0.412,1.341-0.376,1.737,0.07l0,0
						c0.397,0.446,0.262,1.138-0.302,1.548L314.492,167.292z"/>
				</g>
				<g>
					<g>
						<path fill="#35498F" stroke="#000000" stroke-width="0.2" d="M296.858,174.276c-1.907,0.103-3.55-1.276-3.667-3.078l0,0
							c-0.122-1.805,1.324-3.349,3.232-3.454l2.906-0.158c1.905-0.106,3.546,1.272,3.668,3.077l0,0
							c0.121,1.805-1.326,3.351-3.233,3.454L296.858,174.276z"/>
						<path fill="none" stroke="#000000" stroke-width="0.2" stroke-miterlimit="10" d="M297.371,172.686
							c-1.093,0.062-2.028-0.657-2.092-1.604l0,0c-0.062-0.942,0.773-1.758,1.866-1.815l1.669-0.091
							c1.094-0.062,2.031,0.658,2.092,1.601l0,0c0.064,0.947-0.771,1.762-1.866,1.819L297.371,172.686z"/>
					</g>
					<path fill="#35498F" stroke="#000000" stroke-width="0.2" d="M302.19,172.014c-0.719,0.068-1.353-0.339-1.42-0.91l0,0
						c-0.065-0.568,0.461-1.085,1.181-1.151l4.962-0.472c0.721-0.069,1.354,0.339,1.419,0.908l0,0c0.067,0.57-0.46,1.085-1.18,1.155
						L302.19,172.014z"/>
				</g>
				<g>
					<g>
						<path fill="#35498F" stroke="#000000" stroke-width="0.2" d="M284.284,176.346c-1.884,0.292-3.684-0.915-4.02-2.694l0,0
							c-0.339-1.781,0.911-3.46,2.794-3.753l2.869-0.446c1.882-0.294,3.68,0.916,4.021,2.697l0,0
							c0.339,1.78-0.911,3.461-2.794,3.752L284.284,176.346z"/>
						<path fill="#FFFFFF" stroke="#000000" stroke-width="0.2" d="M284.601,174.719c-1.079,0.165-2.097-0.454-2.274-1.389l0,0
							c-0.176-0.931,0.556-1.824,1.635-1.991l1.647-0.253c1.08-0.172,2.1,0.452,2.274,1.382l0,0c0.18,0.937-0.553,1.827-1.634,1.995
							L284.601,174.719z"/>
					</g>
					<path fill="#35498F" stroke="#000000" stroke-width="0.2" d="M289.308,173.57c-0.705,0.139-1.385-0.202-1.52-0.764l0,0
						c-0.136-0.559,0.325-1.122,1.032-1.261l4.875-0.961c0.708-0.142,1.386,0.201,1.52,0.762l0,0
						c0.138,0.56-0.324,1.123-1.031,1.263L289.308,173.57z"/>
				</g>
				<g>
					<g>
						<path fill="#35498F" stroke="#000000" stroke-width="0.2" d="M274.682,182.211c-1.59,0.96-3.777,0.52-4.886-0.981l0,0
							c-1.112-1.503-0.728-3.495,0.86-4.457l2.42-1.464c1.587-0.961,3.772-0.519,4.887,0.983l0,0
							c1.111,1.501,0.727,3.496-0.861,4.456L274.682,182.211z"/>
						<path fill="#FFFFFF" stroke="#000000" stroke-width="0.2" d="M274.236,180.605c-0.91,0.551-2.12,0.356-2.702-0.431l0,0
							c-0.58-0.785-0.314-1.867,0.595-2.42l1.391-0.838c0.909-0.554,2.121-0.358,2.7,0.428l0,0c0.586,0.787,0.319,1.87-0.594,2.421
							L274.236,180.605z"/>
					</g>
					<path fill="#35498F" stroke="#000000" stroke-width="0.2" d="M278.019,177.824c-0.582,0.387-1.356,0.326-1.732-0.136l0,0
						c-0.375-0.461-0.209-1.146,0.374-1.534l4.02-2.672c0.583-0.389,1.357-0.325,1.731,0.137l0,0
						c0.378,0.461,0.21,1.146-0.372,1.533L278.019,177.824z"/>
				</g>
				<g>
					<g>
						<path fill="#35498F" stroke="#000000" stroke-width="0.2" d="M267.121,190.527c-1.143,1.385-3.369,1.629-4.968,0.55l0,0
							c-1.603-1.081-1.978-3.076-0.836-4.46l1.741-2.111c1.14-1.385,3.363-1.628,4.968-0.548l0,0
							c1.603,1.078,1.978,3.075,0.836,4.459L267.121,190.527z"/>
						<path fill="#FFFFFF" stroke="#000000" stroke-width="0.2" d="M266.109,189.148c-0.655,0.793-1.866,0.978-2.707,0.41l0,0
							c-0.837-0.564-0.986-1.665-0.334-2.461l1.002-1.208c0.652-0.796,1.866-0.98,2.702-0.414l0,0
							c0.844,0.566,0.992,1.668,0.335,2.462L266.109,189.148z"/>
					</g>
					<path fill="#35498F" stroke="#000000" stroke-width="0.2" d="M268.646,185.385c-0.405,0.543-1.158,0.718-1.684,0.396l0,0
						c-0.524-0.323-0.62-1.02-0.214-1.561l2.802-3.731c0.405-0.543,1.158-0.716,1.683-0.394l0,0c0.525,0.32,0.62,1.016,0.215,1.558
						L268.646,185.385z"/>
				</g>
				<g>
					<g>
						<path fill="#35498F" stroke="#000000" stroke-width="0.2" d="M265.143,200.843c-0.285,1.709-2.119,2.873-4.093,2.605l0,0
							c-1.978-0.27-3.349-1.867-3.065-3.576l0.432-2.604c0.281-1.706,2.114-2.869,4.093-2.604l0,0
							c1.976,0.269,3.349,1.869,3.066,3.576L265.143,200.843z"/>
						<path fill="#FFFFFF" stroke="#000000" stroke-width="0.2" d="M263.529,200.06c-0.163,0.978-1.135,1.658-2.172,1.518l0,0
							c-1.031-0.141-1.74-1.048-1.579-2.027l0.25-1.494c0.16-0.979,1.136-1.659,2.168-1.518l0,0
							c1.039,0.139,1.746,1.047,1.581,2.027L263.529,200.06z"/>
					</g>
					<path fill="#35498F" stroke="#000000" stroke-width="0.2" d="M263.801,195.66c-0.076,0.651-0.646,1.126-1.278,1.065l0,0
						c-0.631-0.059-1.078-0.632-1.003-1.283l0.521-4.484c0.073-0.65,0.646-1.126,1.277-1.064l0,0c0.63,0.058,1.077,0.63,1.003,1.282
						L263.801,195.66z"/>
				</g>
				<g>
					<g>
						<path fill="#35498F" stroke="#000000" stroke-width="0.2" d="M272.675,206.202c1.474,1.1,1.634,3.121,0.362,4.512l0,0
							c-1.271,1.394-3.494,1.633-4.97,0.534l-2.246-1.674c-1.473-1.099-1.634-3.118-0.363-4.513l0,0
							c1.271-1.394,3.497-1.633,4.971-0.536L272.675,206.202z"/>
						<path fill="#FFFFFF" stroke="#000000" stroke-width="0.2" d="M271.1,207.047c0.845,0.632,0.99,1.735,0.32,2.466l0,0
							c-0.664,0.727-1.889,0.808-2.735,0.18l-1.288-0.965c-0.846-0.627-0.989-1.732-0.321-2.459l0,0
							c0.665-0.736,1.892-0.815,2.736-0.182L271.1,207.047z"/>
					</g>
					<path fill="#35498F" stroke="#000000" stroke-width="0.2" d="M267.068,204.571c0.576,0.395,0.734,1.08,0.352,1.541l0,0
						c-0.381,0.457-1.154,0.508-1.733,0.115l-3.985-2.713c-0.581-0.391-0.734-1.08-0.351-1.538l0,0
						c0.378-0.456,1.151-0.51,1.73-0.116L267.068,204.571z"/>
				</g>
				<g>
					<g>
						<path fill="#35498F" stroke="#000000" stroke-width="0.2" d="M327.198,231.62c0.755,1.588-0.123,3.451-1.958,4.166l0,0
							c-1.835,0.713-3.934,0.01-4.689-1.578l-1.153-2.416c-0.754-1.587,0.122-3.447,1.957-4.164l0,0
							c1.834-0.716,3.938-0.01,4.695,1.576L327.198,231.62z"/>
						<path fill="#FFFFFF" stroke="#000000" stroke-width="0.2" d="M325.37,231.724c0.433,0.909,0.005,1.952-0.961,2.326l0,0
							c-0.957,0.371-2.088-0.063-2.524-0.972l-0.658-1.39c-0.434-0.906-0.004-1.95,0.957-2.322l0,0
							c0.964-0.375,2.094,0.06,2.527,0.971L325.37,231.724z"/>
					</g>
					<path fill="#35498F" stroke="#000000" stroke-width="0.2" d="M323.036,227.856c0.313,0.589,0.108,1.264-0.468,1.516l0,0
						c-0.568,0.25-1.282-0.023-1.6-0.613l-2.174-4.059c-0.319-0.588-0.106-1.264,0.466-1.514l0,0
						c0.568-0.25,1.282,0.025,1.598,0.611L323.036,227.856z"/>
				</g>
				<g>
					<g>
						<path fill="#35498F" stroke="#000000" stroke-width="0.2" d="M326.737,245.157c-0.212,1.719-1.992,2.949-3.978,2.752l0,0
							c-1.985-0.199-3.428-1.746-3.219-3.463l0.316-2.617c0.209-1.715,1.987-2.945,3.974-2.748l0,0
							c1.986,0.193,3.432,1.746,3.225,3.463L326.737,245.157z"/>
						<path fill="#FFFFFF" stroke="#000000" stroke-width="0.2" d="M325.091,244.435c-0.12,0.982-1.063,1.699-2.105,1.592l0,0
							c-1.036-0.102-1.784-0.982-1.667-1.969l0.187-1.502c0.117-0.982,1.061-1.699,2.099-1.594l0,0
							c1.045,0.104,1.79,0.984,1.67,1.971L325.091,244.435z"/>
					</g>
					<path fill="#35498F" stroke="#000000" stroke-width="0.2" d="M325.17,240.026c-0.05,0.654-0.595,1.148-1.234,1.113l0,0
						c-0.631-0.037-1.104-0.592-1.057-1.25l0.323-4.496c0.044-0.654,0.599-1.148,1.231-1.109l0,0
						c0.631,0.035,1.103,0.592,1.056,1.242L325.17,240.026z"/>
				</g>
				<g>
					<g>
						<path fill="#35498F" stroke="#000000" stroke-width="0.2" d="M323.717,257.112c-0.465,1.676-2.411,2.68-4.35,2.242l0,0
							c-1.938-0.434-3.139-2.143-2.677-3.82l0.703-2.557c0.461-1.674,2.405-2.676,4.345-2.24l0,0
							c1.939,0.434,3.143,2.146,2.683,3.822L323.717,257.112z"/>
						<path fill="none" stroke="#000000" stroke-width="0.2" d="M322.193,256.194c-0.267,0.961-1.306,1.555-2.323,1.324l0,0
							c-1.011-0.227-1.622-1.189-1.359-2.154l0.407-1.465c0.262-0.959,1.303-1.555,2.315-1.324l0,0
							c1.02,0.229,1.628,1.191,1.362,2.154L322.193,256.194z"/>
					</g>
					<path fill="#35498F" stroke="#000000" stroke-width="0.2" d="M322.925,251.837c-0.146,0.643-0.761,1.066-1.389,0.953l0,0
						c-0.62-0.111-1.006-0.721-0.862-1.365l0.987-4.418c0.141-0.645,0.764-1.064,1.384-0.949l0,0
						c0.622,0.109,1.006,0.719,0.863,1.357L322.925,251.837z"/>
				</g>
				<g>
					<g>
						<path fill="#35498F" stroke="#000000" stroke-width="0.2" d="M319.079,268.573c-0.672,1.619-2.731,2.416-4.604,1.787l0,0
							c-1.87-0.633-2.851-2.453-2.181-4.072l1.017-2.467c0.668-1.617,2.726-2.414,4.599-1.785l0,0
							c1.873,0.629,2.854,2.455,2.187,4.074L319.079,268.573z"/>
						<path fill="#FFFFFF" stroke="#000000" stroke-width="0.2" d="M317.679,267.507c-0.385,0.928-1.491,1.412-2.474,1.078l0,0
							c-0.976-0.328-1.463-1.35-1.081-2.279l0.588-1.414c0.381-0.926,1.488-1.412,2.466-1.08l0,0c0.985,0.332,1.47,1.35,1.085,2.279
							L317.679,267.507z"/>
					</g>
					<path fill="#35498F" stroke="#000000" stroke-width="0.2" d="M318.951,263.251c-0.226,0.625-0.889,0.982-1.499,0.807l0,0
						c-0.602-0.176-0.909-0.82-0.686-1.445l1.534-4.289c0.219-0.625,0.891-0.979,1.493-0.803l0,0
						c0.604,0.174,0.908,0.82,0.688,1.438L318.951,263.251z"/>
				</g>
				<g>
					<g>
						<path fill="#35498F" stroke="#000000" stroke-width="0.2" d="M312.462,279.544c-0.941,1.502-3.112,2.004-4.854,1.119l0,0
							c-1.74-0.887-2.397-2.822-1.458-4.326l1.427-2.297c0.937-1.504,3.106-2.002,4.849-1.119l0,0
							c1.744,0.885,2.398,2.824,1.463,4.33L312.462,279.544z"/>
						<path fill="#FFFFFF" stroke="#000000" stroke-width="0.2" d="M311.261,278.292c-0.539,0.863-1.715,1.188-2.627,0.719l0,0
							c-0.908-0.459-1.216-1.535-0.679-2.402l0.823-1.314c0.534-0.861,1.712-1.186,2.621-0.721l0,0
							c0.915,0.465,1.221,1.537,0.681,2.402L311.261,278.292z"/>
					</g>
					<path fill="#35498F" stroke="#000000" stroke-width="0.2" d="M313.246,274.267c-0.329,0.584-1.046,0.846-1.618,0.586l0,0
						c-0.564-0.258-0.758-0.936-0.43-1.523l2.249-4.021c0.324-0.59,1.048-0.846,1.613-0.584l0,0
						c0.566,0.256,0.757,0.936,0.434,1.516L313.246,274.267z"/>
				</g>
			</g>
			<g>
				<path fill="#FFFFFF" d="M278.846,99.051l-1.806,0.516l-1.823-6.383l-7.051,2.014l1.823,6.383l-1.796,0.513l-3.869-13.547
					l1.796-0.513l1.586,5.552l7.051-2.014l-1.586-5.552l1.807-0.516L278.846,99.051z"/>
				<path fill="#FFFFFF" d="M291.394,82.762c0.972-0.081,1.883,0.019,2.734,0.298c0.852,0.279,1.602,0.711,2.25,1.296
					c0.648,0.585,1.177,1.311,1.584,2.177s0.656,1.841,0.746,2.926c0.09,1.078,0.007,2.075-0.249,2.993
					c-0.256,0.917-0.653,1.721-1.192,2.412s-1.205,1.248-1.998,1.671s-1.683,0.675-2.668,0.757
					c-0.985,0.082-1.904-0.019-2.756-0.301s-1.602-0.718-2.251-1.307c-0.648-0.588-1.175-1.316-1.578-2.182
					c-0.404-0.866-0.651-1.842-0.741-2.927c-0.091-1.092-0.005-2.099,0.258-3.02s0.665-1.724,1.208-2.408s1.212-1.232,2.006-1.645
					S290.423,82.843,291.394,82.762z M292.458,95.697c0.701-0.058,1.336-0.241,1.903-0.549c0.566-0.308,1.043-0.722,1.428-1.243
					c0.386-0.521,0.668-1.143,0.847-1.864c0.18-0.722,0.232-1.529,0.158-2.423s-0.262-1.681-0.561-2.363
					c-0.3-0.682-0.682-1.246-1.147-1.693c-0.466-0.447-1-0.772-1.602-0.975c-0.603-0.204-1.244-0.277-1.925-0.221
					c-0.702,0.059-1.337,0.24-1.904,0.544s-1.046,0.717-1.435,1.238s-0.674,1.142-0.857,1.86c-0.183,0.718-0.237,1.521-0.164,2.407
					c0.074,0.894,0.259,1.681,0.556,2.364c0.295,0.682,0.676,1.249,1.142,1.699c0.466,0.451,1.002,0.781,1.609,0.991
					C291.112,95.679,291.763,95.755,292.458,95.697z"/>
				<path fill="#FFFFFF" d="M308.306,82.865l5.235,0.711c0.705,0.096,1.372,0.248,2.001,0.455s1.169,0.499,1.621,0.872
					c0.451,0.374,0.79,0.844,1.015,1.409s0.282,1.253,0.172,2.064c-0.192,1.417-0.782,2.429-1.77,3.034
					c-0.987,0.606-2.338,0.792-4.051,0.559l-3.512-0.477l-0.759,5.584l-1.851-0.251L308.306,82.865z M309.244,89.832l3.553,0.483
					c0.593,0.081,1.104,0.093,1.536,0.037c0.431-0.056,0.794-0.176,1.088-0.358s0.522-0.428,0.687-0.736
					c0.164-0.308,0.275-0.673,0.333-1.096c0.069-0.515,0.036-0.945-0.1-1.29c-0.137-0.345-0.346-0.627-0.629-0.845
					c-0.282-0.218-0.622-0.386-1.019-0.505c-0.397-0.119-0.821-0.208-1.272-0.27l-3.49-0.474L309.244,89.832z"/>
				<path fill="#FFFFFF" d="M333.673,103.698l-9.867-3.66l4.899-13.209l9.566,3.548l-0.582,1.571l-7.815-2.898l-1.488,4.013
					l7.305,2.709l-0.582,1.571l-7.306-2.709l-1.663,4.483l8.116,3.01L333.673,103.698z"/>
			</g>
		</g>
		<g>
			<g>
				<polygon id="polygon19978_40_" fill="#35498F" points="287.67,41.2 297.086,41.2 299.991,32.133 302.897,41.2 312.313,41.2 
					304.695,46.801 307.602,55.868 299.991,50.267 292.381,55.868 295.288,46.801 				"/>
				<polygon id="polygon19978_39_" fill="#35498F" points="138.304,156.797 147.72,156.797 150.625,147.729 153.531,156.797 
					162.947,156.797 155.329,162.398 158.235,171.465 150.625,165.863 143.015,171.465 145.922,162.398 				"/>
				<polygon id="polygon19978_38_" fill="#35498F" points="133.324,184.782 142.502,182.682 143.313,173.196 148.168,181.387 
					157.348,179.288 151.17,186.448 156.022,194.637 147.357,190.874 141.187,198.03 142,188.543 				"/>
				<polygon id="polygon19978_37_" fill="#35498F" points="262.721,45.554 271.977,43.823 273.166,34.377 277.688,42.755 
					286.944,41.024 280.486,47.931 285.009,56.309 276.499,52.202 270.048,59.106 271.238,49.66 				"/>
				<polygon id="polygon19978_36_" fill="#35498F" points="237.861,54.299 246.642,50.897 246.074,41.394 252.061,48.798 
					260.84,45.396 255.761,53.371 261.746,60.776 252.626,58.302 247.555,66.275 246.988,56.77 				"/>
				<polygon id="polygon19978_35_" fill="#35498F" points="214.858,67.486 222.864,62.528 220.56,53.291 227.805,59.469 
					235.809,54.511 232.282,63.284 239.526,69.463 230.106,68.707 226.588,77.476 224.284,68.237 				"/>
				<g>
					<polygon id="polygon19978_34_" fill="#35498F" points="193.608,82.798 201.122,77.123 197.975,68.137 205.758,73.62 
						213.272,67.943 210.568,77.006 218.354,82.488 208.906,82.606 206.21,91.664 203.065,82.676 					"/>
					<polygon id="polygon19978_33_" fill="#35498F" points="176.326,101.311 182.668,94.352 177.924,86.097 186.583,90.057 
						192.925,83.096 191.934,92.499 200.594,96.458 191.328,98.311 190.342,107.709 185.598,99.454 					"/>
					<polygon id="polygon19978_32_" fill="#35498F" points="161.763,123.275 166.718,115.268 160.537,108.026 169.776,110.326 
						174.731,102.319 175.484,111.745 184.726,114.045 175.958,117.568 176.717,126.988 170.534,119.745 					"/>
					<polygon id="polygon19978_31_" fill="#35498F" points="151.357,147.662 154.758,138.881 147.35,132.899 156.855,133.461 
						160.253,124.681 162.728,133.806 172.232,134.37 164.26,139.446 166.738,148.563 159.331,142.581 					"/>
				</g>
				<g>
					<polygon id="polygon19978_30_" fill="#35498F" points="143.697,224.463 143.073,215.068 133.835,212.77 142.688,209.27 
						142.065,199.875 148.159,207.104 157.014,203.604 151.931,211.568 158.022,218.791 148.782,216.492 					"/>
					<polygon id="polygon19978_29_" fill="#35498F" points="149.694,249.07 147.354,239.949 137.851,239.387 145.911,234.32 
						143.571,225.199 150.89,231.186 158.95,226.117 155.415,234.883 162.733,240.861 153.228,240.299 					"/>
					<polygon id="polygon19978_28_" fill="#35498F" points="160.067,273.295 156.091,264.76 146.646,265.953 153.638,259.49 
						149.661,250.957 157.955,255.498 164.947,249.033 163.085,258.299 171.375,262.83 161.928,264.023 					"/>
					<polygon id="polygon19978_27_" fill="#35498F" points="174.749,295.373 169.271,287.715 160.206,290.627 165.892,282.986 
						160.414,275.33 169.4,278.268 175.088,270.631 174.957,280.08 183.939,283.008 174.874,285.92 					"/>
					<g>
						<polygon id="polygon19978_26_" fill="#35498F" points="191.435,315.564 185.273,308.443 176.517,312.178 181.473,304.049 
							175.31,296.926 184.531,299.023 189.485,290.893 190.229,300.311 199.446,302.402 190.687,306.137 						"/>
						<polygon id="polygon19978_25_" fill="#35498F" points="211.05,331.582 203.687,325.715 195.765,330.994 199.143,322.094 
							191.775,316.227 201.224,316.592 204.603,307.689 207.063,316.813 216.507,317.172 208.583,322.455 						"/>
						<polygon id="polygon19978_24_" fill="#35498F" points="233.932,344.66 225.613,340.246 218.798,346.893 220.48,337.521 
							212.161,333.107 221.517,331.729 223.201,322.357 227.297,330.873 236.646,329.492 229.827,336.141 						"/>
						<polygon id="polygon19978_23_" fill="#35498F" points="258.953,353.426 249.966,350.615 244.488,358.402 244.42,348.881 
							235.435,346.072 244.376,342.998 244.309,333.477 249.9,341.096 258.834,338.018 253.355,345.807 						"/>
					</g>
				</g>
				<polygon id="polygon19978_22_" fill="#35498F" points="286.463,358.137 277.111,357.025 273.158,365.688 271.342,356.342 
					261.993,355.232 270.218,350.566 268.401,341.219 275.298,347.682 283.514,343.014 279.56,351.676 				"/>
				<polygon id="polygon19978_21_" fill="#35498F" points="312.612,358.848 303.195,358.811 300.257,367.867 297.385,358.789 
					287.971,358.756 295.609,353.182 292.737,344.104 300.325,349.734 307.955,344.16 305.016,353.217 				"/>
			</g>
			<g>
				<polygon id="polygon19978_20_" fill="#35498F" points="304.712,46.801 307.619,55.868 300.009,50.267 292.398,55.868 
					295.305,46.801 287.687,41.2 297.103,41.2 300.009,32.133 302.914,41.2 312.33,41.2 				"/>
				<polygon id="polygon19978_19_" fill="#35498F" points="454.078,162.398 456.985,171.465 449.375,165.863 441.765,171.465 
					444.671,162.398 437.053,156.797 446.469,156.797 449.375,147.729 452.28,156.797 461.696,156.797 				"/>
				<polygon id="polygon19978_18_" fill="#35498F" points="458,188.543 458.813,198.03 452.643,190.874 443.978,194.637 
					448.83,186.448 442.652,179.288 451.832,181.387 456.687,173.196 457.498,182.682 466.676,184.782 				"/>
				<polygon id="polygon19978_17_" fill="#35498F" points="328.762,49.66 329.952,59.106 323.501,52.202 314.991,56.309 
					319.514,47.931 313.056,41.024 322.312,42.755 326.834,34.377 328.023,43.823 337.279,45.554 				"/>
				<polygon id="polygon19978_16_" fill="#35498F" points="353.012,56.77 352.445,66.275 347.374,58.302 338.254,60.776 
					344.239,53.371 339.16,45.396 347.939,48.798 353.926,41.394 353.358,50.897 362.139,54.299 				"/>
				<polygon id="polygon19978_15_" fill="#35498F" points="375.716,68.237 373.412,77.476 369.894,68.707 360.474,69.463 
					367.718,63.284 364.191,54.511 372.195,59.469 379.44,53.291 377.136,62.528 385.142,67.486 				"/>
				<g>
					<polygon id="polygon19978_14_" fill="#35498F" points="396.935,82.676 393.79,91.664 391.094,82.606 381.646,82.488 
						389.432,77.006 386.728,67.943 394.242,73.62 402.025,68.137 398.878,77.123 406.392,82.798 					"/>
					<polygon id="polygon19978_13_" fill="#35498F" points="414.402,99.454 409.658,107.709 408.672,98.311 399.406,96.458 
						408.066,92.499 407.075,83.096 413.417,90.057 422.076,86.097 417.332,94.352 423.674,101.311 					"/>
					<polygon id="polygon19978_12_" fill="#35498F" points="429.466,119.745 423.283,126.988 424.042,117.568 415.274,114.045 
						424.516,111.745 425.269,102.319 430.224,110.326 439.463,108.026 433.282,115.268 438.237,123.275 					"/>
					<polygon id="polygon19978_11_" fill="#35498F" points="440.669,142.581 433.262,148.563 435.74,139.446 427.768,134.37 
						437.272,133.806 439.747,124.681 443.145,133.461 452.65,132.899 445.242,138.881 448.643,147.662 					"/>
				</g>
				<g>
					<polygon id="polygon19978_10_" fill="#35498F" points="451.218,216.492 441.978,218.791 448.069,211.568 442.986,203.604 
						451.841,207.104 457.935,199.875 457.312,209.27 466.165,212.77 456.927,215.068 456.303,224.463 					"/>
					<polygon id="polygon19978_9_" fill="#35498F" points="446.772,240.299 437.267,240.861 444.585,234.883 441.05,226.117 
						449.11,231.186 456.429,225.199 454.089,234.32 462.149,239.387 452.646,239.949 450.306,249.07 					"/>
					<polygon id="polygon19978_8_" fill="#35498F" points="438.072,264.023 428.625,262.83 436.915,258.299 435.053,249.033 
						442.045,255.498 450.339,250.957 446.362,259.49 453.354,265.953 443.909,264.76 439.933,273.295 					"/>
					<polygon id="polygon19978_7_" fill="#35498F" points="425.126,285.92 416.061,283.008 425.043,280.08 424.912,270.631 
						430.6,278.268 439.586,275.33 434.108,282.986 439.794,290.627 430.729,287.715 425.251,295.373 					"/>
					<g>
						<polygon id="polygon19978_6_" fill="#35498F" points="409.313,306.137 400.554,302.402 409.771,300.311 410.515,290.893 
							415.469,299.023 424.69,296.926 418.527,304.049 423.483,312.178 414.727,308.443 408.565,315.564 						"/>
						<polygon id="polygon19978_5_" fill="#35498F" points="391.417,322.455 383.493,317.172 392.937,316.813 395.397,307.689 
							398.776,316.592 408.225,316.227 400.857,322.094 404.235,330.994 396.313,325.715 388.95,331.582 						"/>
						<polygon id="polygon19978_4_" fill="#35498F" points="370.173,336.141 363.354,329.492 372.703,330.873 376.799,322.357 
							378.483,331.729 387.839,333.107 379.52,337.521 381.202,346.893 374.387,340.246 366.068,344.66 						"/>
						<polygon id="polygon19978_3_" fill="#35498F" points="346.645,345.807 341.166,338.018 350.1,341.096 355.691,333.477 
							355.624,342.998 364.565,346.072 355.58,348.881 355.512,358.402 350.034,350.615 341.047,353.426 						"/>
					</g>
				</g>
				<polygon id="polygon19978_2_" fill="#35498F" points="320.44,351.676 316.486,343.014 324.702,347.682 331.599,341.219 
					329.782,350.566 338.007,355.232 328.658,356.342 326.842,365.688 322.889,357.025 313.537,358.137 				"/>
			</g>
		</g>
	</g>
</g>
</svg>
