<?xml version="1.0" encoding="UTF-8" standalone="no"?>
<svg xmlns:svg="http://www.w3.org/2000/svg"
xmlns="http://www.w3.org/2000/svg"
version="1.0" width="1000" height="600">

<g>
<rect width="1000" height="600" x="0" y="0" style="fill:white;stroke:none;stroke-width:3;stroke-linecap:square;stroke-linejoin:bevel;stroke-miterlimit:4;stroke-dashoffset:1" />
<g transform="translate(0.98347,0)">
<rect width="11.275373" height="75.40406" x="341.08005" y="194.79128" style="fill:#cc9;stroke:none;stroke-width:3;stroke-linecap:square;stroke-linejoin:bevel;stroke-miterlimit:4;stroke-dashoffset:0.99999998" />
<path d="M320.08232,193.89763 A 3.342181,6.3556228 0 0 1 326.76668,193.89763 L323.4245,193.89763z" transform="matrix(1.686773,0,0,1.672414,-198.826,-128.2974)" style="fill:#360;stroke:none;stroke-width:3;stroke-linecap:square;stroke-linejoin:bevel;stroke-miterlimit:4;stroke-dashoffset:1" />
<path d="M149.83634,301.51501 C155.59883,296.07964 167.52165,286.45044 184.0916,286.45044 C192.14669,286.45044 196.43561,289.54637 212.5961,273.38588 C232.189,253.79298 256.69381,255.19371 275.60071,255.19371 C292.36145,255.19371 314.1434,259.72747 346.80481,260.32131 C379.46622,260.91515 381.24775,257.05517 403.81382,256.75825 C426.37989,256.46133 420.73837,259.72747 437.06908,259.13362 C453.39979,258.53978 455.47824,253.78903 469.13665,254.38287 C482.79506,254.97672 476.90797,259.18497 489.67561,259.48189 C502.44325,259.77881 497.04731,255.86748 520.20722,255.57056 C543.36713,255.27364 557.02554,260.02439 584.34236,260.32131 C611.65918,260.61823 608.68995,258.08301 629.47449,258.37993 C650.25902,258.67685 648.31765,259.18497 669.10218,259.48189 C689.88672,259.77881 686.97009,257.0585 712.61263,257.94594 C756.48932,259.46443 763.00546,265.08764 769.62164,273.38588 C775.42367,280.663 782.12812,286.82729 799.25668,286.82729 C814.04828,286.82729 809.56211,282.88738 821.8799,282.88738 C846.33754,282.88738 848.19672,301.51501 848.19672,301.51501 L149.83634,301.51501z" style="fill:#360;stroke:none;stroke-width:1px;stroke-linecap:butt;stroke-linejoin:miter" />
</g>
<rect width="1000" height="300" x="0" y="300" style="fill:#039;stroke:none;stroke-width:3;stroke-linecap:square;stroke-linejoin:bevel;stroke-miterlimit:4;stroke-dashoffset:1" />
</g>
</svg>
