<?xml version="1.0" encoding="utf-8"?>
<!-- Generator: Adobe Illustrator 16.0.0, SVG Export Plug-In . SVG Version: 6.00 Build 0)  -->
<!DOCTYPE svg PUBLIC "-//W3C//DTD SVG 1.1//EN" "http://www.w3.org/Graphics/SVG/1.1/DTD/svg11.dtd">
<svg version="1.1" id="Layer_1" xmlns="http://www.w3.org/2000/svg" xmlns:xlink="http://www.w3.org/1999/xlink" x="0px" y="0px"
	 width="600px" height="420.19px" viewBox="0 0 600 420.19" enable-background="new 0 0 600 420.19" xml:space="preserve">
<g>
	<rect y="-0.001" fill="#000084" width="600" height="420.191"/>
	<rect x="47.5" y="47.594" fill="#FFFFFF" width="505" height="325"/>
</g>
<g>
	<g>
		<path fill="#008400" stroke="#000000" stroke-width="1.5" stroke-miterlimit="10" d="M217.222,211.744c0,0,24,31.904,26.5,35.404
			s64.5,87,61,112.5c0,0,2.25,2.25,6.75,0s0.75-19-13.25-43.5s-69-99.5-74.5-112.5C223.722,203.648,213.963,207.409,217.222,211.744
			z"/>
		<g>
			<path fill="#008400" stroke="#000000" stroke-width="1.5" stroke-miterlimit="10" d="M220.056,214.285
				c0,0-7.334,10.666-12.334,20.666s-14.333,15.334-20.333,18.334s-8,6.334-8,8.668c0,0-8-15.334,13.667-51.333
				C214.722,174.619,226.389,214.619,220.056,214.285z"/>
			<path fill="#008400" stroke="#000000" stroke-width="1.5" stroke-miterlimit="10" d="M174.056,197.952
				c-1.377,0.573-31.334,0.001-55.334,23.667c0,0-3,8.332-8,10.666c0,0,26.667-1.666,33.667-1.666s13.333-6.668,18.667-8.668
				c5.333-2,9,0.857,21.333-9.904S182.056,194.618,174.056,197.952z"/>
			<path fill="#008400" stroke="#000000" stroke-width="1.5" stroke-miterlimit="10" d="M166.056,178.619c0,0-21.667-3.667-24-7
				c-2.334-3.333-24.334-2.333-31.334,2s-10.666,7-14,6.667c0,0,25.333,12.931,37.666,15.299
				c12.334,2.368,35.334,4.035,41.334,5.035S187.056,175.619,166.056,178.619z"/>
			<path fill="#008400" stroke="#000000" stroke-width="1.5" stroke-miterlimit="10" d="M107.056,135.952c0,0,8,13.667,45,31.333
				s32.333-21.667,8-24.333C135.722,140.285,153.722,130.285,107.056,135.952z"/>
			<path fill="#008400" stroke="#000000" stroke-width="1.5" stroke-miterlimit="10" d="M220.056,110.952c0,0-13-22-13.667-29.667
				s-12.333-16-19-24c0,0-9.001,25.667,9.333,59S221.389,117.618,220.056,110.952z"/>
			<path fill="#008400" stroke="#000000" stroke-width="1.5" stroke-miterlimit="10" d="M249.745,58.159
				c0,0-4.833,7.775-10.802,9.896c-5.971,2.122-16.458,17.447-21.997,48.362s19.729,12.798,23.104,1.33
				c3.375-11.469,4.943-24.198,8.172-33.133S250.759,65.942,249.745,58.159z"/>
			<path fill="#008400" stroke="#000000" stroke-width="1.5" stroke-miterlimit="10" d="M264.389,139.285c0,0,29-15,36.667-32
				c0,0,2.666-6.667,0-16.667c0,0-10.334,4.143-16,5.238c-5.667,1.095-35.334,21.762-37,30.095
				C246.389,134.285,256.586,143.806,264.389,139.285z"/>
			<path fill="#008400" stroke="#000000" stroke-width="1.5" stroke-miterlimit="10" d="M268.056,164.285
				c0,0,38.333-13.667,68.333-6.333c0,0-65,44.711-82.667,27.189S263.722,163.619,268.056,164.285z"/>
			<g>
				<g>
					<path d="M138.923,218.434c4.584,1.424,9.177-0.373,13.333-2.299c5.202-2.41,10.185-5.76,15.933-6.701
						c0.635-0.104,0.365-1.067-0.266-0.964c-4.854,0.794-9.234,3.328-13.564,5.523c-4.564,2.314-9.948,5.098-15.17,3.476
						C138.571,217.277,138.31,218.242,138.923,218.434L138.923,218.434z"/>
				</g>
			</g>
			<g>
				<g>
					<path d="M187.538,242.084c2.431-8.486,10.375-14.036,14.616-21.547c0.317-0.562-0.546-1.065-0.863-0.504
						c-4.285,7.588-12.254,13.187-14.716,21.785C186.396,242.439,187.361,242.703,187.538,242.084L187.538,242.084z"/>
				</g>
			</g>
			<g>
				<g>
					<path d="M121.556,184.785c16.44,0.167,32.424,9.228,48.799,3.482c0.604-0.212,0.344-1.178-0.266-0.964
						c-16.247,5.701-32.201-3.352-48.533-3.518C120.911,183.779,120.912,184.779,121.556,184.785L121.556,184.785z"/>
				</g>
			</g>
			<g>
				<g>
					<path d="M130.222,145.202c3.26,0.395,6.325,1.179,9.285,2.62c2.915,1.418,5.484,3.414,8.204,5.152
						c4.771,3.05,10.014,3.297,15.512,3.479c0.645,0.021,0.643-0.979,0-1c-2.9-0.096-5.816-0.135-8.672-0.7
						c-3.08-0.609-5.791-2.196-8.326-3.982c-4.957-3.494-9.947-5.834-16.002-6.568C129.583,144.124,129.59,145.125,130.222,145.202
						L130.222,145.202z"/>
				</g>
			</g>
			<g>
				<g>
					<path d="M191.24,73.834c2.206,6.863,2.416,14.118,6.284,20.389c3.885,6.297,12.143,13.522,6.267,21.226
						c-0.392,0.513,0.478,1.01,0.863,0.505c4.857-6.368,0.422-13.148-3.64-18.593c-2.626-3.52-4.726-6.972-5.882-11.253
						c-1.122-4.155-1.605-8.428-2.928-12.54C192.008,72.958,191.042,73.219,191.24,73.834L191.24,73.834z"/>
				</g>
			</g>
			<g>
				<g>
					<path d="M241.541,77.699c-4.931,6.945-8.918,14.198-10.397,22.673c-1.157,6.63-0.181,15.5-7.174,19.147
						c-0.572,0.298-0.066,1.161,0.505,0.863c6.068-3.166,6.591-10.259,7.208-16.341c0.989-9.744,5.117-17.943,10.721-25.838
						C242.778,77.677,241.91,77.178,241.541,77.699L241.541,77.699z"/>
				</g>
			</g>
			<g>
				<g>
					<path d="M283.972,112.952c-12.398,0.532-20.992,11.585-31.752,16.318c-0.589,0.259-0.08,1.121,0.505,0.863
						c10.55-4.64,19.112-15.661,31.248-16.182C284.614,113.924,284.617,112.924,283.972,112.952L283.972,112.952z"/>
				</g>
			</g>
			<g>
				<g>
					<path d="M325.971,160.77c-10.154,5.123-22.126,3.036-32.779,6.49c-11.99,3.888-24.274,6.816-36.103,11.209
						c-0.599,0.222-0.34,1.189,0.266,0.964c12.12-4.501,24.712-7.515,37-11.5c10.477-3.397,22.075-1.232,32.12-6.3
						C327.051,161.343,326.545,160.48,325.971,160.77L325.971,160.77z"/>
				</g>
			</g>
			<path fill="#008400" stroke="#000000" stroke-width="1.5" stroke-miterlimit="10" d="M127.375,89.755c0,0,7,11,6.5,15
				s13.5,27,37,42s22.5,3,23.5-4S141.875,83.255,127.375,89.755z"/>
			<g>
				<g>
					<path d="M142.522,106.608c8.423,7.145,15.327,15.809,23.22,23.497c6.324,6.16,15.458,11.642,17.652,20.783
						c0.15,0.627,1.115,0.361,0.964-0.266c-2.072-8.632-10.271-14.268-16.485-19.895c-8.654-7.836-15.717-17.254-24.643-24.826
						C142.74,105.487,142.029,106.191,142.522,106.608L142.522,106.608z"/>
				</g>
			</g>
		</g>
		<g>
			<polygon fill="#FFFFFF" stroke="#000000" stroke-width="1.5" stroke-miterlimit="10" points="227.941,150.702 195.234,157.651 
				217.917,180.077 			"/>
			<polygon fill="#FFFFFF" stroke="#000000" stroke-width="1.5" stroke-miterlimit="10" points="191.467,156.952 184.191,175.952 
				200.691,186.202 203.484,159.929 			"/>
			<path fill="#FFFFFF" stroke="#000000" stroke-width="1.5" stroke-miterlimit="10" d="M171.941,146.952c0,0-10.666-8-17.666-2.333
				s0,8.999,3,10.333c0,0-12.334,1.667-10.334,11.667c0,0,4.366,10,14.184,3c0,0-5.023,6.332,0,12.332
				C166.147,187.952,210.274,156.285,171.941,146.952z"/>
			<path fill="#FFFFFF" stroke="#000000" stroke-width="1.5" stroke-miterlimit="10" d="M175.691,150.702
				c0,0-10.451-0.111-8.601,11.945c1.851,12.055,14.488,4.105,19.294,1.83C191.191,162.202,184.211,151.075,175.691,150.702z"/>
			<path fill="none" stroke="#000000" stroke-width="1.5" stroke-miterlimit="10" d="M167.091,149.618"/>
			<path fill="#FFFFFF" stroke="#000000" stroke-width="1.5" stroke-miterlimit="10" d="M181.26,139.69
				c0,0-18.984-1.071-17.984-14.071s16.277-9.333,14.139-8.333c0,0-2.806-14.667,12.861-12.667c0,0,4.999,2.333,6.332,6
				c0,0,3.668-6.667,9.334-4.667s6.334,9.667,6,13.334C211.607,122.952,220.577,150.428,181.26,139.69z"/>
			<g>
				<g>
					<g>
						<path fill="#FFFF00" d="M200.658,118.376c-6.151-7.942-21.153-2.772-17.746,7.924c3.032,9.517,18.862,6.51,18.403-3.283
							c-0.394-8.409-16.61-5.947-15.354,1.837c0.451,2.792,3.16,4.493,5.781,4.743c4.015,0.383,5.56-4.026,5.648-7.204
							c0.047-1.711-1.624-2.728-3.165-2.411c-1.207,0.248-2.245,0.705-3.347,1.252c-1.919,0.952-1.46,4.118,0.597,4.569
							c3.891,0.854,9.659,0.638,10.575-4.246c0.591-3.151-4.227-4.496-4.821-1.329c-0.305,1.623-3.249,1.012-4.425,0.754
							c0.199,1.523,0.398,3.046,0.597,4.569c0.751-0.373,1.336-0.58,2.153-0.748c-1.055-0.804-2.11-1.607-3.165-2.411
							c-0.011,0.39-0.268,2.193-0.351,2.203c-0.371,0.041-1.061-0.337-1.135-0.521c-0.252-0.622-0.034-0.008,0.019-0.065
							c0.505-0.551,1.468-0.727,2.145-0.912c0.65-0.179,3.493-0.915,3.261,0.531c-0.724,4.516-8.54,4.95-8.896-0.033
							c-0.178-2.478,2.252-4.097,4.428-4.259c2.155-0.16,3.984,0.925,5.262,2.574C199.095,124.458,202.607,120.891,200.658,118.376
							L200.658,118.376z"/>
					</g>
				</g>
				<g>
					<g>
						<path d="M188.057,120.561c1.935,0,1.935-3,0-3S186.123,120.561,188.057,120.561L188.057,120.561z"/>
					</g>
				</g>
				<g>
					<g>
						<path d="M192.224,124.061c1.935,0,1.935-3,0-3S190.29,124.061,192.224,124.061L192.224,124.061z"/>
					</g>
				</g>
			</g>
			<path fill="#FFFFFF" stroke="#000000" stroke-width="1.5" stroke-miterlimit="10" d="M190.748,141.706
				c0,0-23.807-3.004-15.807-15.504c0,0,8.403-8,18.826,5.25c0,0-5.076-15,11.424-14c0,0,10,4.75,0,17.5
				S190.748,141.706,190.748,141.706z"/>
			<path fill="#FFFFFF" stroke="#000000" stroke-width="1.5" stroke-miterlimit="10" d="M245.191,120.702
				c-8.25-11-15.25-3.298-15.25-3.298c0.856-2.823-1.214-6.082-1.829-6.964c-0.155-0.128-0.306-0.259-0.455-0.393
				c-16.477-9.371-18.021,8.655-18.021,8.655c-18.556,42.5,10.056,26.5,17.778,26.5
				C235.136,145.202,253.441,131.702,245.191,120.702z"/>
			<g>
				<g>
					<g>
						<path fill="#FFFF00" d="M236.845,125.239c-2.456-2.87-5.494-5.398-9.386-5.729c-2.677-0.228-5.197,1.429-6.483,3.688
							c-3.224,5.663,1.254,11.772,7.014,12.902c3.818,0.749,9.172-0.264,9.573-4.983c0.318-3.748-3.141-7.541-6.464-8.821
							c-5.059-1.948-11.425,3.493-7.43,8.425c1.939,2.394,5.58,2.658,8.409,2.535c2.764-0.12,3.474-4.181,0.665-4.911
							c-1.208-0.314-2.312-0.879-3.5-1.25c0.368,1.393,0.735,2.786,1.103,4.178c0.826-0.782,1.564-1.512,2.141-2.506
							c0.54-0.929,0.444-2.288-0.391-3.029c-1.887-1.678-4.24-2.482-6.768-2.232c-3.178,0.314-3.208,5.317,0,5
							c1.174-0.116,2.308-0.054,3.232,0.768c-0.13-1.01-0.261-2.02-0.391-3.029c-0.354,0.61-0.848,1.009-1.359,1.494
							c-1.411,1.337-0.638,3.635,1.103,4.178c1.188,0.371,2.292,0.936,3.5,1.25c0.222-1.637,0.443-3.274,0.665-4.911
							c-1.275,0.055-2.499,0.047-3.732-0.3c-0.307-0.086-0.463-0.178-0.771-0.363c0.008,0.004-0.178-0.211-0.204-0.256
							c0.086,0.149,0.074,0.358,0.066,0.139c0,0.021,0.12-0.265,0.001-0.028c0.287-0.572-0.038-0.028,0.224-0.297
							c-0.009,0.009,0.408-0.256,0.176-0.162c0.743-0.305,0.668-0.253,1.38-0.067s1.432,0.826,2.019,1.434
							c0.431,0.446,1.68,1.774,1.317,2.479c-0.394,0.764-2.295,0.534-2.908,0.492c-1.759-0.121-3.469-1.029-4.264-2.374
							c-0.53-0.897-0.498-2.355-0.2-3.011c0.509-1.123,1.113-1.468,2.278-1.432c2.098,0.064,4.445,2.622,5.851,4.264
							C235.409,131.229,238.929,127.674,236.845,125.239L236.845,125.239z"/>
					</g>
				</g>
				<g>
					<g>
						<path d="M228.994,124.924c1.935,0,1.935-3,0-3S227.06,124.924,228.994,124.924L228.994,124.924z"/>
					</g>
				</g>
				<g>
					<g>
						<path d="M229.328,128.757c1.935,0,1.935-3,0-3S227.393,128.757,229.328,128.757L229.328,128.757z"/>
					</g>
				</g>
				<g>
					<g>
						<path d="M223.161,126.59c1.935,0,1.935-3,0-3S221.227,126.59,223.161,126.59L223.161,126.59z"/>
					</g>
				</g>
			</g>
			<path fill="#FFFFFF" stroke="#000000" stroke-width="1.5" stroke-miterlimit="10" d="M222.214,134.615
				c0,0,1.449-20.265-11.665-11.471c-13.112,8.793-4.771,25.384-0.707,26.473C213.908,150.708,229.371,143.125,222.214,134.615z"/>
			<path fill="#FFFFFF" stroke="#000000" stroke-width="1.5" stroke-miterlimit="10" d="M260.441,187.702
				c0,0,0.152,0.338,0.363,0.898c0.794,2.119,2.405,7.411-0.363,9.52c-3.5,2.666-7.667,3.332-15.834-0.668
				c0,0,9.584,20.036-10.916,20.519c0,0-6.75-2.27-7-9.269c0,0-11.25,13.75-19.5,1.75c0,0-1.611-12.75,2.444-15.75
				c0,0-19.14-48.087,21.306-46.547S262.441,182.702,260.441,187.702z"/>
			<g>
				<g>
					<g>
						<path fill="#FFFF00" d="M224.328,195.007c0.013,6.491,4.37,11.825,11.018,12.153c2.574,0.127,5.283-0.926,6.802-3.05
							c1.753-2.452,1.108-5.499-0.152-8c-2.786-5.528-10.686-9.731-15.65-4.27c-1.981,2.179-2.166,5.001-1.05,7.619
							c1.454,3.409,5.837,4.959,9.119,5.708c1.052,0.24,2.3-0.128,2.823-1.149c1.347-2.628,2.375-5.502,1.045-8.333
							c-0.988-2.104-3.577-2.683-5.652-2.387c-5.202,0.743-6.348,6.476-2.569,9.725c1.119,0.962,3.198,1.053,3.926-0.506
							c1.578-3.378,1.012-7.051-1.891-9.529c-1.671-1.428-4.151-0.496-4.268,1.768c-0.172,3.353,1.186,6.131,4.238,7.659
							c2.875,1.438,5.408-2.875,2.523-4.317c-1.563-0.782-1.85-1.623-1.762-3.341c-1.422,0.589-2.845,1.179-4.268,1.768
							c1.073,0.917,1.767,2.062,1.109,3.471c1.309-0.169,2.618-0.337,3.926-0.506c-0.402-0.347-0.751-0.661-1.009-1.119
							c0.171,0.305,0.131-0.043-0.072,0.43c0.15-0.351,0.355-0.474,1.2-0.645c0.218-0.044,0.256,0.062,0.251,0.054
							c-0.104-0.172,0.018,0.283-0.017,0.509c-0.148,0.988-0.579,1.897-1.029,2.776c0.941-0.383,1.882-0.766,2.823-1.149
							c-2.25-0.514-8.059-2.554-5.656-5.197c2.59-2.849,6.364,1.294,7.591,3.485c1.466,2.617-0.077,3.637-2.673,3.509
							c-3.764-0.185-5.67-3.768-5.677-7.136C229.321,191.783,224.321,191.782,224.328,195.007L224.328,195.007z"/>
					</g>
				</g>
				<g>
					<g>
						<path d="M233.078,200.007c1.935,0,1.935-3,0-3S231.143,200.007,233.078,200.007L233.078,200.007z"/>
					</g>
				</g>
				<g>
					<g>
						<path d="M233.078,205.007c1.935,0,1.935-3,0-3S231.143,205.007,233.078,205.007L233.078,205.007z"/>
					</g>
				</g>
				<g>
					<g>
						<path d="M237.828,201.257c1.935,0,1.935-3,0-3S235.893,201.257,237.828,201.257L237.828,201.257z"/>
					</g>
				</g>
			</g>
			<path fill="#FFFFFF" stroke="#000000" stroke-width="1.5" stroke-miterlimit="10" d="M260.477,173.289c0,0,12.912,8.533,0,13.964
				c0,0-18.642-6.293-24.65-18.102"/>
			<path fill="#FFFFFF" stroke="#000000" stroke-width="1.5" stroke-miterlimit="10" d="M231.941,175.952
				c0,0-15.232,7.551-17,17.068c-1.768,9.516,12.5,11.432,17,3.432c0,0,10.524,6.906,16.75-2.25
				C254.917,185.047,248.441,177.702,231.941,175.952z"/>
			<path fill="#FFFFFF" stroke="#000000" stroke-width="1.5" stroke-miterlimit="10" d="M232.906,155.452
				c0,0-8.215-1.546-11.215,4.477c-3,6.023,3.465,6.523,5.607,6.773c0,0-12.969-4.25-17.663,10.25s13.479,11.492,21.306,7.75
				S256.12,153.202,232.906,155.452z"/>
			<path fill="#FFFFFF" stroke="#000000" stroke-width="1.5" stroke-miterlimit="10" d="M199.607,127.286
				c0,0-19.041-0.725-10.687,15.304c0,0-20.347-11.305-21.83,7.028c0,0,0.184,8.668,11.517,4.668c0,0-6.85,10.767,4.742,15.216
				c0,0,8.592,0.949,9.592-8.05c0,0,0.25,10.75,12.75,10.5s7.75-13.25,4-14.25c0,0,11,2.75,10.75-6.25c0,0-3.25-11.75-12.5-10.25
				C207.941,141.202,212.774,127.869,199.607,127.286z"/>
			<path fill="#FFFFFF" stroke="#000000" stroke-width="1.5" stroke-miterlimit="10" d="M192.956,177.091
				c0,0-2.94-12.283-16.332-8.188c-13.392,4.095-2.287,13.857-1.307,14.802s-15.352,0.079-14.127,13.544
				c0,0,4.752,7.322,15.85,1.889c0,0-3.111,8.031,1.789,15.353c0,0,9.881,3.779,14.127-5.904c0,0,4.982,5.667,10.861,4.96
				c5.88-0.709,16.659-16.063-1.715-20.314c0,0,18.374-2.835,12.25-16.063C208.227,163.942,198.999,171.344,192.956,177.091z"/>
			<path fill="#FFFFFF" stroke="#000000" stroke-width="1.5" stroke-miterlimit="10" d="M239.441,135.411
				c0,0-6.995-11.551,5.127-15.505c0,0,19.623-2.204,11.123,17.296c0,0,13.75-5.25,18.5,0c4.75,5.25-0.75,14.25-13.5,18.25
				c0,0,19.25,4.25,11.75,17.75c-7.5,13.5-22.25,1.25-22.25-3c0,0-8.116,18.75-24.809,7.75c0,0-6.691-15.5,13.059-20.5
				c0,0-23.07,1.977-21.725-16.75S240.521,137.726,239.441,135.411z"/>
			<g>
				<g>
					<g>
						<path fill="#FFFF00" d="M195.831,145.354c-2.437,0.01-5.441,0.185-7.49,1.694c-2.031,1.496-2.818,3.753-1.695,6.088
							c0.863,1.792,2.89,2.599,4.735,2.799c2.09,0.226,4.257-0.949,5.623-2.45c-0.908,0.24-1.816,0.48-2.724,0.72
							c3.521,1.301,9.043,0.802,10.18-3.548c0.588-2.252-0.746-4.268-2.869-4.989c-2.174-0.738-4.714,0.311-6.636,1.251
							c-1.116,0.546-1.601,2.02-1.287,3.162c0.343,1.245,1.448,1.996,2.7,2.056c2.395,0.114,5.547-0.073,6.892-2.422
							c1.131-1.975,0.171-4.357-1.488-5.685c-1.687-1.35-3.645-2.121-5.824-1.714c-2.574,0.481-3.678,3.306-3.454,5.641
							c0.145,1.519,1.164,2.8,2.8,2.8c1.416,0,2.946-1.278,2.8-2.8c-0.034-0.355-0.045-0.707-0.018-1.063
							c0.029-0.375-0.177,0.867-0.002,0.181c0.163-0.639-0.231,0.464-0.107,0.213c0.109-0.221,0.425-0.588-0.24,0.265
							c0.162-0.208,0.604-0.507-0.276,0.162c0.086-0.065,0.183-0.116,0.28-0.162c-0.944,0.446-0.579,0.227-0.294,0.163
							c0.381-0.084-0.923,0.091-0.408,0.059c0.118-0.007,0.236-0.001,0.354,0.007c0.339,0.024-0.937-0.164-0.307-0.032
							c0.125,0.026,0.249,0.062,0.371,0.1c0.245,0.076,0.792,0.318-0.227-0.115c0.123,0.052,0.242,0.112,0.36,0.174
							c0.236,0.123,0.46,0.268,0.675,0.424c-0.925-0.672-0.209-0.159,0.009,0.063c0.084,0.085,0.162,0.176,0.237,0.269
							c-0.677-0.83-0.346-0.463-0.208-0.236c0.141,0.232,0.282,0.708-0.122-0.334c0.035,0.089,0.057,0.182,0.074,0.276
							c-0.071-0.655-0.1-0.849-0.084-0.582c0.012,0.234-0.091,0.683,0.085-0.533c-0.075,0.515,0.313-0.634,0.178-0.366
							c-0.204,0.404,0.51-0.604,0.269-0.333c-0.379,0.428,0.537-0.37,0.258-0.186c-0.214,0.142-0.758,0.335,0.235-0.067
							c-0.15,0.061-0.308,0.104-0.464,0.146c-0.185,0.049-0.375,0.082-0.563,0.111c1.051-0.167,0.181-0.034-0.07-0.018
							c-0.572,0.037-1.147,0.022-1.72-0.005c0.471,1.739,0.942,3.479,1.413,5.217c0.183-0.089,0.367-0.177,0.552-0.262
							c0.285-0.125,0.236-0.105-0.148,0.061c0.109-0.044,0.22-0.086,0.33-0.127c0.342-0.128,0.693-0.232,1.048-0.319
							c0.132-0.032,0.265-0.057,0.398-0.081c0.492-0.09-0.822,0.075-0.146,0.032c0.14-0.009,0.28-0.005,0.42,0.001
							c0.45,0.021-0.863-0.158-0.292-0.035c0.673,0.145-0.651-0.384-0.108-0.054c0.322,0.196-0.632-0.525-0.36-0.275
							c0.35,0.324-0.438-0.629-0.248-0.325c0.192,0.308-0.307-0.794-0.184-0.452c0.088,0.244,0.065,0.701-0.042-0.449
							c0.007,0.083,0.001,0.167-0.006,0.25c0.094-1.046,0.112-0.695,0.029-0.422c-0.111,0.367,0.342-0.761,0.176-0.408
							c-0.042,0.09-0.096,0.175-0.15,0.259c-0.217,0.335,0.506-0.626,0.245-0.314c-0.072,0.086-0.153,0.165-0.235,0.242
							c-0.161,0.153-0.504,0.39,0.291-0.211c-0.101,0.076-0.208,0.143-0.317,0.208c-0.115,0.069-0.235,0.127-0.356,0.185
							c0.904-0.425,0.407-0.17,0.167-0.092c-0.269,0.088-1.26,0.232-0.181,0.094c-0.355,0.045-0.715,0.044-1.073,0.027
							c-0.147-0.007-0.293-0.023-0.439-0.04c0.957,0.106,0.184,0.012-0.031-0.034c-0.461-0.098-0.91-0.246-1.351-0.409
							c-0.882-0.326-2.104,0.038-2.724,0.72c-0.113,0.124-0.229,0.244-0.349,0.361c-0.176,0.172-0.789,0.626,0.031,0.012
							c-0.254,0.19-0.532,0.347-0.819,0.481c0.989-0.462,0.091-0.06-0.236,0.006c-0.427,0.086,0.889-0.09,0.304-0.043
							c-0.142,0.011-0.285,0.01-0.427,0.004c-0.257-0.01-0.76-0.115,0.334,0.056c-0.131-0.021-0.261-0.053-0.389-0.089
							c-0.1-0.027-0.196-0.063-0.293-0.1c1,0.382,0.504,0.221,0.265,0.088c-0.084-0.047-0.164-0.101-0.243-0.156
							c-0.276-0.191,0.683,0.587,0.247,0.171c-0.064-0.062-0.123-0.129-0.18-0.198c0.673,0.805,0.358,0.487,0.222,0.246
							c-0.238-0.422,0.283,0.733,0.157,0.384c-0.092-0.256-0.123-0.781,0.021,0.388c-0.01-0.081-0.009-0.162-0.006-0.243
							c0.012-0.323-0.195,0.94-0.034,0.376c0.135-0.473-0.33,0.705-0.154,0.364c0.276-0.537-0.402,0.464-0.19,0.208
							c0.069-0.083,0.147-0.157,0.226-0.23c0.425-0.396-0.645,0.446-0.132,0.109c0.114-0.075,0.235-0.14,0.356-0.204
							c0.065-0.034,0.132-0.066,0.199-0.097c0.438-0.208-0.701,0.28-0.229,0.101c0.392-0.149,0.801-0.253,1.21-0.343
							c0.211-0.046,0.426-0.083,0.64-0.118c0.3-0.044,0.227-0.035-0.222,0.028c0.186-0.024,0.374-0.041,0.561-0.058
							c0.637-0.059,1.277-0.075,1.917-0.078c1.526-0.006,2.8-1.269,2.8-2.8C198.63,146.632,197.357,145.347,195.831,145.354
							L195.831,145.354z"/>
					</g>
				</g>
				<g>
					<g>
						<path d="M197.941,146.799c1.935,0,1.935-3,0-3S196.006,146.799,197.941,146.799L197.941,146.799z"/>
					</g>
				</g>
				<g>
					<g>
						<path d="M191.774,149.966c1.935,0,1.935-3,0-3S189.84,149.966,191.774,149.966L191.774,149.966z"/>
					</g>
				</g>
				<g>
					<g>
						<path d="M189.774,153.799c1.935,0,1.935-3,0-3S187.84,153.799,189.774,153.799L189.774,153.799z"/>
					</g>
				</g>
				<g>
					<g>
						<path d="M196.941,154.299c1.935,0,1.935-3,0-3S195.006,154.299,196.941,154.299L196.941,154.299z"/>
					</g>
				</g>
				<g>
					<g>
						<path d="M203.108,151.132c1.935,0,1.935-3,0-3S201.173,151.132,203.108,151.132L203.108,151.132z"/>
					</g>
				</g>
			</g>
			<g>
				<g>
					<g>
						<path fill="#FFFF00" d="M196.54,181.662c-2.597-1.635-5.025-1.187-7.147,0.933c-0.796,0.795-2.827-0.073-3.931-0.155
							c-1.807-0.134-3.958,0.926-5.356,1.971c-6.524,4.88-1.775,14.362,5.316,15.206c5.625,0.669,11.217-5.675,13.115-10.336
							c0.825-2.026,1.153-4.578-0.546-6.277c-2.125-2.125-5.181-0.96-7.465,0.159c-1.904,0.934-1.919,3.543-0.638,4.947
							c3.708,4.062,9.512,1.225,7.932-4.231c-1.542,1.186-3.085,2.372-4.627,3.557c0.753,0.388,0.621,0.331,1.195,1.008
							c1.022-1.755,2.043-3.51,3.065-5.265c-5.78-0.785-9.926,2.93-15.175,4.5c-2.212,0.662-3.15,3.592-1.39,5.265
							c2.758,2.621,6.277,3.068,9.122,0.333c2.933-2.82-1.527-7.27-4.455-4.455c-0.071-0.111-0.141-0.222-0.212-0.333
							c-0.463,1.755-0.927,3.51-1.39,5.265c2.037-0.609,3.946-1.566,5.851-2.497c1.658-0.811,4.035-2.267,5.975-2.003
							c3.111,0.422,5.233-2.71,3.065-5.265c-0.724-0.853-1.475-1.479-2.471-1.992c-2.379-1.226-5.432,0.778-4.627,3.557
							c0.866-0.633,1.732-1.266,2.598-1.898c-0.213,1.649-0.425,3.298-0.638,4.947c0.304-0.148,0.858-0.479,1.216-0.508
							c2.167-0.175-2.181-0.917-1.996-1.822c-0.184,0.899-0.687,1.702-1.151,2.477c-1.254,2.095-3.442,3.792-5.762,4.518
							c-1.4,0.438-2.943-1.746-2.742-2.985c0.288-1.771,2.789-1.486,3.965-1.244c1.5,0.309,3.324,0.375,4.686-0.464
							c0.55-0.339,1.043-0.727,1.537-1.141c1.361-1.143,0.208-0.136-0.099-0.33C196.81,189.272,199.968,183.819,196.54,181.662
							L196.54,181.662z"/>
					</g>
				</g>
				<g>
					<g>
						<path d="M187.284,188.048c1.935,0,1.935-3,0-3S185.349,188.048,187.284,188.048L187.284,188.048z"/>
					</g>
				</g>
				<g>
					<g>
						<path d="M184.617,192.715c1.935,0,1.935-3,0-3S182.683,192.715,184.617,192.715L184.617,192.715z"/>
					</g>
				</g>
				<g>
					<g>
						<path d="M186.284,196.215c1.935,0,1.935-3,0-3S184.349,196.215,186.284,196.215L186.284,196.215z"/>
					</g>
				</g>
				<g>
					<g>
						<path d="M190.784,192.215c1.935,0,1.935-3,0-3S188.849,192.215,190.784,192.215L190.784,192.215z"/>
					</g>
				</g>
				<g>
					<g>
						<path d="M191.95,187.215c1.935,0,1.935-3,0-3S190.016,187.215,191.95,187.215L191.95,187.215z"/>
					</g>
				</g>
			</g>
			<g>
				<g>
					<g>
						<g>
							<path fill="#FFFF00" d="M254.805,147.529c-3.943-4.299-10.828-10.387-17.044-7.079c-7.19,3.826-1.382,11.998,3.112,15.245
								c4.469,3.228,13.634,5.158,15.917-1.595c2.192-6.484-7.439-9.791-11.622-11.813c-2.698-1.304-6.066,1.438-4.31,4.31
								c0.96,1.571,1.638,3.271,2.75,4.75c0.906-1.58,1.813-3.16,2.72-4.74c-0.514,0.111-0.984,0.005-1.41-0.32
								c-3.639-1.763-6.835,3.669-3.18,5.439c1.5,0.727,2.895,1.313,4.59,1.18c2.104-0.165,4.286-2.655,2.72-4.74
								c-1.111-1.479-1.789-3.179-2.75-4.75c-1.437,1.437-2.873,2.873-4.31,4.31c2.914,1.409,6.371,2.408,8.636,4.828
								c0.265,0.282-0.021-0.029,0.246-0.346c-0.228,0.27-1.308,0.122-1.576,0.119c-1.566-0.021-3.05-0.665-4.363-1.462
								c-1.313-0.797-2.515-2-3.407-3.242c-0.297-0.415-0.82-1.109-0.882-1.641c0.02,0.168-0.072,0.055,0.773-0.188
								c1.396-0.4,3.688,1.549,4.693,2.269c1.555,1.111,2.953,2.516,4.242,3.921C253.102,154.984,257.545,150.517,254.805,147.529
								L254.805,147.529z"/>
						</g>
					</g>
					<g>
						<g>
							<path fill="#FFFF00" d="M251.615,154.094c0.194-0.582,0.387-1.165,0.625-1.73c-0.106,0.251-0.212,0.502-0.318,0.752
								c0.04-0.091,0.081-0.181,0.125-0.27c0.744-1.548,0.439-3.391-1.13-4.31c-1.39-0.814-3.566-0.417-4.31,1.13
								c-0.428,0.89-0.756,1.817-1.068,2.752c-0.543,1.629,0.612,3.438,2.2,3.875C249.462,156.768,251.072,155.722,251.615,154.094
								L251.615,154.094z"/>
						</g>
					</g>
				</g>
				<g>
					<g>
						<path d="M245.078,147.757c1.935,0,1.935-3,0-3S243.143,147.757,245.078,147.757L245.078,147.757z"/>
					</g>
				</g>
				<g>
					<g>
						<path d="M238.078,147.757c1.935,0,1.935-3,0-3S236.143,147.757,238.078,147.757L238.078,147.757z"/>
					</g>
				</g>
				<g>
					<g>
						<path d="M240.828,152.507c1.935,0,1.935-3,0-3S238.893,152.507,240.828,152.507L240.828,152.507z"/>
					</g>
				</g>
				<g>
					<g>
						<path d="M246.578,155.257c1.935,0,1.935-3,0-3S244.643,155.257,246.578,155.257L246.578,155.257z"/>
					</g>
				</g>
				<g>
					<g>
						<path d="M250.995,149.673c1.935,0,1.935-3,0-3S249.06,149.673,250.995,149.673L250.995,149.673z"/>
					</g>
				</g>
				<g>
					<g>
						<path d="M251.495,156.507c1.935,0,1.935-3,0-3S249.56,156.507,251.495,156.507L251.495,156.507z"/>
					</g>
				</g>
			</g>
		</g>
		<g>
			<g>
				<path fill="#008400" stroke="#000000" stroke-width="1.5" stroke-miterlimit="10" d="M370.304,90.915
					c0,0-8.96,21.627,5.154,64.79c14.115,43.163,25.102,9.614,23.587-1.464C397.531,143.164,395.376,112.539,370.304,90.915z"/>
				<path fill="#008400" stroke="#000000" stroke-width="1.5" stroke-miterlimit="10" d="M462.224,117.484
					c0,0-13.861,7.898-19.355,7.656c-5.495-0.242-25.077,23.92-32.62,36.1c-7.543,12.18,9.507,11.43,19.607,9.372
					c10.1-2.058,15.845-15.214,26.297-25.264C466.604,135.297,461.244,120.778,462.224,117.484z"/>
				<path fill="#008400" stroke="#000000" stroke-width="1.5" stroke-miterlimit="10" d="M503.278,158.831
					c0,0-8.249,5.476-11.669,11.164c-3.421,5.688-23.766,14.969-43.616,14.929c-19.851-0.04-43.093-0.73-2.7-20.138
					C485.687,145.377,486.291,150.575,503.278,158.831z"/>
				<path fill="#008400" stroke="#000000" stroke-width="1.5" stroke-miterlimit="10" d="M456.37,216.323
					c0,0,17.409-3.237,34.798,11.041c0,0,5.969,6.519,10.02,5.446c0,0-3.234,16.624-22.116,13.54
					c-18.883-3.084-44.77-6.226-46.134-15.044C431.574,222.488,453.174,216.613,456.37,216.323z"/>
				<path fill="#008400" stroke="#000000" stroke-width="1.5" stroke-miterlimit="10" d="M422.405,248.86
					c0,0,27.781,34.005,38.943,36.248c0,0,9.024-0.354,10.413,2.21c0,0,4.814-7.045,0.539-12.238c0,0,2.144-8.914-1.654-13.586
					c-3.798-4.671-12.291-22.062-40.305-28.05S419.194,245.031,422.405,248.86z"/>
				<path fill="#008400" stroke="#000000" stroke-width="1.5" stroke-miterlimit="10" d="M415.712,259.742
					c0,0-4.02,26.85,10.025,49.489c0,0,8.501,6.714,9.233,9.415c0,0,7.389-6.682,10.125-17.237
					c2.735-10.556-8.541-38.079-19.338-44.228C414.961,251.035,415.908,258.05,415.712,259.742z"/>
				<path fill="#008400" stroke="#000000" stroke-width="1.5" stroke-miterlimit="10" d="M333.322,197.642
					c0,0-28.331-21.517-29.558-27.744c0,0-5.948-16.445-3.253-20.83c0,0,17.901,2.624,42.607,21.228
					C367.824,188.901,341.676,199.261,333.322,197.642z"/>
				<path fill="#008400" stroke="#000000" stroke-width="1.5" stroke-miterlimit="10" d="M352.792,245.563
					c0,0-13.766,18.996-25.981,21.153c-12.217,2.157-10.333-28.387,20.777-31.428C378.698,232.248,352.792,245.563,352.792,245.563z
					"/>
				<path fill="none" stroke="#000000" stroke-miterlimit="10" d="M377.632,113.927c6.275,13.854,15.787,33.665,7.864,48.726"/>
				<path fill="none" stroke="#000000" stroke-miterlimit="10" d="M459.416,128.205c-15.439,9.579-23.574,29.299-40.938,35.567"/>
				<path fill="none" stroke="#000000" stroke-width="1.5" stroke-miterlimit="10" d="M438.696,182.012
					c15.459-11.515,31.909-19.246,50.399-23.139"/>
				<path fill="none" stroke="#000000" stroke-miterlimit="10" d="M450.021,227.887c14.319,8.388,26.898,7.967,42.999,8.567"/>
				<path fill="none" stroke="#000000" stroke-miterlimit="10" d="M430.944,244.397c11.824,10.739,23.386,25.397,36.236,33.292"/>
				<path fill="none" stroke="#000000" stroke-miterlimit="10" d="M422.289,262.868c2.832,18.707,14.467,36.557,13.065,55.629"/>
				<path fill="none" stroke="#000000" stroke-miterlimit="10" d="M307.845,160.568c10.985,11.263,23.123,22.984,38.817,27.734"/>
				<path fill="#008400" stroke="#000000" stroke-width="1.5" stroke-miterlimit="10" d="M380.264,256.844
					c0,0-13.05,0.847-14.165,14.812c-1.116,13.964,21.189,7.521,26.563-6.547S386.158,255.088,380.264,256.844z"/>
				<path fill="none" stroke="#000000" stroke-miterlimit="10" d="M381.686,264.334c-4.075,3.128-7.427,7.104-9.77,11.581"/>
			</g>
		</g>
		<g>
			<path fill="#008400" stroke="#000000" stroke-width="1.5" stroke-miterlimit="10" d="M227.096,293.737c0,0-47.5-14-87.5,11.5
				c0,0,19,6.5,30,10.5s40,5,64.5-4C234.096,311.737,242.596,294.237,227.096,293.737z"/>
			<path fill="#008400" stroke="#000000" stroke-width="1.5" stroke-miterlimit="10" d="M236.421,325.904
				c0,0-28.492,26.667-54.492,25c0,0-16.333-3.183-19.333,0.075c0,0,18-35.408,83.333-41.075L236.421,325.904z"/>
			<path fill="#008400" stroke="#000000" stroke-width="1.5" stroke-miterlimit="10" d="M232.929,322.904c0,0-7,26,0,40
				c0,0,6.667-3.667,15.333-6s22-28.785,18.333-38.226S245.596,313.237,232.929,322.904z"/>
			<path fill="#008400" stroke="#000000" stroke-width="1.5" stroke-miterlimit="10" d="M252.263,243.903
				c0,0-6.667-12.666-4.333-50.666c0,0,3.333-5.667,8-3.334c4.667,2.334,18,10.001,14.333,51.334
				C270.263,241.237,265.263,249.569,252.263,243.903z"/>
			<path fill="#008400" stroke="#000000" stroke-width="1.5" stroke-miterlimit="10" d="M268.596,247.57
				c0,0,1.667-42.333,31.666-60.667c0,0,17.334,18.335-2.332,57.001C278.262,282.57,274.663,249.391,268.596,247.57z"/>
			<path fill="#008400" stroke="#000000" stroke-width="1.5" stroke-miterlimit="10" d="M305.263,247.237
				c0,0,10.333-17.332,34.333-17.666s6.334,21.999-17.166,34.666s-18.5-14.386-17.167-18.359"/>
			<path fill="#008400" stroke="#000000" stroke-width="1.5" stroke-miterlimit="10" d="M327.465,275.737c0,0,27.131-12,46.131-4.5
				c0,0,16.25,13,22.25,12c0,0-20.25,20.25-70,3.5C325.846,286.737,325.722,276.453,327.465,275.737z"/>
			<path fill="#008400" stroke="#000000" stroke-width="1.5" stroke-miterlimit="10" d="M313.596,300.904
				c1.326,0.363,26.667,4.731,29.334,37.199c0,0,1.333,7.469,3,10.135c1.666,2.666-31.001-1.452-47.668-29.56
				C281.596,290.571,309.824,299.871,313.596,300.904z"/>
			<path fill="#008400" stroke="#000000" stroke-width="1.5" stroke-miterlimit="10" d="M314.93,296.238
				c0,0,20.666,19,29.332,19.333c0,0,15.668,19.728,50.334,8.197c0,0-18.666-28.868-39.833-33.866S316.93,286.238,314.93,296.238z"
				/>
			<path fill="none" stroke="#000000" stroke-miterlimit="10" d="M254.596,194.487c-3.464,12.891,4.611,30.923,5.75,44.75"/>
			<path fill="none" stroke="#000000" stroke-miterlimit="10" d="M294.596,202.487c-9.847,13.799-10.071,32.279-9,48.75"/>
			<path fill="none" stroke="#000000" stroke-miterlimit="10" d="M332.346,244.487c-8.133,2.292-16.047,5.89-22.5,11.25"/>
			<path fill="none" stroke="#000000" stroke-miterlimit="10" d="M380.596,283.571c-14.664-6.979-35.033-0.836-51.333-2"/>
			<path fill="none" stroke="#000000" stroke-miterlimit="10" d="M375.93,317.571c-16.727-10.966-39.859-12.838-52.667-28"/>
			<path fill="none" stroke="#000000" stroke-miterlimit="10" d="M334.263,335.904c-10.915-10.641-19.77-25.897-34.667-31.667"/>
			<path fill="none" stroke="#000000" stroke-miterlimit="10" d="M253.263,322.904c-4.102,9.377-8.369,19.13-10,29"/>
			<path fill="none" stroke="#000000" stroke-miterlimit="10" d="M186.929,339.904c12.585-6.856,25.117-13.989,39-17.667"/>
			<path fill="none" stroke="#000000" stroke-miterlimit="10" d="M174.346,305.237c16.844-5.228,35.269,1.08,52.25-3.5"/>
		</g>
		<g>
			<polygon fill="#FFFFFF" stroke="#000000" stroke-width="1.5" stroke-miterlimit="10" points="275.595,264.583 253.816,289.954 
				285.453,294.013 			"/>
			<polygon fill="#FFFFFF" stroke="#000000" stroke-width="1.5" stroke-miterlimit="10" points="250.397,291.686 256.145,311.201 
				275.48,309.335 261.756,286.759 			"/>
			<path fill="#FFFFFF" stroke="#000000" stroke-width="1.5" stroke-miterlimit="10" d="M228.81,295.587
				c0,0-13.332,0.115-15.457,8.867s5.461,7.152,8.655,6.392c0,0-8.792,8.811-1.133,15.545c0,0,9.539,5.298,13.094-6.224
				c0,0-0.15,8.081,7.484,9.802C249.086,331.689,264.941,279.742,228.81,295.587z"/>
			<path fill="#FFFFFF" stroke="#000000" stroke-width="1.5" stroke-miterlimit="10" d="M234.066,296.292
				c0,0-8.374,6.254,0.413,14.713c8.786,8.458,14.007-5.529,16.445-10.255C253.364,296.024,241.064,291.418,234.066,296.292z"/>
			<path fill="none" stroke="#000000" stroke-width="1.5" stroke-miterlimit="10" d="M226.573,300.649"/>
			<path fill="#FFFFFF" stroke="#000000" stroke-width="1.5" stroke-miterlimit="10" d="M231.81,284.16
				c0,0-15.739,10.67-22.833-0.27c-7.095-10.939,7.273-17.296,6.18-15.203c0,0-11.131-9.955,2.535-17.873
				c0,0,5.389-1.18,8.674,0.926c0,0-1.131-7.524,4.586-9.373c5.717-1.85,10.901,3.839,12.861,6.956
				C245.771,252.439,269.575,268.834,231.81,284.16z"/>
			<g>
				<g>
					<g>
						<path fill="#FFFF00" d="M234.625,255.514c-4.757-1.28-9.667,0.792-12.25,4.944c-2.59,4.165-1.017,9.661,2.93,12.259
							c3.73,2.455,8.928,1.081,11.66-2.159c2.814-3.338,3.735-9.438-0.037-12.493c-6.177-5.004-16.499,7.356-9.635,12.025
							c2.097,1.427,5.325,0.947,7.155-0.669c2.66-2.35,1.692-6.031-0.143-8.542c-0.885-1.211-2.777-1.823-3.926-0.506
							c-0.817,0.937-1.422,1.856-1.97,2.97c-1.146,2.328,1.128,4.489,3.42,3.42c3.86-1.799,7.583-5.508,5.341-9.958
							c-1.451-2.88-5.764-0.348-4.317,2.523c0.596,1.183-2.803,2.771-3.547,3.118c1.14,1.14,2.28,2.28,3.42,3.42
							c0.354-0.719,0.663-1.356,1.188-1.958c-1.309-0.169-2.618-0.337-3.926-0.506c0.442,0.605,0.875,1.21,1.097,1.932
							c0.137,0.447-0.173,0.646,0.153,0.238c-0.244,0.305-0.742,0.408-1.203,0.299c-0.208-0.05-0.196-0.113-0.082,0.051
							c-0.263-0.381-0.006-0.018,0.012,0.167c-0.028-0.286,0.016-0.326,0.166-0.778c0.29-0.876,2.841-4.052,3.582-3.451
							c1.638,1.326,0.398,4.354-0.647,5.594c-1.308,1.551-3.491,1.903-5.237,0.946c-2.18-1.194-1.958-4.096-0.833-5.904
							c1.268-2.039,4.118-2.747,6.3-2.159C236.414,261.175,237.735,256.352,234.625,255.514L234.625,255.514z"/>
					</g>
				</g>
				<g>
					<g>
						<path d="M224.692,265.139c1.935,0,1.935-3,0-3S222.758,265.139,224.692,265.139L224.692,265.139z"/>
					</g>
				</g>
				<g>
					<g>
						<path d="M230.128,265.392c1.935,0,1.935-3,0-3S228.194,265.392,230.128,265.392L230.128,265.392z"/>
					</g>
				</g>
			</g>
			<path fill="#FFFFFF" stroke="#000000" stroke-width="1.5" stroke-miterlimit="10" d="M240.574,280.004
				c0,0-20.744,12.061-21.972-2.729c0,0,1.824-11.458,18.149-7.252c0,0-13.138-8.842,0.583-18.061c0,0,10.831-2.293,10.62,13.909
				S240.574,280.004,240.574,280.004z"/>
			<path fill="#FFFFFF" stroke="#000000" stroke-width="1.5" stroke-miterlimit="10" d="M271.099,230.271
				c-13.232-3.736-14.122,6.634-14.122,6.634c-1.032-2.763-4.656-4.098-5.68-4.426c-0.2-0.007-0.401-0.021-0.6-0.036
				c-18.783,2.552-9.071,17.816-9.071,17.816c11.044,45.04,24.074,14.959,30.212,10.272
				C277.975,255.846,284.332,234.006,271.099,230.271z"/>
			<g>
				<g>
					<g>
						<path fill="#FFFF00" d="M267.551,239.008c-4.994-1.08-12.55-1.095-14.069,5.146c-1.078,4.431,2.27,8.953,6.606,9.823
							c5.627,1.129,15.928-5.019,10.866-11.338c-3.584-4.476-13.388-4.043-14.743,2.28c-0.561,2.619,0.691,5.322,3.286,6.227
							c3.294,1.148,6.655-1.157,9.048-3.159c0.851-0.712,0.921-2.125,0.391-3.029c-0.751-1.282-2.168-1.435-3.42-0.896
							c-0.936,0.401-1.987,0.521-2.943,0.878c1.025,1.025,2.05,2.051,3.075,3.076c0.181-1.12,0.41-2.182,0.267-3.316
							c-0.182-1.436-1.005-2.388-2.5-2.5c-2.529-0.189-4.831,0.875-6.652,2.574c-2.363,2.203,1.181,5.731,3.535,3.535
							c0.916-0.854,1.874-1.202,3.117-1.109c-0.833-0.833-1.667-1.667-2.5-2.5c0.092,0.726,0.027,1.274-0.088,1.986
							c-0.272,1.683,1.1,3.812,3.075,3.076c1.373-0.512,2.783-0.802,4.138-1.384c-1.01-1.309-2.02-2.617-3.029-3.926
							c-0.883,0.738-1.865,1.46-2.962,1.83c-0.606,0.205-0.297,0.146-0.87,0.149c-0.69,0.003,0.444,0.122-0.167-0.042
							c0.523,0.141,0.084,0.031-0.08-0.071c0.19,0.119,0.342,0.427,0.095-0.024c0.293,0.535,0.063,0.11,0.017-0.073
							c0.153,0.615,0.022,0.127,0.021-0.068c-0.001-0.091,0.157-0.548,0.37-0.776c0.211-0.228,0.835-0.589,1.514-0.651
							c1.313-0.121,2.756,0.196,3.891,0.85c1.582,0.91-2.425,3.038-3.358,3.338c-0.941,0.304-1.233,0.309-2.25,0.223
							c0.441,0.037-0.552-0.16-0.718-0.214c-0.102-0.033-0.323-0.134-0.798-0.438c-0.233-0.167-0.238-0.166-0.014,0.001
							c-0.167-0.134-0.318-0.285-0.469-0.436c-0.418-0.417-0.097-0.006-0.495-0.657c-0.069-0.119-0.135-0.239-0.196-0.362
							c-0.311-0.598,0.164,0.476-0.06-0.153c-0.067-0.189-0.114-0.385-0.161-0.58c-0.155-0.646,0.034,0.538-0.024-0.119
							c-0.016-0.182,0.074-1.176-0.03-0.502c0.03-0.192,0.084-0.38,0.138-0.566c0.179-0.617-0.24,0.454,0.049-0.126
							c0.062-0.118,0.13-0.232,0.203-0.345c0.345-0.556-0.333,0.358,0.122-0.137c0.047-0.052,0.574-0.497,0.154-0.181
							c0.187-0.141,0.392-0.257,0.595-0.372c1.553-0.882,4.54-0.584,6.695-0.117C269.366,244.51,270.702,239.69,267.551,239.008
							L267.551,239.008z"/>
					</g>
				</g>
				<g>
					<g>
						<path d="M259.877,243.763c1.935,0,1.935-3,0-3S257.942,243.763,259.877,243.763L259.877,243.763z"/>
					</g>
				</g>
				<g>
					<g>
						<path d="M262.468,246.607c1.935,0,1.935-3,0-3S260.534,246.607,262.468,246.607L262.468,246.607z"/>
					</g>
				</g>
				<g>
					<g>
						<path d="M256.252,248.627c1.935,0,1.935-3,0-3S254.317,248.627,256.252,248.627L256.252,248.627z"/>
					</g>
				</g>
			</g>
			<path fill="#FFFFFF" stroke="#000000" stroke-width="1.5" stroke-miterlimit="10" d="M261.28,255.272
				c0,0-11.147-16.986-16.233-2.038c-5.085,14.946,11.613,23.07,15.504,21.47C264.444,273.104,272.133,257.692,261.28,255.272z"/>
			<path fill="#FFFFFF" stroke="#000000" stroke-width="1.5" stroke-miterlimit="10" d="M323.879,274.267
				c0,0,0.326,0.176,0.834,0.493c1.918,1.202,6.41,4.431,5.489,7.787c-1.163,4.243-4.071,7.302-12.99,9.078
				c0,0,19.777,10.109,3.776,22.934c0,0-6.742,2.293-11.188-3.119c0,0-0.597,17.756-14.437,13.226c0,0-9.019-9.156-7.616-14.003
				c0,0-44.395-26.604-11.314-49.925C309.514,237.416,322.435,269.078,323.879,274.267z"/>
			<g>
				<g>
					<g>
						<path fill="#FFFF00" d="M299.438,301.733c2.401,3.122,5.423,5.177,9.438,5.384c3.044,0.157,6.218-1.244,8.302-3.424
							c2.102-2.198,2.66-5.147,1.399-7.901c-1.527-3.336-6.065-4.578-9.351-4.956c-5.627-0.646-10.589,3.701-9.816,9.412
							c0.334,2.467,2.376,4.195,4.552,5.051c3.273,1.286,7.181-0.147,10.157-1.515c1.067-0.491,1.336-1.795,1.149-2.824
							c-0.511-2.813-1.565-5.782-4.385-6.971c-1.973-0.832-4.121,0.044-5.576,1.437c-1.533,1.466-2.125,3.59-1.77,5.637
							c0.471,2.716,3.472,3.702,5.825,3.843c1.709,0.103,2.729-1.665,2.411-3.165c-0.784-3.696-3.875-5.909-7.548-6.091
							c-1.825-0.09-3.21,2.218-2.158,3.762c2.092,3.074,4.85,4.418,8.546,3.7c3.163-0.615,1.82-5.434-1.33-4.822
							c-1.364,0.266-2.142-0.29-2.899-1.401c-0.719,1.254-1.438,2.508-2.158,3.762c1.552,0.076,2.413,0.944,2.726,2.421
							c0.804-1.056,1.607-2.11,2.411-3.165c-0.264-0.016-0.686-0.033-0.92-0.141c-0.478-0.221,0.015,0.321-0.084-0.031
							c0.059,0.209,0.003,0.107,0.153-0.35c-0.046,0.139,0.262-0.349,0.33-0.423c0.082-0.088,0.556-0.342,0.374-0.28
							c0.297-0.101-0.14-0.056-0.024,0.009c0.78,0.434,1.09,2.693,1.254,3.601c0.384-0.941,0.767-1.883,1.149-2.824
							c-1.597,0.733-3.639,1.535-5.42,1.25c-1.221-0.196-1.64-0.677-1.84-1.326c-0.201-0.65-0.025-1.526,0.406-2.08
							c0.802-1.024,1.894-1.45,3.276-1.517c1.955-0.094,4.374,0.563,5.815,1.919c0.814,0.765,0.554,1.583-0.192,2.446
							c-2.774,3.21-7.53,2.115-9.886-0.948C301.819,296.692,297.472,299.177,299.438,301.733L299.438,301.733z"/>
					</g>
				</g>
				<g>
					<g>
						<path d="M308.688,300.961c1.935,0,1.935-3,0-3S306.754,300.961,308.688,300.961L308.688,300.961z"/>
					</g>
				</g>
				<g>
					<g>
						<path d="M311.723,304.935c1.935,0,1.935-3,0-3S309.788,304.935,311.723,304.935L311.723,304.935z"/>
					</g>
				</g>
				<g>
					<g>
						<path d="M313.223,299.071c1.935,0,1.935-3,0-3S311.288,299.071,313.223,299.071L313.223,299.071z"/>
					</g>
				</g>
			</g>
			<path fill="#FFFFFF" stroke="#000000" stroke-width="1.5" stroke-miterlimit="10" d="M315.161,262.79
				c0,0,15.44-1.054,8.474,11.098c0,0-18.635,6.312-30.577,0.572"/>
			<path fill="#FFFFFF" stroke="#000000" stroke-width="1.5" stroke-miterlimit="10" d="M294.097,282.224
				c0,0-7.524,15.245-3.153,23.882c4.371,8.637,16.873,1.501,15.595-7.588c0,0,12.556-0.898,11.947-11.954
				C317.878,275.509,308.273,273.601,294.097,282.224z"/>
			<path fill="#FFFFFF" stroke="#000000" stroke-width="1.5" stroke-miterlimit="10" d="M282.423,265.345
				c0,0-7.467,3.757-6.197,10.364s6.712,3.081,8.567,1.979c0,0-12.887,4.493-7.818,18.866c5.069,14.373,17.688,0.953,21.637-6.771
				S299.508,249.469,282.423,265.345z"/>
			<path fill="#FFFFFF" stroke="#000000" stroke-width="1.5" stroke-miterlimit="10" d="M238.864,263.167
				c0,0-15.573,10.979,0.794,18.648c0,0-23.032,3.363-13.085,18.834c0,0,5.406,6.778,11.986-3.278c0,0,1.09,12.714,13.003,9.215
				c0,0,7.405-4.459,2.739-12.219c0,0,6.722,8.392,16.505,0.607c9.783-7.785-1.881-15.233-5.468-13.753
				c0,0,10.412-4.49,4.751-11.491c0,0-9.714-7.366-16.155-0.561C253.934,269.17,249.683,255.64,238.864,263.167z"/>
			<path fill="#FFFFFF" stroke="#000000" stroke-width="1.5" stroke-miterlimit="10" d="M263.803,306.788
				c0,0-9.791-7.978-17.95,3.403c-8.158,11.382,6.592,12.402,7.944,12.559s-12.153,9.379-3.009,19.338c0,0,8.221,2.936,13.744-8.118
				c0,0,2.401,8.271,10.739,11.118c0,0,10.147-2.993,7.645-13.267c0,0,7.399,1.481,11.643-2.649
				c4.244-4.131,3.494-22.876-13.691-15.104c0,0,12.884-13.403-0.012-20.201C267.96,287.07,265.118,298.553,263.803,306.788z"/>
			<path fill="#FFFFFF" stroke="#000000" stroke-width="1.5" stroke-miterlimit="10" d="M275.455,245.45
				c0,0-12.569-4.936-5.334-15.435c0,0,14.259-13.66,19.337,6.997c0,0,7.743-12.518,14.704-11.228
				c6.962,1.29,8.052,11.781,0.346,22.698c0,0,17.88-8.305,20.11,6.976c2.232,15.281-16.926,14.496-19.505,11.119
				c0,0,4.929,19.827-15.015,21.215c0,0-14.725-8.259-2.061-24.218c0,0-17.137,15.572-27.432-0.129
				C250.31,247.746,277.717,246.635,275.455,245.45z"/>
			<g>
				<g>
					<g>
						<path fill="#FFFF00" d="M247.113,279.626c-2.187,1.685-4.493,3.635-5.315,6.385c-0.602,2.014,0.165,4.449,2.131,5.408
							c1.786,0.871,3.908,0.729,5.583-0.354c2.053-1.326,3.001-3.5,3.206-5.869c-0.685,0.9-1.37,1.8-2.056,2.7
							c2.266-0.694,4.252-1.903,5.598-3.883c1.132-1.664,1.274-3.739,0.477-5.551c-0.783-1.779-3.039-2.585-4.825-1.997
							c-2.214,0.729-3.662,2.782-4.66,4.779c-0.567,1.136-0.495,2.46,0.438,3.393c0.84,0.841,2.367,1.146,3.393,0.438
							c2.06-1.42,4.025-3.048,4.323-5.672c0.231-2.038-1.671-3.705-3.493-4.087c-1.764-0.369-3.494-0.107-5.119,0.643
							c-0.854,0.395-1.503,1.071-2.038,1.825c-0.703,0.99-0.699,2.186-0.544,3.325c0.157,1.15,1.028,2.268,1.787,3.084
							c1.04,1.118,2.911,1.05,3.96,0c1.108-1.107,1.039-2.843,0-3.959c-0.119-0.129-0.234-0.259-0.344-0.395
							c0.665,0.815,0.212,0.274,0.073,0.045c-0.149-0.244-0.37-0.866,0.045,0.185c-0.05-0.125-0.083-0.256-0.11-0.387
							c-0.046-0.228,0.049,0.953,0.071,0.327c0.008-0.229-0.203,0.947-0.032,0.365c0.13-0.446-0.405,0.806-0.128,0.326
							c0.276-0.479-0.52,0.609-0.208,0.263c0.076-0.084,0.161-0.159,0.249-0.23c-0.858,0.703-0.468,0.35-0.225,0.204
							c0.106-0.063,0.217-0.118,0.329-0.17c0.184-0.084-0.866,0.328-0.252,0.121c0.25-0.084,0.508-0.142,0.768-0.185
							c0.222-0.038-0.953,0.1-0.284,0.046c0.13-0.011,0.262-0.015,0.393-0.015c0.106-0.001,0.213,0.004,0.32,0.011
							c0.65,0.038-0.528-0.085-0.314-0.051c0.225,0.036,0.446,0.097,0.658,0.181c-1.048-0.412-0.589-0.267-0.348-0.121
							c0.379,0.229-0.676-0.587-0.306-0.235c0.363,0.346-0.463-0.683-0.248-0.321c0.216,0.363-0.287-0.869-0.174-0.381
							c0.042,0.18-0.042-0.979-0.083-0.414c0.08-1.096,0.119-0.681,0.014-0.372c-0.118,0.348,0.345-0.776,0.183-0.436
							c-0.03,0.063-0.065,0.123-0.1,0.184c-0.131,0.228-0.559,0.744,0.114-0.106c-0.258,0.326-0.563,0.615-0.873,0.892
							c-0.172,0.152-0.924,0.738-0.146,0.143c-0.242,0.185-0.491,0.359-0.741,0.532c1.277,1.277,2.554,2.554,3.831,3.831
							c0.193-0.387,0.397-0.765,0.619-1.136c0.11-0.184,0.229-0.363,0.351-0.54c0.421-0.618-0.291,0.345-0.006-0.005
							c0.202-0.248,0.426-0.476,0.667-0.687c0.339-0.298-0.668,0.472-0.17,0.14c0.097-0.064,0.2-0.118,0.303-0.17
							c-0.837,0.417-0.619,0.247-0.379,0.168c0.251-0.082,0.721-0.091-0.406,0.033c0.083-0.01,0.167-0.006,0.25,0.001
							c-1.025-0.081-0.73-0.127-0.459-0.033c-0.923-0.317-0.654-0.308-0.418-0.151c-0.801-0.529-0.545-0.453-0.354-0.247
							c0.245,0.264-0.505-0.73-0.266-0.323c0.244,0.414-0.281-0.736-0.155-0.38c0.022,0.063,0.038,0.128,0.053,0.193
							c0.122,0.503-0.082-0.797-0.051-0.396c0.008,0.101,0.005,0.201,0.001,0.302c-0.022,0.552,0.125-0.762,0.05-0.347
							c-0.053,0.296-0.402,1.114,0.041,0.089c-0.105,0.243-0.244,0.472-0.393,0.691c-0.26,0.382,0.475-0.589,0.174-0.224
							c-0.097,0.118-0.204,0.229-0.311,0.338c-0.114,0.116-0.236,0.224-0.359,0.329c-0.346,0.297,0.631-0.451,0.045-0.045
							c-0.318,0.221-0.66,0.404-1.007,0.573c-0.265,0.12-0.187,0.091,0.234-0.09c-0.102,0.042-0.205,0.082-0.308,0.12
							c-0.217,0.082-0.438,0.152-0.66,0.22c-1.276,0.392-1.945,1.414-2.056,2.7c-0.062,0.72,0.099-0.579,0.02-0.114
							c-0.027,0.155-0.065,0.31-0.105,0.463c-0.038,0.145-0.087,0.286-0.139,0.427c-0.103,0.26-0.049,0.136,0.159-0.372
							c-0.042,0.095-0.091,0.186-0.14,0.277c-0.063,0.117-0.134,0.229-0.208,0.339c-0.187,0.281,0.551-0.641,0.085-0.122
							c-0.081,0.09-0.169,0.173-0.258,0.255c-0.435,0.398,0.633-0.445,0.154-0.119c-0.257,0.175-1.055,0.489,0.011,0.06
							c-0.216,0.087-0.443,0.144-0.672,0.182c1.153-0.193,0.371-0.048,0.023-0.079c1.072,0.098,0.673,0.104,0.409,0.04
							c-0.261-0.062-0.72-0.304,0.299,0.151c-0.077-0.034-0.15-0.077-0.222-0.122c-0.314-0.196,0.675,0.569,0.323,0.245
							c-0.183-0.169-0.397-0.545,0.237,0.332c-0.156-0.216-0.306-0.705,0.106,0.331c-0.033-0.083-0.054-0.171-0.073-0.258
							c-0.067-0.304,0.059,0.946,0.064,0.31c0.004-0.552-0.129,0.76-0.055,0.34c0.026-0.151,0.072-0.298,0.119-0.443
							c0.193-0.588-0.278,0.604-0.083,0.188c0.066-0.142,0.144-0.276,0.222-0.411c0.086-0.149,0.183-0.292,0.28-0.434
							c0.053-0.076,0.107-0.151,0.163-0.226c-0.519,0.704-0.188,0.248-0.064,0.099c0.336-0.4,0.708-0.771,1.088-1.13
							c0.195-0.185,0.397-0.361,0.6-0.537c0.108-0.093,0.218-0.186,0.329-0.276c0.072-0.061,0.658-0.521,0.149-0.129
							c0.608-0.469,1.075-0.901,1.287-1.674c0.199-0.723,0.096-1.511-0.282-2.157C250.247,279.44,248.326,278.692,247.113,279.626
							L247.113,279.626z"/>
					</g>
				</g>
				<g>
					<g>
						<path d="M248.471,279.995c1.935,0,1.935-3,0-3S246.537,279.995,248.471,279.995L248.471,279.995z"/>
					</g>
				</g>
				<g>
					<g>
						<path d="M245.492,286.254c1.935,0,1.935-3,0-3S243.558,286.254,245.492,286.254L245.492,286.254z"/>
					</g>
				</g>
				<g>
					<g>
						<path d="M246.229,290.515c1.935,0,1.935-3,0-3S244.294,290.515,246.229,290.515L246.229,290.515z"/>
					</g>
				</g>
				<g>
					<g>
						<path d="M252.228,286.563c1.935,0,1.935-3,0-3S250.293,286.563,252.228,286.563L252.228,286.563z"/>
					</g>
				</g>
				<g>
					<g>
						<path d="M255.208,280.304c1.935,0,1.935-3,0-3S253.273,280.304,255.208,280.304L255.208,280.304z"/>
					</g>
				</g>
			</g>
			<g>
				<g>
					<g>
						<path fill="#FFFF00" d="M269.813,308.223c-2.924,0.266-5.005,1.627-5.417,4.684c-0.195,1.45-1.2,1.434-2.472,2.115
							c-1.627,0.872-2.787,2.619-3.492,4.265c-3.026,7.063,4.995,13.758,11.726,10.721c5.28-2.382,6.689-10.011,5.863-15.16
							c-0.389-2.426-1.294-5.367-3.888-6.23c-3.046-1.014-5.175,1.684-6.382,4.078c-0.834,1.652-0.245,4.27,1.882,4.627
							c5.898,0.992,8.761-4.561,3.839-8.303c-0.251,1.919-0.501,3.838-0.752,5.757c0.238-0.065,0.469-0.038,0.692,0.08
							c-0.251-1.919-0.501-3.838-0.752-5.757c-4.891,2.76-6.026,8.641-9.129,12.899c-1.561,2.142,0.619,4.513,2.72,4.74
							c3.333,0.36,6.417-1.424,6.95-4.88c0.613-3.974-5.457-5.681-6.075-1.676c0.056,0.521-0.235,0.605-0.875,0.255
							c0.907,1.58,1.813,3.16,2.72,4.74c2.299-3.155,3.332-8.644,6.869-10.64c2.297-1.296,1.941-5.17-0.752-5.757
							c-1.454-0.317-2.581-0.34-4.042-0.08c-3.016,0.535-2.653,4.312-0.752,5.757c0.338-1.07,0.677-2.141,1.016-3.211
							c0.627,1.542,1.255,3.085,1.882,4.627c0.233-0.513,0.503-1.005,0.809-1.478c-1.87,3.113-3.148-1.95-2.421,0.34
							c0.357,1.123,0.408,2.299,0.412,3.466c0.006,1.519-0.852,5.961-2.761,6.201c-1.084,0.136-3.454-0.468-3.246-1.966
							c0.246-1.776,1.768-2.306,3.157-3.004c1.349-0.678,2.395-1.857,2.931-3.252c0.207-0.54,0.317-1.029,0.399-1.601
							c0.254-1.773,0.341-0.148-0.658-0.058C273.824,314.159,273.86,307.856,269.813,308.223L269.813,308.223z"/>
					</g>
				</g>
				<g>
					<g>
						<path d="M265.034,319.248c1.935,0,1.935-3,0-3S263.1,319.248,265.034,319.248L265.034,319.248z"/>
					</g>
				</g>
				<g>
					<g>
						<path d="M265.747,324.574c1.935,0,1.935-3,0-3S263.812,324.574,265.747,324.574L265.747,324.574z"/>
					</g>
				</g>
				<g>
					<g>
						<path d="M269.195,326.345c1.935,0,1.935-3,0-3S267.261,326.345,269.195,326.345L269.195,326.345z"/>
					</g>
				</g>
				<g>
					<g>
						<path d="M270.344,320.435c1.935,0,1.935-3,0-3S268.41,320.435,270.344,320.435L270.344,320.435z"/>
					</g>
				</g>
				<g>
					<g>
						<path d="M268.237,315.753c1.935,0,1.935-3,0-3S266.303,315.753,268.237,315.753L268.237,315.753z"/>
					</g>
				</g>
			</g>
			<g>
				<g>
					<g>
						<g>
							<path fill="#FFFF00" d="M295.439,245.844c-6.068-1.071-14.545-1.816-18.124,4.349c-3.838,6.612,4.625,9.958,9.622,10.472
								c5.226,0.539,15.484-2.799,13.97-9.746c-1.698-7.794-11.979-4.471-17.179-3.388c-3.375,0.702-2.604,5.026,0,6.074
								c1.714,0.69,3.292,1.572,5.068,2.106c-0.463-1.755-0.927-3.51-1.39-5.265c-0.458,0.221-0.941,0.358-1.449,0.414
								c-3.979,0.81-2.291,6.882,1.675,6.074c1.673-0.34,2.953-0.893,4.229-2.033c1.827-1.634,0.767-4.615-1.39-5.265
								c-1.756-0.529-3.368-1.423-5.068-2.106c0,2.024,0,4.05,0,6.074c2.943-0.613,6.279-1.977,9.305-1.308
								c-0.137-0.03,0.352-0.769-0.513,0.126c-0.7,0.725-1.792,1.186-2.719,1.522c-1.263,0.458-2.569,0.501-3.894,0.462
								c-1.329-0.039-2.774-0.303-3.989-0.856c-1.063-0.484-1.015-0.219-0.153-1.156c1.853-2.015,7.98-0.89,10.323-0.477
								C297.736,252.619,299.435,246.549,295.439,245.844L295.439,245.844z"/>
						</g>
					</g>
					<g>
						<g>
							<path fill="#FFFF00" d="M296.584,253.253c-0.231-0.674-0.474-1.348-0.618-2.045c-0.348-1.683-2.302-2.633-3.875-2.2
								c-1.734,0.477-2.547,2.194-2.2,3.874c0.145,0.698,0.387,1.372,0.618,2.045c0.557,1.623,2.142,2.678,3.875,2.2
								C295.962,256.693,297.142,254.877,296.584,253.253L296.584,253.253z"/>
						</g>
					</g>
				</g>
				<g>
					<g>
						<path d="M286.517,252.15c1.935,0,1.935-3,0-3S284.582,252.15,286.517,252.15L286.517,252.15z"/>
					</g>
				</g>
				<g>
					<g>
						<path d="M280.953,256.398c1.935,0,1.935-3,0-3S279.019,256.398,280.953,256.398L280.953,256.398z"/>
					</g>
				</g>
				<g>
					<g>
						<path d="M286.021,258.505c1.935,0,1.935-3,0-3S284.087,258.505,286.021,258.505L286.021,258.505z"/>
					</g>
				</g>
				<g>
					<g>
						<path d="M292.261,257.201c1.935,0,1.935-3,0-3S290.326,257.201,292.261,257.201L292.261,257.201z"/>
					</g>
				</g>
				<g>
					<g>
						<path d="M292.383,250.083c1.935,0,1.935-3,0-3S290.448,250.083,292.383,250.083L292.383,250.083z"/>
					</g>
				</g>
				<g>
					<g>
						<path d="M296.928,255.21c1.935,0,1.935-3,0-3S294.993,255.21,296.928,255.21L296.928,255.21z"/>
					</g>
				</g>
			</g>
		</g>
	</g>
	<g>
		<polygon fill="#FFFFFF" stroke="#000000" stroke-width="1.5" stroke-miterlimit="10" points="419.024,198.899 378.831,197.037 
			398.403,230.071 		"/>
		<polygon fill="#FFFFFF" stroke="#000000" stroke-width="1.5" stroke-miterlimit="10" points="374.657,195.075 360.399,214.992 
			376.483,231.963 387.741,202.202 		"/>
		<path fill="#FFFFFF" stroke="#000000" stroke-width="1.5" stroke-miterlimit="10" d="M354.975,177.479
			c0,0-9.979-12.568-19.854-8.098c-9.876,4.471-2.744,10.484,0.343,12.952c0,0-14.866-1.813-15.585,10.446
			c0,0,2.036,12.98,15.598,7.815c0,0-7.778,5.846-3.759,14.366C335.735,223.483,396.757,200.025,354.975,177.479z"/>
		<path fill="#FFFFFF" stroke="#000000" stroke-width="1.5" stroke-miterlimit="10" d="M358.198,182.991
			c0,0-12.134-3.312-13.653,11.295c-1.519,14.609,15.617,9.197,21.903,8.01C372.737,201.108,368.002,186.019,358.198,182.991z"/>
		<path fill="none" stroke="#000000" stroke-width="1.5" stroke-miterlimit="10" d="M348.516,179.107"/>
		<path fill="#FFFFFF" stroke="#000000" stroke-width="1.5" stroke-miterlimit="10" d="M368.035,171.856
			c0,0-21.774-7.028-16.647-21.87c5.126-14.84,21.794-5.917,18.999-5.403c0,0,1.203-17.942,18.833-10.841
			c0,0,5.107,4.239,5.541,8.918c0,0,6.302-6.651,12.288-2.595c5.987,4.055,4.43,13.19,2.922,17.361
			C408.466,161.596,410.535,196.339,368.035,171.856z"/>
		<g>
			<g>
				<g>
					<path fill="#FFFF00" d="M396.676,153.189c-2.111-4.954-7.622-8.078-12.965-7.335c-5.496,0.765-9.838,5.722-9.089,11.367
						c0.731,5.512,5.698,9.035,11.064,8.939c4.627-0.083,9.913-3.45,10.368-8.383c0.833-9.027-17.561-10.15-17.546-1.212
						c0.004,2.941,2.473,5.583,5.211,6.303c4.225,1.111,6.862-2.865,7.866-6.349c0.469-1.628-0.816-3.081-2.411-3.165
						c-1.447-0.076-2.754,0.123-4.173,0.417c-2.091,0.434-2.478,3.605-0.597,4.569c3.997,2.048,10.529,3.619,12.917-1.526
						c1.348-2.905-2.962-5.446-4.318-2.523c-1.011,2.179-4.529,0.524-6.075-0.268c-0.199,1.523-0.398,3.046-0.597,4.569
						c1.016-0.211,1.812-0.293,2.843-0.239c-0.804-1.055-1.607-2.11-2.411-3.165c-0.525,1.827-2.365,4.457-3.256,1.318
						c-0.274-0.968,8.191-2.014,7.533,1.092c-1.177,5.544-10.806,4.241-11.511-1.071c-0.438-3.294,2.588-5.643,5.589-5.805
						c3.278-0.178,6.021,2.129,7.24,4.988C393.62,158.671,397.926,156.12,396.676,153.189L396.676,153.189z"/>
				</g>
			</g>
			<g>
				<g>
					<path d="M382.236,151.391c1.935,0,1.935-3,0-3S380.302,151.391,382.236,151.391L382.236,151.391z"/>
				</g>
			</g>
			<g>
				<g>
					<path d="M386.02,156.738c1.935,0,1.935-3,0-3S384.085,156.738,386.02,156.738L386.02,156.738z"/>
				</g>
			</g>
		</g>
		<path fill="#FFFFFF" stroke="#000000" stroke-width="1.5" stroke-miterlimit="10" d="M378.467,177.094
			c0,0-26.798-10.749-13.677-22.876c0,0,12.222-6.76,20.317,11.851c0,0-1.339-19.023,17.564-12.833c0,0,10.195,8.579-5.332,20.388
			C381.813,185.432,378.467,177.094,378.467,177.094z"/>
		<path fill="#FFFFFF" stroke="#000000" stroke-width="1.5" stroke-miterlimit="10" d="M448.248,169.2
			c-6.253-15.327-16.749-8.485-16.749-8.485c1.857-3.028,0.441-7.456-0.007-8.67c-0.142-0.197-0.277-0.396-0.41-0.598
			c-16.325-15.935-23.617,4.596-23.617,4.596c-34.554,43.865,3.631,33.937,12.623,36.288
			C429.076,194.682,454.5,184.529,448.248,169.2z"/>
		<g>
			<g>
				<g>
					<path fill="#FFFF00" d="M436.711,172.205c-1.93-3.973-4.724-8.086-9.185-9.391c-3.015-0.882-6.331,0.355-8.268,2.752
						c-2.057,2.545-2.697,5.902-1.793,9.044c1.154,4.009,4.813,6.457,8.558,7.741c3.926,1.346,9.212,0.137,9.949-4.542
						c0.651-4.137-2.085-8.986-5.614-11.088c-5.654-3.367-13.545,2.768-8.946,8.637c1.847,2.356,5.037,3.367,7.841,3.974
						c2.691,0.582,4.504-3.152,1.927-4.569c-1.316-0.724-2.418-1.737-3.694-2.521c0,1.439,0,2.878,0,4.317
						c1.157-0.643,2.22-1.229,3.153-2.19c0.749-0.771,1.017-2.092,0.391-3.029c-1.606-2.41-3.986-3.962-6.857-4.418
						c-3.153-0.501-4.507,4.317-1.33,4.821c1.555,0.247,2.962,0.758,3.871,2.12c0.13-1.01,0.26-2.02,0.391-3.029
						c-0.627,0.646-1.36,0.974-2.142,1.408c-1.68,0.932-1.562,3.357,0,4.317c1.275,0.785,2.377,1.797,3.694,2.521
						c0.642-1.523,1.284-3.046,1.927-4.569c-1.788-0.387-5.121-1.19-5.586-2.84c0.019,0.067,0.05-0.25,0.248-0.461
						c0.219-0.234,0.772-0.473,1.127-0.5c1.831-0.138,3.143,1.745,3.963,3.341c0.438,0.851,1.251,2.622,0.452,3.486
						c-0.746,0.807-2.594,0.232-3.434-0.007c-3.548-1.012-7.206-5.152-4.362-8.672c3.515-4.35,7.964,2.907,9.403,5.87
						C433.803,177.628,438.113,175.092,436.711,172.205L436.711,172.205z"/>
				</g>
			</g>
			<g>
				<g>
					<path d="M428.563,168.94c1.935,0,1.935-3,0-3S426.628,168.94,428.563,168.94L428.563,168.94z"/>
				</g>
			</g>
			<g>
				<g>
					<path d="M427.783,173.507c1.935,0,1.935-3,0-3S425.849,173.507,427.783,173.507L427.783,173.507z"/>
				</g>
			</g>
			<g>
				<g>
					<path d="M421.264,169.105c1.935,0,1.935-3,0-3S419.329,169.105,421.264,169.105L421.264,169.105z"/>
				</g>
			</g>
		</g>
		<path fill="#FFFFFF" stroke="#000000" stroke-width="1.5" stroke-miterlimit="10" d="M417.259,178.413
			c0,0,7.862-23.168-10.083-16.916c-17.944,6.253-13.288,28.122-8.89,30.627C402.687,194.631,422.998,190.507,417.259,178.413z"/>
		<path fill="#FFFFFF" stroke="#000000" stroke-width="1.5" stroke-miterlimit="10" d="M445.585,251.903
			c0,0,0.074,0.438,0.149,1.158c0.278,2.709,0.543,9.365-3.323,10.979c-4.887,2.039-9.941,1.547-18.229-5.599
			c0,0,5.052,26.261-18.961,20.581c0,0-7.168-4.699-5.324-12.932c0,0-17.289,12.595-23.234-3.898c0,0,2.009-15.347,7.643-17.606
			c0,0-7.626-61.853,38.989-47.743C469.909,210.956,449.438,246.688,445.585,251.903z"/>
		<g>
			<g>
				<g>
					<path fill="#FFFF00" d="M401.816,249.514c-1.901,7.304,1.409,14.78,8.918,16.97c2.741,0.799,5.888,0.462,8.143-1.356
						c2.708-2.184,2.862-5.797,2.174-8.942c-1.516-6.935-9.006-14.088-16.168-9.401c-2.577,1.687-3.911,4.76-3.34,7.786
						c0.836,4.434,4.926,7.36,8.667,9.308c0.96,0.5,2.26,0.47,3.029-0.391c2.24-2.505,4.132-5.251,3.66-8.736
						c-0.348-2.566-3.059-4.021-5.363-4.285c-5.916-0.677-8.774,5.116-5.55,9.779c0.84,1.213,2.827,1.833,3.927,0.506
						c2.725-3.285,3.112-7.486,0.622-11.06c-1.233-1.771-3.886-1.562-4.569,0.597c-1.172,3.707-0.512,7.145,2.462,9.756
						c2.412,2.118,5.963-1.404,3.535-3.535c-1.703-1.496-1.847-2.77-1.175-4.891c-1.523,0.198-3.047,0.397-4.569,0.597
						c1.116,1.603,1.506,3.376,0.159,5.001c1.309,0.169,2.617,0.337,3.927,0.506c-0.369-0.532-0.694-1.03-0.869-1.654
						c-0.064-0.233-0.006-0.207-0.019-0.192c0.318-0.371,0.97-0.492,1.834-0.441c0.544,0.031,0.737,0.271,0.827,0.646
						c0.239,1.006-1.687,3.103-2.374,3.872c1.01-0.131,2.02-0.261,3.029-0.391c-2.206-1.149-9.445-5.765-5.026-8.656
						c4.438-2.904,7.915,3.831,8.638,7.138c0.798,3.649-2.184,4.339-5.034,3.384c-4.491-1.504-5.752-6.435-4.672-10.582
						C407.451,247.72,402.629,246.396,401.816,249.514L401.816,249.514z"/>
				</g>
			</g>
			<g>
				<g>
					<path d="M410.438,257.659c1.935,0,1.935-3,0-3S408.504,257.659,410.438,257.659L410.438,257.659z"/>
				</g>
			</g>
			<g>
				<g>
					<path d="M408.912,263.482c1.935,0,1.935-3,0-3S406.978,263.482,408.912,263.482L408.912,263.482z"/>
				</g>
			</g>
			<g>
				<g>
					<path d="M415.588,260.563c1.935,0,1.935-3,0-3S413.653,260.563,415.588,260.563L415.588,260.563z"/>
				</g>
			</g>
		</g>
		<path fill="#FFFFFF" stroke="#000000" stroke-width="1.5" stroke-miterlimit="10" d="M450.02,235.123
			c0,0,12.431,13.873-4.256,16.27c0,0-19.783-13.008-23.182-28.597"/>
		<path fill="#FFFFFF" stroke="#000000" stroke-width="1.5" stroke-miterlimit="10" d="M415.985,229.538
			c0,0-20.032,4.156-24.989,14.707c-4.959,10.547,11.067,17.123,18.744,9.177c0,0,10.147,11.248,20.186,2.476
			C439.963,247.128,434.663,236.598,415.985,229.538z"/>
		<path fill="#FFFFFF" stroke="#000000" stroke-width="1.5" stroke-miterlimit="10" d="M423.357,205.946c0,0-9.092-4.303-14.42,1.8
			s2.046,8.656,4.463,9.599c0,0-13.802-8.902-23.686,6.564c-9.883,15.461,12.191,17.493,22.442,15.516
			C422.408,237.448,451.067,210.393,423.357,205.946z"/>
		<path fill="#FFFFFF" stroke="#000000" stroke-width="1.5" stroke-miterlimit="10" d="M393.175,162.992
			c0,0-21.946-6.642-17.104,14.574c0,0-20.243-19.365-27.556,1.542c0,0-2.428,10.155,11.984,8.947c0,0-11.256,10.457,0.884,19.172
			c0,0,9.714,3.721,13.62-6.46c0,0-2.986,12.599,11.642,16.116c14.63,3.514,13.061-13.079,9.001-15.384
			c0,0,11.969,6.552,14.419-4.009c0,0-0.204-14.678-11.429-15.747C398.637,181.742,408.325,167.68,393.175,162.992z"/>
		<path fill="#FFFFFF" stroke="#000000" stroke-width="1.5" stroke-miterlimit="10" d="M370.255,218.99
			c0,0,0.319-15.205-16.518-14.512c-16.837,0.694-6.887,15.449-6.033,16.85c0.855,1.399-17.896-4.586-20.572,11.478
			c0,0,3.304,9.978,17.875,7.023c0,0-6.066,8.409-2.596,18.433c0,0,10.353,7.412,18.245-2.575c0,0,4.073,8.12,11.134,9.086
			c7.062,0.965,24.287-13.643,4.192-24.19c0,0,22.257,2.292,19.156-14.981C392.041,208.323,379.042,214.137,370.255,218.99z"/>
		<path fill="#FFFFFF" stroke="#000000" stroke-width="1.5" stroke-miterlimit="10" d="M437.07,184.585
			c0,0-4.621-15.586,10.694-16.501c0,0,23.518,3.407,7.679,23.537c0,0,17.608-1.93,21.538,5.634
			c3.931,7.562-5.217,16.376-21.277,17.153c0,0,21.114,10.813,8.271,24.255c-12.848,13.443-26.286-5.318-24.989-10.27
			c0,0-15.164,19.374-31.242,1.476c0,0-3.066-20.099,21.448-19.907c0,0-27.46-4.723-20.187-26.132
			C416.276,162.424,437.622,187.612,437.07,184.585z"/>
		<g>
			<g>
				<g>
					<path fill="#FFFF00" d="M383.163,183.452c-2.748-0.707-6.22-1.429-8.975-0.316c-2.503,1.011-3.938,3.094-3.441,5.829
						c0.389,2.133,2.325,3.608,4.219,4.333c2.251,0.862,4.957,0.205,6.907-1.068c-0.942,0-1.884,0-2.826,0
						c1.964,1.375,4.463,2.39,6.904,2.171c2.072-0.186,4.233-1.086,5.269-3.01c1.166-2.169,0.392-4.537-1.598-5.869
						c-2.166-1.451-5.308-1.008-7.682-0.527c-1.209,0.245-2.056,1.52-2.056,2.7c0,1.279,0.86,2.325,2.056,2.7
						c2.554,0.801,6.09,1.597,8.238-0.553c1.731-1.732,1.305-4.457-0.001-6.291c-1.364-1.916-3.225-3.279-5.592-3.57
						c-2.746-0.338-4.749,2.047-5.327,4.477c-0.044,0.185-0.075,0.373-0.105,0.561c-0.242,1.505,0.366,3.007,1.956,3.444
						c1.349,0.371,3.201-0.447,3.444-1.956c0.07-0.436,0.167-0.862,0.315-1.279c0.121-0.337-0.366,0.728-0.015,0.088
						c0.357-0.651-0.432,0.46-0.065,0.052c0.431-0.478-0.434,0.287-0.202,0.126c0.227-0.158,0.74-0.312-0.271,0.08
						c0.112-0.043,0.231-0.069,0.351-0.09c-1.082,0.193-0.551,0.062-0.23,0.082c0.334,0.021-0.927-0.175-0.291-0.025
						c0.129,0.031,0.256,0.075,0.381,0.12c0.307,0.113-0.811-0.382-0.215-0.077c0.154,0.079,0.301,0.17,0.445,0.264
						c0.211,0.137,0.701,0.541-0.139-0.124c0.117,0.093,0.229,0.192,0.339,0.293c0.241,0.221,0.461,0.464,0.666,0.719
						c-0.718-0.893-0.073-0.066,0.081,0.211c0.126,0.227,0.354,0.788-0.077-0.239c0.058,0.137,0.103,0.278,0.141,0.421
						c0.161,0.598-0.062-0.662-0.031-0.339c0.011,0.106,0.007,0.212-0.002,0.318c0.087-1.066,0.119-0.677,0.019-0.393
						c0.314-0.891,0.311-0.681,0.178-0.457c-0.184,0.31,0.533-0.646,0.289-0.376c-0.329,0.364,0.694-0.464,0.259-0.197
						c-0.451,0.277,0.785-0.276,0.251-0.103c-0.249,0.081-0.882,0.149,0.21,0.008c-0.219,0.028-0.439,0.03-0.659,0.028
						c-0.217-0.002-0.433-0.022-0.648-0.044c-0.292-0.035-0.188-0.021,0.31,0.042c-0.158-0.023-0.314-0.053-0.471-0.083
						c-0.691-0.132-1.37-0.328-2.041-0.538c0,1.8,0,3.6,0,5.4c0.229-0.046,0.458-0.09,0.688-0.131
						c0.145-0.025,0.289-0.048,0.435-0.069c-0.397,0.052-0.44,0.06-0.13,0.024c0.476-0.053,0.955-0.069,1.434-0.06
						c0.203,0.004,0.405,0.021,0.607,0.041c-0.957-0.094-0.313-0.041-0.083,0.009c0.153,0.033,0.303,0.08,0.452,0.129
						c0.437,0.145-0.741-0.359-0.196-0.076c0.649,0.338-0.486-0.505-0.017-0.021c0.277,0.285-0.479-0.71-0.217-0.265
						c0.197,0.333-0.292-0.832-0.151-0.345c0.107,0.375-0.071-0.919-0.057-0.407c0.015,0.513,0.141-0.784,0.061-0.4
						c-0.051,0.242-0.274,0.664,0.163-0.327c-0.041,0.093-0.095,0.181-0.15,0.267c-0.216,0.34,0.507-0.623,0.241-0.31
						c-0.074,0.087-0.158,0.166-0.242,0.243c-0.305,0.278,0.694-0.493,0.204-0.161c-0.108,0.073-0.223,0.135-0.337,0.195
						c-0.551,0.291,0.616-0.235,0.193-0.078c-0.138,0.051-0.28,0.09-0.422,0.127c-0.15,0.04-0.304,0.066-0.457,0.09
						c1.007-0.162,0.375-0.056,0.127-0.045c-0.271,0.012-1.375-0.105-0.342,0.035c-0.406-0.055-0.805-0.16-1.195-0.282
						c-0.175-0.055-0.918-0.353-0.127-0.019c-0.225-0.095-0.442-0.205-0.66-0.316c-0.48-0.247-0.935-0.542-1.377-0.851
						c-0.772-0.541-2.05-0.507-2.826,0c-0.338,0.221-0.687,0.416-1.055,0.583c0.909-0.412,0.22-0.102-0.015-0.029
						c-0.182,0.057-0.367,0.099-0.554,0.136c-0.345,0.069,0.858-0.072,0.103-0.021c-0.171,0.012-0.342,0.008-0.513,0.001
						c-0.731-0.03,0.48,0.087,0.16,0.032c-0.155-0.027-0.308-0.067-0.458-0.11c-0.248-0.071-0.84-0.338,0.157,0.093
						c-0.135-0.058-0.265-0.127-0.392-0.2c-0.124-0.07-0.241-0.15-0.356-0.233c0.852,0.611,0.382,0.303,0.188,0.121
						c-0.097-0.091-0.186-0.189-0.271-0.291c-0.219-0.257,0.508,0.729,0.17,0.194c-0.065-0.104-0.12-0.214-0.173-0.325
						c0.45,0.965,0.215,0.536,0.141,0.268c-0.164-0.592,0.061,0.668,0.032,0.339c-0.009-0.112-0.004-0.224,0.005-0.335
						c-0.089,1.074-0.105,0.64-0.018,0.352c0.093-0.303-0.412,0.82-0.111,0.295c0.26-0.456-0.536,0.618-0.175,0.219
						c0.175-0.193,0.645-0.505-0.206,0.124c0.118-0.087,0.248-0.16,0.378-0.229c0.542-0.289-0.729,0.265-0.118,0.052
						c0.177-0.062,0.359-0.106,0.543-0.148c0.079-0.018,0.159-0.033,0.239-0.048c0.51-0.096-0.764,0.088-0.228,0.028
						c0.506-0.058,1.018-0.056,1.526-0.038c0.298,0.011,0.596,0.038,0.894,0.067c0.127,0.013,0.255,0.028,0.382,0.044
						c-0.803-0.098-0.086-0.004,0.064,0.021c0.771,0.126,1.532,0.304,2.288,0.499c1.477,0.38,3.034-0.467,3.444-1.956
						C385.519,185.444,384.641,183.833,383.163,183.452L383.163,183.452z"/>
				</g>
			</g>
			<g>
				<g>
					<path d="M385.747,184.969c1.935,0,1.935-3,0-3S383.813,184.969,385.747,184.969L385.747,184.969z"/>
				</g>
			</g>
			<g>
				<g>
					<path d="M377.603,186.781c1.935,0,1.935-3,0-3S375.668,186.781,377.603,186.781L377.603,186.781z"/>
				</g>
			</g>
			<g>
				<g>
					<path d="M374.106,190.638c1.935,0,1.935-3,0-3S372.172,190.638,374.106,190.638L374.106,190.638z"/>
				</g>
			</g>
			<g>
				<g>
					<path d="M382.296,193.403c1.935,0,1.935-3,0-3S380.361,193.403,382.296,193.403L382.296,193.403z"/>
				</g>
			</g>
			<g>
				<g>
					<path d="M390.44,191.592c1.935,0,1.935-3,0-3S388.506,191.592,390.44,191.592L390.44,191.592z"/>
				</g>
			</g>
		</g>
		<g>
			<g>
				<g>
					<path fill="#FFFF00" d="M372.584,225.867c-1.354-1.388-2.509-2.004-4.434-2.207c-1.589-0.167-3.096,1.838-4.482,1.572
						c-2.019-0.387-3.592-1.647-5.749-1.885c-1.689-0.186-3.957,0.343-5.421,1.191c-6.6,3.83-5.861,15.448,1.942,17.668
						c6.285,1.787,13.389-2.098,17.392-6.796c1.56-1.83,3.153-4.399,2.27-6.886c-1.267-3.565-5.348-3.179-8.34-2.585
						c-2.066,0.409-2.791,2.947-1.882,4.627c2.825,5.222,9.41,4.076,9.33-2.135c-1.793,0.742-3.585,1.485-5.378,2.228
						c0.704,0.634,0.762,0.791,1.183,1.668c1.186-1.542,2.371-3.085,3.558-4.627c-5.842-2.354-12.005,0.787-17.924,1.018
						c-2.283,0.09-4.062,2.643-2.72,4.74c2.317,3.624,5.715,5.024,9.642,2.94c3.59-1.904,0.406-7.343-3.18-5.439
						c-0.341-0.227-0.682-0.454-1.022-0.681c-0.906,1.58-1.813,3.16-2.72,4.74c5.188-0.203,11.241-3.261,16.248-1.244
						c2.833,1.142,4.606-2.442,3.558-4.627c-0.563-1.176-1.197-2.07-2.167-2.943c-1.978-1.779-5.415-0.642-5.378,2.228
						c0.804-0.349,1.607-0.696,2.41-1.045c-0.627,1.542-1.255,3.085-1.882,4.627c0.632-0.18,1.275-0.257,1.93-0.232
						c-2.86,0.067-0.449-3.384-1.676-1.295c-0.723,1.229-1.924,2.226-2.994,3.139c-1.837,1.565-6.205,3.573-8.563,2.485
						c-1.544-0.713-2.396-3.515-1.732-5.013c1.032-2.332,4.274-1.281,5.866-0.495c1.402,0.693,2.852,1.089,4.411,0.913
						c0.829-0.093,1.616-0.313,2.358-0.711c0.236-0.127,0.474-0.255,0.711-0.382c0.752-0.521,0.88-0.554,0.381-0.102
						C370.971,233.233,375.422,228.775,372.584,225.867L372.584,225.867z"/>
				</g>
			</g>
			<g>
				<g>
					<path d="M360.77,229.783c1.935,0,1.935-3,0-3S358.835,229.783,360.77,229.783L360.77,229.783z"/>
				</g>
			</g>
			<g>
				<g>
					<path d="M356.244,234.41c1.935,0,1.935-3,0-3S354.31,234.41,356.244,234.41L356.244,234.41z"/>
				</g>
			</g>
			<g>
				<g>
					<path d="M357.116,238.993c1.935,0,1.935-3,0-3S355.182,238.993,357.116,238.993L357.116,238.993z"/>
				</g>
			</g>
			<g>
				<g>
					<path d="M363.575,235.702c1.935,0,1.935-3,0-3S361.641,235.702,363.575,235.702L363.575,235.702z"/>
				</g>
			</g>
			<g>
				<g>
					<path d="M366.456,230.233c1.935,0,1.935-3,0-3S364.521,230.233,366.456,230.233L366.456,230.233z"/>
				</g>
			</g>
		</g>
		<g>
			<g>
				<g>
					<g>
						<path fill="#FFFF00" d="M450.714,203.708c-3.405-6.441-9.072-14.73-17.382-13.053c-8.131,1.641-4.349,11.947-1.308,16.253
							c3.545,5.021,12.581,11.063,18.148,5.577c6.434-6.34-4.917-14.22-8.982-17.688c-2.276-1.942-6.217-0.156-5.265,3.065
							c0.628,2.127,0.926,4.303,1.753,6.372c1.291-1.292,2.583-2.583,3.874-3.875c-0.761-0.054-1.385-0.38-1.873-0.978
							c-3.068-2.626-7.546,1.809-4.455,4.455c1.425,1.22,2.771,2.261,4.654,2.598c2.081,0.373,4.855-1.422,3.874-3.875
							c-0.826-2.068-1.124-4.244-1.753-6.372c-1.755,1.021-3.51,2.043-5.265,3.065c2.83,2.414,7.466,4.939,8.753,8.616
							c0.39,1.111-3.477-0.422-3.879-0.62c-1.629-0.8-3.058-2.073-4.146-3.52c-1.206-1.604-2.148-3.396-2.678-5.332
							c-0.417-1.525-0.151-1.728,1.371-1.756c2.043-0.038,4.136,2.892,5.273,4.258c1.507,1.811,2.745,3.91,3.844,5.988
							C447.174,210.48,452.611,207.297,450.714,203.708L450.714,203.708z"/>
					</g>
				</g>
				<g>
					<g>
						<path fill="#FFFF00" d="M444.987,209.75c0.391-0.597,0.779-1.197,1.21-1.766c-0.164,0.212-0.328,0.425-0.492,0.638
							c0.09-0.114,0.181-0.226,0.274-0.336c1.113-1.305,1.285-3.17,0-4.455c-1.143-1.142-3.339-1.307-4.455,0
							c-0.733,0.859-1.359,1.796-1.977,2.739c-0.941,1.438-0.295,3.475,1.13,4.31C442.216,211.78,444.049,211.184,444.987,209.75
							L444.987,209.75z"/>
					</g>
				</g>
			</g>
			<g>
				<g>
					<path d="M440.329,200.437c1.935,0,1.935-3,0-3S438.395,200.437,440.329,200.437L440.329,200.437z"/>
				</g>
			</g>
			<g>
				<g>
					<path d="M432.179,198.307c1.935,0,1.935-3,0-3S430.244,198.307,432.179,198.307L432.179,198.307z"/>
				</g>
			</g>
			<g>
				<g>
					<path d="M433.935,204.678c1.935,0,1.935-3,0-3S432,204.678,433.935,204.678L433.935,204.678z"/>
				</g>
			</g>
			<g>
				<g>
					<path d="M439.788,209.634c1.935,0,1.935-3,0-3S437.854,209.634,439.788,209.634L439.788,209.634z"/>
				</g>
			</g>
			<g>
				<g>
					<path d="M446.632,204.472c1.935,0,1.935-3,0-3S444.697,204.472,446.632,204.472L446.632,204.472z"/>
				</g>
			</g>
			<g>
				<g>
					<path d="M445.132,212.584c1.935,0,1.935-3,0-3S443.197,212.584,445.132,212.584L445.132,212.584z"/>
				</g>
			</g>
		</g>
	</g>
</g>
</svg>
