<?xml version="1.0" encoding="UTF-8" standalone="no"?>
<!-- Created with Inkscape (http://www.inkscape.org/) -->
<svg
   xmlns:svg="http://www.w3.org/2000/svg"
   xmlns="http://www.w3.org/2000/svg"
   xmlns:xlink="http://www.w3.org/1999/xlink"
   version="1.0"
   width="800"
   height="533.33002"
   id="svg3337">
  <defs
     id="defs3339">
    <rect
       width="1235"
       height="50"
       x="0"
       y="0"
       style="fill:#bf0a30"
       id="stripe" />
    <g
       id="union">
      <use
         id="use3565"
         x="0"
         y="-0.21600001"
         width="800"
         height="533.33002"
         xlink:href="#rowx4" />
      <use
         id="use3567"
         x="0"
         y="0"
         width="800"
         height="533.33002"
         xlink:href="#rowx4" />
      <use
         id="use3569"
         x="0"
         y="0.21600001"
         width="800"
         height="533.33002"
         xlink:href="#row6" />
    </g>
    <g
       id="rowx4">
      <use
         id="use3556"
         x="0"
         y="0"
         width="800"
         height="533.33002"
         xlink:href="#row6" />
      <use
         id="use3558"
         x="0"
         y="0.054000001"
         width="800"
         height="533.33002"
         xlink:href="#row5" />
      <use
         id="use3560"
         x="0"
         y="0.108"
         width="800"
         height="533.33002"
         xlink:href="#row6" />
      <use
         id="use3562"
         x="0"
         y="0.162"
         width="800"
         height="533.33002"
         xlink:href="#row5" />
    </g>
    <g
       id="row6">
      <use
         id="use3551"
         x="-0.063000001"
         y="0"
         width="800"
         height="533.33002"
         xlink:href="#row5" />
      <use
         id="use3553"
         x="0.315"
         y="0"
         width="800"
         height="533.33002"
         xlink:href="#star" />
    </g>
    <g
       id="row5">
      <use
         id="use3540"
         x="-0.252"
         y="0"
         width="800"
         height="533.33002"
         xlink:href="#star" />
      <use
         id="use3542"
         x="-0.126"
         y="0"
         width="800"
         height="533.33002"
         xlink:href="#star" />
      <use
         id="use3544"
         x="0"
         y="0"
         width="800"
         height="533.33002"
         xlink:href="#star" />
      <use
         id="use3546"
         x="0.126"
         y="0"
         width="800"
         height="533.33002"
         xlink:href="#star" />
      <use
         id="use3548"
         x="0.252"
         y="0"
         width="800"
         height="533.33002"
         xlink:href="#star" />
    </g>
    <g
       id="star">
      <use
         transform="matrix(-0.309017,-0.9510565,0.9510565,-0.309017,0,0)"
         id="use3529"
         x="0"
         y="0"
         width="800"
         height="533.33002"
         xlink:href="#point" />
      <use
         transform="matrix(0.809017,-0.5877853,0.5877853,0.809017,0,0)"
         id="use3531"
         x="0"
         y="0"
         width="800"
         height="533.33002"
         xlink:href="#point" />
      <use
         transform="matrix(0.809017,0.5877853,-0.5877853,0.809017,0,0)"
         id="use3533"
         x="0"
         y="0"
         width="800"
         height="533.33002"
         xlink:href="#point" />
      <use
         transform="matrix(-0.309017,0.9510565,-0.9510565,-0.309017,0,0)"
         id="use3535"
         x="0"
         y="0"
         width="800"
         height="533.33002"
         xlink:href="#point" />
      <use
         transform="scale(-1,-1)"
         id="use3537"
         x="0"
         y="0"
         width="800"
         height="533.33002"
         xlink:href="#point" />
    </g>
    <polygon
       points="-0.16245985,0 0,0.5 0.16245985,0 -0.16245985,0 "
       transform="scale(6.16e-2,6.16e-2)"
       style="fill:#ffffff"
       id="point" />
  </defs>
  <g
     transform="translate(-2.5000043,41.000256)"
     id="layer1">
    <rect
       width="848.57141"
       height="585.71429"
       ry="3.9285715"
       x="-22.857143"
       y="-20.955698"
       transform="translate(2.5000043,-41.000256)"
       style="opacity:1;fill:#bf0a30;fill-opacity:1;fill-rule:evenodd;stroke:none;stroke-width:10.30000019;stroke-linecap:butt;stroke-linejoin:miter;stroke-miterlimit:4;stroke-dasharray:none;stroke-dashoffset:0;stroke-opacity:1"
       id="rect3411" />
    <path
       d="M 398.57145,74.856964 L 443.74118,209.73065 L 585.97189,211.01137 L 471.65762,295.6486 L 514.39129,431.31381 L 398.57144,348.74881 L 282.75159,431.3138 L 325.48527,295.64859 L 211.17099,211.01136 L 353.4017,209.73064 L 398.57145,74.856964 z "
       transform="matrix(0.9218778,0,0,0.9217856,35.065854,-17.633889)"
       style="opacity:1;fill:#ffffff;fill-opacity:1;fill-rule:evenodd;stroke:#002868;stroke-width:11.1734066;stroke-linecap:butt;stroke-linejoin:miter;stroke-miterlimit:4;stroke-dasharray:none;stroke-dashoffset:0;stroke-opacity:1"
       id="path3405" />
    <path
       d="M 411.17845,257.18213 L 411.17845,237.15554 L 374.89095,237.15554 L 374.89095,227.74133 L 413.0613,173.5383 L 421.4485,173.5383 L 421.4485,227.74133 L 432.74555,227.74133 L 432.74555,237.15554 L 421.4485,237.15554 L 421.4485,257.18213 L 411.17845,257.18213 M 411.17845,227.74133 L 411.17845,190.02743 L 384.98983,227.74133 L 411.17845,227.74133 M 496.59101,194.02134 L 486.37802,194.82012 C 485.46508,190.78824 484.17182,187.85938 482.49823,186.03352 C 479.72147,183.10473 476.29812,181.6403 472.22818,181.64022 C 468.95695,181.6403 466.08514,182.55319 463.61275,184.3789 C 460.37957,186.73728 457.83107,190.17964 455.96727,194.70601 C 454.10343,199.23249 453.13348,205.67979 453.05742,214.04793 C 455.52983,210.28229 458.55378,207.48656 462.1293,205.66072 C 465.70477,203.83499 469.45143,202.9221 473.3693,202.92204 C 480.21595,202.9221 486.03564,205.45157 490.82838,210.51047 C 495.65905,215.53142 498.07441,222.03578 498.07447,230.02356 C 498.07441,235.27272 496.93329,240.16049 494.65112,244.6869 C 492.40687,249.1753 489.30684,252.61767 485.35102,255.01401 C 481.3951,257.41035 476.90672,258.60852 471.88584,258.60852 C 463.32745,258.60852 456.34762,255.47046 450.94636,249.19431 C 445.54507,242.88015 442.84443,232.496 442.84443,218.04184 C 442.84443,201.87608 445.83035,190.12259 451.8022,182.78134 C 457.01328,176.39117 464.03113,173.19605 472.85579,173.19596 C 479.43619,173.19605 484.81845,175.04085 489.00259,178.73038 C 493.22467,182.42006 495.75414,187.51704 496.59101,194.02134 M 454.65499,230.08061 C 454.65497,233.6181 455.3967,237.00341 456.88016,240.23655 C 458.40163,243.46973 460.5127,245.94214 463.21336,247.65381 C 465.91397,249.32745 468.74774,250.16427 471.71468,250.16426 C 476.05088,250.16427 479.77852,248.41456 482.89762,244.91513 C 486.01662,241.41572 487.57615,236.66107 487.57619,230.65117 C 487.57615,224.86955 486.03564,220.32411 482.95467,217.01483 C 479.87362,213.6676 475.99383,211.99396 471.31529,211.99392 C 466.67472,211.99396 462.73787,213.6676 459.50473,217.01483 C 456.27155,220.32411 454.65497,224.67936 454.65499,230.08061"
       transform="scale(0.9178057,1.0895552)"
       style="font-size:116.85031891px;font-style:normal;font-weight:normal;fill:#002868;fill-opacity:1;stroke:none;stroke-width:1px;stroke-linecap:butt;stroke-linejoin:miter;stroke-opacity:1;font-family:Arial"
       id="text3407" />
  </g>
</svg>
