<?xml version="1.0" encoding="UTF-8" standalone="no"?>
<!-- Created with Inkscape (http://www.inkscape.org/) -->

<svg
   xmlns:svg="http://www.w3.org/2000/svg"
   xmlns="http://www.w3.org/2000/svg"
   version="1.1"
   width="2108.1951"
   height="1448.5696"
   id="svg2">
  <defs
     id="defs4" />
  <g
     transform="translate(908.38322,-138.0774)"
     id="layer1">
    <rect
       width="2108.1951"
       height="1448.5696"
       x="-908.38324"
       y="138.07739"
       id="bg"
       style="fill:#cb0101" />
    <rect
       width="702.73169"
       height="1448.5696"
       x="-908.38324"
       y="138.07739"
       id="left"
       style="fill:#1c1479" />
    <rect
       width="1405.4634"
       height="482.85651"
       x="-205.65155"
       y="620.9339"
       id="centre"
       style="fill:#ffffff" />
    <path
       d="m -568.62307,687.58896 c 0.0732,-0.0322 0.1125,-0.0483 0.11543,-0.0453 0.0293,0 4.42106,1.80239 4.4585,9.69511 3.8874,-0.83562 5.45654,1.51943 4.70716,7.06358 0,0 -4.61532,-1.43127 -5.36866,1.58724 -1.13152,3.48981 -0.26777,6.33259 2.5886,8.52907 0,0 4.79924,4.36254 7.81955,-3.90647 3.02002,-8.26872 4.10707,-11.08114 4.10707,-11.08114 0.84002,-3.0463 5.84064,-10.18545 10.38167,-11.18615 1.72994,-0.79525 3.38583,-0.63826 5.23319,-0.13242 0,0 3.9736,0.98648 4.08624,4.79474 0.1125,3.80794 -1.24249,5.46563 -3.48327,6.57065 -2.47708,1.22161 -5.53597,-1.40057 -5.53597,-1.40057 -1.06645,-0.22935 -1.40696,0.19385 -2.06198,0.71579 -0.3016,0.23919 -1.55901,1.82306 -2.28783,3.60511 0,0 -2.20559,5.3474 -3.25743,9.43154 -0.82851,3.2162 -2.65502,12.94329 -11.24144,14.40331 l -20.26376,0 c -8.58643,-1.46002 -10.41267,-11.18711 -11.24148,-14.40331 -1.05236,-4.08414 -3.2574,-9.43154 -3.2574,-9.43154 -0.72852,-1.78205 -1.98622,-3.36545 -2.28782,-3.60511 -0.65473,-0.52069 -0.9955,-0.94415 -2.06199,-0.71579 0,0 -3.05915,2.62218 -5.53623,1.40057 -2.24078,-1.10502 -3.5965,-2.76205 -3.48327,-6.57065 0.11249,-3.80826 4.08647,-4.79474 4.08647,-4.79474 1.84742,-0.50584 3.50328,-0.66345 5.23352,0.13242 4.54073,1.0007 9.54135,8.13985 10.38082,11.18615 0,0 1.08731,2.81242 4.10736,11.08114 3.01946,8.26901 7.81925,3.90647 7.81925,3.90647 2.85725,-2.19648 3.71984,-5.03959 2.58861,-8.52907 -0.75276,-3.01884 -5.36869,-1.58724 -5.36869,-1.58724 -0.7488,-5.54415 0.82005,-7.89855 4.70745,-7.06358 0.0366,-7.89272 4.43035,-9.7077 4.45906,-9.69511 0.003,-9.9e-4 0.0422,0 0.11543,0.0453 l -0.25898,0 z"
       id="path106"
       style="fill:#fab700;stroke:#002577;stroke-width:0pt;stroke-linejoin:round;stroke-miterlimit:3.86369991" />
    <polygon
       points="1388.75,2712.42 1388.75,2712.42 1401.9,2277.75 1487.53,2277.75 1500.16,2712.42 "
       transform="matrix(0.44030627,0,0,0.50502856,-1203.9347,-416.73139)"
       id="polygon108"
       style="fill:#fab700;fill-rule:evenodd;stroke:#002577;stroke-width:8.48910046;stroke-miterlimit:3.86369991" />
    <polygon
       points="1381.38,2954.14 1381.38,2954.14 1381.37,2756.75 1499.68,2756.71 1499.68,2954.14 "
       transform="matrix(0.44030627,0,0,0.50502856,-1203.9347,-416.73139)"
       id="polygon110"
       style="fill:#fab700;fill-rule:evenodd;stroke:#002577;stroke-width:8.48910046;stroke-miterlimit:3.86369991" />
    <path
       d="m -596.5594,964.135 52.80393,0 c 3.67844,0 6.65987,2.57115 6.65987,5.7431 0,3.17195 -2.98199,5.7431 -6.65987,5.7431 l -52.80393,0 c -3.67844,0 -6.65987,-2.57115 -6.65987,-5.7431 0,-3.17195 2.98143,-5.7431 6.65987,-5.7431 l 0,0 z"
       id="path114"
       style="fill:#fab700;stroke:#002577;stroke-width:4.00310564;stroke-miterlimit:3.86369991" />
    <path
       d="m -592.6444,953.35976 46.09475,0 c 3.27515,0 5.93023,2.41189 5.93023,5.38745 l 0,0 c 0,2.97556 -2.65508,5.38779 -5.93023,5.38779 l -46.09475,0 c -3.27489,0 -5.92996,-2.41223 -5.92996,-5.38779 l 0,0 c 0,-2.97556 2.65507,-5.38745 5.92996,-5.38745 z"
       id="path118"
       style="fill:#fab700;fill-rule:evenodd;stroke:#002577;stroke-width:4.00310564;stroke-miterlimit:3.86369991" />
    <rect
       width="27.829115"
       height="65.723404"
       x="-583.95129"
       y="994.17603"
       id="rect120"
       style="fill:none;stroke:#002577;stroke-width:4.00310564;stroke-miterlimit:3.86369991" />
    <path
       d="m -584.53113,725.9366 31.96793,0 c 2.62716,0 4.757,1.77525 4.757,3.96558 0,2.18968 -2.12984,3.96493 -4.757,3.96493 l -31.96793,0 c -2.62745,0 -4.75729,-1.77525 -4.75729,-3.96493 5.6e-4,-2.18967 2.1304,-3.96558 4.75729,-3.96558 l 0,0 z"
       id="path124"
       style="fill:#fab700;stroke:#002577;stroke-width:2.31058836;stroke-miterlimit:3.86369991" />
    <rect
       width="530.89441"
       height="20.532948"
       x="-830.68005"
       y="1087.1205"
       id="rect128"
       style="fill:#fab700;fill-rule:evenodd;stroke:#002577;stroke-width:4.71558285;stroke-miterlimit:3.86369991" />
    <rect
       width="576.56122"
       height="21.740974"
       x="-853.33014"
       y="1107.4796"
       id="rect132"
       style="fill:#fab700;stroke:#002577;stroke-width:2.82939696;stroke-miterlimit:3.86369991" />
    <rect
       width="495.69104"
       height="12.579251"
       x="-814.98157"
       y="641.26367"
       id="rect136"
       style="fill:#fab700;fill-rule:evenodd;stroke:#002577;stroke-width:4.50357008;stroke-miterlimit:3.86369991" />
    <path
       d="m -412.65987,640.87833 c -25.68178,-70.56811 -85.28552,-119.87571 -154.71479,-119.87571 -69.38734,0 -128.95958,49.37608 -154.66723,119.87571 l -61.61478,0 c 28.49844,-108.46544 114.64739,-187.98281 216.28228,-187.98281 101.70415,0 187.9035,79.36879 216.37293,187.94792 l -61.65841,0.0355 z"
       id="path138"
       style="fill:#fab700;fill-rule:evenodd;stroke:#002577;stroke-width:2.31058836;stroke-linejoin:round;stroke-miterlimit:3.86369991" />
    <path
       d="m -801.66163,654.00087 c 0,0 8.56781,5.87844 15.70362,23.38135 l 440.97857,-0.0322 c 0,0 7.25211,-19.57013 17.24181,-23.39877 l -473.924,0.0388 z"
       id="path140"
       style="fill:#fab700;fill-rule:evenodd;stroke:#002577;stroke-width:2.82939696;stroke-miterlimit:3.86369991" />
    <path
       d="m -692.25788,681.92856 c 0,0 40.85169,80.41661 123.92232,79.30902 82.05991,-1.09372 123.92288,-76.57444 123.92288,-76.57444 l 21.8828,37.19353 c 0,0 8.08707,12.5796 -7.61114,28.44155 -55.45956,56.03659 -99.39073,67.04958 -138.19398,66.72883 -57.30806,-3.59736 -103.53238,-25.84105 -138.66957,-66.72883 -6.32026,-6.02765 -7.61173,-13.94749 -5.70859,-20.51136 l 20.45528,-47.8583 z"
       id="path144"
       style="fill:#fab700;fill-rule:evenodd;stroke:#002577;stroke-width:2.31058836;stroke-linejoin:round;stroke-miterlimit:3.86369991" />
    <path
       d="m -713.54589,738.12858 c 0,0 -2.49735,-16.27158 19.86107,-3.14418 l 1.66462,-52.78257"
       id="path146"
       style="fill:none;stroke:#002577;stroke-width:3.00236416;stroke-miterlimit:3.86369991" />
    <path
       d="m -420.98383,727.05293 c -7.13549,-17.63921 -20.21814,3.96493 -20.21814,3.96493 l -3.29376,-46.08079"
       id="path148"
       style="fill:none;stroke:#002577;stroke-width:3.00236416;stroke-miterlimit:3.86369991" />
    <path
       d="m -788.34328,678.33022 443.36384,0 c 1.5762,0 2.85385,1.52849 2.85385,3.41454 l 0,1.13732 c 0,1.88572 -1.27765,3.41453 -2.85385,3.41453 l -443.36384,0 c -1.57619,0 -2.85415,-1.52881 -2.85415,-3.41453 l 0,-1.13732 c -2.8e-4,-1.88605 1.27796,-3.41454 2.85415,-3.41454 l 0,0 z"
       id="path152"
       style="fill:#fab700;stroke:#002577;stroke-width:2.35779142;stroke-miterlimit:3.86369991" />
    <path
       d="m -749.15395,686.95747 c 0.0732,-0.0322 0.11265,-0.0483 0.11546,-0.0453 0.0281,0 4.42105,1.80272 4.4585,9.69512 3.8874,-0.8353 5.45655,1.51975 4.70774,7.06387 0,0 -4.61537,-1.43124 -5.36868,1.58727 -1.13153,3.48981 -0.26753,6.3326 2.58859,8.52908 0,0 4.79926,4.36224 7.81928,-3.90648 3.02002,-8.26871 4.10733,-11.08147 4.10733,-11.08147 0.83949,-3.0463 5.8401,-10.18544 10.3814,-11.18582 1.72995,-0.79524 3.38612,-0.63825 5.23351,-0.13241 0,0 3.97328,0.98644 4.08593,4.79474 0.11264,3.80826 -1.24276,5.46529 -3.483,6.57032 -2.47735,1.22163 -5.53624,-1.40025 -5.53624,-1.40025 -1.06619,-0.22935 -1.40694,0.19385 -2.06169,0.71547 -0.30161,0.23918 -1.5593,1.82305 -2.28783,3.60543 0,0 -2.2056,5.3474 -3.25742,9.43154 -0.82879,3.21588 -2.65506,12.94329 -11.24145,14.40328 l -20.26378,0 c -8.58639,-1.45999 -10.41294,-11.1874 -11.24145,-14.40328 -1.0521,-4.08414 -3.25742,-9.43154 -3.25742,-9.43154 -0.72882,-1.78238 -1.98622,-3.36544 -2.28783,-3.60543 -0.65475,-0.52069 -0.9955,-0.94383 -2.06197,-0.71547 0,0 -3.05917,2.62188 -5.53596,1.40025 -2.2408,-1.10503 -3.59649,-2.76206 -3.48384,-6.57032 0.11264,-3.80797 4.0865,-4.79474 4.0865,-4.79474 1.84766,-0.50617 3.50355,-0.66349 5.2335,0.13241 4.54102,1.00038 9.54135,8.13952 10.38112,11.18582 0,0 1.08703,2.81276 4.10733,11.08147 3.02002,8.26872 7.81928,3.90648 7.81928,3.90648 2.85725,-2.19648 3.71955,-5.03993 2.58859,-8.52908 -0.75332,-3.01916 -5.36868,-1.58727 -5.36868,-1.58727 -0.74909,-5.54412 0.82034,-7.89851 4.70717,-7.06387 0.0394,-7.8924 4.43034,-9.7077 4.45907,-9.69512 0,-9.5e-4 0.0422,0 0.11545,0.0453 l -0.25909,0 z"
       id="path162"
       style="fill:#fab700;stroke:#002577;stroke-width:0pt;stroke-linejoin:round;stroke-miterlimit:3.86369991" />
    <polygon
       points="977.464,2712.42 977.464,2712.42 992.28,2277.75 1074.57,2277.75 1088.87,2712.42 "
       transform="matrix(0.44030627,0,0,0.50502856,-1203.9347,-416.73139)"
       id="polygon164"
       style="fill:#fab700;fill-rule:evenodd;stroke:#002577;stroke-width:8.48910046;stroke-miterlimit:3.86369991" />
    <polygon
       points="974.016,2954.14 974.016,2954.14 974.015,2756.75 1092.32,2756.71 1092.32,2954.14 "
       transform="matrix(0.44030627,0,0,0.50502856,-1203.9347,-416.73139)"
       id="polygon166"
       style="fill:#fab700;fill-rule:evenodd;stroke:#002577;stroke-width:8.48910046;stroke-miterlimit:3.86369991" />
    <path
       d="m -775.42651,964.135 52.80422,0 c 3.67843,0 6.65959,2.57115 6.65959,5.7431 l 0,0 c 0,3.17195 -2.98172,5.7431 -6.65959,5.7431 l -52.80422,0 c -3.67787,0 -6.6596,-2.57115 -6.6596,-5.7431 l 0,0 c -5.6e-4,-3.17195 2.98144,-5.7431 6.6596,-5.7431 z"
       id="path168"
       style="fill:#fab700;fill-rule:evenodd;stroke:#002577;stroke-width:4.00310564;stroke-miterlimit:3.86369991" />
    <path
       d="m -772.07165,953.35976 46.09478,0 c 3.27488,0 5.92993,2.41189 5.92993,5.38745 l 0,0 c 0,2.97556 -2.65505,5.38779 -5.92993,5.38779 l -46.09478,0 c -3.27517,0 -5.93022,-2.41223 -5.93022,-5.38779 l 0,0 c 0,-2.97556 2.65505,-5.38745 5.93022,-5.38745 z"
       id="path170"
       style="fill:#fab700;fill-rule:evenodd;stroke:#002577;stroke-width:4.00310564;stroke-miterlimit:3.86369991" />
    <rect
       width="27.829115"
       height="65.723404"
       x="-762.93878"
       y="994.17603"
       id="rect172"
       style="fill:none;stroke:#002577;stroke-width:4.00310564;stroke-miterlimit:3.86369991" />
    <path
       d="m -765.0085,726.77771 31.9682,0 c 2.62717,0 4.75701,1.77493 4.75701,3.96526 0,2.19001 -2.12984,3.96559 -4.75701,3.96559 l -31.9682,0 c -2.62717,0 -4.75702,-1.77525 -4.75702,-3.96559 0,-2.18968 2.12985,-3.96526 4.75702,-3.96526 l 0,0 z"
       id="path176"
       style="fill:#fab700;stroke:#002577;stroke-width:2.31058836;stroke-miterlimit:3.86369991" />
    <rect
       width="74.210976"
       height="11.486368"
       x="-786.12994"
       y="1075.4453"
       id="rect180"
       style="fill:#fab700;fill-rule:evenodd;stroke:#002577;stroke-width:1.92551398;stroke-miterlimit:3.86369991" />
    <path
       d="m -385.40929,687.58896 c 0.0732,-0.0322 0.11249,-0.0483 0.11542,-0.0453 0.0293,0 4.42162,1.80239 4.45906,9.69511 3.88741,-0.83562 5.45655,1.51943 4.70716,7.06358 0,0 -4.61535,-1.43127 -5.36866,1.58724 -1.13152,3.48981 -0.26776,6.33259 2.58861,8.52907 0,0 4.79921,4.36254 7.81954,-3.90647 3.02002,-8.26872 4.10704,-11.08114 4.10704,-11.08114 0.84006,-3.0463 5.84009,-10.18545 10.3817,-11.18615 1.72992,-0.79525 3.38581,-0.63826 5.2332,-0.13242 0,0 3.97356,0.98648 4.08624,4.79474 0.11249,3.80794 -1.2425,5.46563 -3.48386,6.57065 -2.47649,1.22161 -5.53594,-1.40057 -5.53594,-1.40057 -1.06649,-0.22935 -1.4067,0.19385 -2.06199,0.71579 -0.30163,0.23919 -1.55903,1.82306 -2.28782,3.60511 0,0 -2.20533,5.3474 -3.25717,9.43154 -0.82878,3.2162 -2.65502,12.94329 -11.24171,14.40331 l -20.26378,0 c -8.5864,-1.46002 -10.41264,-11.18711 -11.24145,-14.40331 -1.0521,-4.08414 -3.25769,-9.43154 -3.25769,-9.43154 -0.72882,-1.78205 -1.98567,-3.36545 -2.28783,-3.60511 -0.65476,-0.52069 -0.99553,-0.94415 -2.06198,-0.71579 0,0 -3.05916,2.62218 -5.53653,1.40057 -2.24048,-1.10502 -3.5962,-2.76205 -3.48298,-6.57065 0.1125,-3.80826 4.08618,-4.79474 4.08618,-4.79474 1.84769,-0.50584 3.50357,-0.66345 5.23352,0.13242 4.54103,1.0007 9.54164,8.13985 10.3817,11.18615 0,0 1.08702,2.81242 4.10704,11.08114 3.01975,8.26901 7.81955,3.90647 7.81955,3.90647 2.85669,-2.19648 3.71957,-5.03959 2.58805,-8.52907 -0.75305,-3.01884 -5.36869,-1.58724 -5.36869,-1.58724 -0.74881,-5.54415 0.81978,-7.89855 4.70745,-7.06358 0.0366,-7.89272 4.43035,-9.7077 4.4585,-9.69511 0.003,-9.9e-4 0.0422,0 0.11542,0.0453 l -0.25897,0 z"
       id="path188"
       style="fill:#fab700;stroke:#002577;stroke-width:0pt;stroke-linejoin:round;stroke-miterlimit:3.86369991" />
    <polygon
       points="1805.69,2712.42 1805.69,2712.42 1820.51,2277.75 1902.81,2277.75 1917.1,2712.42 "
       transform="matrix(0.44030627,0,0,0.50502856,-1203.9347,-416.73139)"
       id="polygon190"
       style="fill:#fab700;fill-rule:evenodd;stroke:#002577;stroke-width:8.48910046;stroke-miterlimit:3.86369991" />
    <polygon
       points="1804.95,2954.14 1804.95,2954.14 1803.7,2756.75 1923.25,2756.71 1923.25,2954.14 "
       transform="matrix(0.44030627,0,0,0.50502856,-1203.9347,-416.73139)"
       id="polygon192"
       style="fill:#fab700;fill-rule:evenodd;stroke:#002577;stroke-width:8.48910046;stroke-miterlimit:3.86369991" />
    <path
       d="m -409.68546,964.135 52.80389,0 c 3.67844,0 6.65961,2.57115 6.65961,5.7431 0,3.17195 -2.98172,5.7431 -6.65961,5.7431 l -52.80389,0 c -3.67844,0 -6.65991,-2.57115 -6.65991,-5.7431 0,-3.17195 2.98147,-5.7431 6.65991,-5.7431 l 0,0 z"
       id="path196"
       style="fill:#fab700;stroke:#002577;stroke-width:4.00310564;stroke-miterlimit:3.86369991" />
    <path
       d="m -407.0034,953.35976 46.09477,0 c 3.27519,0 5.93021,2.41189 5.93021,5.38745 l 0,0 c 0,2.97556 -2.65502,5.38779 -5.93021,5.38779 l -46.09477,0 c -3.27489,0 -5.92994,-2.41223 -5.92994,-5.38779 l 0,0 c 0,-2.97556 2.65449,-5.38745 5.92994,-5.38745 z"
       id="path200"
       style="fill:#fab700;fill-rule:evenodd;stroke:#002577;stroke-width:4.00310564;stroke-miterlimit:3.86369991" />
    <rect
       width="27.829115"
       height="65.723404"
       x="-397.5542"
       y="994.17603"
       id="rect202"
       style="fill:none;stroke:#002577;stroke-width:4.00310564;stroke-miterlimit:3.86369991" />
    <path
       d="m -400.57924,725.9366 31.96793,0 c 2.62745,0 4.75728,1.77525 4.75728,3.96558 0,2.18968 -2.12983,3.96493 -4.75728,3.96493 l -31.96793,0 c -2.62716,0 -4.75703,-1.77525 -4.75703,-3.96493 0,-2.18967 2.12987,-3.96558 4.75703,-3.96558 l 0,0 z"
       id="path206"
       style="fill:#fab700;stroke:#002577;stroke-width:2.31058836;stroke-miterlimit:3.86369991" />
    <rect
       width="74.210976"
       height="11.486368"
       x="-607.97778"
       y="1075.4453"
       id="rect210"
       style="fill:#fab700;fill-rule:evenodd;stroke:#002577;stroke-width:1.92551398;stroke-miterlimit:3.86369991" />
    <path
       d="m -876.2408,919.79248 c -12.11403,-10.39618 -24.91353,-7.65995 -24.91353,-7.65995 0,0 9.24959,-14.70671 23.99912,-7.38662 9.37109,4.65102 17.37125,21.88614 41.1417,3.82997 23.77071,-18.05619 32.99648,-27.17929 53.94118,-35.56503 21.51975,-8.6161 38.39876,-10.39586 43.42757,-12.5844 5.02828,-2.18852 12.89637,-5.61847 16.91364,-34.47093 0.9144,-6.56617 22.85631,54.71567 22.85631,54.71567 0,0 -3.20001,20.24471 -24.22805,31.73533 -21.02806,11.49032 -57.46269,18.36382 -77.71191,37.75355 -6.85682,6.56588 -20.03273,17.91856 -27.99906,31.87237 -18.74245,32.82876 -38.28456,36.52246 -38.28456,36.52246 0,0 17.7198,-18.5299 22.62792,-43.49907 0.91441,-4.65072 -0.58019,-25.56947 6.39975,-33.92387 -7.41157,8.87172 -26.17675,-8.60772 -23.77045,-6.29218 0,-6.6e-4 -2.2856,-4.65138 -14.39963,-15.0473 z"
       id="path212"
       style="fill:#fab700;fill-rule:evenodd;stroke:#002577;stroke-width:3.43426085;stroke-miterlimit:3.86369991" />
    <path
       d="m -411.34111,826.51573 c 0,0 3.80546,24.88657 46.38175,37.4668 42.5763,12.58055 49.23646,28.44223 56.1343,32.27087 6.89785,3.8286 24.82058,18.57041 44.00324,11.21257 7.55738,-2.89865 28.67528,-9.57201 30.39931,-8.08876 0.64633,1.23583 -6.03356,14.08802 -6.85164,15.19981 -14.12629,19.19901 -19.50427,22.15196 -24.73694,25.15982 -11.42841,6.57065 -12.31185,7.36783 -20.45526,7.93117 0,0 7.61116,10.93933 8.8004,28.71548 1.18926,17.77583 21.88279,35.82551 21.88279,35.82551 0,0 -27.59137,-8.204 -39.72186,-27.07455 -12.13077,-18.8705 -32.11013,-35.00545 -39.48391,-39.10799 -7.37346,-4.10221 -44.95453,-18.87017 -52.80366,-22.4252 -7.8494,-3.55537 -32.34863,-18.323 -35.67845,-42.11586 -3.33093,-23.79282 12.12993,-54.96967 12.12993,-54.96967 z"
       id="path214"
       style="fill:#fab700;fill-rule:evenodd;stroke:#002577;stroke-width:3.50273514;stroke-miterlimit:3.86369991" />
    <path
       d="m -815.00898,845.65401 c -28.89974,-12.99012 -19.97541,-21.75787 -19.97541,-21.75787 7.11075,-14.58285 16.42652,-32.89973 51.63778,-48.43905 47.09507,-20.78434 95.14227,-11.48555 82.29788,12.58055 -7.8083,14.63006 -21.28773,40.20168 -21.28773,40.20168 0,0 -5.58974,-17.22895 -31.27824,-6.29024 -25.68822,10.93962 -33.61818,15.57481 -35.14199,21.35668 -2.37851,9.02486 -1.42722,14.76796 17.12576,11.4865 -12.13106,4.64908 -25.64541,-0.20041 -40.81818,-7.94504 l -2.55987,-1.19321 z"
       id="path216"
       style="fill:#fab700;stroke:#002577;stroke-width:3.50273514;stroke-miterlimit:3.86369991" />
    <path
       d="m -374.59278,821.12797 c 5.3408,1.57821 14.45748,6.65332 19.8315,11.07983 26.18215,21.56733 21.36179,40.38194 14.10349,40.87358 -8.0871,0.54685 51.33644,-1.35924 58.47196,-5.73472 7.13582,-4.37548 9.51431,-9.29847 5.2332,-19.69062 -4.28105,-10.39186 -36.62945,-73.83952 -89.43367,-85.8729 -52.80419,-12.03272 -73.72895,13.50404 -69.21581,22.15196 4.28111,8.20412 23.78538,35.55201 24.4987,46.76458 5.41627,-11.73359 17.59998,-15.07643 36.51063,-9.57171 z"
       id="path218"
       style="fill:#fab700;stroke:#002577;stroke-width:3.00245881;stroke-linejoin:round;stroke-miterlimit:3.86369991" />
    <polygon
       points="1851.34,2423.57 1845.31,2387.44 1833.03,2426.64 1826.08,2427.8 1802.93,2394.55 1808.96,2430.68 1799.67,2432.24 1789.16,2369.28 1799.12,2367.61 1829.19,2409.7 1844.31,2360.03 1853.13,2358.55 1863.63,2421.5 1863.63,2421.5 "
       transform="matrix(0.44030627,0,0,0.50502856,-1203.9347,-416.73139)"
       id="polygon222"
       style="fill:#ffffff;fill-rule:evenodd" />
    <path
       d="m -357.82325,797.19268 c -0.88145,4.98209 -2.53541,8.55618 -4.95867,10.72132 -2.42214,2.15123 -5.24113,2.84991 -8.45796,2.09794 -3.18199,-0.74452 -5.52809,-2.65189 -7.03782,-5.72306 -1.50718,-3.08475 -1.82597,-7.08296 -0.95665,-11.99592 l 0.3185,-1.80045 c 0.81021,-4.57703 2.38752,-8.09559 4.73168,-10.55625 2.35568,-2.45681 5.30925,-3.27048 8.8607,-2.43969 3.47003,0.81204 5.83361,2.8906 7.09072,6.23698 1.26813,3.34896 1.5044,7.27061 0.70966,11.76366 l -0.30016,1.69547 z m -5.84012,-1.80239 0.15205,-0.85823 c 0.68912,-3.89354 0.9234,-6.84715 0.70348,-8.86045 -0.21972,-2.01366 -1.37316,-3.26467 -3.45993,-3.7524 -1.92537,-0.45061 -3.35316,0.0871 -4.2836,1.61342 -0.91892,1.52912 -1.7598,4.44977 -2.52298,8.76227 l -0.13799,0.77458 c -0.76825,4.34026 -1.01351,7.38623 -0.73444,9.13697 0.2786,1.75165 1.44326,2.8667 3.49622,3.34701 1.68263,0.39373 3.05379,-0.19385 4.11184,-1.76299 1.069,-1.56661 1.96115,-4.36645 2.67503,-8.40018 z"
       id="path224"
       style="fill:#ffffff;fill-rule:evenodd" />
    <path
       d="m -335.29504,811.13891 c -2.16927,4.59385 -4.53508,7.53324 -7.09583,8.81783 -2.55225,1.29205 -5.30049,1.01782 -8.24759,-0.82206 l -8.5771,-5.35548 13.37834,-28.33049 7.6931,4.80348 c 3.51538,2.19484 5.45175,4.98403 5.80883,8.36755 0.37344,3.3777 -0.43284,7.16855 -2.41904,11.37445 l -0.54071,1.14472 z m -5.21574,-3.4998 0.36356,-0.76971 c 1.46579,-3.10381 2.14079,-5.75378 2.02648,-7.94862 -0.11543,-2.19418 -0.93834,-3.7695 -2.46805,-4.72561 l -1.96988,-1.22969 -9.38875,19.88218 2.41966,1.51038 c 1.499,0.93641 2.93637,0.9829 4.31178,0.13898 1.3813,-0.85501 2.94903,-3.14126 4.7052,-6.85877 z"
       id="path226"
       style="fill:#ffffff;fill-rule:evenodd" />
    <polygon
       points="2030.68,2443.42 2024.03,2450.21 2007.5,2433.93 1995.52,2446.15 2008.36,2458.79 2001.61,2465.67 1988.78,2453.03 1976.18,2465.88 1993.87,2483.32 1987.22,2490.11 1987.22,2490.11 1959.8,2463.09 2004.43,2417.56 "
       transform="matrix(0.44030627,0,0,0.50502856,-1203.9347,-416.73139)"
       id="polygon228"
       style="fill:#ffffff;fill-rule:evenodd" />
    <path
       d="m -317.21769,863.43762 -3.00961,-5.87588 c 3.87106,-2.68517 6.4422,-4.97595 7.71367,-6.8733 1.28696,-1.89284 1.50692,-3.66681 0.65924,-5.32252 l -0.71698,-1.39897 -10.85392,7.35104 -3.04565,-5.94563 24.15708,-16.36201 5.32079,10.38762 c 1.29573,2.52949 1.70997,4.65878 1.24475,6.38816 -0.46018,1.74006 -1.42131,3.10541 -2.88291,4.09609 l -1.31286,0.88893 c -1.37682,0.93219 -2.71727,1.21999 -4.02144,0.86306 -1.30416,-0.35755 -2.503,-1.40606 -3.59538,-3.14675 0.49706,2.45777 0.0337,4.86742 -1.38666,7.22796 -1.40441,2.3654 -4.16138,4.93981 -8.27012,7.7222 z m 13.77764,-18.18802 0.65591,-0.44443 c 1.04589,-0.70804 1.63699,-1.51718 1.77526,-2.4271 0.13799,-0.90992 -0.0984,-1.95938 -0.70714,-3.14836 l -0.99406,-1.94131 -6.38757,4.32672 0.82371,1.60889 c 0.72261,1.4106 1.4734,2.26013 2.25405,2.54822 0.78006,0.2875 1.63954,0.11303 2.57984,-0.52263 z"
       id="path230"
       style="fill:#ffffff;fill-rule:evenodd" />
    <path
       d="m -393.06496,903.22553 -4.96877,-4.1513 2.3678,-7.58071 -7.11044,-5.94044 -5.58073,4.89679 -3.95529,-3.30469 23.73159,-20.02074 4.52635,3.78179 -9.01051,32.3193 z m -1.24782,-16.35911 3.40499,-11.81081 -8.545,7.51674 5.14001,4.29407 z"
       id="path234"
       style="fill:#ffffff;fill-rule:evenodd" />
    <polygon
       points="1876.91,2630.16 1864.67,2624.17 1888.42,2575.35 1876.31,2569.43 1880.47,2560.88 1916.64,2578.57 1912.48,2587.12 1912.48,2587.12 1900.66,2581.34 "
       transform="matrix(0.44030627,0,0,0.50502856,-1203.9347,-416.73139)"
       id="polygon236"
       style="fill:#ffffff;fill-rule:evenodd" />
    <polygon
       points="1916.84,2647.13 1916.84,2647.13 1904.3,2641.79 1929.17,2583.03 1941.72,2588.37 "
       transform="matrix(0.44030627,0,0,0.50502856,-1203.9347,-416.73139)"
       id="polygon238"
       style="fill:#ffffff;fill-rule:evenodd" />
    <path
       d="m -327.73708,919.93543 c -1.79867,4.64517 -4.08565,7.72282 -6.85955,9.23288 -2.76995,1.4978 -5.65312,1.47809 -8.65257,-0.0582 -2.96679,-1.51909 -4.89782,-3.96493 -5.79392,-7.33941 -0.8913,-3.38674 -0.45002,-7.37039 1.32302,-11.95067 l 0.64996,-1.67803 c 1.65193,-4.26758 3.85416,-7.31 6.60638,-9.12886 2.76262,-1.81306 5.79925,-1.87184 9.10988,-0.17774 3.23549,1.6567 5.15158,4.2747 5.74916,7.85494 0.60774,3.58503 0.10136,7.47278 -1.52072,11.66189 l -0.61164,1.58143 z m -5.36333,-3.21364 0.30978,-0.80008 c 1.40552,-3.62998 2.19065,-6.45502 2.35482,-8.47575 0.16318,-2.02073 -0.72685,-3.52918 -2.67221,-4.52502 -1.79502,-0.91928 -3.29095,-0.74938 -4.48639,0.50939 -1.18475,1.26425 -2.55591,3.90644 -4.1124,7.92693 l -0.2786,0.72224 c -1.56692,4.04701 -2.37938,6.95925 -2.43653,8.73805 -0.0592,1.77913 0.86961,3.15805 2.78345,4.13776 1.56888,0.80333 3.01808,0.57106 4.34673,-0.6974 1.33906,-1.26359 2.7367,-3.77531 4.19235,-7.53612 z"
       id="path240"
       style="fill:#ffffff;fill-rule:evenodd" />
    <polygon
       points="2032.51,2673.61 2051.35,2640.89 2059.75,2645.75 2027.92,2701.04 2027.92,2701.04 2022.85,2698.1 2016.64,2648.2 1996.64,2682.93 1988.24,2678.07 2020.08,2622.79 2026.39,2626.45 "
       transform="matrix(0.44030627,0,0,0.50502856,-1203.9347,-416.73139)"
       id="polygon242"
       style="fill:#ffffff;fill-rule:evenodd" />
    <polygon
       points="975.353,2443.83 966.901,2448.92 934.647,2419.84 944.877,2462.19 936.425,2467.28 889.304,2421.2 901.123,2414.08 930.901,2443.32 920.398,2402.47 928.679,2397.48 959.796,2425.91 947.473,2386.16 956.922,2380.46 956.922,2380.46 "
       transform="matrix(0.44030627,0,0,0.50502856,-1203.9347,-416.73139)"
       id="polygon246"
       style="fill:#ffffff;fill-rule:evenodd" />
    <polygon
       points="1010.64,2432.86 1010.64,2432.86 997.61,2436.85 978.994,2375.81 992.027,2371.81 "
       transform="matrix(0.44030627,0,0,0.50502856,-1203.9347,-416.73139)"
       id="polygon248"
       style="fill:#ffffff;fill-rule:evenodd" />
    <path
       d="m -734.9012,797.55381 c 0.41397,3.38513 -0.2112,6.03899 -1.87837,7.96216 -1.66827,1.90964 -4.16224,3.13222 -7.48303,3.66875 -1.89948,0.30686 -3.51792,0.43122 -4.85558,0.37468 -1.33795,-0.0582 -2.4568,-0.22279 -3.3574,-0.4929 l -0.67221,-5.50084 c 0.72459,0.3863 1.82317,0.67604 3.29657,0.86953 1.47115,0.17775 2.89414,0.15837 4.26954,-0.0647 1.9344,-0.31333 3.22447,-0.83691 3.87134,-1.57466 0.65813,-0.73873 0.89948,-1.82759 0.72318,-3.26694 -0.11264,-0.93091 -0.47677,-1.71354 -1.08871,-2.34795 -0.61251,-0.63471 -2.22052,-1.34531 -4.82348,-2.13313 -2.07492,-0.64246 -3.73926,-1.61731 -4.99188,-2.92582 -1.25487,-1.32113 -2.03916,-3.26595 -2.3526,-5.8329 -0.29992,-2.45392 0.30865,-4.66653 1.82655,-6.63784 1.52859,-1.97295 3.82008,-3.20586 6.87305,-3.69974 1.4796,-0.23918 2.82599,-0.30685 4.03947,-0.20011 1.22305,0.0904 2.08704,0.20995 2.59253,0.35755 l 0.59477,4.86581 c -1.03859,-0.1357 -2.06648,-0.23262 -3.08423,-0.30038 -1.0186,-0.0647 -2.08619,0 -3.20504,0.17119 -1.58521,0.25529 -2.69026,0.73679 -3.31741,1.44191 -0.62659,0.70545 -0.88567,1.5023 -0.77697,2.3906 0.13798,1.12891 0.50437,1.93996 1.09942,2.43289 0.59533,0.49388 2.2377,1.09888 4.92711,1.81402 2.50439,0.66023 4.35571,1.71259 5.55482,3.15805 1.20813,1.43159 1.94792,3.25367 2.21856,5.46789 z"
       id="path250"
       style="fill:#ffffff;fill-rule:evenodd" />
    <path
       d="m -648.13215,775.63668 c -0.86033,1.94161 -2.12365,3.27207 -3.78882,3.99046 -1.64998,0.71222 -3.55904,0.4325 -5.72972,-0.83888 -1.26895,-0.74323 -2.24615,-1.44414 -2.93159,-2.10116 -0.67587,-0.6515 -1.1839,-1.29235 -1.52438,-1.92416 l 1.94849,-4.39746 c 0.31878,0.44285 0.77134,0.95546 1.35822,1.53947 0.60237,0.57723 1.24473,1.06497 1.92652,1.46451 0.64968,0.38085 1.30584,0.49391 1.96932,0.33886 0.6632,-0.15508 1.21967,-0.74034 1.66969,-1.75557 l 9.53206,-21.51111 5.34728,3.13255 -9.77707,22.06249 z"
       id="path254"
       style="fill:#ffffff;fill-rule:evenodd" />
    <path
       d="m -617.67086,788.51989 c -0.94593,2.83213 -2.4075,4.73563 -4.3833,5.70984 -1.97214,0.96062 -4.46865,0.77458 -7.48869,-0.55817 -3.24079,-1.42963 -5.28249,-3.31439 -6.12649,-5.65525 -0.84399,-2.34082 -0.70234,-5.19915 0.4258,-8.57685 l 6.76125,-20.24525 5.60216,2.4717 -7.03471,21.06339 c -0.54607,1.63574 -0.65559,2.99883 -0.32639,4.08963 0.34386,1.08271 1.26865,1.95583 2.7736,2.61991 1.39483,0.61568 2.54918,0.70578 3.46384,0.26811 0.92512,-0.43056 1.70264,-1.59016 2.33402,-3.47847 l 6.99473,-20.9436 4.15209,1.8318 -7.14791,21.40159 z"
       id="path256"
       style="fill:#ffffff;fill-rule:evenodd" />
    <path
       d="m -588.0144,795.4704 c -0.36245,3.39288 -1.56495,5.76991 -3.60664,7.13204 -2.04112,1.34758 -4.72547,1.78688 -8.05414,1.3166 -1.9037,-0.26812 -3.49511,-0.63021 -4.77475,-1.08305 -1.27938,-0.4532 -2.3233,-0.94514 -3.1321,-1.47585 l 0.58855,-5.51343 c 0.61281,0.58884 1.60887,1.19611 2.98849,1.82112 1.38074,0.61114 2.76011,1.01424 4.13889,1.20869 1.93862,0.27468 3.30304,0.1518 4.09379,-0.36919 0.80233,-0.51779 1.27993,-1.49747 1.43456,-2.94034 0.0984,-0.93318 -0.0759,-1.79755 -0.52352,-2.59247 -0.4486,-0.79462 -1.84174,-1.96034 -4.17887,-3.49563 -1.85949,-1.23777 -3.24729,-2.67482 -4.16308,-4.31151 -0.9147,-1.64993 -1.23461,-3.76144 -0.96002,-6.33453 0.2619,-2.46003 1.34863,-4.41586 3.25825,-5.86779 1.92119,-1.45095 4.41148,-1.96001 7.47204,-1.52846 1.48301,0.20995 2.79869,0.54619 3.94655,1.0097 1.16108,0.45094 1.96848,0.8237 2.42329,1.11699 l -0.5207,4.87711 c -0.97271,-0.43832 -1.94372,-0.84079 -2.91189,-1.20741 -0.96849,-0.36629 -2.01353,-0.62793 -3.13435,-0.78686 -1.5886,-0.22279 -2.76491,-0.0871 -3.52865,0.40539 -0.76401,0.49516 -1.19372,1.18802 -1.28893,2.07823 -0.12099,1.13118 0.0507,2.02365 0.51423,2.67711 0.46381,0.65409 1.91413,1.72745 4.35092,3.2191 2.27066,1.3828 3.82205,2.95036 4.65478,4.70399 0.84571,1.74069 1.1501,3.72106 0.9133,5.94045 z"
       id="path258"
       style="fill:#ffffff;fill-rule:evenodd" />
    <polygon
       points="1447.53,2422.64 1433.9,2422.4 1434.85,2368.1 1421.38,2367.86 1421.55,2358.34 1461.79,2359.05 1461.62,2368.56 1461.62,2368.56 1448.47,2368.33 "
       transform="matrix(0.44030627,0,0,0.50502856,-1203.9347,-416.73139)"
       id="polygon260"
       style="fill:#ffffff;fill-rule:evenodd" />
    <polygon
       points="1506.56,2418.85 1506.56,2418.85 1493.03,2420.52 1485.28,2357.16 1498.8,2355.5 "
       transform="matrix(0.44030627,0,0,0.50502856,-1203.9347,-416.73139)"
       id="polygon262"
       style="fill:#ffffff;fill-rule:evenodd" />
    <path
       d="m -510.45016,795.2695 c -0.31089,0.45189 -0.94567,1.00261 -1.90429,1.6525 -0.9558,0.66313 -2.11436,1.23389 -3.47539,1.71292 -3.43203,1.20675 -6.57453,0.9112 -9.427,-0.88666 -2.84486,-1.81497 -4.92823,-5.20851 -6.25041,-10.17996 l -0.33175,-1.24647 c -1.2315,-4.63098 -1.12308,-8.73483 0.32498,-12.31214 1.45931,-3.58057 3.84883,-5.95405 7.16819,-7.1217 1.42893,-0.50196 2.64857,-0.81917 3.65986,-0.95158 1.00705,-0.14524 1.81839,-0.14852 2.43454,0 l 1.30358,4.90327 c -0.56743,-0.14226 -1.29965,-0.19058 -2.19742,-0.14226 -0.88737,0.0453 -1.88709,0.26155 -3.00115,0.65248 -2.07072,0.72775 -3.4323,2.27172 -4.08425,4.63002 -0.64152,2.35538 -0.50523,5.2489 0.4078,8.68151 l 0.1125,0.42928 c 0.97774,3.67778 2.24051,6.20534 3.78768,7.58265 1.55874,1.37344 3.2777,1.73004 5.15691,1.06947 1.2712,-0.44705 2.31739,-0.97773 3.13799,-1.59437 0.81697,-0.62921 1.45372,-1.17317 1.91021,-1.63185 l 1.26584,4.7605 z"
       id="path264"
       style="fill:#ffffff;fill-rule:evenodd" />
    <polygon
       points="1610.21,2313.21 1614.52,2321.69 1593.88,2332.24 1601.64,2347.5 1617.67,2339.31 1622.04,2347.9 1606.01,2356.09 1614.17,2372.15 1636.27,2360.86 1640.58,2369.34 1640.58,2369.34 1606.33,2386.83 1577.43,2329.96 "
       transform="matrix(0.44030627,0,0,0.50502856,-1203.9347,-416.73139)"
       id="polygon266"
       style="fill:#ffffff;fill-rule:evenodd" />
    <path
       d="m -797.72326,914.60577 c 2.20531,4.57282 3.09071,8.44667 2.65815,11.62056 -0.4227,3.16906 -2.10027,5.68659 -5.03272,7.55518 l -8.53514,5.43885 -13.59883,-28.20031 7.65538,-4.87741 c 3.49848,-2.22941 6.58441,-2.60766 9.25889,-1.13539 2.67843,1.45354 5.02652,4.27307 7.0454,8.45926 l 0.54887,1.13926 z m -5.3684,3.17645 -0.36948,-0.76584 c -1.48973,-3.08925 -3.07127,-5.16846 -4.74293,-6.23731 -1.67194,-1.06753 -3.26925,-1.11662 -4.7925,-0.14524 l -1.96003,1.24908 9.5436,19.79109 2.40808,-1.53428 c 1.49171,-0.95062 2.29796,-2.3192 2.4185,-4.10641 0.11545,-1.79884 -0.72122,-4.54798 -2.50524,-8.24933 z"
       id="path270"
       style="fill:#ffffff;fill-rule:evenodd" />
    <path
       d="m -772.4217,902.48456 c 1.7277,4.68103 2.12562,8.70378 1.19433,12.06726 -0.93637,3.35122 -2.91555,5.76282 -5.93754,7.23831 -2.98961,1.45968 -5.86292,1.41575 -8.62019,-0.13242 -2.76207,-1.56046 -4.99498,-4.64875 -6.69874,-9.26422 l -0.62434,-1.6913 c -1.58745,-4.30018 -2.02114,-8.22798 -1.30077,-11.78334 0.73079,-3.55986 2.7646,-6.15428 6.10144,-7.78256 3.26024,-1.59115 6.23239,-1.41736 8.91729,0.52165 2.69532,1.93451 4.82178,5.01245 6.38108,9.23419 l 0.58744,1.59276 z m -5.70211,2.31921 -0.29766,-0.80655 c -1.35034,-3.65841 -2.61225,-6.2454 -3.78573,-7.76193 -1.17349,-1.5162 -2.74038,-1.79591 -4.70069,-0.83884 -1.80909,0.88277 -2.72095,2.25654 -2.73616,4.12063 0,1.85891 0.74149,4.8138 2.23742,8.86561 l 0.26753,0.72772 c 1.5055,4.07767 2.80402,6.74831 3.8964,8.00934 1.09182,1.26199 2.60211,1.42253 4.53032,0.48127 1.58098,-0.77166 2.42159,-2.14897 2.52072,-4.13159 0.10983,-1.98717 -0.53422,-4.87616 -1.93299,-8.66566 z"
       id="path272"
       style="fill:#ffffff;fill-rule:evenodd" />
    <polygon
       points="1054.27,2619.54 1041.77,2585.12 1036.83,2625.91 1030.2,2628.33 1001.39,2599.85 1013.89,2634.28 1005.04,2637.51 983.259,2577.52 992.751,2574.06 1029.97,2609.95 1035.8,2558.35 1044.2,2555.28 1065.98,2615.27 1065.98,2615.27 "
       transform="matrix(0.44030627,0,0,0.50502856,-1203.9347,-416.73139)"
       id="polygon274"
       style="fill:#ffffff;fill-rule:evenodd" />
    <path
       d="m -713.3696,591.582 c -0.0281,0.66185 -0.27034,1.68351 -0.76092,3.06438 -0.47903,1.39088 -1.19714,2.86897 -2.15265,4.43557 -2.41062,3.94942 -5.43965,6.32093 -9.08739,7.11556 -3.65112,0.77198 -7.53654,-0.49615 -11.65683,-3.80505 l -1.03296,-0.82916 c -3.83754,-3.08218 -6.14846,-6.81937 -6.93248,-11.21164 -0.77584,-4.40489 0.002,-8.51679 2.33317,-12.33669 1.00367,-1.64411 1.92568,-2.94842 2.76714,-3.91327 0.8302,-0.97291 1.56577,-1.65575 2.20869,-2.04659 l 4.06368,3.26336 c -0.59927,0.34888 -1.29317,0.9206 -2.0814,1.71456 -0.78035,0.7823 -1.56127,1.81399 -2.34387,3.09569 -1.45425,2.38285 -1.78543,4.89555 -0.99325,7.53774 0.80006,2.63059 2.62239,5.08707 5.46696,7.37174 l 0.35568,0.28422 c 3.0479,2.44774 5.67902,3.63448 7.89391,3.56147 2.22249,-0.0871 3.99384,-1.21063 5.31404,-3.37254 0.89272,-1.46258 1.5317,-2.81177 1.91554,-4.0473 0.37314,-1.24359 0.63194,-2.26105 0.77782,-3.05146 l 3.94512,3.16807 z"
       id="path278"
       style="fill:#ffffff;fill-rule:evenodd" />
    <path
       d="m -698.15177,548.53332 c 3.53875,3.91939 5.42641,7.87851 5.6624,11.87478 0.22531,3.98658 -0.99663,7.56422 -3.66661,10.7368 -2.64181,3.13771 -5.70774,4.65293 -9.19834,4.54374 -3.50017,-0.11959 -6.99472,-2.11214 -10.48475,-5.97695 l -1.27852,-1.41605 c -3.25124,-3.6009 -5.14142,-7.4418 -5.67198,-11.52238 -0.52043,-4.09153 0.69333,-7.88852 3.64182,-11.39026 2.88091,-3.42226 6.09947,-4.85579 9.6554,-4.30152 3.56523,0.54395 6.94374,2.58344 10.13583,6.11813 l 1.20475,1.33371 z m -5.20788,5.50341 -0.60997,-0.67541 c -2.76545,-3.06342 -5.04708,-5.06283 -6.8449,-5.99956 -1.79782,-0.9364 -3.56298,-0.37598 -5.29574,1.68223 -1.59873,1.89863 -2.0662,3.81924 -1.40329,5.76216 0.6725,1.93126 2.54016,4.5932 5.60355,7.98608 l 0.54999,0.6095 c 3.08282,3.41454 5.43373,5.48117 7.05217,6.1969 1.61899,0.71645 3.27995,0.0614 4.98428,-1.96126 1.39708,-1.65929 1.78824,-3.54504 1.17122,-5.65655 -0.60659,-2.12282 -2.34246,-4.77115 -5.20731,-7.94409 z"
       id="path280"
       style="fill:#ffffff;fill-rule:evenodd" />
    <polygon
       points="1211.85,1867.77 1187.21,1833.85 1196.4,1827.18 1238.04,1884.49 1238.04,1884.49 1232.49,1888.52 1177.66,1873.34 1203.82,1909.35 1194.63,1916.03 1152.99,1858.72 1159.9,1853.69 "
       transform="matrix(0.44030627,0,0,0.50502856,-1203.9347,-416.73139)"
       id="polygon282"
       style="fill:#ffffff;fill-rule:evenodd" />
    <path
       d="m -631.50033,508.41592 c 1.39794,3.43777 1.43229,6.51476 0.10435,9.23094 -1.33457,2.70167 -3.78066,5.00405 -7.34025,6.9082 -2.03607,1.08886 -3.80826,1.87119 -5.31742,2.34699 -1.51003,0.47611 -2.80432,0.75034 -3.88487,0.82206 l -2.27121,-5.58676 c 0.9158,0.11959 2.22277,0 3.9209,-0.39699 1.69222,-0.39925 3.27546,-0.99324 4.7497,-1.78172 2.07296,-1.10857 3.36838,-2.18514 3.88655,-3.2301 0.53056,-1.05042 0.4993,-2.30626 -0.0958,-3.76789 -0.3844,-0.94544 -1.00592,-1.63347 -1.86512,-2.06305 -0.85892,-0.43026 -2.85106,-0.54201 -5.97501,-0.33593 -2.49368,0.14852 -4.62127,-0.22278 -6.38164,-1.11212 -1.76656,-0.90348 -3.17941,-2.65901 -4.23941,-5.26634 -1.01352,-2.49233 -0.94565,-5.09224 0.20557,-7.80037 1.16137,-2.71392 3.37852,-4.94621 6.65087,-6.69662 1.58576,-0.84789 3.07071,-1.45903 4.45457,-1.83305 1.39032,-0.39442 2.38808,-0.61407 2.99299,-0.65928 l 2.00931,4.94237 c -1.19686,0.27467 -2.37203,0.58013 -3.52693,0.918 -1.1549,0.33883 -2.33149,0.82948 -3.53031,1.46968 -1.6987,0.90863 -2.80009,1.86409 -3.30502,2.8667 -0.50493,1.00231 -0.57365,1.95485 -0.20557,2.85734 0.46635,1.14636 1.09942,1.86249 1.90004,2.14897 0.80091,0.2875 2.80206,0.2714 6.0026,-0.0453 2.97863,-0.30363 5.33686,0.0743 7.07498,1.13377 1.7449,1.03846 3.0741,2.68162 3.98879,4.93074 z"
       id="path284"
       style="fill:#ffffff;fill-rule:evenodd" />
    <polygon
       points="1362.1,1835.4 1346.68,1839.53 1331.08,1781.31 1315.85,1785.39 1313.11,1775.19 1358.64,1762.99 1361.37,1773.19 1361.37,1773.19 1346.5,1777.18 "
       transform="matrix(0.44030627,0,0,0.50502856,-1203.9347,-416.73139)"
       id="polygon286"
       style="fill:#ffffff;fill-rule:evenodd" />
    <rect
       width="7.0334015"
       height="35.755684"
       x="-613.98682"
       y="422.48743"
       transform="matrix(0.99679522,-0.07999561,0.06088797,0.99814461,0,0)"
       id="rect288"
       style="fill:#ffffff;fill-rule:evenodd" />
    <polygon
       points="1484.43,1828.9 1468.51,1827.79 1472.71,1767.66 1456.98,1766.56 1457.72,1756.02 1504.73,1759.31 1504,1769.84 1504,1769.84 1488.64,1768.77 "
       transform="matrix(0.44030627,0,0,0.50502856,-1203.9347,-416.73139)"
       id="polygon290"
       style="fill:#ffffff;fill-rule:evenodd" />
    <path
       d="m -507.59206,507.71951 c -0.85811,3.21943 -2.39458,5.44042 -4.60776,6.66432 -2.21011,1.20837 -5.12706,1.17705 -8.75086,-0.0936 -3.8877,-1.36342 -6.42082,-3.31797 -7.60133,-5.86359 -1.17994,-2.54595 -1.25881,-5.73824 -0.23378,-9.57785 l 6.13384,-23.01211 6.72043,2.35667 -6.38165,23.9414 c -0.49537,1.85924 -0.50635,3.3848 -0.0311,4.57575 0.49197,1.18125 1.64098,2.08759 3.44639,2.72039 1.67364,0.5869 3.02257,0.60628 4.04848,0.0549 1.03827,-0.5449 1.84314,-1.88992 2.41593,-4.03665 l 6.34533,-23.80574 4.98119,1.74716 -6.48386,24.32771 z"
       id="path292"
       style="fill:#ffffff;fill-rule:evenodd" />
    <polygon
       points="1629.39,1872.77 1615.17,1865.52 1642.53,1811.81 1628.48,1804.65 1633.27,1795.24 1675.27,1816.64 1670.47,1826.05 1670.47,1826.05 1656.75,1819.06 "
       transform="matrix(0.44030627,0,0,0.50502856,-1203.9347,-416.73139)"
       id="polygon294"
       style="fill:#ffffff;fill-rule:evenodd" />
    <rect
       width="7.4009361"
       height="34.260857"
       x="-108.15118"
       y="687.86847"
       transform="matrix(0.76820427,0.64020481,-0.53512919,0.84477023,0,0)"
       id="rect296"
       style="fill:#ffffff;fill-rule:evenodd" />
    <path
       d="m -423.82643,564.18472 c -3.47849,3.98948 -6.96261,6.08545 -10.4504,6.28637 -3.47879,0.19057 -6.57623,-1.27457 -9.29576,-4.39224 -2.68915,-3.08442 -3.95611,-6.62687 -3.80008,-10.6283 0.16611,-4.01178 1.96282,-7.98479 5.39316,-11.91903 l 1.25684,-1.44191 c 3.19574,-3.6655 6.57679,-5.76637 10.14315,-6.30319 3.57564,-0.52588 6.86433,0.93285 9.86548,4.37548 2.933,3.36413 4.12622,7.08003 3.581,11.148 -0.53617,4.07927 -2.37314,7.91793 -5.51004,11.51722 l -1.18335,1.3576 z m -4.70605,-6.06901 0.59928,-0.68738 c 2.71841,-3.11799 4.50162,-5.69982 5.34926,-7.7451 0.84765,-2.0453 0.38973,-4.07897 -1.37373,-6.10229 -1.62742,-1.86666 -3.29347,-2.43615 -4.99837,-1.70937 -1.69555,0.73774 -4.04873,2.83312 -7.05946,6.28639 l -0.54127,0.62019 c -3.03045,3.47558 -4.87219,6.13555 -5.5244,7.97993 -0.65306,1.84408 -0.1125,3.76049 1.62266,5.75023 1.42214,1.6315 3.05916,2.11214 4.91048,1.44191 1.86034,-0.65961 4.19888,-2.60444 7.01555,-5.83451 z"
       id="path298"
       style="fill:#ffffff;fill-rule:evenodd" />
    <polygon
       points="1815.7,2003.99 1849.61,1979.35 1856.29,1988.54 1798.98,2030.17 1798.98,2030.17 1794.95,2024.63 1810.12,1969.8 1774.12,1995.95 1767.44,1986.77 1824.75,1945.13 1829.77,1952.04 "
       transform="matrix(0.44030627,0,0,0.50502856,-1203.9347,-416.73139)"
       id="polygon300"
       style="fill:#ffffff;fill-rule:evenodd" />
    <path
       d="m -467.2591,857.27749 c 0,0 1.71981,-2.16868 2.27766,-0.58591 0.55788,1.58274 0.67618,2.93226 0.1998,3.52369 -0.47734,0.5911 -0.42074,0.96482 -1.09663,1.95744 -0.6753,0.99229 -0.37595,1.55948 -1.02787,2.03656 -0.65221,0.47742 -0.95159,0.26156 -1.67024,0.2198 l -0.29237,2.46102 -0.46745,2.05723 0.27011,1.97844 1.22585,3.14642 -0.93465,-2.35797 1.30861,2.57279 c 0.99073,2.99718 10.40789,6.00829 13.81992,7.759 7.10259,3.6445 5.9916,20.96748 6.73959,22.68234 0.74768,1.71516 3.73785,24.65363 3.73785,28.51262 0,3.85867 -3.73785,24.65333 -4.11155,28.94095 -0.18574,2.13638 -0.65137,7.25381 -1.11661,12.43456 -0.0929,1.02361 -1.37342,-0.32302 -1.7784,0.59886 -0.53673,1.22098 -0.45875,4.73468 -0.33172,5.89717 -0.22235,2.52916 -0.85046,4.49564 -0.95214,5.78155 -0.37399,4.71654 -4.16311,5.1568 -4.16311,5.1568 0,0 -0.13506,16.13075 -0.88257,19.98905 -0.74766,3.859 -1.256,4.5939 -0.13505,15.3129 1.12138,10.7194 -1.49535,24.0106 -1.49535,24.0106 0,0 -3.86007,19.5417 -4.60779,22.5431 -0.74768,3.0014 0.49595,5.7554 0.86965,7.8985 0.37367,2.1438 0.37367,5.5742 0.37367,5.5742 l -32.8674,0 c -0.83581,0 0.57733,-3.3913 1.68181,-5.7883 0.51171,-1.1099 2.05578,-2.7866 4.29884,-3.2156 2.24303,-0.4286 2.42947,-3.2155 3.73814,-6.6455 1.30809,-3.4301 0.74769,-10.7188 -0.3737,-15.2212 -1.12141,-4.5021 -2.61675,-15.435 -2.61675,-19.294 0,-3.859 -1.85502,-12.6484 -3.72406,-18.6512 -1.86907,-6.0021 -2.80346,-19.07947 -2.80346,-20.36567 0,-0.56107 -0.21386,-1.28528 -0.60941,-2.42224 -0.51171,-1.46873 -0.59391,-3.62676 -1.64716,-7.01091 -1.8691,-6.00215 -1.69617,-13.29116 -1.88287,-19.50812 -0.18573,-6.21694 -2.24277,-13.07736 -3.18984,-14.59744 l -0.57815,-2.68579 -5.76463,2.06206 -5.57285,5.00536 c -1.22729,1.27233 -2.56523,1.48423 -4.81869,1.71518 -4.36302,0.44706 -8.72549,-5.42557 -9.74944,-13.9136 -1.13096,-9.38245 0.48491,-13.40327 9.58778,-13.37097 l 4.04511,0 3.51538,0.1357 1.70094,0 c 0,0 1.02055,2.28431 -0.56716,3.09053 -1.58719,0.80592 -2.04087,0.94028 -2.04087,0.94028 l 2.03129,2.66742 c -0.0396,0 1.10029,-0.87762 4.48583,-3.00139 l 1.26133,-3.37642 c 0.0929,-2.14381 0.23349,-2.62638 -0.14062,-4.98436 -0.3737,-2.35797 -1.09944,-15.91498 -1.09944,-19.1302 0,-3.21552 0.0817,-7.01994 0.36666,-10.73197 0.25898,-3.37671 0.21943,-10.90219 1.65112,-14.09902 1.77556,-3.96588 11.37465,-5.68139 11.37465,-5.68139 0,0 4.15408,-0.52165 4.71478,-1.80854 0.20829,-0.47932 1.2526,-2.53593 1.69643,-3.33893 -2.67166,-1.08758 -3.54834,-4.85483 -3.93947,-5.77185 -0.40668,-0.95385 -1.12141,-5.35969 -1.21489,-5.78799 -0.13799,-0.63279 -0.97468,-4.61517 -1.44326,-6.19242 -0.46803,-1.57692 -0.0703,-4.45105 -0.0703,-4.45105 l -3.04032,-0.38342 -3.677,-0.3243 c 0,0 -2.05581,-0.33012 -2.58495,-0.56817 -0.52943,-0.23918 -2.31123,-0.6554 -2.31123,-0.6554 0,0 -2.92088,-2.8696 -0.0293,-5.17395 2.89668,-2.30468 6.30191,-4.44074 6.85953,-4.8206 0.55732,-0.37983 0.78064,-1.01102 0.78064,-1.01102 l -0.0507,-0.82948 c -0.66689,-1.17607 -1.31459,-2.76429 -2.14703,-6.22243 -0.83218,-3.45781 7.07977,-4.90103 7.07977,-4.90103 2.28867,-0.22607 9.96262,0.93965 9.17272,0.73968 1.60236,0.40605 2.65024,0.34047 5.7125,0.3198 3.06227,-0.0322 7.0561,1.25036 9.28226,1.79753 2.22616,0.54688 4.49597,2.91034 5.64466,5.35519 1.14872,2.44419 5.79957,5.53669 7.17073,7.06485 2.07435,2.3124 4.53959,7.1582 5.48837,8.92797 1.65957,3.09473 -0.12949,2.35603 -0.68772,2.73557 -2.59336,1.76555 -17.03393,-1.96941 -15.77515,-1.79014 1.03385,0.14852 0.79108,-0.27467 -0.3258,-0.9661 l 0,1.16798 -0.8409,3.64421 -0.91186,1.21385 z"
       id="path306"
       style="fill:#ff6600;fill-rule:evenodd;stroke:none" />
    <path
       d="m -482.60649,902.02039 c 0.45845,-8.78132 1.08702,-16.01898 2.2428,-21.6526 0.37396,-1.82207 0,-2.67968 0,-2.67968 -1.99019,-0.0549 -3.32953,-0.22606 -5.38929,-2.96005"
       id="path314"
       style="fill:none;stroke:#002577;stroke-width:1.92551398;stroke-miterlimit:3.86369991" />
    <path
       d="m -495.21602,997.77829 0.4399,-3.63869 c 0,0 0.98311,-2.08016 0.60942,-6.15329 -0.3737,-4.07281 0,-15.43497 0.93465,-21.22332 0.88456,-5.48047 8.38308,-22.50951 9.13077,-27.01195 0.64489,-3.88322 0.74766,-16.93599 0.74766,-18.00773 0,-0.35565 -0.3703,-1.59536 -0.18867,-6.43144"
       id="path316"
       style="fill:none;stroke:#002577;stroke-width:2.31058836;stroke-miterlimit:3.86369991" />
    <path
       d="m -468.47174,954.57459 -20.91064,0.27468 c -6.46333,14.2521 -5.62242,41.79346 -3.77418,56.33463 11.92126,2.6994 28.12418,1.9323 37.27464,-0.5681 l 0.50916,-18.49681 c -1.84769,-20.89286 -6.71762,-23.87487 -13.09898,-37.54559 z"
       id="path3164"
       style="fill:#ffffff;stroke:none" />
    <path
       d="m -501.49599,953.02284 c 0.94708,1.52008 3.00282,8.38046 3.18982,14.5971 0.18573,6.21697 -0.7198,13.50631 1.14927,19.50846 1.0538,3.38417 1.86963,5.54152 2.38134,7.01087 0.39564,1.13604 2.0769,1.86088 2.0769,2.42192 0,1.28623 0.93412,14.36361 2.80346,20.36571 1.86907,6.0028 2.99043,14.7925 2.99043,18.6512 0,3.859 1.4954,14.7925 2.61679,19.2943 1.12135,4.5018 1.68204,11.7908 0.37369,15.2212 -1.30838,3.43 -1.67534,5.5486 -3.73817,6.6455 -1.58605,0.8434 -2.35822,1.2065 -3.60376,2.9475 -1.49933,2.0963 -3.21293,6.0561 -2.37742,6.0561 l 31.40021,0 c 0,0 0,-3.4301 -0.37399,-5.5739 -0.3737,-2.1438 -2.61673,-5.1451 -1.86907,-8.1466 0.74768,-3.0013 5.60721,-22.2957 5.60721,-22.2957 0,0 2.61673,-13.2911 1.49538,-24.0105 -1.12139,-10.7191 -1.49538,-10.7191 -0.74769,-14.5777 0.74769,-3.8587 1.55956,-19.24749 1.55956,-19.24749 0,0 5.86406,-1.80689 6.23802,-6.52346 0.37372,-4.71658 2.66914,-20.53496 3.04283,-24.82258 0.3737,-4.28795 4.11158,-25.08231 4.11158,-28.9413 0,-3.859 -2.99045,-26.79744 -3.73788,-28.5123 -0.74739,-1.71518 0,-15.00637 -7.10256,-18.65087 -3.41232,-1.75071 -12.46618,-8.79358 -13.45691,-11.7908 l -1.30864,-2.57276"
       id="path320"
       style="fill:none" />
    <path
       d="m -485.39531,872.52741 -1.69672,3.33699 c 0,0 -14.31384,3.52533 -16.08943,7.49124 -1.43113,3.19682 -2.01804,21.61511 -2.01804,24.83063 0,3.21558 0.72516,16.77259 1.09944,19.13056 0.37399,2.35794 0.23378,2.84019 0.14062,4.984"
       id="path322"
       style="fill:none;stroke:#002577;stroke-width:2.55617619;stroke-linejoin:round;stroke-miterlimit:3.86369991" />
    <path
       d="m -477.18598,926.24506 c 0.18574,1.71518 -0.1998,12.6991 3.73841,19.72295 1.68234,3.00138 9.03444,19.34857 10.65345,21.4381 0.96872,1.24973 3.45963,1.73552 4.08735,3.43714 3.24726,8.80265 -0.1831,17.46542 4.40327,18.72806 l 1.28416,5.05021"
       id="path326"
       style="fill:none;stroke:#002577;stroke-width:2.31058836;stroke-miterlimit:3.86369991" />
    <path
       d="m -466.96286,872.36266 c -0.78035,1.23875 -6.00373,4.83966 -9.08117,4.83966 -1.12168,0 -0.45903,2.63026 -0.95525,5.73827 -0.52269,3.27335 -0.5604,21.86672 -0.18573,24.225 0.15204,0.95772 -0.14355,1.44641 -0.18574,4.50175"
       id="path328"
       style="fill:none;stroke:#002577;stroke-width:1.92551398;stroke-miterlimit:3.86369991" />
    <path
       d="m -462.08616,895.35058 1.9085,8.59916 2.61676,15.86389 0.9341,9.64701 0.18867,8.57491 -0.18867,7.28901 -0.74739,5.14523 -0.93439,4.71657 -1.68237,15.43497 c 5.41992,-1.50036 8.98601,-0.042 11.58783,2.35798"
       id="path330"
       style="fill:none;stroke:#002577;stroke-width:2.31058836;stroke-linecap:round;stroke-linejoin:round;stroke-miterlimit:3.86369991" />
    <path
       d="m -497.86149,879.56837 0.36693,1.47323 c -0.50998,-3.23139 8.53319,42.63135 39.37268,64.06945 l 1.49508,1.07273"
       id="path332"
       style="fill:none;stroke:#002577;stroke-width:2.31058836;stroke-miterlimit:3.86369991" />
    <path
       d="m -491.80707,877.67454 c 3.23882,11.80762 12.93647,41.3193 35.08705,56.71714 l 0.28153,2.14381"
       id="path334"
       style="fill:none;stroke:#002577;stroke-width:2.31058836;stroke-miterlimit:3.86369991" />
    <path
       d="m -487.14327,947.90767 c 5.68716,1.3673 9.35602,1.36634 14.49293,-0.21323"
       id="path336"
       style="fill:none;stroke:#002577;stroke-width:2.31058836;stroke-miterlimit:3.86369991" />
    <path
       d="m -479.42342,979.39881 c 1.11972,8.90825 2.50272,19.55071 2.92627,21.25039 0.74766,3.0014 1.49535,18.0081 1.49535,18.0081 l 0.3737,14.5774 0.37399,18.4367 0,16.7215 0,4.7166 c -3.06985,2.463 -4.68156,6.1391 -4.83557,11.0275"
       id="path338"
       style="fill:none;stroke:#002577;stroke-width:2.31058836;stroke-miterlimit:3.86369991" />
    <path
       d="m -508.98971,935.44308 c -1.90768,3.29049 -11.32734,-2.95585 -11.80468,6.3665 -0.36667,7.16435 0.84228,15.26056 6.88264,16.15047 l 4.44525,-3.37287 1.19012,-1.36795"
       id="path340"
       style="fill:none;stroke:#002577;stroke-width:2.13012314;stroke-linejoin:round;stroke-miterlimit:3.86369991" />
    <path
       d="m -514.59355,931.62252 c -2.59028,-46.53812 -1.38584,-87.30962 5.34276,-118.18054 -18.11816,30.17192 -10.6664,118.21284 -10.6664,118.21284 l 5.32364,-0.0322 z"
       id="path342"
       style="fill:#fab700;fill-rule:evenodd" />
    <path
       d="m -503.91336,931.60445 -1.30809,4.07313 c -3.38557,2.12347 -4.434,2.23588 -4.39598,2.23328"
       id="path344"
       style="fill:none;stroke:#002577;stroke-width:2.55617619;stroke-linejoin:round;stroke-miterlimit:3.86369991" />
    <path
       d="m -510.07025,936.90533 c 0,0 3.32217,10.12765 0.6032,17.68152"
       id="path346"
       style="fill:none;stroke:#002577;stroke-width:2.13012314;stroke-linejoin:round;stroke-miterlimit:3.86369991" />
    <path
       d="m -514.5023,931.88772 3.6708,0.0936 1.70097,0 c 0,0 1.02055,2.28431 -0.5672,3.09023 -1.58716,0.8059 -2.67221,0.78845 -2.67221,0.78845"
       id="path348"
       style="fill:none;stroke:#002577;stroke-width:1.64488959;stroke-linejoin:round;stroke-miterlimit:3.86369991" />
    <path
       d="m -513.41132,957.40479 c -1.22703,1.27234 -2.56523,1.48423 -4.81869,1.71519 -4.36276,0.44702 -8.72552,-5.4256 -9.74918,-13.91364 -1.13125,-9.38245 -0.0422,-13.28665 8.06259,-13.55086"
       id="path350"
       style="fill:none;stroke:#002577;stroke-width:1.64488959;stroke-miterlimit:3.86369991" />
    <path
       d="m -512.00187,935.77287 -5.81671,0 c 0,0 -3.09381,0.94448 -3.2318,3.82959 -0.21972,4.59546 -0.29266,11.09247 1.43087,13.64552 l 1.72376,2.04238"
       id="path352"
       style="fill:none;stroke:#002577;stroke-width:1.64488959;stroke-miterlimit:3.86369991" />
    <path
       d="m -492.05096,846.16438 0.50438,3.47204 -0.71669,1.48972 -3.14481,-0.23919 -3.68433,-0.13898 c 0,0 -2.06594,-0.22606 -2.60408,-0.43834 -0.5379,-0.21324 -2.33317,-0.5391 -2.33317,-0.5391 0,0 -2.66604,-4.04763 0.13798,-6.49474 2.80513,-2.44613 5.69507,-4.17036 6.23804,-4.57736 0.54236,-0.407 0.81129,-0.30038 0.81129,-0.30038"
       id="path354"
       style="fill:none;stroke:#002577;stroke-width:1.92551398;stroke-miterlimit:3.86369991" />
    <line
       clip-rule="evenodd"
       stroke-miterlimit="3.8637"
       x1="-492.08377"
       y1="846.92047"
       x2="-492.08377"
       y2="850.84442"
       id="line356"
       style="fill:none;stroke:#002577;stroke-width:0.77019608;stroke-miterlimit:3.86369991" />
    <path
       d="m -491.58744,849.84184 c 0,0 -0.87355,3.35543 -0.40552,4.93268 0.46803,1.57725 1.3056,5.55995 1.44329,6.19206 0.0929,0.42896 0.80854,4.8348 1.21487,5.78835 0.40636,0.95382 1.33852,4.99014 4.26869,5.88941 2.93022,0.89957 6.20057,0.26812 8.06683,-1.16768"
       id="path358"
       style="fill:none;stroke:#002577;stroke-width:1.54039216;stroke-miterlimit:3.86369991" />
    <path
       d="m -485.91572,864.7923 c 0,0 1.42606,-0.5966 1.91047,-0.36078 0.48438,0.2359 1.87133,0.42248 1.87133,0.42248 0,0 1.72713,-0.36113 2.30359,-0.17119 0.57674,0.19058 1.49566,0.19386 1.76767,0.15837"
       id="path360"
       style="fill:none;stroke:#002577;stroke-width:1.15531778;stroke-miterlimit:3.86369991" />
    <path
       d="m -484.66227,866.91577 c 0,0 3.40385,0.76166 4.83109,0.0743"
       id="path362"
       style="fill:none;stroke:#002577;stroke-width:1.15531778;stroke-miterlimit:3.86369991" />
    <path
       d="m -479.94383,850.16 c 0,0 3.07017,-1.44773 5.75675,0.83077"
       id="path364"
       style="fill:none;stroke:#002577;stroke-width:1.15531778;stroke-miterlimit:3.86369991" />
    <path
       d="m -483.84896,849.94551 c 0.23642,0.73712 -0.22235,2.87866 -0.62095,3.73207 -0.39878,0.85337 -0.51479,2.39576 -0.76966,3.05179 -0.25605,0.65603 -0.57619,1.77265 -0.55955,2.39349 0.0293,0.62051 0.0293,0.56915 0.85101,1.0837 0.83218,0.51455 1.4188,0.071 2.05888,-0.14852 0.64067,-0.2198 1.20925,-0.42866 1.78544,-0.23919 0.57674,0.19057 1.41088,-0.32818 1.39679,-1.00037 -0.0293,-0.67217 -0.19423,-1.66413 -0.58178,-2.04882 -0.3875,-0.38506 -1.21461,-1.00264 -1.21461,-1.00264"
       id="path366"
       style="fill:none;stroke:#002577;stroke-width:0.92415988;stroke-miterlimit:3.86369991" />
    <path
       d="m -489.58572,850.37512 c 0.4641,-0.0775 3.41091,-1.97262 5.85811,-0.0322"
       id="path368"
       style="fill:none;stroke:#002577;stroke-width:1.15531778;stroke-miterlimit:3.86369991" />
    <ellipse
       cx="1628.149"
       cy="2513.3931"
       rx="4.5739999"
       ry="1.136"
       transform="matrix(-0.4402182,-0.00883802,0.00770538,-0.50492755,210.34659,2136.1373)"
       id="ellipse372"
       style="fill:#002577;stroke:#002577;stroke-width:1.63329995;stroke-miterlimit:3.86369991" />
    <path
       d="m -485.39531,872.52741 c 0.10693,0.0421 0.21679,0.0841 0.3292,0.11631 2.93022,0.89894 6.20057,0.26811 8.06683,-1.16769"
       id="path376"
       style="fill:none;stroke:#002577;stroke-width:1.54039216;stroke-miterlimit:3.86369991" />
    <path
       d="m -492.6077,825.44753 c 0,0 -7.66073,2.60444 -6.69793,6.01638 0.96316,3.4126 1.67057,4.96596 2.38078,6.10713 0.71078,1.14153 2.11493,5.58936 2.55507,6.83133 0.44046,1.24132 0.1746,3.50174 1.95892,2.49427 10.13863,-5.72243 31.96228,4.18038 27.2678,3.74886 -1.26447,-0.11631 14.1277,3.5324 16.65068,1.63958 0.54235,-0.407 1.62744,-1.22098 -0.14648,-4.22884 -1.01498,-1.72034 -4.102,-6.22955 -6.26168,-8.43569 -1.42753,-1.45808 -5.57034,-4.56898 -6.81113,-6.95311 -1.24021,-2.3838 -4.21713,-4.37581 -6.46104,-4.81058 -2.24418,-0.43476 -6.28141,-1.50651 -9.33915,-1.33079 -3.05808,0.17447 -3.95415,-0.14196 -5.57005,-0.46805 0.79556,0.16165 -7.24734,-0.94931 -9.52473,-0.61049 z"
       id="path378"
       style="fill:none;stroke:#002577;stroke-width:1.53968501;stroke-miterlimit:3.86369991" />
    <path
       d="m -477.14039,1011.1935 c 0,0 8.07219,5.6805 17.61243,-0.2132 8.88826,-5.4892 1.65108,-1.0527 1.65108,-1.0527"
       id="path380"
       style="fill:none;stroke:#002577;stroke-width:2.31068301;stroke-miterlimit:3.86369991" />
    <path
       d="m -493.19854,1011.8767 c 0,0 8.9339,4.8458 18.10663,-0.6257"
       id="path382"
       style="fill:none;stroke:#002577;stroke-width:2.31068301;stroke-miterlimit:3.86369991" />
    <ellipse
       cx="1650.4139"
       cy="2514.073"
       rx="4.8080001"
       ry="1.1950001"
       transform="matrix(-0.43788456,-0.05282596,0.04605602,-0.50225088,129.65166,2202.8516)"
       id="ellipse386"
       style="fill:#002577;stroke:#002577;stroke-width:1.63329995;stroke-miterlimit:3.86369991" />
    <path
       d="m -488.97769,953.79936 c 5.41232,2.31404 13.75963,1.68288 18.98776,-0.20996"
       id="path390"
       style="fill:none;stroke:#002577;stroke-width:2.31058836;stroke-miterlimit:3.86369991" />
    <rect
       width="74.210541"
       height="11.486368"
       x="-420.2648"
       y="1075.4453"
       id="rect394"
       style="fill:#fab700;fill-rule:evenodd;stroke:#002577;stroke-width:0.3208954;stroke-miterlimit:3.86369991" />
    <g
       transform="matrix(2.1876277,0,0,1.2475565,1.0925729,1415.7647)"
       id="g6296"
       style="fill:#fab700;fill-opacity:1;stroke:#002577;stroke-opacity:1">
      <path
         d="m -341.13311,-226.79958 c 16.6189,23.23253 18.3312,28.08263 18.3312,28.08263 l 123.3954,-0.4076 20.77363,-27.3084 -162.44983,-0.4076 4.6962,6.7849"
         id="path8425"
         style="fill:#fab700;fill-opacity:1;stroke:#002577;stroke-width:0.14402907px;stroke-linecap:butt;stroke-linejoin:miter;stroke-opacity:1" />
    </g>
  </g>
</svg>
