<?xml version="1.0" encoding="UTF-8" standalone="no"?>
<!-- Created with Inkscape (http://www.inkscape.org/) -->

<svg
   xmlns:dc="http://purl.org/dc/elements/1.1/"
   xmlns:cc="http://creativecommons.org/ns#"
   xmlns:rdf="http://www.w3.org/1999/02/22-rdf-syntax-ns#"
   xmlns:svg="http://www.w3.org/2000/svg"
   xmlns="http://www.w3.org/2000/svg"
   xmlns:sodipodi="http://sodipodi.sourceforge.net/DTD/sodipodi-0.dtd"
   xmlns:inkscape="http://www.inkscape.org/namespaces/inkscape"
   id="svg2"
   sodipodi:version="0.32"
   inkscape:version="0.48.4 r9939"
   width="38cm"
   height="25cm"
   version="1.0"
   sodipodi:docname="Flag_of_South_Carolina_(1861).svg">
  <metadata
     id="metadata7">
    <rdf:RDF>
      <cc:Work
         rdf:about="">
        <dc:format>image/svg+xml</dc:format>
        <dc:type
           rdf:resource="http://purl.org/dc/dcmitype/StillImage" />
      </cc:Work>
    </rdf:RDF>
  </metadata>
  <defs
     id="defs5" />
  <sodipodi:namedview
     inkscape:window-height="742"
     inkscape:window-width="1024"
     inkscape:pageshadow="2"
     inkscape:pageopacity="1"
     borderopacity="1.0"
     bordercolor="#666666"
     pagecolor="#ffffff"
     id="base"
     showgrid="false"
     inkscape:grid-points="true"
     gridtolerance="0.5cm"
     inkscape:zoom="0.36774106"
     inkscape:cx="395.30329"
     inkscape:cy="625.3287"
     inkscape:window-x="-4"
     inkscape:window-y="0"
     inkscape:current-layer="svg2"
     inkscape:document-units="cm"
     showguides="true"
     inkscape:guide-bbox="true"
     guidetolerance="0.5cm"
     inkscape:window-maximized="0">
    <inkscape:grid
       id="GridFromPre046Settings"
       type="xygrid"
       originx="0cm"
       originy="0cm"
       spacingx="0.5cm"
       spacingy="0.5cm"
       color="#3f3fff"
       empcolor="#3f3fff"
       opacity="0.15"
       empopacity="0.38"
       empspacing="5" />
  </sodipodi:namedview>
  <rect
     style="opacity: 1; fill: rgb(0, 40, 104); fill-opacity: 1; stroke: none; stroke-width: 0.814961; stroke-linejoin: miter; stroke-miterlimit: 4; stroke-dasharray: none; stroke-dashoffset: 0pt; stroke-opacity: 1;"
     id="rect7053"
     width="1346.4567"
     height="885.82678"
     x="0"
     y="1.057302e-005" />
  <g
     id="g5258"
     transform="matrix(0.858798, 0, 0, 0.858798, -203.336, 67.5986)">
    <path
       id="path4383"
       d="M 991.82614,355.25759 L 992.73247,406.91835 L 992.43036,437.43143 L 995.75356,476.70569 L 993.6388,487.58164 L 993.94091,521.11582 L 990.31559,570.3597 L 987.89871,599.36223 L 983.97129,680.02552 L 968.56369,686.36982 L 944.99913,704.4964 L 921.43458,725.94619 L 907.83964,743.46855 L 901.79745,751.32341 L 898.17213,760.08459 L 920.52825,770.65843 L 948.92656,773.37741 L 1039.2574,776.70062 L 1116.8996,765.82467 L 1133.8177,760.08459 L 1134.1198,755.25083 L 1115.0869,733.49893 L 1112.3679,729.57151 L 1093.6371,712.65336 L 1057.6861,679.72341 L 1054.0607,676.70231 L 1049.8312,641.05337 L 1044.6953,563.10906 L 1040.4658,478.82046 L 1043.789,422.32594 L 1047.4143,360.39346 L 1025.0582,361.6019 L 1021.4329,379.42637 L 1012.3696,392.71919 L 1006.9316,382.74957 L 1002.0979,357.07025 L 991.82614,355.25759 z "
       style="fill:#ffffff;fill-opacity:1;fill-rule:evenodd;stroke:none;stroke-width:1px;stroke-linecap:butt;stroke-linejoin:miter;stroke-opacity:1" />
    <g
       id="g4379">
      <path
         style="fill:#ffffff;fill-opacity:1;fill-rule:evenodd;stroke:none;stroke-width:1px;stroke-linecap:butt;stroke-linejoin:miter;stroke-opacity:1"
         d="M 874.5759,146.97318 L 839.96884,186.27996 L 817.32472,231.14096 L 807.49802,270.0205 L 812.625,308.04554 L 822.45169,299.07334 L 838.6871,295.22811 L 830.14215,347.35232 L 844.24132,399.90378 L 855.77701,375.12341 L 863.04022,372.55993 L 883.12085,326.41718 L 892.94755,328.55342 L 885.68434,362.30598 L 892.94755,368.7147 L 890.81131,404.6035 L 905.76498,414.4302 L 909.18296,410.58497 L 923.28213,390.07708 L 926.70011,366.57846 L 939.51754,364.44222 L 945.07176,382.38662 L 943.79002,409.30322 L 964.2979,430.23836 L 977.54258,408.87598 L 983.52405,348.63406 L 993.77799,352.05204 L 1003.6047,354.61553 L 1011.7224,395.20405 L 1019.8401,383.24112 L 1027.5305,359.7425 L 1048.4657,360.16975 C 1048.4657,360.16975 1052.3109,419.12992 1055.7289,422.12065 C 1059.1469,425.11139 1077.9458,461.00019 1077.9458,461.00019 L 1085.6362,445.19203 L 1102.7262,390.93158 L 1106.1442,369.14195 L 1137.7605,434.93808 L 1145.8782,433.22909 L 1159.1229,457.58221 L 1162.5408,438.35606 L 1163.3953,412.29396 L 1168.9496,411.86671 L 1168.5223,370.85094 L 1183.0487,380.25039 L 1188.1757,399.47653 L 1201.4204,400.33102 L 1210.8198,408.44873 L 1212.5288,387.08635 L 1219.3648,384.09561 L 1215.9468,357.60626 L 1226.2007,347.35232 L 1239.4454,358.03351 L 1240.7272,321.29021 C 1240.7272,321.29021 1243.7179,315.73599 1243.7179,314.027 C 1243.7179,312.31801 1241.5817,297.79159 1241.5817,297.79159 L 1234.3184,267.45701 L 1218.5103,241.82215 L 1231.3277,234.1317 C 1231.3277,234.1317 1234.3184,215.3328 1233.464,213.62381 C 1232.6095,211.91482 1219.3648,180.29849 1219.3648,180.29849 L 1209.9653,165.34483 L 1191.1664,149.53666 L 1151.4324,141.84621 L 1144.1692,142.7007 L 1119.8161,121.33832 L 1068.1191,113.64786 L 1060.4286,114.07511 L 1047.1839,99.975941 L 1034.7938,101.68493 L 1026.6761,111.08438 L 1004.0319,98.694201 L 987.36928,102.11218 L 973.69735,114.50236 L 939.94479,111.51163 L 916.01892,123.47456 L 898.50177,126.46529 L 878.42113,139.70997 L 874.5759,146.97318 z "
         id="path3504" />
      <path
         style="fill:#cccccc;fill-opacity:1;stroke:none;stroke-opacity:1"
         d="M 947.79166,776.74004 C 937.08146,775.37565 923.60396,773.05719 917.84166,771.58793 C 906.56446,768.71249 895.56826,762.83263 895.56826,759.67793 C 895.56826,756.37471 914.25486,729.56788 921.77486,722.08333 C 925.68786,718.1887 934.55106,710.22243 941.47086,704.38049 C 948.39066,698.53855 957.02506,691.17716 960.65856,688.02182 C 964.29196,684.8665 970.62966,680.49746 974.74226,678.31284 C 981.29326,674.83294 982.36006,673.40517 983.35216,666.78951 C 983.97496,662.63632 984.83186,659.23824 985.25636,659.23824 C 985.68096,659.23824 988.89916,662.02644 992.40806,665.43424 C 995.91696,668.84203 999.63156,671.63023 1000.6627,671.63023 C 1001.6939,671.63023 1004.2945,669.4395 1006.442,666.76195 L 1010.3465,661.89367 L 1015.4568,666.76195 C 1021.7548,672.76169 1024.3044,672.88255 1026.8471,667.3019 C 1029.6942,661.05317 1033.4501,660.251 1035.4336,665.46805 C 1037.5995,671.16457 1038.9369,671.00674 1044.7631,664.36705 C 1052.2162,655.87341 1050.7205,645.13632 1042.2773,646.52222 C 1040.6933,646.78224 1038.9258,645.76655 1038.3497,644.26518 C 1036.7843,640.18579 1032.6604,640.96616 1029.3876,645.96111 C 1025.695,651.59676 1021.6377,651.62894 1020.2334,646.03373 C 1019.6325,643.63952 1017.9716,640.71018 1016.5424,639.52409 C 1014.4244,637.76629 1013.2291,638.21622 1010.0775,641.95763 C 1007.951,644.48216 1005.3393,647.99044 1004.2738,649.7538 C 1002.5354,652.63096 1001.8477,652.1855 997.57186,645.41209 C 994.95126,641.26079 992.13096,638.28216 991.30446,638.79293 C 990.47806,639.30369 989.26286,643.3162 988.60396,647.70962 C 987.94516,652.10306 986.55176,655.69767 985.50766,655.69767 C 984.19456,655.69767 984.01436,650.10285 984.92326,637.55226 C 985.64596,627.57228 986.11156,613.96117 985.95796,607.30534 C 985.80426,600.64952 986.56596,592.51508 987.65056,589.22881 L 989.62246,583.25377 L 995.00366,589.38265 L 1000.385,595.51153 L 1005.6392,591.09042 C 1009.8154,587.5763 1011.5934,587.04396 1014.3057,588.49552 C 1016.1824,589.49993 1017.7179,591.09032 1017.7179,592.02972 C 1017.7179,595.28308 1022.4083,593.71703 1026.3942,589.13284 L 1030.3981,584.52798 L 1033.9707,588.36272 C 1037.3641,592.00509 1037.712,592.04471 1040.9077,589.15264 C 1046.207,584.35692 1044.9371,579.93121 1035.4954,570.28902 L 1026.7185,561.32586 L 1023.5459,566.89889 C 1019.886,573.32798 1016.8722,573.98902 1014.1774,568.95375 C 1012.3387,565.51817 1007.0962,563.95705 1007.0962,566.84511 C 1007.0962,567.63267 1005.9875,569.79332 1004.6324,571.64656 C 1002.5698,574.46731 1001.7175,574.64176 999.39906,572.71765 C 996.26876,570.1198 992.93396,571.42821 992.93396,575.25422 C 992.93396,576.65724 992.21756,577.80517 991.34186,577.80517 C 989.07866,577.80517 988.07076,562.41741 989.73346,553.24924 C 990.50536,548.99321 991.16206,536.24716 991.19286,524.92469 C 991.22356,513.60222 991.43996,493.5839 991.67356,480.43954 C 991.93376,465.79854 991.27206,453.65183 989.96526,449.08318 C 988.64196,444.45653 988.39136,439.67605 989.30526,436.48968 C 991.01146,430.54031 990.49376,386.78401 988.47946,366.69878 C 986.96126,351.56012 984.08246,348.12023 984.08246,361.4447 C 984.08246,366.10079 983.00446,374.06638 981.68676,379.14602 C 980.36916,384.22565 979.66956,392.32077 980.13216,397.1352 C 981.41036,410.43685 979.43866,417.95932 973.97446,420.62855 C 971.36336,421.90406 968.47396,425.41038 967.40416,428.6017 C 965.01836,435.7184 960.85486,440.00998 958.03046,438.26368 C 956.84626,437.53148 954.76876,432.58135 953.41396,427.26342 C 951.29626,418.95126 950.30606,417.51698 946.35766,417.04245 C 940.43576,416.33073 939.15156,412.06921 940.64786,398.09618 C 941.42196,390.86792 941.17666,386.56443 939.94706,385.80452 C 938.90646,385.16141 938.05516,382.26736 938.05516,379.3733 C 938.05516,373.42655 934.68286,371.29013 929.59446,374.01333 C 927.03256,375.38446 925.91466,378.43357 925.16356,386.09907 C 923.86416,399.36109 920.63646,406.05588 915.53346,406.07379 C 912.30336,406.08512 911.13286,407.75006 908.98986,415.38159 C 907.55436,420.49329 906.13796,426.60475 905.84236,428.96263 C 905.54676,431.3205 904.33846,433.56783 903.15726,433.95667 C 900.96476,434.67849 899.95066,431.71052 898.25226,419.60073 C 897.02346,410.83927 895.89736,409.12918 892.02386,410.1421 C 886.42676,411.60579 885.26126,409.2733 886.90176,399.8916 C 887.75306,395.02332 888.97506,386.78771 889.61726,381.59023 C 890.75726,372.3645 890.68416,372.15447 886.53806,372.73881 C 880.73386,373.55682 880.13856,367.2092 884.74726,353.6436 C 887.89446,344.38017 887.98926,342.95206 885.61436,340.58708 C 883.24316,338.22572 882.56846,338.39446 879.52156,342.11091 C 877.63706,344.40952 876.09516,348.94495 876.09516,352.18967 C 876.09516,356.01106 874.89166,358.93215 872.67846,360.48233 C 870.79926,361.79858 866.98166,368.62129 864.19486,375.64392 C 860.10306,385.95536 858.69366,387.98388 856.87076,386.18569 C 853.99016,383.3443 850.26466,387.97396 847.66616,397.62405 C 846.67496,401.30535 845.19546,404.31732 844.37856,404.31732 C 841.58686,404.31732 838.74866,399.32708 837.67206,392.52586 C 837.06916,388.71679 834.72586,383.97255 832.34106,381.73261 C 828.36306,377.99634 828.16506,376.93134 829.30246,365.38854 C 830.33676,354.89229 830.08726,352.87541 827.63806,351.93558 C 823.63436,350.39924 824.03176,343.31196 828.63886,334.08727 C 831.98626,327.38478 832.75756,326.74868 834.24096,329.46766 C 835.18706,331.20189 836.69556,333.10866 837.59306,333.70493 C 838.54286,334.33584 838.05106,338.24691 836.41666,343.06077 C 832.33346,355.08768 832.65546,365.45335 837.14896,366.62841 C 839.78876,367.31875 840.76656,369.19058 840.99226,373.98638 C 841.15886,377.52403 841.47246,381.61342 841.68926,383.07391 C 841.90606,384.53439 842.16806,387.12343 842.27156,388.82733 C 842.37506,390.53123 843.54646,391.92533 844.87456,391.92533 C 847.39946,391.92533 849.54096,381.29845 849.54096,368.76904 C 849.54096,359.92643 851.92906,358.78044 856.62206,365.37106 C 858.71826,368.31492 861.16906,370.26886 862.06826,369.71311 C 864.66216,368.11001 863.96756,350.34103 860.96536,341.4983 C 859.45966,337.06312 858.74206,332.60193 859.37086,331.58455 C 860.98116,328.97899 866.65586,334.46335 868.03496,339.958 C 868.64526,342.38964 870.11106,344.05015 871.29216,343.64803 C 873.70756,342.8257 873.91126,333.0131 871.75066,321.55653 C 870.12436,312.93277 873.04236,311.05143 876.44876,318.52756 C 877.61376,321.08457 879.69616,322.79539 881.27906,322.49597 C 885.66616,321.66611 885.76166,310.17851 881.45166,301.73032 C 878.67996,296.29728 878.32366,294.32002 880.02456,293.80947 C 888.54576,291.2516 888.48716,291.33895 888.48716,281.1906 C 888.48716,274.02647 889.10506,271.45651 890.70006,271.98708 C 891.91706,272.39197 893.31116,274.98168 893.79806,277.742 C 894.98666,284.48189 898.21936,285.1709 901.94876,279.47926 C 904.76916,275.17471 904.79016,274.42137 902.21116,270.05546 C 899.99116,266.29728 899.74166,263.52435 901.01196,256.725 C 902.58716,248.293 901.93056,244.28024 899.14896,245.34086 C 896.83636,246.22265 886.02466,261.13367 879.48436,272.4612 C 873.09826,283.52192 860.16266,312.47278 860.16266,315.7047 C 860.16266,318.03809 857.19036,318.15491 855.78246,315.87686 C 855.20576,314.94376 857.58346,307.97326 861.06626,300.38687 C 864.54906,292.80048 869.03446,283.00859 871.03396,278.62714 C 885.11236,247.77735 906.05076,226.02808 936.11806,211.02273 C 946.88206,205.65087 955.17336,200.74015 954.54326,200.11003 C 953.91316,199.4799 948.27766,198.96435 942.02006,198.96435 C 932.17866,198.96435 930.51906,199.43648 929.72806,202.46129 C 929.11206,204.81665 926.71006,206.33453 922.37006,207.1109 C 913.30146,208.73314 897.33856,216.47103 897.33856,219.24471 C 897.33856,220.52092 899.13096,222.05631 901.32176,222.65667 C 904.64446,223.56725 904.86456,224.03727 902.64946,225.49146 C 901.18896,226.45023 897.60416,227.25887 894.68316,227.28844 C 885.27086,227.38372 864.54946,236.75368 866.55936,240.0057 C 867.05066,240.80071 871.58796,241.4765 876.64226,241.50746 C 885.10746,241.55933 885.56086,241.76862 882.39536,244.16289 C 880.50536,245.59241 877.43926,246.76202 875.58176,246.76202 C 870.33056,246.76202 860.74136,251.91057 854.93896,257.84543 C 848.85566,264.06765 849.49436,266.91552 856.62206,265.35001 C 862.60376,264.03621 865.20606,267.07653 860.33236,269.68487 C 858.42396,270.70625 853.86986,275.19392 850.21236,279.65746 C 844.53216,286.58938 843.86916,288.26441 845.66646,291.14234 C 848.16066,295.13617 848.39476,300.26884 846.18966,302.61449 C 845.32006,303.53946 842.07216,309.07603 838.97206,314.91796 C 833.68286,324.88498 833.41156,325.12512 834.57046,318.81381 C 835.78896,312.1776 835.74096,312.10413 830.96996,313.30159 C 826.15656,314.50968 826.14016,314.48187 827.37166,307.19289 C 828.14386,302.62196 827.93606,299.87055 826.81866,299.87055 C 823.88426,299.87055 814.13526,308.83617 814.13526,311.53476 C 814.13526,315.84324 808.94686,314.25218 807.77536,309.58443 C 806.41416,304.16101 808.39606,289.72248 810.69696,288.30048 C 811.61436,287.7335 812.36496,289.6595 812.36496,292.58046 C 812.36496,299.36614 814.93986,300.91048 820.34676,297.36772 C 822.70386,295.82331 826.55046,294.5597 828.89486,294.5597 C 834.22846,294.5597 849.08716,279.23551 846.37916,276.5276 C 845.20066,275.34908 843.36486,275.42505 840.87956,276.75513 C 833.94976,280.46386 836.57496,272.84649 845.11516,264.46486 C 851.53056,258.16869 853.08146,255.44808 853.08146,250.49067 C 853.08146,246.88545 854.48326,242.8205 856.46456,240.68012 C 860.54236,236.27497 862.00116,227.03341 858.78936,225.95293 C 857.54726,225.53507 853.44716,228.27695 849.67816,232.04599 C 843.52686,238.19722 842.69486,240.11685 841.55116,250.79668 C 840.27586,262.70547 837.14896,267.38427 837.14896,257.38373 C 837.14896,254.17348 836.22756,252.07287 834.81946,252.07287 C 832.18946,252.07287 825.80186,262.85157 824.06616,270.21829 C 823.34546,273.27743 821.74756,275.08657 819.76646,275.08657 C 818.03236,275.08657 815.65766,276.04252 814.48926,277.21091 C 812.83706,278.86317 812.36496,278.66647 812.36496,276.32577 C 812.36496,274.16209 810.87236,273.31628 807.05406,273.31628 C 802.24166,273.31628 801.74366,272.77638 801.74776,267.56286 C 801.75056,264.12362 804.26226,257.64707 807.99226,251.46115 C 812.91796,243.29248 814.01066,239.93188 813.18026,235.50573 C 812.33156,230.98134 813.00586,229.07426 816.67236,225.62973 C 819.17156,223.28186 821.21636,220.40234 821.21636,219.23079 C 821.21636,218.05925 822.31056,216.19265 823.64786,215.08278 C 824.98516,213.97292 826.58696,209.23812 827.20736,204.561 C 828.23156,196.8404 830.29926,192.83782 842.48226,174.99308 C 843.95516,172.83573 848.67146,168.38465 852.96296,165.1018 C 857.25436,161.81894 862.25386,156.34477 864.07276,152.93697 C 872.92466,136.35296 902.14736,117.64667 919.35306,117.55044 C 921.23756,117.53991 924.69306,115.73887 927.03196,113.54814 C 930.94136,109.8862 932.92776,109.56957 951.66506,109.62166 L 972.04586,109.67831 L 978.74106,102.98309 C 984.83656,96.88755 986.29346,96.28786 995.00676,96.28786 C 1004.0207,96.28786 1009.954,98.33386 1020.9238,105.22486 C 1024.5368,107.49448 1025.2606,107.46894 1027.1197,105.00628 C 1031.6481,99.00782 1038.7539,95.854913 1045.0728,97.04035 C 1050.5918,98.07572 1053.9664,100.97245 1059.3196,109.26993 C 1060.693,111.39867 1066.8605,112.39366 1086.8291,113.70796 C 1116.8004,115.68064 1122.0787,117.44148 1135.1892,129.84077 C 1141.3416,135.65945 1146.175,138.77469 1149.0507,138.77469 C 1155.1363,138.77469 1187.493,145.63903 1191.4895,147.7779 C 1193.2807,148.73659 1194.7464,150.30712 1194.7464,151.26796 C 1194.7464,152.2288 1198.3446,155.29686 1202.7424,158.08586 C 1212.8871,164.51945 1216.1465,168.84935 1221.216,182.62683 C 1223.4628,188.73287 1225.9715,194.14311 1226.791,194.64958 C 1230.598,197.00245 1235.4629,212.42522 1235.4629,222.14148 C 1235.4629,231.05158 1234.7459,233.29312 1230.2629,238.39903 C 1225.6451,243.65836 1225.2289,245.05773 1226.5458,250.8967 C 1227.3615,254.51305 1230.0998,260.1871 1232.631,263.50569 C 1235.9498,267.85689 1237.2332,271.67746 1237.2332,277.20631 C 1237.2332,281.42305 1238.8264,289.23208 1240.7737,294.5597 C 1242.7211,299.88731 1244.3143,306.4938 1244.3143,309.24077 C 1244.3143,311.98775 1245.2425,317.92143 1246.3769,322.42671 C 1248.2963,330.04933 1248.1734,330.79488 1244.6067,333.16311 C 1241.1838,335.43581 1240.7737,337.29482 1240.7737,350.53957 C 1240.7737,366.9814 1239.1668,368.85065 1233.4141,359.1005 C 1229.4154,352.32334 1226.0616,351.86402 1225.1627,357.97044 C 1224.8527,360.07634 1222.9253,362.97169 1220.8796,364.40454 C 1217.4965,366.77417 1217.3474,367.63444 1219.2304,373.91948 C 1222.3179,384.22457 1221.8731,389.73476 1217.8506,391.01143 C 1214.1006,392.20165 1211.5262,397.85112 1213.3725,400.83853 C 1214.006,401.8636 1213.9633,409.43868 1213.2774,417.67207 C 1212.3648,428.62718 1211.3744,432.64186 1209.5844,432.64186 C 1208.2391,432.64186 1207.0888,432.44271 1207.0283,432.19929 C 1206.9677,431.95588 1206.5362,428.1719 1206.0694,423.79044 C 1204.9871,413.63101 1202.0322,404.31732 1199.8913,404.31732 C 1198.9774,404.31732 1196.9,407.10551 1195.275,410.51331 C 1193.6499,413.92111 1191.2533,416.7093 1189.9491,416.7093 C 1186.3046,416.7093 1183.4784,408.09491 1183.2698,396.35104 L 1183.0812,385.72933 L 1176.9896,386.23524 C 1173.6392,386.5135 1170.3719,387.31012 1169.729,388.00553 C 1169.086,388.70093 1169.3074,394.44798 1170.221,400.77675 C 1172.2824,415.0579 1171.015,423.10226 1166.5181,424.27821 C 1163.5864,425.04488 1163.1494,426.9458 1163.0688,439.28036 C 1162.9688,454.58131 1160.8486,462.73669 1156.9709,462.73669 C 1154.6811,462.73669 1145.1785,444.37003 1145.1785,439.9442 C 1145.1785,437.33598 1142.4636,437.41929 1137.9655,440.16557 C 1134.9137,442.02888 1133.9736,441.88322 1132.0139,439.24339 C 1130.7339,437.51914 1129.1883,432.99194 1128.5792,429.18294 C 1127.8331,424.51686 1126.3597,421.90456 1124.0631,421.17564 C 1120.7113,420.11183 1116.854,407.94041 1116.854,398.42809 C 1116.854,393.47595 1112.1688,386.61447 1108.7873,386.61447 C 1106.1342,386.61447 1105.6162,388.27613 1106.1638,395.02993 C 1106.3445,397.25797 1105.2585,399.49124 1103.7044,400.08761 C 1101.5771,400.90392 1100.9214,403.81144 1100.9214,412.42754 C 1100.9214,423.08854 1100.6417,423.84417 1095.7608,426.36817 C 1091.9227,428.35291 1090.1503,430.97326 1088.8449,436.59277 C 1086.1313,448.27377 1081.4789,464.79539 1080.4213,466.50653 C 1078.524,469.57643 1076.1402,467.91212 1072.658,461.08644 C 1070.0101,455.89609 1067.8619,453.98221 1064.2131,453.56273 C 1059.4995,453.02081 1059.2979,452.57709 1058.7288,441.49328 C 1058.2027,431.24976 1057.5717,429.53485 1052.9809,425.8733 L 1047.824,421.76016 L 1045.9117,426.75845 C 1044.6743,429.99269 1044.1312,448.9382 1044.3728,480.43954 C 1044.5783,507.21508 1044.7609,531.91055 1044.7787,535.31835 C 1044.7965,538.72614 1045.9312,557.4469 1047.3003,576.92003 C 1048.6693,596.39315 1050.1985,619.89367 1050.6985,629.14341 C 1051.1984,638.39314 1052.3469,648.27071 1053.2507,651.09355 C 1054.1545,653.91641 1054.8939,660.29239 1054.8939,665.26243 L 1054.8939,674.29886 L 1068.6136,686.42919 C 1076.1594,693.10087 1094.0772,710.06076 1108.4306,724.11781 C 1143.1534,758.12359 1144.0923,762.17503 1118.4846,767.50291 C 1110.2853,769.20884 1099.992,771.49051 1095.6105,772.57329 C 1069.2422,779.08963 984.89826,781.46714 947.79166,776.74004 z M 1031.8802,772.43195 C 1031.8802,771.40083 1031.0836,771.04953 1030.1099,771.65129 C 1029.1363,772.25304 1028.3396,773.09669 1028.3396,773.52605 C 1028.3396,773.95542 1029.1363,774.30671 1030.1099,774.30671 C 1031.0836,774.30671 1031.8802,773.46307 1031.8802,772.43195 z M 1051.3533,768.99586 C 1051.3533,768.0222 1050.5567,767.22558 1049.5831,767.22558 C 1048.6094,767.22558 1047.8128,768.0222 1047.8128,768.99586 C 1047.8128,769.96952 1048.6094,770.76614 1049.5831,770.76614 C 1050.5567,770.76614 1051.3533,769.96952 1051.3533,768.99586 z M 944.74966,763.24244 C 945.98996,758.43716 947.23816,757.34116 952.32406,756.5918 C 957.89756,755.7706 958.39126,755.20821 958.15236,749.95323 C 957.86046,743.5337 961.86046,741.88026 963.69546,747.6619 C 964.29776,749.5594 966.25696,751.57736 968.04936,752.14624 C 969.84176,752.71512 971.71796,754.74743 972.21876,756.6625 C 972.76536,758.75275 974.63936,760.14444 976.90736,760.14444 C 978.98516,760.14444 982.95806,761.82478 985.73586,763.8785 C 989.64056,766.76537 991.53196,767.19541 994.07196,765.77393 C 996.52726,764.39987 998.11226,764.61843 1000.345,766.63899 C 1003.7948,769.761 1007.0962,768.42149 1007.0962,763.89978 C 1007.0962,760.31232 999.44856,753.0633 995.66386,753.0633 C 994.25916,753.0633 992.32326,754.4574 991.36186,756.1613 C 990.06776,758.45485 989.09276,758.74379 987.60686,757.27407 C 986.11466,755.79797 986.78626,754.00876 990.22586,750.29739 C 994.65696,745.5161 995.05366,745.42177 999.64626,748.0568 C 1002.6534,749.78215 1006.9234,750.49503 1011.1003,749.96908 C 1016.7766,749.25429 1018.9114,750.07418 1025.5605,755.52262 C 1034.8578,763.14104 1036.606,763.36538 1039.3718,757.29508 C 1041.1797,753.32723 1041.0001,752.32697 1038.099,750.20564 C 1036.2413,748.84725 1033.2472,748.20371 1031.4456,748.77555 C 1027.6336,749.98543 1023.0288,746.74578 1023.0288,742.85399 C 1023.0288,740.6056 1024.9474,740.3385 1034.614,741.24117 C 1043.8747,742.10595 1046.399,741.80212 1047.1954,739.72688 C 1048.5167,736.28354 1052.4698,736.41415 1053.8251,739.94592 C 1055.281,743.74 1053.6459,745.98217 1049.423,745.98217 C 1044.3115,745.98217 1043.2632,750.9145 1046.9283,757.72014 C 1050.3243,764.02609 1058.4345,766.35876 1058.4345,761.02958 C 1058.4345,759.5691 1057.6379,758.37416 1056.6642,758.37416 C 1055.6905,758.37416 1054.8939,757.12554 1054.8939,755.59943 C 1054.8939,753.627 1055.9213,753.15081 1058.4473,753.95252 C 1060.9935,754.76067 1063.5409,753.54011 1067.4349,749.64609 C 1070.4237,746.65728 1073.9376,744.21188 1075.2436,744.21188 C 1079.5306,744.21188 1083.2185,742.1065 1083.2185,739.65905 C 1083.2185,735.64723 1076.9713,733.59018 1064.7877,733.59018 C 1054.4687,733.59018 1052.8971,733.1199 1050.3806,729.27915 C 1047.5758,724.99858 1047.4027,724.97535 1025.8778,725.9924 C 1002.9682,727.07488 987.73776,724.93648 981.86966,719.81351 C 976.95466,715.52264 978.10496,694.64392 983.25636,694.64392 C 984.52206,694.64392 985.82326,695.2414 986.14786,695.97164 C 986.47236,696.70188 989.40076,699.17013 992.65526,701.45667 L 998.57256,705.61399 L 1003.8582,700.57153 L 1009.1438,695.52907 L 1012.3869,699.51221 C 1014.1706,701.70293 1017.1976,703.49535 1019.1135,703.49535 C 1021.0294,703.49535 1023.9196,701.70293 1025.5362,699.51221 C 1027.5288,696.81199 1028.7837,696.23417 1029.4323,697.71824 C 1029.9586,698.92228 1031.8137,701.66662 1033.5548,703.81678 L 1036.7204,707.72617 L 1040.9389,703.2246 C 1043.259,700.74875 1046.9498,697.77722 1049.1405,696.62121 C 1052.3491,694.92805 1053.1236,693.00487 1053.1236,686.73061 C 1053.1236,682.44679 1052.261,676.69926 1051.2067,673.95833 L 1049.2897,668.9748 L 1043.6606,675.64022 L 1038.0316,682.30565 L 1034.1025,678.37659 L 1030.1735,674.44753 L 1025.1765,679.23488 C 1022.4282,681.86791 1019.7224,684.02222 1019.1636,684.02222 C 1018.6047,684.02222 1017.1813,681.68957 1016.0003,678.83858 C 1012.7692,671.03775 1009.2823,670.72314 1005.0757,677.85285 C 1000.6416,685.36802 999.29606,685.52317 996.52716,678.83858 C 994.41806,673.74668 990.19326,670.5748 988.79736,673.03525 C 988.40726,673.72297 987.09356,677.36832 985.87806,681.13602 C 984.42756,685.6324 983.19626,687.22296 982.29506,685.76471 C 981.43896,684.3796 979.21846,683.97056 976.39816,684.67843 C 966.63826,687.12799 924.67366,722.73414 913.65146,737.91765 C 910.07826,742.83996 906.23266,747.66394 905.10576,748.63759 C 894.44856,757.84518 909.47936,768.33353 934.02136,768.81465 C 943.01896,768.99105 943.30426,768.84291 944.74966,763.24244 z M 974.64096,746.57226 C 972.28916,744.22043 973.56476,742.82819 978.77166,742.06398 C 983.01896,741.44061 984.08246,741.93216 984.08246,744.51848 C 984.08246,746.72625 982.77176,747.75245 979.95186,747.75245 C 977.67996,747.75245 975.29006,747.22137 974.64096,746.57226 z M 1024.7087,764.73895 C 1027.1946,760.09399 1026.0493,756.60387 1022.0392,756.60387 C 1020.304,756.60387 1019.4882,758.58528 1019.4882,762.79987 C 1019.4882,770.01951 1021.4856,770.76142 1024.7087,764.73895 z M 969.92026,764.03907 C 969.92026,760.36496 966.66726,756.60387 963.48946,756.60387 C 960.19736,756.60387 958.46376,763.83819 961.32196,765.64919 C 965.44616,768.26245 969.92026,767.42463 969.92026,764.03907 z M 1084.9888,761.91472 C 1084.9888,760.94107 1083.7938,760.14444 1082.3333,760.14444 C 1080.8728,760.14444 1079.6779,760.94107 1079.6779,761.91472 C 1079.6779,762.88838 1080.8728,763.68501 1082.3333,763.68501 C 1083.7938,763.68501 1084.9888,762.88838 1084.9888,761.91472 z M 1131.0162,756.60387 C 1131.0162,755.63022 1130.1726,754.83359 1129.1415,754.83359 C 1128.1103,754.83359 1127.759,755.63022 1128.3608,756.60387 C 1128.9626,757.57753 1129.8062,758.37416 1130.2356,758.37416 C 1130.6649,758.37416 1131.0162,757.57753 1131.0162,756.60387 z M 1114.2465,754.75605 C 1115.6744,752.44553 1111.9383,747.75245 1108.6709,747.75245 C 1105.6265,747.75245 1105.4364,754.2174 1108.4451,755.43145 C 1111.9632,756.85102 1113.0283,756.72699 1114.2465,754.75605 z M 1103.6482,744.77499 C 1106.0167,739.597 1108.762,735.36046 1109.7488,735.36046 C 1112.7795,735.36046 1111.7411,730.24758 1107.938,726.44448 C 1104.1849,722.69139 1100.4216,723.14674 1101.9644,727.16725 C 1103.2609,730.54587 1097.6416,734.47532 1091.5135,734.47532 C 1084.2445,734.47532 1083.2198,738.63575 1090.1476,740.02128 C 1095.5363,741.09905 1097.3905,744.67315 1093.7334,746.93336 C 1092.701,747.57144 1087.8967,748.30681 1083.0571,748.56752 C 1078.2177,748.82822 1073.8046,749.49512 1073.2502,750.0495 C 1070.3961,752.90361 1075.7776,754.62646 1086.9026,754.42019 L 1099.342,754.18952 L 1103.6482,744.77499 z M 1118.6242,741.55646 C 1118.6242,740.09597 1117.8276,738.90103 1116.854,738.90103 C 1115.8803,738.90103 1115.0837,740.09597 1115.0837,741.55646 C 1115.0837,743.01694 1115.8803,744.21188 1116.854,744.21188 C 1117.8276,744.21188 1118.6242,743.01694 1118.6242,741.55646 z M 1084.9888,724.63427 C 1084.9888,720.94095 1082.3844,720.02144 1080.5106,723.05325 C 1078.9048,725.65151 1081.0442,730.50825 1083.206,729.1722 C 1084.1865,728.5662 1084.9888,726.52412 1084.9888,724.63427 z M 1070.7072,725.48015 C 1068.9032,723.30653 1068.8467,721.9402 1070.4542,719.36623 C 1071.766,717.26562 1071.8891,715.65893 1070.7902,714.97978 C 1069.8365,714.39036 1069.0562,711.47887 1069.0562,708.5098 C 1069.0562,703.50641 1069.4123,703.2004 1073.9245,704.32649 C 1076.602,704.99474 1080.1917,706.80224 1081.9016,708.34318 C 1086.3125,712.31818 1088.0113,709.58955 1083.9452,705.06079 C 1076.8452,697.15272 1060.4509,685.7324 1059.1711,687.80312 C 1058.477,688.92615 1058.0315,696.40015 1058.1811,704.41198 C 1058.3876,715.47332 1057.8118,719.51118 1055.7883,721.19049 C 1050.5237,725.55978 1053.1677,726.93947 1068.8304,727.99601 C 1072.4684,728.24142 1072.7195,727.90482 1070.7072,725.48015 z M 1050.0256,717.9113 C 1054.0495,716.31084 1054.8939,714.89261 1054.8939,709.73515 C 1054.8939,701.7331 1051.7237,701.6082 1042.2316,709.23629 L 1035.0878,714.97725 L 1031.8725,711.00657 C 1027.7493,705.91469 1026.6956,706.00731 1021.6598,711.9042 C 1018.728,715.33725 1017.218,716.08508 1016.5378,714.44078 C 1016.0074,713.15834 1013.7913,710.03729 1011.6132,707.50509 L 1007.653,702.90111 L 1002.6563,708.50907 C 999.90806,711.59346 997.01506,714.11705 996.22736,714.11705 C 995.43966,714.11705 993.55926,711.72717 992.04876,708.8062 C 988.03536,701.04515 984.08246,701.86438 984.08246,710.45718 C 984.08246,718.4622 984.94196,718.95632 1002.1702,720.85658 C 1015.4821,722.32487 1043.2214,720.61764 1050.0256,717.9113 z M 1008.8665,634.45426 C 1013.383,628.1114 1016.9112,627.77087 1022.6225,633.12655 L 1026.8701,637.10969 L 1030.1221,633.10107 C 1032.5217,630.14327 1034.9186,629.21514 1039.2658,629.56051 L 1045.1573,630.02855 L 1045.6126,617.63656 C 1046.179,602.22061 1044.9301,599.78841 1038.0563,602.92031 C 1034.1021,604.72198 1032.8926,604.74107 1032.3158,603.0109 C 1031.0608,599.24584 1025.3431,600.61004 1022.1865,605.42767 L 1019.1667,610.0365 L 1014.1878,604.09996 L 1009.209,598.16344 L 1004.5371,602.52559 C 1000.6145,606.18806 999.32236,606.54881 996.48156,604.7747 C 992.12446,602.05363 991.15856,603.70011 989.88756,616.01516 C 988.90476,625.53796 989.06566,626.0031 995.69026,632.78734 C 999.43776,636.62513 1003.0847,639.76511 1003.7944,639.76511 C 1004.5042,639.76511 1006.7866,637.37523 1008.8665,634.45426 z M 1013.8556,555.38546 C 1018.0991,559.22577 1019.926,559.10192 1022.618,554.79147 C 1025.6353,549.95998 1029.1572,550.34843 1033.2478,555.9639 C 1038.3245,562.93308 1043.1124,560.55021 1041.8281,551.69362 C 1041.2986,548.04232 1040.8353,538.48273 1040.7985,530.45006 C 1040.7231,513.97364 1038.5408,511.76859 1031.6003,521.15607 C 1029.4407,524.07704 1027.0001,526.46693 1026.1768,526.46693 C 1025.3534,526.46693 1023.0346,523.67873 1021.0239,520.27093 C 1019.0133,516.86313 1016.6707,514.07494 1015.8183,514.07494 C 1014.9658,514.07494 1012.9925,516.54215 1011.4331,519.55761 C 1008.881,524.49279 1008.0026,524.9286 1002.6364,523.92189 C 996.93176,522.8517 996.59466,523.09229 994.81426,529.50349 C 991.62536,540.98671 992.46966,548.65721 997.59256,554.74543 L 1002.2512,560.28189 L 1006.4255,556.36037 C 1010.3393,552.68347 1010.8028,552.62266 1013.8556,555.38546 z M 1015.5884,505.22351 C 1017.4315,505.22351 1020.3814,506.81677 1022.1437,508.76408 C 1026.7553,513.85992 1029.0472,513.19957 1034.3004,505.26147 C 1039.7325,497.053 1040.492,486.19158 1036.1023,479.49212 C 1032.2009,473.53784 1029.3495,474.00993 1025.0336,481.32468 C 1020.7049,488.66141 1018.3626,489.10214 1015.6256,483.09496 C 1013.1267,477.6105 1010.1834,477.46992 1006.3591,482.65239 C 1004.3425,485.38527 1003.117,485.94094 1002.4551,484.42268 C 1000.8933,480.8404 996.97426,481.88602 995.81996,486.19296 C 993.39716,495.23393 994.67266,503.1441 999.47356,508.84957 L 1004.2429,514.51758 L 1008.2401,509.87055 C 1010.4385,507.31468 1013.7453,505.22351 1015.5884,505.22351 z M 1008.8665,468.93269 C 1010.0786,467.4722 1012.0825,466.27726 1013.3196,466.27726 C 1014.5567,466.27726 1016.0274,467.4722 1016.5878,468.93269 C 1018.0014,472.61635 1021.8816,472.24935 1025.6597,468.07469 C 1027.759,465.75492 1030.7091,464.7024 1034.3429,464.97669 L 1039.8465,465.39212 L 1040.3834,455.01399 C 1040.7897,447.15947 1040.1849,443.8233 1037.8961,441.29429 C 1033.1762,436.0788 1028.5076,437.11834 1025.6207,444.02766 C 1021.9906,452.7157 1019.9317,453.16502 1016.5213,446.01337 C 1012.8759,438.36893 1011.5179,438.19489 1008.0372,444.92597 C 1005.9523,448.9576 1004.2483,450.0536 1000.468,449.79425 C 995.86576,449.47852 995.55926,449.92386 995.05856,457.65373 C 994.68616,463.40305 995.38406,466.70426 997.39786,468.71801 C 1000.9905,472.31062 1005.9855,472.40411 1008.8665,468.93269 z M 1083.7542,441.37053 C 1086.0103,434.87646 1086.8223,428.88438 1086.2563,422.9053 C 1085.2234,411.99194 1087.2491,406.0876 1092.0262,406.0876 C 1097.0455,406.0876 1096.7236,399.31509 1091.1848,388.38476 C 1085.2951,376.76194 1085.4538,374.22248 1092.07,374.22248 C 1096.4877,374.22248 1097.3808,373.5118 1097.3808,369.99683 C 1097.3808,365.40178 1087.2445,349.20323 1083.661,348.07185 C 1081.0266,347.24008 1080.7532,352.69094 1083.1174,358.90921 C 1084.3322,362.1045 1084.1681,363.53691 1082.5143,364.17152 C 1078.11,365.86159 1076.5703,362.54263 1073.6262,345.01279 C 1068.5073,314.53367 1062.6855,292.03065 1049.8258,253.017 C 1045.6353,240.30383 1043.2766,243.35644 1044.0286,260.5198 C 1044.424,269.54402 1043.8338,277.18197 1042.4905,280.42506 C 1040.6504,284.86741 1040.7754,286.39656 1043.2929,290.23866 C 1045.7992,294.06379 1047.1373,294.60055 1051.6794,293.60294 C 1054.6518,292.9501 1056.7556,293.09744 1056.3546,293.93039 C 1050.7479,305.57577 1047.8128,313.21812 1047.8128,316.17117 C 1047.8128,319.23324 1048.6147,319.62587 1053.055,318.73779 C 1058.2765,317.6935 1061.8899,319.86354 1058.4597,321.98354 C 1057.4681,322.59638 1054.3314,327.7846 1051.4893,333.51294 C 1045.8115,344.95661 1045.8579,352.25572 1051.5971,350.46637 C 1053.4104,349.90105 1056.4872,348.94729 1058.4345,348.34689 C 1062.6609,347.04382 1063.1737,350.47975 1059.5295,355.68317 C 1058.1844,357.60371 1055.8687,363.94664 1054.3834,369.77856 C 1051.2446,382.10331 1052.7619,387.52973 1058.8101,385.61012 C 1061.9138,384.62505 1062.2861,384.96822 1061.1186,387.7379 C 1054.8768,402.54531 1053.5487,410.07805 1056.3903,414.55641 C 1058.7723,418.31056 1063.7686,414.95262 1066.6994,407.62762 C 1068.2071,403.85964 1070.5491,400.77675 1071.9038,400.77675 C 1075.1281,400.77675 1075.1276,400.77942 1069.7193,412.60302 C 1067.1631,418.19153 1064.9724,425.18564 1064.8511,428.14546 C 1064.6617,432.76576 1065.3191,433.60624 1069.4988,434.08716 C 1073.7299,434.574 1074.367,435.42388 1074.367,440.58093 C 1074.367,454.97248 1078.8966,455.35346 1083.7542,441.37053 z M 1158.6491,442.23779 C 1160.1818,436.13106 1158.19,420.18347 1154.7385,410.92614 C 1151.185,401.3955 1150.8139,396.90457 1153.5026,395.96837 C 1154.673,395.56082 1157.0408,396.8743 1158.7643,398.8872 C 1162.9367,403.76026 1166.4219,403.52311 1166.4219,398.36619 C 1166.4219,394.7925 1160.3317,379.24267 1153.7386,365.98243 C 1150.8263,360.12532 1153.4629,357.51118 1158.7732,360.99062 C 1164.6253,364.82507 1165.5529,363.4315 1161.9342,356.24158 C 1158.8378,350.08928 1145.4879,335.27623 1143.0396,335.27623 C 1140.7327,335.27623 1141.454,348.87644 1144.1409,356.04124 C 1147.1246,363.99745 1149.1406,383.43324 1147.6134,389.51822 C 1145.9691,396.0696 1142.5264,393.40735 1142.4984,385.5628 C 1142.4053,359.50971 1129.1984,311.67549 1114.0224,282.42544 C 1106.8611,268.62284 1100.1409,259.15013 1097.5148,259.15647 C 1096.9543,259.15782 1095.0685,264.01528 1093.3242,269.95082 C 1090.8838,278.25513 1090.6277,281.31501 1092.2133,283.2255 C 1095.5627,287.26133 1097.1328,286.11475 1097.7165,279.20655 C 1098.5953,268.80751 1102.6917,269.57169 1102.6917,280.13466 C 1102.6917,290.17858 1100.853,296.14546 1096.3796,300.61892 C 1093.469,303.52951 1093.5573,303.92983 1098.0994,308.41734 L 1102.8874,313.14768 L 1106.4777,308.2794 C 1108.4525,305.60184 1111.1966,303.41112 1112.5759,303.41112 C 1115.9112,303.41112 1115.8292,303.82083 1110.4249,314.15628 C 1106.3862,321.88017 1105.9208,324.38167 1106.928,332.95134 C 1108.4237,345.67775 1110.4191,348.65632 1111.5431,339.84033 C 1112.5432,331.99627 1116.854,328.79678 1116.854,335.89861 C 1116.854,338.35051 1116.129,342.26335 1115.243,344.59382 C 1112.5697,351.62512 1111.5404,370.90966 1113.6301,374.8142 C 1115.4946,378.29821 1115.6192,378.30609 1117.9721,375.08831 C 1119.3045,373.26627 1120.3945,370.00133 1120.3945,367.83293 C 1120.3945,362.04167 1122.2089,358.28993 1125.0096,358.28993 C 1128.2807,358.28993 1128.1319,360.066 1123.936,371.10549 C 1120.0502,381.32908 1119.4106,390.31968 1122.1985,395.52895 C 1123.7302,398.39085 1124.6668,398.59716 1128.402,396.89529 C 1133.7882,394.44117 1135.4675,395.76725 1132.9442,400.4821 C 1130.9311,404.24364 1132.1042,418.14042 1134.7827,422.26007 C 1136.0283,424.17599 1137.0325,423.79912 1139.6378,420.43784 C 1143.8842,414.95917 1146.9384,416.94744 1146.9877,425.22264 C 1147.0306,432.4431 1152.8147,446.80414 1155.6799,446.80414 C 1156.6826,446.80414 1158.0188,444.74928 1158.6491,442.23779 z M 1008.4323,432.60345 L 1012.9823,429.02446 L 1017.1204,432.91203 L 1021.2585,436.79961 L 1025.5172,432.79878 C 1029.1275,429.40709 1030.3693,429.11555 1033.6735,430.8839 C 1038.9672,433.71699 1041.103,431.13857 1040.4098,422.75164 C 1039.9771,417.51533 1038.7461,415.32062 1035.0992,413.28306 C 1030.7668,410.86255 1030.0319,410.92035 1026.6903,413.94439 C 1023.2751,417.03513 1022.811,417.06095 1019.7914,414.32825 C 1015.6516,410.58175 1012.6608,410.62572 1008.3528,414.49645 C 1005.0504,417.46355 1004.7924,417.42616 1002.244,413.61131 C 997.93116,407.1551 995.15386,408.77429 993.81256,418.52687 C 992.87856,425.31814 993.26806,428.46249 995.45756,431.804 C 998.93976,437.11856 1002.4197,437.33297 1008.4323,432.60345 z M 965.30516,424.53079 C 965.89616,422.99068 966.37966,418.73709 966.37966,415.0784 C 966.37966,409.70064 967.22756,408.03987 970.80536,406.4097 C 974.57196,404.69352 975.23106,403.20653 975.23106,396.42482 C 975.23106,387.24296 970.42016,373.7661 967.48566,374.72776 C 966.39056,375.08665 965.24486,377.90799 964.93976,380.99738 C 964.57246,384.71662 963.43486,386.61447 961.57276,386.61447 C 959.09746,386.61447 958.88576,383.96294 959.80606,364.48592 C 960.77946,343.88426 960.62926,342.35737 957.62976,342.35737 C 953.64376,342.35737 946.39986,351.64791 943.50866,360.46817 C 941.03246,368.02256 942.22036,371.2841 946.90656,369.79677 C 952.20306,368.11571 952.40636,371.37679 947.72326,382.90182 C 944.17796,391.62694 943.68826,394.5306 945.26526,397.4772 C 946.70536,400.16814 947.76126,400.63011 949.19486,399.19652 C 952.42946,395.96195 953.27036,396.90459 953.36836,403.87474 C 953.41966,407.52596 954.86936,414.29729 956.58996,418.92216 C 959.74286,427.39734 963.32146,429.70029 965.30516,424.53079 z M 1050.7513,407.0722 C 1050.1699,405.55701 1048.8726,404.31732 1047.8683,404.31732 C 1045.7839,404.31732 1045.3535,417.19617 1047.3702,419.22566 C 1049.1627,421.02956 1052.0814,410.53829 1050.7513,407.0722 z M 908.73616,398.53187 C 910.26136,384.28972 911.89516,381.40297 916.73366,384.40162 C 922.19886,387.78867 922.69346,387.20878 921.26336,379.09077 C 920.53446,374.95273 919.83216,368.38055 919.70256,364.48592 C 919.47796,357.7291 919.70096,357.42153 924.57196,357.77045 L 929.67686,358.13612 L 928.50586,346.70618 C 927.42386,336.14533 928.81876,332.12709 931.85916,337.04652 C 932.46086,338.02017 934.10116,338.8168 935.50416,338.8168 C 938.38536,338.8168 939.00146,332.52949 936.28486,330.85052 C 931.59396,327.9514 936.22946,304.93731 944.94556,287.85241 C 946.99776,283.82974 948.67686,278.69243 948.67686,276.43613 C 948.67686,274.17985 949.82236,270.69837 951.22236,268.69951 C 952.62246,266.70064 953.69806,262.60715 953.61266,259.60283 C 953.50266,255.73457 955.34296,251.93752 959.91846,246.592 C 963.47216,242.44039 966.37966,238.39035 966.37966,237.59195 C 966.37966,234.17439 962.46316,236.82048 952.15186,247.20459 C 943.23046,256.18907 939.22176,262.31418 930.82646,279.78938 C 920.69996,300.86778 911.36676,330.94258 908.69016,351.11943 C 907.55386,359.68514 904.41976,363.74398 904.41976,356.64978 C 904.41976,351.15508 911.34546,317.59624 914.10146,309.73684 C 930.64806,262.54961 944.63176,241.15846 969.83536,224.4795 C 976.37176,220.15393 979.02226,216.62101 975.67366,216.69753 C 971.74526,216.78729 948.57476,223.70091 942.48086,226.6016 C 934.73996,230.2862 932.76496,235.53411 939.38286,234.83347 C 946.73076,234.05554 943.56276,239.13677 932.00526,246.6668 C 921.57896,253.45982 918.58196,256.67535 918.58196,261.06909 C 918.58196,261.9631 919.77696,262.69458 921.23746,262.69458 C 926.02166,262.69458 924.02986,265.81803 916.36916,270.32897 C 908.99416,274.67161 901.63606,284.10482 903.87626,286.34501 C 904.49976,286.96847 906.86866,287.47856 909.14046,287.47856 C 914.82306,287.47856 914.32806,289.2906 907.06166,295.08843 C 901.01586,299.91243 890.30736,316.2312 890.27406,320.67139 C 890.26396,322.02334 892.66796,322.88424 896.45346,322.88424 C 899.86126,322.88424 902.64946,323.32927 902.64946,323.87319 C 902.64946,324.41711 900.21736,327.88853 897.24486,331.58744 C 892.04086,338.06305 885.91356,355.55794 887.78756,358.59011 C 888.28726,359.39867 890.72586,360.06021 893.20676,360.06021 C 896.81406,360.06021 897.45896,360.68061 896.42666,363.15821 C 893.67546,369.76174 891.83286,381.32299 892.36076,388.66871 C 892.85096,395.49009 893.35926,396.28897 896.89606,395.79719 C 899.88226,395.38195 900.87916,396.12844 900.87916,398.77994 C 900.87916,404.0536 904.18716,411.75116 905.97786,410.64445 C 906.83846,410.11257 908.07966,404.6619 908.73616,398.53187 z M 1010.6368,401.59961 C 1010.6368,400.10487 1009.5039,397.11752 1008.1193,394.96104 C 1006.7347,392.80457 1005.0624,387.05704 1004.403,382.18876 C 1002.9956,371.79716 998.11816,359.91843 995.58936,360.7237 C 994.58396,361.04387 993.81906,368.09728 993.81906,377.04896 C 993.81906,392.01566 994.08206,393.1006 999.03466,398.56389 C 1004.5151,404.6095 1010.6368,406.21125 1010.6368,401.59961 z M 1027.3174,399.81865 C 1031.0951,397.34339 1031.7541,397.36293 1034.4205,400.0294 C 1036.0371,401.64592 1037.9018,402.42635 1038.5645,401.7637 C 1040.0204,400.30782 1042.539,370.16559 1041.3094,368.91441 C 1040.8324,368.42912 1039.4462,369.39405 1038.229,371.05872 C 1036.8953,372.88273 1034.0364,373.93676 1031.0343,373.71137 C 1026.5383,373.37379 1025.4455,374.52676 1019.8231,385.53957 C 1013.8601,397.21943 1013.7341,397.84466 1016.8792,400.14442 C 1021.0517,403.19547 1022.2193,403.15904 1027.3174,399.81865 z M 1209.688,395.29308 C 1209.6298,392.95399 1208.9871,389.27431 1208.2597,387.11601 C 1207.1659,383.87052 1207.72,382.99538 1211.4635,382.05581 C 1217.1729,380.62284 1217.5242,374.38425 1212.2938,367.30972 C 1210.261,364.5602 1208.4685,359.61353 1208.3106,356.31712 C 1208.0451,350.7741 1208.4226,350.32365 1213.3343,350.32365 C 1217.9048,350.32365 1218.6452,349.66691 1218.6452,345.61267 C 1218.6452,338.09939 1220.7555,337.88358 1227.754,344.68119 C 1231.3554,348.17918 1234.9615,350.63355 1235.7676,350.13536 C 1238.1877,348.63965 1237.3599,338.72165 1233.6509,324.77425 C 1228.9667,307.15927 1229.0099,306.81178 1235.7215,308.15408 C 1240.9034,309.19047 1241.2213,308.9719 1240.2913,305.01182 C 1237.015,291.06124 1227.4169,275.08657 1222.3113,275.08657 C 1220.8331,275.08657 1219.4587,278.24527 1218.6813,283.42916 C 1217.4786,291.44959 1214.2372,301.63981 1210.2117,310.05609 C 1208.6295,313.36406 1209.004,314.7913 1212.404,318.41038 C 1217.7847,324.13785 1219.8043,322.56559 1218.3942,313.74708 C 1217.3755,307.37703 1217.6174,306.66362 1220.6032,307.23065 C 1224.7527,308.01867 1226.1695,320.71451 1222.9698,328.43908 C 1220.1338,335.28586 1213.5178,335.39502 1210.9342,328.63767 C 1208.3443,321.86394 1205.3948,318.58867 1198.83,315.1965 C 1192.2905,311.8174 1190.5868,313.32336 1192.8664,320.46803 C 1194.2748,324.8818 1197.0601,340.16027 1197.3142,344.86528 C 1197.3624,345.75778 1196.519,346.78228 1195.4402,347.1419 C 1194.2475,347.53947 1193.0332,344.00683 1192.3426,338.13011 C 1190.4149,321.72782 1173.926,285.4009 1161.9467,271.16433 C 1159.5398,268.30387 1157.5705,265.31458 1157.5705,264.52146 C 1157.5705,261.9669 1137.8027,243.22145 1135.1089,243.22145 C 1133.0619,243.22145 1132.8071,244.45168 1133.9173,248.97488 C 1134.6939,252.13926 1135.3547,258.31313 1135.3857,262.69458 C 1135.4533,272.27175 1144.0659,287.52901 1147.4782,284.1167 C 1148.9626,282.6323 1148.9382,280.69182 1147.3834,276.5727 C 1144.8639,269.89774 1146.4851,266.09584 1149.8744,270.73103 C 1152.6765,274.56313 1153.0104,284.53831 1150.4939,289.24043 C 1149.1728,291.70894 1149.73,294.55538 1152.7067,300.54356 C 1158.659,312.51772 1162.3401,311.189 1161.2388,297.46376 C 1160.9551,293.92751 1161.5416,292.63451 1163.1847,293.17438 C 1167.1022,294.4616 1166.9988,304.79636 1163.0005,311.57292 C 1158.575,319.07372 1158.4117,322.46394 1162.2706,326.72799 C 1166.6793,331.59962 1169.9625,330.75919 1169.9625,324.75901 C 1169.9625,318.96705 1172.5743,316.14026 1174.1447,320.23259 C 1175.7017,324.29013 1171.5948,342.03151 1168.8551,343.08281 C 1167.2815,343.68667 1164.9257,341.0708 1162.1727,335.6627 C 1159.834,331.06869 1153.0177,322.6144 1147.0252,316.8754 C 1140.1571,310.29782 1136.7504,305.82028 1137.8087,304.76198 C 1138.867,303.70369 1140.8235,303.7981 1143.1018,305.0174 C 1148.0322,307.6561 1148.7191,307.481 1148.7191,303.58547 C 1148.7191,300.15289 1142.0434,293.82743 1131.1209,286.91039 C 1124.903,282.97274 1124.2027,279.55455 1129.5942,279.4591 C 1131.2462,279.42985 1133.1024,278.90135 1133.7191,278.28464 C 1134.9439,277.0598 1117.5749,262.69458 1114.8691,262.69458 C 1110.48,262.69458 1111.591,268.92943 1117.5122,277.52675 C 1121.0448,282.65593 1123.9351,288.22006 1123.9351,289.89149 C 1123.9351,291.56292 1125.4396,295.88608 1127.2784,299.4985 C 1129.1173,303.11093 1131.6167,309.39707 1132.8328,313.46771 C 1134.5436,319.19458 1137.5499,322.87718 1146.1221,329.74647 C 1153.0436,335.29305 1159.3113,342.3135 1162.8262,348.45699 C 1165.9204,353.8651 1169.5578,358.28993 1170.9093,358.28993 C 1172.2781,358.28993 1174.2112,355.15337 1175.2733,351.20879 C 1176.322,347.31416 1177.8132,344.12765 1178.5871,344.12765 C 1181.9343,344.12765 1182.0844,346.81355 1179.0227,351.92294 C 1174.3916,359.65133 1173.1858,367.80104 1176.0865,371.76797 C 1178.376,374.89903 1178.6608,374.90974 1181.8914,371.98612 C 1187.1886,367.19221 1190.097,368.00192 1188.3342,373.77991 C 1186.583,379.52043 1186.6064,394.99711 1188.3691,396.75978 C 1189.0442,397.43491 1191.2622,396.94714 1193.2977,395.67585 C 1196.4839,393.68605 1197.6428,393.86554 1201.6261,396.96586 C 1207.3137,401.39272 1209.8267,400.87128 1209.688,395.29308 z M 1017.2726,382.45919 C 1018.3139,380.17381 1019.702,373.60163 1020.3572,367.85435 C 1022.3743,350.16133 1023.8116,348.16434 1030.3016,354.03763 C 1035.0903,358.37136 1037.7531,355.43414 1036.446,347.26005 C 1034.3832,334.36018 1028.0196,325.89645 1025.4393,332.62081 C 1024.8788,334.08129 1022.9443,335.27623 1021.1404,335.27623 C 1018.0772,335.27623 1017.9325,333.96073 1018.9508,315.36053 C 1019.5504,304.4069 1020.2719,289.86844 1020.5541,283.05285 C 1020.8363,276.23725 1021.5121,260.70301 1022.0558,248.53231 C 1023.1234,224.63886 1021.7917,214.3334 1017.5305,213.51276 C 1010.603,212.17866 985.85276,242.14139 985.85276,251.86187 C 985.85276,253.92523 987.39276,257.1534 989.27486,259.03556 C 993.25956,263.02017 994.49556,261.92573 998.13806,251.18773 C 1002.2213,239.15066 1011.125,221.67959 1013.6749,220.7011 C 1017.4413,219.25579 1018.5586,221.62479 1015.7331,225.06519 C 1011.65,230.0369 1005.326,242.561 1005.326,245.67533 C 1005.326,247.35211 1006.7885,248.53231 1008.8665,248.53231 C 1013.5408,248.53231 1013.3084,252.04628 1008.3218,256.76988 C 1001.6474,263.09227 997.08846,272.86807 999.62946,275.4091 C 1001.3063,277.08589 1002.2575,277.09289 1003.9097,275.44063 C 1005.0781,274.27224 1007.1669,273.31628 1008.5514,273.31628 C 1010.624,273.31628 1010.5622,274.01988 1008.2018,277.29942 C 1002.761,284.8588 998.11406,294.68627 999.17146,296.3972 C 999.75476,297.34102 1002.1748,297.62567 1004.5493,297.0297 C 1010.1013,295.63626 1010.0472,298.14422 1004.411,303.43909 C 999.44676,308.10271 995.40236,319.30726 997.09296,323.71282 C 997.98346,326.03352 998.89836,326.19961 1001.9107,324.58743 C 1007.2782,321.71486 1008.0766,323.73493 1003.7484,329.23728 C 1001.0032,332.72732 1000.5015,334.61436 1001.878,336.27292 C 1003.2185,337.88818 1003.1246,339.55517 1001.551,342.0749 C 998.61186,346.78113 1002.3891,351.81764 1007.614,350.15933 C 1010.5844,349.21656 1010.93,349.57561 1009.7055,352.33221 C 1005.3514,362.13376 1007.7606,386.61447 1013.0791,386.61447 C 1014.3443,386.61447 1016.2313,384.74459 1017.2726,382.45919 z M 977.25746,360.90108 C 976.91146,357.03081 975.51736,351.71305 974.15946,349.08385 C 971.58116,344.09182 970.83166,337.04652 972.87886,337.04652 C 973.53236,337.04652 975.46056,338.30754 977.16366,339.8488 C 980.01236,342.42685 980.42896,342.3357 982.36946,338.70979 C 985.54726,332.77209 983.67446,317.20829 979.07936,311.36651 C 976.06846,307.53875 975.66546,305.90594 977.25796,303.98702 C 978.97756,301.91512 979.91296,302.09585 983.13456,305.12243 C 985.24196,307.10218 987.51226,308.72197 988.17976,308.72197 C 990.20456,308.72197 989.53696,302.49252 987.26906,300.2246 C 985.61676,298.57235 985.61676,298.10026 987.26906,298.10026 C 989.95746,298.10026 989.95736,293.07798 987.26886,280.06142 C 985.94496,273.65151 984.24326,269.77572 982.75286,269.77572 C 979.34216,269.77572 975.18706,280.7811 972.39316,297.21512 C 971.06886,305.00437 969.21936,314.56391 968.28316,318.45853 C 967.34686,322.35316 966.13466,334.31171 965.58936,345.0331 C 964.62666,363.95956 964.71386,364.58453 968.58676,366.52118 C 975.74426,370.10031 977.95186,368.66937 977.25746,360.90108 z M 995.27616,343.91281 C 993.01866,341.65526 990.63646,340.70392 989.30376,341.52762 C 987.63496,342.559 987.89326,343.48761 990.34866,345.28301 C 992.14276,346.59488 994.83036,347.66822 996.32106,347.66822 C 998.42646,347.66822 998.19326,346.82987 995.27616,343.91281 z M 959.74106,336.29393 C 962.10926,335.60092 962.86726,333.39332 962.95856,326.92293 C 963.11536,315.81212 964.23556,307.20714 966.31366,301.14837 C 967.24146,298.4434 967.65716,295.25689 967.23736,294.06724 C 966.81756,292.87761 969.27136,283.93799 972.69016,274.20143 C 976.10896,264.46486 979.36706,255.10449 979.93046,253.40059 C 981.22786,249.47716 976.99696,249.29848 969.88476,252.97634 C 960.94396,257.59981 958.32036,266.238 964.95736,269.19952 C 968.76176,270.89709 968.72256,271.00759 963.14696,274.3012 C 960.01246,276.15279 955.28896,280.78294 952.65036,284.59043 L 947.85296,291.51311 L 951.73796,294.09264 L 955.62296,296.67218 L 950.37956,301.08415 C 943.91766,306.52151 943.57256,310.49225 949.56196,310.49225 C 955.38466,310.49225 955.16526,312.12323 947.79166,323.64998 C 942.15306,332.46463 940.03806,340.20962 942.57646,342.74802 C 943.11586,343.28744 946.50156,342.25991 950.10016,340.46465 C 953.69876,338.66939 958.03716,336.79257 959.74106,336.29393 z M 1096.4372,339.9717 C 1095.1774,335.49582 1081.3687,322.61376 1078.7927,323.51128 C 1076.9443,324.15532 1076.565,336.31013 1078.2562,340.70569 C 1078.9082,342.40026 1082.2663,343.33207 1088.371,343.51227 C 1096.9308,343.76492 1097.4418,343.54064 1096.4372,339.9717 z M 1035.5656,324.65453 C 1040.2707,324.65453 1040.1143,315.43104 1035.2764,307.6032 C 1029.7616,298.6801 1027.1142,299.94141 1025.6952,312.16807 C 1024.3751,323.54222 1025.4313,327.24035 1029.5486,325.66035 C 1030.9903,325.10715 1033.6979,324.65453 1035.5656,324.65453 z M 1097.9003,323.54495 C 1099.665,321.78031 1094.1708,312.54199 1086.2395,303.93756 L 1078.9389,296.01747 L 1083.0566,292.91149 C 1088.6984,288.65594 1086.9197,284.11404 1076.0461,275.0102 C 1066.3523,266.89405 1064.8742,262.69458 1071.7116,262.69458 C 1074.4912,262.69458 1076.1373,261.69377 1076.1373,260.00385 C 1076.1373,255.72405 1050.8383,230.31807 1047.3233,231.06795 C 1044.5204,231.6659 1044.5022,232.11462 1047.0819,237.02546 C 1053.1625,248.60069 1070.8539,300.57956 1070.8343,306.81229 C 1070.8248,309.87662 1075.9519,315.79978 1078.6246,315.8119 C 1079.6907,315.81674 1082.9529,317.77966 1085.874,320.17394 C 1091.0875,324.44739 1095.7039,325.74137 1097.9003,323.54495 z M 1196.99,306.23516 C 1201.0572,303.14885 1199.3257,298.72836 1192.7096,295.30702 C 1184.4139,291.01713 1181.0582,296.47491 1186.8806,304.78749 C 1190.0219,309.27237 1192.5168,309.62963 1196.99,306.23516 z M 1210.4391,300.31312 C 1213.842,293.94337 1212.7186,275.08657 1208.9362,275.08657 C 1208.1324,275.08657 1205.3768,278.66644 1202.8127,283.04184 C 1198.8745,289.7618 1198.4725,291.61734 1200.2239,294.99125 C 1204.901,304.00133 1207.692,305.45533 1210.4391,300.31312 z M 1038.9614,289.17831 C 1038.9614,286.12764 1033.1309,272.50144 1030.6812,269.82698 C 1028.8915,267.87307 1026.6215,274.81306 1026.5965,282.31522 C 1026.5647,291.80956 1027.2523,292.78941 1033.9456,292.78941 C 1037.8138,292.78941 1038.9614,291.96325 1038.9614,289.17831 z M 1192.2003,285.53155 C 1195.5262,280.14992 1179.828,269.41941 1172.6555,272.17178 C 1170.0954,273.15414 1170.1089,273.78003 1172.803,279.0379 C 1174.4334,282.21979 1176.652,285.40841 1177.7332,286.12374 C 1180.7623,288.12781 1190.8509,287.71486 1192.2003,285.53155 z M 1199.6399,264.02229 C 1198.7573,251.19379 1195.6715,241.45117 1192.491,241.45117 C 1191.5123,241.45117 1191.2697,244.6104 1191.9133,248.97488 C 1192.5235,253.11292 1192.2264,259.24392 1191.2531,262.59932 C 1189.2533,269.49376 1192.57,276.85685 1197.6754,276.85685 C 1200.1111,276.85685 1200.3952,275.00119 1199.6399,264.02229 z M 1230.152,267.24138 C 1230.152,263.06466 1224.2622,257.15 1215.8665,252.89556 C 1208.9399,249.38557 1207.1383,247.56532 1207.1383,244.07677 C 1207.1383,240.86107 1206.1878,239.68088 1203.5978,239.68088 C 1201.6505,239.68088 1200.0572,239.98774 1200.0572,240.36278 C 1200.0572,241.51357 1204.3434,250.73073 1209.207,260.03915 C 1213.7076,268.65256 1214.0514,268.89514 1221.992,269.06033 C 1226.9501,269.16346 1230.152,268.44972 1230.152,267.24138 z M 1089.0454,261.63027 C 1087.6465,248.89091 1085.5971,244.79334 1077.1319,237.8096 C 1066.1605,228.75822 1062.409,226.74356 1058.9777,228.06029 C 1056.9238,228.84843 1059.2518,232.25714 1068.4757,241.96742 C 1075.1959,249.04213 1081.7697,257.42659 1083.084,260.59955 C 1085.5974,266.66724 1089.676,267.37243 1089.0454,261.63027 z M 1131.789,262.87641 C 1133.8386,259.56008 1130.3775,250.19374 1124.6146,243.46108 C 1121.3199,239.61193 1118.6242,235.25364 1118.6242,233.77597 C 1118.6242,229.74788 1101.2226,220.58347 1086.4906,216.85308 C 1075.2613,214.00965 1072.9456,213.89273 1069.561,215.99828 C 1067.4046,217.33984 1064.0659,218.43747 1062.1418,218.43747 C 1051.0988,218.43747 1064.1753,227.99429 1081.4778,232.56905 C 1106.3733,239.15135 1114.7109,244.17381 1123.2821,257.75141 C 1127.5035,264.43863 1129.9227,265.89609 1131.789,262.87641 z M 1177.0436,261.93831 C 1177.0436,258.44253 1165.0869,248.90923 1159.0355,247.58012 C 1154.7618,246.64145 1154.1151,245.71601 1154.4845,241.06758 C 1154.8316,236.69981 1153.8853,235.03539 1149.6042,232.48357 C 1146.6832,230.74248 1141.8566,229.25973 1138.8783,229.18857 C 1135.9,229.1174 1131.9169,227.92113 1130.0269,226.53019 C 1126.7894,224.14754 1126.7729,223.93049 1129.7431,222.77926 C 1137.5685,219.74621 1153.5864,226.63972 1161.2774,236.35039 C 1164.2705,240.12947 1167.8474,243.22145 1169.2261,243.22145 C 1174.9033,243.22145 1169.9509,230.97887 1160.4172,221.44511 C 1157.8778,218.90577 1155.8002,215.2962 1155.8002,213.42385 C 1155.8002,211.5515 1154.5541,208.98536 1153.031,207.72132 C 1151.3447,206.32183 1150.6429,203.90426 1151.2365,201.5393 C 1152.1,198.09867 1150.932,197.22342 1140.999,193.86823 C 1125.6866,188.69598 1097.9084,186.2581 1077.4849,188.29409 C 1062.8695,189.75109 1033.6408,196.57321 1028.5598,199.71345 C 1027.5053,200.36515 1024.887,199.95885 1022.7414,198.81055 C 1019.4085,197.0268 1018.375,197.29734 1015.6455,200.66816 C 1012.6101,204.41674 1012.0073,204.49992 1003.562,202.33548 C 990.67366,199.0323 988.10596,202.52383 999.74216,207.5296 C 1007.269,210.76751 1009.8527,211.06312 1017.9828,209.61652 C 1023.1922,208.6896 1028.6494,208.07306 1030.1099,208.24644 C 1031.5704,208.41982 1037.4552,207.89009 1043.1873,207.06927 C 1068.119,203.49908 1108.7267,215.35089 1127.4757,231.66976 C 1129.9098,233.78842 1136.0944,238.14084 1141.2192,241.34182 C 1146.3441,244.54279 1151.1239,248.15901 1151.8409,249.37783 C 1152.5581,250.59667 1155.4788,254.48986 1158.3314,258.02938 C 1162.6611,263.40163 1164.6354,264.46486 1170.2808,264.46486 C 1174.9587,264.46486 1177.0436,263.68594 1177.0436,261.93831 z M 1136.2148,215.64676 C 1134.607,213.70952 1132.2271,213.16965 1128.4328,213.88146 C 1124.8463,214.55429 1121.5592,213.92093 1118.8731,212.03953 C 1116.1944,210.16328 1112.7644,209.49916 1108.95,210.11816 C 1104.8984,210.77563 1100.4905,209.77579 1094.4972,206.83989 C 1089.7544,204.51655 1084.632,202.59073 1083.1142,202.56028 C 1081.5964,202.52983 1078.8082,201.25956 1076.9182,199.73747 C 1073.7263,197.16683 1074.1114,197.05496 1082.3333,198.16446 C 1087.2017,198.82141 1095.7986,199.56879 1101.4375,199.8253 C 1107.0765,200.08181 1112.1602,200.76163 1112.7346,201.33602 C 1113.309,201.9104 1115.265,201.58503 1117.0813,200.61297 C 1119.3934,199.37555 1121.6501,199.52693 1124.6072,201.11782 C 1129.0851,203.52693 1143.4082,216.04364 1143.4082,217.54772 C 1143.4082,219.56907 1138.3637,218.23598 1136.2148,215.64676 z M 1038.1075,252.51545 C 1036.5948,240.31236 1032.4678,229.51255 1030.2082,231.84375 C 1029.3333,232.74638 1028.1523,239.2845 1027.5837,246.37291 C 1026.6062,258.55969 1026.7672,259.34825 1030.5428,260.86554 C 1038.7978,264.183 1039.4628,263.4489 1038.1075,252.51545 z M 913.33676,254.68057 C 913.93716,251.74511 915.66556,247.36847 917.17756,244.9547 C 920.84616,239.09838 922.59956,227.28597 919.79836,227.29769 C 918.64256,227.30252 915.58176,229.09494 912.99656,231.28083 C 908.97666,234.67982 908.12606,237.13538 907.12086,248.24309 C 906.04896,260.08617 906.22306,261.17753 909.09526,260.62439 C 910.95066,260.26709 912.69386,257.82421 913.33676,254.68057 z M 1187.6653,256.45436 C 1187.6653,254.96955 1186.0721,249.2216 1184.1248,243.68116 C 1182.1774,238.1407 1180.5842,231.81561 1180.5842,229.62539 C 1180.5842,226.25284 1176.1962,221.97804 1172.7343,221.97804 C 1170.7407,221.97804 1171.7934,228.46268 1174.3319,231.81882 C 1175.7747,233.72637 1176.9561,239.13108 1176.9873,243.9672 C 1177.0232,249.52359 1178.1048,253.85187 1179.9734,255.91662 C 1183.5356,259.85278 1187.6653,260.14149 1187.6653,256.45436 z M 1113.3134,253.07856 C 1113.3134,249.87944 1104.3442,243.39218 1099.09,242.79103 C 1093.2284,242.12037 1092.8986,246.05839 1098.3902,251.14787 C 1103.7169,256.08448 1113.3134,257.32603 1113.3134,253.07856 z M 818.56096,252.07287 C 819.16266,251.09922 821.42896,250.30259 823.59716,250.30259 C 826.33466,250.30259 830.64216,246.50453 837.69336,237.87331 C 843.27816,231.03721 853.00826,221.73145 859.31586,217.19384 C 865.62356,212.65624 870.78436,208.31959 870.78436,207.55685 C 870.78436,202.98064 852.62146,200.74828 843.52556,204.20653 C 837.26696,206.58605 820.66116,222.97345 821.62156,225.82249 C 822.05746,227.11584 824.06426,228.17404 826.08106,228.17404 C 832.16126,228.17404 832.48586,230.40358 826.83126,233.32764 C 818.13776,237.82326 808.74026,253.84316 814.79656,253.84316 C 816.26526,253.84316 817.95916,253.04653 818.56096,252.07287 z M 1093.8403,247.54268 C 1093.8403,247.11332 1093.0436,246.76202 1092.07,246.76202 C 1091.0963,246.76202 1090.2997,247.60567 1090.2997,248.63679 C 1090.2997,249.66791 1091.0963,250.0192 1092.07,249.41745 C 1093.0436,248.81569 1093.8403,247.97205 1093.8403,247.54268 z M 991.58526,230.9733 C 999.56446,218.94841 1000.1365,216.66719 995.17246,216.66719 C 992.01766,216.66719 969.92026,237.91787 969.92026,240.95171 C 969.92026,242.40209 972.36366,243.22145 976.68896,243.22145 C 983.09856,243.22145 983.88916,242.57133 991.58526,230.9733 z M 1228.3195,232.71613 C 1231.479,226.81254 1230.3929,213.73681 1225.9238,203.87185 C 1223.5982,198.73858 1220.7271,191.35213 1219.5435,187.4575 C 1214.765,171.73361 1203.0776,160.51855 1193.8765,162.82788 C 1187.8991,164.32815 1188.2873,166.42663 1195.1889,169.92268 C 1203.9185,174.34457 1207.132,177.8066 1207.2011,182.86359 C 1207.2356,185.39024 1208.4023,189.44907 1209.7938,191.88321 C 1212.8907,197.30076 1213.3271,208.40344 1210.4048,207.42934 C 1209.2803,207.05452 1207.3412,203.29615 1206.0955,199.07739 C 1204.8498,194.85863 1201.484,188.92504 1198.6158,185.89164 C 1195.7476,182.85824 1192.4808,178.58395 1191.356,176.39322 C 1190.0724,173.89301 1187.6865,172.41009 1184.9476,172.41009 C 1179.7998,172.41009 1179.878,172.05784 1183.2396,180.10331 C 1186.4927,187.88897 1186.7587,196.00671 1183.7277,194.99638 C 1182.5356,194.59903 1181.0223,191.64312 1180.3647,188.42768 C 1177.9784,176.76024 1165.2541,165.32896 1154.6533,165.32896 C 1147.3132,165.32896 1147.1292,167.76032 1154.0299,173.56688 C 1158.9933,177.7433 1161.1566,183.03179 1157.9017,183.03179 C 1157.1102,183.03179 1154.1228,180.56895 1151.2631,177.55881 C 1142.1216,167.9364 1130.0072,163.22064 1124.0751,166.97527 C 1121.9536,168.31801 1122.0889,169.35351 1124.9387,173.58672 C 1126.7973,176.34737 1129.1241,180.11612 1130.1096,181.96173 C 1131.2703,184.13541 1138.4356,187.46834 1150.4525,191.42405 C 1160.6556,194.78273 1171.1347,199.04824 1173.7395,200.90297 C 1176.3442,202.7577 1179.166,204.2752 1180.0102,204.2752 C 1181.9867,204.2752 1204.6384,220.71689 1211.5641,227.17853 C 1216.8362,232.09736 1222.7938,235.98321 1225.2215,236.08648 C 1225.9175,236.11609 1227.3116,234.59943 1228.3195,232.71613 z M 876.94136,227.61358 C 882.71996,223.61864 884.22246,221.34622 885.31446,214.94953 C 886.04636,210.662 886.23156,206.74038 885.72606,206.23482 C 885.22046,205.72926 882.02616,206.8131 878.62756,208.64336 C 869.96916,213.30622 861.70796,232.83038 868.51586,232.54094 C 869.27666,232.50859 873.06816,230.29128 876.94136,227.61358 z M 1204.3785,227.17993 C 1198.6023,221.15087 1175.7288,206.15525 1166.9544,202.6452 C 1158.9019,199.4239 1155.7754,200.99483 1161.176,205.5486 C 1194.8435,233.93711 1192.8529,232.59975 1201.4382,232.59975 L 1209.571,232.59975 L 1204.3785,227.17993 z M 943.61886,221.33343 C 951.76826,217.19841 967.91296,212.51592 981.30456,210.4033 C 991.62696,208.77487 985.73456,206.10963 971.69056,206.05467 C 953.12036,205.98201 928.96346,215.95554 931.52726,222.63666 C 932.96606,226.38623 933.84786,226.29119 943.61886,221.33343 z M 1047.4933,217.10976 C 1048.0092,213.47768 1047.3461,213.12662 1039.9696,213.12662 C 1031.0889,213.12662 1030.414,213.88307 1034.8858,218.82445 C 1039.0425,223.41754 1046.7463,222.36979 1047.4933,217.10976 z M 902.04446,211.18319 C 905.34936,209.14065 909.55006,204.56004 911.37936,201.00406 C 914.42236,195.08871 915.35976,194.53287 922.39706,194.47084 C 949.66436,194.23051 962.83906,193.45016 962.83906,192.07543 C 962.83906,190.00484 950.57346,185.14721 941.80466,183.74502 C 937.73786,183.0947 932.06176,183.59789 928.05756,184.96372 C 924.30646,186.24323 920.19366,187.08266 918.91796,186.82913 C 910.16906,185.09044 890.25746,201.6887 890.25746,210.72043 C 890.25746,215.98399 894.03656,216.13236 902.04446,211.18319 z M 885.83176,195.26014 C 885.83176,188.80047 863.94856,185.97358 852.13946,190.90774 C 843.28046,194.60928 844.53966,197.17268 855.29436,197.33011 C 860.40606,197.40494 867.77486,198.48557 871.66946,199.73152 C 879.31766,202.1783 885.83176,200.12165 885.83176,195.26014 z M 996.47446,191.91919 C 996.47446,188.81748 982.19066,182.67847 977.63456,183.82199 C 974.50916,184.60641 971.60196,183.48061 966.77516,179.6167 C 958.25896,172.7995 947.60476,168.40934 943.06966,169.8487 C 939.63906,170.93756 939.69246,171.19248 944.37706,176.08208 C 947.06336,178.88605 953.31216,182.40914 958.26306,183.91118 C 963.21406,185.41321 970.05296,188.18632 973.46076,190.07362 C 979.95386,193.6696 996.47446,194.99446 996.47446,191.91919 z M 901.09916,187.04595 C 903.95476,185.35912 906.06206,182.77008 905.78206,181.29253 C 904.77766,175.99178 879.63576,177.56773 879.63576,182.93144 C 879.63576,185.17773 888.36196,189.94926 892.63976,190.04205 C 894.43686,190.08103 898.24356,188.73279 901.09916,187.04595 z M 846.00036,186.46788 C 846.00036,185.43676 845.20376,185.08546 844.23006,185.68722 C 843.25636,186.28897 842.45976,187.13261 842.45976,187.56198 C 842.45976,187.99134 843.25636,188.34264 844.23006,188.34264 C 845.20376,188.34264 846.00036,187.499 846.00036,186.46788 z M 1005.326,185.04081 C 1005.326,184.19846 1003.6749,181.41026 1001.6569,178.84482 C 998.79596,175.20777 996.44266,174.18037 990.97286,174.18037 C 984.48256,174.18037 984.10116,173.91283 985.87236,170.60322 C 986.92536,168.63579 987.30466,166.24591 986.71536,165.29237 C 985.31196,163.02168 975.75446,163.04995 974.34596,165.32896 C 972.20306,168.79615 969.79446,167.02232 970.29576,162.34623 C 970.67726,158.78832 969.65536,156.9358 966.23156,154.97862 C 962.10436,152.6193 960.99026,152.69446 954.82116,155.74849 C 946.19566,160.01853 945.26656,162.91619 951.63576,165.68342 C 954.38976,166.87997 959.61466,169.6796 963.24646,171.90482 C 966.87836,174.13002 972.07216,175.95065 974.78836,175.95065 C 977.50456,175.95065 984.09256,178.28143 989.42836,181.13015 C 999.21686,186.35609 1005.326,187.85886 1005.326,185.04081 z M 868.44926,179.59361 C 874.44886,176.86968 876.20736,174.94906 877.73336,169.45337 C 880.44596,159.68453 880.13986,158.24782 875.34586,158.24782 C 867.81776,158.24782 851.61716,174.892 853.74576,180.4392 C 855.07596,183.90563 859.51396,183.65041 868.44926,179.59361 z M 1014.1675,179.93379 C 1014.1417,171.83512 1009.7578,162.20864 1003.2828,156.03257 C 999.31656,152.24951 996.54396,148.05944 996.83996,146.29601 C 997.46256,142.58707 990.45466,141.00096 986.80986,144.02588 C 983.81876,146.50821 975.94106,144.67654 969.62596,140.03046 C 965.78906,137.20755 963.36306,136.78929 956.65836,137.79472 C 948.86036,138.9641 948.44216,138.81897 948.98636,135.13247 C 949.85526,129.2464 944.77276,126.80806 937.65756,129.69755 C 934.46846,130.99268 929.97816,132.47971 927.67926,133.00207 C 924.05986,133.82445 923.66046,133.4443 924.70056,130.16725 C 926.26446,125.23981 924.36166,125.39055 913.43456,131.05974 C 899.73816,138.16567 901.38586,140.54498 920.00316,140.54498 C 944.59526,140.54498 982.65186,152.41749 991.24356,162.76984 C 992.63146,164.4422 996.79646,167.72288 1000.4992,170.06024 C 1004.2018,172.3976 1008.1253,176.27239 1009.2182,178.67089 C 1011.5262,183.73652 1014.1818,184.41413 1014.1675,179.93379 z M 1042.5062,168.42696 C 1046.5241,160.39429 1051.5525,151.94267 1053.6804,149.64557 C 1060.8258,141.93199 1083.9333,127.96911 1094.3428,125.07505 C 1102.1905,122.89318 1103.9769,121.82629 1101.8116,120.61449 C 1098.0233,118.49449 1085.9808,120.63708 1076.1373,125.18243 C 1071.5383,127.3061 1062.0746,135.04759 1053.748,143.49735 C 1041.6528,155.77148 1038.7242,159.91271 1035.6026,169.15622 C 1031.4091,181.5739 1031.1924,183.03179 1033.5406,183.03179 C 1034.4538,183.03179 1038.4884,176.45961 1042.5062,168.42696 z M 1087.5558,179.30472 C 1088.5672,178.35225 1087.0371,177.72094 1083.7173,177.72094 C 1076.6863,177.72094 1072.3211,179.38327 1073.6606,181.55065 C 1074.8178,183.42303 1084.9158,181.79085 1087.5558,179.30472 z M 1124.5588,181.68455 C 1125.7208,179.80432 1122.023,175.15457 1117.4129,172.69925 C 1111.4222,169.50856 1097.4988,170.04274 1096.1666,173.51437 C 1094.903,176.80743 1099.0261,179.80327 1107.1174,181.47104 C 1115.0439,183.10485 1123.6161,183.2098 1124.5588,181.68455 z M 924.77796,174.93814 C 924.77796,172.49181 914.91896,171.82445 912.62766,174.11569 C 911.16466,175.5787 911.27596,176.48784 913.05226,177.58568 C 915.88006,179.33333 924.77796,177.32427 924.77796,174.93814 z M 1030.1935,166.65667 C 1035.5821,148.79469 1038.2038,143.26246 1048.1138,128.8428 C 1055.6424,117.88831 1056.5394,115.66327 1055.0288,111.69017 C 1051.9422,103.57171 1041.604,100.82988 1034.0444,106.12482 C 1028.0462,110.32612 1029.2991,112.22043 1038.0762,112.22043 C 1043.9772,112.22043 1046.0425,112.90887 1046.0425,114.87586 C 1046.0425,116.49085 1044.3951,117.53128 1041.8381,117.53128 C 1033.8628,117.53128 1026.5694,119.75104 1026.5694,122.17828 C 1026.5694,123.8462 1028.8448,124.61242 1033.798,124.61242 C 1042.9188,124.61242 1042.3191,127.94794 1032.6614,130.93478 C 1026.0607,132.97618 1025.61,133.61394 1030.405,134.1277 C 1034.4688,134.5631 1033.5385,137.93944 1028.577,140.76203 C 1022.7797,144.06006 1021.5044,148.6257 1022.0012,164.30375 C 1022.306,173.92597 1023.6485,179.49122 1025.6648,179.49122 C 1026.026,179.49122 1028.0639,173.71567 1030.1935,166.65667 z M 1053.465,174.29002 C 1083.7418,156.54721 1107.8252,145.09216 1120.9179,142.20662 C 1126.5609,140.96295 1131.634,139.20723 1132.1916,138.30503 C 1133.9182,135.51135 1128.1638,131.34398 1120.6932,129.97789 C 1112.8319,128.54034 1108.5558,130.0625 1110.7017,133.53461 C 1111.7929,135.30017 1109.2727,135.51674 1098.7411,134.5624 C 1089.8258,133.75451 1083.8799,134.04497 1080.8232,135.43771 C 1075.0413,138.0721 1076.1939,139.94707 1085.0636,142.33539 C 1093.5231,144.6133 1094.5136,148.18363 1086.3166,146.85166 C 1074.7994,144.98021 1068.5072,145.01316 1067.8348,146.94843 C 1067.4568,148.03618 1069.5686,149.41037 1072.5276,150.00217 C 1075.4866,150.59397 1077.9076,151.98758 1077.9076,153.09909 C 1077.9076,154.33515 1076.0694,154.76861 1073.1744,154.2152 C 1060.308,151.75563 1044.2722,162.24785 1044.2722,173.12594 C 1044.2722,178.62365 1045.7506,178.81085 1053.465,174.29002 z M 1088.4649,168.57867 C 1096.7054,165.81767 1104.6717,163.54648 1106.1677,163.53157 C 1111.6775,163.47665 1113.5572,160.88992 1111.6784,155.94815 L 1109.9061,151.28681 L 1101.4306,154.31471 C 1090.2019,158.3262 1068.6764,170.87585 1067.6318,174.01989 C 1067.0137,175.88011 1067.6524,176.14389 1070.1423,175.05675 C 1071.9791,174.2548 1080.2242,171.33967 1088.4649,168.57867 z M 889.69636,172.34041 C 893.72206,170.93706 895.88516,168.3034 898.81196,161.24192 C 903.63056,149.61635 903.61636,149.3964 898.04886,149.3964 C 889.85596,149.3964 878.38496,166.08973 882.26446,172.36689 C 883.63256,174.58046 883.26686,174.58176 889.69636,172.34041 z M 918.89556,164.25001 C 919.72456,163.73766 922.05606,160.07793 924.07666,156.11728 C 927.91986,148.584 926.91986,145.94775 920.19476,145.88294 C 913.01336,145.81373 898.61396,162.00197 901.58336,166.80655 C 902.56786,168.39937 915.20016,166.53393 918.89556,164.25001 z M 936.14046,164.20715 C 939.84526,163.46618 942.62496,161.39254 944.32806,158.09906 C 948.06196,150.87851 947.56646,149.3964 941.41866,149.3964 C 937.51476,149.3964 934.15536,151.17186 929.77966,155.54756 C 921.30486,164.02232 923.32356,166.77053 936.14046,164.20715 z M 1183.9961,160.37565 C 1191.7207,156.53977 1192.6762,153.53105 1186.9928,150.94144 C 1179.6999,147.61858 1159.0548,155.01134 1163.4244,159.38096 C 1164.2812,160.23778 1173.6229,162.92075 1177.0436,163.29244 C 1177.5304,163.34533 1180.6591,162.03278 1183.9961,160.37565 z M 1140.7992,160.01811 L 1155.4505,160.01811 L 1159.2379,153.599 C 1161.3209,150.06849 1162.5594,146.7141 1161.9901,146.1448 C 1159.692,143.8467 1146.5479,145.90021 1141.7674,149.30419 C 1135.3726,153.85775 1134.5568,153.84197 1134.5568,149.16477 C 1134.5568,145.79879 1133.8465,145.50784 1127.9608,146.46295 C 1120.9807,147.59567 1115.1906,153.21025 1115.123,158.91168 C 1115.0901,161.68961 1115.9859,162.05051 1120.6158,161.12453 C 1123.6585,160.516 1132.741,160.01811 1140.7992,160.01811 z M 1019.4882,151.59709 C 1019.4882,147.52239 1015.9773,142.31526 1013.23,142.31526 C 1009.1835,142.31526 1010.187,137.53497 1014.4685,136.41534 C 1017.6721,135.57758 1017.9338,134.97185 1016.065,132.72003 C 1014.8356,131.23872 1011.1081,129.04258 1007.7817,127.83973 C 1001.1448,125.43981 1000.7123,122.285 1006.8958,121.37774 C 1013.0668,120.47232 1010.6671,115.55294 1002.6705,112.71568 C 994.87136,109.94849 981.41556,110.6126 978.17516,113.92464 C 976.60156,115.53301 977.29406,116.93639 981.11296,119.87817 C 994.89086,130.49164 1004.7193,140.84682 1006.9146,147.06265 C 1008.2276,150.78036 1010.5702,155.269 1012.1202,157.03742 C 1014.803,160.09817 1015.0478,160.10318 1017.2133,157.14164 C 1018.4645,155.43054 1019.4882,152.93549 1019.4882,151.59709 z M 891.14256,144.38619 C 898.59906,141.89597 900.08226,140.66292 900.55416,136.56184 C 900.86916,133.82435 900.24956,131.69356 899.13856,131.69356 C 893.93676,131.69356 877.86546,142.62594 877.86546,146.16442 C 877.86546,148.20915 880.92066,147.79996 891.14256,144.38619 z M 990.22946,133.54314 C 991.96136,130.74093 984.81616,128.15299 975.34746,128.15299 C 966.34356,128.15299 962.97166,125.17215 969.92026,123.35507 C 971.86756,122.84584 973.46076,121.72548 973.46076,120.86538 C 973.46076,119.12325 971.06266,118.85798 959.01276,119.26719 C 952.87366,119.47566 950.32786,118.77416 949.07066,116.52758 C 947.74046,114.15077 946.01086,113.76472 940.94756,114.71459 C 932.27416,116.34174 932.68416,120.32665 941.67296,121.76402 C 945.61016,122.3936 950.19076,123.70584 951.85216,124.68012 C 953.51356,125.6544 961.21206,129.16379 968.95996,132.47876 C 982.75336,138.38034 987.10536,138.59812 990.22946,133.54314 z M 1063.1392,127.9377 C 1072.8119,120.47533 1074.7113,117.53128 1069.8534,117.53128 C 1065.1496,117.53128 1057.7201,122.26504 1053.5662,127.90876 C 1046.162,137.96846 1050.122,137.98044 1063.1392,127.9377 z M 1021.2191,113.91706 C 1018.3092,108.47994 1006.7876,101.59872 1000.5938,101.59872 C 991.87016,101.59872 992.05616,104.49795 1000.9231,106.73065 C 1005.2929,107.83099 1011.4498,111.03789 1014.605,113.85711 C 1020.7899,119.38332 1024.1609,119.41388 1021.2191,113.91706 z "
         id="path1388" />
    </g>
  </g>
  <path
     style="opacity: 1; fill: rgb(255, 255, 255); fill-opacity: 1; stroke: none; stroke-width: 0.814961; stroke-linejoin: miter; stroke-miterlimit: 4; stroke-dasharray: none; stroke-dashoffset: 0pt; stroke-opacity: 1;"
     d="M 161.72797,45.413708 C 142.49943,45.657544 124.39334,50.635741 108.54047,59.226208 C 114.24295,57.908787 120.15827,57.194958 126.25922,57.194958 C 169.64375,57.194958 204.85297,92.404178 204.85297,135.7887 C 204.85297,179.17324 169.64375,214.38245 126.25922,214.38245 C 87.397315,214.38246 55.103095,186.14214 48.790465,149.06995 C 48.426762,152.79008 48.259215,156.5673 48.259215,160.38245 C 48.259215,223.84297 99.767446,275.3512 163.22797,275.3512 C 226.68849,275.3512 278.16546,223.84297 278.16547,160.38245 C 278.16547,96.921938 226.68849,45.413709 163.22797,45.413708 C 162.73218,45.413708 162.22228,45.40744 161.72797,45.413708 z "
     id="path6164" />
</svg>
