<?xml version="1.0" encoding="UTF-8" standalone="no"?>
<!-- Created with Inkscape (http://www.inkscape.org/) -->

<svg
   xmlns:dc="http://purl.org/dc/elements/1.1/"
   xmlns:cc="http://creativecommons.org/ns#"
   xmlns:rdf="http://www.w3.org/1999/02/22-rdf-syntax-ns#"
   xmlns:svg="http://www.w3.org/2000/svg"
   xmlns="http://www.w3.org/2000/svg"
   xmlns:sodipodi="http://sodipodi.sourceforge.net/DTD/sodipodi-0.dtd"
   xmlns:inkscape="http://www.inkscape.org/namespaces/inkscape"
   width="700"
   height="420"
   id="svg4838"
   sodipodi:version="0.32"
   inkscape:version="0.47 r22583"
   version="1.0"
   sodipodi:docname="Navajo_flag.svg">
  <defs
     id="defs4840">
    <inkscape:perspective
       sodipodi:type="inkscape:persp3d"
       inkscape:vp_x="0 : 210 : 1"
       inkscape:vp_y="0 : 1000 : 0"
       inkscape:vp_z="700 : 210 : 1"
       inkscape:persp3d-origin="350 : 140 : 1"
       id="perspective3797" />
  </defs>
  <sodipodi:namedview
     id="base"
     pagecolor="#ffffff"
     bordercolor="#666666"
     borderopacity="1.0"
     gridtolerance="10000"
     guidetolerance="10"
     objecttolerance="10"
     inkscape:pageopacity="0.0"
     inkscape:pageshadow="2"
     inkscape:zoom="1.2285714"
     inkscape:cx="349.99999"
     inkscape:cy="210"
     inkscape:document-units="px"
     inkscape:current-layer="layer1"
     width="700px"
     height="420px"
     showguides="true"
     inkscape:guide-bbox="true"
     inkscape:window-width="974"
     inkscape:window-height="718"
     inkscape:window-x="119"
     inkscape:window-y="11"
     showgrid="false"
     inkscape:window-maximized="0" />
  <metadata
     id="metadata4843">
    <rdf:RDF>
      <cc:Work
         rdf:about="">
        <dc:format>image/svg+xml</dc:format>
        <dc:type
           rdf:resource="http://purl.org/dc/dcmitype/StillImage" />
      </cc:Work>
    </rdf:RDF>
  </metadata>
  <g
     inkscape:label="Layer 1"
     inkscape:groupmode="layer"
     id="layer1">
    <rect
       style="opacity:1;fill:#ffdead;fill-opacity:1;stroke:none;stroke-width:9.97999954;stroke-linejoin:miter;stroke-miterlimit:4;stroke-dasharray:none;stroke-opacity:1"
       id="rect5047"
       width="700"
       height="420"
       x="0"
       y="0"
       ry="2.73049" />
    <path
       sodipodi:type="arc"
       style="fill:none;fill-opacity:1;stroke:red;stroke-width:9.9996891;stroke-linejoin:miter;stroke-miterlimit:4;stroke-dasharray:none;stroke-opacity:1"
       id="path5035"
       sodipodi:cx="350.37134"
       sodipodi:cy="318.06366"
       sodipodi:rx="277.95755"
       sodipodi:ry="277.95755"
       d="M 628.32889 318.06366 A 277.95755 277.95755 0 1 1  72.413788,318.06366 A 277.95755 277.95755 0 1 1  628.32889 318.06366 z"
       transform="matrix(0.998031,0,0,0.998031,1.24695,0.626201)" />
    <path
       sodipodi:type="arc"
       style="fill:none;fill-opacity:1;stroke:#fc0;stroke-width:10;stroke-linejoin:miter;stroke-miterlimit:4;stroke-dasharray:none;stroke-opacity:1"
       id="path5033"
       sodipodi:cx="350.37134"
       sodipodi:cy="315.83554"
       sodipodi:rx="266.81699"
       sodipodi:ry="266.81699"
       d="M 617.18832 315.83554 A 266.81699 266.81699 0 1 1  83.554352,315.83554 A 266.81699 266.81699 0 1 1  617.18832 315.83554 z"
       transform="matrix(1.004099,0,0,1.004099,-0.32175,-1.294399)" />
    <path
       sodipodi:type="arc"
       style="fill:none;fill-opacity:1;stroke:#04a;stroke-width:10;stroke-linejoin:miter;stroke-miterlimit:4;stroke-dasharray:none;stroke-opacity:1"
       id="path5031"
       sodipodi:cx="349.81433"
       sodipodi:cy="316.39258"
       sodipodi:rx="256.23343"
       sodipodi:ry="256.23343"
       d="M 606.04776 316.39258 A 256.23343 256.23343 0 1 1  93.580902,316.39258 A 256.23343 256.23343 0 1 1  606.04776 316.39258 z"
       transform="matrix(1.00853,0,0,1.00853,-0.75535,-2.698499)" />
    <rect
       style="opacity:1;fill:#ffdead;fill-opacity:1;stroke:none;stroke-width:8.69999981;stroke-linejoin:miter;stroke-miterlimit:4;stroke-dasharray:none;stroke-opacity:1"
       id="rect5040"
       width="621.64459"
       height="91.352783"
       x="43.448277"
       y="340.90186"
       ry="2.7449753" />
    <path
       style="fill:#04a"
       d="M 324.23974,361.4419 L 337.30052,374.97049 L 355.88342,357.91263 L 373.00042,385.88075 L 298.50047,385.9187 L 324.23974,361.4419 z "
       id="path4991" />
    <path
       style="fill:#dc7729;fill-opacity:1"
       d="M 219.00047,342.21183 C 219.00047,330.59689 218.95708,330.37329 216.04111,326.96183 C 213.3254,323.78465 213.07841,322.86153 213.04111,315.7496 L 213.00047,307.9996 L 207.00047,308.09176 L 207.0588,312.9996 L 202.00047,313.04323 L 202.0637,316.9996 L 194.00047,316.90744 L 193.8816,311.9996 L 190.07572,312.03612 L 189.98577,304.9996 L 199.00047,305.08465 L 198.86518,298.9996 L 192.2588,298.9996 L 191.55282,292.7595 C 191.16452,289.32744 190.36693,285.94115 189.78038,285.23441 C 189.19383,284.52766 188.61146,282.13343 188.48623,279.91391 C 188.32804,277.11022 187.44217,275.0263 185.58409,273.08688 C 183.29996,270.70276 182.77471,268.99108 181.98502,261.35811 C 181.47646,256.44262 180.3719,250.46949 179.53042,248.0845 C 177.09502,241.18184 177.58498,237.4985 182.00324,229.49458 C 184.20477,225.50639 186.45599,219.87063 187.00596,216.97066 C 188.17411,210.81101 189.31614,209.18484 193.78596,207.31645 C 197.12732,205.91975 199.00047,202.76978 199.00047,198.54751 C 199.00047,195.10339 205.00861,186.74517 208.8703,184.81712 C 210.72371,183.89175 213.03695,181.82438 214.01083,180.22296 C 214.98471,178.62154 218.58207,175.44116 222.00495,173.15544 L 228.22838,168.9996 L 403.00042,168.9996 L 403.00042,353.9996 L 382.00042,353.9996 L 382.00042,345.9996 L 367.1105,345.92145 L 366.96763,340.9996 L 348.00042,340.9996 L 348.00042,347.9996 L 255.00047,347.9996 L 255.00047,353.9996 L 219.00047,353.9996 L 219.00047,342.21183 z "
       id="path4989"
       sodipodi:nodetypes="csccccccccccccccssssssssssscccccccccccccc" />
    <rect
       style="opacity:1;fill:#604333;fill-opacity:1;stroke:none;stroke-width:10;stroke-linejoin:miter;stroke-miterlimit:4;stroke-dasharray:none;stroke-opacity:1"
       id="rect5986"
       width="63.655533"
       height="145.04147"
       x="339.33163"
       y="168.96191" />
    <path
       sodipodi:type="arc"
       style="opacity:1;fill:white;fill-opacity:1;stroke:none;stroke-width:8.69999981;stroke-linejoin:miter;stroke-miterlimit:4;stroke-dasharray:none;stroke-opacity:1"
       id="path5001"
       sodipodi:cx="321.41034"
       sodipodi:cy="242.37849"
       sodipodi:rx="68.934059"
       sodipodi:ry="68.934059"
       d="M 390.3444 242.37849 A 68.934059 68.934059 0 1 1  252.47628,242.37849 A 68.934059 68.934059 0 1 1  390.3444 242.37849 z" />
    <path
       style="fill:#447821;fill-opacity:1"
       d="M 314.68523,303.14334 C 312.9692,302.46677 312.98286,302.32551 314.93523,300.55864 C 316.07111,299.53068 317.00047,298.30937 317.00047,297.84461 C 317.00047,297.37986 311.44262,296.9996 304.64969,296.9996 C 292.04529,296.9996 286.58933,295.97652 285.61203,293.42972 C 285.19221,292.3357 286.05466,291.98043 289.28185,291.91803 L 293.50047,291.83645 L 290.00047,290.33521 C 288.07547,289.50952 285.01834,287.41393 283.20685,285.67834 C 280.65703,283.23535 279.72493,282.82739 279.07942,283.87186 C 278.62082,284.61388 278.45137,286.18368 278.70286,287.3603 C 279.11183,289.27369 278.88769,289.20331 276.58029,286.69384 C 273.60988,283.46327 273.2531,279.48291 275.69235,276.78757 C 277.30608,275.00442 277.10371,274.65113 271.31147,269.13941 C 267.1139,265.14514 265.01372,262.30145 264.51008,259.93018 C 264.10934,258.04336 262.70574,255.06712 261.39096,253.31632 C 257.48268,248.11189 258.83716,247.30841 264.08084,251.72068 L 267.31467,254.44177 L 265.20714,250.47068 C 264.048,248.28659 262.84812,245.66437 262.54073,244.64353 C 262.1163,243.23401 261.38261,242.93786 259.49115,243.41258 C 257.25794,243.97308 257.00047,243.73234 257.00047,241.08375 C 257.00047,236.09873 258.75269,232.70154 261.01829,233.29401 C 262.84725,233.77229 263.00123,233.29785 263.01024,227.15598 C 263.01743,222.25321 263.64898,219.14878 265.40746,215.37214 C 268.11142,209.56494 270.70509,207.05605 269.6472,211.27098 C 269.29248,212.68431 269.27073,214.5403 269.59886,215.3954 C 270.1378,216.79987 270.48469,216.80056 273.18822,215.40251 C 276.06235,213.91624 280.7737,214.2843 278.31979,215.80339 C 277.70124,216.18631 276.01588,218.9746 274.57456,221.9996 C 273.13323,225.0246 271.29606,228.6246 270.49196,229.9996 C 268.69264,233.07639 268.55703,236.31071 270.25047,235.75909 C 270.93797,235.53514 272.15058,234.03514 272.94517,232.42576 L 274.38987,229.4996 L 275.35791,232.81266 C 276.08429,235.29861 275.91086,237.44257 274.66322,241.40055 C 272.69644,247.63987 272.60152,250.52957 274.16,256.71888 C 275.31452,261.30389 275.3271,261.31445 277.07029,259.1617 C 278.73402,257.10709 280.68852,256.0773 279.6089,257.82415 C 279.04321,258.73946 281.40334,269.73581 282.37377,270.70624 C 282.71171,271.04418 283.8981,270.49723 285.01019,269.4908 C 286.97341,267.71411 287.15843,267.72398 291.37586,269.83026 C 293.76488,271.0234 296.21862,271.9996 296.82862,271.9996 C 299.22215,271.9996 296.66133,274.90399 294.01334,275.19259 L 291.19643,275.4996 L 292.84845,278.89886 C 293.75706,280.76846 295.59385,283.01455 296.93021,283.89018 C 299.28877,285.43559 299.34195,285.41343 298.74576,283.13359 C 298.08055,280.58983 299.41353,275.9996 300.81743,275.9996 C 301.29399,275.9996 302.20124,277.72634 302.83355,279.8368 C 304.3123,284.77244 305.95056,286.17921 315.04731,290.32474 L 322.53084,293.73509 L 330.7309,289.94867 C 338.97652,286.14119 342.98732,282.15225 342.99672,277.7496 C 342.99882,276.7871 343.43462,275.9996 343.96532,275.9996 C 345.64622,275.9996 347.19552,280.08648 346.52592,282.75428 C 345.90322,285.23523 345.95992,285.27175 348.19082,283.82693 C 349.46112,283.00427 351.29012,280.79408 352.25522,278.91539 L 354.00992,275.4996 L 351.09032,275.19259 C 348.07092,274.87509 345.81362,271.9996 348.58372,271.9996 C 349.42002,271.9996 351.84522,270.9976 353.97312,269.77294 C 357.80642,267.56677 357.86172,267.5641 359.98232,269.48317 C 361.80602,271.13361 362.25662,271.20411 363.02912,269.95984 C 364.33742,267.85258 366.11662,258.99661 365.44882,257.91603 C 365.13732,257.41199 365.34312,256.9996 365.90622,256.9996 C 366.46942,256.9996 367.43242,257.93814 368.04632,259.08525 C 369.46992,261.74522 369.62222,261.54921 371.38142,254.79548 C 372.73532,249.59751 372.69752,248.69992 370.87842,242.85531 C 369.42482,238.18492 369.13322,235.61749 369.76112,233.01761 L 370.61072,229.4996 L 372.05562,232.42576 C 372.85022,234.03514 374.06292,235.53514 374.75042,235.75909 C 376.60942,236.36461 376.26372,232.98072 374.05992,228.9996 C 372.99432,227.0746 371.16662,223.48363 369.99842,221.01967 C 368.83022,218.5557 367.35292,216.21741 366.71542,215.82346 C 364.22282,214.2829 369.01462,213.86017 372.01322,215.35609 C 374.70912,216.70098 375.17412,216.71061 375.66492,215.43173 C 375.97422,214.62571 376.01362,212.84875 375.75252,211.48292 C 374.95162,207.29307 376.72082,208.7154 379.42782,214.43767 C 381.44222,218.69579 382.00042,221.42268 382.00042,227.00506 C 382.00042,233.60466 382.14452,234.08865 383.93952,233.51893 C 386.38292,232.74345 388.00042,235.50547 388.00042,240.45291 C 388.00042,243.77377 387.81712,243.99168 385.50982,243.41258 C 383.61832,242.93786 382.88462,243.23401 382.46022,244.64353 C 382.15282,245.66437 380.95292,248.28659 379.79382,250.47068 L 377.68622,254.44177 L 380.92012,251.72068 C 386.22072,247.26048 387.53492,248.12123 383.50042,253.41071 C 382.12542,255.21343 381.00042,257.46299 381.00042,258.40973 C 381.00042,261.43619 378.99182,264.36686 373.17542,269.82645 C 369.47382,273.30101 367.95762,275.3369 368.81512,275.68132 C 369.53812,275.97174 370.54912,277.31245 371.06172,278.66068 C 372.07592,281.32822 370.47382,285.53192 367.50352,287.99706 C 366.05342,289.20055 365.94532,289.06738 366.51862,286.78333 C 367.51492,282.8139 365.24582,282.37035 361.66402,285.83438 C 359.92412,287.51717 356.92542,289.57514 355.00042,290.40766 L 351.50042,291.92132 L 355.75042,291.96046 C 358.08792,291.98199 360.00042,292.43377 360.00042,292.96442 C 360.00042,295.39645 354.88402,296.52186 341.65542,296.9996 L 327.81034,297.4996 L 329.92107,300.17724 L 332.0318,302.85488 L 329.93106,303.52163 C 328.5,303.97583 327.11962,303.52072 325.60094,302.09399 C 322.82705,299.48806 321.78794,299.47198 319.50047,301.9996 C 317.53701,304.1692 317.3811,304.20623 314.68523,303.14334 z "
       id="path4985" />
    <path
       style="fill:black"
       d="M 316.00047,280.9996 C 316.00047,277.59217 315.37041,277.35176 312.22122,279.55753 C 309.44399,281.50278 308.00047,280.68387 308.00047,277.16309 C 308.00047,275.66793 307.32197,273.47592 306.49269,272.29196 C 305.10885,270.31625 305.14922,270.08716 306.98375,269.50491 C 308.0831,269.15599 309.44581,269.1568 310.01199,269.50672 C 310.57817,269.85664 312.36658,269.02788 313.98624,267.66503 C 319.87948,262.70619 332.02378,263.38982 334.15052,268.80011 C 334.73415,270.28483 335.85842,273.01781 336.64892,274.87341 C 338.17882,278.46467 337.74092,280.14002 335.78382,278.18293 C 333.78892,276.18805 333.00047,276.8443 333.00047,280.4996 C 333.00047,285.12791 329.70778,285.46735 328.15031,280.9996 C 327.30462,278.57363 326.53573,277.9996 324.13194,277.9996 C 321.64219,277.9996 321.05236,278.48686 320.50047,280.9996 C 320.04731,283.06284 319.24186,283.9996 317.92101,283.9996 C 316.45374,283.9996 316.00047,283.29156 316.00047,280.9996 z "
       id="path4983" />
    <path
       style="fill:black"
       d="M 295.47231,261.95185 C 294.74912,260.78636 300.30242,260.28581 301.26109,257.57621 L 319.97007,204.69666 L 338.59956,256.83639 C 338.85565,257.55312 342.79552,257.4996 347.30372,257.4996 C 353.85462,257.4996 355.50042,257.79524 355.50042,258.97192 C 355.50042,260.94263 348.66942,262.05798 338.51402,261.74541 C 331.81998,261.53938 330.47308,261.21641 330.19071,259.7496 C 329.98513,258.68171 332.03873,257.21377 332.99881,257.21377 L 320.08368,247.93148 L 307.02128,257.13302 C 306.04652,257.81967 312.45937,258.81066 319.7312,258.2607 C 326.073,257.78107 327.00047,257.92388 327.00047,259.38001 C 327.00047,260.29801 325.82346,261.4966 324.38489,262.04354 C 321.74339,263.04784 296.10192,262.96653 295.47231,261.95185 z "
       id="path4981"
       sodipodi:nodetypes="cscsssssscssssc" />
    <path
       style="fill:white;fill-opacity:1"
       d="M 317.00047,245.51965 L 311.00226,240.86469 L 307.78841,252.24158 C 310.84726,249.99947 314.23372,248.12545 317.00047,245.51965 z "
       id="path4979"
       sodipodi:nodetypes="cccc" />
    <path
       style="fill:white;fill-opacity:1"
       d="M 328.00023,241.14802 L 322.83843,245.43773 L 331.85235,251.45096 L 328.00023,241.14802 z "
       id="path4977"
       sodipodi:nodetypes="cccc" />
    <path
       style="fill:white;fill-opacity:1"
       d="M 325.22499,239.98246 L 314.65184,239.9996 L 320.07184,244.70793 L 325.22499,239.98246 z "
       id="path4975"
       sodipodi:nodetypes="cccc" />
    <path
       style="fill:white;fill-opacity:1"
       d="M 320.04824,230.87457 L 314.67581,236.96355 L 325.37465,236.9996 L 320.04824,230.87457 z "
       id="path4973"
       sodipodi:nodetypes="cccc" />
    <path
       style="fill:white;fill-opacity:1"
       d="M 323.96233,226.70245 L 321.94563,228.87896 L 326.13053,233.63471 L 323.96233,226.70245 z "
       id="path4971"
       sodipodi:nodetypes="cccc" />
    <path
       style="fill:white;fill-opacity:1"
       d="M 317.46147,229.0293 L 315.41536,226.40609 L 312.89317,233.67687 L 317.46147,229.0293 z "
       id="path4969"
       sodipodi:nodetypes="cccc" />
    <path
       style="fill:white;fill-opacity:1"
       d="M 322.5038,223.27121 L 320.00377,214.55953 L 316.52501,223.37527 L 320.06307,227.3435 L 322.5038,223.27121 z "
       id="path4967"
       sodipodi:nodetypes="ccccc" />
    <path
       style="fill:black"
       d="M 314.69432,256.36012 C 313.16163,254.82742 315.56921,253.9996 321.55949,253.9996 C 326.61814,253.9996 328.00047,254.32152 328.00047,255.4996 C 328.00047,256.67504 326.6301,256.9996 321.66714,256.9996 C 318.1838,256.9996 315.04604,256.71183 314.69432,256.36012 z "
       id="path4965" />
    <path
       style="fill:black"
       d="M 279.00047,251.90389 C 279.00047,247.94293 281.86763,243.07105 284.60269,242.38459 C 286.40582,241.93203 286.81589,240.87919 287.32894,235.38498 C 288.01559,228.03185 288.69802,226.29715 290.28123,227.88036 C 290.86149,228.46062 291.23172,231.81877 291.10396,235.34292 C 290.88118,241.48795 290.978,241.77714 293.46709,242.40187 C 296.54169,243.17354 299.85399,248.41955 299.99673,252.2496 L 300.08248,254.55055 L 294.88821,254.53904 C 294.71332,252.25376 293.64034,249.18265 290.65892,249.1426 C 288.21781,249.10852 286.49861,252.22385 286.55142,254.60644 L 279.07132,254.66282 L 279.00047,251.90389 z "
       id="path4963"
       sodipodi:nodetypes="cssssssccsccc" />
    <path
       style="fill:black"
       d="M 345.75042,253.37358 C 344.97998,253.40495 343.98502,252.42597 344.11268,251.78377 L 343.89851,246.44865 L 341.7759,245.96327 L 341.6536,251.60659 C 341.63341,252.53822 338.41377,251.22954 338.41872,250.9996 L 338.56172,244.35628 L 336.79752,243.9996 L 342.756,235.95818 L 354.20424,235.88734 L 354.11268,233.42794 L 356.64191,233.43313 L 356.83337,235.96157 L 358.99184,235.86186 L 364.01984,243.96854 L 363.99584,251.11073 C 363.99584,251.11073 369.02405,252.48082 369.50042,252.94638 C 369.97679,253.41195 365.90132,252.97299 365.90132,252.97299 C 363.92182,252.98763 358.97182,253.20088 354.90132,253.4469 C 350.83082,253.69291 346.71292,253.65992 345.75042,253.37358 z "
       id="path4961"
       sodipodi:nodetypes="ccccsscccccccccczcsc" />
    <path
       style="fill:white;fill-opacity:1"
       d="M 361.44947,243.91347 L 358.15054,237.8824 L 344.7759,237.879 L 347.23069,243.7978 L 361.44947,243.91347 z "
       id="path4957"
       sodipodi:nodetypes="ccccc" />
    <path
       style="fill:black"
       d="M 280.34786,223.59216 C 281.74666,221.45733 281.75399,221.11899 280.41264,220.60427 C 279.13884,220.11547 279.2276,219.67217 280.97476,217.79682 C 282.11588,216.57197 282.83605,215.01351 282.57514,214.33358 C 282.31422,213.65364 282.95479,212.06284 283.99861,210.79847 L 285.89649,208.4996 L 287.69071,210.9996 C 288.67753,212.3746 289.35848,213.88945 289.20392,214.36594 C 289.04936,214.84243 289.66283,216.36154 290.56717,217.74174 C 291.9196,219.80581 291.97234,220.39895 290.86431,221.08375 C 289.79145,221.74682 289.76997,222.1691 290.75883,223.15796 C 293.05733,225.45646 292.03028,225.9996 285.38546,225.9996 L 278.77045,225.9996 L 280.34786,223.59216 z "
       id="path4955" />
    <path
       style="fill:black"
       d="M 295.00047,210.9996 L 305.00047,210.9996 L 305.00047,204.0402 L 310.00047,203.9996 L 309.95944,225.9996 L 307.00047,225.99316 L 306.96065,219.9996 L 302.00047,220.0362 L 301.96709,225.9996 L 295.00047,225.9996 L 295.00047,210.9996 z "
       id="path4953"
       sodipodi:nodetypes="ccccccccccc" />
    <rect
       style="opacity:1;fill:white;fill-opacity:1;stroke:none;stroke-width:2;stroke-linecap:butt;stroke-linejoin:miter;stroke-miterlimit:4;stroke-dasharray:none;stroke-opacity:1"
       id="rect5972"
       width="5.9827089"
       height="4.9762797"
       x="297.01099"
       y="213.00929" />
    <path
       style="fill:black"
       d="M 329.00047,225.99197 L 328.99403,210.9996 L 330.94456,211.01891 L 330.98759,204.9996 L 335.00047,205.0362 L 334.96501,210.9996 L 346.00042,210.9996 L 346.00042,218.4996 L 346.00042,225.9996 L 336.11224,226.01892 L 336.01335,219.9996 L 332.05638,220.0362 L 332.01012,225.9996 L 329.00047,225.99197 z "
       id="path4949"
       sodipodi:nodetypes="cccccccccccccc" />
    <rect
       style="opacity:1;fill:white;fill-opacity:1;stroke:none;stroke-width:2;stroke-linecap:butt;stroke-linejoin:miter;stroke-miterlimit:4;stroke-dasharray:none;stroke-opacity:1"
       id="rect5984"
       width="8.0515022"
       height="3.9698379"
       x="335.98248"
       y="214.01573" />
    <path
       style="fill:black"
       d="M 350.00042,225.1996 C 350.00042,224.7596 350.52142,223.87867 351.15812,223.24198 C 352.03302,222.36701 352.03392,221.74484 351.16162,220.69377 C 350.26192,219.6097 350.45072,218.90211 352.01812,217.48361 C 353.15362,216.45602 353.79882,214.93958 353.50042,213.9996 C 353.20992,213.08416 353.80072,211.58533 354.81342,210.66887 C 356.54432,209.10242 356.79532,209.15228 359.00182,211.50109 C 360.29282,212.87527 360.82722,213.9996 360.18952,213.9996 C 359.47462,213.9996 359.77892,215.23129 360.98262,217.21068 C 362.44042,219.60781 362.62892,220.61119 361.72632,221.16904 C 360.78492,221.75084 360.79212,222.19127 361.75882,223.15796 C 364.05142,225.45057 363.03552,225.9996 356.50042,225.9996 C 352.92542,225.9996 350.00042,225.6396 350.00042,225.1996 z "
       id="path4945" />
    <path
       style="fill:#c87137"
       d="M 274.47664,211.2496 C 274.85622,210.2871 275.52601,207.27444 275.96507,204.55481 C 277.0006,198.14055 283.00047,192.64698 283.00047,198.1131 C 283.00047,199.89261 283.47455,200.15702 286.00047,199.78629 C 287.97448,199.49657 289.00047,199.77532 289.00047,200.60136 C 289.00047,202.04363 286.29012,204.9996 284.96768,204.9996 C 284.47822,204.9996 282.29565,206.7996 280.11753,208.9996 C 275.94756,213.21145 273.28395,214.2739 274.47664,211.2496 z "
       id="path4943" />
    <path
       style="fill:#c87137"
       d="M 364.80402,211.90951 C 363.88002,211.39247 361.80922,209.73872 360.20212,208.23452 C 358.59502,206.73031 356.09222,204.69109 354.64032,203.70292 C 350.65862,200.99295 351.17012,198.99059 355.65802,199.71888 C 359.03132,200.26629 359.27172,200.14485 358.75162,198.15601 C 358.02382,195.37304 359.22042,195.42454 362.58782,198.32111 C 364.68712,200.12681 365.46472,201.95381 366.08762,206.54381 C 366.52802,209.78947 366.79732,212.53604 366.68612,212.6473 C 366.57482,212.75856 365.72792,212.42656 364.80402,211.90951 z "
       id="path4941" />
    <path
       style="fill:white;fill-opacity:1"
       d="M 322.50047,191.9996 C 322.50047,190.43816 321.85447,189.40258 320.74745,189.18939 C 318.76796,188.80817 317.48066,191.20262 318.39046,193.57351 C 319.34419,196.05891 322.50047,194.85023 322.50047,191.9996 z "
       id="path4937" />
    <path
       style="fill:#dc7729;fill-opacity:1"
       d="M 444.00042,338.9996 L 411.00042,338.9996 L 411.00042,325.9996 L 455.00042,325.9996 L 455.00042,241.9996 L 464.00042,241.9996 L 464.00042,229.9996 L 516.00042,229.9996 L 516.00042,313.9996 L 493.00042,313.9996 L 493.00042,344.9996 L 444.00042,344.9996 L 444.00042,338.9996 z "
       id="path4929"
       sodipodi:nodetypes="ccccccccccccc" />
    <path
       style="fill:black"
       d="M 307.26422,191.28202 C 308.78428,191.05216 311.03428,191.05831 312.26422,191.29567 C 313.49416,191.53303 312.25047,191.72109 309.50047,191.71359 C 306.75047,191.70608 305.74416,191.51187 307.26422,191.28202 z "
       id="path4933" />
    <path
       style="fill:#fc0"
       d="M 104.00047,322.22985 C 104.00047,321.80649 108.18208,317.29588 113.29293,312.20628 L 122.58539,302.95245 L 126.57536,306.36772 L 130.56533,309.78298 L 137.5329,301.4194 L 144.50047,293.05581 L 151.73579,300.2381 L 158.97111,307.42039 L 162.2834,304.20999 C 164.10516,302.44428 165.86813,300.9996 166.20111,300.9996 C 166.85569,300.9996 181.00047,321.47805 181.00047,322.42573 C 181.00047,322.74136 163.67547,322.9996 142.50047,322.9996 C 121.32547,322.9996 104.00047,322.65321 104.00047,322.22985 z "
       id="path4925" />
    <path
       style="fill:#dc7729;fill-opacity:1"
       d="M 411.00042,168.9996 L 440.00042,168.9996 L 440.00042,190.9996 L 466.00042,190.9996 L 466.00042,200.9996 L 456.00042,200.9996 L 456.00042,232.9996 L 448.00042,232.9996 L 448.00042,320.9996 L 411.00042,320.9996 L 411.00042,168.9996 z "
       id="path4923"
       sodipodi:nodetypes="ccccccccccc" />
    <path
       style="fill:#dc7729;fill-opacity:1"
       d="M 247.76625,158.97029 C 249.56242,157.33641 251.96589,155.9996 253.10728,155.9996 C 254.24867,155.9996 257.02257,154.4246 259.2715,152.4996 C 262.00365,150.16098 264.37095,148.9996 266.40571,148.9996 C 268.08059,148.9996 272.48016,147.81113 276.18253,146.35855 C 282.07729,144.04582 283.51957,143.83722 287.78449,144.6805 C 293.19555,145.7504 300.76774,144.57122 311.5697,140.97656 C 317.58732,138.97402 318.16117,138.95187 325.38216,140.44341 C 329.52586,141.29931 333.81963,141.9996 334.92389,141.9996 C 336.02812,141.9996 339.79702,143.5746 343.29912,145.4996 C 353.21082,150.94776 358.82112,150.24691 371.53582,141.97217 C 375.85862,139.15892 378.55432,138.08018 381.03582,138.17058 C 382.94862,138.24026 386.74002,137.18453 389.50042,135.81353 C 393.91242,133.62232 394.79452,133.4855 397.00042,134.65019 C 398.37542,135.37615 404.06512,134.74734 404.06218,135.98486 L 404.00042,161.9996 L 244.50047,161.94097 L 247.76625,158.97029 z "
       id="path4921"
       sodipodi:nodetypes="cssssssssssssssccc" />
    <path
       style="fill:black"
       d="M 318.55047,118.13658 L 355.34782,92.646212 L 365.50042,103.97121 L 377.86232,96.038942 L 398.21692,118.9996 L 318.55047,118.13658 z "
       id="path4809" />
    <path
       style="fill:#ffffff"
       d="M 597,325.7125 L 571.60092,294.04897 L 556.44413,308 L 544.7859,302.61908 L 518,325.64516 L 597,325.7125 z "
       id="path4914"
       sodipodi:nodetypes="cccccc" />
    <path
       style="fill:none;fill-rule:evenodd;stroke:black;stroke-width:2;stroke-linecap:round;stroke-linejoin:miter;stroke-miterlimit:4;stroke-dasharray:none;stroke-opacity:1"
       d="M 326.27544,187.31073 L 336.05945,182.37619"
       id="path5060" />
    <path
       sodipodi:type="arc"
       style="opacity:1;fill:white;fill-opacity:1;stroke:black;stroke-width:2;stroke-linejoin:miter;stroke-miterlimit:4;stroke-dasharray:none;stroke-opacity:1"
       id="path5054"
       sodipodi:cx="319.89456"
       sodipodi:cy="191.64973"
       sodipodi:rx="4.8494654"
       sodipodi:ry="4.8494654"
       d="M 324.74403 191.64973 A 4.8494654 4.8494654 0 1 1  315.0451,191.64973 A 4.8494654 4.8494654 0 1 1  324.74403 191.64973 z"
       transform="translate(0.595548,0.680627)" />
    <path
       style="fill:none;fill-rule:evenodd;stroke:black;stroke-width:2;stroke-linecap:round;stroke-linejoin:round;stroke-miterlimit:4;stroke-dasharray:none;stroke-opacity:1"
       d="M 312.23834,192.18114 L 303.55869,192.16584"
       id="path5056" />
    <path
       style="fill:none;fill-rule:evenodd;stroke:black;stroke-width:2;stroke-linecap:round;stroke-linejoin:miter;stroke-miterlimit:4;stroke-dasharray:none;stroke-opacity:1"
       d="M 314.19431,187.39581 L 304.58046,182.63143"
       id="path5058" />
    <path
       style="fill:none;fill-rule:evenodd;stroke:black;stroke-width:2;stroke-linecap:round;stroke-linejoin:miter;stroke-miterlimit:4;stroke-dasharray:none;stroke-opacity:1"
       d="M 328.57255,192.18114 L 338.18641,192.18114"
       id="path5062" />
    <path
       style="fill:none;fill-rule:evenodd;stroke:black;stroke-width:2;stroke-linecap:round;stroke-linejoin:miter;stroke-miterlimit:4;stroke-dasharray:none;stroke-opacity:1"
       d="M 326.53067,197.09474 L 335.97436,202.02929"
       id="path5064" />
    <path
       style="fill:none;fill-rule:evenodd;stroke:black;stroke-width:2;stroke-linecap:round;stroke-linejoin:miter;stroke-miterlimit:4;stroke-dasharray:none;stroke-opacity:1"
       d="M 314.10924,196.92459 L 305.43125,202.28453"
       id="path5066" />
    <rect
       style="opacity:1;fill:white;fill-opacity:1;stroke:none;stroke-width:2;stroke-linecap:butt;stroke-linejoin:miter;stroke-miterlimit:4;stroke-dasharray:none;stroke-opacity:1"
       id="rect5962"
       width="14.706263"
       height="5.3885541"
       x="347.22495"
       y="245.99461" />
    <rect
       style="opacity:1;fill:#604333;fill-opacity:1;stroke:none;stroke-width:10;stroke-linejoin:miter;stroke-miterlimit:4;stroke-dasharray:none;stroke-opacity:1"
       id="rect5991"
       width="28.986963"
       height="144.86324"
       x="410.99197"
       y="168.96001" />
  </g>
</svg>
