<?xml version="1.0" encoding="utf-8"?>
<svg xmlns="http://www.w3.org/2000/svg" viewBox="0 0 262 204" enable-background="new 0 0 262 204" xmlns:xlink="http://www.w3.org/1999/xlink"><defs><linearGradient id="2" gradientUnits="userSpaceOnUse" x1="52.778" y1="104.61" x2="112.44" y2="63.27" xlink:href="#1"/><linearGradient id="1" gradientUnits="userSpaceOnUse" x1="161.12" y1="56.12" x2="127.46" y2="80.45"><stop stop-color="#fff4b0"/><stop offset=".468" stop-color="#fef2ae"/><stop offset=".757" stop-color="#f1e09d"/><stop offset="1" stop-color="#c6a263"/></linearGradient><radialGradient id="0" cx="149.64" cy="116.71" r="42.05" gradientUnits="userSpaceOnUse"><stop stop-color="#845507"/><stop offset="1" stop-color="#d4b07a"/></radialGradient></defs><path fill="#d17300" d="m255.83 111.83l-17.333-22.667-69.67-80.5-161.41 63.847c-1.676.694-2.509 2.528-.861 6.096 0 0 49.23 118.61 49.27 118.59l3.02 2.039c.481.258 1.534.274 3.21-.416 0 0 33.436-23.21 79.53-49.744 0 0 13.442.121 19.5-2.25 12.09-4.73 16.397-12.263 16.397-12.263 43.604-11.651 75.27-14.958 75.27-14.958 1.956-.319 5.415-4.776 3.082-7.777"/><path fill="#f28500" d="m254.33 111.67c.789 4.557-3.235 4.917-4.913 5.612 0 0-31.667 3.307-75.27 14.958 0 0-4.311 7.528-16.397 12.263-6.06 2.371-19.5 2.25-19.5 2.25-46.09 26.533-79.53 49.744-79.53 49.744-1.677.694-2.723 1.381-3.218.297l-48.946-118.18c-1.648-3.568-.815-5.402.861-6.096 0 0 158.54-61.53 158.55-61.54 17.527 6.02 88.36 100.69 88.36 100.69"/><path fill="#c6a263" d="M14.25 76 60 182.5 61.33 155.83 20.333 58z"/><path fill="#e8cf91" d="m63 154c0 0 52.33-37.999 58.33-38.33s27.642-2.493 27.642-2.493l23.775-22.17 61.35-8.836 4.736 28.645-75.17 14.191-12.334 8-12 2-79.33 47.5 3-28.5"/><path fill="url(#0)" d="m140.62 133.62c0 0 .042-12.12 9.709-16.458s12.354 7.583 12.354 7.583l-9.563 9.188-12.5-.313"/><path fill="url(#1)" d="m149.27 113.77l-55.17-79.917c-.352-.508-.356-1.177-.001-1.689.35-.521 8.639-12.797 14.352-17.03 7.213-5.353 25.06-6.197 39.41-6.876 7.104-.335 13.239-.625 16.479-1.381.115-.027.229-.04.342-.04.404 0 .798.163 1.084.462l69.33 72.33c.402.419.525 1.036.316 1.577-.21.544-.719.915-1.294.957-.566.04-56.701 4.103-67.813 13.324-9.705 8.06-14.433 18.06-14.433 18.06l-2.594.22"/><path fill="url(#2)" d="m59.948 154.91l-41.29-99.16c0 0 33.367-33.16 53.677-35.5l2.082-.062c9.782 0 18.963 13.397 18.963 13.397l55.6 79.59c-.0001.0001-1.505 2.336-1.505 2.336s-6.188-1.131-13.47-1.131c-7.632 0-13.83 1.24-17.923 3.59-12.865 7.385-53.855 37.572-53.855 37.572l-2.275-.628"/><path fill="#845507" d="m242.04 109.12l-3.321-28.873c-.122-.932-.563-1.734-1.189-2.342-.096-.117-69.62-72.69-69.62-72.69-.858-.897-2.037-1.387-3.248-1.387-.342 0-.685.04-1.022.119-2.813.669-9.227.996-15.938 1.306-7.653.362-15.854.748-23.15 1.758-7.299 1.029-13.697 2.61-17.907 5.704-4.833 3.619-10.783 11.697-13.547 15.602-3.645-4.313-10.398-11.03-18.691-11.134-.535 0-1.069.031-1.596.092-21.621 2.556-41.946 22.788-52.902 33.501-3.292 2.657-4.067 5.701-4.067 5.701l-3.78 17.931c0 0-.124.766-.039 1.743.085.977.323 1.793.323 1.793l44.06 103.21c0 0 1.156 3.048 2.526 3.153 1.37.106 4.099-1.885 4.099-1.885l76.82-45.996c0 0 5.603 3.108 14.311-.1s10.07-9.915 10.07-9.915l75.78-14.314c0 0 1.481-.229 1.897-.771s.127-2.207.127-2.207m-222.42-47.25c0 0 37.644 94.34 37.681 94.42l-.241 15.573-40.982-95.45 3.542-14.542m81.81-34.744c2.756-3.602 6.264-7.732 8.793-9.593 4.487-3.429 15.794-5.01 26.997-5.708 10.708-.72 21.302-.798 26.938-1.859l66.56 69.45c-5.071.422-15.606 1.391-26.909 2.981-7.893 1.11-16.15 2.523-23.22 4.275-7.07 1.777-12.901 3.789-16.224 6.503-7.228 6-11.74 12.844-13.84 16.487l-.214.2-8.918-12.764-44.25-64.1c.804-1.161 2.379-3.392 4.281-5.866m-27.929-3.891c.302-.036.606-.052.91-.052 3.825-.043 8.06 2.854 11.228 5.947 1.583 1.533 2.908 3.079 3.827 4.235.921 1.156 1.419 1.897 1.423 1.897l45.579 65.25 7.947 11.518c-2.568-.315-6.292-.654-10.416-.654-6.419.013-13.804.79-19.417 3.989-11.7 6.727-44.765 30.88-52.5 36.555-.049-.001-.099-.016-.148-.021l-39.827-94.88c9.422-9.237 31.08-31.542 51.39-33.787m87.75 98.26c0 0-1.083 5.5-8.08 9.167s-12.417-.917-12.417-.917l-76.08 45.25.613-17.985c7.01-5.146 40.968-29.953 52.29-36.442 3.485-2.02 9.218-3.202 16.429-3.193 6.985.002 13.313 1.108 13.512 1.14.396.063.804.1 1.212.1 2.061.054 4.369-1.071 5.8-3.688.085-.162.048-.098.102-.2.527-1.066 5.01-9.821 13.583-16.931 1.846-1.564 6.08-3.266 11.465-4.702 14.943-4.04 40.32-6.94 53.08-7.969l2.246 21.87-73.75 14.5"/><path fill="#cc3602" d="m154.81 20.12c-5.542-.223-9.08.171-15.03 2.503-11.737 4.593-20.801 13.52-21.317 20.946-.481 6.918 4.432 12.306 11.67 12.81 7.868.547 13.535-5.48 9.07-9.645-1.896-1.762-3.17-2.062-8.395-1.868-6.926.258-7.662-.39-5.917-5.455 1.482-4.303 8.823-8.996 16.608-12.181 12.671-5.186 21.664-1.615 21.05 7.228-.138 1.982-.139 5.691-2.17 10.428-4.197 9.789-4.304 13.415-.568 18.537 1.283 1.76 2.653 3.223 3.063 3.251.408.028.893-1.854 1.074-4.186.206-2.65 1.92-7.186 4.54-12.12 4.789-9.02 5.58-14.212 3.076-19.959-.918-2.109-3.281-5.084-5.239-6.598-3.061-2.368-5.341-3.442-11.505-3.69m18.65 48.29c-3.8-.265-9.104 1.994-7.569 8.84.413 1.844 4.894 3.649 8.104.854 4.048-3.523 2.887-9.456-.535-9.694"/><g opacity=".25" fill="none" stroke="#845507" stroke-linecap="round"><g stroke-width="3"><path d="m42 80.67c0 0 3.333-8.333 8.667-10.333s10.667-.334 15-2.667 7-10.333 9.667-12 14.333-3.667 17.333-3.667"/><path d="m47.688 93.5c0 0 3.688-9.125 9.02-11.125s10.5-.5 14.833-2.833 6.917-10.25 9.583-11.917c2.667-1.667 16.563-3.5 19.563-3.5"/><path d="m53.37 106.33c0 0 4.04-9.916 9.375-11.916s10.333-.667 14.667-3c4.333-2.332 6.833-10.167 9.5-11.833 2.666-1.666 18.792-3.333 21.792-3.333"/><path d="m59.06 119.17c0 0 4.396-10.709 9.729-12.709s10.167-.833 14.5-3.167c4.333-2.332 6.75-10.08 9.417-11.75 2.667-1.666 21.02-3.167 24.02-3.167"/><path d="m64.75 132c0 0 4.75-11.5 10.08-13.5s10-1 14.333-3.334c4.333-2.332 6.667-10 9.333-11.666s23.25-3 26.25-3"/></g><path stroke-width="5" d="m33.75 61.75c0 0 .416-7.917 5.75-9.917s10-1 14.333-3.333 6.856-9.73 9.333-11.667c4.584-3.583 12.08-2.333 15.08-2.333"/></g></svg>