<?xml version="1.0" encoding="UTF-8" standalone="no"?>
<!-- Created with Inkscape (http://www.inkscape.org/) -->
<svg
   xmlns:dc="http://purl.org/dc/elements/1.1/"
   xmlns:cc="http://web.resource.org/cc/"
   xmlns:rdf="http://www.w3.org/1999/02/22-rdf-syntax-ns#"
   xmlns:svg="http://www.w3.org/2000/svg"
   xmlns="http://www.w3.org/2000/svg"
   xmlns:sodipodi="http://sodipodi.sourceforge.net/DTD/sodipodi-0.dtd"
   xmlns:inkscape="http://www.inkscape.org/namespaces/inkscape"
   width="1050"
   height="600"
   id="svg2195"
   sodipodi:version="0.32"
   inkscape:version="0.45.1"
   version="1.0"
   inkscape:output_extension="org.inkscape.output.svg.inkscape">
  <defs
     id="defs2197" />
  <sodipodi:namedview
     id="base"
     pagecolor="#ffffff"
     bordercolor="#666666"
     borderopacity="1.0"
     gridtolerance="10000"
     guidetolerance="10"
     objecttolerance="10"
     inkscape:pageopacity="0.0"
     inkscape:pageshadow="2"
     inkscape:zoom="0.37512071"
     inkscape:cx="171.44675"
     inkscape:cy="203.65981"
     inkscape:document-units="px"
     inkscape:current-layer="layer1"
     showgrid="true"
     inkscape:window-width="986"
     inkscape:window-height="615"
     inkscape:window-x="66"
     inkscape:window-y="87" />
  <metadata
     id="metadata2200">
    <rdf:RDF>
      <cc:Work
         rdf:about="">
        <dc:format>image/svg+xml</dc:format>
        <dc:type
           rdf:resource="http://purl.org/dc/dcmitype/StillImage" />
        <dc:description>Although this flag was not historically flown at the Battle of the Alamo, it has become a symbol of the Texas fight for freedom and independence. The Mexican Flag is 4x7. As a result, I set the ratio of this flag to the same. I set the &quot;1824&quot; at 5/7 the fly width of each stripe. The height is 1/6.</dc:description>
        <dc:contributor>
          <cc:Agent>
            <dc:title>Devin Cook (www.devincook.com)</dc:title>
          </cc:Agent>
        </dc:contributor>
        <dc:creator>
          <cc:Agent>
            <dc:title>The people of Texas</dc:title>
          </cc:Agent>
        </dc:creator>
        <dc:publisher>
          <cc:Agent>
            <dc:title>Devin Cook</dc:title>
          </cc:Agent>
        </dc:publisher>
        <dc:rights>
          <cc:Agent>
            <dc:title>Public Domain</dc:title>
          </cc:Agent>
        </dc:rights>
        <dc:title>Texas Alamo Flag</dc:title>
        <cc:license
           rdf:resource="" />
      </cc:Work>
    </rdf:RDF>
  </metadata>
  <g
     inkscape:label="Layer 1"
     inkscape:groupmode="layer"
     id="layer1"
     transform="translate(-515,-66.647896)">
    <path
       style="font-size:24px;font-style:normal;font-variant:normal;font-weight:normal;font-stretch:normal;text-align:start;line-height:125%;writing-mode:lr-tb;text-anchor:start;font-family:Arial"
       d="M 567.91406,345.85494 L 570.1875,346.42915 C 569.71092,348.29635 568.8535,349.72017 567.61524,350.70064 C 566.37694,351.68111 564.86327,352.17134 563.07422,352.17134 C 561.22265,352.17134 559.71679,351.79439 558.55664,351.04048 C 557.39648,350.28658 556.51367,349.19478 555.90821,347.76509 C 555.30274,346.33541 555,344.80026 555,343.15962 C 555,341.37057 555.3418,339.81003 556.02539,338.47798 C 556.70898,337.14597 557.68164,336.13425 558.94336,335.44283 C 560.20507,334.75144 561.59374,334.40573 563.10938,334.40572 C 564.82812,334.40573 566.27343,334.84323 567.44531,335.71822 C 568.61718,336.59323 569.43358,337.8237 569.89453,339.40962 L 567.65625,339.93697 C 567.2578,338.68698 566.67968,337.77683 565.92188,337.2065 C 565.16405,336.6362 564.21093,336.35105 563.0625,336.35103 C 561.74218,336.35105 560.63867,336.66745 559.75196,337.30025 C 558.86523,337.93307 558.24219,338.78268 557.88281,339.84908 C 557.52344,340.91549 557.34375,342.0151 557.34375,343.1479 C 557.34375,344.60885 557.55664,345.88424 557.98242,346.97408 C 558.4082,348.06392 559.07031,348.87838 559.96875,349.41744 C 560.86718,349.9565 561.83984,350.22603 562.88672,350.22603 C 564.16015,350.22603 565.23827,349.85884 566.1211,349.12447 C 567.0039,348.3901 567.60155,347.30025 567.91406,345.85494 L 567.91406,345.85494 z M 572.70703,351.87837 L 572.70703,339.43306 L 574.60547,339.43306 L 574.60547,341.31978 C 575.08984,340.43698 575.53711,339.85495 575.94727,339.57369 C 576.35742,339.29245 576.80859,339.15182 577.30078,339.15181 C 578.01171,339.15182 578.73437,339.37839 579.46875,339.8315 L 578.74219,341.78853 C 578.22656,341.48385 577.71093,341.33151 577.19531,341.3315 C 576.73437,341.33151 576.32031,341.47018 575.95313,341.74751 C 575.58594,342.02487 575.32422,342.40963 575.16797,342.90181 C 574.93359,343.65182 574.81641,344.47213 574.81641,345.36275 L 574.81641,351.87837 L 572.70703,351.87837 z M 589.26563,347.87056 L 591.44531,348.14009 C 591.10155,349.41353 590.46483,350.40181 589.53516,351.10494 C 588.60546,351.80806 587.41796,352.15962 585.97266,352.15962 C 584.15234,352.15962 582.70898,351.59908 581.64258,350.47798 C 580.57617,349.35689 580.04297,347.78463 580.04297,345.76119 C 580.04297,343.66744 580.58203,342.04245 581.66016,340.88619 C 582.73828,339.72995 584.13672,339.15182 585.85547,339.15181 C 587.51953,339.15182 588.8789,339.71823 589.9336,340.85103 C 590.98827,341.98385 591.51562,343.5776 591.51563,345.63228 C 591.51562,345.75729 591.51171,345.94479 591.50391,346.19478 L 582.22266,346.19478 C 582.30078,347.56197 582.6875,348.60885 583.38281,349.3354 C 584.07812,350.06197 584.94531,350.42525 585.98438,350.42525 C 586.75781,350.42525 587.41796,350.22213 587.96485,349.81587 C 588.51171,349.40963 588.94531,348.76119 589.26563,347.87056 L 589.26563,347.87056 z M 582.33985,344.4604 L 589.28906,344.4604 C 589.1953,343.41354 588.92968,342.62838 588.49219,342.10494 C 587.82031,341.29245 586.94921,340.8862 585.87891,340.88619 C 584.91015,340.8862 584.0957,341.21042 583.43555,341.85884 C 582.77539,342.50729 582.41016,343.37448 582.33985,344.4604 L 582.33985,344.4604 z M 602.22656,350.34322 C 601.44531,351.00728 600.69335,351.47603 599.97071,351.74947 C 599.24804,352.0229 598.47265,352.15962 597.64453,352.15962 C 596.27734,352.15962 595.22656,351.82564 594.49219,351.15767 C 593.75781,350.4897 593.39063,349.63619 593.39063,348.59712 C 593.39063,347.98775 593.5293,347.43111 593.80664,346.9272 C 594.08399,346.4233 594.44727,346.019 594.89649,345.71431 C 595.3457,345.40963 595.85156,345.17916 596.41406,345.0229 C 596.82812,344.91354 597.45312,344.80807 598.28906,344.7065 C 599.99218,344.50338 601.24609,344.26119 602.05078,343.97994 C 602.05859,343.69088 602.06249,343.50729 602.0625,343.42915 C 602.06249,342.56979 601.86327,341.96432 601.46485,341.61275 C 600.92578,341.1362 600.12499,340.89792 599.0625,340.8979 C 598.07031,340.89792 597.33789,341.07174 596.86524,341.41939 C 596.39258,341.76706 596.04297,342.38229 595.81641,343.26509 L 593.75391,342.98384 C 593.94141,342.10104 594.25,341.38815 594.67969,340.84517 C 595.10937,340.30221 595.73047,339.88424 596.54297,339.59126 C 597.35547,339.29831 598.29687,339.15182 599.36719,339.15181 C 600.42968,339.15182 601.29296,339.27682 601.95703,339.52681 C 602.62109,339.77682 603.10937,340.09128 603.42188,340.47017 C 603.73437,340.84909 603.95312,341.3276 604.07813,341.90572 C 604.14843,342.2651 604.18358,342.91354 604.1836,343.85103 L 604.1836,346.66353 C 604.18358,348.62447 604.22851,349.8647 604.31836,350.38423 C 604.40819,350.90377 604.58593,351.40181 604.85156,351.87837 L 602.64844,351.87837 C 602.42968,351.44087 602.28906,350.92916 602.22656,350.34322 L 602.22656,350.34322 z M 602.05078,345.63228 C 601.28515,345.94479 600.13671,346.21041 598.60547,346.42915 C 597.73828,346.55416 597.125,346.69478 596.76563,346.85103 C 596.40625,347.00728 596.12891,347.2358 595.9336,347.53658 C 595.73828,347.83736 595.64062,348.17135 595.64063,348.53853 C 595.64062,349.10103 595.85351,349.56978 596.2793,349.94478 C 596.70508,350.31978 597.32812,350.50728 598.14844,350.50728 C 598.96093,350.50728 599.68359,350.32955 600.31641,349.97408 C 600.94921,349.61861 601.41406,349.13228 601.71094,348.51509 C 601.93749,348.03853 602.05077,347.33541 602.05078,346.40572 L 602.05078,345.63228 z M 612.07031,349.99165 L 612.375,351.85494 C 611.78125,351.97994 611.25,352.04244 610.78125,352.04244 C 610.01562,352.04244 609.42187,351.92134 609,351.67915 C 608.57812,351.43697 608.28125,351.11861 608.10938,350.72408 C 607.9375,350.32955 607.85156,349.49947 607.85156,348.23384 L 607.85156,341.07369 L 606.30469,341.07369 L 606.30469,339.43306 L 607.85156,339.43306 L 607.85156,336.35103 L 609.94922,335.0854 L 609.94922,339.43306 L 612.07031,339.43306 L 612.07031,341.07369 L 609.94922,341.07369 L 609.94922,348.35103 C 609.94922,348.9526 609.98633,349.33931 610.06055,349.51119 C 610.13476,349.68306 610.25586,349.81978 610.42383,349.92134 C 610.59179,350.02291 610.83203,350.07369 611.14453,350.07369 C 611.3789,350.07369 611.6875,350.04634 612.07031,349.99165 L 612.07031,349.99165 z M 622.64063,347.87056 L 624.82031,348.14009 C 624.47655,349.41353 623.83983,350.40181 622.91016,351.10494 C 621.98046,351.80806 620.79296,352.15962 619.34766,352.15962 C 617.52734,352.15962 616.08398,351.59908 615.01758,350.47798 C 613.95117,349.35689 613.41797,347.78463 613.41797,345.76119 C 613.41797,343.66744 613.95703,342.04245 615.03516,340.88619 C 616.11328,339.72995 617.51172,339.15182 619.23047,339.15181 C 620.89453,339.15182 622.2539,339.71823 623.3086,340.85103 C 624.36327,341.98385 624.89062,343.5776 624.89063,345.63228 C 624.89062,345.75729 624.88671,345.94479 624.87891,346.19478 L 615.59766,346.19478 C 615.67578,347.56197 616.0625,348.60885 616.75781,349.3354 C 617.45312,350.06197 618.32031,350.42525 619.35938,350.42525 C 620.13281,350.42525 620.79296,350.22213 621.33985,349.81587 C 621.88671,349.40963 622.32031,348.76119 622.64063,347.87056 L 622.64063,347.87056 z M 615.71485,344.4604 L 622.66406,344.4604 C 622.5703,343.41354 622.30468,342.62838 621.86719,342.10494 C 621.19531,341.29245 620.32421,340.8862 619.25391,340.88619 C 618.28515,340.8862 617.4707,341.21042 616.81055,341.85884 C 616.15039,342.50729 615.78516,343.37448 615.71485,344.4604 L 615.71485,344.4604 z M 635.55469,351.87837 L 635.55469,350.30806 C 634.76562,351.54244 633.60546,352.15962 632.07422,352.15962 C 631.08203,352.15962 630.16992,351.88619 629.33789,351.33931 C 628.50586,350.79244 627.86133,350.02877 627.4043,349.0483 C 626.94727,348.06783 626.71875,346.94088 626.71875,345.66744 C 626.71875,344.42526 626.92578,343.2983 627.33985,342.28658 C 627.75391,341.27487 628.375,340.49948 629.20313,339.9604 C 630.03125,339.42135 630.95703,339.15182 631.98047,339.15181 C 632.73046,339.15182 633.39843,339.31003 633.98438,339.62642 C 634.57031,339.94284 635.04687,340.35495 635.41406,340.86275 L 635.41406,334.69869 L 637.51172,334.69869 L 637.51172,351.87837 L 635.55469,351.87837 z M 628.88672,345.66744 C 628.88672,347.26119 629.22266,348.4526 629.89453,349.24165 C 630.5664,350.03072 631.35937,350.42525 632.27344,350.42525 C 633.19531,350.42525 633.97851,350.0483 634.62305,349.29439 C 635.26757,348.54049 635.58984,347.3901 635.58985,345.84322 C 635.58984,344.1401 635.26171,342.8901 634.60547,342.09322 C 633.94921,341.29635 633.14062,340.89792 632.17969,340.8979 C 631.24218,340.89792 630.45898,341.28073 629.83008,342.04634 C 629.20117,342.81198 628.88672,344.01901 628.88672,345.66744 L 628.88672,345.66744 z M 649.44141,351.87837 L 647.48438,351.87837 L 647.48438,334.69869 L 649.59375,334.69869 L 649.59375,340.82759 C 650.48437,339.71042 651.62109,339.15182 653.00391,339.15181 C 653.76953,339.15182 654.49413,339.30612 655.17774,339.6147 C 655.86132,339.92331 656.42382,340.3569 656.86524,340.91548 C 657.30663,341.47409 657.65233,342.14791 657.90235,342.93697 C 658.15233,343.72604 658.27733,344.56979 658.27735,345.46822 C 658.27733,347.60103 657.74999,349.24947 656.69531,350.41353 C 655.64062,351.57759 654.37499,352.15962 652.89844,352.15962 C 651.42968,352.15962 650.27734,351.54634 649.44141,350.31978 L 649.44141,351.87837 z M 649.41797,345.56197 C 649.41797,347.05416 649.62109,348.13228 650.02735,348.79634 C 650.6914,349.88228 651.58984,350.42525 652.72266,350.42525 C 653.64453,350.42525 654.4414,350.02486 655.11328,349.22408 C 655.78515,348.4233 656.12109,347.22994 656.1211,345.644 C 656.12109,344.01901 655.79882,342.81979 655.1543,342.04634 C 654.50976,341.27292 653.73046,340.8862 652.81641,340.88619 C 651.89453,340.8862 651.09765,341.28659 650.42578,342.08736 C 649.7539,342.88815 649.41797,344.04635 649.41797,345.56197 L 649.41797,345.56197 z M 660.76172,356.67134 L 660.52735,354.69087 C 660.98828,354.81587 661.39063,354.87837 661.73438,354.87837 C 662.20312,354.87837 662.57812,354.80025 662.85938,354.644 C 663.14062,354.48775 663.37109,354.269 663.55078,353.98775 C 663.68359,353.77681 663.89844,353.25337 664.19531,352.41744 C 664.23437,352.30025 664.29687,352.12837 664.38281,351.90181 L 659.66016,339.43306 L 661.9336,339.43306 L 664.52344,346.64009 C 664.85937,347.55416 665.16015,348.5151 665.42578,349.5229 C 665.66796,348.55416 665.95703,347.60885 666.29297,346.68697 L 668.95313,339.43306 L 671.0625,339.43306 L 666.32813,352.08931 C 665.82031,353.4565 665.42578,354.3979 665.14453,354.91353 C 664.76953,355.60884 664.33984,356.1186 663.85547,356.44283 C 663.37109,356.76704 662.79297,356.92915 662.1211,356.92915 C 661.71484,356.92915 661.26172,356.84321 660.76172,356.67134 L 660.76172,356.67134 z M 679.78125,351.87837 L 679.78125,334.69869 L 685.69922,334.69869 C 687.03515,334.6987 688.05468,334.78073 688.75781,334.94478 C 689.74218,335.17136 690.58202,335.58151 691.27735,336.17525 C 692.18358,336.94089 692.86132,337.9194 693.31055,339.1108 C 693.75975,340.30221 693.98436,341.66354 693.98438,343.19478 C 693.98436,344.49947 693.83202,345.65572 693.52735,346.66353 C 693.22264,347.67135 692.83202,348.50533 692.35547,349.16548 C 691.87889,349.82564 691.35741,350.34517 690.79102,350.72408 C 690.2246,351.10298 689.54101,351.39009 688.74024,351.5854 C 687.93945,351.78072 687.01952,351.87837 685.98047,351.87837 L 679.78125,351.87837 z M 682.05469,349.85103 L 685.72266,349.85103 C 686.85546,349.85103 687.74413,349.74556 688.38867,349.53462 C 689.03319,349.32369 689.54687,349.02681 689.92969,348.644 C 690.46874,348.10494 690.88866,347.38033 691.18946,346.47017 C 691.49022,345.56002 691.64061,344.45651 691.64063,343.15962 C 691.64061,341.36276 691.34569,339.9819 690.75586,339.01705 C 690.16601,338.05222 689.44921,337.40573 688.60547,337.07759 C 687.99609,336.84323 687.01562,336.72604 685.66406,336.72603 L 682.05469,336.72603 L 682.05469,349.85103 z M 705.375,347.87056 L 707.55469,348.14009 C 707.21093,349.41353 706.57421,350.40181 705.64453,351.10494 C 704.71484,351.80806 703.52734,352.15962 702.08203,352.15962 C 700.26172,352.15962 698.81836,351.59908 697.75196,350.47798 C 696.68555,349.35689 696.15235,347.78463 696.15235,345.76119 C 696.15235,343.66744 696.69141,342.04245 697.76953,340.88619 C 698.84766,339.72995 700.24609,339.15182 701.96485,339.15181 C 703.6289,339.15182 704.98827,339.71823 706.04297,340.85103 C 707.09765,341.98385 707.62499,343.5776 707.625,345.63228 C 707.62499,345.75729 707.62108,345.94479 707.61328,346.19478 L 698.33203,346.19478 C 698.41016,347.56197 698.79687,348.60885 699.49219,349.3354 C 700.1875,350.06197 701.05468,350.42525 702.09375,350.42525 C 702.86718,350.42525 703.52734,350.22213 704.07422,349.81587 C 704.62109,349.40963 705.05468,348.76119 705.375,347.87056 L 705.375,347.87056 z M 698.44922,344.4604 L 705.39844,344.4604 C 705.30468,343.41354 705.03906,342.62838 704.60156,342.10494 C 703.92968,341.29245 703.05859,340.8862 701.98828,340.88619 C 701.01953,340.8862 700.20508,341.21042 699.54492,341.85884 C 698.88476,342.50729 698.51953,343.37448 698.44922,344.4604 L 698.44922,344.4604 z M 713.67188,351.87837 L 708.9375,339.43306 L 711.16406,339.43306 L 713.83594,346.88619 C 714.125,347.69088 714.39062,348.52681 714.63281,349.394 C 714.82031,348.73775 715.08203,347.94869 715.41797,347.02681 L 718.1836,339.43306 L 720.35156,339.43306 L 715.64063,351.87837 L 713.67188,351.87837 z M 722.22656,337.12447 L 722.22656,334.69869 L 724.33594,334.69869 L 724.33594,337.12447 L 722.22656,337.12447 z M 722.22656,351.87837 L 722.22656,339.43306 L 724.33594,339.43306 L 724.33594,351.87837 L 722.22656,351.87837 z M 727.5586,351.87837 L 727.5586,339.43306 L 729.45703,339.43306 L 729.45703,341.20259 C 730.37109,339.83542 731.6914,339.15182 733.41797,339.15181 C 734.16796,339.15182 734.85742,339.28659 735.48633,339.55611 C 736.11523,339.82565 736.58593,340.17917 736.89844,340.61665 C 737.21093,341.05417 737.42968,341.5737 737.55469,342.17525 C 737.6328,342.56588 737.67187,343.24948 737.67188,344.22603 L 737.67188,351.87837 L 735.5625,351.87837 L 735.5625,344.30806 C 735.56249,343.44869 735.48046,342.80612 735.31641,342.38033 C 735.15234,341.95456 734.86132,341.61471 734.44336,341.3608 C 734.02539,341.1069 733.53515,340.97995 732.97266,340.97994 C 732.07422,340.97995 731.29883,341.2651 730.64649,341.8354 C 729.99414,342.40573 729.66797,343.48776 729.66797,345.0815 L 729.66797,351.87837 L 727.5586,351.87837 z M 760.10156,345.85494 L 762.375,346.42915 C 761.89842,348.29635 761.041,349.72017 759.80274,350.70064 C 758.56444,351.68111 757.05077,352.17134 755.26172,352.17134 C 753.41015,352.17134 751.90429,351.79439 750.74414,351.04048 C 749.58398,350.28658 748.70117,349.19478 748.09571,347.76509 C 747.49024,346.33541 747.1875,344.80026 747.1875,343.15962 C 747.1875,341.37057 747.5293,339.81003 748.21289,338.47798 C 748.89648,337.14597 749.86914,336.13425 751.13086,335.44283 C 752.39257,334.75144 753.78124,334.40573 755.29688,334.40572 C 757.01562,334.40573 758.46093,334.84323 759.63281,335.71822 C 760.80468,336.59323 761.62108,337.8237 762.08203,339.40962 L 759.84375,339.93697 C 759.4453,338.68698 758.86718,337.77683 758.10938,337.2065 C 757.35155,336.6362 756.39843,336.35105 755.25,336.35103 C 753.92968,336.35105 752.82617,336.66745 751.93946,337.30025 C 751.05273,337.93307 750.42969,338.78268 750.07031,339.84908 C 749.71094,340.91549 749.53125,342.0151 749.53125,343.1479 C 749.53125,344.60885 749.74414,345.88424 750.16992,346.97408 C 750.5957,348.06392 751.25781,348.87838 752.15625,349.41744 C 753.05468,349.9565 754.02734,350.22603 755.07422,350.22603 C 756.34765,350.22603 757.42577,349.85884 758.3086,349.12447 C 759.1914,348.3901 759.78905,347.30025 760.10156,345.85494 L 760.10156,345.85494 z M 764.13281,345.65572 C 764.13281,343.35104 764.77344,341.64401 766.05469,340.53462 C 767.125,339.61276 768.42968,339.15182 769.96875,339.15181 C 771.67968,339.15182 773.07812,339.71237 774.16406,340.83345 C 775.24999,341.95456 775.79296,343.50338 775.79297,345.47994 C 775.79296,347.0815 775.55272,348.34127 775.07227,349.25923 C 774.59179,350.1772 773.89257,350.89009 772.97461,351.3979 C 772.05663,351.90572 771.05468,352.15962 769.96875,352.15962 C 768.22656,352.15962 766.81836,351.60103 765.74414,350.48384 C 764.66992,349.36666 764.13281,347.75728 764.13281,345.65572 L 764.13281,345.65572 z M 766.30078,345.65572 C 766.30078,347.24947 766.64844,348.44283 767.34375,349.2358 C 768.03906,350.02877 768.91406,350.42525 769.96875,350.42525 C 771.01562,350.42525 771.88671,350.02681 772.58203,349.22994 C 773.27734,348.43306 773.62499,347.21822 773.625,345.5854 C 773.62499,344.04635 773.27538,342.88034 772.57617,342.08736 C 771.87695,341.2944 771.00781,340.89792 769.96875,340.8979 C 768.91406,340.89792 768.03906,341.29245 767.34375,342.0815 C 766.64844,342.87057 766.30078,344.06198 766.30078,345.65572 L 766.30078,345.65572 z M 777.49219,345.65572 C 777.49219,343.35104 778.13281,341.64401 779.41406,340.53462 C 780.48437,339.61276 781.78906,339.15182 783.32813,339.15181 C 785.03906,339.15182 786.43749,339.71237 787.52344,340.83345 C 788.60937,341.95456 789.15233,343.50338 789.15235,345.47994 C 789.15233,347.0815 788.9121,348.34127 788.43164,349.25923 C 787.95116,350.1772 787.25195,350.89009 786.33399,351.3979 C 785.41601,351.90572 784.41406,352.15962 783.32813,352.15962 C 781.58594,352.15962 780.17773,351.60103 779.10352,350.48384 C 778.0293,349.36666 777.49219,347.75728 777.49219,345.65572 L 777.49219,345.65572 z M 779.66016,345.65572 C 779.66016,347.24947 780.00781,348.44283 780.70313,349.2358 C 781.39844,350.02877 782.27343,350.42525 783.32813,350.42525 C 784.37499,350.42525 785.24609,350.02681 785.94141,349.22994 C 786.63671,348.43306 786.98437,347.21822 786.98438,345.5854 C 786.98437,344.04635 786.63476,342.88034 785.93555,342.08736 C 785.23632,341.2944 784.36718,340.89792 783.32813,340.8979 C 782.27343,340.89792 781.39844,341.29245 780.70313,342.0815 C 780.00781,342.87057 779.66016,344.06198 779.66016,345.65572 L 779.66016,345.65572 z M 791.64844,351.87837 L 791.64844,334.69869 L 793.75781,334.69869 L 793.75781,344.49556 L 798.75,339.43306 L 801.48047,339.43306 L 796.72266,344.05025 L 801.96094,351.87837 L 799.35938,351.87837 L 795.2461,345.51509 L 793.75781,346.94478 L 793.75781,351.87837 L 791.64844,351.87837 z M 555.38672,381.87837 L 555.38672,364.69869 L 557.4961,364.69869 L 557.4961,370.86275 C 558.48047,369.72214 559.72265,369.15182 561.22266,369.15181 C 562.14453,369.15182 562.94531,369.33346 563.625,369.69673 C 564.30468,370.06003 564.79101,370.56198 565.08399,371.20259 C 565.37694,371.84323 565.52343,372.77291 565.52344,373.99165 L 565.52344,381.87837 L 563.41406,381.87837 L 563.41406,373.99165 C 563.41406,372.93698 563.18554,372.1694 562.72852,371.68892 C 562.27148,371.20846 561.62499,370.96823 560.78906,370.96822 C 560.16406,370.96823 559.57617,371.13034 559.02539,371.45455 C 558.47461,371.77877 558.08203,372.21823 557.84766,372.7729 C 557.61328,373.3276 557.49609,374.09322 557.4961,375.06978 L 557.4961,381.87837 L 555.38672,381.87837 z M 573.35156,379.99165 L 573.65625,381.85494 C 573.0625,381.97994 572.53125,382.04244 572.0625,382.04244 C 571.29687,382.04244 570.70312,381.92134 570.28125,381.67915 C 569.85937,381.43697 569.5625,381.11861 569.39063,380.72408 C 569.21875,380.32955 569.13281,379.49947 569.13281,378.23384 L 569.13281,371.07369 L 567.58594,371.07369 L 567.58594,369.43306 L 569.13281,369.43306 L 569.13281,366.35103 L 571.23047,365.0854 L 571.23047,369.43306 L 573.35156,369.43306 L 573.35156,371.07369 L 571.23047,371.07369 L 571.23047,378.35103 C 571.23047,378.9526 571.26758,379.33931 571.3418,379.51119 C 571.41601,379.68306 571.53711,379.81978 571.70508,379.92134 C 571.87304,380.02291 572.11328,380.07369 572.42578,380.07369 C 572.66015,380.07369 572.96875,380.04634 573.35156,379.99165 L 573.35156,379.99165 z M 580.00781,379.99165 L 580.3125,381.85494 C 579.71875,381.97994 579.1875,382.04244 578.71875,382.04244 C 577.95312,382.04244 577.35937,381.92134 576.9375,381.67915 C 576.51562,381.43697 576.21875,381.11861 576.04688,380.72408 C 575.875,380.32955 575.78906,379.49947 575.78906,378.23384 L 575.78906,371.07369 L 574.24219,371.07369 L 574.24219,369.43306 L 575.78906,369.43306 L 575.78906,366.35103 L 577.88672,365.0854 L 577.88672,369.43306 L 580.00781,369.43306 L 580.00781,371.07369 L 577.88672,371.07369 L 577.88672,378.35103 C 577.88672,378.9526 577.92383,379.33931 577.99805,379.51119 C 578.07226,379.68306 578.19336,379.81978 578.36133,379.92134 C 578.52929,380.02291 578.76953,380.07369 579.08203,380.07369 C 579.3164,380.07369 579.625,380.04634 580.00781,379.99165 L 580.00781,379.99165 z M 582.0586,386.6479 L 582.0586,369.43306 L 583.98047,369.43306 L 583.98047,371.05025 C 584.43359,370.41745 584.94531,369.94284 585.51563,369.62642 C 586.08593,369.31003 586.77734,369.15182 587.58985,369.15181 C 588.65234,369.15182 589.58984,369.42526 590.40235,369.97212 C 591.21484,370.51901 591.82812,371.29049 592.24219,372.28658 C 592.65624,373.28268 592.86327,374.37447 592.86328,375.56197 C 592.86327,376.83541 592.63476,377.98189 592.17774,379.00142 C 591.72069,380.02095 591.05663,380.8022 590.18555,381.34517 C 589.31445,381.88814 588.39843,382.15962 587.4375,382.15962 C 586.73437,382.15962 586.10351,382.01119 585.54492,381.71431 C 584.98633,381.41744 584.52734,381.04244 584.16797,380.58931 L 584.16797,386.6479 L 582.0586,386.6479 z M 583.96875,375.72603 C 583.96875,377.3276 584.29297,378.51119 584.94141,379.27681 C 585.58984,380.04244 586.375,380.42525 587.29688,380.42525 C 588.23437,380.42525 589.0371,380.02877 589.70508,379.2358 C 590.37304,378.44283 590.70702,377.21432 590.70703,375.55025 C 590.70702,373.96432 590.38085,372.77682 589.72852,371.98775 C 589.07617,371.1987 588.29687,370.80417 587.39063,370.80415 C 586.49218,370.80417 585.69726,371.22409 585.00586,372.06392 C 584.31445,372.90377 583.96875,374.12447 583.96875,375.72603 L 583.96875,375.72603 z M 596.00391,371.8354 L 596.00391,369.43306 L 598.40625,369.43306 L 598.40625,371.8354 L 596.00391,371.8354 z M 596.00391,381.87837 L 596.00391,379.47603 L 598.40625,379.47603 L 598.40625,381.87837 L 596.00391,381.87837 z M 600.49219,382.17134 L 605.47266,364.40572 L 607.16016,364.40572 L 602.19141,382.17134 L 600.49219,382.17134 z M 607.14844,382.17134 L 612.12891,364.40572 L 613.81641,364.40572 L 608.84766,382.17134 L 607.14844,382.17134 z M 617.6836,381.87837 L 613.875,369.43306 L 616.05469,369.43306 L 618.03516,376.61665 L 618.77344,379.28853 C 618.80469,379.15572 619.01953,378.30025 619.41797,376.72212 L 621.39844,369.43306 L 623.56641,369.43306 L 625.42969,376.65181 L 626.05078,379.03072 L 626.76563,376.62837 L 628.89844,369.43306 L 630.94922,369.43306 L 627.0586,381.87837 L 624.86719,381.87837 L 622.88672,374.42525 L 622.40625,372.30415 L 619.88672,381.87837 L 617.6836,381.87837 z M 635.02735,381.87837 L 631.21875,369.43306 L 633.39844,369.43306 L 635.37891,376.61665 L 636.11719,379.28853 C 636.14844,379.15572 636.36328,378.30025 636.76172,376.72212 L 638.74219,369.43306 L 640.91016,369.43306 L 642.77344,376.65181 L 643.39453,379.03072 L 644.10938,376.62837 L 646.24219,369.43306 L 648.29297,369.43306 L 644.40235,381.87837 L 642.21094,381.87837 L 640.23047,374.42525 L 639.75,372.30415 L 637.23047,381.87837 L 635.02735,381.87837 z M 652.3711,381.87837 L 648.5625,369.43306 L 650.74219,369.43306 L 652.72266,376.61665 L 653.46094,379.28853 C 653.49219,379.15572 653.70703,378.30025 654.10547,376.72212 L 656.08594,369.43306 L 658.25391,369.43306 L 660.11719,376.65181 L 660.73828,379.03072 L 661.45313,376.62837 L 663.58594,369.43306 L 665.63672,369.43306 L 661.7461,381.87837 L 659.55469,381.87837 L 657.57422,374.42525 L 657.09375,372.30415 L 654.57422,381.87837 L 652.3711,381.87837 z M 668.01563,381.87837 L 668.01563,379.47603 L 670.41797,379.47603 L 670.41797,381.87837 L 668.01563,381.87837 z M 682.14844,381.87837 L 682.14844,380.30806 C 681.35937,381.54244 680.19921,382.15962 678.66797,382.15962 C 677.67578,382.15962 676.76367,381.88619 675.93164,381.33931 C 675.09961,380.79244 674.45508,380.02877 673.99805,379.0483 C 673.54102,378.06783 673.3125,376.94088 673.3125,375.66744 C 673.3125,374.42526 673.51953,373.2983 673.9336,372.28658 C 674.34766,371.27487 674.96875,370.49948 675.79688,369.9604 C 676.625,369.42135 677.55078,369.15182 678.57422,369.15181 C 679.32421,369.15182 679.99218,369.31003 680.57813,369.62642 C 681.16406,369.94284 681.64062,370.35495 682.00781,370.86275 L 682.00781,364.69869 L 684.10547,364.69869 L 684.10547,381.87837 L 682.14844,381.87837 z M 675.48047,375.66744 C 675.48047,377.26119 675.81641,378.4526 676.48828,379.24165 C 677.16015,380.03072 677.95312,380.42525 678.86719,380.42525 C 679.78906,380.42525 680.57226,380.0483 681.2168,379.29439 C 681.86132,378.54049 682.18359,377.3901 682.1836,375.84322 C 682.18359,374.1401 681.85546,372.8901 681.19922,372.09322 C 680.54296,371.29635 679.73437,370.89792 678.77344,370.8979 C 677.83593,370.89792 677.05273,371.28073 676.42383,372.04634 C 675.79492,372.81198 675.48047,374.01901 675.48047,375.66744 L 675.48047,375.66744 z M 695.95313,377.87056 L 698.13281,378.14009 C 697.78905,379.41353 697.15233,380.40181 696.22266,381.10494 C 695.29296,381.80806 694.10546,382.15962 692.66016,382.15962 C 690.83984,382.15962 689.39648,381.59908 688.33008,380.47798 C 687.26367,379.35689 686.73047,377.78463 686.73047,375.76119 C 686.73047,373.66744 687.26953,372.04245 688.34766,370.88619 C 689.42578,369.72995 690.82422,369.15182 692.54297,369.15181 C 694.20703,369.15182 695.5664,369.71823 696.6211,370.85103 C 697.67577,371.98385 698.20312,373.5776 698.20313,375.63228 C 698.20312,375.75729 698.19921,375.94479 698.19141,376.19478 L 688.91016,376.19478 C 688.98828,377.56197 689.375,378.60885 690.07031,379.3354 C 690.76562,380.06197 691.63281,380.42525 692.67188,380.42525 C 693.44531,380.42525 694.10546,380.22213 694.65235,379.81587 C 695.19921,379.40963 695.63281,378.76119 695.95313,377.87056 L 695.95313,377.87056 z M 689.02735,374.4604 L 695.97656,374.4604 C 695.8828,373.41354 695.61718,372.62838 695.17969,372.10494 C 694.50781,371.29245 693.63671,370.8862 692.56641,370.88619 C 691.59765,370.8862 690.7832,371.21042 690.12305,371.85884 C 689.46289,372.50729 689.09766,373.37448 689.02735,374.4604 L 689.02735,374.4604 z M 704.25,381.87837 L 699.51563,369.43306 L 701.74219,369.43306 L 704.41406,376.88619 C 704.70312,377.69088 704.96875,378.52681 705.21094,379.394 C 705.39843,378.73775 705.66015,377.94869 705.9961,377.02681 L 708.76172,369.43306 L 710.92969,369.43306 L 706.21875,381.87837 L 704.25,381.87837 z M 712.80469,367.12447 L 712.80469,364.69869 L 714.91406,364.69869 L 714.91406,367.12447 L 712.80469,367.12447 z M 712.80469,381.87837 L 712.80469,369.43306 L 714.91406,369.43306 L 714.91406,381.87837 L 712.80469,381.87837 z M 718.13672,381.87837 L 718.13672,369.43306 L 720.03516,369.43306 L 720.03516,371.20259 C 720.94922,369.83542 722.26953,369.15182 723.9961,369.15181 C 724.74609,369.15182 725.43554,369.28659 726.06446,369.55611 C 726.69335,369.82565 727.16405,370.17917 727.47656,370.61665 C 727.78905,371.05417 728.0078,371.5737 728.13281,372.17525 C 728.21093,372.56588 728.24999,373.24948 728.25,374.22603 L 728.25,381.87837 L 726.14063,381.87837 L 726.14063,374.30806 C 726.14062,373.44869 726.05859,372.80612 725.89453,372.38033 C 725.73046,371.95456 725.43945,371.61471 725.02149,371.3608 C 724.60351,371.1069 724.11328,370.97995 723.55078,370.97994 C 722.65234,370.97995 721.87695,371.2651 721.22461,371.8354 C 720.57226,372.40573 720.24609,373.48776 720.2461,375.0815 L 720.2461,381.87837 L 718.13672,381.87837 z M 739.61719,377.31978 L 741.69141,377.58931 C 741.46483,379.019 740.88476,380.13814 739.95117,380.94673 C 739.01757,381.75533 737.87109,382.15962 736.51172,382.15962 C 734.80859,382.15962 733.43945,381.60298 732.4043,380.4897 C 731.36914,379.37642 730.85156,377.78072 730.85156,375.70259 C 730.85156,374.35885 731.07422,373.18307 731.51953,372.17525 C 731.96484,371.16745 732.64258,370.41159 733.55274,369.90767 C 734.46289,369.40378 735.45312,369.15182 736.52344,369.15181 C 737.87499,369.15182 738.98046,369.49362 739.83985,370.1772 C 740.69921,370.86081 741.24999,371.83151 741.49219,373.08931 L 739.44141,373.40572 C 739.24609,372.56979 738.90038,371.94088 738.4043,371.519 C 737.9082,371.09713 737.30859,370.8862 736.60547,370.88619 C 735.54297,370.8862 734.67969,371.26706 734.01563,372.02876 C 733.35156,372.79049 733.01953,373.99557 733.01953,375.644 C 733.01953,377.31588 733.33984,378.53072 733.98047,379.28853 C 734.62109,380.04634 735.45703,380.42525 736.48828,380.42525 C 737.3164,380.42525 738.00781,380.17134 738.5625,379.66353 C 739.11718,379.15572 739.46874,378.37447 739.61719,377.31978 L 739.61719,377.31978 z M 742.71094,375.65572 C 742.71094,373.35104 743.35156,371.64401 744.63281,370.53462 C 745.70312,369.61276 747.00781,369.15182 748.54688,369.15181 C 750.25781,369.15182 751.65624,369.71237 752.74219,370.83345 C 753.82812,371.95456 754.37108,373.50338 754.3711,375.47994 C 754.37108,377.0815 754.13085,378.34127 753.65039,379.25923 C 753.16991,380.1772 752.4707,380.89009 751.55274,381.3979 C 750.63476,381.90572 749.63281,382.15962 748.54688,382.15962 C 746.80469,382.15962 745.39648,381.60103 744.32227,380.48384 C 743.24805,379.36666 742.71094,377.75728 742.71094,375.65572 L 742.71094,375.65572 z M 744.87891,375.65572 C 744.87891,377.24947 745.22656,378.44283 745.92188,379.2358 C 746.61719,380.02877 747.49218,380.42525 748.54688,380.42525 C 749.59374,380.42525 750.46484,380.02681 751.16016,379.22994 C 751.85546,378.43306 752.20312,377.21822 752.20313,375.5854 C 752.20312,374.04635 751.85351,372.88034 751.1543,372.08736 C 750.45507,371.2944 749.58593,370.89792 748.54688,370.8979 C 747.49218,370.89792 746.61719,371.29245 745.92188,372.0815 C 745.22656,372.87057 744.87891,374.06198 744.87891,375.65572 L 744.87891,375.65572 z M 756.07031,375.65572 C 756.07031,373.35104 756.71094,371.64401 757.99219,370.53462 C 759.0625,369.61276 760.36718,369.15182 761.90625,369.15181 C 763.61718,369.15182 765.01562,369.71237 766.10156,370.83345 C 767.18749,371.95456 767.73046,373.50338 767.73047,375.47994 C 767.73046,377.0815 767.49022,378.34127 767.00977,379.25923 C 766.52929,380.1772 765.83007,380.89009 764.91211,381.3979 C 763.99413,381.90572 762.99218,382.15962 761.90625,382.15962 C 760.16406,382.15962 758.75586,381.60103 757.68164,380.48384 C 756.60742,379.36666 756.07031,377.75728 756.07031,375.65572 L 756.07031,375.65572 z M 758.23828,375.65572 C 758.23828,377.24947 758.58594,378.44283 759.28125,379.2358 C 759.97656,380.02877 760.85156,380.42525 761.90625,380.42525 C 762.95312,380.42525 763.82421,380.02681 764.51953,379.22994 C 765.21484,378.43306 765.56249,377.21822 765.5625,375.5854 C 765.56249,374.04635 765.21288,372.88034 764.51367,372.08736 C 763.81445,371.2944 762.94531,370.89792 761.90625,370.8979 C 760.85156,370.89792 759.97656,371.29245 759.28125,372.0815 C 758.58594,372.87057 758.23828,374.06198 758.23828,375.65572 L 758.23828,375.65572 z M 770.22656,381.87837 L 770.22656,364.69869 L 772.33594,364.69869 L 772.33594,374.49556 L 777.32813,369.43306 L 780.0586,369.43306 L 775.30078,374.05025 L 780.53906,381.87837 L 777.9375,381.87837 L 773.82422,375.51509 L 772.33594,376.94478 L 772.33594,381.87837 L 770.22656,381.87837 z M 782.8125,381.87837 L 782.8125,379.47603 L 785.21485,379.47603 L 785.21485,381.87837 L 782.8125,381.87837 z M 796.99219,377.31978 L 799.06641,377.58931 C 798.83983,379.019 798.25976,380.13814 797.32617,380.94673 C 796.39257,381.75533 795.24609,382.15962 793.88672,382.15962 C 792.18359,382.15962 790.81445,381.60298 789.7793,380.4897 C 788.74414,379.37642 788.22656,377.78072 788.22656,375.70259 C 788.22656,374.35885 788.44922,373.18307 788.89453,372.17525 C 789.33984,371.16745 790.01758,370.41159 790.92774,369.90767 C 791.83789,369.40378 792.82812,369.15182 793.89844,369.15181 C 795.24999,369.15182 796.35546,369.49362 797.21485,370.1772 C 798.07421,370.86081 798.62499,371.83151 798.86719,373.08931 L 796.81641,373.40572 C 796.62109,372.56979 796.27538,371.94088 795.7793,371.519 C 795.2832,371.09713 794.68359,370.8862 793.98047,370.88619 C 792.91797,370.8862 792.05469,371.26706 791.39063,372.02876 C 790.72656,372.79049 790.39453,373.99557 790.39453,375.644 C 790.39453,377.31588 790.71484,378.53072 791.35547,379.28853 C 791.99609,380.04634 792.83203,380.42525 793.86328,380.42525 C 794.6914,380.42525 795.38281,380.17134 795.9375,379.66353 C 796.49218,379.15572 796.84374,378.37447 796.99219,377.31978 L 796.99219,377.31978 z M 800.08594,375.65572 C 800.08594,373.35104 800.72656,371.64401 802.00781,370.53462 C 803.07812,369.61276 804.38281,369.15182 805.92188,369.15181 C 807.63281,369.15182 809.03124,369.71237 810.11719,370.83345 C 811.20312,371.95456 811.74608,373.50338 811.7461,375.47994 C 811.74608,377.0815 811.50585,378.34127 811.02539,379.25923 C 810.54491,380.1772 809.8457,380.89009 808.92774,381.3979 C 808.00976,381.90572 807.00781,382.15962 805.92188,382.15962 C 804.17969,382.15962 802.77148,381.60103 801.69727,380.48384 C 800.62305,379.36666 800.08594,377.75728 800.08594,375.65572 L 800.08594,375.65572 z M 802.25391,375.65572 C 802.25391,377.24947 802.60156,378.44283 803.29688,379.2358 C 803.99219,380.02877 804.86718,380.42525 805.92188,380.42525 C 806.96874,380.42525 807.83984,380.02681 808.53516,379.22994 C 809.23046,378.43306 809.57812,377.21822 809.57813,375.5854 C 809.57812,374.04635 809.22851,372.88034 808.5293,372.08736 C 807.83007,371.2944 806.96093,370.89792 805.92188,370.8979 C 804.86718,370.89792 803.99219,371.29245 803.29688,372.0815 C 802.60156,372.87057 802.25391,374.06198 802.25391,375.65572 L 802.25391,375.65572 z M 814.23047,381.87837 L 814.23047,369.43306 L 816.11719,369.43306 L 816.11719,371.17915 C 816.50781,370.56979 817.02734,370.07956 817.67578,369.70845 C 818.32422,369.33737 819.0625,369.15182 819.89063,369.15181 C 820.81249,369.15182 821.56835,369.34323 822.15821,369.72603 C 822.74804,370.10885 823.16405,370.64401 823.40625,371.3315 C 824.39062,369.87839 825.67186,369.15182 827.25,369.15181 C 828.48436,369.15182 829.43358,369.49362 830.09766,370.1772 C 830.7617,370.86081 831.09373,371.91354 831.09375,373.3354 L 831.09375,381.87837 L 828.9961,381.87837 L 828.9961,374.03853 C 828.99608,373.19479 828.92772,372.58737 828.79102,372.21626 C 828.65428,371.84518 828.40624,371.54635 828.04688,371.31978 C 827.68749,371.09323 827.26561,370.97995 826.78125,370.97994 C 825.90624,370.97995 825.17968,371.27096 824.60156,371.85298 C 824.02343,372.43502 823.73437,373.36666 823.73438,374.6479 L 823.73438,381.87837 L 821.625,381.87837 L 821.625,373.79244 C 821.62499,372.85494 821.45312,372.15182 821.10938,371.68306 C 820.76562,371.21432 820.20312,370.97995 819.42188,370.97994 C 818.82812,370.97995 818.27929,371.1362 817.77539,371.44869 C 817.27148,371.7612 816.90625,372.21823 816.67969,372.81978 C 816.45312,373.42135 816.33984,374.28854 816.33985,375.42134 L 816.33985,381.87837 L 814.23047,381.87837 z "
       id="flowRoot2333" />
    <rect
       width="1050"
       height="600"
       x="515"
       y="66.647896"
       id="rect3678"
       style="fill:#ffffff;fill-opacity:1;fill-rule:nonzero;stroke:none" />
    <rect
       width="350"
       height="600"
       x="1215"
       y="66.647896"
       id="rect4651"
       style="fill:#ce1126;fill-opacity:1;fill-rule:nonzero;stroke:none" />
    <path
       style="font-size:80.85137177px;font-style:normal;font-variant:normal;font-weight:bold;font-stretch:normal;text-align:start;line-height:125%;writing-mode:lr-tb;text-anchor:start;font-family:Times New Roman"
       d="M 949.29604,316.6479 L 949.29604,395.18897 C 949.29598,401.09078 949.53236,404.85611 950.00517,406.48502 C 950.47788,408.1139 951.46635,409.44772 952.9706,410.48643 C 954.47477,411.52514 956.8815,412.0445 960.19082,412.0445 L 962.18929,412.0445 L 962.18929,414.66489 L 916.1604,414.66489 L 916.1604,412.0445 L 918.48117,412.0445 C 922.22021,412.0445 924.88479,411.57236 926.47499,410.62806 C 928.06513,409.68378 929.13957,408.38539 929.6983,406.73288 C 930.25698,405.08039 930.53633,401.23243 930.53637,395.18897 L 930.53637,345.40143 C 930.53633,340.96337 930.34295,338.18952 929.95616,337.0799 C 929.56935,335.97044 928.84946,335.02617 927.79653,334.24704 C 926.74358,333.46809 925.52945,333.07857 924.15419,333.07849 C 921.96234,333.07857 919.29774,333.834 916.1604,335.34479 L 915,332.7952 L 947.16864,316.6479 L 949.29604,316.6479 z M 1017.3079,360.41559 C 1023.4536,365.37315 1027.7191,369.98837 1030.1044,374.26121 C 1032.4896,378.53413 1033.6823,383.43264 1033.6823,388.95668 C 1033.6823,396.69986 1031.0284,403.25085 1025.7207,408.60965 C 1020.413,413.96848 1013.2035,416.6479 1004.0923,416.6479 C 995.4538,416.6479 988.77083,414.31079 984.04332,409.63656 C 979.31581,404.96235 976.95204,399.24942 976.95205,392.49775 C 976.95204,387.35143 978.31658,382.84245 981.04564,378.97084 C 983.77471,375.0993 988.31957,371.55822 994.6803,368.34761 C 987.76088,362.54031 983.32343,357.79526 981.36797,354.11248 C 979.41249,350.42983 978.43477,346.15693 978.43478,341.29379 C 978.43477,334.87271 980.91671,329.2188 985.88061,324.33204 C 990.8445,319.44543 997.6457,317.00211 1006.2842,317.002 C 1014.6218,317.00211 1021.0361,319.16216 1025.5274,323.48218 C 1030.0184,327.80238 1032.264,332.98414 1032.2641,339.0275 C 1032.264,343.56015 1031.0499,347.56157 1028.6217,351.03175 C 1026.1934,354.50207 1022.4222,357.63002 1017.3079,360.41559 L 1017.3079,360.41559 z M 1012.4085,356.80369 C 1013.9986,354.44305 1015.1805,351.79905 1015.9541,348.87169 C 1016.7276,345.94447 1017.1144,342.7339 1017.1145,339.23997 C 1017.1144,333.10218 1015.9111,328.40436 1013.5044,325.14647 C 1011.6993,322.64421 1009.2066,321.39303 1006.0263,321.39294 C 1003.1468,321.39303 1000.6971,322.53797 998.6772,324.82777 C 996.6572,327.11776 995.6472,329.96243 995.6473,333.36179 C 995.6472,336.80849 996.7754,340.38499 999.0317,344.09125 C 1001.288,347.79763 1005.7469,352.03511 1012.4085,356.80369 L 1012.4085,356.80369 z M 999.5152,371.74705 C 998.1829,373.0691 997.2374,374.27305 996.6787,375.35894 C 995.8191,377.01148 995.0455,379.41941 994.3579,382.58274 C 993.6703,385.74613 993.3264,389.05113 993.3264,392.49775 C 993.3264,396.93593 993.8422,400.65405 994.8737,403.65215 C 995.9051,406.65027 997.3771,408.81032 999.2896,410.13233 C 1001.2021,411.45431 1003.1683,412.11533 1005.1882,412.11533 C 1008.3256,412.11533 1010.9687,410.85234 1013.1176,408.32637 C 1015.2664,405.80041 1016.3409,402.34196 1016.3409,397.95101 C 1016.3409,388.79146 1010.7323,380.05681 999.5152,371.74705 L 999.5152,371.74705 z M 1092.9912,414.66489 L 1041.5472,414.66489 L 1041.5472,413.10682 C 1057.3199,392.47416 1066.8931,378.59316 1070.2669,371.46376 C 1073.6406,364.33445 1075.3275,357.37033 1075.3275,350.57141 C 1075.3275,345.61398 1073.9307,341.49452 1071.1372,338.21305 C 1068.3436,334.93173 1064.9269,333.29102 1060.8871,333.29096 C 1054.2685,333.29102 1049.1327,336.92654 1045.4796,344.19746 L 1043.0944,343.2768 C 1045.4152,334.21171 1048.9393,327.50728 1053.6669,323.16347 C 1058.3944,318.81985 1063.8525,316.64798 1070.0413,316.6479 C 1074.4679,316.64798 1078.5078,317.78114 1082.1609,320.04732 C 1085.814,322.31371 1088.672,325.41806 1090.7349,329.36036 C 1092.7978,333.30283 1093.8293,336.99736 1093.8293,340.44393 C 1093.8293,346.72351 1092.2391,353.09743 1089.0588,359.56573 C 1084.718,368.30045 1075.2415,380.48173 1060.6292,396.10965 L 1079.5178,396.10965 C 1084.1593,396.10967 1087.1785,395.89722 1088.5753,395.47227 C 1089.972,395.04735 1091.1217,394.32734 1092.0243,393.3122 C 1092.9267,392.29712 1094.1086,390.16067 1095.5699,386.90285 L 1097.8907,386.90285 L 1092.9912,414.66489 z M 1107.6251,378.47509 L 1149.1413,316.6479 L 1157.0062,316.6479 L 1157.0062,378.47509 L 1165,378.47509 L 1165,393.13516 L 1157.0062,393.13516 L 1157.0062,414.66489 L 1139.278,414.66489 L 1139.278,393.13516 L 1107.6251,393.13516 L 1107.6251,378.47509 z M 1113.8783,378.47509 L 1139.278,378.47509 L 1139.278,340.58557 L 1113.8783,378.47509 z "
       id="flowRoot2948" />
    <rect
       width="350"
       height="600"
       x="515"
       y="66.647896"
       id="rect4649"
       style="fill:#006847;fill-opacity:1;fill-rule:nonzero;stroke:none" />
  </g>
</svg>
