<?xml version="1.0" encoding="UTF-8" standalone="no"?>
<svg xmlns:dc="http://purl.org/dc/elements/1.1/" xmlns:cc="http://web.resource.org/cc/" xmlns:rdf="http://www.w3.org/1999/02/22-rdf-syntax-ns#" xmlns:svg="http://www.w3.org/2000/svg" xmlns="http://www.w3.org/2000/svg" xmlns:xlink="http://www.w3.org/1999/xlink"
   version="1.0" width="900" height="600" viewBox="0 0 1572.107 1048.07133">
<metadata><rdf:RDF><cc:Work rdf:about="">
<dc:format>image/svg+xml</dc:format>
<dc:type rdf:resource="http://purl.org/dc/dcmitype/StillImage" />
<dc:title>Texas - Come and Take It Flag</dc:title>
<dc:date>2008-02-01</dc:date>
<dc:creator><cc:Agent><dc:title>Devin Cook</dc:title></cc:Agent></dc:creator>
<dc:rights><cc:Agent><dc:title>Public Domain</dc:title></cc:Agent></dc:rights>
<dc:publisher><cc:Agent><dc:title>Devin COok</dc:title></cc:Agent></dc:publisher>
<dc:source/>
<dc:subject><rdf:Bag>
  <rdf:li>Texas</rdf:li>
  <rdf:li>revolution</rdf:li>
  <rdf:li>cannon</rdf:li>
  </rdf:Bag>
</dc:subject>
<dc:description>&quot;Come and take it&quot; was a slogan used in the Texas Revolution in 1835. In March of 1831, Juan Gomez, a Lieutenant in the Mexican Army, worked alongside Tadeo Ortiz , a consul at Bordeaux, France, and granted a small cannon to the colony of San Antonio. The small bronze cannon was received by the colony and signed for by Randy Tumlinson. It was then transported to Gonzales, Texas and later was the object of Texas pride.</dc:description>
<dc:contributor><cc:Agent></cc:Agent></dc:contributor>
<cc:license rdf:resource="" /></cc:Work>
  <cc:License rdf:about="http://web.resource.org/cc/PublicDomain">
  <cc:permits rdf:resource="http://web.resource.org/cc/Reproduction" />
  <cc:permits rdf:resource="http://web.resource.org/cc/Distribution" />
  <cc:permits rdf:resource="http://web.resource.org/cc/DerivativeWorks" />
</cc:License></rdf:RDF></metadata>
<rect style="opacity:1;fill:#ffffff;fill-opacity:1;fill-rule:nonzero" width="1572.1071" height="1048.07134"/>
<g transform="translate(0,74.8622)">
<path d="M 421.13947,532.99429 C 413.8628,529.21874 405.48848,520.2988 399.46253,509.90499 C 395.80642,503.59874 387.77074,486.98182 385.91806,478.24661 C 385.25805,475.13474 384.57041,475.83174 383.42999,468.72478 C 376.20066,474.08739 376.48798,474.50165 372.43764,478.19177 C 361.42244,488.22731 358.80277,488.26957 349.68624,488.26957 C 334.35339,488.26957 321.44478,477.98609 316.70676,461.99684 C 308.10128,432.95631 324.7788,404.5548 350.30144,404.7857 C 359.62236,404.87002 362.62242,406.14904 374.07137,414.91949 C 378.51938,418.32687 382.55526,421.11475 383.04004,421.11475 C 383.52478,421.11475 384.72794,416.45165 385.71374,410.7523 C 390.71048,381.8637 402.93273,359.19714 419.06874,348.89436 C 425.29891,344.91643 427.67098,344.36637 438.59531,344.36637 C 445.43451,344.36637 624.13671,352.28126 835.71128,361.95505 C 1165.4898,377.03344 1221.2504,379.92425 1226.4036,382.20981 C 1243.0868,389.60893 1257.6774,416.70502 1257.6856,446.76133 C 1257.6938,476.81764 1243.4958,508.49253 1226.2214,513.85237 C 1224.4265,514.40928 1188.9366,513.91762 1188.9366,513.91762 C 1070.9812,515.22355 953.10004,520.28587 835.27338,525.14257 C 644.75281,533.22111 601.13747,534.63474 512.88512,535.59158 L 427.92073,536.51278 L 421.13947,532.99429 z M 1222.1249,500.97114 C 1225.6647,498.76852 1229.2027,494.07234 1232.8453,486.74178 C 1250.8202,450.56782 1238.029,390.73518 1212.321,390.73518 C 1205.2286,390.73518 1198.1724,396.43048 1193.0198,406.31385 C 1186.5632,418.69882 1184.042,430.26325 1184.042,447.49699 C 1184.042,487.18578 1202.539,513.15827 1222.1249,500.97114 z"/>
<path transform="matrix(1.1806583,0,0,1.1521551,-258.92369,143.1634)"
   d="M 948.89504,98.82671 L 884.95847,54.186037 L 820.88154,98.625008 L 843.57986,24.022988 L 781.51503,-23.185393 L 859.47993,-24.651304 L 885.19868,-98.266658 L 910.68532,-24.570621 L 988.64522,-22.859031 L 926.43193,24.153536 L 948.89504,98.82671 z"/>
<path d="M168.78,795.833C174.708,795.833,193.099,794.686,198.424,770.147L211.829,773.521C206.71,793.51,193.02,807.265,169.885,807.265C131.797,807.265,122.275,776.793,122.275,754.309C122.275,723.136,141.295,702.868,170.092,702.868C180.227,702.868,188.749,705.439,195.66,710.58C202.57,715.722,207.384,722.953,210.102,732.272L196.903,735.371C192.697,722.219,185.353,714.299,169.816,714.299C142.839,714.299,136.095,736.577,136.095,754.24C136.095,789.149,155.706,795.833,168.78,795.833Z
M224.336,756.375C224.336,723.016,243.739,702.799,272.845,702.799C301.867,702.799,321.215,723.76,321.215,755.204C321.215,786.113,301.506,807.265,272.776,807.265C243.712,807.265,224.336,784.487,224.336,756.375Z
M238.156,756.581C238.156,780.132,251.976,795.833,272.707,795.833C286.582,795.833,307.395,787.694,307.395,755.135C307.395,722.466,286.706,714.299,272.914,714.299C259.011,714.299,238.156,721.018,238.156,756.581Z
M338.006,805.543V704.589H358.184L382.162,776.069C384.373,782.726,385.985,787.707,386.999,791.013C388.15,787.34,389.947,781.946,392.388,774.83L416.643,704.589H434.678V805.543H421.756V721.048L392.319,805.543H380.227L350.928,719.601V805.543Z
M456.721,805.543V704.589H529.967V716.503H470.126V747.422H526.167V759.267H470.126V793.63H532.317V805.543Z
M579.098,805.543L618.001,704.589H632.443L673.904,805.543H658.632L646.816,774.968H604.458L593.332,805.543Z
M608.327,764.087H642.67L632.098,736.129C628.873,727.636,626.478,720.657,624.911,715.194C623.621,721.667,621.802,728.095,619.452,734.476Z
M684.614,805.543V704.589H698.365L751.572,783.851V704.589H764.425V805.543H750.674L697.467,726.212V805.543Z
M870.771,754.515C870.77,779.886,861.332,805.543,823.575,805.543H787.021V704.589H821.917C847.797,704.589,870.77,713.372,870.771,754.515Z
M856.951,754.309C856.95,717.125,834.998,716.503,821.709,716.503H800.426V793.63H822.055C842.255,793.63,856.95,787.061,856.951,754.309Z
M954.313,805.543V716.503H920.938V704.589H1001.23V716.503H967.718V805.543Z
M1003.93,805.543L1042.83,704.589H1057.27L1098.73,805.543H1083.46L1071.65,774.968H1029.29L1018.16,805.543Z
M1033.16,764.087H1067.5L1056.93,736.129C1053.7,727.636,1051.31,720.657,1049.74,715.194C1048.45,721.667,1046.63,728.095,1044.28,734.476Z
M1109.03,805.543V704.589H1122.43V754.653L1172.74,704.589H1190.91L1148.42,745.494L1192.78,805.543H1175.09L1139.02,754.446L1122.43,770.56V805.543Z
M1204.39,805.543V704.589H1277.63V716.503H1217.79V747.422H1273.83V759.267H1217.79V793.63H1279.98V805.543Z
M1340.17,805.543V704.589H1353.58V805.543Z
M1402.91,805.543V716.503H1369.54V704.589H1449.83V716.503H1416.32V805.543Z"/></g></svg>