<?xml version="1.0" encoding="UTF-8" standalone="no"?>
<!-- Generator: Adobe Illustrator 15.1.0, SVG Export Plug-In . SVG Version: 6.00 Build 0)  -->

<svg
   xmlns:dc="http://purl.org/dc/elements/1.1/"
   xmlns:cc="http://creativecommons.org/ns#"
   xmlns:rdf="http://www.w3.org/1999/02/22-rdf-syntax-ns#"
   xmlns:svg="http://www.w3.org/2000/svg"
   xmlns="http://www.w3.org/2000/svg"
   xmlns:sodipodi="http://sodipodi.sourceforge.net/DTD/sodipodi-0.dtd"
   xmlns:inkscape="http://www.inkscape.org/namespaces/inkscape"
   version="1.1"
   id="svg2"
   x="0px"
   y="0px"
   width="900px"
   height="600px"
   viewBox="152.5 120.5 900 600"
   enable-background="new 152.5 120.5 900 600"
   xml:space="preserve"
   sodipodi:docname="Unofficial_flag_of_Kingman_reef.svg"
   inkscape:version="0.92.4 (5da689c313, 2019-01-14)"><metadata
   id="metadata7"><rdf:RDF><cc:Work
       rdf:about=""><dc:format>image/svg+xml</dc:format><dc:type
         rdf:resource="http://purl.org/dc/dcmitype/StillImage" /><dc:title></dc:title></cc:Work></rdf:RDF></metadata><defs
   id="defs5" /><sodipodi:namedview
   pagecolor="#ffffff"
   bordercolor="#666666"
   borderopacity="1"
   objecttolerance="10"
   gridtolerance="10"
   guidetolerance="10"
   inkscape:pageopacity="0"
   inkscape:pageshadow="2"
   inkscape:window-width="1366"
   inkscape:window-height="705"
   id="namedview3"
   showgrid="false"
   inkscape:zoom="0.83972969"
   inkscape:cx="450"
   inkscape:cy="300"
   inkscape:window-x="-8"
   inkscape:window-y="-8"
   inkscape:window-maximized="1"
   inkscape:current-layer="layer7" />
<rect
   style="opacity:1;fill:#2affd5;fill-opacity:1;fill-rule:evenodd"
   id="rect17"
   width="900.28973"
   height="601.38397"
   x="153.69086"
   y="120.30686" /><rect
   style="opacity:1;fill:#6f917c;fill-opacity:1;fill-rule:evenodd"
   id="rect19"
   width="901.48059"
   height="170.29286"
   x="153.69086"
   y="551.39795" /><g
   id="g69"
   transform="matrix(0.64221812,0,0,0.60874811,327.46407,80.335675)"><g
     transform="translate(231.61241,64.861228)"
     style="display:inline"
     inkscape:label="trace"
     id="layer2"><path
       sodipodi:nodetypes="csssssssssssccsssscccssssssssssssssssssssscssccsscsssssccsssssssssccccccccccssssssssssssssssssssccssssssscsssccscsscscssssssssscssssscc"
       inkscape:connector-curvature="0"
       id="path2997"
       d="m -229.64286,391.46932 c 0,0 2.9345,-2.62598 4.64286,-3.57142 3.44401,-1.90597 7.34123,-2.85035 11.07143,-4.10715 6.6024,-2.22452 13.27975,-4.23337 20,-6.07143 2.42302,-0.66272 4.99788,-0.83108 7.32143,-1.78571 1.28416,-0.5276 2.24341,-1.73812 3.57143,-2.14286 2.2235,-0.67766 4.65829,-0.0646 6.96428,-0.35714 15.36776,-1.94977 30.30126,-6.47842 45.53572,-9.28571 25.92609,-4.77746 51.970685,-8.90735 78.03571,-12.85715 18.89321,-2.86301 37.806984,-5.63048 56.7857143,-7.85714 C 19.074396,341.69854 33.898287,340.21663 48.75,339.1479 c 21.219212,-1.52693 42.492482,-2.19645 63.75,-3.03572 18.98264,-0.74945 56.96429,-1.78571 56.96429,-1.78571 l 2.14285,-1.78572 c 0,0 8.53432,-10.92571 12.5,-16.60714 7.84833,-11.24391 14.54456,-23.26012 22.32143,-34.55357 4.31131,-6.26081 9.22178,-12.72294 13.98722,-18.6454 4.20364,-5.22426 8.49651,-10.42146 13.42985,-14.96302 2.45678,-2.26168 7.40436,-5.85587 7.40436,-5.85587 l 2.76786,-2.05357 c 0.95238,-0.33405 1.90476,-1.08079 2.85714,0.17857 0,0 4.2405,5.61101 5.78941,8.74508 1.02617,2.07634 1.35996,4.43741 2.27284,6.56599 1.11499,2.59986 2.11064,4.55421 3.46587,7.04021 0.6649,1.21967 2.0485,2.84135 2.34251,4.19774 0.93098,4.29505 0.63973,9.81208 0.72604,14.74191 0.0744,4.25041 0.35496,8.57288 -0.22097,12.78475 -0.36109,2.64074 -2.92586,5.15357 -2.14657,7.70241 0.43648,1.42761 2.68187,1.60054 3.40926,2.90419 1.34872,2.41721 0.9604,5.45603 1.26269,8.20749 0.20845,1.89732 0.0838,3.82786 0.37881,5.71367 0.46421,2.96769 1.01631,5.97415 2.17814,8.74414 0.71617,1.70748 1.78263,3.26183 2.90419,4.73509 1.18601,1.55792 2.49885,3.04693 4.00904,4.29314 1.05385,0.86964 2.18552,1.71901 3.4724,2.17815 4.44497,1.58591 14.20527,1.89403 14.04744,1.76776 -0.15784,-0.12627 18.361,1.57456 27.55822,2.11501 6.18167,0.36325 12.37818,0.4246 18.56155,0.75761 11.33103,0.61025 22.66283,1.27574 33.96638,2.27285 12.31595,1.08641 24.57343,2.75873 36.87057,4.04061 11.48432,1.19715 23.01995,1.93087 34.47146,3.40926 10.86368,1.4025 21.64939,3.35812 32.45115,5.17703 9.27354,1.56157 27.77919,4.9245 27.77919,4.9245 0,0 2.95037,-3.3841 4.86136,-4.48255 1.98532,-1.14118 4.3248,-1.55037 6.56599,-2.02031 0.53907,-0.11303 1.6415,-0.1894 1.6415,-0.1894 0.41708,0.0566 0.87343,0.0504 0.88389,0.75761 0,0 0.14751,2.64366 0.63134,3.85121 0.4646,1.15954 1.71944,1.90872 2.11501,3.09359 0.22348,0.66939 0.0947,2.11501 0.0947,2.11501 0,0 11.83514,2.26502 17.80394,3.06202 9.21999,1.23113 27.14785,2.65165 27.77919,2.65165 0.63135,0 14.57061,0.58306 21.71828,1.89404 2.28034,0.41825 4.39355,1.59275 6.69226,1.89404 2.75468,0.36106 5.82681,1.07116 8.33376,-0.12627 2.07641,-0.99179 3.09179,-3.40676 3.91434,-5.55584 1.06735,-8.01138 5.10801,-15.39249 9.59645,-22.60217 3.62392,-5.83193 8.45317,-11.13985 13.51079,-15.78363 6.06564,-5.56932 13.66649,-10.61835 20.45559,-15.27856 5.56301,-3.81859 11.11529,-7.67171 16.92006,-11.11167 3.37045,-1.99736 6.96136,-3.57561 10.44567,-5.37058 2.49387,-1.28473 4.87156,-2.80365 7.35827,-4.09961 5.99273,-3.12314 11.89814,-6.43525 18.05647,-9.21764 3.75365,-1.69593 7.6653,-3.13037 11.61676,-4.29314 4.56912,-1.34453 9.19239,-2.24247 13.88959,-3.03046 4.56719,-0.76618 9.16073,-1.38184 13.76333,-1.89404 1.97319,-0.21959 5.93465,-0.50508 5.93465,-0.50508 l -3.15673,5.99779 -5.55584,6.50285 -8.08122,7.44988 -4.54568,5.17703 -1.57837,2.96732 0.69448,7.51301 -2.39911,1.89404 -3.53553,-1.6415 -3.40927,-2.96732 c 0,0 -9.3473,13.00328 -14.01586,19.50857 -5.01231,6.98428 -10.52384,13.63715 -15.02602,20.96066 -3.81552,6.20655 -7.03804,12.77213 -10.10153,19.38231 -3.27834,7.07376 -6.21426,14.31367 -8.83883,21.65514 -0.79326,2.21893 -0.94565,4.69182 -2.08344,6.7554 -0.46841,0.84954 -1.54531,1.30443 -1.89404,2.2097 -0.84759,2.20026 -0.29648,4.71563 -0.1894,7.07107 0.10586,2.32864 0.2254,4.69107 0.82075,6.9448 0.70577,2.67173 1.94912,5.18541 3.21986,7.63928 1.11711,2.1572 2.58326,4.11504 3.8512,6.18718 1.76886,2.89076 3.77108,5.65853 5.24017,8.71257 0.60327,1.25411 0.88313,2.64429 1.45209,3.91434 1.96676,4.39021 4.60586,8.44951 6.7554,12.75318 3.80279,7.61369 6.3599,15.88323 10.85914,23.10724 0.56991,0.91506 1.6713,1.50542 2.0203,2.52538 0.4429,1.2944 -0.40185,2.77827 -0.0631,4.10374 0.58107,2.27359 2.49722,3.9896 3.4724,6.12405 2.40372,5.26117 4.07436,10.83361 5.80838,16.35185 0.81117,2.58143 1.74294,5.15308 2.14657,7.82868 0.4931,3.26873 0.58509,6.6174 0.31567,9.91212 -0.14161,1.73179 -1.01015,5.1139 -1.01015,5.1139 -0.52519,2.05192 -2.09913,1.89863 -3.283,1.32582 0,0 -4.45687,-1.86782 -6.43972,-3.21986 -8.72885,-5.95193 -15.8327,-13.99696 -23.54918,-21.2132 -7.3264,-6.85144 -14.74779,-13.62755 -21.59204,-20.96067 -5.33919,-5.72055 -10.17714,-11.89038 -15.15229,-17.9302 -4.87306,-5.91588 -9.95677,-11.68126 -14.39467,-17.93021 -4.13845,-5.8273 -7.97239,-11.89151 -11.36422,-18.18275 -2.68129,-4.97332 -5.32671,-10.03077 -7.07107,-15.40482 -1.59022,-4.89916 -3.03045,-15.15229 -3.03045,-15.15229 0,0 -24.19335,5.37712 -36.17609,8.52316 -8.77383,2.30355 -18.5742,2.56816 -26.1377,7.57614 -1.78341,1.18084 -3.19592,3.01584 -4.05083,4.97648 -0.65441,1.50083 -0.68124,4.86443 -0.68124,4.86443 -0.46263,2.06332 -1.92745,2.83812 -4.7459,1.87254 0,0 -4.63948,-1.43883 -6.88251,-2.36177 -2.33145,-0.95932 -6.80989,-3.29076 -6.80989,-3.29076 0,0 -14.53705,6.35308 -21.90769,9.28077 -10.45227,4.15173 -21.0079,8.04854 -31.6304,11.74303 -8.04587,2.79834 -16.31933,4.93086 -24.30679,7.89182 -29.58682,11.23812 -151.59812,28.77621 -184.8673,31.03627 -114.93188,7.80764 -115.02914,10.24507 -212.956919,4.52557 -6.144724,-1.19469 -13.482153,0.003 -24.632344,-1.847 -0.352328,-0.0584 -12.8280796,-2.77084 -19.2857142,-3.92857 -9.3677998,-1.67947 -18.8038398,-2.9538 -28.2142858,-4.375 -12.343927,-1.86422 -24.744461,-3.36468 -37.053571,-5.44643 -9.053028,-1.53107 -18.081701,-3.22741 -27.053572,-5.17857 -8.471334,-1.8423 -24.910714,-5.98214 -25.267854,-6.16071 -0.35715,-0.17857 -12.55024,-4.75601 -18.75,-7.32143 -5.28303,-2.18608 -10.68306,-4.1591 -15.71429,-6.875 -2.78216,-1.50183 -5.4381,-3.25394 -7.94643,-5.17857 -2.47465,-1.89879 -6.96428,-6.25 -6.96428,-6.25 0,0 -6.4448,-2.45904 -9.64286,-3.75 -2.573,-1.03864 -5.11467,-2.49484 -7.58928,-3.75 -4.67952,-2.37353 -8.97429,-5.05989 -13.57143,-7.58929 -3.4984,-1.92486 -8.66217,-5.4336 -11.96429,-7.67857 -4.75838,-3.23501 -7.48296,-5.18413 -11.60714,-9.19643 -2.20311,-2.14335 -6.33929,-6.69643 -6.33929,-6.69643 -1.40892,-1.51101 -0.31256,-2.78523 0.80357,-3.75 z"
       style="fill:#ffffff;stroke:#000000;stroke-width:1px;stroke-linecap:butt;stroke-linejoin:miter;stroke-opacity:1" /></g><g
     transform="translate(233.75526,63.075508)"
     inkscape:label="dorsal shading"
     id="layer7"><path
       inkscape:connector-curvature="0"
       id="path2997-1"
       d="m 602.30346,399.80364 c 0,0 1.44023,10.25313 3.03045,15.15229 1.74436,5.37405 4.38978,10.4315 7.07107,15.40482 3.39183,6.29124 7.22577,12.35545 11.36422,18.18275 4.4379,6.24895 9.52161,12.01433 14.39467,17.93021 4.97515,6.03982 9.8131,12.20965 15.15229,17.9302 6.84425,7.33312 14.26564,14.10923 21.59204,20.96067 7.71648,7.21624 14.82033,15.26127 23.54918,21.2132 1.98285,1.35204 6.43972,3.21986 6.43972,3.21986 1.18387,0.57281 2.75781,0.7261 3.283,-1.32582 0,0 0.86854,-3.38211 1.01015,-5.1139 0.26942,-3.29472 0.17743,-6.64339 -0.31567,-9.91212 -0.40363,-2.6756 -1.3354,-5.24725 -2.14657,-7.82868 -1.73402,-5.51824 -3.40466,-11.09068 -5.80838,-16.35185 -0.97518,-2.13445 -2.89133,-3.85046 -3.4724,-6.12405 -0.33875,-1.32547 0.506,-2.80934 0.0631,-4.10374 -0.349,-1.01996 -1.45039,-1.61032 -2.0203,-2.52538 -4.49924,-7.22401 -7.05635,-15.49355 -10.85914,-23.10724 -2.14954,-4.30367 -4.78864,-8.36297 -6.7554,-12.75318 -0.56896,-1.27005 -0.84882,-2.66023 -1.45209,-3.91434 -1.46909,-3.05404 -3.47131,-5.82181 -5.24017,-8.71257 -1.26794,-2.07214 -2.73409,-4.02998 -3.8512,-6.18718 -1.27074,-2.45387 -2.51409,-4.96755 -3.21986,-7.63928 -0.59535,-2.25373 -0.71489,-4.61616 -0.82075,-6.9448 -0.10708,-2.35544 -0.65819,-4.87081 0.1894,-7.07107 0.34873,-0.90527 1.42563,-1.36016 1.89404,-2.2097 1.13779,-2.06358 1.29018,-4.53647 2.08344,-6.7554 2.62457,-7.34147 5.56049,-14.58138 8.83883,-21.65514 3.06349,-6.61018 6.28601,-13.17576 10.10153,-19.38231 4.50218,-7.32351 10.01371,-13.97638 15.02602,-20.96066 4.66856,-6.50529 14.01586,-19.50857 14.01586,-19.50857 l 3.40927,2.96732 3.53553,1.6415 2.39911,-1.89404 -0.69448,-7.51301 1.57837,-2.96732 4.54568,-5.17703 8.08122,-7.44988 5.55584,-6.50285 3.15673,-5.99779 c 0,0 -3.96146,0.28549 -5.93465,0.50508 -4.6026,0.5122 -9.19614,1.12786 -13.76333,1.89404 -4.6972,0.78799 -9.32047,1.68593 -13.88959,3.03046 -3.95146,1.16277 -7.86311,2.59721 -11.61676,4.29314 -6.15833,2.78239 -12.06374,6.0945 -18.05647,9.21764 -2.48671,1.29596 -4.8644,2.81488 -7.35827,4.09961 -3.48431,1.79497 -7.07522,3.37322 -10.44567,5.37058 -5.80477,3.43996 -11.35705,7.29308 -16.92006,11.11167 -6.7891,4.66021 -14.38995,9.70924 -20.45559,15.27856 -5.05762,4.64378 -9.88687,9.9517 -13.51079,15.78363 -4.48844,7.20968 -8.5291,14.59079 -9.59645,22.60217 -0.82255,2.14908 -1.83793,4.56405 -3.91434,5.55584 -2.50695,1.19743 -5.57908,0.48733 -8.33376,0.12627 -2.29871,-0.30129 -4.41192,-1.47579 -6.69226,-1.89404 -7.14767,-1.31098 -21.08693,-1.89404 -21.71828,-1.89404 -0.63134,0 -18.5592,-1.42052 -27.77919,-2.65165 -5.9688,-0.797 -17.80394,-3.06202 -17.80394,-3.06202 0,0 0.12878,-1.44562 -0.0947,-2.11501 -0.39557,-1.18487 -1.65041,-1.93405 -2.11501,-3.09359 -0.48383,-1.20755 -0.63134,-3.85121 -0.63134,-3.85121 -0.0105,-0.70721 -0.46681,-0.70101 -0.88389,-0.75761 0,0 -1.10243,0.0764 -1.6415,0.1894 -2.24119,0.46994 -4.58067,0.87913 -6.56599,2.02031 -1.91099,1.09845 -4.86136,4.48255 -4.86136,4.48255 0,0 -18.50565,-3.36293 -27.77919,-4.9245 -10.80176,-1.81891 -21.58747,-3.77453 -32.45115,-5.17703 -11.45151,-1.47839 -22.98714,-2.21211 -34.47146,-3.40926 -12.29714,-1.28188 -24.55462,-2.9542 -36.87057,-4.04061 -11.30355,-0.99711 -22.63535,-1.6626 -33.96638,-2.27285 -6.18337,-0.33301 -12.37988,-0.39436 -18.56155,-0.75761 -9.19722,-0.54045 -27.71606,-2.24128 -27.55822,-2.11501 0.15783,0.12627 -9.60247,-0.18185 -14.04744,-1.76776 -1.28688,-0.45914 -2.41855,-1.30851 -3.4724,-2.17815 -1.51019,-1.24621 -2.82303,-2.73522 -4.00904,-4.29314 -1.12156,-1.47326 -2.18802,-3.02761 -2.90419,-4.73509 -1.16183,-2.76999 -1.71393,-5.77645 -2.17814,-8.74414 -0.29501,-1.88581 -0.17036,-3.81635 -0.37881,-5.71367 -0.30229,-2.75146 0.086,-5.79028 -1.26269,-8.20749 -0.72739,-1.30365 -2.97278,-1.47658 -3.40926,-2.90419 -0.77929,-2.54884 1.78548,-5.06167 2.14657,-7.70241 0.57593,-4.21187 0.29537,-8.53434 0.22097,-12.78475 -0.0863,-4.92983 0.20494,-10.44686 -0.72604,-14.74191 -0.29401,-1.35639 -1.67761,-2.97807 -2.34251,-4.19774 -1.35523,-2.486 -2.35088,-4.44035 -3.46587,-7.04021 -0.91288,-2.12858 -1.24667,-4.48965 -2.27284,-6.56599 -1.54891,-3.13407 -5.78941,-8.74508 -5.78941,-8.74508 -0.95238,-1.25936 -1.90476,-0.51262 -2.85714,-0.17857 l -2.76786,2.05357 c 0,0 -4.94758,3.59419 -7.40436,5.85587 -4.93334,4.54156 -9.22621,9.73876 -13.42985,14.96302 -4.76544,5.92246 -9.67591,12.38459 -13.98722,18.6454 -7.77687,11.29345 -14.4731,23.30966 -22.32143,34.55357 -3.96568,5.68143 -12.5,16.60714 -12.5,16.60714 l -2.14285,1.78572 c 0,0 -37.98165,1.03626 -56.96429,1.78571 -21.25752,0.83927 -42.53079,1.50879 -63.75,3.03572 -14.85171,1.06873 -29.6756,2.55064 -44.46428,4.28571 -18.97873,2.22666 -37.89251,4.99413 -56.78572,7.85714 -26.06502,3.9498 -52.10962,8.07969 -78.03571,12.85715 -15.23446,2.80729 -30.16796,7.33594 -45.53572,9.28571 -2.30599,0.29254 -4.74078,-0.32052 -6.96428,0.35714 -1.32802,0.40474 -2.28727,1.61526 -3.57143,2.14286 -2.32355,0.95463 -4.89841,1.12299 -7.32143,1.78571 -6.72025,1.83806 -13.3976,3.84691 -20,6.07143 -3.7302,1.2568 -7.62742,2.20118 -11.07143,4.10715 -1.70836,0.94544 -4.64286,3.57142 -4.64286,3.57142 -1.11613,0.96477 -2.21249,2.23899 -0.80357,3.75 0,0 4.13618,4.55308 6.33929,6.69643 2.23899,2.17825 4.06547,3.74841 6.02882,5.24637 l 1.65314,-0.79249 c 0,0 5.17887,-1.39964 7.82868,-1.76777 3.08951,-0.42921 6.2688,-1.02756 9.34391,-0.50507 4.57726,0.77772 11.86929,4.79822 12.87945,5.3033 1.01015,0.50507 10.1732,1.33057 15.15228,2.52538 6.52384,1.56551 13.30162,2.8509 19.1929,6.06091 3.35985,1.8307 5.61509,5.26267 8.83884,7.32361 7.07433,4.52262 14.95964,7.67384 22.72843,10.85914 11.4536,4.69611 23.052028,9.29035 35.1028,12.12183 10.825165,2.54351 21.968291,4.65103 33.082496,4.29315 8.316259,-0.26778 16.357584,-3.06768 24.496199,-4.79823 5.153235,-1.09576 10.15639,-3.0768 15.404826,-3.53553 6.5496497,-0.57246 13.12335661,1.00595 19.697975,1.01015 23.599666,0.0151 47.112883,-3.83304 70.710678,-3.53553 20.174247,0.25434 40.382376,1.7006 60.356616,4.54568 14.1383,2.01383 27.68528,7.7066 41.92133,8.83884 18.81947,1.49677 55.30585,-2.77792 56.56854,-2.77792 1.26269,0 27.44476,0.80641 41.16372,0.50508 13.48674,-0.29623 26.95222,-1.28646 40.4061,-2.27285 15.84776,-1.1619 31.93452,-0.98746 47.47717,-4.29315 18.09651,-3.84886 34.65502,-13.14936 52.52793,-17.9302 17.73455,-4.74383 36.30986,-5.85809 54.04316,-10.6066 13.32022,-3.5668 25.88633,-9.5898 39.14341,-13.38453 9.3051,-2.66351 18.77964,-4.73813 28.28428,-6.56599 8.19548,-1.57609 16.50668,-2.47718 24.74873,-3.78807 8.67869,-1.38034 17.28742,-3.2364 26.01143,-4.29315 8.63348,-1.04578 17.34197,-2.70675 26.01143,-2.0203 2.15749,0.17083 4.91378,-0.13549 6.31345,1.51523 0.76411,0.90117 0.38233,2.36117 0.25254,3.53553 -0.19309,1.74708 -0.73158,3.4774 -1.51523,5.05076 -0.6981,1.4016 -1.26586,3.38126 -2.77792,3.78807 -1.41965,0.38195 -2.60163,-1.46676 -4.04061,-1.76776 -2.71907,-0.56877 -5.56393,0.21182 -8.33376,0 -1.10398,-0.0844 -3.28299,-0.50508 -3.28299,-0.50508 z"
       style="fill:#808080;stroke:none" /></g><g
     transform="translate(231.61241,64.861228)"
     inkscape:label="eye"
     id="layer6"><ellipse
       id="path3012"
       style="color:#000000;display:inline;overflow:visible;visibility:visible;fill:#000000;fill-opacity:1;fill-rule:nonzero;stroke:none;stroke-width:2;marker:none;enable-background:accumulate"
       cx="-185.86807"
       cy="386.79791"
       rx="5.5558391"
       ry="5.9346461" /></g><g
     transform="translate(231.61241,64.861228)"
     inkscape:label="fins"
     id="layer4"><path
       sodipodi:nodetypes="csssssssccsssssssssssscssc"
       inkscape:connector-curvature="0"
       id="path3002"
       d="m 1.0714286,437.36218 c 0,0 6.1412688,1.93547 8.5714286,3.92857 3.2958138,2.70307 5.3030088,6.70445 7.4999998,10.35715 11.141327,18.52346 20.552977,38.14061 28.571429,58.21428 8.56186,21.43405 14.807478,43.75925 20.714286,66.07143 4.738788,17.90014 8.27757,36.10429 11.785714,54.28571 1.624079,8.417 2.175509,17.04868 4.285714,25.35715 2.803434,11.03791 6.101132,22.07493 11.071429,32.32143 2.442796,5.03594 9.107141,14.10714 9.107141,14.10714 1.59471,2.85976 3.66816,3.32587 6.60714,-0.53572 0,0 6.0894,-7.67177 8.39286,-11.96428 3.62727,-6.75944 5.94606,-14.15806 8.39286,-21.42857 2.22974,-6.62556 4.30829,-13.33073 5.71428,-20.17857 1.58144,-7.70233 1.98183,-15.6008 3.03572,-23.39286 1.08765,-8.04169 2.95801,-16.00389 3.39286,-24.10714 0.29361,-5.47123 -0.0854,-10.96801 -0.53572,-16.42858 -0.55769,-6.76223 -1.55688,-13.48674 -2.67857,-20.17857 -0.6928,-4.13317 -1.67484,-8.21264 -2.5,-12.32143 -1.92383,-9.57952 -3.81084,-19.16641 -5.71429,-28.75 -1.54869,-7.7974 -2.96999,-15.62114 -4.64285,-23.39285 -0.72009,-3.34535 -1.54873,-6.66641 -2.32143,-10 -0.81929,-3.53462 -2.33311,-15.41019 -5.73733,-16.66559 -8.28443,-3.05509 -13.86928,-5.8864 -21.907681,-10.9854 -4.498694,-2.86764 -9.410437,-5.00953 -14.015866,-7.70241 -1.949901,-1.14014 -4.635879,-1.27794 -6.060915,-3.03046 -2.911266,-3.58029 -3.535534,-13.38452 -3.535534,-13.38452"
       style="fill:#808080;stroke:#000000;stroke-width:1px;stroke-linecap:butt;stroke-linejoin:miter;stroke-opacity:1" /></g></g></svg>