<?xml version="1.0" encoding="UTF-8" standalone="no"?>
<svg
   xmlns:dc="http://purl.org/dc/elements/1.1/"
   xmlns:cc="http://creativecommons.org/ns#"
   xmlns:rdf="http://www.w3.org/1999/02/22-rdf-syntax-ns#"
   xmlns:svg="http://www.w3.org/2000/svg"
   xmlns="http://www.w3.org/2000/svg"
   version="1.1"
   id="svg2"
   xml:space="preserve"
   width="3000"
   height="2000"
   viewBox="0 0 2999.9999 1999.9999"><metadata
     id="metadata8"><rdf:RDF><cc:Work
         rdf:about=""><dc:format>image/svg+xml</dc:format><dc:type
           rdf:resource="http://purl.org/dc/dcmitype/StillImage" /><dc:title></dc:title></cc:Work></rdf:RDF></metadata><defs
     id="defs6" /><g
     id="g30"
     transform="matrix(1.3333333,0,0,-1.3333333,-104.12082,2006.442)">









<rect
   transform="scale(1,-1)"
   y="-1504.8315"
   x="78.090614"
   height="1500"
   width="2250"
   id="rect4114"
   style="opacity:1;fill:#ffffff;fill-opacity:1;fill-rule:evenodd;stroke:none;stroke-width:11.98958778;stroke-miterlimit:10;stroke-dasharray:none;stroke-opacity:1" /><path
   id="path26"
   transform="matrix(0.75000002,0,0,-0.75000002,78.090617,1504.8315)"
   d="M 1213.0625 1146.7285 C 1193.7001 1147.2158 1174.4543 1168.7829 1185.9805 1190.9727 C 1198.1672 1214.4358 1225.5247 1199.2466 1229.334 1206.5547 C 1233.0567 1213.6984 1433.8357 1329.4692 1438.6367 1330.916 L 1585.4414 1399.0059 L 1689.5898 1466.8711 L 1702.8379 1436.0332 L 1710.3633 1400.9609 L 1572.6133 1336.8438 L 1444.9375 1280.5586 C 1444.9375 1280.5586 1255.7268 1191.5819 1247.0605 1179.8105 L 1241.4199 1173.0371 C 1236.3399 1153.7329 1224.68 1146.4362 1213.0625 1146.7285 z "
   style="fill:#273a79;fill-opacity:1;fill-rule:nonzero;stroke:none;stroke-width:0.18062444" /><path
   id="path14"
   d="m 1205.7621,1209.64 c -14.1126,-35.97 -95.2297,-233.76079 -178.5722,-248.53811 -15.522,-2.75136 82.0349,-24.30434 109.7829,-27.09502 18.2394,-1.83421 -86.8629,-37.93049 -174.92678,-31.15704 -28.79522,2.21491 102.54328,-66.37884 174.92678,-63.66944 11.466,0.42936 -153.211,-32.51311 -235.24663,-21.67562 -25.60077,3.38262 92.89303,-60.96012 172.51183,-67.73346 10.1967,-0.86707 -68.7634,-32.5124 -205.08377,-28.44835 -23.85456,0.71252 179.75097,-73.15423 260.57947,-55.54337 9.7632,2.12682 68.5358,-54.26442 0.3492,-269.33264 -5.497,-17.3357 76.3909,-13.75375 76.8401,-13.73404 0.1268,-0.0106 82.402,-3.63581 76.8953,13.73404 -68.1852,215.06822 -9.4107,271.45946 0.3512,269.33264 80.8286,-17.61086 284.4321,56.25589 260.5776,55.54337 -136.3218,-4.06405 -215.2804,27.58128 -205.0838,28.44835 79.6201,6.77334 198.1139,71.11608 172.5119,67.73346 -82.0329,-10.83749 -246.7135,22.10498 -235.2447,21.67562 72.3834,-2.7094 203.7219,65.88435 174.9268,63.66944 -88.0667,-6.77345 -193.169,29.32283 -174.9268,31.15704 27.7466,2.79068 125.3015,24.34366 109.781,27.09502 -83.3456,14.77752 -164.4605,212.57541 -178.5704,248.54001 l -1.186,3.1396 z"
   style="fill:#1d5c2d;fill-opacity:1;fill-rule:nonzero;stroke:none;stroke-width:0.13546833" /><path
   id="path18"
   transform="matrix(0.75000002,0,0,-0.75000002,78.090617,1504.8315)"
   d="M 1657.0801 1167.3516 C 1655.9733 1167.3152 1655.2853 1167.8121 1655.0645 1169.0078 C 1651.9341 1185.9485 1655.4643 1217.1231 1645.4922 1243.0645 C 1638.8558 1260.3249 1658.6773 1222.5938 1674.9336 1223.1953 C 1686.7666 1223.6327 1714.4601 1328.9404 1700.7422 1431.4863 L 1689.5898 1466.8711 L 1691.5781 1468.0195 C 1664.842 1525.3063 1577.0815 1561.1889 1511.4238 1573.6074 C 1501.3396 1575.5148 1495.2109 1535.0742 1495.2109 1535.0742 C 1475.0785 1569.2989 1440.1211 1593.4766 1440.1211 1593.4766 C 1451.2312 1599.6286 1477.1493 1599.1968 1503.3398 1636.3477 C 1504.9981 1638.6976 1509.4928 1594.8326 1511.4238 1594.5742 C 1547.2017 1589.8003 1591.846 1587.4551 1646.0332 1569.3926 C 1675.0181 1559.731 1775.3476 1495.8573 1775.1797 1487.209 C 1774.6577 1460.1768 1757.9279 1366.5423 1755.3105 1342.709 C 1751.7107 1309.9292 1712.1477 1230.5746 1702.0273 1213.2617 C 1697.5117 1205.5381 1740.6153 1187.8142 1725.5078 1189.7793 C 1693.1082 1193.9944 1664.8275 1167.6062 1657.0801 1167.3516 z "
   style="fill:#273a79;fill-opacity:1;fill-rule:nonzero;stroke:none;stroke-width:0.18062444" /><path
   d="m 992.05,631.5743 c -5.8347,0.55272 -10.6912,-0.0417 -12.5038,-5.08006 -1.36276,-3.78901 -1.51862,-10.21164 3.1916,-12.41293 12.5579,-5.86849 19.6091,14.79721 7.9574,17.49299"
   style="fill:#ffffff;fill-opacity:1;fill-rule:nonzero;stroke:none;stroke-width:0.13546833"
   id="path22" /><path
   d="m 1033.6252,606.92858 c -8.2271,-11.90634 -54.9108,-85.31253 -54.9108,-85.31253 l 12.4536,-10.45681 c 0,0 35.2028,22.48365 67.0013,70.72667 27.6802,41.99514 30.2243,80.93007 30.2243,80.93007 l -16.3293,3.60888 c 0,0 -27.1628,-43.1778 -38.4391,-59.49628"
   style="fill:#273a79;fill-opacity:1;fill-rule:nonzero;stroke:none;stroke-width:0.13546833"
   id="path24" /><g
   id="text34"
   style="font-variant:normal;font-weight:normal;font-size:154.17111206px;font-family:JerseyM54;-inkscape-font-specification:JerseyM54;writing-mode:lr-tb;fill:#273a79;fill-opacity:1;fill-rule:nonzero;stroke:none;stroke-width:1.20600677"
   transform="matrix(1.0207679,0.47028851,0.3749235,-0.80691976,0,0)"
   aria-label="D"><path
     id="path6207"
     style="stroke-width:1.20600677"
     d="m 1214.1635,-946.38706 14.1525,12.49629 v 93.3458 l -14.1525,12.42101 h -53.7491 v -118.2631 z m -7.6784,96.43223 v -74.60136 h -24.1645 v 74.60136 z" /></g><g
   id="text38"
   style="font-variant:normal;font-weight:normal;font-size:154.17059326px;font-family:JerseyM54;-inkscape-font-specification:JerseyM54;writing-mode:lr-tb;fill:#273a79;fill-opacity:1;fill-rule:nonzero;stroke:none;stroke-width:1.20546365"
   transform="matrix(1.0862272,0.2888589,0.23143361,-0.8590729,0,0)"
   aria-label="I"><path
     id="path6204"
     style="stroke-width:1.20546365"
     d="m 1173.7602,-1078.0566 h -21.9061 v -118.2627 h 21.9061 z" /></g><g
   id="text42"
   style="font-variant:normal;font-weight:normal;font-size:154.17021179px;font-family:JerseyM54;-inkscape-font-specification:JerseyM54;writing-mode:lr-tb;fill:#273a79;fill-opacity:1;fill-rule:nonzero;stroke:none;stroke-width:1.20517051"
   transform="matrix(1.120109,0.09422681,0.0774515,-0.8862548,0,0)"
   aria-label="R"><path
     id="path6201"
     style="stroke-width:1.20517051"
     d="m 1139.1009,-1329.4687 h -23.4116 l -18.5938,-48.1782 h -6.4739 v 48.1782 h -21.9061 v -118.2625 h 52.4691 l 13.9265,12.421 v 43.4356 l -14.9051,13.9265 z m -48.4793,-70.0843 h 22.6588 v -26.4227 h -22.6588 z" /></g><g
   id="text46"
   style="font-variant:normal;font-weight:normal;font-size:154.1703186px;font-family:JerseyM54;-inkscape-font-specification:JerseyM54;writing-mode:lr-tb;fill:#273a79;fill-opacity:1;fill-rule:nonzero;stroke:none;stroke-width:1.20511138"
   transform="matrix(1.1220865,-0.06797302,-0.05090757,-0.88811304,0,0)"
   aria-label="I"><path
     id="path6198"
     style="stroke-width:1.20511138"
     d="m 1060.3304,-1524.4823 h -21.906 v -118.2625 h 21.906 z" /></g><g
   id="text50"
   style="font-variant:normal;font-weight:normal;font-size:154.17120361px;font-family:JerseyM54;-inkscape-font-specification:JerseyM54;writing-mode:lr-tb;fill:#273a79;fill-opacity:1;fill-rule:nonzero;stroke:none;stroke-width:1.20527172"
   transform="matrix(1.1037497,-0.21359899,-0.16617349,-0.87384442,0,0)"
   aria-label="G"><path
     id="path6195"
     style="stroke-width:1.20527172"
     d="m 1027.0644,-1705.1209 -14.1525,12.3458 h -39.29555 l -13.9266,-12.3458 v -93.4964 l 14.15244,-12.421 h 39.06971 l 14.1525,12.421 v 18.5186 h -21.8309 v -9.1087 h -23.63759 v 74.6014 h 23.63759 v -26.3476 h -14.90523 v -21.9062 h 36.73613 z" /></g><g
   id="text54"
   style="font-variant:normal;font-weight:normal;font-size:154.17073059px;font-family:JerseyM54;-inkscape-font-specification:JerseyM54;writing-mode:lr-tb;fill:#273a79;fill-opacity:1;fill-rule:nonzero;stroke:none;stroke-width:1.20579445"
   transform="matrix(1.0109772,-0.49196645,-0.38660485,-0.80101054,0,0)"
   aria-label="O"><path
     id="path6192"
     style="stroke-width:1.20579445"
     d="m 757.59401,-1990.7455 -14.07711,12.3457 h -40.65049 l -13.92655,-12.3457 v -93.4961 l 13.92655,-12.421 h 40.65049 l 14.07711,12.421 z m -21.9061,-9.4851 v -74.6012 h -24.91724 v 74.6012 z" /></g><g
   id="text58"
   style="font-variant:normal;font-weight:normal;font-size:152.23799133px;font-family:JerseyM54;-inkscape-font-specification:JerseyM54;writing-mode:lr-tb;fill:#273a79;fill-opacity:1;fill-rule:nonzero;stroke:#23346c;stroke-width:0.30390215;stroke-miterlimit:11.30000019;stroke-dasharray:none;stroke-opacity:0.99607843"
   transform="matrix(1.0478698,-0.1610916,-0.1433229,-0.93228365,0,0)"
   aria-label="M"><path
     id="path6222"
     style="stroke:#23346c;stroke-width:0.30390215;stroke-miterlimit:11.30000019;stroke-dasharray:none;stroke-opacity:0.99607843"
     d="m 905.36328,-298.50522 h -21.63147 v -65.78644 l -18.80675,40.14088 -18.73241,-40.14088 v 65.78644 h -21.55714 v -116.78022 h 21.55714 l 18.73241,40.14088 18.80675,-40.14088 h 21.63147 z" /></g><g
   id="text62"
   style="font-variant:normal;font-weight:normal;font-size:152.23738098px;font-family:JerseyM54;-inkscape-font-specification:JerseyM54;writing-mode:lr-tb;fill:#273a79;fill-opacity:1;fill-rule:nonzero;stroke:#23346c;stroke-width:0.30390215;stroke-miterlimit:11.30000019;stroke-dasharray:none;stroke-opacity:0.99607843"
   transform="matrix(1.0589098,-0.05177823,-0.046067,-0.94211493,0,0)"
   aria-label="A"><path
     id="path6219"
     style="stroke:#23346c;stroke-width:0.30390215;stroke-miterlimit:11.30000019;stroke-dasharray:none;stroke-opacity:0.99607843"
     d="m 1048.5743,-186.25282 -5.2034,-26.01713 h -22.5978 l -5.2034,26.01713 h -22.00305 l 23.34105,-116.77975 h 30.3286 l 23.3411,116.77975 z m -9.5148,-47.57418 -6.9875,-34.93729 -6.9875,34.93729 z" /></g><g
   id="text66"
   style="font-variant:normal;font-weight:normal;font-size:152.23718262px;font-family:JerseyM54;-inkscape-font-specification:JerseyM54;writing-mode:lr-tb;fill:#273a79;fill-opacity:1;fill-rule:nonzero;stroke:#23346c;stroke-width:0.30390215;stroke-miterlimit:11.30000019;stroke-dasharray:none;stroke-opacity:0.99607843"
   transform="matrix(1.0600316,0.01738503,0.01546717,-0.94311447,0,0)"
   aria-label="I"><path
     id="path6216"
     style="stroke:#23346c;stroke-width:0.30390215;stroke-miterlimit:11.30000019;stroke-dasharray:none;stroke-opacity:0.99607843"
     d="m 1177.6492,-104.5175 h -21.6313 v -116.7796 h 21.6313 z" /></g><g
   id="text70"
   style="font-variant:normal;font-weight:normal;font-size:152.23770142px;font-family:JerseyM54;-inkscape-font-specification:JerseyM54;writing-mode:lr-tb;fill:#273a79;fill-opacity:1;fill-rule:nonzero;stroke:#23346c;stroke-width:0.30390215;stroke-miterlimit:11.30000019;stroke-dasharray:none;stroke-opacity:0.99607843"
   transform="matrix(1.0519018,0.13221181,0.11762859,-0.93587455,0,0)"
   aria-label="N"><path
     id="path6213"
     style="stroke:#23346c;stroke-width:0.30390215;stroke-miterlimit:11.30000019;stroke-dasharray:none;stroke-opacity:0.99607843"
     d="m 1302.7693,45.490131 -23.5642,-61.177552 v 61.177552 h -21.4827 V -71.289863 h 23.1181 l 23.6385,61.251887 v -61.251887 h 21.4084 V 45.341462 l 0.074,0.148669 z" /></g><g
   id="text74"
   style="font-variant:normal;font-weight:normal;font-size:152.23735046px;font-family:JerseyM54;-inkscape-font-specification:JerseyM54;writing-mode:lr-tb;fill:#273a79;fill-opacity:1;fill-rule:nonzero;stroke:#23346c;stroke-width:0.30390215;stroke-miterlimit:11.30000019;stroke-dasharray:none;stroke-opacity:0.99607843"
   transform="matrix(1.0452431,0.17730866,0.15775132,-0.92995526,0,0)"
   aria-label="E"><path
     id="path6210"
     style="stroke:#23346c;stroke-width:0.30390215;stroke-miterlimit:11.30000019;stroke-dasharray:none;stroke-opacity:0.99607843"
     d="m 1451.6716,114.49989 h -56.2713 V -2.2798322 h 55.8253 V 19.277215 h -34.2682 V 45.29434 h 29.5108 v 21.631381 h -29.5108 v 26.017125 h 34.7142 z" /></g>
<path
   d="m 1352.16,502.19933 c 21.8429,20.40022 115.6114,16.29552 105.049,-0.26284 -6.871,-10.77106 -9.8256,-6.89934 -17.6868,-12.2653 -9.961,-6.80048 -64.7687,21.4785 -85.4331,-10.8374 -34.9399,-54.63851 -125.3502,-75.80134 -150.4362,-74.05654 -61.1911,4.25648 -89.4294,135.6905 -112.4009,193.68724 -8.777,22.15852 -49.7019,33.0963 -83.8968,18.53338 -4.8634,-2.07124 -7.3153,15.85528 -3.0277,19.02657 19.9219,14.73218 59.0547,12.02826 92.3378,-4.28219 39.4132,-19.31501 40.1894,-223.6907 138.1142,-199.98377 60.9742,14.76204 80.9572,36.42476 117.3805,70.44085"
   style="fill:#273a79;fill-opacity:1;fill-rule:nonzero;stroke:none;stroke-width:0.13546833"
   id="path28" /></g></svg>