<svg height="432" viewBox="0 0 190.5 114.3" width="720" xmlns="http://www.w3.org/2000/svg"><path d="m-.0000007 0h190.5000007v114.3h-190.5000007z" fill="#fff" stroke-width="1.41455"/><path d="m190.5 0v46.153916l-19.05-11.001374-9.525 5.503332-28.575-16.499416-9.5197 5.498042-28.580301-16.499416-28.580299 16.499416-9.5197-5.498042-28.575 16.499416-9.525-5.503332-19.0499993 11.001374v-46.153916z" fill="#071d49" stroke-width=".529166"/><path d="m128.24619 76.2v-38.1l-32.993541-19.05-32.998839 19.05v38.1l32.998839 19.05z" fill="#071d49" stroke-width=".529166"/><g fill="#ffb81d" transform="scale(.52916665)"><path d="m180 42.53-56.7 32.74v65.47l56.7 32.74 56.7-32.74v-65.47zm54 96.65-54 31.18-54-31.18v-62.35l54-31.18 54 31.18z"/><path d="m199.53 75.56h-39.03c-.75 0-1.13-.92-.59-1.44 5.68-5.44 12.56-8.98 20.08-8.98s14.47 3.54 20.12 8.98c.54.52.17 1.44-.59 1.44z"/><path d="m208.46 89.52h-56.92c-1.12 0-1.84-1.19-1.33-2.18 1.11-2.14 2.35-4.21 3.72-6.17.91-1.3 2.39-2.07 3.98-2.07h44.2c1.59 0 3.08.78 3.98 2.08 1.36 1.96 2.6 4.02 3.7 6.16.51.99-.21 2.18-1.33 2.18z"/><path d="m213.61 103.47h-67.22c-.98 0-1.69-.92-1.45-1.86.57-2.2 1.15-4.28 1.76-6.11.48-1.46 1.85-2.45 3.4-2.45h59.81c1.54 0 2.91.99 3.4 2.45.61 1.83 1.2 3.91 1.76 6.11.24.94-.48 1.86-1.45 1.86z"/><path d="m216.64 117.43h-73.27c-.94 0-1.64-.85-1.47-1.77.36-1.89.74-3.85 1.15-5.81.35-1.65 1.81-2.84 3.5-2.84h66.91c1.7 0 3.16 1.19 3.5 2.84.41 1.96.79 3.91 1.15 5.81.17.92-.53 1.77-1.47 1.77z"/><path d="m186.97 131.38c-.83 0-1.5-.67-1.5-1.49 0-1.51-.61-2.87-1.6-3.86s-2.36-1.6-3.87-1.6c-3.02 0-5.47 2.44-5.47 5.45 0 .82-.67 1.49-1.5 1.49h-32.03c-.92 0-1.62-.81-1.48-1.71.2-1.31.51-3.3.91-5.72.29-1.72 1.78-2.98 3.53-2.98h72.09c1.75 0 3.24 1.26 3.53 2.98.4 2.42.71 4.41.91 5.72.14.9-.56 1.71-1.48 1.71h-32.03z"/></g><g stroke-width=".264583" transform="scale(2)"><path d="m95.25 39.573729v17.576271h-95.25v-17.576271h28.575l19.05 10.998731 19.05-10.998731z" fill="#aa0200"/><path d="m47.625 37.192479.59002 1.820333h1.91294l-1.54781 1.124479.59266 1.817688-1.54781-1.12448-1.54781 1.12448.59002-1.817688-1.54517-1.124479h1.91029z" fill="#fff"/></g></svg>