<?xml version="1.0" encoding="UTF-8"?>
<svg xmlns="http://www.w3.org/2000/svg" width="360" height="216">
	<rect width="360" height="216" fill="#002a86"/>
	<g fill="none" stroke="#002a86" stroke-width="1">
		<path d="M 243.68738,133.75804 C 245.14338,133.56639 242.37069,130.21312 241.66171,126.87078 C 240.95273,123.52844 241.45915,122.16112 240.85145,120.38866 C 238.47776,118.45471 231.93088,118.99797 228.69746,119.98353 C 226.0446,122.09495 224.88102,123.74428 222.21534,124.43999 C 221.47047,124.93657 172.96335,124.31361 151.51967,124.64256 C 145.50266,124.73486 137.74515,134.56831 137.74515,134.56831 C 137.74515,134.56831 138.17642,135.72717 138.96055,135.78371 C 173.45183,138.25605 231.20576,135.40094 243.68738,133.75804 z" fill="#ffea0f"/>
		<path d="M 162.06702,109.8749 C 162.06702,109.8749 158.03591,115.05775 156.96643,118.43072 C 155.89695,121.80369 157.78911,123.69584 157.78911,123.69584 L 192.506,123.86038 C 192.506,123.86038 192.71167,122.21503 189.2153,121.55689 C 185.71893,120.89875 178.52052,121.22782 178.52052,121.22782 L 178.19145,119.58246 L 196.12577,116.9499 L 189.87344,101.15454 z" fill="#ffea0f" stroke="#ffea0f"/>
		<path d="M 207.64322,110.3685 C 207.64322,110.3685 204.76386,112.17839 205.01066,117.11444 C 205.17545,120.41027 204.06458,121.80369 206.65601,123.53131 C 209.24744,125.25893 215.37637,124.02491 215.37637,124.02491 C 213.82056,123.12724 212.38226,122.34708 211.263,121.88596 C 211.263,121.88596 209.86444,120.15833 210.93392,117.27897 C 212.0034,114.39961 216.69266,110.53304 216.69266,110.53304 z" fill="#ffea0f" stroke="#ffea0f"/>
		<path d="M 240.71477,110.8621 C 239.11055,106.95439 235.51763,104.2429 231.5008,101.48361 C 228.86188,99.670847 225.00167,100.86659 221.79324,99.180115 C 218.58481,97.493631 217.43306,94.984475 216.36358,93.750463 C 209.72742,86.093366 203.41492,79.135519 186.58274,79.106844 C 162.60176,79.06571 150.05596,105.43245 150.05596,105.43245 C 150.05596,105.43245 147.83931,110.35378 140.18386,112.17839 C 132.24504,114.07054 124.11092,113.11411 120.27512,115.63362 C 118.91373,116.52784 114.59867,120.61082 115.17453,124.68305 C 115.91598,129.92629 121.06466,137.23844 129.29141,135.63422 C 137.51816,134.03 144.46628,123.75144 147.75247,118.92432 C 148.9917,117.104 156.30829,118.59525 156.30829,118.59525 C 156.30829,118.59525 178.76733,120.98101 195.96124,120.73421 C 213.15515,120.48741 225.08394,117.60804 225.08394,117.60804 L 233.14615,116.4563 C 233.14615,116.4563 242.31899,114.76981 240.71477,110.8621 z" fill="#ffea0f" stroke="#ffea0f"/>
		<path d="M 145.44898,115.46909 L 133.10885,121.55689"/>
		<path d="M 130.96989,120.89875 L 127.97512,117.52258"/>
		<path d="M 133.10885,120.07607 L 130.31175,116.4563"/>
		<path d="M 132.61524,116.62083 L 134.42513,118.43072"/>
		<path d="M 123.56582,120.89875 L 125.54024,123.20224"/>
		<path d="M 120.43965,120.07607 L 123.73035,124.51852"/>
		<path d="M 121.92047,125.8348 L 119.12337,122.05049"/>
		<path d="M 118.95884,126.82201 L 117.64256,123.69584"/>
		<path d="M 124.55303,133.07434 L 121.92047,130.27724"/>
		<path d="M 120.93326,128.46736 L 128.83094,124.35398"/>
		<path d="M 126.69198,132.25166 L 123.89489,129.6191"/>
		<path d="M 125.70477,129.1255 L 128.50187,131.75806"/>
		<path d="M 130.31175,130.44178 L 128.00826,128.13829"/>
		<path d="M 135.24781,126.49294 L 133.43792,124.35398"/>
		<path d="M 137.71583,125.67026 L 135.08327,123.0377"/>
		<path d="M 139.85479,124.68305 L 137.22223,122.05049"/>
		<path d="M 160.125,108.125 C 156.78084,111.58333 155.78242,115.79167 155.375,119.25"/>
		<path d="M 161.5,111.25 C 156.89133,113.6183 156.95471,116.4538 155.375,119.125"/>
		<path d="M 215.875,112.625 C 212.80684,115.07803 210.86785,117.7569 211.125,120.875"/>
		<path d="M 206.625,110.5 C 202.34908,114.55259 204.1997,120.09424 203.86463,121.09025"/>
		<path d="M 159.375,99.375 C 153.90913,102.05509 153.49286,103.35801 151.375,105.125"/>
		<path d="M 162.875,95.625 C 154.84254,97.416667 154.6552,101.95833 151.25,105.125"/>
		<path d="M 165.875,92.5 C 160.99633,93.428047 158.92478,94.757112 156.25,96"/>
		<path d="M 169.5,89.375 C 164.36655,89.883303 161.62872,91.896762 160.5,92.5"/>
		<path d="M 175.25,86.375 C 169.18483,86.657266 166.16601,88.158072 163.375,89.75"/>
		<path d="M 178.625,83.875 C 171.19496,83.527139 168.92287,86.353558 166.625,87.625"/>
		<path d="M 213,93.375 C 211.43416,92.270062 209.77276,91.738418 207.875,92.625"/>
		<path d="M 225.625,103.75 C 225.49379,101.82961 220.10583,103.05517 224.375,105.875"/>
		<path d="M 210.125,89.5 C 206.95769,88.373867 204.45898,88.4178 202.625,89.625"/>
		<path d="M 207.5,87.75 C 203.94574,85.801849 201.35224,86.255599 199.125,87.625"/>
		<path d="M 202.625,85.5 C 200.87789,83.872108 196.90715,84.467854 193.625,84.375"/>
		<path d="M 200.5,82.375 C 196.58349,81.41714 192.99984,81.45786 189.75,82.5"/>
		<path d="M 143.375,133.5 L 146.625,133.625"/>
		<path d="M 146.5,130.375 L 152.5,130.375"/>
		<path d="M 148.5,127.5 L 155.75,127.5"/>
		<path d="M 172.625,129.375 L 176.5,129.375"/>
		<path d="M 168.75,129.5 L 170.875,129.375"/>
		<path d="M 184.5,129.625 C 183.91102,129.14077 183.51986,128.5906 181,128.75"/>
		<path d="M 197,128 C 199.7397,128.03091 202.34338,128.46986 204.75,129.5"/>
		<path d="M 222.125,127.375 L 225.5,127.375"/>
		<path d="M 232.25,124.375 L 239.625,124.625"/>
		<path d="M 238.375,127.75 C 236.06376,127.51557 233.94514,127.53796 232.625,128.625"/>
		<path d="M 239.625,131.75 C 238.23891,131.13239 236.74638,130.58575 234.375,130.625"/>
		<path d="M 187.75,106.625 L 185.125,106.625"/>
		<path d="M 179.75,109.5 L 183.5,109.5"/>
		<path d="M 180.625,111.5 L 182.875,111.375"/>
		<path d="M 186.875,108.375 L 184.125,108.25"/>
		<path d="M 186,110.75 L 183.25,110.5"/>
		<path d="M 184.875,112.625 L 182.25,112.375"/>
		<path d="M 177.5,113.5 L 182.5,113.5"/>
		<path d="M 176.125,115.5 L 180.5,115.375"/>
		<path d="M 180.75,116.75 L 176.25,116.5"/>
		<path d="M 175.625,118.5 L 179.375,118.25"/>
		<path d="M 230.875,111.625 L 224.125,110.25"/>
		<path d="M 224.125,117.75 C 226.95833,116.44948 229.04167,115.76669 231.875,113.875 L 223.625,113"/>
		<ellipse cx="231.25" cy="108.125" rx="1.625" ry="1.25" fill="#002a86" stroke-width=".25"/>
		<path d="M 163.25,136.5 C 163.25,136.5 162.8125,136.03125 162,134.75 C 161.1875,133.46875 160,131.375 160,131.375 L 161.625,131.25 L 164,133.125 C 164.12851,132.33685 163.8015,131.09317 163.625,130 L 165,130.25 L 165.375,133.25 C 165.97816,132.6996 166.30189,132.03742 168.5,132.125 L 166.875,134.25 L 166.75,138 L 163.875,137.75 z" fill="#002a86"/>
		<path d="M 228.125,135.5 L 225,131.25 L 227,131.375 L 227.875,132.25 L 229.5,130.25 L 229.625,131.875 L 228.625,132.5 L 229.375,136 z" fill="#002a86"/>
		<path d="M 214.75,135.875 L 212.75,132.375 L 215,133.5 L 215.5,129.75 L 216.25,133.625 L 218.75,132.375 L 217.625,133.75 L 218,136.75 z" fill="#002a86"/>
		<path d="M 187.625,137.25 L 187.125,134 L 184.5,132.625 L 184.625,131.25 L 185.5,132.5 L 187.625,132.25 L 186.25,130.25 L 187.75,130.375 L 188.375,131.625 L 189.5,130 L 190.125,132.5 L 192.625,131.25 L 191.25,134.75 L 190.875,137.5 z" fill="#002a86"/>
		<path d="M 237.75,113.25 C 237.75,113.875 238.125,117.25 238.125,117.25 L 237.25,117 L 236.25,113.125 z" fill="#ffea0f" stroke="#ffea0f"/>
	</g>
</svg>